%TF.GenerationSoftware,KiCad,Pcbnew,9.0.0*%
%TF.CreationDate,2025-06-18T07:15:52-06:00*%
%TF.ProjectId,schematic_Mk2.1,73636865-6d61-4746-9963-5f4d6b322e31,rev?*%
%TF.SameCoordinates,Original*%
%TF.FileFunction,Copper,L1,Top*%
%TF.FilePolarity,Positive*%
%FSLAX46Y46*%
G04 Gerber Fmt 4.6, Leading zero omitted, Abs format (unit mm)*
G04 Created by KiCad (PCBNEW 9.0.0) date 2025-06-18 07:15:52*
%MOMM*%
%LPD*%
G01*
G04 APERTURE LIST*
%TA.AperFunction,ComponentPad*%
%ADD10C,1.560000*%
%TD*%
%TA.AperFunction,ComponentPad*%
%ADD11C,1.498600*%
%TD*%
%TA.AperFunction,ComponentPad*%
%ADD12C,1.570000*%
%TD*%
%TA.AperFunction,ComponentPad*%
%ADD13R,1.560000X1.560000*%
%TD*%
%TA.AperFunction,ComponentPad*%
%ADD14C,1.575000*%
%TD*%
%TA.AperFunction,ComponentPad*%
%ADD15R,1.575000X1.575000*%
%TD*%
%TA.AperFunction,ComponentPad*%
%ADD16C,4.066000*%
%TD*%
%TA.AperFunction,ComponentPad*%
%ADD17C,1.524000*%
%TD*%
%TA.AperFunction,ComponentPad*%
%ADD18R,1.524000X1.524000*%
%TD*%
%TA.AperFunction,ComponentPad*%
%ADD19R,2.100000X2.100000*%
%TD*%
%TA.AperFunction,ComponentPad*%
%ADD20C,2.100000*%
%TD*%
%TA.AperFunction,ComponentPad*%
%ADD21C,1.700000*%
%TD*%
%TA.AperFunction,ViaPad*%
%ADD22C,0.600000*%
%TD*%
%TA.AperFunction,Conductor*%
%ADD23C,0.254000*%
%TD*%
G04 APERTURE END LIST*
D10*
%TO.P,J5,4_2,4_2*%
%TO.N,ESP_GND2*%
X142800000Y-68900000D03*
%TO.P,J5,4_1,4_1*%
X145900000Y-68900000D03*
%TO.P,J5,3_2,3_2*%
%TO.N,+3.3V*%
X142800000Y-66400000D03*
%TO.P,J5,3_1,3_1*%
X145900000Y-66400000D03*
%TO.P,J5,2_2,2_2*%
%TO.N,GPIO_18*%
X142800000Y-63900000D03*
%TO.P,J5,2_1,2_1*%
X145900000Y-63900000D03*
%TO.P,J5,1_2,1_2*%
%TO.N,GPIO_19*%
X142800000Y-61400000D03*
%TO.P,J5,1_1,1_1*%
X145900000Y-61400000D03*
%TD*%
D11*
%TO.P,J4,3,3*%
%TO.N,-Vin*%
X119104900Y-98745100D03*
%TO.P,J4,2,2*%
%TO.N,+VIN-dc*%
X116604900Y-98745100D03*
%TO.P,J4,1,1*%
%TO.N,+24V*%
X114104900Y-98745100D03*
%TD*%
D12*
%TO.P,S1,1*%
%TO.N,GPIO_4*%
X175750000Y-113509150D03*
%TO.P,S1,2*%
%TO.N,GPIO_16*%
X175750000Y-116049150D03*
%TO.P,S1,4*%
%TO.N,GPIO_17*%
X175750000Y-118589150D03*
%TO.P,S1,8*%
%TO.N,GPIO_5*%
X175750000Y-121129150D03*
%TO.P,S1,C*%
%TO.N,+3.3V*%
X173210000Y-116049150D03*
%TD*%
D13*
%TO.P,U1,J2-1,3V3*%
%TO.N,+3.3V*%
X150250000Y-63029150D03*
D10*
%TO.P,U1,J2-2,EN*%
%TO.N,unconnected-(U1-EN-PadJ2-2)*%
X150250000Y-65569150D03*
%TO.P,U1,J2-3,SENSOR_VP*%
%TO.N,unconnected-(U1-SENSOR_VP-PadJ2-3)*%
X150250000Y-68109150D03*
%TO.P,U1,J2-4,SENSOR_VN*%
%TO.N,unconnected-(U1-SENSOR_VN-PadJ2-4)*%
X150250000Y-70649150D03*
%TO.P,U1,J2-5,IO34*%
%TO.N,unconnected-(U1-IO34-PadJ2-5)*%
X150250000Y-73189150D03*
%TO.P,U1,J2-6,IO35*%
%TO.N,unconnected-(U1-IO35-PadJ2-6)*%
X150250000Y-75729150D03*
%TO.P,U1,J2-7,IO32*%
%TO.N,GPIO_32*%
X150250000Y-78269150D03*
%TO.P,U1,J2-8,IO33*%
%TO.N,GPIO_33*%
X150250000Y-80809150D03*
%TO.P,U1,J2-9,IO25*%
%TO.N,GPIO_25*%
X150250000Y-83349150D03*
%TO.P,U1,J2-10,IO26*%
%TO.N,GPIO_26*%
X150250000Y-85889150D03*
%TO.P,U1,J2-11,IO27*%
%TO.N,unconnected-(U1-IO27-PadJ2-11)*%
X150250000Y-88429150D03*
%TO.P,U1,J2-12,IO14*%
%TO.N,unconnected-(U1-IO14-PadJ2-12)*%
X150250000Y-90969150D03*
%TO.P,U1,J2-13,IO12*%
%TO.N,unconnected-(U1-IO12-PadJ2-13)*%
X150250000Y-93509150D03*
%TO.P,U1,J2-14,GND1*%
%TO.N,ESP_GND2*%
X150250000Y-96049150D03*
%TO.P,U1,J2-15,IO13*%
%TO.N,unconnected-(U1-IO13-PadJ2-15)*%
X150250000Y-98589150D03*
%TO.P,U1,J2-16,SD2*%
%TO.N,unconnected-(U1-SD2-PadJ2-16)*%
X150250000Y-101129150D03*
%TO.P,U1,J2-17,SD3*%
%TO.N,unconnected-(U1-SD3-PadJ2-17)*%
X150250000Y-103669150D03*
%TO.P,U1,J2-18,CMD*%
%TO.N,unconnected-(U1-CMD-PadJ2-18)*%
X150250000Y-106209150D03*
%TO.P,U1,J2-19,EXT_5V*%
%TO.N,+VOUT-esp*%
X150250000Y-108749150D03*
%TO.P,U1,J3-1,GND3*%
%TO.N,ESP_GND2*%
X175650000Y-63029150D03*
%TO.P,U1,J3-2,IO23*%
%TO.N,unconnected-(U1-IO23-PadJ3-2)*%
X175650000Y-65569150D03*
%TO.P,U1,J3-3,IO22*%
%TO.N,GPIO_22*%
X175650000Y-68109150D03*
%TO.P,U1,J3-4,TXD0*%
%TO.N,unconnected-(U1-TXD0-PadJ3-4)*%
X175650000Y-70649150D03*
%TO.P,U1,J3-5,RXD0*%
%TO.N,unconnected-(U1-RXD0-PadJ3-5)*%
X175650000Y-73189150D03*
%TO.P,U1,J3-6,IO21*%
%TO.N,GPIO_21*%
X175650000Y-75729150D03*
%TO.P,U1,J3-7,GND2*%
%TO.N,ESP_GND2*%
X175650000Y-78269150D03*
%TO.P,U1,J3-8,IO19*%
%TO.N,GPIO_19*%
X175650000Y-80809150D03*
%TO.P,U1,J3-9,IO18*%
%TO.N,GPIO_18*%
X175650000Y-83349150D03*
%TO.P,U1,J3-10,IO5*%
%TO.N,GPIO_5*%
X175650000Y-85889150D03*
%TO.P,U1,J3-11,IO17*%
%TO.N,GPIO_17*%
X175650000Y-88429150D03*
%TO.P,U1,J3-12,IO16*%
%TO.N,GPIO_16*%
X175650000Y-90969150D03*
%TO.P,U1,J3-13,IO4*%
%TO.N,GPIO_4*%
X175650000Y-93509150D03*
%TO.P,U1,J3-14,IO0*%
%TO.N,unconnected-(U1-IO0-PadJ3-14)*%
X175650000Y-96049150D03*
%TO.P,U1,J3-15,IO2*%
%TO.N,unconnected-(U1-IO2-PadJ3-15)*%
X175650000Y-98589150D03*
%TO.P,U1,J3-16,IO15*%
%TO.N,unconnected-(U1-IO15-PadJ3-16)*%
X175650000Y-101129150D03*
%TO.P,U1,J3-17,SD1*%
%TO.N,unconnected-(U1-SD1-PadJ3-17)*%
X175650000Y-103669150D03*
%TO.P,U1,J3-18,SD0*%
%TO.N,unconnected-(U1-SD0-PadJ3-18)*%
X175650000Y-106209150D03*
%TO.P,U1,J3-19,CLK*%
%TO.N,unconnected-(U1-CLK-PadJ3-19)*%
X175650000Y-108749150D03*
%TD*%
D14*
%TO.P,J1,5*%
%TO.N,spare*%
X106670000Y-68465000D03*
%TO.P,J1,4*%
%TO.N,ramp_up*%
X106670000Y-71235000D03*
D15*
%TO.P,J1,1*%
%TO.N,unconnected-(J1-Pad1)*%
X106670000Y-79545000D03*
D14*
%TO.P,J1,2*%
%TO.N,unconnected-(J1-Pad2)*%
X106670000Y-76775000D03*
%TO.P,J1,3*%
%TO.N,ramp_down*%
X106670000Y-74005000D03*
%TO.P,J1,6*%
%TO.N,GPIO_19*%
X103830000Y-78160000D03*
%TO.P,J1,7*%
%TO.N,GPIO_18*%
X103830000Y-75390000D03*
%TO.P,J1,8*%
%TO.N,+3.3V*%
X103830000Y-72620000D03*
%TO.P,J1,9*%
%TO.N,ESP_GND2*%
X103830000Y-69850000D03*
D16*
%TO.P,J1,S1,SHIELD*%
%TO.N,unconnected-(J1-SHIELD-PadS1)*%
X105250000Y-61510000D03*
%TO.P,J1,S2,SHIELD__1*%
%TO.N,unconnected-(J1-SHIELD__1-PadS2)*%
X105250000Y-86500000D03*
%TD*%
D17*
%TO.P,RF2,1*%
%TO.N,/+VOUT*%
X151210000Y-119989150D03*
%TO.P,RF2,2*%
%TO.N,+VOUT-esp*%
X151210000Y-114477350D03*
%TD*%
%TO.P,RF1,1*%
%TO.N,+VIN-dc*%
X111550000Y-114061700D03*
%TO.P,RF1,2*%
%TO.N,/+VIN*%
X111550000Y-119573500D03*
%TD*%
D18*
%TO.P,C2,1*%
%TO.N,/+VIN*%
X140750000Y-93000000D03*
D17*
%TO.P,C2,2*%
%TO.N,-Vin*%
X140750000Y-98511800D03*
%TD*%
D19*
%TO.P,J2,01,01*%
%TO.N,sim_home*%
X105725000Y-109415000D03*
D20*
%TO.P,J2,02,02*%
%TO.N,/+24V-Sim*%
X105725000Y-114495000D03*
%TO.P,J2,03,03*%
%TO.N,-Vin*%
X105725000Y-119575000D03*
%TD*%
D18*
%TO.P,C1,1*%
%TO.N,/+VIN*%
X129000000Y-93000000D03*
D17*
%TO.P,C1,2*%
%TO.N,-Vin*%
X129000000Y-98511800D03*
%TD*%
D21*
%TO.P,PS1,23,+VIN__1*%
%TO.N,unconnected-(PS1-+VIN__1-Pad23)*%
X119970000Y-104969150D03*
%TO.P,PS1,22,+VIN*%
%TO.N,/+VIN*%
X122510000Y-104969150D03*
%TO.P,PS1,3,-VIN__1*%
%TO.N,unconnected-(PS1--VIN__1-Pad3)*%
X122510000Y-120209150D03*
%TO.P,PS1,2,-VIN*%
%TO.N,-Vin*%
X119970000Y-120209150D03*
%TO.P,PS1,9,NC*%
%TO.N,unconnected-(PS1-NC-Pad9)*%
X137750000Y-120209150D03*
%TO.P,PS1,11,NC1*%
%TO.N,unconnected-(PS1-NC1-Pad11)*%
X142830000Y-120209150D03*
%TO.P,PS1,14,+VOUT*%
%TO.N,/+VOUT*%
X142830000Y-104969150D03*
%TO.P,PS1,16,-VOUT*%
%TO.N,ESP_GND2*%
X137750000Y-104969150D03*
%TD*%
D22*
%TO.N,sim_home*%
X105250000Y-95650000D03*
X103466667Y-97600000D03*
X101683333Y-93550000D03*
X103466667Y-93550000D03*
X105250000Y-97600000D03*
X99900000Y-93550000D03*
X101683333Y-95650000D03*
X99900000Y-97600000D03*
X101683333Y-97600000D03*
X103466667Y-95650000D03*
X99900000Y-95650000D03*
X105250000Y-93550000D03*
%TO.N,spare*%
X110600000Y-59200000D03*
X110600000Y-61200000D03*
X116400000Y-57200000D03*
X110600000Y-57200000D03*
X114400000Y-59200000D03*
X110600000Y-63200000D03*
X116400000Y-59200000D03*
X114400000Y-57200000D03*
X112400000Y-61200000D03*
X112400000Y-59200000D03*
X112400000Y-57200000D03*
%TO.N,ramp_down*%
X116370000Y-79900000D03*
X117030000Y-78480000D03*
X112370000Y-79900000D03*
X115030000Y-78480000D03*
X113120000Y-81550000D03*
X114370000Y-79900000D03*
X113030000Y-78480000D03*
X115120000Y-81550000D03*
X111120000Y-81550000D03*
%TO.N,ramp_up*%
X116560000Y-70510000D03*
X116610000Y-68810000D03*
X114560000Y-70510000D03*
X112560000Y-70510000D03*
X112610000Y-68810000D03*
X114610000Y-68810000D03*
%TO.N,+3.3V*%
X166200000Y-99000000D03*
X168000000Y-66400000D03*
%TO.N,GPIO_25*%
X162000000Y-103600000D03*
%TO.N,GPIO_26*%
X162200000Y-108000000D03*
%TO.N,ESP_GND2*%
X169400000Y-78400000D03*
X157100000Y-72450000D03*
%TO.N,GPIO_17*%
X170400000Y-114800000D03*
X162500000Y-113250000D03*
%TO.N,GPIO_4*%
X172850000Y-123950000D03*
%TO.N,+24V*%
X111450000Y-99900000D03*
X110350000Y-100800000D03*
X112450000Y-100800000D03*
%TO.N,GPIO_32*%
X164300000Y-90150000D03*
%TO.N,GPIO_33*%
X158800000Y-90700000D03*
%TO.N,/+VOUT*%
X148850000Y-124350000D03*
X148850000Y-125650000D03*
X146000000Y-124350000D03*
X144550000Y-124350000D03*
X151750000Y-125700000D03*
X144550000Y-125650000D03*
X150300000Y-124400000D03*
X147400000Y-124350000D03*
X150300000Y-125700000D03*
X151750000Y-124400000D03*
X146000000Y-125650000D03*
X147400000Y-125650000D03*
%TO.N,+VOUT-esp*%
X150800000Y-111600000D03*
X152600000Y-111600000D03*
X149000000Y-111600000D03*
%TO.N,/+24V-Sim*%
X100000000Y-116600000D03*
X100000000Y-118350000D03*
X100000000Y-113600000D03*
X101600000Y-118350000D03*
X101600000Y-113600000D03*
X100000000Y-115000000D03*
X101600000Y-115000000D03*
X101600000Y-116600000D03*
%TD*%
D23*
%TO.N,+3.3V*%
X101950000Y-57975000D02*
X101950000Y-70740000D01*
X104775000Y-55150000D02*
X101950000Y-57975000D01*
X130300000Y-55150000D02*
X104775000Y-55150000D01*
X130325000Y-55125000D02*
X130300000Y-55150000D01*
X101950000Y-70740000D02*
X103830000Y-72620000D01*
X142800000Y-66400000D02*
X141600000Y-66400000D01*
X141600000Y-66400000D02*
X130325000Y-55125000D01*
%TO.N,GPIO_18*%
X101765000Y-75390000D02*
X103830000Y-75390000D01*
X100800000Y-74425000D02*
X101765000Y-75390000D01*
X103400000Y-54100000D02*
X100800000Y-56700000D01*
X141450000Y-54100000D02*
X103400000Y-54100000D01*
X100800000Y-56700000D02*
X100800000Y-74425000D01*
%TO.N,+3.3V*%
X149270850Y-63029150D02*
X145900000Y-66400000D01*
X150250000Y-63029150D02*
X149270850Y-63029150D01*
%TO.N,ESP_GND2*%
X142800000Y-68900000D02*
X145900000Y-68900000D01*
%TO.N,+3.3V*%
X142800000Y-66400000D02*
X145900000Y-66400000D01*
%TO.N,GPIO_18*%
X142800000Y-63900000D02*
X145900000Y-63900000D01*
X141450000Y-54100000D02*
X140400000Y-55150000D01*
X140400000Y-63225000D02*
X141075000Y-63900000D01*
X177800000Y-81199150D02*
X177800000Y-54100000D01*
X177800000Y-54100000D02*
X141450000Y-54100000D01*
X175650000Y-83349150D02*
X177800000Y-81199150D01*
X140400000Y-55150000D02*
X140400000Y-63225000D01*
X141075000Y-63900000D02*
X142800000Y-63900000D01*
%TO.N,GPIO_19*%
X142800000Y-61400000D02*
X145900000Y-61400000D01*
%TO.N,+3.3V*%
X168000000Y-110839150D02*
X168000000Y-99000000D01*
X173210000Y-116049150D02*
X168000000Y-110839150D01*
X168000000Y-99000000D02*
X166200000Y-99000000D01*
X168000000Y-99000000D02*
X168000000Y-66400000D01*
%TO.N,GPIO_25*%
X162000000Y-103600000D02*
X157000000Y-98600000D01*
X157000000Y-90099150D02*
X150250000Y-83349150D01*
X157000000Y-98600000D02*
X157000000Y-90099150D01*
%TO.N,GPIO_26*%
X154960850Y-90600000D02*
X150250000Y-85889150D01*
X155600000Y-101400000D02*
X155600000Y-90600000D01*
X162200000Y-108000000D02*
X155600000Y-101400000D01*
X155600000Y-90600000D02*
X154960850Y-90600000D01*
%TO.N,ESP_GND2*%
X157100000Y-69800000D02*
X161585425Y-65314575D01*
X157100000Y-72450000D02*
X157100000Y-69800000D01*
X169530850Y-78269150D02*
X170800000Y-78269150D01*
X173364575Y-65314575D02*
X175650000Y-63029150D01*
X161585425Y-65314575D02*
X173364575Y-65314575D01*
X169400000Y-78400000D02*
X169530850Y-78269150D01*
X170800000Y-78269150D02*
X170800000Y-67879150D01*
X170800000Y-67879150D02*
X173364575Y-65314575D01*
X170800000Y-78269150D02*
X175650000Y-78269150D01*
%TO.N,GPIO_17*%
X163800000Y-113250000D02*
X164450000Y-113900000D01*
X162500000Y-113250000D02*
X163800000Y-113250000D01*
X164450000Y-113900000D02*
X169500000Y-113900000D01*
X169500000Y-113900000D02*
X170400000Y-114800000D01*
%TO.N,GPIO_4*%
X172850000Y-123950000D02*
X173700000Y-123100000D01*
X174659150Y-114600000D02*
X175750000Y-113509150D01*
X173700000Y-123100000D02*
X173700000Y-119100000D01*
X174400000Y-118400000D02*
X174400000Y-114600000D01*
X173700000Y-119100000D02*
X174400000Y-118400000D01*
X174400000Y-114600000D02*
X174659150Y-114600000D01*
%TO.N,GPIO_32*%
X164300000Y-90150000D02*
X163450000Y-91000000D01*
X163450000Y-91000000D02*
X162980850Y-91000000D01*
X162980850Y-91000000D02*
X150250000Y-78269150D01*
%TO.N,GPIO_33*%
X158800000Y-90700000D02*
X158800000Y-89359150D01*
X158800000Y-89359150D02*
X150250000Y-80809150D01*
%TO.N,GPIO_5*%
X175750000Y-121129150D02*
X175540000Y-121339150D01*
%TD*%
%TA.AperFunction,Conductor*%
%TO.N,sim_home*%
G36*
X116297319Y-87503710D02*
G01*
X116404349Y-87516632D01*
X116436190Y-87524870D01*
X116528335Y-87562343D01*
X116556895Y-87578669D01*
X116642564Y-87644113D01*
X116654970Y-87654970D01*
X123047801Y-94047801D01*
X123058496Y-94059996D01*
X123123075Y-94144157D01*
X123139260Y-94172191D01*
X123176715Y-94262616D01*
X123185093Y-94293882D01*
X123198939Y-94399046D01*
X123200000Y-94415232D01*
X123200000Y-95991874D01*
X123198939Y-96008060D01*
X123185093Y-96113224D01*
X123176715Y-96144491D01*
X123139259Y-96234918D01*
X123123074Y-96262951D01*
X123063491Y-96340601D01*
X123040601Y-96363491D01*
X122962951Y-96423074D01*
X122934918Y-96439259D01*
X122844491Y-96476715D01*
X122813224Y-96485093D01*
X122719398Y-96497446D01*
X122708058Y-96498939D01*
X122691874Y-96500000D01*
X111500000Y-96500000D01*
X109785714Y-97785713D01*
X107500000Y-99499999D01*
X107500000Y-108190750D01*
X107480315Y-108257789D01*
X107427511Y-108303544D01*
X107358353Y-108313488D01*
X107294797Y-108284463D01*
X107259818Y-108234083D01*
X107218354Y-108122913D01*
X107218350Y-108122906D01*
X107132190Y-108007812D01*
X107132187Y-108007809D01*
X107017093Y-107921649D01*
X107017086Y-107921645D01*
X106882379Y-107871403D01*
X106882372Y-107871401D01*
X106822844Y-107865000D01*
X105975000Y-107865000D01*
X105975000Y-108760879D01*
X105929182Y-108741901D01*
X105793944Y-108715000D01*
X105656056Y-108715000D01*
X105520818Y-108741901D01*
X105475000Y-108760879D01*
X105475000Y-107865000D01*
X104627155Y-107865000D01*
X104567627Y-107871401D01*
X104567620Y-107871403D01*
X104432913Y-107921645D01*
X104432906Y-107921649D01*
X104317812Y-108007809D01*
X104317809Y-108007812D01*
X104231649Y-108122906D01*
X104231645Y-108122913D01*
X104181403Y-108257620D01*
X104181401Y-108257627D01*
X104175000Y-108317155D01*
X104175000Y-109165000D01*
X105070879Y-109165000D01*
X105051901Y-109210818D01*
X105025000Y-109346056D01*
X105025000Y-109483944D01*
X105051901Y-109619182D01*
X105070879Y-109665000D01*
X104175000Y-109665000D01*
X104175000Y-110512844D01*
X104181401Y-110572372D01*
X104181403Y-110572379D01*
X104231645Y-110707086D01*
X104231649Y-110707093D01*
X104317809Y-110822187D01*
X104317812Y-110822190D01*
X104432906Y-110908350D01*
X104432913Y-110908354D01*
X104567620Y-110958596D01*
X104567627Y-110958598D01*
X104627155Y-110964999D01*
X104627172Y-110965000D01*
X105475000Y-110965000D01*
X105475000Y-110069120D01*
X105520818Y-110088099D01*
X105656056Y-110115000D01*
X105793944Y-110115000D01*
X105929182Y-110088099D01*
X105975000Y-110069120D01*
X105975000Y-110965000D01*
X106822828Y-110965000D01*
X106822844Y-110964999D01*
X106882372Y-110958598D01*
X106882379Y-110958596D01*
X107017086Y-110908354D01*
X107017093Y-110908350D01*
X107132187Y-110822190D01*
X107132190Y-110822187D01*
X107218350Y-110707093D01*
X107218354Y-110707086D01*
X107259818Y-110595916D01*
X107301689Y-110539982D01*
X107367153Y-110515565D01*
X107435426Y-110530416D01*
X107484832Y-110579821D01*
X107500000Y-110639249D01*
X107500000Y-110991874D01*
X107498939Y-111008059D01*
X107498939Y-111008060D01*
X107485093Y-111113224D01*
X107476715Y-111144491D01*
X107439259Y-111234918D01*
X107423074Y-111262951D01*
X107363491Y-111340601D01*
X107340601Y-111363491D01*
X107262951Y-111423074D01*
X107234918Y-111439259D01*
X107144491Y-111476715D01*
X107113224Y-111485093D01*
X107019398Y-111497446D01*
X107008058Y-111498939D01*
X106991874Y-111500000D01*
X98508126Y-111500000D01*
X98491941Y-111498939D01*
X98478917Y-111497224D01*
X98386775Y-111485093D01*
X98355508Y-111476715D01*
X98265081Y-111439259D01*
X98237048Y-111423074D01*
X98159398Y-111363491D01*
X98136508Y-111340601D01*
X98076925Y-111262951D01*
X98060740Y-111234918D01*
X98023284Y-111144491D01*
X98014906Y-111113223D01*
X98001061Y-111008059D01*
X98000000Y-110991874D01*
X98000000Y-91008125D01*
X98001061Y-90991940D01*
X98014906Y-90886776D01*
X98023284Y-90855508D01*
X98060740Y-90765081D01*
X98076923Y-90737050D01*
X98136513Y-90659392D01*
X98159392Y-90636513D01*
X98237050Y-90576923D01*
X98265079Y-90560740D01*
X98355509Y-90523283D01*
X98386775Y-90514906D01*
X98491941Y-90501061D01*
X98508126Y-90500000D01*
X109000000Y-90500000D01*
X108796933Y-88144428D01*
X108796637Y-88127475D01*
X108802293Y-88016644D01*
X108808623Y-87983378D01*
X108841311Y-87886360D01*
X108856403Y-87856046D01*
X108914124Y-87771486D01*
X108936854Y-87746389D01*
X109015301Y-87680601D01*
X109043970Y-87662592D01*
X109137303Y-87620478D01*
X109169764Y-87610901D01*
X109279504Y-87594327D01*
X109296397Y-87592949D01*
X116280872Y-87502827D01*
X116297319Y-87503710D01*
G37*
%TD.AperFunction*%
%TD*%
%TA.AperFunction,Conductor*%
%TO.N,+24V*%
G36*
X114043039Y-97025185D02*
G01*
X114088794Y-97077989D01*
X114100000Y-97129500D01*
X114100000Y-97375097D01*
X114080315Y-97442136D01*
X114027511Y-97487891D01*
X113995398Y-97497570D01*
X113812353Y-97526561D01*
X113625337Y-97587326D01*
X113625334Y-97587327D01*
X113450120Y-97676605D01*
X113415275Y-97701921D01*
X113415275Y-97701923D01*
X113979327Y-98265974D01*
X113913721Y-98283554D01*
X113800779Y-98348761D01*
X113708561Y-98440979D01*
X113643354Y-98553921D01*
X113625774Y-98619527D01*
X113061723Y-98055475D01*
X113061721Y-98055475D01*
X113036405Y-98090320D01*
X112947127Y-98265534D01*
X112947126Y-98265537D01*
X112886362Y-98452553D01*
X112855600Y-98646778D01*
X112855600Y-98843421D01*
X112886362Y-99037646D01*
X112947126Y-99224662D01*
X112947127Y-99224665D01*
X113036402Y-99399875D01*
X113061722Y-99434723D01*
X113061722Y-99434724D01*
X113625774Y-98870672D01*
X113643354Y-98936279D01*
X113708561Y-99049221D01*
X113800779Y-99141439D01*
X113913721Y-99206646D01*
X113979326Y-99224224D01*
X113415275Y-99788276D01*
X113415275Y-99788277D01*
X113450123Y-99813596D01*
X113625334Y-99902872D01*
X113625337Y-99902873D01*
X113812353Y-99963637D01*
X113995398Y-99992629D01*
X114058532Y-100022558D01*
X114095464Y-100081869D01*
X114100000Y-100115102D01*
X114100000Y-104876000D01*
X114080315Y-104943039D01*
X114027511Y-104988794D01*
X113976000Y-105000000D01*
X108129500Y-105000000D01*
X108062461Y-104980315D01*
X108016706Y-104927511D01*
X108005500Y-104876000D01*
X108005500Y-101549853D01*
X108025185Y-101482814D01*
X108046085Y-101458103D01*
X112908478Y-97037746D01*
X112971324Y-97007217D01*
X112991889Y-97005500D01*
X113976000Y-97005500D01*
X114043039Y-97025185D01*
G37*
%TD.AperFunction*%
%TD*%
%TA.AperFunction,Conductor*%
%TO.N,spare*%
G36*
X126708059Y-55926061D02*
G01*
X126813223Y-55939906D01*
X126844491Y-55948284D01*
X126934918Y-55985740D01*
X126962952Y-56001925D01*
X127040602Y-56061509D01*
X127063491Y-56084398D01*
X127123074Y-56162048D01*
X127139259Y-56190081D01*
X127176715Y-56280508D01*
X127185093Y-56311775D01*
X127198939Y-56416939D01*
X127200000Y-56433125D01*
X127200000Y-60291874D01*
X127198939Y-60308060D01*
X127185093Y-60413224D01*
X127176715Y-60444491D01*
X127139259Y-60534918D01*
X127123074Y-60562951D01*
X127063491Y-60640601D01*
X127040601Y-60663491D01*
X126962951Y-60723074D01*
X126934918Y-60739259D01*
X126844491Y-60776715D01*
X126813224Y-60785093D01*
X126719398Y-60797446D01*
X126708058Y-60798939D01*
X126691874Y-60800000D01*
X115400000Y-60800000D01*
X115399999Y-60800000D01*
X115399997Y-60800001D01*
X109391443Y-67149122D01*
X109391443Y-67149123D01*
X108171134Y-68438596D01*
X108110757Y-68473757D01*
X108040954Y-68470694D01*
X107983889Y-68430380D01*
X107958805Y-68368397D01*
X107958262Y-68368484D01*
X107957890Y-68366137D01*
X107957678Y-68365613D01*
X107957512Y-68363749D01*
X107925796Y-68163508D01*
X107863174Y-67970774D01*
X107863172Y-67970771D01*
X107771168Y-67790202D01*
X107740525Y-67748027D01*
X107740525Y-67748026D01*
X107173374Y-68315176D01*
X107159222Y-68262358D01*
X107090104Y-68142643D01*
X106992357Y-68044896D01*
X106872642Y-67975778D01*
X106819822Y-67961624D01*
X107386972Y-67394474D01*
X107386971Y-67394473D01*
X107344797Y-67363831D01*
X107164228Y-67271827D01*
X107164225Y-67271825D01*
X106971491Y-67209203D01*
X106771327Y-67177500D01*
X106568673Y-67177500D01*
X106368508Y-67209203D01*
X106175774Y-67271825D01*
X106175771Y-67271826D01*
X105995204Y-67363830D01*
X105953027Y-67394473D01*
X106520178Y-67961624D01*
X106467358Y-67975778D01*
X106347643Y-68044896D01*
X106249896Y-68142643D01*
X106180778Y-68262358D01*
X106166624Y-68315178D01*
X105599473Y-67748027D01*
X105568830Y-67790204D01*
X105476826Y-67970771D01*
X105476825Y-67970774D01*
X105414203Y-68163508D01*
X105382500Y-68363672D01*
X105382500Y-68566323D01*
X105388248Y-68602619D01*
X105379292Y-68671913D01*
X105334294Y-68725364D01*
X105267542Y-68746002D01*
X105200229Y-68727276D01*
X105185605Y-68716614D01*
X103792871Y-67536331D01*
X103792870Y-67536330D01*
X103777226Y-67523072D01*
X103764669Y-67510800D01*
X103688477Y-67424982D01*
X103669152Y-67395763D01*
X103623810Y-67300094D01*
X103613429Y-67266636D01*
X103604212Y-67209203D01*
X103596652Y-67162101D01*
X103596043Y-67127087D01*
X103609173Y-67022019D01*
X103618381Y-66988233D01*
X103660370Y-66891035D01*
X103678665Y-66861165D01*
X103751832Y-66772737D01*
X103763930Y-66760061D01*
X109000000Y-62000000D01*
X109000000Y-56433125D01*
X109001061Y-56416940D01*
X109014906Y-56311776D01*
X109014906Y-56311775D01*
X109023284Y-56280508D01*
X109060740Y-56190081D01*
X109076923Y-56162050D01*
X109136513Y-56084392D01*
X109159392Y-56061513D01*
X109237050Y-56001923D01*
X109265079Y-55985740D01*
X109355509Y-55948283D01*
X109386775Y-55939906D01*
X109491941Y-55926061D01*
X109508126Y-55925000D01*
X126691874Y-55925000D01*
X126708059Y-55926061D01*
G37*
%TD.AperFunction*%
%TD*%
%TA.AperFunction,Conductor*%
%TO.N,+VOUT-esp*%
G36*
X149555130Y-107619685D02*
G01*
X149600885Y-107672489D01*
X149611709Y-107733732D01*
X149609988Y-107755585D01*
X150104260Y-108249857D01*
X150049288Y-108264587D01*
X149930713Y-108333046D01*
X149833896Y-108429863D01*
X149765437Y-108548438D01*
X149750707Y-108603410D01*
X149256435Y-108109138D01*
X149256433Y-108109138D01*
X149240771Y-108130698D01*
X149156452Y-108296182D01*
X149099054Y-108472832D01*
X149070000Y-108656276D01*
X149070000Y-108842023D01*
X149099054Y-109025467D01*
X149156452Y-109202117D01*
X149240774Y-109367607D01*
X149256433Y-109389160D01*
X149256434Y-109389160D01*
X149750706Y-108894888D01*
X149765437Y-108949862D01*
X149833896Y-109068437D01*
X149930713Y-109165254D01*
X150049288Y-109233713D01*
X150104260Y-109248442D01*
X149609987Y-109742714D01*
X149609988Y-109742715D01*
X149631540Y-109758374D01*
X149797032Y-109842697D01*
X149973682Y-109900095D01*
X150157127Y-109929150D01*
X150342873Y-109929150D01*
X150526317Y-109900095D01*
X150702967Y-109842697D01*
X150868455Y-109758376D01*
X150890010Y-109742715D01*
X150890010Y-109742714D01*
X150395739Y-109248442D01*
X150450712Y-109233713D01*
X150569287Y-109165254D01*
X150666104Y-109068437D01*
X150734563Y-108949862D01*
X150749292Y-108894888D01*
X151243564Y-109389160D01*
X151243565Y-109389160D01*
X151259226Y-109367605D01*
X151343547Y-109202117D01*
X151400945Y-109025467D01*
X151430000Y-108842023D01*
X151430000Y-108656276D01*
X151400945Y-108472832D01*
X151343547Y-108296182D01*
X151259224Y-108130690D01*
X151243565Y-108109138D01*
X151243564Y-108109137D01*
X150749292Y-108603409D01*
X150734563Y-108548438D01*
X150666104Y-108429863D01*
X150569287Y-108333046D01*
X150450712Y-108264587D01*
X150395739Y-108249857D01*
X150890010Y-107755584D01*
X150888290Y-107733730D01*
X150902654Y-107665353D01*
X150951704Y-107615596D01*
X151011908Y-107600000D01*
X152955747Y-107600000D01*
X153022786Y-107619685D01*
X153045312Y-107638244D01*
X153157662Y-107755585D01*
X153904067Y-108535147D01*
X153928640Y-108560811D01*
X153960785Y-108622847D01*
X153962958Y-108651953D01*
X153645599Y-115951199D01*
X153623021Y-116017320D01*
X153607472Y-116035378D01*
X152635965Y-116965565D01*
X152573929Y-116997710D01*
X152550209Y-117000000D01*
X150639586Y-117000000D01*
X150572547Y-116980315D01*
X150567737Y-116977063D01*
X149303743Y-116078441D01*
X149260510Y-116023553D01*
X149258474Y-116018115D01*
X148690745Y-114385893D01*
X150048000Y-114385893D01*
X150048000Y-114568806D01*
X150076611Y-114749452D01*
X150133133Y-114923407D01*
X150216169Y-115086370D01*
X150229320Y-115104473D01*
X150229321Y-115104473D01*
X150720504Y-114613290D01*
X150736619Y-114673431D01*
X150803498Y-114789270D01*
X150898080Y-114883852D01*
X151013919Y-114950731D01*
X151074058Y-114966845D01*
X150582875Y-115458027D01*
X150582875Y-115458028D01*
X150600978Y-115471180D01*
X150600980Y-115471181D01*
X150763944Y-115554216D01*
X150937897Y-115610738D01*
X151118544Y-115639350D01*
X151301456Y-115639350D01*
X151482102Y-115610738D01*
X151656055Y-115554216D01*
X151819020Y-115471180D01*
X151837123Y-115458028D01*
X151837123Y-115458027D01*
X151345941Y-114966845D01*
X151406081Y-114950731D01*
X151521920Y-114883852D01*
X151616502Y-114789270D01*
X151683381Y-114673431D01*
X151699495Y-114613291D01*
X152190677Y-115104473D01*
X152190678Y-115104473D01*
X152203830Y-115086370D01*
X152286866Y-114923405D01*
X152343388Y-114749452D01*
X152372000Y-114568806D01*
X152372000Y-114385893D01*
X152343388Y-114205247D01*
X152286866Y-114031294D01*
X152203831Y-113868330D01*
X152203830Y-113868328D01*
X152190677Y-113850225D01*
X151699494Y-114341407D01*
X151683381Y-114281269D01*
X151616502Y-114165430D01*
X151521920Y-114070848D01*
X151406081Y-114003969D01*
X151345941Y-113987854D01*
X151837123Y-113496671D01*
X151837123Y-113496670D01*
X151819020Y-113483519D01*
X151656057Y-113400483D01*
X151482102Y-113343961D01*
X151301456Y-113315350D01*
X151118544Y-113315350D01*
X150937897Y-113343961D01*
X150763944Y-113400483D01*
X150600981Y-113483517D01*
X150582875Y-113496670D01*
X150582875Y-113496671D01*
X151074058Y-113987854D01*
X151013919Y-114003969D01*
X150898080Y-114070848D01*
X150803498Y-114165430D01*
X150736619Y-114281269D01*
X150720504Y-114341408D01*
X150229321Y-113850225D01*
X150229320Y-113850225D01*
X150216167Y-113868331D01*
X150133133Y-114031294D01*
X150076611Y-114205247D01*
X150048000Y-114385893D01*
X148690745Y-114385893D01*
X146679976Y-108604932D01*
X146676543Y-108535147D01*
X146696027Y-108492350D01*
X147293358Y-107652151D01*
X147348246Y-107608918D01*
X147394421Y-107600000D01*
X149488091Y-107600000D01*
X149555130Y-107619685D01*
G37*
%TD.AperFunction*%
%TD*%
%TA.AperFunction,Conductor*%
%TO.N,/+VOUT*%
G36*
X143763067Y-103727518D02*
G01*
X143906361Y-103787548D01*
X143927368Y-103798835D01*
X144055901Y-103884774D01*
X144067336Y-103892419D01*
X144085796Y-103907521D01*
X144205257Y-104026169D01*
X144220484Y-104044524D01*
X144315025Y-104183852D01*
X144326456Y-104204783D01*
X144394933Y-104365154D01*
X144399087Y-104376347D01*
X145739354Y-108600475D01*
X148749998Y-118089149D01*
X148750000Y-118089150D01*
X153243907Y-118089150D01*
X153256061Y-118089747D01*
X153432941Y-118107168D01*
X153456769Y-118111907D01*
X153621001Y-118161726D01*
X153643453Y-118171027D01*
X153794798Y-118251922D01*
X153815010Y-118265427D01*
X153947666Y-118374295D01*
X153964854Y-118391483D01*
X154073722Y-118524139D01*
X154087227Y-118544351D01*
X154168121Y-118695693D01*
X154177424Y-118718151D01*
X154227240Y-118882374D01*
X154231982Y-118906215D01*
X154249403Y-119083088D01*
X154250000Y-119095242D01*
X154250000Y-126793901D01*
X154249403Y-126806055D01*
X154231982Y-126982929D01*
X154227240Y-127006770D01*
X154177424Y-127170991D01*
X154168121Y-127193450D01*
X154087224Y-127344796D01*
X154073719Y-127365007D01*
X153964853Y-127497661D01*
X153947664Y-127514850D01*
X153815007Y-127623718D01*
X153794795Y-127637223D01*
X153643450Y-127718117D01*
X153620993Y-127727419D01*
X153456771Y-127777235D01*
X153432928Y-127781977D01*
X153256055Y-127799395D01*
X153243902Y-127799992D01*
X148040937Y-127799962D01*
X143010143Y-127799932D01*
X142997991Y-127799335D01*
X142821144Y-127781918D01*
X142797306Y-127777177D01*
X142656827Y-127734569D01*
X142633105Y-127727374D01*
X142610654Y-127718076D01*
X142459365Y-127637223D01*
X142459326Y-127637202D01*
X142439116Y-127623701D01*
X142306467Y-127514860D01*
X142289279Y-127497675D01*
X142289268Y-127497661D01*
X142180409Y-127365048D01*
X142166910Y-127344852D01*
X142085997Y-127193530D01*
X142076698Y-127171090D01*
X142026857Y-127006893D01*
X142022112Y-126983060D01*
X142004656Y-126806207D01*
X142004057Y-126794081D01*
X142002878Y-121505784D01*
X142022547Y-121438745D01*
X142075340Y-121392978D01*
X142144497Y-121383019D01*
X142183172Y-121395276D01*
X142311588Y-121460707D01*
X142513757Y-121526396D01*
X142723713Y-121559650D01*
X142723714Y-121559650D01*
X142936286Y-121559650D01*
X142936287Y-121559650D01*
X143146243Y-121526396D01*
X143348412Y-121460707D01*
X143537816Y-121364201D01*
X143559789Y-121348236D01*
X143709786Y-121239259D01*
X143709788Y-121239256D01*
X143709792Y-121239254D01*
X143860104Y-121088942D01*
X143985051Y-120916966D01*
X144081557Y-120727562D01*
X144147246Y-120525393D01*
X144180500Y-120315437D01*
X144180500Y-120102863D01*
X144147246Y-119892907D01*
X144146246Y-119889828D01*
X149948000Y-119889828D01*
X149948000Y-120088471D01*
X149979075Y-120284670D01*
X149979075Y-120284673D01*
X150040457Y-120473587D01*
X150130641Y-120650582D01*
X150157730Y-120687865D01*
X150157731Y-120687866D01*
X150720504Y-120125092D01*
X150736619Y-120185231D01*
X150803498Y-120301070D01*
X150898080Y-120395652D01*
X151013919Y-120462531D01*
X151074057Y-120478644D01*
X150511283Y-121041418D01*
X150511283Y-121041419D01*
X150548567Y-121068508D01*
X150725562Y-121158692D01*
X150914477Y-121220074D01*
X151110679Y-121251150D01*
X151309321Y-121251150D01*
X151505520Y-121220074D01*
X151505523Y-121220074D01*
X151694437Y-121158692D01*
X151871425Y-121068512D01*
X151908716Y-121041418D01*
X151345942Y-120478644D01*
X151406081Y-120462531D01*
X151521920Y-120395652D01*
X151616502Y-120301070D01*
X151683381Y-120185231D01*
X151699495Y-120125092D01*
X152262268Y-120687865D01*
X152289362Y-120650575D01*
X152379542Y-120473587D01*
X152440924Y-120284673D01*
X152440924Y-120284670D01*
X152472000Y-120088471D01*
X152472000Y-119889828D01*
X152440924Y-119693629D01*
X152440924Y-119693626D01*
X152379542Y-119504712D01*
X152289358Y-119327717D01*
X152262268Y-119290433D01*
X151699494Y-119853207D01*
X151683381Y-119793069D01*
X151616502Y-119677230D01*
X151521920Y-119582648D01*
X151406081Y-119515769D01*
X151345942Y-119499654D01*
X151908716Y-118936881D01*
X151908715Y-118936880D01*
X151871432Y-118909791D01*
X151694437Y-118819607D01*
X151505522Y-118758225D01*
X151309321Y-118727150D01*
X151110679Y-118727150D01*
X150914479Y-118758225D01*
X150914476Y-118758225D01*
X150725562Y-118819607D01*
X150548564Y-118909793D01*
X150511283Y-118936879D01*
X150511282Y-118936880D01*
X151074058Y-119499654D01*
X151013919Y-119515769D01*
X150898080Y-119582648D01*
X150803498Y-119677230D01*
X150736619Y-119793069D01*
X150720504Y-119853207D01*
X150157730Y-119290432D01*
X150157729Y-119290433D01*
X150130643Y-119327714D01*
X150040457Y-119504712D01*
X149979075Y-119693626D01*
X149979075Y-119693629D01*
X149948000Y-119889828D01*
X144146246Y-119889828D01*
X144081557Y-119690738D01*
X143985051Y-119501334D01*
X143985049Y-119501331D01*
X143985048Y-119501329D01*
X143860109Y-119329363D01*
X143709786Y-119179040D01*
X143579603Y-119084458D01*
X143537820Y-119054101D01*
X143348414Y-118957594D01*
X143348413Y-118957593D01*
X143348412Y-118957593D01*
X143146243Y-118891904D01*
X143146241Y-118891903D01*
X143146240Y-118891903D01*
X142984957Y-118866358D01*
X142936287Y-118858650D01*
X142723713Y-118858650D01*
X142675042Y-118866358D01*
X142513760Y-118891903D01*
X142311582Y-118957595D01*
X142182593Y-119023318D01*
X142113924Y-119036214D01*
X142049184Y-119009937D01*
X142008927Y-118952831D01*
X142002299Y-118912866D01*
X142000022Y-108698465D01*
X142000021Y-108698464D01*
X142000000Y-108600000D01*
X141428096Y-105727412D01*
X141434311Y-105657819D01*
X141477165Y-105602635D01*
X141543051Y-105579379D01*
X141611051Y-105595435D01*
X141659575Y-105645706D01*
X141660194Y-105646906D01*
X141675373Y-105676697D01*
X141714728Y-105730866D01*
X142430000Y-105015595D01*
X142430000Y-105021811D01*
X142457259Y-105123544D01*
X142509920Y-105214756D01*
X142584394Y-105289230D01*
X142675606Y-105341891D01*
X142777339Y-105369150D01*
X142783554Y-105369150D01*
X142068282Y-106084419D01*
X142068282Y-106084420D01*
X142122449Y-106123774D01*
X142311782Y-106220245D01*
X142513870Y-106285907D01*
X142723754Y-106319150D01*
X142936246Y-106319150D01*
X143146127Y-106285907D01*
X143146130Y-106285907D01*
X143348217Y-106220245D01*
X143537554Y-106123772D01*
X143591716Y-106084420D01*
X143591717Y-106084420D01*
X142876446Y-105369150D01*
X142882661Y-105369150D01*
X142984394Y-105341891D01*
X143075606Y-105289230D01*
X143150080Y-105214756D01*
X143202741Y-105123544D01*
X143230000Y-105021811D01*
X143230000Y-105015596D01*
X143945270Y-105730867D01*
X143945270Y-105730866D01*
X143984622Y-105676704D01*
X144081095Y-105487367D01*
X144146757Y-105285280D01*
X144146757Y-105285277D01*
X144180000Y-105075396D01*
X144180000Y-104862903D01*
X144146757Y-104653022D01*
X144146757Y-104653019D01*
X144081095Y-104450932D01*
X143984624Y-104261599D01*
X143945270Y-104207432D01*
X143945269Y-104207432D01*
X143230000Y-104922702D01*
X143230000Y-104916489D01*
X143202741Y-104814756D01*
X143150080Y-104723544D01*
X143075606Y-104649070D01*
X142984394Y-104596409D01*
X142882661Y-104569150D01*
X142876446Y-104569150D01*
X143591715Y-103853879D01*
X143591538Y-103851620D01*
X143605901Y-103783243D01*
X143654952Y-103733485D01*
X143723116Y-103718145D01*
X143763067Y-103727518D01*
G37*
%TD.AperFunction*%
%TD*%
%TA.AperFunction,Conductor*%
%TO.N,/+24V-Sim*%
G36*
X114743039Y-106519685D02*
G01*
X114788794Y-106572489D01*
X114800000Y-106624000D01*
X114800000Y-110876000D01*
X114780315Y-110943039D01*
X114727511Y-110988794D01*
X114676000Y-111000000D01*
X110000000Y-111000000D01*
X110000000Y-127676000D01*
X109980315Y-127743039D01*
X109927511Y-127788794D01*
X109876000Y-127800000D01*
X104200000Y-127800000D01*
X98324000Y-127800000D01*
X98256961Y-127780315D01*
X98211206Y-127727511D01*
X98200000Y-127676000D01*
X98200000Y-119452973D01*
X104174500Y-119452973D01*
X104174500Y-119697027D01*
X104212679Y-119938076D01*
X104278328Y-120140123D01*
X104288097Y-120170187D01*
X104398896Y-120387642D01*
X104542339Y-120585076D01*
X104542343Y-120585081D01*
X104714918Y-120757656D01*
X104714923Y-120757660D01*
X104887136Y-120882779D01*
X104912361Y-120901106D01*
X105129815Y-121011904D01*
X105361924Y-121087321D01*
X105602973Y-121125500D01*
X105602974Y-121125500D01*
X105847026Y-121125500D01*
X105847027Y-121125500D01*
X106088076Y-121087321D01*
X106320185Y-121011904D01*
X106537639Y-120901106D01*
X106735083Y-120757655D01*
X106907655Y-120585083D01*
X107051106Y-120387639D01*
X107161904Y-120170185D01*
X107237321Y-119938076D01*
X107275500Y-119697027D01*
X107275500Y-119452973D01*
X107237321Y-119211924D01*
X107161904Y-118979815D01*
X107051106Y-118762361D01*
X106960591Y-118637777D01*
X106907660Y-118564923D01*
X106907656Y-118564918D01*
X106735081Y-118392343D01*
X106735076Y-118392339D01*
X106537642Y-118248896D01*
X106537641Y-118248895D01*
X106537639Y-118248894D01*
X106320185Y-118138096D01*
X106088076Y-118062679D01*
X106088074Y-118062678D01*
X106088072Y-118062678D01*
X105919769Y-118036021D01*
X105847027Y-118024500D01*
X105602973Y-118024500D01*
X105547093Y-118033350D01*
X105361927Y-118062678D01*
X105129812Y-118138097D01*
X104912357Y-118248896D01*
X104714923Y-118392339D01*
X104714918Y-118392343D01*
X104542343Y-118564918D01*
X104542339Y-118564923D01*
X104398896Y-118762357D01*
X104288097Y-118979812D01*
X104212678Y-119211927D01*
X104202235Y-119277864D01*
X104174500Y-119452973D01*
X98200000Y-119452973D01*
X98200000Y-114373006D01*
X104175000Y-114373006D01*
X104175000Y-114616993D01*
X104213165Y-114857959D01*
X104288560Y-115089998D01*
X104399323Y-115307380D01*
X104466543Y-115399901D01*
X104466544Y-115399902D01*
X105085690Y-114780756D01*
X105104668Y-114826574D01*
X105181274Y-114941224D01*
X105278776Y-115038726D01*
X105393426Y-115115332D01*
X105439242Y-115134309D01*
X104820096Y-115753454D01*
X104820097Y-115753456D01*
X104912619Y-115820676D01*
X105130001Y-115931439D01*
X105362040Y-116006834D01*
X105603007Y-116045000D01*
X105846993Y-116045000D01*
X106087959Y-116006834D01*
X106319998Y-115931439D01*
X106537377Y-115820678D01*
X106629901Y-115753454D01*
X106629902Y-115753454D01*
X106010757Y-115134309D01*
X106056574Y-115115332D01*
X106171224Y-115038726D01*
X106268726Y-114941224D01*
X106345332Y-114826574D01*
X106364309Y-114780757D01*
X106983454Y-115399902D01*
X106983454Y-115399901D01*
X107050678Y-115307377D01*
X107161439Y-115089998D01*
X107236834Y-114857959D01*
X107275000Y-114616993D01*
X107275000Y-114373006D01*
X107236834Y-114132040D01*
X107161439Y-113900001D01*
X107050676Y-113682619D01*
X106983456Y-113590097D01*
X106983454Y-113590096D01*
X106364309Y-114209241D01*
X106345332Y-114163426D01*
X106268726Y-114048776D01*
X106171224Y-113951274D01*
X106056574Y-113874668D01*
X106010756Y-113855689D01*
X106629902Y-113236544D01*
X106629901Y-113236543D01*
X106537380Y-113169323D01*
X106319998Y-113058560D01*
X106087959Y-112983165D01*
X105846993Y-112945000D01*
X105603007Y-112945000D01*
X105362040Y-112983165D01*
X105130001Y-113058560D01*
X104912626Y-113169319D01*
X104820097Y-113236544D01*
X105439243Y-113855689D01*
X105393426Y-113874668D01*
X105278776Y-113951274D01*
X105181274Y-114048776D01*
X105104668Y-114163426D01*
X105085690Y-114209243D01*
X104466544Y-113590097D01*
X104399319Y-113682626D01*
X104288560Y-113900001D01*
X104213165Y-114132040D01*
X104175000Y-114373006D01*
X98200000Y-114373006D01*
X98200000Y-112111760D01*
X98219685Y-112044721D01*
X98272489Y-111998966D01*
X98340184Y-111988821D01*
X98425957Y-112000114D01*
X98458874Y-112003356D01*
X98475059Y-112004417D01*
X98508126Y-112005500D01*
X98508140Y-112005500D01*
X106991860Y-112005500D01*
X106991874Y-112005500D01*
X107024943Y-112004417D01*
X107041127Y-112003356D01*
X107074042Y-112000114D01*
X107179208Y-111986268D01*
X107244058Y-111973368D01*
X107275325Y-111964990D01*
X107337937Y-111943736D01*
X107428364Y-111906280D01*
X107487670Y-111877034D01*
X107515703Y-111860849D01*
X107570680Y-111824114D01*
X107648330Y-111764531D01*
X107698043Y-111720933D01*
X107720933Y-111698043D01*
X107764531Y-111648330D01*
X107824114Y-111570680D01*
X107860849Y-111515703D01*
X107877034Y-111487670D01*
X107906280Y-111428364D01*
X107943736Y-111337937D01*
X107964990Y-111275325D01*
X107973368Y-111244058D01*
X107986268Y-111179209D01*
X107987718Y-111168188D01*
X108000000Y-111167647D01*
X108000000Y-111074910D01*
X108000114Y-111074045D01*
X108003356Y-111041125D01*
X108004417Y-111024939D01*
X108005500Y-110991874D01*
X108005500Y-110639249D01*
X108000967Y-110603158D01*
X108000000Y-110587705D01*
X108000000Y-108237872D01*
X108001262Y-108220225D01*
X108005500Y-108190750D01*
X108005500Y-106624000D01*
X108025185Y-106556961D01*
X108077989Y-106511206D01*
X108129500Y-106500000D01*
X114676000Y-106500000D01*
X114743039Y-106519685D01*
G37*
%TD.AperFunction*%
%TD*%
%TA.AperFunction,Conductor*%
%TO.N,ramp_up*%
G36*
X115453258Y-61982603D02*
G01*
X115490044Y-62042004D01*
X115494500Y-62074946D01*
X115494500Y-64476868D01*
X115501486Y-64542943D01*
X115505679Y-64582591D01*
X115516524Y-64633298D01*
X115516527Y-64633311D01*
X115549564Y-64734341D01*
X115626496Y-64855922D01*
X115669326Y-64906059D01*
X115670691Y-64907763D01*
X115671882Y-64909051D01*
X115779955Y-65004034D01*
X115910411Y-65064722D01*
X115977311Y-65084877D01*
X116119578Y-65106353D01*
X121876874Y-65146802D01*
X121943771Y-65166956D01*
X121989153Y-65220080D01*
X122000000Y-65270798D01*
X122000000Y-75391839D01*
X121998891Y-75408389D01*
X121984416Y-75515873D01*
X121975660Y-75547793D01*
X121936546Y-75639897D01*
X121919658Y-75668362D01*
X121857574Y-75746837D01*
X121833758Y-75769822D01*
X121753125Y-75829079D01*
X121724077Y-75844944D01*
X121665772Y-75867293D01*
X121630638Y-75880760D01*
X121598427Y-75888376D01*
X121490504Y-75899019D01*
X121473928Y-75899540D01*
X119770708Y-75838968D01*
X118733354Y-75802075D01*
X118726574Y-75801647D01*
X118682209Y-75797628D01*
X118668771Y-75795664D01*
X118625109Y-75786817D01*
X118618491Y-75785287D01*
X117227313Y-75423086D01*
X117221216Y-75421330D01*
X107655162Y-72400472D01*
X107593389Y-72388680D01*
X107538988Y-72378295D01*
X107538985Y-72378294D01*
X107538981Y-72378294D01*
X107538977Y-72378293D01*
X107500822Y-72375566D01*
X107500961Y-72373612D01*
X107441651Y-72356197D01*
X107421009Y-72339563D01*
X106819821Y-71738375D01*
X106872642Y-71724222D01*
X106992357Y-71655104D01*
X107090104Y-71557357D01*
X107159222Y-71437642D01*
X107173375Y-71384821D01*
X107740525Y-71951971D01*
X107740526Y-71951971D01*
X107771168Y-71909797D01*
X107863172Y-71729228D01*
X107863174Y-71729225D01*
X107925796Y-71536491D01*
X107957500Y-71336327D01*
X107957500Y-71133672D01*
X107925796Y-70933508D01*
X107863174Y-70740774D01*
X107863172Y-70740771D01*
X107771168Y-70560202D01*
X107740525Y-70518027D01*
X107740525Y-70518026D01*
X107173375Y-71085177D01*
X107159222Y-71032358D01*
X107090104Y-70912643D01*
X106992357Y-70814896D01*
X106872642Y-70745778D01*
X106819821Y-70731624D01*
X107386972Y-70164473D01*
X107344797Y-70133831D01*
X107159887Y-70039615D01*
X107160493Y-70038425D01*
X107110824Y-69998404D01*
X107088755Y-69932111D01*
X107106031Y-69864411D01*
X107157165Y-69816797D01*
X107169127Y-69811577D01*
X108450251Y-69331156D01*
X115181371Y-62066422D01*
X115193747Y-62054779D01*
X115279770Y-61984322D01*
X115308709Y-61966622D01*
X115316531Y-61963206D01*
X115320881Y-61961307D01*
X115339767Y-61958912D01*
X115344097Y-61957079D01*
X115348394Y-61957819D01*
X115390196Y-61952520D01*
X115453258Y-61982603D01*
G37*
%TD.AperFunction*%
%TD*%
%TA.AperFunction,Conductor*%
%TO.N,ramp_down*%
G36*
X107502938Y-72882508D02*
G01*
X111480066Y-74138443D01*
X112113916Y-74338606D01*
X119274998Y-76600000D01*
X119274999Y-76600000D01*
X121491874Y-76600000D01*
X121508059Y-76601061D01*
X121613223Y-76614906D01*
X121644491Y-76623284D01*
X121734918Y-76660740D01*
X121762952Y-76676925D01*
X121840602Y-76736509D01*
X121863491Y-76759398D01*
X121923074Y-76837048D01*
X121939259Y-76865081D01*
X121976715Y-76955508D01*
X121985093Y-76986775D01*
X121998939Y-77091939D01*
X122000000Y-77108125D01*
X122000000Y-83916874D01*
X121998939Y-83933060D01*
X121985093Y-84038224D01*
X121976715Y-84069491D01*
X121939259Y-84159918D01*
X121923074Y-84187951D01*
X121863491Y-84265601D01*
X121840601Y-84288491D01*
X121762951Y-84348074D01*
X121734918Y-84364259D01*
X121644491Y-84401715D01*
X121613224Y-84410093D01*
X121519398Y-84422446D01*
X121508058Y-84423939D01*
X121491874Y-84425000D01*
X118025000Y-84425000D01*
X116000000Y-86000000D01*
X116000000Y-86491874D01*
X115998939Y-86508059D01*
X115998939Y-86508060D01*
X115985093Y-86613224D01*
X115976715Y-86644491D01*
X115939259Y-86734918D01*
X115923074Y-86762951D01*
X115863491Y-86840601D01*
X115840601Y-86863491D01*
X115762951Y-86923074D01*
X115734918Y-86939259D01*
X115644491Y-86976715D01*
X115613224Y-86985093D01*
X115519398Y-86997446D01*
X115508058Y-86998939D01*
X115491874Y-87000000D01*
X109258126Y-87000000D01*
X109241941Y-86998939D01*
X109228917Y-86997224D01*
X109136775Y-86985093D01*
X109105508Y-86976715D01*
X109015081Y-86939259D01*
X108987048Y-86923074D01*
X108909398Y-86863491D01*
X108886508Y-86840601D01*
X108826925Y-86762951D01*
X108810740Y-86734918D01*
X108773284Y-86644491D01*
X108764906Y-86613223D01*
X108751061Y-86508059D01*
X108750000Y-86491874D01*
X108750000Y-76500000D01*
X108473609Y-76361804D01*
X108475300Y-76358420D01*
X108475298Y-76358419D01*
X108473607Y-76361803D01*
X107696951Y-75973474D01*
X107656303Y-75939025D01*
X107655596Y-75939629D01*
X107652429Y-75935921D01*
X107509074Y-75792566D01*
X107509069Y-75792562D01*
X107345062Y-75673405D01*
X107345061Y-75673404D01*
X107345059Y-75673403D01*
X107287186Y-75643915D01*
X107164420Y-75581362D01*
X107164417Y-75581361D01*
X106971609Y-75518715D01*
X106930596Y-75512219D01*
X106867462Y-75482289D01*
X106830532Y-75422977D01*
X106831530Y-75353114D01*
X106870141Y-75294882D01*
X106930600Y-75267272D01*
X106971495Y-75260795D01*
X107164225Y-75198174D01*
X107164228Y-75198172D01*
X107344797Y-75106168D01*
X107386971Y-75075526D01*
X107386971Y-75075525D01*
X106819821Y-74508375D01*
X106872642Y-74494222D01*
X106992357Y-74425104D01*
X107090104Y-74327357D01*
X107159222Y-74207642D01*
X107173375Y-74154821D01*
X107740525Y-74721971D01*
X107740526Y-74721971D01*
X107771168Y-74679797D01*
X107863172Y-74499228D01*
X107863174Y-74499225D01*
X107925796Y-74306491D01*
X107957500Y-74106327D01*
X107957500Y-73903672D01*
X107925796Y-73703508D01*
X107863174Y-73510774D01*
X107863172Y-73510771D01*
X107771168Y-73330202D01*
X107740525Y-73288027D01*
X107740525Y-73288026D01*
X107173375Y-73855177D01*
X107159222Y-73802358D01*
X107090104Y-73682643D01*
X106992357Y-73584896D01*
X106872642Y-73515778D01*
X106819821Y-73501624D01*
X107407866Y-72913580D01*
X107469189Y-72880095D01*
X107502938Y-72882508D01*
G37*
%TD.AperFunction*%
%TD*%
%TA.AperFunction,Conductor*%
%TO.N,/+VIN*%
G36*
X142393039Y-91219685D02*
G01*
X142438794Y-91272489D01*
X142450000Y-91324000D01*
X142450000Y-95676000D01*
X142430315Y-95743039D01*
X142377511Y-95788794D01*
X142326000Y-95800000D01*
X139999999Y-95800000D01*
X135100000Y-104924136D01*
X135100000Y-113276000D01*
X135080315Y-113343039D01*
X135027511Y-113388794D01*
X134976000Y-113400000D01*
X127239999Y-113400000D01*
X119481424Y-118941838D01*
X119455714Y-118954821D01*
X119456090Y-118955728D01*
X119451591Y-118957591D01*
X119262179Y-119054101D01*
X119090215Y-119179039D01*
X118949648Y-119319606D01*
X118934041Y-119332827D01*
X116072336Y-121376903D01*
X116006342Y-121399851D01*
X116000262Y-121400000D01*
X110724000Y-121400000D01*
X110656961Y-121380315D01*
X110611206Y-121327511D01*
X110600000Y-121276000D01*
X110600000Y-120686565D01*
X110619685Y-120619526D01*
X110672489Y-120573771D01*
X110741647Y-120563827D01*
X110796886Y-120586247D01*
X110888567Y-120652858D01*
X111065562Y-120743042D01*
X111254477Y-120804424D01*
X111450679Y-120835500D01*
X111649321Y-120835500D01*
X111845520Y-120804424D01*
X111845523Y-120804424D01*
X112034437Y-120743042D01*
X112211425Y-120652862D01*
X112248715Y-120625768D01*
X111685942Y-120062995D01*
X111746081Y-120046881D01*
X111861920Y-119980002D01*
X111956502Y-119885420D01*
X112023381Y-119769581D01*
X112039495Y-119709442D01*
X112602268Y-120272215D01*
X112629362Y-120234925D01*
X112719542Y-120057937D01*
X112780924Y-119869023D01*
X112780924Y-119869020D01*
X112812000Y-119672821D01*
X112812000Y-119474178D01*
X112780924Y-119277979D01*
X112780924Y-119277976D01*
X112719542Y-119089062D01*
X112629358Y-118912067D01*
X112602268Y-118874783D01*
X112039494Y-119437557D01*
X112023381Y-119377419D01*
X111956502Y-119261580D01*
X111861920Y-119166998D01*
X111746081Y-119100119D01*
X111685941Y-119084004D01*
X112248715Y-118521230D01*
X112211432Y-118494141D01*
X112034437Y-118403957D01*
X111845522Y-118342575D01*
X111649321Y-118311500D01*
X111450679Y-118311500D01*
X111254479Y-118342575D01*
X111254476Y-118342575D01*
X111065562Y-118403957D01*
X110888564Y-118494143D01*
X110796885Y-118560752D01*
X110785025Y-118564983D01*
X110775511Y-118573228D01*
X110752744Y-118576501D01*
X110731079Y-118584232D01*
X110718814Y-118581380D01*
X110706353Y-118583172D01*
X110685430Y-118573617D01*
X110663025Y-118568407D01*
X110654249Y-118559377D01*
X110642797Y-118554147D01*
X110630361Y-118534797D01*
X110614330Y-118518301D01*
X110610925Y-118504553D01*
X110605023Y-118495369D01*
X110600000Y-118460434D01*
X110600000Y-118352081D01*
X110619685Y-118285042D01*
X110626270Y-118275761D01*
X115450000Y-112100000D01*
X115450000Y-104862863D01*
X118619500Y-104862863D01*
X118619500Y-105075436D01*
X118652735Y-105285277D01*
X118652754Y-105285393D01*
X118679968Y-105369150D01*
X118718444Y-105487564D01*
X118814951Y-105676970D01*
X118939890Y-105848936D01*
X119090213Y-105999259D01*
X119262179Y-106124198D01*
X119262181Y-106124199D01*
X119262184Y-106124201D01*
X119451588Y-106220707D01*
X119653757Y-106286396D01*
X119863713Y-106319650D01*
X119863714Y-106319650D01*
X120076286Y-106319650D01*
X120076287Y-106319650D01*
X120286243Y-106286396D01*
X120488412Y-106220707D01*
X120677816Y-106124201D01*
X120732572Y-106084419D01*
X120849786Y-105999259D01*
X120849788Y-105999256D01*
X120849792Y-105999254D01*
X121000104Y-105848942D01*
X121000106Y-105848938D01*
X121000109Y-105848936D01*
X121085890Y-105730867D01*
X121125051Y-105676966D01*
X121129793Y-105667658D01*
X121177763Y-105616861D01*
X121245583Y-105600061D01*
X121311719Y-105622595D01*
X121350763Y-105667650D01*
X121355373Y-105676697D01*
X121394728Y-105730866D01*
X122110000Y-105015595D01*
X122110000Y-105021811D01*
X122137259Y-105123544D01*
X122189920Y-105214756D01*
X122264394Y-105289230D01*
X122355606Y-105341891D01*
X122457339Y-105369150D01*
X122463554Y-105369150D01*
X121748282Y-106084419D01*
X121748282Y-106084420D01*
X121802449Y-106123774D01*
X121991782Y-106220245D01*
X122193870Y-106285907D01*
X122403754Y-106319150D01*
X122616246Y-106319150D01*
X122826127Y-106285907D01*
X122826130Y-106285907D01*
X123028217Y-106220245D01*
X123217554Y-106123772D01*
X123271716Y-106084420D01*
X123271717Y-106084420D01*
X122556446Y-105369150D01*
X122562661Y-105369150D01*
X122664394Y-105341891D01*
X122755606Y-105289230D01*
X122830080Y-105214756D01*
X122882741Y-105123544D01*
X122910000Y-105021811D01*
X122910000Y-105015596D01*
X123625270Y-105730867D01*
X123625270Y-105730866D01*
X123664622Y-105676704D01*
X123761095Y-105487367D01*
X123826757Y-105285280D01*
X123826757Y-105285277D01*
X123860000Y-105075396D01*
X123860000Y-104862903D01*
X123826757Y-104653022D01*
X123826757Y-104653019D01*
X123761095Y-104450932D01*
X123664624Y-104261599D01*
X123625270Y-104207432D01*
X123625269Y-104207432D01*
X122910000Y-104922702D01*
X122910000Y-104916489D01*
X122882741Y-104814756D01*
X122830080Y-104723544D01*
X122755606Y-104649070D01*
X122664394Y-104596409D01*
X122562661Y-104569150D01*
X122556447Y-104569150D01*
X123271716Y-103853878D01*
X123217550Y-103814525D01*
X123028217Y-103718054D01*
X122826129Y-103652392D01*
X122616246Y-103619150D01*
X122403754Y-103619150D01*
X122193872Y-103652392D01*
X122193869Y-103652392D01*
X121991782Y-103718054D01*
X121802439Y-103814530D01*
X121748282Y-103853877D01*
X121748282Y-103853878D01*
X122463554Y-104569150D01*
X122457339Y-104569150D01*
X122355606Y-104596409D01*
X122264394Y-104649070D01*
X122189920Y-104723544D01*
X122137259Y-104814756D01*
X122110000Y-104916489D01*
X122110000Y-104922704D01*
X121394728Y-104207432D01*
X121394727Y-104207432D01*
X121355380Y-104261590D01*
X121355376Y-104261596D01*
X121350760Y-104270655D01*
X121302781Y-104321447D01*
X121234959Y-104338237D01*
X121168826Y-104315693D01*
X121129794Y-104270643D01*
X121125051Y-104261334D01*
X121125049Y-104261331D01*
X121125048Y-104261329D01*
X121000109Y-104089363D01*
X120849786Y-103939040D01*
X120677820Y-103814101D01*
X120488414Y-103717594D01*
X120488413Y-103717593D01*
X120488412Y-103717593D01*
X120286243Y-103651904D01*
X120286241Y-103651903D01*
X120286240Y-103651903D01*
X120124957Y-103626358D01*
X120076287Y-103618650D01*
X119863713Y-103618650D01*
X119815042Y-103626358D01*
X119653760Y-103651903D01*
X119451585Y-103717594D01*
X119262179Y-103814101D01*
X119090213Y-103939040D01*
X118939890Y-104089363D01*
X118814951Y-104261329D01*
X118718444Y-104450735D01*
X118652753Y-104652910D01*
X118619500Y-104862863D01*
X115450000Y-104862863D01*
X115450000Y-101722867D01*
X115469685Y-101655828D01*
X115522489Y-101610073D01*
X115572858Y-101598872D01*
X131800000Y-101450000D01*
X131800000Y-95800000D01*
X126924000Y-95800000D01*
X126856961Y-95780315D01*
X126811206Y-95727511D01*
X126800000Y-95676000D01*
X126800000Y-92190155D01*
X127738000Y-92190155D01*
X127738000Y-92750000D01*
X128557749Y-92750000D01*
X128526619Y-92803919D01*
X128492000Y-92933120D01*
X128492000Y-93066880D01*
X128526619Y-93196081D01*
X128557749Y-93250000D01*
X127738000Y-93250000D01*
X127738000Y-93809844D01*
X127744401Y-93869372D01*
X127744403Y-93869379D01*
X127794645Y-94004086D01*
X127794649Y-94004093D01*
X127880809Y-94119187D01*
X127880812Y-94119190D01*
X127995906Y-94205350D01*
X127995913Y-94205354D01*
X128130620Y-94255596D01*
X128130627Y-94255598D01*
X128190155Y-94261999D01*
X128190172Y-94262000D01*
X128750000Y-94262000D01*
X128750000Y-93442251D01*
X128803919Y-93473381D01*
X128933120Y-93508000D01*
X129066880Y-93508000D01*
X129196081Y-93473381D01*
X129250000Y-93442251D01*
X129250000Y-94262000D01*
X129809828Y-94262000D01*
X129809844Y-94261999D01*
X129869372Y-94255598D01*
X129869379Y-94255596D01*
X130004086Y-94205354D01*
X130004093Y-94205350D01*
X130119187Y-94119190D01*
X130119190Y-94119187D01*
X130205350Y-94004093D01*
X130205354Y-94004086D01*
X130255596Y-93869379D01*
X130255598Y-93869372D01*
X130261999Y-93809844D01*
X130262000Y-93809827D01*
X130262000Y-93250000D01*
X129442251Y-93250000D01*
X129473381Y-93196081D01*
X129508000Y-93066880D01*
X129508000Y-92933120D01*
X129473381Y-92803919D01*
X129442251Y-92750000D01*
X130262000Y-92750000D01*
X130262000Y-92190172D01*
X130261999Y-92190155D01*
X139488000Y-92190155D01*
X139488000Y-92750000D01*
X140307749Y-92750000D01*
X140276619Y-92803919D01*
X140242000Y-92933120D01*
X140242000Y-93066880D01*
X140276619Y-93196081D01*
X140307749Y-93250000D01*
X139488000Y-93250000D01*
X139488000Y-93809844D01*
X139494401Y-93869372D01*
X139494403Y-93869379D01*
X139544645Y-94004086D01*
X139544649Y-94004093D01*
X139630809Y-94119187D01*
X139630812Y-94119190D01*
X139745906Y-94205350D01*
X139745913Y-94205354D01*
X139880620Y-94255596D01*
X139880627Y-94255598D01*
X139940155Y-94261999D01*
X139940172Y-94262000D01*
X140500000Y-94262000D01*
X140500000Y-93442251D01*
X140553919Y-93473381D01*
X140683120Y-93508000D01*
X140816880Y-93508000D01*
X140946081Y-93473381D01*
X141000000Y-93442251D01*
X141000000Y-94262000D01*
X141559828Y-94262000D01*
X141559844Y-94261999D01*
X141619372Y-94255598D01*
X141619379Y-94255596D01*
X141754086Y-94205354D01*
X141754093Y-94205350D01*
X141869187Y-94119190D01*
X141869190Y-94119187D01*
X141955350Y-94004093D01*
X141955354Y-94004086D01*
X142005596Y-93869379D01*
X142005598Y-93869372D01*
X142011999Y-93809844D01*
X142012000Y-93809827D01*
X142012000Y-93250000D01*
X141192251Y-93250000D01*
X141223381Y-93196081D01*
X141258000Y-93066880D01*
X141258000Y-92933120D01*
X141223381Y-92803919D01*
X141192251Y-92750000D01*
X142012000Y-92750000D01*
X142012000Y-92190172D01*
X142011999Y-92190155D01*
X142005598Y-92130627D01*
X142005596Y-92130620D01*
X141955354Y-91995913D01*
X141955350Y-91995906D01*
X141869190Y-91880812D01*
X141869187Y-91880809D01*
X141754093Y-91794649D01*
X141754086Y-91794645D01*
X141619379Y-91744403D01*
X141619372Y-91744401D01*
X141559844Y-91738000D01*
X141000000Y-91738000D01*
X141000000Y-92557748D01*
X140946081Y-92526619D01*
X140816880Y-92492000D01*
X140683120Y-92492000D01*
X140553919Y-92526619D01*
X140500000Y-92557748D01*
X140500000Y-91738000D01*
X139940155Y-91738000D01*
X139880627Y-91744401D01*
X139880620Y-91744403D01*
X139745913Y-91794645D01*
X139745906Y-91794649D01*
X139630812Y-91880809D01*
X139630809Y-91880812D01*
X139544649Y-91995906D01*
X139544645Y-91995913D01*
X139494403Y-92130620D01*
X139494401Y-92130627D01*
X139488000Y-92190155D01*
X130261999Y-92190155D01*
X130255598Y-92130627D01*
X130255596Y-92130620D01*
X130205354Y-91995913D01*
X130205350Y-91995906D01*
X130119190Y-91880812D01*
X130119187Y-91880809D01*
X130004093Y-91794649D01*
X130004086Y-91794645D01*
X129869379Y-91744403D01*
X129869372Y-91744401D01*
X129809844Y-91738000D01*
X129250000Y-91738000D01*
X129250000Y-92557748D01*
X129196081Y-92526619D01*
X129066880Y-92492000D01*
X128933120Y-92492000D01*
X128803919Y-92526619D01*
X128750000Y-92557748D01*
X128750000Y-91738000D01*
X128190155Y-91738000D01*
X128130627Y-91744401D01*
X128130620Y-91744403D01*
X127995913Y-91794645D01*
X127995906Y-91794649D01*
X127880812Y-91880809D01*
X127880809Y-91880812D01*
X127794649Y-91995906D01*
X127794645Y-91995913D01*
X127744403Y-92130620D01*
X127744401Y-92130627D01*
X127738000Y-92190155D01*
X126800000Y-92190155D01*
X126800000Y-91324000D01*
X126819685Y-91256961D01*
X126872489Y-91211206D01*
X126924000Y-91200000D01*
X142326000Y-91200000D01*
X142393039Y-91219685D01*
G37*
%TD.AperFunction*%
%TD*%
M02*
