M48
; DRILL file {KiCad 9.0.0} date 2025-11-28T03:58:03-0700
; FORMAT={-:-/ absolute / metric / decimal}
; #@! TF.CreationDate,2025-11-28T03:58:03-07:00
; #@! TF.GenerationSoftware,Kicad,Pcbnew,9.0.0
; #@! TF.FileFunction,Plated,1,2,PTH
FMAT,2
METRIC
; #@! TA.AperFunction,Plated,PTH,ViaDrill
T1C0.300
; #@! TA.AperFunction,Plated,PTH,ComponentDrill
T2C0.750
; #@! TA.AperFunction,Plated,PTH,ComponentDrill
T3C0.800
; #@! TA.AperFunction,Plated,PTH,ComponentDrill
T4C0.889
; #@! TA.AperFunction,Plated,PTH,ComponentDrill
T5C1.400
%
G90
G05
T1
X102.15Y-96.716
X103.3Y-94.266
X108.337Y-76.78
X111.9Y-94.572
X121.1Y-91.866
X124.93Y-97.616
X125.28Y-99.256
X136.53Y-77.906
X152.58Y-90.556
X153.114Y-78.652
X153.74Y-76.078
X154.09Y-73.563
X162.15Y-95.516
X163.7Y-88.316
X164.25Y-92.616
X164.445Y-81.421
X164.84Y-72.166
X174.3Y-78.266
T2
X149.75Y-72.358
X149.75Y-74.358
T3
X140.79Y-72.328
X140.79Y-74.328
T4
X111.095Y-86.081
X111.095Y-88.621
X113.635Y-86.081
X113.635Y-88.621
X116.175Y-86.081
X116.175Y-88.621
X118.715Y-86.081
X118.715Y-88.621
X121.255Y-86.081
X121.255Y-88.621
X123.795Y-86.081
X123.795Y-88.621
X126.335Y-86.081
X126.335Y-88.621
X128.875Y-86.081
X128.875Y-88.621
X131.415Y-86.081
X131.415Y-88.621
X133.955Y-86.081
X133.955Y-88.621
T5
X116.832Y-75.106
X121.912Y-75.106
X126.992Y-75.106
X180.922Y-75.09
X186.002Y-75.09
X195.07Y-95.64
M30
