%TF.GenerationSoftware,KiCad,Pcbnew,9.0.0*%
%TF.CreationDate,2025-11-28T03:58:55-07:00*%
%TF.ProjectId,ESP-Board,4553502d-426f-4617-9264-2e6b69636164,rev?*%
%TF.SameCoordinates,Original*%
%TF.FileFunction,Legend,Bot*%
%TF.FilePolarity,Positive*%
%FSLAX46Y46*%
G04 Gerber Fmt 4.6, Leading zero omitted, Abs format (unit mm)*
G04 Created by KiCad (PCBNEW 9.0.0) date 2025-11-28 03:58:55*
%MOMM*%
%LPD*%
G01*
G04 APERTURE LIST*
%ADD10C,0.300000*%
%ADD11C,0.250000*%
%ADD12C,0.150000*%
%ADD13C,0.125000*%
%ADD14C,0.200000*%
%ADD15C,0.508000*%
%ADD16C,0.152400*%
%ADD17C,0.127000*%
G04 APERTURE END LIST*
D10*
X130829429Y-99365343D02*
X130829429Y-97865343D01*
X131543715Y-99365343D02*
X131543715Y-97865343D01*
X131543715Y-97865343D02*
X131900858Y-97865343D01*
X131900858Y-97865343D02*
X132115144Y-97936772D01*
X132115144Y-97936772D02*
X132258001Y-98079629D01*
X132258001Y-98079629D02*
X132329430Y-98222486D01*
X132329430Y-98222486D02*
X132400858Y-98508200D01*
X132400858Y-98508200D02*
X132400858Y-98722486D01*
X132400858Y-98722486D02*
X132329430Y-99008200D01*
X132329430Y-99008200D02*
X132258001Y-99151057D01*
X132258001Y-99151057D02*
X132115144Y-99293915D01*
X132115144Y-99293915D02*
X131900858Y-99365343D01*
X131900858Y-99365343D02*
X131543715Y-99365343D01*
D11*
X171455952Y-96840072D02*
X171455952Y-97840072D01*
X171455952Y-97840072D02*
X171694047Y-97840072D01*
X171694047Y-97840072D02*
X171836904Y-97792453D01*
X171836904Y-97792453D02*
X171932142Y-97697215D01*
X171932142Y-97697215D02*
X171979761Y-97601977D01*
X171979761Y-97601977D02*
X172027380Y-97411501D01*
X172027380Y-97411501D02*
X172027380Y-97268644D01*
X172027380Y-97268644D02*
X171979761Y-97078168D01*
X171979761Y-97078168D02*
X171932142Y-96982930D01*
X171932142Y-96982930D02*
X171836904Y-96887692D01*
X171836904Y-96887692D02*
X171694047Y-96840072D01*
X171694047Y-96840072D02*
X171455952Y-96840072D01*
X172836904Y-96887692D02*
X172741666Y-96840072D01*
X172741666Y-96840072D02*
X172551190Y-96840072D01*
X172551190Y-96840072D02*
X172455952Y-96887692D01*
X172455952Y-96887692D02*
X172408333Y-96982930D01*
X172408333Y-96982930D02*
X172408333Y-97363882D01*
X172408333Y-97363882D02*
X172455952Y-97459120D01*
X172455952Y-97459120D02*
X172551190Y-97506739D01*
X172551190Y-97506739D02*
X172741666Y-97506739D01*
X172741666Y-97506739D02*
X172836904Y-97459120D01*
X172836904Y-97459120D02*
X172884523Y-97363882D01*
X172884523Y-97363882D02*
X172884523Y-97268644D01*
X172884523Y-97268644D02*
X172408333Y-97173406D01*
X173313095Y-96840072D02*
X173313095Y-97506739D01*
X173313095Y-97411501D02*
X173360714Y-97459120D01*
X173360714Y-97459120D02*
X173455952Y-97506739D01*
X173455952Y-97506739D02*
X173598809Y-97506739D01*
X173598809Y-97506739D02*
X173694047Y-97459120D01*
X173694047Y-97459120D02*
X173741666Y-97363882D01*
X173741666Y-97363882D02*
X173741666Y-96840072D01*
X173741666Y-97363882D02*
X173789285Y-97459120D01*
X173789285Y-97459120D02*
X173884523Y-97506739D01*
X173884523Y-97506739D02*
X174027380Y-97506739D01*
X174027380Y-97506739D02*
X174122619Y-97459120D01*
X174122619Y-97459120D02*
X174170238Y-97363882D01*
X174170238Y-97363882D02*
X174170238Y-96840072D01*
X175027380Y-96887692D02*
X174932142Y-96840072D01*
X174932142Y-96840072D02*
X174741666Y-96840072D01*
X174741666Y-96840072D02*
X174646428Y-96887692D01*
X174646428Y-96887692D02*
X174598809Y-96982930D01*
X174598809Y-96982930D02*
X174598809Y-97363882D01*
X174598809Y-97363882D02*
X174646428Y-97459120D01*
X174646428Y-97459120D02*
X174741666Y-97506739D01*
X174741666Y-97506739D02*
X174932142Y-97506739D01*
X174932142Y-97506739D02*
X175027380Y-97459120D01*
X175027380Y-97459120D02*
X175074999Y-97363882D01*
X175074999Y-97363882D02*
X175074999Y-97268644D01*
X175074999Y-97268644D02*
X174598809Y-97173406D01*
X175360714Y-97506739D02*
X175741666Y-97506739D01*
X175503571Y-97840072D02*
X175503571Y-96982930D01*
X175503571Y-96982930D02*
X175551190Y-96887692D01*
X175551190Y-96887692D02*
X175646428Y-96840072D01*
X175646428Y-96840072D02*
X175741666Y-96840072D01*
X176075000Y-96840072D02*
X176075000Y-97506739D01*
X176075000Y-97316263D02*
X176122619Y-97411501D01*
X176122619Y-97411501D02*
X176170238Y-97459120D01*
X176170238Y-97459120D02*
X176265476Y-97506739D01*
X176265476Y-97506739D02*
X176360714Y-97506739D01*
X176694048Y-96840072D02*
X176694048Y-97506739D01*
X176694048Y-97840072D02*
X176646429Y-97792453D01*
X176646429Y-97792453D02*
X176694048Y-97744834D01*
X176694048Y-97744834D02*
X176741667Y-97792453D01*
X176741667Y-97792453D02*
X176694048Y-97840072D01*
X176694048Y-97840072D02*
X176694048Y-97744834D01*
X177598809Y-97506739D02*
X177598809Y-96840072D01*
X177170238Y-97506739D02*
X177170238Y-96982930D01*
X177170238Y-96982930D02*
X177217857Y-96887692D01*
X177217857Y-96887692D02*
X177313095Y-96840072D01*
X177313095Y-96840072D02*
X177455952Y-96840072D01*
X177455952Y-96840072D02*
X177551190Y-96887692D01*
X177551190Y-96887692D02*
X177598809Y-96935311D01*
X178027381Y-96887692D02*
X178122619Y-96840072D01*
X178122619Y-96840072D02*
X178313095Y-96840072D01*
X178313095Y-96840072D02*
X178408333Y-96887692D01*
X178408333Y-96887692D02*
X178455952Y-96982930D01*
X178455952Y-96982930D02*
X178455952Y-97030549D01*
X178455952Y-97030549D02*
X178408333Y-97125787D01*
X178408333Y-97125787D02*
X178313095Y-97173406D01*
X178313095Y-97173406D02*
X178170238Y-97173406D01*
X178170238Y-97173406D02*
X178075000Y-97221025D01*
X178075000Y-97221025D02*
X178027381Y-97316263D01*
X178027381Y-97316263D02*
X178027381Y-97363882D01*
X178027381Y-97363882D02*
X178075000Y-97459120D01*
X178075000Y-97459120D02*
X178170238Y-97506739D01*
X178170238Y-97506739D02*
X178313095Y-97506739D01*
X178313095Y-97506739D02*
X178408333Y-97459120D01*
X180217857Y-96840072D02*
X179884524Y-97316263D01*
X179646429Y-96840072D02*
X179646429Y-97840072D01*
X179646429Y-97840072D02*
X180027381Y-97840072D01*
X180027381Y-97840072D02*
X180122619Y-97792453D01*
X180122619Y-97792453D02*
X180170238Y-97744834D01*
X180170238Y-97744834D02*
X180217857Y-97649596D01*
X180217857Y-97649596D02*
X180217857Y-97506739D01*
X180217857Y-97506739D02*
X180170238Y-97411501D01*
X180170238Y-97411501D02*
X180122619Y-97363882D01*
X180122619Y-97363882D02*
X180027381Y-97316263D01*
X180027381Y-97316263D02*
X179646429Y-97316263D01*
X180789286Y-96840072D02*
X180694048Y-96887692D01*
X180694048Y-96887692D02*
X180646429Y-96935311D01*
X180646429Y-96935311D02*
X180598810Y-97030549D01*
X180598810Y-97030549D02*
X180598810Y-97316263D01*
X180598810Y-97316263D02*
X180646429Y-97411501D01*
X180646429Y-97411501D02*
X180694048Y-97459120D01*
X180694048Y-97459120D02*
X180789286Y-97506739D01*
X180789286Y-97506739D02*
X180932143Y-97506739D01*
X180932143Y-97506739D02*
X181027381Y-97459120D01*
X181027381Y-97459120D02*
X181075000Y-97411501D01*
X181075000Y-97411501D02*
X181122619Y-97316263D01*
X181122619Y-97316263D02*
X181122619Y-97030549D01*
X181122619Y-97030549D02*
X181075000Y-96935311D01*
X181075000Y-96935311D02*
X181027381Y-96887692D01*
X181027381Y-96887692D02*
X180932143Y-96840072D01*
X180932143Y-96840072D02*
X180789286Y-96840072D01*
X181503572Y-96887692D02*
X181598810Y-96840072D01*
X181598810Y-96840072D02*
X181789286Y-96840072D01*
X181789286Y-96840072D02*
X181884524Y-96887692D01*
X181884524Y-96887692D02*
X181932143Y-96982930D01*
X181932143Y-96982930D02*
X181932143Y-97030549D01*
X181932143Y-97030549D02*
X181884524Y-97125787D01*
X181884524Y-97125787D02*
X181789286Y-97173406D01*
X181789286Y-97173406D02*
X181646429Y-97173406D01*
X181646429Y-97173406D02*
X181551191Y-97221025D01*
X181551191Y-97221025D02*
X181503572Y-97316263D01*
X181503572Y-97316263D02*
X181503572Y-97363882D01*
X181503572Y-97363882D02*
X181551191Y-97459120D01*
X181551191Y-97459120D02*
X181646429Y-97506739D01*
X181646429Y-97506739D02*
X181789286Y-97506739D01*
X181789286Y-97506739D02*
X181884524Y-97459120D01*
X182313096Y-96887692D02*
X182408334Y-96840072D01*
X182408334Y-96840072D02*
X182598810Y-96840072D01*
X182598810Y-96840072D02*
X182694048Y-96887692D01*
X182694048Y-96887692D02*
X182741667Y-96982930D01*
X182741667Y-96982930D02*
X182741667Y-97030549D01*
X182741667Y-97030549D02*
X182694048Y-97125787D01*
X182694048Y-97125787D02*
X182598810Y-97173406D01*
X182598810Y-97173406D02*
X182455953Y-97173406D01*
X182455953Y-97173406D02*
X182360715Y-97221025D01*
X182360715Y-97221025D02*
X182313096Y-97316263D01*
X182313096Y-97316263D02*
X182313096Y-97363882D01*
X182313096Y-97363882D02*
X182360715Y-97459120D01*
X182360715Y-97459120D02*
X182455953Y-97506739D01*
X182455953Y-97506739D02*
X182598810Y-97506739D01*
X182598810Y-97506739D02*
X182694048Y-97459120D01*
X164955951Y-95230128D02*
X164955951Y-96230128D01*
X164955951Y-96230128D02*
X165194046Y-96230128D01*
X165194046Y-96230128D02*
X165336903Y-96182509D01*
X165336903Y-96182509D02*
X165432141Y-96087271D01*
X165432141Y-96087271D02*
X165479760Y-95992033D01*
X165479760Y-95992033D02*
X165527379Y-95801557D01*
X165527379Y-95801557D02*
X165527379Y-95658700D01*
X165527379Y-95658700D02*
X165479760Y-95468224D01*
X165479760Y-95468224D02*
X165432141Y-95372986D01*
X165432141Y-95372986D02*
X165336903Y-95277748D01*
X165336903Y-95277748D02*
X165194046Y-95230128D01*
X165194046Y-95230128D02*
X164955951Y-95230128D01*
X166336903Y-95277748D02*
X166241665Y-95230128D01*
X166241665Y-95230128D02*
X166051189Y-95230128D01*
X166051189Y-95230128D02*
X165955951Y-95277748D01*
X165955951Y-95277748D02*
X165908332Y-95372986D01*
X165908332Y-95372986D02*
X165908332Y-95753938D01*
X165908332Y-95753938D02*
X165955951Y-95849176D01*
X165955951Y-95849176D02*
X166051189Y-95896795D01*
X166051189Y-95896795D02*
X166241665Y-95896795D01*
X166241665Y-95896795D02*
X166336903Y-95849176D01*
X166336903Y-95849176D02*
X166384522Y-95753938D01*
X166384522Y-95753938D02*
X166384522Y-95658700D01*
X166384522Y-95658700D02*
X165908332Y-95563462D01*
X166813094Y-95230128D02*
X166813094Y-95896795D01*
X166813094Y-95801557D02*
X166860713Y-95849176D01*
X166860713Y-95849176D02*
X166955951Y-95896795D01*
X166955951Y-95896795D02*
X167098808Y-95896795D01*
X167098808Y-95896795D02*
X167194046Y-95849176D01*
X167194046Y-95849176D02*
X167241665Y-95753938D01*
X167241665Y-95753938D02*
X167241665Y-95230128D01*
X167241665Y-95753938D02*
X167289284Y-95849176D01*
X167289284Y-95849176D02*
X167384522Y-95896795D01*
X167384522Y-95896795D02*
X167527379Y-95896795D01*
X167527379Y-95896795D02*
X167622618Y-95849176D01*
X167622618Y-95849176D02*
X167670237Y-95753938D01*
X167670237Y-95753938D02*
X167670237Y-95230128D01*
X168527379Y-95277748D02*
X168432141Y-95230128D01*
X168432141Y-95230128D02*
X168241665Y-95230128D01*
X168241665Y-95230128D02*
X168146427Y-95277748D01*
X168146427Y-95277748D02*
X168098808Y-95372986D01*
X168098808Y-95372986D02*
X168098808Y-95753938D01*
X168098808Y-95753938D02*
X168146427Y-95849176D01*
X168146427Y-95849176D02*
X168241665Y-95896795D01*
X168241665Y-95896795D02*
X168432141Y-95896795D01*
X168432141Y-95896795D02*
X168527379Y-95849176D01*
X168527379Y-95849176D02*
X168574998Y-95753938D01*
X168574998Y-95753938D02*
X168574998Y-95658700D01*
X168574998Y-95658700D02*
X168098808Y-95563462D01*
X168860713Y-95896795D02*
X169241665Y-95896795D01*
X169003570Y-96230128D02*
X169003570Y-95372986D01*
X169003570Y-95372986D02*
X169051189Y-95277748D01*
X169051189Y-95277748D02*
X169146427Y-95230128D01*
X169146427Y-95230128D02*
X169241665Y-95230128D01*
X169574999Y-95230128D02*
X169574999Y-95896795D01*
X169574999Y-95706319D02*
X169622618Y-95801557D01*
X169622618Y-95801557D02*
X169670237Y-95849176D01*
X169670237Y-95849176D02*
X169765475Y-95896795D01*
X169765475Y-95896795D02*
X169860713Y-95896795D01*
X170194047Y-95230128D02*
X170194047Y-95896795D01*
X170194047Y-96230128D02*
X170146428Y-96182509D01*
X170146428Y-96182509D02*
X170194047Y-96134890D01*
X170194047Y-96134890D02*
X170241666Y-96182509D01*
X170241666Y-96182509D02*
X170194047Y-96230128D01*
X170194047Y-96230128D02*
X170194047Y-96134890D01*
X171098808Y-95896795D02*
X171098808Y-95230128D01*
X170670237Y-95896795D02*
X170670237Y-95372986D01*
X170670237Y-95372986D02*
X170717856Y-95277748D01*
X170717856Y-95277748D02*
X170813094Y-95230128D01*
X170813094Y-95230128D02*
X170955951Y-95230128D01*
X170955951Y-95230128D02*
X171051189Y-95277748D01*
X171051189Y-95277748D02*
X171098808Y-95325367D01*
X171527380Y-95277748D02*
X171622618Y-95230128D01*
X171622618Y-95230128D02*
X171813094Y-95230128D01*
X171813094Y-95230128D02*
X171908332Y-95277748D01*
X171908332Y-95277748D02*
X171955951Y-95372986D01*
X171955951Y-95372986D02*
X171955951Y-95420605D01*
X171955951Y-95420605D02*
X171908332Y-95515843D01*
X171908332Y-95515843D02*
X171813094Y-95563462D01*
X171813094Y-95563462D02*
X171670237Y-95563462D01*
X171670237Y-95563462D02*
X171574999Y-95611081D01*
X171574999Y-95611081D02*
X171527380Y-95706319D01*
X171527380Y-95706319D02*
X171527380Y-95753938D01*
X171527380Y-95753938D02*
X171574999Y-95849176D01*
X171574999Y-95849176D02*
X171670237Y-95896795D01*
X171670237Y-95896795D02*
X171813094Y-95896795D01*
X171813094Y-95896795D02*
X171908332Y-95849176D01*
X172384523Y-95325367D02*
X172432142Y-95277748D01*
X172432142Y-95277748D02*
X172384523Y-95230128D01*
X172384523Y-95230128D02*
X172336904Y-95277748D01*
X172336904Y-95277748D02*
X172384523Y-95325367D01*
X172384523Y-95325367D02*
X172384523Y-95230128D01*
X173432141Y-95230128D02*
X173098808Y-95706319D01*
X172860713Y-95230128D02*
X172860713Y-96230128D01*
X172860713Y-96230128D02*
X173241665Y-96230128D01*
X173241665Y-96230128D02*
X173336903Y-96182509D01*
X173336903Y-96182509D02*
X173384522Y-96134890D01*
X173384522Y-96134890D02*
X173432141Y-96039652D01*
X173432141Y-96039652D02*
X173432141Y-95896795D01*
X173432141Y-95896795D02*
X173384522Y-95801557D01*
X173384522Y-95801557D02*
X173336903Y-95753938D01*
X173336903Y-95753938D02*
X173241665Y-95706319D01*
X173241665Y-95706319D02*
X172860713Y-95706319D01*
X174003570Y-95230128D02*
X173908332Y-95277748D01*
X173908332Y-95277748D02*
X173860713Y-95325367D01*
X173860713Y-95325367D02*
X173813094Y-95420605D01*
X173813094Y-95420605D02*
X173813094Y-95706319D01*
X173813094Y-95706319D02*
X173860713Y-95801557D01*
X173860713Y-95801557D02*
X173908332Y-95849176D01*
X173908332Y-95849176D02*
X174003570Y-95896795D01*
X174003570Y-95896795D02*
X174146427Y-95896795D01*
X174146427Y-95896795D02*
X174241665Y-95849176D01*
X174241665Y-95849176D02*
X174289284Y-95801557D01*
X174289284Y-95801557D02*
X174336903Y-95706319D01*
X174336903Y-95706319D02*
X174336903Y-95420605D01*
X174336903Y-95420605D02*
X174289284Y-95325367D01*
X174289284Y-95325367D02*
X174241665Y-95277748D01*
X174241665Y-95277748D02*
X174146427Y-95230128D01*
X174146427Y-95230128D02*
X174003570Y-95230128D01*
X174717856Y-95277748D02*
X174813094Y-95230128D01*
X174813094Y-95230128D02*
X175003570Y-95230128D01*
X175003570Y-95230128D02*
X175098808Y-95277748D01*
X175098808Y-95277748D02*
X175146427Y-95372986D01*
X175146427Y-95372986D02*
X175146427Y-95420605D01*
X175146427Y-95420605D02*
X175098808Y-95515843D01*
X175098808Y-95515843D02*
X175003570Y-95563462D01*
X175003570Y-95563462D02*
X174860713Y-95563462D01*
X174860713Y-95563462D02*
X174765475Y-95611081D01*
X174765475Y-95611081D02*
X174717856Y-95706319D01*
X174717856Y-95706319D02*
X174717856Y-95753938D01*
X174717856Y-95753938D02*
X174765475Y-95849176D01*
X174765475Y-95849176D02*
X174860713Y-95896795D01*
X174860713Y-95896795D02*
X175003570Y-95896795D01*
X175003570Y-95896795D02*
X175098808Y-95849176D01*
X175527380Y-95277748D02*
X175622618Y-95230128D01*
X175622618Y-95230128D02*
X175813094Y-95230128D01*
X175813094Y-95230128D02*
X175908332Y-95277748D01*
X175908332Y-95277748D02*
X175955951Y-95372986D01*
X175955951Y-95372986D02*
X175955951Y-95420605D01*
X175955951Y-95420605D02*
X175908332Y-95515843D01*
X175908332Y-95515843D02*
X175813094Y-95563462D01*
X175813094Y-95563462D02*
X175670237Y-95563462D01*
X175670237Y-95563462D02*
X175574999Y-95611081D01*
X175574999Y-95611081D02*
X175527380Y-95706319D01*
X175527380Y-95706319D02*
X175527380Y-95753938D01*
X175527380Y-95753938D02*
X175574999Y-95849176D01*
X175574999Y-95849176D02*
X175670237Y-95896795D01*
X175670237Y-95896795D02*
X175813094Y-95896795D01*
X175813094Y-95896795D02*
X175908332Y-95849176D01*
X177003570Y-95706319D02*
X176955951Y-95753938D01*
X176955951Y-95753938D02*
X176860713Y-95801557D01*
X176860713Y-95801557D02*
X176765475Y-95801557D01*
X176765475Y-95801557D02*
X176670237Y-95753938D01*
X176670237Y-95753938D02*
X176622618Y-95706319D01*
X176622618Y-95706319D02*
X176574999Y-95611081D01*
X176574999Y-95611081D02*
X176574999Y-95515843D01*
X176574999Y-95515843D02*
X176622618Y-95420605D01*
X176622618Y-95420605D02*
X176670237Y-95372986D01*
X176670237Y-95372986D02*
X176765475Y-95325367D01*
X176765475Y-95325367D02*
X176860713Y-95325367D01*
X176860713Y-95325367D02*
X176955951Y-95372986D01*
X176955951Y-95372986D02*
X177003570Y-95420605D01*
X177003570Y-95801557D02*
X177003570Y-95420605D01*
X177003570Y-95420605D02*
X177051189Y-95372986D01*
X177051189Y-95372986D02*
X177098808Y-95372986D01*
X177098808Y-95372986D02*
X177194047Y-95420605D01*
X177194047Y-95420605D02*
X177241666Y-95515843D01*
X177241666Y-95515843D02*
X177241666Y-95753938D01*
X177241666Y-95753938D02*
X177146428Y-95896795D01*
X177146428Y-95896795D02*
X177003570Y-95992033D01*
X177003570Y-95992033D02*
X176813094Y-96039652D01*
X176813094Y-96039652D02*
X176622618Y-95992033D01*
X176622618Y-95992033D02*
X176479761Y-95896795D01*
X176479761Y-95896795D02*
X176384523Y-95753938D01*
X176384523Y-95753938D02*
X176336904Y-95563462D01*
X176336904Y-95563462D02*
X176384523Y-95372986D01*
X176384523Y-95372986D02*
X176479761Y-95230128D01*
X176479761Y-95230128D02*
X176622618Y-95134890D01*
X176622618Y-95134890D02*
X176813094Y-95087271D01*
X176813094Y-95087271D02*
X177003570Y-95134890D01*
X177003570Y-95134890D02*
X177146428Y-95230128D01*
X177527380Y-95896795D02*
X177908332Y-95896795D01*
X177670237Y-95230128D02*
X177670237Y-96087271D01*
X177670237Y-96087271D02*
X177717856Y-96182509D01*
X177717856Y-96182509D02*
X177813094Y-96230128D01*
X177813094Y-96230128D02*
X177908332Y-96230128D01*
X178384523Y-95230128D02*
X178289285Y-95277748D01*
X178289285Y-95277748D02*
X178241666Y-95372986D01*
X178241666Y-95372986D02*
X178241666Y-96230128D01*
X178765476Y-95230128D02*
X178765476Y-95896795D01*
X178765476Y-96230128D02*
X178717857Y-96182509D01*
X178717857Y-96182509D02*
X178765476Y-96134890D01*
X178765476Y-96134890D02*
X178813095Y-96182509D01*
X178813095Y-96182509D02*
X178765476Y-96230128D01*
X178765476Y-96230128D02*
X178765476Y-96134890D01*
X179670237Y-95896795D02*
X179670237Y-95087271D01*
X179670237Y-95087271D02*
X179622618Y-94992033D01*
X179622618Y-94992033D02*
X179574999Y-94944414D01*
X179574999Y-94944414D02*
X179479761Y-94896795D01*
X179479761Y-94896795D02*
X179336904Y-94896795D01*
X179336904Y-94896795D02*
X179241666Y-94944414D01*
X179670237Y-95277748D02*
X179574999Y-95230128D01*
X179574999Y-95230128D02*
X179384523Y-95230128D01*
X179384523Y-95230128D02*
X179289285Y-95277748D01*
X179289285Y-95277748D02*
X179241666Y-95325367D01*
X179241666Y-95325367D02*
X179194047Y-95420605D01*
X179194047Y-95420605D02*
X179194047Y-95706319D01*
X179194047Y-95706319D02*
X179241666Y-95801557D01*
X179241666Y-95801557D02*
X179289285Y-95849176D01*
X179289285Y-95849176D02*
X179384523Y-95896795D01*
X179384523Y-95896795D02*
X179574999Y-95896795D01*
X179574999Y-95896795D02*
X179670237Y-95849176D01*
X180146428Y-95230128D02*
X180146428Y-96230128D01*
X180574999Y-95230128D02*
X180574999Y-95753938D01*
X180574999Y-95753938D02*
X180527380Y-95849176D01*
X180527380Y-95849176D02*
X180432142Y-95896795D01*
X180432142Y-95896795D02*
X180289285Y-95896795D01*
X180289285Y-95896795D02*
X180194047Y-95849176D01*
X180194047Y-95849176D02*
X180146428Y-95801557D01*
X180908333Y-95896795D02*
X181289285Y-95896795D01*
X181051190Y-96230128D02*
X181051190Y-95372986D01*
X181051190Y-95372986D02*
X181098809Y-95277748D01*
X181098809Y-95277748D02*
X181194047Y-95230128D01*
X181194047Y-95230128D02*
X181289285Y-95230128D01*
X181575000Y-95277748D02*
X181670238Y-95230128D01*
X181670238Y-95230128D02*
X181860714Y-95230128D01*
X181860714Y-95230128D02*
X181955952Y-95277748D01*
X181955952Y-95277748D02*
X182003571Y-95372986D01*
X182003571Y-95372986D02*
X182003571Y-95420605D01*
X182003571Y-95420605D02*
X181955952Y-95515843D01*
X181955952Y-95515843D02*
X181860714Y-95563462D01*
X181860714Y-95563462D02*
X181717857Y-95563462D01*
X181717857Y-95563462D02*
X181622619Y-95611081D01*
X181622619Y-95611081D02*
X181575000Y-95706319D01*
X181575000Y-95706319D02*
X181575000Y-95753938D01*
X181575000Y-95753938D02*
X181622619Y-95849176D01*
X181622619Y-95849176D02*
X181717857Y-95896795D01*
X181717857Y-95896795D02*
X181860714Y-95896795D01*
X181860714Y-95896795D02*
X181955952Y-95849176D01*
X182860714Y-95230128D02*
X182860714Y-95753938D01*
X182860714Y-95753938D02*
X182813095Y-95849176D01*
X182813095Y-95849176D02*
X182717857Y-95896795D01*
X182717857Y-95896795D02*
X182527381Y-95896795D01*
X182527381Y-95896795D02*
X182432143Y-95849176D01*
X182860714Y-95277748D02*
X182765476Y-95230128D01*
X182765476Y-95230128D02*
X182527381Y-95230128D01*
X182527381Y-95230128D02*
X182432143Y-95277748D01*
X182432143Y-95277748D02*
X182384524Y-95372986D01*
X182384524Y-95372986D02*
X182384524Y-95468224D01*
X182384524Y-95468224D02*
X182432143Y-95563462D01*
X182432143Y-95563462D02*
X182527381Y-95611081D01*
X182527381Y-95611081D02*
X182765476Y-95611081D01*
X182765476Y-95611081D02*
X182860714Y-95658700D01*
X183194048Y-95896795D02*
X183575000Y-95896795D01*
X183336905Y-95230128D02*
X183336905Y-96087271D01*
X183336905Y-96087271D02*
X183384524Y-96182509D01*
X183384524Y-96182509D02*
X183479762Y-96230128D01*
X183479762Y-96230128D02*
X183575000Y-96230128D01*
X184289286Y-95277748D02*
X184194048Y-95230128D01*
X184194048Y-95230128D02*
X184003572Y-95230128D01*
X184003572Y-95230128D02*
X183908334Y-95277748D01*
X183908334Y-95277748D02*
X183860715Y-95372986D01*
X183860715Y-95372986D02*
X183860715Y-95753938D01*
X183860715Y-95753938D02*
X183908334Y-95849176D01*
X183908334Y-95849176D02*
X184003572Y-95896795D01*
X184003572Y-95896795D02*
X184194048Y-95896795D01*
X184194048Y-95896795D02*
X184289286Y-95849176D01*
X184289286Y-95849176D02*
X184336905Y-95753938D01*
X184336905Y-95753938D02*
X184336905Y-95658700D01*
X184336905Y-95658700D02*
X183860715Y-95563462D01*
X184622620Y-95896795D02*
X185003572Y-95896795D01*
X184765477Y-96230128D02*
X184765477Y-95372986D01*
X184765477Y-95372986D02*
X184813096Y-95277748D01*
X184813096Y-95277748D02*
X184908334Y-95230128D01*
X184908334Y-95230128D02*
X185003572Y-95230128D01*
X185241668Y-95896795D02*
X185479763Y-95230128D01*
X185717858Y-95896795D02*
X185479763Y-95230128D01*
X185479763Y-95230128D02*
X185384525Y-94992033D01*
X185384525Y-94992033D02*
X185336906Y-94944414D01*
X185336906Y-94944414D02*
X185241668Y-94896795D01*
X186098811Y-95325367D02*
X186146430Y-95277748D01*
X186146430Y-95277748D02*
X186098811Y-95230128D01*
X186098811Y-95230128D02*
X186051192Y-95277748D01*
X186051192Y-95277748D02*
X186098811Y-95325367D01*
X186098811Y-95325367D02*
X186098811Y-95230128D01*
X187003572Y-95277748D02*
X186908334Y-95230128D01*
X186908334Y-95230128D02*
X186717858Y-95230128D01*
X186717858Y-95230128D02*
X186622620Y-95277748D01*
X186622620Y-95277748D02*
X186575001Y-95325367D01*
X186575001Y-95325367D02*
X186527382Y-95420605D01*
X186527382Y-95420605D02*
X186527382Y-95706319D01*
X186527382Y-95706319D02*
X186575001Y-95801557D01*
X186575001Y-95801557D02*
X186622620Y-95849176D01*
X186622620Y-95849176D02*
X186717858Y-95896795D01*
X186717858Y-95896795D02*
X186908334Y-95896795D01*
X186908334Y-95896795D02*
X187003572Y-95849176D01*
X187575001Y-95230128D02*
X187479763Y-95277748D01*
X187479763Y-95277748D02*
X187432144Y-95325367D01*
X187432144Y-95325367D02*
X187384525Y-95420605D01*
X187384525Y-95420605D02*
X187384525Y-95706319D01*
X187384525Y-95706319D02*
X187432144Y-95801557D01*
X187432144Y-95801557D02*
X187479763Y-95849176D01*
X187479763Y-95849176D02*
X187575001Y-95896795D01*
X187575001Y-95896795D02*
X187717858Y-95896795D01*
X187717858Y-95896795D02*
X187813096Y-95849176D01*
X187813096Y-95849176D02*
X187860715Y-95801557D01*
X187860715Y-95801557D02*
X187908334Y-95706319D01*
X187908334Y-95706319D02*
X187908334Y-95420605D01*
X187908334Y-95420605D02*
X187860715Y-95325367D01*
X187860715Y-95325367D02*
X187813096Y-95277748D01*
X187813096Y-95277748D02*
X187717858Y-95230128D01*
X187717858Y-95230128D02*
X187575001Y-95230128D01*
X188336906Y-95230128D02*
X188336906Y-95896795D01*
X188336906Y-95801557D02*
X188384525Y-95849176D01*
X188384525Y-95849176D02*
X188479763Y-95896795D01*
X188479763Y-95896795D02*
X188622620Y-95896795D01*
X188622620Y-95896795D02*
X188717858Y-95849176D01*
X188717858Y-95849176D02*
X188765477Y-95753938D01*
X188765477Y-95753938D02*
X188765477Y-95230128D01*
X188765477Y-95753938D02*
X188813096Y-95849176D01*
X188813096Y-95849176D02*
X188908334Y-95896795D01*
X188908334Y-95896795D02*
X189051191Y-95896795D01*
X189051191Y-95896795D02*
X189146430Y-95849176D01*
X189146430Y-95849176D02*
X189194049Y-95753938D01*
X189194049Y-95753938D02*
X189194049Y-95230128D01*
X170503570Y-88885591D02*
X170455951Y-88837972D01*
X170455951Y-88837972D02*
X170313094Y-88790352D01*
X170313094Y-88790352D02*
X170217856Y-88790352D01*
X170217856Y-88790352D02*
X170074999Y-88837972D01*
X170074999Y-88837972D02*
X169979761Y-88933210D01*
X169979761Y-88933210D02*
X169932142Y-89028448D01*
X169932142Y-89028448D02*
X169884523Y-89218924D01*
X169884523Y-89218924D02*
X169884523Y-89361781D01*
X169884523Y-89361781D02*
X169932142Y-89552257D01*
X169932142Y-89552257D02*
X169979761Y-89647495D01*
X169979761Y-89647495D02*
X170074999Y-89742733D01*
X170074999Y-89742733D02*
X170217856Y-89790352D01*
X170217856Y-89790352D02*
X170313094Y-89790352D01*
X170313094Y-89790352D02*
X170455951Y-89742733D01*
X170455951Y-89742733D02*
X170503570Y-89695114D01*
X170932142Y-88790352D02*
X170932142Y-89790352D01*
X171360713Y-88790352D02*
X171360713Y-89314162D01*
X171360713Y-89314162D02*
X171313094Y-89409400D01*
X171313094Y-89409400D02*
X171217856Y-89457019D01*
X171217856Y-89457019D02*
X171074999Y-89457019D01*
X171074999Y-89457019D02*
X170979761Y-89409400D01*
X170979761Y-89409400D02*
X170932142Y-89361781D01*
X171836904Y-88790352D02*
X171836904Y-89457019D01*
X171836904Y-89266543D02*
X171884523Y-89361781D01*
X171884523Y-89361781D02*
X171932142Y-89409400D01*
X171932142Y-89409400D02*
X172027380Y-89457019D01*
X172027380Y-89457019D02*
X172122618Y-89457019D01*
X172455952Y-88790352D02*
X172455952Y-89457019D01*
X172455952Y-89790352D02*
X172408333Y-89742733D01*
X172408333Y-89742733D02*
X172455952Y-89695114D01*
X172455952Y-89695114D02*
X172503571Y-89742733D01*
X172503571Y-89742733D02*
X172455952Y-89790352D01*
X172455952Y-89790352D02*
X172455952Y-89695114D01*
X172884523Y-88837972D02*
X172979761Y-88790352D01*
X172979761Y-88790352D02*
X173170237Y-88790352D01*
X173170237Y-88790352D02*
X173265475Y-88837972D01*
X173265475Y-88837972D02*
X173313094Y-88933210D01*
X173313094Y-88933210D02*
X173313094Y-88980829D01*
X173313094Y-88980829D02*
X173265475Y-89076067D01*
X173265475Y-89076067D02*
X173170237Y-89123686D01*
X173170237Y-89123686D02*
X173027380Y-89123686D01*
X173027380Y-89123686D02*
X172932142Y-89171305D01*
X172932142Y-89171305D02*
X172884523Y-89266543D01*
X172884523Y-89266543D02*
X172884523Y-89314162D01*
X172884523Y-89314162D02*
X172932142Y-89409400D01*
X172932142Y-89409400D02*
X173027380Y-89457019D01*
X173027380Y-89457019D02*
X173170237Y-89457019D01*
X173170237Y-89457019D02*
X173265475Y-89409400D01*
X173598809Y-89457019D02*
X173979761Y-89457019D01*
X173741666Y-89790352D02*
X173741666Y-88933210D01*
X173741666Y-88933210D02*
X173789285Y-88837972D01*
X173789285Y-88837972D02*
X173884523Y-88790352D01*
X173884523Y-88790352D02*
X173979761Y-88790352D01*
X174455952Y-88790352D02*
X174360714Y-88837972D01*
X174360714Y-88837972D02*
X174313095Y-88885591D01*
X174313095Y-88885591D02*
X174265476Y-88980829D01*
X174265476Y-88980829D02*
X174265476Y-89266543D01*
X174265476Y-89266543D02*
X174313095Y-89361781D01*
X174313095Y-89361781D02*
X174360714Y-89409400D01*
X174360714Y-89409400D02*
X174455952Y-89457019D01*
X174455952Y-89457019D02*
X174598809Y-89457019D01*
X174598809Y-89457019D02*
X174694047Y-89409400D01*
X174694047Y-89409400D02*
X174741666Y-89361781D01*
X174741666Y-89361781D02*
X174789285Y-89266543D01*
X174789285Y-89266543D02*
X174789285Y-88980829D01*
X174789285Y-88980829D02*
X174741666Y-88885591D01*
X174741666Y-88885591D02*
X174694047Y-88837972D01*
X174694047Y-88837972D02*
X174598809Y-88790352D01*
X174598809Y-88790352D02*
X174455952Y-88790352D01*
X175217857Y-89457019D02*
X175217857Y-88457019D01*
X175217857Y-89409400D02*
X175313095Y-89457019D01*
X175313095Y-89457019D02*
X175503571Y-89457019D01*
X175503571Y-89457019D02*
X175598809Y-89409400D01*
X175598809Y-89409400D02*
X175646428Y-89361781D01*
X175646428Y-89361781D02*
X175694047Y-89266543D01*
X175694047Y-89266543D02*
X175694047Y-88980829D01*
X175694047Y-88980829D02*
X175646428Y-88885591D01*
X175646428Y-88885591D02*
X175598809Y-88837972D01*
X175598809Y-88837972D02*
X175503571Y-88790352D01*
X175503571Y-88790352D02*
X175313095Y-88790352D01*
X175313095Y-88790352D02*
X175217857Y-88837972D01*
X176122619Y-88790352D02*
X176122619Y-89790352D01*
X176551190Y-88790352D02*
X176551190Y-89314162D01*
X176551190Y-89314162D02*
X176503571Y-89409400D01*
X176503571Y-89409400D02*
X176408333Y-89457019D01*
X176408333Y-89457019D02*
X176265476Y-89457019D01*
X176265476Y-89457019D02*
X176170238Y-89409400D01*
X176170238Y-89409400D02*
X176122619Y-89361781D01*
X177408333Y-88837972D02*
X177313095Y-88790352D01*
X177313095Y-88790352D02*
X177122619Y-88790352D01*
X177122619Y-88790352D02*
X177027381Y-88837972D01*
X177027381Y-88837972D02*
X176979762Y-88933210D01*
X176979762Y-88933210D02*
X176979762Y-89314162D01*
X176979762Y-89314162D02*
X177027381Y-89409400D01*
X177027381Y-89409400D02*
X177122619Y-89457019D01*
X177122619Y-89457019D02*
X177313095Y-89457019D01*
X177313095Y-89457019D02*
X177408333Y-89409400D01*
X177408333Y-89409400D02*
X177455952Y-89314162D01*
X177455952Y-89314162D02*
X177455952Y-89218924D01*
X177455952Y-89218924D02*
X176979762Y-89123686D01*
X177884524Y-88790352D02*
X177884524Y-89457019D01*
X177884524Y-89266543D02*
X177932143Y-89361781D01*
X177932143Y-89361781D02*
X177979762Y-89409400D01*
X177979762Y-89409400D02*
X178075000Y-89457019D01*
X178075000Y-89457019D02*
X178170238Y-89457019D01*
X179598810Y-89314162D02*
X179265477Y-89314162D01*
X179265477Y-88790352D02*
X179265477Y-89790352D01*
X179265477Y-89790352D02*
X179741667Y-89790352D01*
X180122620Y-88790352D02*
X180122620Y-89457019D01*
X180122620Y-89266543D02*
X180170239Y-89361781D01*
X180170239Y-89361781D02*
X180217858Y-89409400D01*
X180217858Y-89409400D02*
X180313096Y-89457019D01*
X180313096Y-89457019D02*
X180408334Y-89457019D01*
X181170239Y-88790352D02*
X181170239Y-89314162D01*
X181170239Y-89314162D02*
X181122620Y-89409400D01*
X181122620Y-89409400D02*
X181027382Y-89457019D01*
X181027382Y-89457019D02*
X180836906Y-89457019D01*
X180836906Y-89457019D02*
X180741668Y-89409400D01*
X181170239Y-88837972D02*
X181075001Y-88790352D01*
X181075001Y-88790352D02*
X180836906Y-88790352D01*
X180836906Y-88790352D02*
X180741668Y-88837972D01*
X180741668Y-88837972D02*
X180694049Y-88933210D01*
X180694049Y-88933210D02*
X180694049Y-89028448D01*
X180694049Y-89028448D02*
X180741668Y-89123686D01*
X180741668Y-89123686D02*
X180836906Y-89171305D01*
X180836906Y-89171305D02*
X181075001Y-89171305D01*
X181075001Y-89171305D02*
X181170239Y-89218924D01*
X181646430Y-89457019D02*
X181646430Y-88790352D01*
X181646430Y-89361781D02*
X181694049Y-89409400D01*
X181694049Y-89409400D02*
X181789287Y-89457019D01*
X181789287Y-89457019D02*
X181932144Y-89457019D01*
X181932144Y-89457019D02*
X182027382Y-89409400D01*
X182027382Y-89409400D02*
X182075001Y-89314162D01*
X182075001Y-89314162D02*
X182075001Y-88790352D01*
X182979763Y-88837972D02*
X182884525Y-88790352D01*
X182884525Y-88790352D02*
X182694049Y-88790352D01*
X182694049Y-88790352D02*
X182598811Y-88837972D01*
X182598811Y-88837972D02*
X182551192Y-88885591D01*
X182551192Y-88885591D02*
X182503573Y-88980829D01*
X182503573Y-88980829D02*
X182503573Y-89266543D01*
X182503573Y-89266543D02*
X182551192Y-89361781D01*
X182551192Y-89361781D02*
X182598811Y-89409400D01*
X182598811Y-89409400D02*
X182694049Y-89457019D01*
X182694049Y-89457019D02*
X182884525Y-89457019D01*
X182884525Y-89457019D02*
X182979763Y-89409400D01*
X183408335Y-88790352D02*
X183408335Y-89457019D01*
X183408335Y-89790352D02*
X183360716Y-89742733D01*
X183360716Y-89742733D02*
X183408335Y-89695114D01*
X183408335Y-89695114D02*
X183455954Y-89742733D01*
X183455954Y-89742733D02*
X183408335Y-89790352D01*
X183408335Y-89790352D02*
X183408335Y-89695114D01*
X183836906Y-88837972D02*
X183932144Y-88790352D01*
X183932144Y-88790352D02*
X184122620Y-88790352D01*
X184122620Y-88790352D02*
X184217858Y-88837972D01*
X184217858Y-88837972D02*
X184265477Y-88933210D01*
X184265477Y-88933210D02*
X184265477Y-88980829D01*
X184265477Y-88980829D02*
X184217858Y-89076067D01*
X184217858Y-89076067D02*
X184122620Y-89123686D01*
X184122620Y-89123686D02*
X183979763Y-89123686D01*
X183979763Y-89123686D02*
X183884525Y-89171305D01*
X183884525Y-89171305D02*
X183836906Y-89266543D01*
X183836906Y-89266543D02*
X183836906Y-89314162D01*
X183836906Y-89314162D02*
X183884525Y-89409400D01*
X183884525Y-89409400D02*
X183979763Y-89457019D01*
X183979763Y-89457019D02*
X184122620Y-89457019D01*
X184122620Y-89457019D02*
X184217858Y-89409400D01*
X164003569Y-87275647D02*
X163955950Y-87228028D01*
X163955950Y-87228028D02*
X163813093Y-87180408D01*
X163813093Y-87180408D02*
X163717855Y-87180408D01*
X163717855Y-87180408D02*
X163574998Y-87228028D01*
X163574998Y-87228028D02*
X163479760Y-87323266D01*
X163479760Y-87323266D02*
X163432141Y-87418504D01*
X163432141Y-87418504D02*
X163384522Y-87608980D01*
X163384522Y-87608980D02*
X163384522Y-87751837D01*
X163384522Y-87751837D02*
X163432141Y-87942313D01*
X163432141Y-87942313D02*
X163479760Y-88037551D01*
X163479760Y-88037551D02*
X163574998Y-88132789D01*
X163574998Y-88132789D02*
X163717855Y-88180408D01*
X163717855Y-88180408D02*
X163813093Y-88180408D01*
X163813093Y-88180408D02*
X163955950Y-88132789D01*
X163955950Y-88132789D02*
X164003569Y-88085170D01*
X164432141Y-87180408D02*
X164432141Y-88180408D01*
X164860712Y-87180408D02*
X164860712Y-87704218D01*
X164860712Y-87704218D02*
X164813093Y-87799456D01*
X164813093Y-87799456D02*
X164717855Y-87847075D01*
X164717855Y-87847075D02*
X164574998Y-87847075D01*
X164574998Y-87847075D02*
X164479760Y-87799456D01*
X164479760Y-87799456D02*
X164432141Y-87751837D01*
X165336903Y-87180408D02*
X165336903Y-87847075D01*
X165336903Y-87656599D02*
X165384522Y-87751837D01*
X165384522Y-87751837D02*
X165432141Y-87799456D01*
X165432141Y-87799456D02*
X165527379Y-87847075D01*
X165527379Y-87847075D02*
X165622617Y-87847075D01*
X165955951Y-87180408D02*
X165955951Y-87847075D01*
X165955951Y-88180408D02*
X165908332Y-88132789D01*
X165908332Y-88132789D02*
X165955951Y-88085170D01*
X165955951Y-88085170D02*
X166003570Y-88132789D01*
X166003570Y-88132789D02*
X165955951Y-88180408D01*
X165955951Y-88180408D02*
X165955951Y-88085170D01*
X166384522Y-87228028D02*
X166479760Y-87180408D01*
X166479760Y-87180408D02*
X166670236Y-87180408D01*
X166670236Y-87180408D02*
X166765474Y-87228028D01*
X166765474Y-87228028D02*
X166813093Y-87323266D01*
X166813093Y-87323266D02*
X166813093Y-87370885D01*
X166813093Y-87370885D02*
X166765474Y-87466123D01*
X166765474Y-87466123D02*
X166670236Y-87513742D01*
X166670236Y-87513742D02*
X166527379Y-87513742D01*
X166527379Y-87513742D02*
X166432141Y-87561361D01*
X166432141Y-87561361D02*
X166384522Y-87656599D01*
X166384522Y-87656599D02*
X166384522Y-87704218D01*
X166384522Y-87704218D02*
X166432141Y-87799456D01*
X166432141Y-87799456D02*
X166527379Y-87847075D01*
X166527379Y-87847075D02*
X166670236Y-87847075D01*
X166670236Y-87847075D02*
X166765474Y-87799456D01*
X167098808Y-87847075D02*
X167479760Y-87847075D01*
X167241665Y-88180408D02*
X167241665Y-87323266D01*
X167241665Y-87323266D02*
X167289284Y-87228028D01*
X167289284Y-87228028D02*
X167384522Y-87180408D01*
X167384522Y-87180408D02*
X167479760Y-87180408D01*
X167955951Y-87180408D02*
X167860713Y-87228028D01*
X167860713Y-87228028D02*
X167813094Y-87275647D01*
X167813094Y-87275647D02*
X167765475Y-87370885D01*
X167765475Y-87370885D02*
X167765475Y-87656599D01*
X167765475Y-87656599D02*
X167813094Y-87751837D01*
X167813094Y-87751837D02*
X167860713Y-87799456D01*
X167860713Y-87799456D02*
X167955951Y-87847075D01*
X167955951Y-87847075D02*
X168098808Y-87847075D01*
X168098808Y-87847075D02*
X168194046Y-87799456D01*
X168194046Y-87799456D02*
X168241665Y-87751837D01*
X168241665Y-87751837D02*
X168289284Y-87656599D01*
X168289284Y-87656599D02*
X168289284Y-87370885D01*
X168289284Y-87370885D02*
X168241665Y-87275647D01*
X168241665Y-87275647D02*
X168194046Y-87228028D01*
X168194046Y-87228028D02*
X168098808Y-87180408D01*
X168098808Y-87180408D02*
X167955951Y-87180408D01*
X168717856Y-87847075D02*
X168717856Y-86847075D01*
X168717856Y-87799456D02*
X168813094Y-87847075D01*
X168813094Y-87847075D02*
X169003570Y-87847075D01*
X169003570Y-87847075D02*
X169098808Y-87799456D01*
X169098808Y-87799456D02*
X169146427Y-87751837D01*
X169146427Y-87751837D02*
X169194046Y-87656599D01*
X169194046Y-87656599D02*
X169194046Y-87370885D01*
X169194046Y-87370885D02*
X169146427Y-87275647D01*
X169146427Y-87275647D02*
X169098808Y-87228028D01*
X169098808Y-87228028D02*
X169003570Y-87180408D01*
X169003570Y-87180408D02*
X168813094Y-87180408D01*
X168813094Y-87180408D02*
X168717856Y-87228028D01*
X169622618Y-87180408D02*
X169622618Y-88180408D01*
X170051189Y-87180408D02*
X170051189Y-87704218D01*
X170051189Y-87704218D02*
X170003570Y-87799456D01*
X170003570Y-87799456D02*
X169908332Y-87847075D01*
X169908332Y-87847075D02*
X169765475Y-87847075D01*
X169765475Y-87847075D02*
X169670237Y-87799456D01*
X169670237Y-87799456D02*
X169622618Y-87751837D01*
X170908332Y-87228028D02*
X170813094Y-87180408D01*
X170813094Y-87180408D02*
X170622618Y-87180408D01*
X170622618Y-87180408D02*
X170527380Y-87228028D01*
X170527380Y-87228028D02*
X170479761Y-87323266D01*
X170479761Y-87323266D02*
X170479761Y-87704218D01*
X170479761Y-87704218D02*
X170527380Y-87799456D01*
X170527380Y-87799456D02*
X170622618Y-87847075D01*
X170622618Y-87847075D02*
X170813094Y-87847075D01*
X170813094Y-87847075D02*
X170908332Y-87799456D01*
X170908332Y-87799456D02*
X170955951Y-87704218D01*
X170955951Y-87704218D02*
X170955951Y-87608980D01*
X170955951Y-87608980D02*
X170479761Y-87513742D01*
X171384523Y-87180408D02*
X171384523Y-87847075D01*
X171384523Y-87656599D02*
X171432142Y-87751837D01*
X171432142Y-87751837D02*
X171479761Y-87799456D01*
X171479761Y-87799456D02*
X171574999Y-87847075D01*
X171574999Y-87847075D02*
X171670237Y-87847075D01*
X172003571Y-87275647D02*
X172051190Y-87228028D01*
X172051190Y-87228028D02*
X172003571Y-87180408D01*
X172003571Y-87180408D02*
X171955952Y-87228028D01*
X171955952Y-87228028D02*
X172003571Y-87275647D01*
X172003571Y-87275647D02*
X172003571Y-87180408D01*
X172813094Y-87704218D02*
X172479761Y-87704218D01*
X172479761Y-87180408D02*
X172479761Y-88180408D01*
X172479761Y-88180408D02*
X172955951Y-88180408D01*
X173336904Y-87180408D02*
X173336904Y-87847075D01*
X173336904Y-87656599D02*
X173384523Y-87751837D01*
X173384523Y-87751837D02*
X173432142Y-87799456D01*
X173432142Y-87799456D02*
X173527380Y-87847075D01*
X173527380Y-87847075D02*
X173622618Y-87847075D01*
X174384523Y-87180408D02*
X174384523Y-87704218D01*
X174384523Y-87704218D02*
X174336904Y-87799456D01*
X174336904Y-87799456D02*
X174241666Y-87847075D01*
X174241666Y-87847075D02*
X174051190Y-87847075D01*
X174051190Y-87847075D02*
X173955952Y-87799456D01*
X174384523Y-87228028D02*
X174289285Y-87180408D01*
X174289285Y-87180408D02*
X174051190Y-87180408D01*
X174051190Y-87180408D02*
X173955952Y-87228028D01*
X173955952Y-87228028D02*
X173908333Y-87323266D01*
X173908333Y-87323266D02*
X173908333Y-87418504D01*
X173908333Y-87418504D02*
X173955952Y-87513742D01*
X173955952Y-87513742D02*
X174051190Y-87561361D01*
X174051190Y-87561361D02*
X174289285Y-87561361D01*
X174289285Y-87561361D02*
X174384523Y-87608980D01*
X174860714Y-87847075D02*
X174860714Y-87180408D01*
X174860714Y-87751837D02*
X174908333Y-87799456D01*
X174908333Y-87799456D02*
X175003571Y-87847075D01*
X175003571Y-87847075D02*
X175146428Y-87847075D01*
X175146428Y-87847075D02*
X175241666Y-87799456D01*
X175241666Y-87799456D02*
X175289285Y-87704218D01*
X175289285Y-87704218D02*
X175289285Y-87180408D01*
X176194047Y-87228028D02*
X176098809Y-87180408D01*
X176098809Y-87180408D02*
X175908333Y-87180408D01*
X175908333Y-87180408D02*
X175813095Y-87228028D01*
X175813095Y-87228028D02*
X175765476Y-87275647D01*
X175765476Y-87275647D02*
X175717857Y-87370885D01*
X175717857Y-87370885D02*
X175717857Y-87656599D01*
X175717857Y-87656599D02*
X175765476Y-87751837D01*
X175765476Y-87751837D02*
X175813095Y-87799456D01*
X175813095Y-87799456D02*
X175908333Y-87847075D01*
X175908333Y-87847075D02*
X176098809Y-87847075D01*
X176098809Y-87847075D02*
X176194047Y-87799456D01*
X176622619Y-87180408D02*
X176622619Y-87847075D01*
X176622619Y-88180408D02*
X176575000Y-88132789D01*
X176575000Y-88132789D02*
X176622619Y-88085170D01*
X176622619Y-88085170D02*
X176670238Y-88132789D01*
X176670238Y-88132789D02*
X176622619Y-88180408D01*
X176622619Y-88180408D02*
X176622619Y-88085170D01*
X177051190Y-87228028D02*
X177146428Y-87180408D01*
X177146428Y-87180408D02*
X177336904Y-87180408D01*
X177336904Y-87180408D02*
X177432142Y-87228028D01*
X177432142Y-87228028D02*
X177479761Y-87323266D01*
X177479761Y-87323266D02*
X177479761Y-87370885D01*
X177479761Y-87370885D02*
X177432142Y-87466123D01*
X177432142Y-87466123D02*
X177336904Y-87513742D01*
X177336904Y-87513742D02*
X177194047Y-87513742D01*
X177194047Y-87513742D02*
X177098809Y-87561361D01*
X177098809Y-87561361D02*
X177051190Y-87656599D01*
X177051190Y-87656599D02*
X177051190Y-87704218D01*
X177051190Y-87704218D02*
X177098809Y-87799456D01*
X177098809Y-87799456D02*
X177194047Y-87847075D01*
X177194047Y-87847075D02*
X177336904Y-87847075D01*
X177336904Y-87847075D02*
X177432142Y-87799456D01*
X178527380Y-87656599D02*
X178479761Y-87704218D01*
X178479761Y-87704218D02*
X178384523Y-87751837D01*
X178384523Y-87751837D02*
X178289285Y-87751837D01*
X178289285Y-87751837D02*
X178194047Y-87704218D01*
X178194047Y-87704218D02*
X178146428Y-87656599D01*
X178146428Y-87656599D02*
X178098809Y-87561361D01*
X178098809Y-87561361D02*
X178098809Y-87466123D01*
X178098809Y-87466123D02*
X178146428Y-87370885D01*
X178146428Y-87370885D02*
X178194047Y-87323266D01*
X178194047Y-87323266D02*
X178289285Y-87275647D01*
X178289285Y-87275647D02*
X178384523Y-87275647D01*
X178384523Y-87275647D02*
X178479761Y-87323266D01*
X178479761Y-87323266D02*
X178527380Y-87370885D01*
X178527380Y-87751837D02*
X178527380Y-87370885D01*
X178527380Y-87370885D02*
X178574999Y-87323266D01*
X178574999Y-87323266D02*
X178622618Y-87323266D01*
X178622618Y-87323266D02*
X178717857Y-87370885D01*
X178717857Y-87370885D02*
X178765476Y-87466123D01*
X178765476Y-87466123D02*
X178765476Y-87704218D01*
X178765476Y-87704218D02*
X178670238Y-87847075D01*
X178670238Y-87847075D02*
X178527380Y-87942313D01*
X178527380Y-87942313D02*
X178336904Y-87989932D01*
X178336904Y-87989932D02*
X178146428Y-87942313D01*
X178146428Y-87942313D02*
X178003571Y-87847075D01*
X178003571Y-87847075D02*
X177908333Y-87704218D01*
X177908333Y-87704218D02*
X177860714Y-87513742D01*
X177860714Y-87513742D02*
X177908333Y-87323266D01*
X177908333Y-87323266D02*
X178003571Y-87180408D01*
X178003571Y-87180408D02*
X178146428Y-87085170D01*
X178146428Y-87085170D02*
X178336904Y-87037551D01*
X178336904Y-87037551D02*
X178527380Y-87085170D01*
X178527380Y-87085170D02*
X178670238Y-87180408D01*
X179051190Y-87847075D02*
X179432142Y-87847075D01*
X179194047Y-87180408D02*
X179194047Y-88037551D01*
X179194047Y-88037551D02*
X179241666Y-88132789D01*
X179241666Y-88132789D02*
X179336904Y-88180408D01*
X179336904Y-88180408D02*
X179432142Y-88180408D01*
X179908333Y-87180408D02*
X179813095Y-87228028D01*
X179813095Y-87228028D02*
X179765476Y-87323266D01*
X179765476Y-87323266D02*
X179765476Y-88180408D01*
X180289286Y-87180408D02*
X180289286Y-87847075D01*
X180289286Y-88180408D02*
X180241667Y-88132789D01*
X180241667Y-88132789D02*
X180289286Y-88085170D01*
X180289286Y-88085170D02*
X180336905Y-88132789D01*
X180336905Y-88132789D02*
X180289286Y-88180408D01*
X180289286Y-88180408D02*
X180289286Y-88085170D01*
X181194047Y-87847075D02*
X181194047Y-87037551D01*
X181194047Y-87037551D02*
X181146428Y-86942313D01*
X181146428Y-86942313D02*
X181098809Y-86894694D01*
X181098809Y-86894694D02*
X181003571Y-86847075D01*
X181003571Y-86847075D02*
X180860714Y-86847075D01*
X180860714Y-86847075D02*
X180765476Y-86894694D01*
X181194047Y-87228028D02*
X181098809Y-87180408D01*
X181098809Y-87180408D02*
X180908333Y-87180408D01*
X180908333Y-87180408D02*
X180813095Y-87228028D01*
X180813095Y-87228028D02*
X180765476Y-87275647D01*
X180765476Y-87275647D02*
X180717857Y-87370885D01*
X180717857Y-87370885D02*
X180717857Y-87656599D01*
X180717857Y-87656599D02*
X180765476Y-87751837D01*
X180765476Y-87751837D02*
X180813095Y-87799456D01*
X180813095Y-87799456D02*
X180908333Y-87847075D01*
X180908333Y-87847075D02*
X181098809Y-87847075D01*
X181098809Y-87847075D02*
X181194047Y-87799456D01*
X181670238Y-87180408D02*
X181670238Y-88180408D01*
X182098809Y-87180408D02*
X182098809Y-87704218D01*
X182098809Y-87704218D02*
X182051190Y-87799456D01*
X182051190Y-87799456D02*
X181955952Y-87847075D01*
X181955952Y-87847075D02*
X181813095Y-87847075D01*
X181813095Y-87847075D02*
X181717857Y-87799456D01*
X181717857Y-87799456D02*
X181670238Y-87751837D01*
X182432143Y-87847075D02*
X182813095Y-87847075D01*
X182575000Y-88180408D02*
X182575000Y-87323266D01*
X182575000Y-87323266D02*
X182622619Y-87228028D01*
X182622619Y-87228028D02*
X182717857Y-87180408D01*
X182717857Y-87180408D02*
X182813095Y-87180408D01*
X183098810Y-87228028D02*
X183194048Y-87180408D01*
X183194048Y-87180408D02*
X183384524Y-87180408D01*
X183384524Y-87180408D02*
X183479762Y-87228028D01*
X183479762Y-87228028D02*
X183527381Y-87323266D01*
X183527381Y-87323266D02*
X183527381Y-87370885D01*
X183527381Y-87370885D02*
X183479762Y-87466123D01*
X183479762Y-87466123D02*
X183384524Y-87513742D01*
X183384524Y-87513742D02*
X183241667Y-87513742D01*
X183241667Y-87513742D02*
X183146429Y-87561361D01*
X183146429Y-87561361D02*
X183098810Y-87656599D01*
X183098810Y-87656599D02*
X183098810Y-87704218D01*
X183098810Y-87704218D02*
X183146429Y-87799456D01*
X183146429Y-87799456D02*
X183241667Y-87847075D01*
X183241667Y-87847075D02*
X183384524Y-87847075D01*
X183384524Y-87847075D02*
X183479762Y-87799456D01*
X184384524Y-87180408D02*
X184384524Y-87704218D01*
X184384524Y-87704218D02*
X184336905Y-87799456D01*
X184336905Y-87799456D02*
X184241667Y-87847075D01*
X184241667Y-87847075D02*
X184051191Y-87847075D01*
X184051191Y-87847075D02*
X183955953Y-87799456D01*
X184384524Y-87228028D02*
X184289286Y-87180408D01*
X184289286Y-87180408D02*
X184051191Y-87180408D01*
X184051191Y-87180408D02*
X183955953Y-87228028D01*
X183955953Y-87228028D02*
X183908334Y-87323266D01*
X183908334Y-87323266D02*
X183908334Y-87418504D01*
X183908334Y-87418504D02*
X183955953Y-87513742D01*
X183955953Y-87513742D02*
X184051191Y-87561361D01*
X184051191Y-87561361D02*
X184289286Y-87561361D01*
X184289286Y-87561361D02*
X184384524Y-87608980D01*
X184717858Y-87847075D02*
X185098810Y-87847075D01*
X184860715Y-87180408D02*
X184860715Y-88037551D01*
X184860715Y-88037551D02*
X184908334Y-88132789D01*
X184908334Y-88132789D02*
X185003572Y-88180408D01*
X185003572Y-88180408D02*
X185098810Y-88180408D01*
X185813096Y-87228028D02*
X185717858Y-87180408D01*
X185717858Y-87180408D02*
X185527382Y-87180408D01*
X185527382Y-87180408D02*
X185432144Y-87228028D01*
X185432144Y-87228028D02*
X185384525Y-87323266D01*
X185384525Y-87323266D02*
X185384525Y-87704218D01*
X185384525Y-87704218D02*
X185432144Y-87799456D01*
X185432144Y-87799456D02*
X185527382Y-87847075D01*
X185527382Y-87847075D02*
X185717858Y-87847075D01*
X185717858Y-87847075D02*
X185813096Y-87799456D01*
X185813096Y-87799456D02*
X185860715Y-87704218D01*
X185860715Y-87704218D02*
X185860715Y-87608980D01*
X185860715Y-87608980D02*
X185384525Y-87513742D01*
X186146430Y-87847075D02*
X186527382Y-87847075D01*
X186289287Y-88180408D02*
X186289287Y-87323266D01*
X186289287Y-87323266D02*
X186336906Y-87228028D01*
X186336906Y-87228028D02*
X186432144Y-87180408D01*
X186432144Y-87180408D02*
X186527382Y-87180408D01*
X186765478Y-87847075D02*
X187003573Y-87180408D01*
X187241668Y-87847075D02*
X187003573Y-87180408D01*
X187003573Y-87180408D02*
X186908335Y-86942313D01*
X186908335Y-86942313D02*
X186860716Y-86894694D01*
X186860716Y-86894694D02*
X186765478Y-86847075D01*
X187622621Y-87275647D02*
X187670240Y-87228028D01*
X187670240Y-87228028D02*
X187622621Y-87180408D01*
X187622621Y-87180408D02*
X187575002Y-87228028D01*
X187575002Y-87228028D02*
X187622621Y-87275647D01*
X187622621Y-87275647D02*
X187622621Y-87180408D01*
X188527382Y-87228028D02*
X188432144Y-87180408D01*
X188432144Y-87180408D02*
X188241668Y-87180408D01*
X188241668Y-87180408D02*
X188146430Y-87228028D01*
X188146430Y-87228028D02*
X188098811Y-87275647D01*
X188098811Y-87275647D02*
X188051192Y-87370885D01*
X188051192Y-87370885D02*
X188051192Y-87656599D01*
X188051192Y-87656599D02*
X188098811Y-87751837D01*
X188098811Y-87751837D02*
X188146430Y-87799456D01*
X188146430Y-87799456D02*
X188241668Y-87847075D01*
X188241668Y-87847075D02*
X188432144Y-87847075D01*
X188432144Y-87847075D02*
X188527382Y-87799456D01*
X189098811Y-87180408D02*
X189003573Y-87228028D01*
X189003573Y-87228028D02*
X188955954Y-87275647D01*
X188955954Y-87275647D02*
X188908335Y-87370885D01*
X188908335Y-87370885D02*
X188908335Y-87656599D01*
X188908335Y-87656599D02*
X188955954Y-87751837D01*
X188955954Y-87751837D02*
X189003573Y-87799456D01*
X189003573Y-87799456D02*
X189098811Y-87847075D01*
X189098811Y-87847075D02*
X189241668Y-87847075D01*
X189241668Y-87847075D02*
X189336906Y-87799456D01*
X189336906Y-87799456D02*
X189384525Y-87751837D01*
X189384525Y-87751837D02*
X189432144Y-87656599D01*
X189432144Y-87656599D02*
X189432144Y-87370885D01*
X189432144Y-87370885D02*
X189384525Y-87275647D01*
X189384525Y-87275647D02*
X189336906Y-87228028D01*
X189336906Y-87228028D02*
X189241668Y-87180408D01*
X189241668Y-87180408D02*
X189098811Y-87180408D01*
X189860716Y-87180408D02*
X189860716Y-87847075D01*
X189860716Y-87751837D02*
X189908335Y-87799456D01*
X189908335Y-87799456D02*
X190003573Y-87847075D01*
X190003573Y-87847075D02*
X190146430Y-87847075D01*
X190146430Y-87847075D02*
X190241668Y-87799456D01*
X190241668Y-87799456D02*
X190289287Y-87704218D01*
X190289287Y-87704218D02*
X190289287Y-87180408D01*
X190289287Y-87704218D02*
X190336906Y-87799456D01*
X190336906Y-87799456D02*
X190432144Y-87847075D01*
X190432144Y-87847075D02*
X190575001Y-87847075D01*
X190575001Y-87847075D02*
X190670240Y-87799456D01*
X190670240Y-87799456D02*
X190717859Y-87704218D01*
X190717859Y-87704218D02*
X190717859Y-87180408D01*
X175074999Y-80835871D02*
X175027380Y-80788252D01*
X175027380Y-80788252D02*
X174884523Y-80740632D01*
X174884523Y-80740632D02*
X174789285Y-80740632D01*
X174789285Y-80740632D02*
X174646428Y-80788252D01*
X174646428Y-80788252D02*
X174551190Y-80883490D01*
X174551190Y-80883490D02*
X174503571Y-80978728D01*
X174503571Y-80978728D02*
X174455952Y-81169204D01*
X174455952Y-81169204D02*
X174455952Y-81312061D01*
X174455952Y-81312061D02*
X174503571Y-81502537D01*
X174503571Y-81502537D02*
X174551190Y-81597775D01*
X174551190Y-81597775D02*
X174646428Y-81693013D01*
X174646428Y-81693013D02*
X174789285Y-81740632D01*
X174789285Y-81740632D02*
X174884523Y-81740632D01*
X174884523Y-81740632D02*
X175027380Y-81693013D01*
X175027380Y-81693013D02*
X175074999Y-81645394D01*
X175503571Y-80740632D02*
X175503571Y-81740632D01*
X175932142Y-80740632D02*
X175932142Y-81264442D01*
X175932142Y-81264442D02*
X175884523Y-81359680D01*
X175884523Y-81359680D02*
X175789285Y-81407299D01*
X175789285Y-81407299D02*
X175646428Y-81407299D01*
X175646428Y-81407299D02*
X175551190Y-81359680D01*
X175551190Y-81359680D02*
X175503571Y-81312061D01*
X176836904Y-81407299D02*
X176836904Y-80740632D01*
X176408333Y-81407299D02*
X176408333Y-80883490D01*
X176408333Y-80883490D02*
X176455952Y-80788252D01*
X176455952Y-80788252D02*
X176551190Y-80740632D01*
X176551190Y-80740632D02*
X176694047Y-80740632D01*
X176694047Y-80740632D02*
X176789285Y-80788252D01*
X176789285Y-80788252D02*
X176836904Y-80835871D01*
X177884523Y-80835871D02*
X177836904Y-80788252D01*
X177836904Y-80788252D02*
X177694047Y-80740632D01*
X177694047Y-80740632D02*
X177598809Y-80740632D01*
X177598809Y-80740632D02*
X177455952Y-80788252D01*
X177455952Y-80788252D02*
X177360714Y-80883490D01*
X177360714Y-80883490D02*
X177313095Y-80978728D01*
X177313095Y-80978728D02*
X177265476Y-81169204D01*
X177265476Y-81169204D02*
X177265476Y-81312061D01*
X177265476Y-81312061D02*
X177313095Y-81502537D01*
X177313095Y-81502537D02*
X177360714Y-81597775D01*
X177360714Y-81597775D02*
X177455952Y-81693013D01*
X177455952Y-81693013D02*
X177598809Y-81740632D01*
X177598809Y-81740632D02*
X177694047Y-81740632D01*
X177694047Y-81740632D02*
X177836904Y-81693013D01*
X177836904Y-81693013D02*
X177884523Y-81645394D01*
X178313095Y-80740632D02*
X178313095Y-81740632D01*
X178741666Y-80740632D02*
X178741666Y-81264442D01*
X178741666Y-81264442D02*
X178694047Y-81359680D01*
X178694047Y-81359680D02*
X178598809Y-81407299D01*
X178598809Y-81407299D02*
X178455952Y-81407299D01*
X178455952Y-81407299D02*
X178360714Y-81359680D01*
X178360714Y-81359680D02*
X178313095Y-81312061D01*
X179646428Y-81407299D02*
X179646428Y-80740632D01*
X179217857Y-81407299D02*
X179217857Y-80883490D01*
X179217857Y-80883490D02*
X179265476Y-80788252D01*
X179265476Y-80788252D02*
X179360714Y-80740632D01*
X179360714Y-80740632D02*
X179503571Y-80740632D01*
X179503571Y-80740632D02*
X179598809Y-80788252D01*
X179598809Y-80788252D02*
X179646428Y-80835871D01*
X162051188Y-79416403D02*
X162527378Y-79416403D01*
X161955950Y-79130688D02*
X162289283Y-80130688D01*
X162289283Y-80130688D02*
X162622616Y-79130688D01*
X163098807Y-79130688D02*
X163003569Y-79178308D01*
X163003569Y-79178308D02*
X162955950Y-79273546D01*
X162955950Y-79273546D02*
X162955950Y-80130688D01*
X163860712Y-79178308D02*
X163765474Y-79130688D01*
X163765474Y-79130688D02*
X163574998Y-79130688D01*
X163574998Y-79130688D02*
X163479760Y-79178308D01*
X163479760Y-79178308D02*
X163432141Y-79273546D01*
X163432141Y-79273546D02*
X163432141Y-79654498D01*
X163432141Y-79654498D02*
X163479760Y-79749736D01*
X163479760Y-79749736D02*
X163574998Y-79797355D01*
X163574998Y-79797355D02*
X163765474Y-79797355D01*
X163765474Y-79797355D02*
X163860712Y-79749736D01*
X163860712Y-79749736D02*
X163908331Y-79654498D01*
X163908331Y-79654498D02*
X163908331Y-79559260D01*
X163908331Y-79559260D02*
X163432141Y-79464022D01*
X164241665Y-79130688D02*
X164765474Y-79797355D01*
X164241665Y-79797355D02*
X164765474Y-79130688D01*
X165098808Y-79178308D02*
X165194046Y-79130688D01*
X165194046Y-79130688D02*
X165384522Y-79130688D01*
X165384522Y-79130688D02*
X165479760Y-79178308D01*
X165479760Y-79178308D02*
X165527379Y-79273546D01*
X165527379Y-79273546D02*
X165527379Y-79321165D01*
X165527379Y-79321165D02*
X165479760Y-79416403D01*
X165479760Y-79416403D02*
X165384522Y-79464022D01*
X165384522Y-79464022D02*
X165241665Y-79464022D01*
X165241665Y-79464022D02*
X165146427Y-79511641D01*
X165146427Y-79511641D02*
X165098808Y-79606879D01*
X165098808Y-79606879D02*
X165098808Y-79654498D01*
X165098808Y-79654498D02*
X165146427Y-79749736D01*
X165146427Y-79749736D02*
X165241665Y-79797355D01*
X165241665Y-79797355D02*
X165384522Y-79797355D01*
X165384522Y-79797355D02*
X165479760Y-79749736D01*
X166384522Y-79130688D02*
X166384522Y-79654498D01*
X166384522Y-79654498D02*
X166336903Y-79749736D01*
X166336903Y-79749736D02*
X166241665Y-79797355D01*
X166241665Y-79797355D02*
X166051189Y-79797355D01*
X166051189Y-79797355D02*
X165955951Y-79749736D01*
X166384522Y-79178308D02*
X166289284Y-79130688D01*
X166289284Y-79130688D02*
X166051189Y-79130688D01*
X166051189Y-79130688D02*
X165955951Y-79178308D01*
X165955951Y-79178308D02*
X165908332Y-79273546D01*
X165908332Y-79273546D02*
X165908332Y-79368784D01*
X165908332Y-79368784D02*
X165955951Y-79464022D01*
X165955951Y-79464022D02*
X166051189Y-79511641D01*
X166051189Y-79511641D02*
X166289284Y-79511641D01*
X166289284Y-79511641D02*
X166384522Y-79559260D01*
X166860713Y-79797355D02*
X166860713Y-79130688D01*
X166860713Y-79702117D02*
X166908332Y-79749736D01*
X166908332Y-79749736D02*
X167003570Y-79797355D01*
X167003570Y-79797355D02*
X167146427Y-79797355D01*
X167146427Y-79797355D02*
X167241665Y-79749736D01*
X167241665Y-79749736D02*
X167289284Y-79654498D01*
X167289284Y-79654498D02*
X167289284Y-79130688D01*
X168194046Y-79130688D02*
X168194046Y-80130688D01*
X168194046Y-79178308D02*
X168098808Y-79130688D01*
X168098808Y-79130688D02*
X167908332Y-79130688D01*
X167908332Y-79130688D02*
X167813094Y-79178308D01*
X167813094Y-79178308D02*
X167765475Y-79225927D01*
X167765475Y-79225927D02*
X167717856Y-79321165D01*
X167717856Y-79321165D02*
X167717856Y-79606879D01*
X167717856Y-79606879D02*
X167765475Y-79702117D01*
X167765475Y-79702117D02*
X167813094Y-79749736D01*
X167813094Y-79749736D02*
X167908332Y-79797355D01*
X167908332Y-79797355D02*
X168098808Y-79797355D01*
X168098808Y-79797355D02*
X168194046Y-79749736D01*
X168670237Y-79130688D02*
X168670237Y-79797355D01*
X168670237Y-79606879D02*
X168717856Y-79702117D01*
X168717856Y-79702117D02*
X168765475Y-79749736D01*
X168765475Y-79749736D02*
X168860713Y-79797355D01*
X168860713Y-79797355D02*
X168955951Y-79797355D01*
X169289285Y-79225927D02*
X169336904Y-79178308D01*
X169336904Y-79178308D02*
X169289285Y-79130688D01*
X169289285Y-79130688D02*
X169241666Y-79178308D01*
X169241666Y-79178308D02*
X169289285Y-79225927D01*
X169289285Y-79225927D02*
X169289285Y-79130688D01*
X170336903Y-79225927D02*
X170289284Y-79178308D01*
X170289284Y-79178308D02*
X170146427Y-79130688D01*
X170146427Y-79130688D02*
X170051189Y-79130688D01*
X170051189Y-79130688D02*
X169908332Y-79178308D01*
X169908332Y-79178308D02*
X169813094Y-79273546D01*
X169813094Y-79273546D02*
X169765475Y-79368784D01*
X169765475Y-79368784D02*
X169717856Y-79559260D01*
X169717856Y-79559260D02*
X169717856Y-79702117D01*
X169717856Y-79702117D02*
X169765475Y-79892593D01*
X169765475Y-79892593D02*
X169813094Y-79987831D01*
X169813094Y-79987831D02*
X169908332Y-80083069D01*
X169908332Y-80083069D02*
X170051189Y-80130688D01*
X170051189Y-80130688D02*
X170146427Y-80130688D01*
X170146427Y-80130688D02*
X170289284Y-80083069D01*
X170289284Y-80083069D02*
X170336903Y-80035450D01*
X170765475Y-79130688D02*
X170765475Y-80130688D01*
X171194046Y-79130688D02*
X171194046Y-79654498D01*
X171194046Y-79654498D02*
X171146427Y-79749736D01*
X171146427Y-79749736D02*
X171051189Y-79797355D01*
X171051189Y-79797355D02*
X170908332Y-79797355D01*
X170908332Y-79797355D02*
X170813094Y-79749736D01*
X170813094Y-79749736D02*
X170765475Y-79702117D01*
X172098808Y-79797355D02*
X172098808Y-79130688D01*
X171670237Y-79797355D02*
X171670237Y-79273546D01*
X171670237Y-79273546D02*
X171717856Y-79178308D01*
X171717856Y-79178308D02*
X171813094Y-79130688D01*
X171813094Y-79130688D02*
X171955951Y-79130688D01*
X171955951Y-79130688D02*
X172051189Y-79178308D01*
X172051189Y-79178308D02*
X172098808Y-79225927D01*
X173003570Y-79178308D02*
X172908332Y-79130688D01*
X172908332Y-79130688D02*
X172717856Y-79130688D01*
X172717856Y-79130688D02*
X172622618Y-79178308D01*
X172622618Y-79178308D02*
X172574999Y-79225927D01*
X172574999Y-79225927D02*
X172527380Y-79321165D01*
X172527380Y-79321165D02*
X172527380Y-79606879D01*
X172527380Y-79606879D02*
X172574999Y-79702117D01*
X172574999Y-79702117D02*
X172622618Y-79749736D01*
X172622618Y-79749736D02*
X172717856Y-79797355D01*
X172717856Y-79797355D02*
X172908332Y-79797355D01*
X172908332Y-79797355D02*
X173003570Y-79749736D01*
X173432142Y-79130688D02*
X173432142Y-80130688D01*
X173860713Y-79130688D02*
X173860713Y-79654498D01*
X173860713Y-79654498D02*
X173813094Y-79749736D01*
X173813094Y-79749736D02*
X173717856Y-79797355D01*
X173717856Y-79797355D02*
X173574999Y-79797355D01*
X173574999Y-79797355D02*
X173479761Y-79749736D01*
X173479761Y-79749736D02*
X173432142Y-79702117D01*
X174765475Y-79797355D02*
X174765475Y-79130688D01*
X174336904Y-79797355D02*
X174336904Y-79273546D01*
X174336904Y-79273546D02*
X174384523Y-79178308D01*
X174384523Y-79178308D02*
X174479761Y-79130688D01*
X174479761Y-79130688D02*
X174622618Y-79130688D01*
X174622618Y-79130688D02*
X174717856Y-79178308D01*
X174717856Y-79178308D02*
X174765475Y-79225927D01*
X175241666Y-79797355D02*
X175241666Y-78797355D01*
X175241666Y-79749736D02*
X175336904Y-79797355D01*
X175336904Y-79797355D02*
X175527380Y-79797355D01*
X175527380Y-79797355D02*
X175622618Y-79749736D01*
X175622618Y-79749736D02*
X175670237Y-79702117D01*
X175670237Y-79702117D02*
X175717856Y-79606879D01*
X175717856Y-79606879D02*
X175717856Y-79321165D01*
X175717856Y-79321165D02*
X175670237Y-79225927D01*
X175670237Y-79225927D02*
X175622618Y-79178308D01*
X175622618Y-79178308D02*
X175527380Y-79130688D01*
X175527380Y-79130688D02*
X175336904Y-79130688D01*
X175336904Y-79130688D02*
X175241666Y-79178308D01*
X176574999Y-79130688D02*
X176574999Y-79654498D01*
X176574999Y-79654498D02*
X176527380Y-79749736D01*
X176527380Y-79749736D02*
X176432142Y-79797355D01*
X176432142Y-79797355D02*
X176241666Y-79797355D01*
X176241666Y-79797355D02*
X176146428Y-79749736D01*
X176574999Y-79178308D02*
X176479761Y-79130688D01*
X176479761Y-79130688D02*
X176241666Y-79130688D01*
X176241666Y-79130688D02*
X176146428Y-79178308D01*
X176146428Y-79178308D02*
X176098809Y-79273546D01*
X176098809Y-79273546D02*
X176098809Y-79368784D01*
X176098809Y-79368784D02*
X176146428Y-79464022D01*
X176146428Y-79464022D02*
X176241666Y-79511641D01*
X176241666Y-79511641D02*
X176479761Y-79511641D01*
X176479761Y-79511641D02*
X176574999Y-79559260D01*
X177194047Y-79130688D02*
X177098809Y-79178308D01*
X177098809Y-79178308D02*
X177051190Y-79273546D01*
X177051190Y-79273546D02*
X177051190Y-80130688D01*
X177717857Y-79130688D02*
X177622619Y-79178308D01*
X177622619Y-79178308D02*
X177575000Y-79225927D01*
X177575000Y-79225927D02*
X177527381Y-79321165D01*
X177527381Y-79321165D02*
X177527381Y-79606879D01*
X177527381Y-79606879D02*
X177575000Y-79702117D01*
X177575000Y-79702117D02*
X177622619Y-79749736D01*
X177622619Y-79749736D02*
X177717857Y-79797355D01*
X177717857Y-79797355D02*
X177860714Y-79797355D01*
X177860714Y-79797355D02*
X177955952Y-79749736D01*
X177955952Y-79749736D02*
X178003571Y-79702117D01*
X178003571Y-79702117D02*
X178051190Y-79606879D01*
X178051190Y-79606879D02*
X178051190Y-79321165D01*
X178051190Y-79321165D02*
X178003571Y-79225927D01*
X178003571Y-79225927D02*
X177955952Y-79178308D01*
X177955952Y-79178308D02*
X177860714Y-79130688D01*
X177860714Y-79130688D02*
X177717857Y-79130688D01*
X178384524Y-79797355D02*
X178622619Y-79130688D01*
X178622619Y-79130688D02*
X178860714Y-79797355D01*
X179860714Y-79606879D02*
X179813095Y-79654498D01*
X179813095Y-79654498D02*
X179717857Y-79702117D01*
X179717857Y-79702117D02*
X179622619Y-79702117D01*
X179622619Y-79702117D02*
X179527381Y-79654498D01*
X179527381Y-79654498D02*
X179479762Y-79606879D01*
X179479762Y-79606879D02*
X179432143Y-79511641D01*
X179432143Y-79511641D02*
X179432143Y-79416403D01*
X179432143Y-79416403D02*
X179479762Y-79321165D01*
X179479762Y-79321165D02*
X179527381Y-79273546D01*
X179527381Y-79273546D02*
X179622619Y-79225927D01*
X179622619Y-79225927D02*
X179717857Y-79225927D01*
X179717857Y-79225927D02*
X179813095Y-79273546D01*
X179813095Y-79273546D02*
X179860714Y-79321165D01*
X179860714Y-79702117D02*
X179860714Y-79321165D01*
X179860714Y-79321165D02*
X179908333Y-79273546D01*
X179908333Y-79273546D02*
X179955952Y-79273546D01*
X179955952Y-79273546D02*
X180051191Y-79321165D01*
X180051191Y-79321165D02*
X180098810Y-79416403D01*
X180098810Y-79416403D02*
X180098810Y-79654498D01*
X180098810Y-79654498D02*
X180003572Y-79797355D01*
X180003572Y-79797355D02*
X179860714Y-79892593D01*
X179860714Y-79892593D02*
X179670238Y-79940212D01*
X179670238Y-79940212D02*
X179479762Y-79892593D01*
X179479762Y-79892593D02*
X179336905Y-79797355D01*
X179336905Y-79797355D02*
X179241667Y-79654498D01*
X179241667Y-79654498D02*
X179194048Y-79464022D01*
X179194048Y-79464022D02*
X179241667Y-79273546D01*
X179241667Y-79273546D02*
X179336905Y-79130688D01*
X179336905Y-79130688D02*
X179479762Y-79035450D01*
X179479762Y-79035450D02*
X179670238Y-78987831D01*
X179670238Y-78987831D02*
X179860714Y-79035450D01*
X179860714Y-79035450D02*
X180003572Y-79130688D01*
X180384524Y-79797355D02*
X180765476Y-79797355D01*
X180527381Y-79130688D02*
X180527381Y-79987831D01*
X180527381Y-79987831D02*
X180575000Y-80083069D01*
X180575000Y-80083069D02*
X180670238Y-80130688D01*
X180670238Y-80130688D02*
X180765476Y-80130688D01*
X181241667Y-79130688D02*
X181146429Y-79178308D01*
X181146429Y-79178308D02*
X181098810Y-79273546D01*
X181098810Y-79273546D02*
X181098810Y-80130688D01*
X181622620Y-79130688D02*
X181622620Y-79797355D01*
X181622620Y-80130688D02*
X181575001Y-80083069D01*
X181575001Y-80083069D02*
X181622620Y-80035450D01*
X181622620Y-80035450D02*
X181670239Y-80083069D01*
X181670239Y-80083069D02*
X181622620Y-80130688D01*
X181622620Y-80130688D02*
X181622620Y-80035450D01*
X182527381Y-79797355D02*
X182527381Y-78987831D01*
X182527381Y-78987831D02*
X182479762Y-78892593D01*
X182479762Y-78892593D02*
X182432143Y-78844974D01*
X182432143Y-78844974D02*
X182336905Y-78797355D01*
X182336905Y-78797355D02*
X182194048Y-78797355D01*
X182194048Y-78797355D02*
X182098810Y-78844974D01*
X182527381Y-79178308D02*
X182432143Y-79130688D01*
X182432143Y-79130688D02*
X182241667Y-79130688D01*
X182241667Y-79130688D02*
X182146429Y-79178308D01*
X182146429Y-79178308D02*
X182098810Y-79225927D01*
X182098810Y-79225927D02*
X182051191Y-79321165D01*
X182051191Y-79321165D02*
X182051191Y-79606879D01*
X182051191Y-79606879D02*
X182098810Y-79702117D01*
X182098810Y-79702117D02*
X182146429Y-79749736D01*
X182146429Y-79749736D02*
X182241667Y-79797355D01*
X182241667Y-79797355D02*
X182432143Y-79797355D01*
X182432143Y-79797355D02*
X182527381Y-79749736D01*
X183003572Y-79130688D02*
X183003572Y-80130688D01*
X183432143Y-79130688D02*
X183432143Y-79654498D01*
X183432143Y-79654498D02*
X183384524Y-79749736D01*
X183384524Y-79749736D02*
X183289286Y-79797355D01*
X183289286Y-79797355D02*
X183146429Y-79797355D01*
X183146429Y-79797355D02*
X183051191Y-79749736D01*
X183051191Y-79749736D02*
X183003572Y-79702117D01*
X183765477Y-79797355D02*
X184146429Y-79797355D01*
X183908334Y-80130688D02*
X183908334Y-79273546D01*
X183908334Y-79273546D02*
X183955953Y-79178308D01*
X183955953Y-79178308D02*
X184051191Y-79130688D01*
X184051191Y-79130688D02*
X184146429Y-79130688D01*
X184432144Y-79178308D02*
X184527382Y-79130688D01*
X184527382Y-79130688D02*
X184717858Y-79130688D01*
X184717858Y-79130688D02*
X184813096Y-79178308D01*
X184813096Y-79178308D02*
X184860715Y-79273546D01*
X184860715Y-79273546D02*
X184860715Y-79321165D01*
X184860715Y-79321165D02*
X184813096Y-79416403D01*
X184813096Y-79416403D02*
X184717858Y-79464022D01*
X184717858Y-79464022D02*
X184575001Y-79464022D01*
X184575001Y-79464022D02*
X184479763Y-79511641D01*
X184479763Y-79511641D02*
X184432144Y-79606879D01*
X184432144Y-79606879D02*
X184432144Y-79654498D01*
X184432144Y-79654498D02*
X184479763Y-79749736D01*
X184479763Y-79749736D02*
X184575001Y-79797355D01*
X184575001Y-79797355D02*
X184717858Y-79797355D01*
X184717858Y-79797355D02*
X184813096Y-79749736D01*
X185717858Y-79130688D02*
X185717858Y-79654498D01*
X185717858Y-79654498D02*
X185670239Y-79749736D01*
X185670239Y-79749736D02*
X185575001Y-79797355D01*
X185575001Y-79797355D02*
X185384525Y-79797355D01*
X185384525Y-79797355D02*
X185289287Y-79749736D01*
X185717858Y-79178308D02*
X185622620Y-79130688D01*
X185622620Y-79130688D02*
X185384525Y-79130688D01*
X185384525Y-79130688D02*
X185289287Y-79178308D01*
X185289287Y-79178308D02*
X185241668Y-79273546D01*
X185241668Y-79273546D02*
X185241668Y-79368784D01*
X185241668Y-79368784D02*
X185289287Y-79464022D01*
X185289287Y-79464022D02*
X185384525Y-79511641D01*
X185384525Y-79511641D02*
X185622620Y-79511641D01*
X185622620Y-79511641D02*
X185717858Y-79559260D01*
X186051192Y-79797355D02*
X186432144Y-79797355D01*
X186194049Y-79130688D02*
X186194049Y-79987831D01*
X186194049Y-79987831D02*
X186241668Y-80083069D01*
X186241668Y-80083069D02*
X186336906Y-80130688D01*
X186336906Y-80130688D02*
X186432144Y-80130688D01*
X187146430Y-79178308D02*
X187051192Y-79130688D01*
X187051192Y-79130688D02*
X186860716Y-79130688D01*
X186860716Y-79130688D02*
X186765478Y-79178308D01*
X186765478Y-79178308D02*
X186717859Y-79273546D01*
X186717859Y-79273546D02*
X186717859Y-79654498D01*
X186717859Y-79654498D02*
X186765478Y-79749736D01*
X186765478Y-79749736D02*
X186860716Y-79797355D01*
X186860716Y-79797355D02*
X187051192Y-79797355D01*
X187051192Y-79797355D02*
X187146430Y-79749736D01*
X187146430Y-79749736D02*
X187194049Y-79654498D01*
X187194049Y-79654498D02*
X187194049Y-79559260D01*
X187194049Y-79559260D02*
X186717859Y-79464022D01*
X187479764Y-79797355D02*
X187860716Y-79797355D01*
X187622621Y-80130688D02*
X187622621Y-79273546D01*
X187622621Y-79273546D02*
X187670240Y-79178308D01*
X187670240Y-79178308D02*
X187765478Y-79130688D01*
X187765478Y-79130688D02*
X187860716Y-79130688D01*
X188098812Y-79797355D02*
X188336907Y-79130688D01*
X188575002Y-79797355D02*
X188336907Y-79130688D01*
X188336907Y-79130688D02*
X188241669Y-78892593D01*
X188241669Y-78892593D02*
X188194050Y-78844974D01*
X188194050Y-78844974D02*
X188098812Y-78797355D01*
X188955955Y-79225927D02*
X189003574Y-79178308D01*
X189003574Y-79178308D02*
X188955955Y-79130688D01*
X188955955Y-79130688D02*
X188908336Y-79178308D01*
X188908336Y-79178308D02*
X188955955Y-79225927D01*
X188955955Y-79225927D02*
X188955955Y-79130688D01*
X189860716Y-79178308D02*
X189765478Y-79130688D01*
X189765478Y-79130688D02*
X189575002Y-79130688D01*
X189575002Y-79130688D02*
X189479764Y-79178308D01*
X189479764Y-79178308D02*
X189432145Y-79225927D01*
X189432145Y-79225927D02*
X189384526Y-79321165D01*
X189384526Y-79321165D02*
X189384526Y-79606879D01*
X189384526Y-79606879D02*
X189432145Y-79702117D01*
X189432145Y-79702117D02*
X189479764Y-79749736D01*
X189479764Y-79749736D02*
X189575002Y-79797355D01*
X189575002Y-79797355D02*
X189765478Y-79797355D01*
X189765478Y-79797355D02*
X189860716Y-79749736D01*
X190432145Y-79130688D02*
X190336907Y-79178308D01*
X190336907Y-79178308D02*
X190289288Y-79225927D01*
X190289288Y-79225927D02*
X190241669Y-79321165D01*
X190241669Y-79321165D02*
X190241669Y-79606879D01*
X190241669Y-79606879D02*
X190289288Y-79702117D01*
X190289288Y-79702117D02*
X190336907Y-79749736D01*
X190336907Y-79749736D02*
X190432145Y-79797355D01*
X190432145Y-79797355D02*
X190575002Y-79797355D01*
X190575002Y-79797355D02*
X190670240Y-79749736D01*
X190670240Y-79749736D02*
X190717859Y-79702117D01*
X190717859Y-79702117D02*
X190765478Y-79606879D01*
X190765478Y-79606879D02*
X190765478Y-79321165D01*
X190765478Y-79321165D02*
X190717859Y-79225927D01*
X190717859Y-79225927D02*
X190670240Y-79178308D01*
X190670240Y-79178308D02*
X190575002Y-79130688D01*
X190575002Y-79130688D02*
X190432145Y-79130688D01*
X191194050Y-79130688D02*
X191194050Y-79797355D01*
X191194050Y-79702117D02*
X191241669Y-79749736D01*
X191241669Y-79749736D02*
X191336907Y-79797355D01*
X191336907Y-79797355D02*
X191479764Y-79797355D01*
X191479764Y-79797355D02*
X191575002Y-79749736D01*
X191575002Y-79749736D02*
X191622621Y-79654498D01*
X191622621Y-79654498D02*
X191622621Y-79130688D01*
X191622621Y-79654498D02*
X191670240Y-79749736D01*
X191670240Y-79749736D02*
X191765478Y-79797355D01*
X191765478Y-79797355D02*
X191908335Y-79797355D01*
X191908335Y-79797355D02*
X192003574Y-79749736D01*
X192003574Y-79749736D02*
X192051193Y-79654498D01*
X192051193Y-79654498D02*
X192051193Y-79130688D01*
D12*
X112365951Y-91200180D02*
X111889761Y-91200180D01*
X111889761Y-91200180D02*
X111889761Y-92200180D01*
X112699285Y-91723990D02*
X113032618Y-91723990D01*
X113175475Y-91200180D02*
X112699285Y-91200180D01*
X112699285Y-91200180D02*
X112699285Y-92200180D01*
X112699285Y-92200180D02*
X113175475Y-92200180D01*
X113604047Y-91200180D02*
X113604047Y-92200180D01*
X113604047Y-92200180D02*
X113842142Y-92200180D01*
X113842142Y-92200180D02*
X113984999Y-92152561D01*
X113984999Y-92152561D02*
X114080237Y-92057323D01*
X114080237Y-92057323D02*
X114127856Y-91962085D01*
X114127856Y-91962085D02*
X114175475Y-91771609D01*
X114175475Y-91771609D02*
X114175475Y-91628752D01*
X114175475Y-91628752D02*
X114127856Y-91438276D01*
X114127856Y-91438276D02*
X114080237Y-91343038D01*
X114080237Y-91343038D02*
X113984999Y-91247800D01*
X113984999Y-91247800D02*
X113842142Y-91200180D01*
X113842142Y-91200180D02*
X113604047Y-91200180D01*
X115127856Y-91200180D02*
X114556428Y-91200180D01*
X114842142Y-91200180D02*
X114842142Y-92200180D01*
X114842142Y-92200180D02*
X114746904Y-92057323D01*
X114746904Y-92057323D02*
X114651666Y-91962085D01*
X114651666Y-91962085D02*
X114556428Y-91914466D01*
X110079819Y-88285000D02*
X110317914Y-88285000D01*
X110222676Y-88046905D02*
X110317914Y-88285000D01*
X110317914Y-88285000D02*
X110222676Y-88523095D01*
X110508390Y-88142143D02*
X110317914Y-88285000D01*
X110317914Y-88285000D02*
X110508390Y-88427857D01*
X110079819Y-88285000D02*
X110317914Y-88285000D01*
X110222676Y-88046905D02*
X110317914Y-88285000D01*
X110317914Y-88285000D02*
X110222676Y-88523095D01*
X110508390Y-88142143D02*
X110317914Y-88285000D01*
X110317914Y-88285000D02*
X110508390Y-88427857D01*
X130673095Y-93780180D02*
X130673095Y-92970657D01*
X130673095Y-92970657D02*
X130720714Y-92875419D01*
X130720714Y-92875419D02*
X130768333Y-92827800D01*
X130768333Y-92827800D02*
X130863571Y-92780180D01*
X130863571Y-92780180D02*
X131054047Y-92780180D01*
X131054047Y-92780180D02*
X131149285Y-92827800D01*
X131149285Y-92827800D02*
X131196904Y-92875419D01*
X131196904Y-92875419D02*
X131244523Y-92970657D01*
X131244523Y-92970657D02*
X131244523Y-93780180D01*
X132149285Y-93780180D02*
X131958809Y-93780180D01*
X131958809Y-93780180D02*
X131863571Y-93732561D01*
X131863571Y-93732561D02*
X131815952Y-93684942D01*
X131815952Y-93684942D02*
X131720714Y-93542085D01*
X131720714Y-93542085D02*
X131673095Y-93351609D01*
X131673095Y-93351609D02*
X131673095Y-92970657D01*
X131673095Y-92970657D02*
X131720714Y-92875419D01*
X131720714Y-92875419D02*
X131768333Y-92827800D01*
X131768333Y-92827800D02*
X131863571Y-92780180D01*
X131863571Y-92780180D02*
X132054047Y-92780180D01*
X132054047Y-92780180D02*
X132149285Y-92827800D01*
X132149285Y-92827800D02*
X132196904Y-92875419D01*
X132196904Y-92875419D02*
X132244523Y-92970657D01*
X132244523Y-92970657D02*
X132244523Y-93208752D01*
X132244523Y-93208752D02*
X132196904Y-93303990D01*
X132196904Y-93303990D02*
X132149285Y-93351609D01*
X132149285Y-93351609D02*
X132054047Y-93399228D01*
X132054047Y-93399228D02*
X131863571Y-93399228D01*
X131863571Y-93399228D02*
X131768333Y-93351609D01*
X131768333Y-93351609D02*
X131720714Y-93303990D01*
X131720714Y-93303990D02*
X131673095Y-93208752D01*
X126507399Y-97033219D02*
X126507399Y-97271314D01*
X126745494Y-97176076D02*
X126507399Y-97271314D01*
X126507399Y-97271314D02*
X126269304Y-97176076D01*
X126650256Y-97461790D02*
X126507399Y-97271314D01*
X126507399Y-97271314D02*
X126364542Y-97461790D01*
X126507400Y-98123580D02*
X126507400Y-97885485D01*
X126269305Y-97980723D02*
X126507400Y-97885485D01*
X126507400Y-97885485D02*
X126745495Y-97980723D01*
X126364543Y-97695009D02*
X126507400Y-97885485D01*
X126507400Y-97885485D02*
X126650257Y-97695009D01*
D13*
X122131119Y-100992142D02*
X121654928Y-100658809D01*
X122131119Y-100420714D02*
X121131119Y-100420714D01*
X121131119Y-100420714D02*
X121131119Y-100801666D01*
X121131119Y-100801666D02*
X121178738Y-100896904D01*
X121178738Y-100896904D02*
X121226357Y-100944523D01*
X121226357Y-100944523D02*
X121321595Y-100992142D01*
X121321595Y-100992142D02*
X121464452Y-100992142D01*
X121464452Y-100992142D02*
X121559690Y-100944523D01*
X121559690Y-100944523D02*
X121607309Y-100896904D01*
X121607309Y-100896904D02*
X121654928Y-100801666D01*
X121654928Y-100801666D02*
X121654928Y-100420714D01*
X122131119Y-101944523D02*
X122131119Y-101373095D01*
X122131119Y-101658809D02*
X121131119Y-101658809D01*
X121131119Y-101658809D02*
X121273976Y-101563571D01*
X121273976Y-101563571D02*
X121369214Y-101468333D01*
X121369214Y-101468333D02*
X121416833Y-101373095D01*
X121131119Y-102849285D02*
X121131119Y-102373095D01*
X121131119Y-102373095D02*
X121607309Y-102325476D01*
X121607309Y-102325476D02*
X121559690Y-102373095D01*
X121559690Y-102373095D02*
X121512071Y-102468333D01*
X121512071Y-102468333D02*
X121512071Y-102706428D01*
X121512071Y-102706428D02*
X121559690Y-102801666D01*
X121559690Y-102801666D02*
X121607309Y-102849285D01*
X121607309Y-102849285D02*
X121702547Y-102896904D01*
X121702547Y-102896904D02*
X121940642Y-102896904D01*
X121940642Y-102896904D02*
X122035880Y-102849285D01*
X122035880Y-102849285D02*
X122083500Y-102801666D01*
X122083500Y-102801666D02*
X122131119Y-102706428D01*
X122131119Y-102706428D02*
X122131119Y-102468333D01*
X122131119Y-102468333D02*
X122083500Y-102373095D01*
X122083500Y-102373095D02*
X122035880Y-102325476D01*
X124396119Y-90367142D02*
X123919928Y-90033809D01*
X124396119Y-89795714D02*
X123396119Y-89795714D01*
X123396119Y-89795714D02*
X123396119Y-90176666D01*
X123396119Y-90176666D02*
X123443738Y-90271904D01*
X123443738Y-90271904D02*
X123491357Y-90319523D01*
X123491357Y-90319523D02*
X123586595Y-90367142D01*
X123586595Y-90367142D02*
X123729452Y-90367142D01*
X123729452Y-90367142D02*
X123824690Y-90319523D01*
X123824690Y-90319523D02*
X123872309Y-90271904D01*
X123872309Y-90271904D02*
X123919928Y-90176666D01*
X123919928Y-90176666D02*
X123919928Y-89795714D01*
X124396119Y-91319523D02*
X124396119Y-90748095D01*
X124396119Y-91033809D02*
X123396119Y-91033809D01*
X123396119Y-91033809D02*
X123538976Y-90938571D01*
X123538976Y-90938571D02*
X123634214Y-90843333D01*
X123634214Y-90843333D02*
X123681833Y-90748095D01*
X123396119Y-92176666D02*
X123396119Y-91986190D01*
X123396119Y-91986190D02*
X123443738Y-91890952D01*
X123443738Y-91890952D02*
X123491357Y-91843333D01*
X123491357Y-91843333D02*
X123634214Y-91748095D01*
X123634214Y-91748095D02*
X123824690Y-91700476D01*
X123824690Y-91700476D02*
X124205642Y-91700476D01*
X124205642Y-91700476D02*
X124300880Y-91748095D01*
X124300880Y-91748095D02*
X124348500Y-91795714D01*
X124348500Y-91795714D02*
X124396119Y-91890952D01*
X124396119Y-91890952D02*
X124396119Y-92081428D01*
X124396119Y-92081428D02*
X124348500Y-92176666D01*
X124348500Y-92176666D02*
X124300880Y-92224285D01*
X124300880Y-92224285D02*
X124205642Y-92271904D01*
X124205642Y-92271904D02*
X123967547Y-92271904D01*
X123967547Y-92271904D02*
X123872309Y-92224285D01*
X123872309Y-92224285D02*
X123824690Y-92176666D01*
X123824690Y-92176666D02*
X123777071Y-92081428D01*
X123777071Y-92081428D02*
X123777071Y-91890952D01*
X123777071Y-91890952D02*
X123824690Y-91795714D01*
X123824690Y-91795714D02*
X123872309Y-91748095D01*
X123872309Y-91748095D02*
X123967547Y-91700476D01*
X117031038Y-97797848D02*
X116554847Y-97464515D01*
X117031038Y-97226420D02*
X116031038Y-97226420D01*
X116031038Y-97226420D02*
X116031038Y-97607372D01*
X116031038Y-97607372D02*
X116078657Y-97702610D01*
X116078657Y-97702610D02*
X116126276Y-97750229D01*
X116126276Y-97750229D02*
X116221514Y-97797848D01*
X116221514Y-97797848D02*
X116364371Y-97797848D01*
X116364371Y-97797848D02*
X116459609Y-97750229D01*
X116459609Y-97750229D02*
X116507228Y-97702610D01*
X116507228Y-97702610D02*
X116554847Y-97607372D01*
X116554847Y-97607372D02*
X116554847Y-97226420D01*
X116031038Y-98131182D02*
X116031038Y-98797848D01*
X116031038Y-98797848D02*
X117031038Y-98369277D01*
D12*
X142002342Y-88180714D02*
X142973771Y-88180714D01*
X142973771Y-88180714D02*
X143088057Y-88237857D01*
X143088057Y-88237857D02*
X143145200Y-88295000D01*
X143145200Y-88295000D02*
X143202342Y-88409285D01*
X143202342Y-88409285D02*
X143202342Y-88637857D01*
X143202342Y-88637857D02*
X143145200Y-88752142D01*
X143145200Y-88752142D02*
X143088057Y-88809285D01*
X143088057Y-88809285D02*
X142973771Y-88866428D01*
X142973771Y-88866428D02*
X142002342Y-88866428D01*
X143202342Y-90066428D02*
X143202342Y-89380714D01*
X143202342Y-89723571D02*
X142002342Y-89723571D01*
X142002342Y-89723571D02*
X142173771Y-89609285D01*
X142173771Y-89609285D02*
X142288057Y-89495000D01*
X142288057Y-89495000D02*
X142345200Y-89380714D01*
D14*
X102059523Y-95433304D02*
X102059523Y-94133304D01*
X102059523Y-94133304D02*
X101749999Y-94133304D01*
X101749999Y-94133304D02*
X101564285Y-94195209D01*
X101564285Y-94195209D02*
X101440475Y-94319019D01*
X101440475Y-94319019D02*
X101378570Y-94442828D01*
X101378570Y-94442828D02*
X101316666Y-94690447D01*
X101316666Y-94690447D02*
X101316666Y-94876161D01*
X101316666Y-94876161D02*
X101378570Y-95123780D01*
X101378570Y-95123780D02*
X101440475Y-95247590D01*
X101440475Y-95247590D02*
X101564285Y-95371400D01*
X101564285Y-95371400D02*
X101749999Y-95433304D01*
X101749999Y-95433304D02*
X102059523Y-95433304D01*
X100078570Y-95433304D02*
X100821427Y-95433304D01*
X100449999Y-95433304D02*
X100449999Y-94133304D01*
X100449999Y-94133304D02*
X100573808Y-94319019D01*
X100573808Y-94319019D02*
X100697618Y-94442828D01*
X100697618Y-94442828D02*
X100821427Y-94504733D01*
D13*
X129383333Y-84669119D02*
X129335714Y-84621500D01*
X129335714Y-84621500D02*
X129192857Y-84573880D01*
X129192857Y-84573880D02*
X129097619Y-84573880D01*
X129097619Y-84573880D02*
X128954762Y-84621500D01*
X128954762Y-84621500D02*
X128859524Y-84716738D01*
X128859524Y-84716738D02*
X128811905Y-84811976D01*
X128811905Y-84811976D02*
X128764286Y-85002452D01*
X128764286Y-85002452D02*
X128764286Y-85145309D01*
X128764286Y-85145309D02*
X128811905Y-85335785D01*
X128811905Y-85335785D02*
X128859524Y-85431023D01*
X128859524Y-85431023D02*
X128954762Y-85526261D01*
X128954762Y-85526261D02*
X129097619Y-85573880D01*
X129097619Y-85573880D02*
X129192857Y-85573880D01*
X129192857Y-85573880D02*
X129335714Y-85526261D01*
X129335714Y-85526261D02*
X129383333Y-85478642D01*
X129716667Y-85573880D02*
X130335714Y-85573880D01*
X130335714Y-85573880D02*
X130002381Y-85192928D01*
X130002381Y-85192928D02*
X130145238Y-85192928D01*
X130145238Y-85192928D02*
X130240476Y-85145309D01*
X130240476Y-85145309D02*
X130288095Y-85097690D01*
X130288095Y-85097690D02*
X130335714Y-85002452D01*
X130335714Y-85002452D02*
X130335714Y-84764357D01*
X130335714Y-84764357D02*
X130288095Y-84669119D01*
X130288095Y-84669119D02*
X130240476Y-84621500D01*
X130240476Y-84621500D02*
X130145238Y-84573880D01*
X130145238Y-84573880D02*
X129859524Y-84573880D01*
X129859524Y-84573880D02*
X129764286Y-84621500D01*
X129764286Y-84621500D02*
X129716667Y-84669119D01*
X124416119Y-95221657D02*
X123939928Y-94888324D01*
X124416119Y-94650229D02*
X123416119Y-94650229D01*
X123416119Y-94650229D02*
X123416119Y-95031181D01*
X123416119Y-95031181D02*
X123463738Y-95126419D01*
X123463738Y-95126419D02*
X123511357Y-95174038D01*
X123511357Y-95174038D02*
X123606595Y-95221657D01*
X123606595Y-95221657D02*
X123749452Y-95221657D01*
X123749452Y-95221657D02*
X123844690Y-95174038D01*
X123844690Y-95174038D02*
X123892309Y-95126419D01*
X123892309Y-95126419D02*
X123939928Y-95031181D01*
X123939928Y-95031181D02*
X123939928Y-94650229D01*
X124416119Y-96174038D02*
X124416119Y-95602610D01*
X124416119Y-95888324D02*
X123416119Y-95888324D01*
X123416119Y-95888324D02*
X123558976Y-95793086D01*
X123558976Y-95793086D02*
X123654214Y-95697848D01*
X123654214Y-95697848D02*
X123701833Y-95602610D01*
X123749452Y-97031181D02*
X124416119Y-97031181D01*
X123368500Y-96793086D02*
X124082785Y-96554991D01*
X124082785Y-96554991D02*
X124082785Y-97174038D01*
X121876119Y-83582142D02*
X121399928Y-83248809D01*
X121876119Y-83010714D02*
X120876119Y-83010714D01*
X120876119Y-83010714D02*
X120876119Y-83391666D01*
X120876119Y-83391666D02*
X120923738Y-83486904D01*
X120923738Y-83486904D02*
X120971357Y-83534523D01*
X120971357Y-83534523D02*
X121066595Y-83582142D01*
X121066595Y-83582142D02*
X121209452Y-83582142D01*
X121209452Y-83582142D02*
X121304690Y-83534523D01*
X121304690Y-83534523D02*
X121352309Y-83486904D01*
X121352309Y-83486904D02*
X121399928Y-83391666D01*
X121399928Y-83391666D02*
X121399928Y-83010714D01*
X121876119Y-84534523D02*
X121876119Y-83963095D01*
X121876119Y-84248809D02*
X120876119Y-84248809D01*
X120876119Y-84248809D02*
X121018976Y-84153571D01*
X121018976Y-84153571D02*
X121114214Y-84058333D01*
X121114214Y-84058333D02*
X121161833Y-83963095D01*
X120876119Y-84867857D02*
X120876119Y-85486904D01*
X120876119Y-85486904D02*
X121257071Y-85153571D01*
X121257071Y-85153571D02*
X121257071Y-85296428D01*
X121257071Y-85296428D02*
X121304690Y-85391666D01*
X121304690Y-85391666D02*
X121352309Y-85439285D01*
X121352309Y-85439285D02*
X121447547Y-85486904D01*
X121447547Y-85486904D02*
X121685642Y-85486904D01*
X121685642Y-85486904D02*
X121780880Y-85439285D01*
X121780880Y-85439285D02*
X121828500Y-85391666D01*
X121828500Y-85391666D02*
X121876119Y-85296428D01*
X121876119Y-85296428D02*
X121876119Y-85010714D01*
X121876119Y-85010714D02*
X121828500Y-84915476D01*
X121828500Y-84915476D02*
X121780880Y-84867857D01*
D15*
%TO.C,J7*%
X100632600Y-81212500D02*
G75*
G02*
X99870600Y-81212500I-381000J0D01*
G01*
X99870600Y-81212500D02*
G75*
G02*
X100632600Y-81212500I381000J0D01*
G01*
D16*
%TO.C,LED1*%
X110856099Y-94283900D02*
X110856099Y-89026100D01*
X112637640Y-89026100D02*
X114332358Y-89026100D01*
X114332358Y-94283900D02*
X112637640Y-94283900D01*
X116113899Y-89026100D02*
X116113899Y-94283900D01*
%TO.C,U6*%
X127752000Y-89463100D02*
X135118000Y-89463100D01*
X127752000Y-90231335D02*
X127752000Y-89463100D01*
X127752000Y-92771335D02*
X127752000Y-91158665D01*
X127752000Y-95311335D02*
X127752000Y-93698665D01*
X127752000Y-97006900D02*
X127752000Y-96238665D01*
X135118000Y-89463100D02*
X135118000Y-90231335D01*
X135118000Y-91158665D02*
X135118000Y-92771335D01*
X135118000Y-93698665D02*
X135118000Y-95311335D01*
X135118000Y-96238665D02*
X135118000Y-97006900D01*
X135118000Y-97006900D02*
X127752000Y-97006900D01*
D17*
%TO.C,R15*%
X122695000Y-101195000D02*
X122695000Y-102375000D01*
X124455000Y-101195000D02*
X124455000Y-102375000D01*
%TO.C,R16*%
X121385000Y-90155000D02*
X120205000Y-90155000D01*
X121385000Y-91915000D02*
X120205000Y-91915000D01*
%TO.C,R7*%
X112895000Y-97015000D02*
X113955000Y-97015000D01*
X112895000Y-98775000D02*
X113955000Y-98775000D01*
%TO.C,U1*%
X141585000Y-74985000D02*
X141585000Y-102885000D01*
X141585000Y-102885000D02*
X195985000Y-102885000D01*
X195985000Y-74985000D02*
X141585000Y-74985000D01*
X195985000Y-102885000D02*
X195985000Y-74985000D01*
D14*
X188695000Y-103535000D02*
G75*
G02*
X188495000Y-103535000I-100000J0D01*
G01*
X188495000Y-103535000D02*
G75*
G02*
X188695000Y-103535000I100000J0D01*
G01*
D16*
%TO.C,D1*%
X98979100Y-92289600D02*
X99662360Y-92289600D01*
X98979100Y-97395000D02*
X98979100Y-92289600D01*
X99662360Y-97395000D02*
X98979100Y-97395000D01*
X102537640Y-92289600D02*
X103220900Y-92289600D01*
X103220900Y-92289600D02*
X103220900Y-97395000D01*
X103220900Y-97395000D02*
X102537640Y-97395000D01*
X101176200Y-91006900D02*
G75*
G02*
X101023800Y-91006900I-76200J0D01*
G01*
X101023800Y-91006900D02*
G75*
G02*
X101176200Y-91006900I76200J0D01*
G01*
D17*
%TO.C,C3*%
X129035000Y-82055000D02*
X130115000Y-82055000D01*
X129035000Y-83855000D02*
X130115000Y-83855000D01*
%TO.C,R14*%
X121385000Y-95035000D02*
X120205000Y-95035000D01*
X121385000Y-96795000D02*
X120205000Y-96795000D01*
%TO.C,R13*%
X122805000Y-84815000D02*
X122805000Y-83635000D01*
X124565000Y-84815000D02*
X124565000Y-83635000D01*
%TD*%
M02*
