%TF.GenerationSoftware,KiCad,Pcbnew,9.0.0*%
%TF.CreationDate,2025-11-28T03:58:55-07:00*%
%TF.ProjectId,ESP-Board,4553502d-426f-4617-9264-2e6b69636164,rev?*%
%TF.SameCoordinates,Original*%
%TF.FileFunction,Soldermask,Top*%
%TF.FilePolarity,Negative*%
%FSLAX46Y46*%
G04 Gerber Fmt 4.6, Leading zero omitted, Abs format (unit mm)*
G04 Created by KiCad (PCBNEW 9.0.0) date 2025-11-28 03:58:55*
%MOMM*%
%LPD*%
G01*
G04 APERTURE LIST*
G04 Aperture macros list*
%AMRoundRect*
0 Rectangle with rounded corners*
0 $1 Rounding radius*
0 $2 $3 $4 $5 $6 $7 $8 $9 X,Y pos of 4 corners*
0 Add a 4 corners polygon primitive as box body*
4,1,4,$2,$3,$4,$5,$6,$7,$8,$9,$2,$3,0*
0 Add four circle primitives for the rounded corners*
1,1,$1+$1,$2,$3*
1,1,$1+$1,$4,$5*
1,1,$1+$1,$6,$7*
1,1,$1+$1,$8,$9*
0 Add four rect primitives between the rounded corners*
20,1,$1+$1,$2,$3,$4,$5,0*
20,1,$1+$1,$4,$5,$6,$7,0*
20,1,$1+$1,$6,$7,$8,$9,0*
20,1,$1+$1,$8,$9,$2,$3,0*%
G04 Aperture macros list end*
%ADD10RoundRect,0.102000X-0.790000X-0.790000X0.790000X-0.790000X0.790000X0.790000X-0.790000X0.790000X0*%
%ADD11C,1.784000*%
%ADD12R,1.524000X1.524000*%
%ADD13C,1.524000*%
%ADD14C,1.900000*%
%ADD15RoundRect,0.102000X-0.825000X0.825000X-0.825000X-0.825000X0.825000X-0.825000X0.825000X0.825000X0*%
%ADD16C,1.854000*%
%ADD17C,1.904000*%
%ADD18C,1.651000*%
%ADD19RoundRect,0.102000X0.780000X-0.780000X0.780000X0.780000X-0.780000X0.780000X-0.780000X-0.780000X0*%
%ADD20C,1.764000*%
G04 APERTURE END LIST*
D10*
%TO.C,S1*%
X174945000Y-92057500D03*
D11*
X174945000Y-84437500D03*
X177485000Y-92057500D03*
X177485000Y-84437500D03*
X180025000Y-92057500D03*
X180025000Y-84437500D03*
%TD*%
D12*
%TO.C,C1*%
X148074919Y-91353665D03*
D13*
X148074919Y-85841865D03*
%TD*%
D12*
%TO.C,C2*%
X160074919Y-91353665D03*
D13*
X160074919Y-85841865D03*
%TD*%
D14*
%TO.C,S2*%
X103350000Y-100771400D03*
X98950000Y-100771400D03*
D15*
X98200000Y-86871400D03*
D16*
X98200000Y-89371400D03*
X104100000Y-86871400D03*
X104100000Y-89371400D03*
%TD*%
D14*
%TO.C,RF1*%
X98250000Y-76530000D03*
X98250000Y-82041800D03*
%TD*%
D17*
%TO.C,PS1*%
X136195000Y-86095000D03*
X133655000Y-86095000D03*
X118415000Y-86095000D03*
X113335000Y-86095000D03*
X113335000Y-101335000D03*
X118415000Y-101335000D03*
X133655000Y-101335000D03*
X136195000Y-101335000D03*
%TD*%
D14*
%TO.C,RF2*%
X107111066Y-97191250D03*
X107136066Y-101941250D03*
%TD*%
D18*
%TO.C,J7*%
X109040000Y-79262500D03*
X111580000Y-79262500D03*
X114120000Y-79262500D03*
X116660000Y-79262500D03*
X119200000Y-79262500D03*
X121740000Y-79262500D03*
X124280000Y-79262500D03*
X126820000Y-79262500D03*
X129360000Y-79262500D03*
X131900000Y-79262500D03*
X109040000Y-76722500D03*
X111580000Y-76722500D03*
X114120000Y-76722500D03*
X116660000Y-76722500D03*
X119200000Y-76722500D03*
X121740000Y-76722500D03*
X124280000Y-76722500D03*
X126820000Y-76722500D03*
X129360000Y-76722500D03*
X131900000Y-76722500D03*
%TD*%
D19*
%TO.C,U1*%
X188595000Y-101635000D03*
D20*
X186055000Y-101635000D03*
X183515000Y-101635000D03*
X180975000Y-101635000D03*
X178435000Y-101635000D03*
X175895000Y-101635000D03*
X173355000Y-101635000D03*
X170815000Y-101635000D03*
X168275000Y-101635000D03*
X165735000Y-101635000D03*
X163195000Y-101635000D03*
X160655000Y-101635000D03*
X158115000Y-101635000D03*
X155575000Y-101635000D03*
X153035000Y-101635000D03*
X150495000Y-101635000D03*
X147955000Y-101635000D03*
X145415000Y-101635000D03*
X142875000Y-101635000D03*
X188595000Y-76235000D03*
X186055000Y-76235000D03*
X183515000Y-76235000D03*
X180975000Y-76235000D03*
X178435000Y-76235000D03*
X175895000Y-76235000D03*
X173355000Y-76235000D03*
X170815000Y-76235000D03*
X168275000Y-76235000D03*
X165735000Y-76235000D03*
X163195000Y-76235000D03*
X160655000Y-76235000D03*
X158115000Y-76235000D03*
X155575000Y-76235000D03*
X153035000Y-76235000D03*
X150495000Y-76235000D03*
X147955000Y-76235000D03*
X145415000Y-76235000D03*
X142875000Y-76235000D03*
%TD*%
M02*
