%TF.GenerationSoftware,KiCad,Pcbnew,9.0.0*%
%TF.CreationDate,2025-11-28T03:58:55-07:00*%
%TF.ProjectId,ESP-Board,4553502d-426f-4617-9264-2e6b69636164,rev?*%
%TF.SameCoordinates,Original*%
%TF.FileFunction,Legend,Top*%
%TF.FilePolarity,Positive*%
%FSLAX46Y46*%
G04 Gerber Fmt 4.6, Leading zero omitted, Abs format (unit mm)*
G04 Created by KiCad (PCBNEW 9.0.0) date 2025-11-28 03:58:55*
%MOMM*%
%LPD*%
G01*
G04 APERTURE LIST*
%ADD10C,0.300000*%
%ADD11C,0.150000*%
%ADD12C,0.187500*%
%ADD13C,0.200000*%
%ADD14C,0.127000*%
%ADD15C,0.152400*%
%ADD16C,0.508000*%
G04 APERTURE END LIST*
D10*
X179534693Y-80913686D02*
X180391836Y-80913686D01*
X179963265Y-80913686D02*
X179963265Y-82413686D01*
X179963265Y-82413686D02*
X180106122Y-82199400D01*
X180106122Y-82199400D02*
X180248979Y-82056543D01*
X180248979Y-82056543D02*
X180391836Y-81985115D01*
X177820408Y-82270829D02*
X177748980Y-82342257D01*
X177748980Y-82342257D02*
X177606123Y-82413686D01*
X177606123Y-82413686D02*
X177248980Y-82413686D01*
X177248980Y-82413686D02*
X177106123Y-82342257D01*
X177106123Y-82342257D02*
X177034694Y-82270829D01*
X177034694Y-82270829D02*
X176963265Y-82127972D01*
X176963265Y-82127972D02*
X176963265Y-81985115D01*
X176963265Y-81985115D02*
X177034694Y-81770829D01*
X177034694Y-81770829D02*
X177891837Y-80913686D01*
X177891837Y-80913686D02*
X176963265Y-80913686D01*
X175320409Y-82413686D02*
X174391837Y-82413686D01*
X174391837Y-82413686D02*
X174891837Y-81842257D01*
X174891837Y-81842257D02*
X174677552Y-81842257D01*
X174677552Y-81842257D02*
X174534695Y-81770829D01*
X174534695Y-81770829D02*
X174463266Y-81699400D01*
X174463266Y-81699400D02*
X174391837Y-81556543D01*
X174391837Y-81556543D02*
X174391837Y-81199400D01*
X174391837Y-81199400D02*
X174463266Y-81056543D01*
X174463266Y-81056543D02*
X174534695Y-80985115D01*
X174534695Y-80985115D02*
X174677552Y-80913686D01*
X174677552Y-80913686D02*
X175106123Y-80913686D01*
X175106123Y-80913686D02*
X175248980Y-80985115D01*
X175248980Y-80985115D02*
X175320409Y-81056543D01*
X185375747Y-95652861D02*
X184661461Y-96152861D01*
X185375747Y-96510004D02*
X183875747Y-96510004D01*
X183875747Y-96510004D02*
X183875747Y-95938575D01*
X183875747Y-95938575D02*
X183947176Y-95795718D01*
X183947176Y-95795718D02*
X184018604Y-95724289D01*
X184018604Y-95724289D02*
X184161461Y-95652861D01*
X184161461Y-95652861D02*
X184375747Y-95652861D01*
X184375747Y-95652861D02*
X184518604Y-95724289D01*
X184518604Y-95724289D02*
X184590033Y-95795718D01*
X184590033Y-95795718D02*
X184661461Y-95938575D01*
X184661461Y-95938575D02*
X184661461Y-96510004D01*
X185375747Y-94795718D02*
X185304319Y-94938575D01*
X185304319Y-94938575D02*
X185232890Y-95010004D01*
X185232890Y-95010004D02*
X185090033Y-95081432D01*
X185090033Y-95081432D02*
X184661461Y-95081432D01*
X184661461Y-95081432D02*
X184518604Y-95010004D01*
X184518604Y-95010004D02*
X184447176Y-94938575D01*
X184447176Y-94938575D02*
X184375747Y-94795718D01*
X184375747Y-94795718D02*
X184375747Y-94581432D01*
X184375747Y-94581432D02*
X184447176Y-94438575D01*
X184447176Y-94438575D02*
X184518604Y-94367147D01*
X184518604Y-94367147D02*
X184661461Y-94295718D01*
X184661461Y-94295718D02*
X185090033Y-94295718D01*
X185090033Y-94295718D02*
X185232890Y-94367147D01*
X185232890Y-94367147D02*
X185304319Y-94438575D01*
X185304319Y-94438575D02*
X185375747Y-94581432D01*
X185375747Y-94581432D02*
X185375747Y-94795718D01*
X185375747Y-93438575D02*
X185304319Y-93581432D01*
X185304319Y-93581432D02*
X185161461Y-93652861D01*
X185161461Y-93652861D02*
X183875747Y-93652861D01*
X185304319Y-92295718D02*
X185375747Y-92438575D01*
X185375747Y-92438575D02*
X185375747Y-92724290D01*
X185375747Y-92724290D02*
X185304319Y-92867147D01*
X185304319Y-92867147D02*
X185161461Y-92938575D01*
X185161461Y-92938575D02*
X184590033Y-92938575D01*
X184590033Y-92938575D02*
X184447176Y-92867147D01*
X184447176Y-92867147D02*
X184375747Y-92724290D01*
X184375747Y-92724290D02*
X184375747Y-92438575D01*
X184375747Y-92438575D02*
X184447176Y-92295718D01*
X184447176Y-92295718D02*
X184590033Y-92224290D01*
X184590033Y-92224290D02*
X184732890Y-92224290D01*
X184732890Y-92224290D02*
X184875747Y-92938575D01*
X185304319Y-90510004D02*
X185375747Y-90295719D01*
X185375747Y-90295719D02*
X185375747Y-89938576D01*
X185375747Y-89938576D02*
X185304319Y-89795719D01*
X185304319Y-89795719D02*
X185232890Y-89724290D01*
X185232890Y-89724290D02*
X185090033Y-89652861D01*
X185090033Y-89652861D02*
X184947176Y-89652861D01*
X184947176Y-89652861D02*
X184804319Y-89724290D01*
X184804319Y-89724290D02*
X184732890Y-89795719D01*
X184732890Y-89795719D02*
X184661461Y-89938576D01*
X184661461Y-89938576D02*
X184590033Y-90224290D01*
X184590033Y-90224290D02*
X184518604Y-90367147D01*
X184518604Y-90367147D02*
X184447176Y-90438576D01*
X184447176Y-90438576D02*
X184304319Y-90510004D01*
X184304319Y-90510004D02*
X184161461Y-90510004D01*
X184161461Y-90510004D02*
X184018604Y-90438576D01*
X184018604Y-90438576D02*
X183947176Y-90367147D01*
X183947176Y-90367147D02*
X183875747Y-90224290D01*
X183875747Y-90224290D02*
X183875747Y-89867147D01*
X183875747Y-89867147D02*
X183947176Y-89652861D01*
X185304319Y-88438576D02*
X185375747Y-88581433D01*
X185375747Y-88581433D02*
X185375747Y-88867148D01*
X185375747Y-88867148D02*
X185304319Y-89010005D01*
X185304319Y-89010005D02*
X185161461Y-89081433D01*
X185161461Y-89081433D02*
X184590033Y-89081433D01*
X184590033Y-89081433D02*
X184447176Y-89010005D01*
X184447176Y-89010005D02*
X184375747Y-88867148D01*
X184375747Y-88867148D02*
X184375747Y-88581433D01*
X184375747Y-88581433D02*
X184447176Y-88438576D01*
X184447176Y-88438576D02*
X184590033Y-88367148D01*
X184590033Y-88367148D02*
X184732890Y-88367148D01*
X184732890Y-88367148D02*
X184875747Y-89081433D01*
X185375747Y-87510005D02*
X185304319Y-87652862D01*
X185304319Y-87652862D02*
X185161461Y-87724291D01*
X185161461Y-87724291D02*
X183875747Y-87724291D01*
X185304319Y-86367148D02*
X185375747Y-86510005D01*
X185375747Y-86510005D02*
X185375747Y-86795720D01*
X185375747Y-86795720D02*
X185304319Y-86938577D01*
X185304319Y-86938577D02*
X185161461Y-87010005D01*
X185161461Y-87010005D02*
X184590033Y-87010005D01*
X184590033Y-87010005D02*
X184447176Y-86938577D01*
X184447176Y-86938577D02*
X184375747Y-86795720D01*
X184375747Y-86795720D02*
X184375747Y-86510005D01*
X184375747Y-86510005D02*
X184447176Y-86367148D01*
X184447176Y-86367148D02*
X184590033Y-86295720D01*
X184590033Y-86295720D02*
X184732890Y-86295720D01*
X184732890Y-86295720D02*
X184875747Y-87010005D01*
X185304319Y-85010006D02*
X185375747Y-85152863D01*
X185375747Y-85152863D02*
X185375747Y-85438577D01*
X185375747Y-85438577D02*
X185304319Y-85581434D01*
X185304319Y-85581434D02*
X185232890Y-85652863D01*
X185232890Y-85652863D02*
X185090033Y-85724291D01*
X185090033Y-85724291D02*
X184661461Y-85724291D01*
X184661461Y-85724291D02*
X184518604Y-85652863D01*
X184518604Y-85652863D02*
X184447176Y-85581434D01*
X184447176Y-85581434D02*
X184375747Y-85438577D01*
X184375747Y-85438577D02*
X184375747Y-85152863D01*
X184375747Y-85152863D02*
X184447176Y-85010006D01*
X184375747Y-84581434D02*
X184375747Y-84010006D01*
X183875747Y-84367149D02*
X185161461Y-84367149D01*
X185161461Y-84367149D02*
X185304319Y-84295720D01*
X185304319Y-84295720D02*
X185375747Y-84152863D01*
X185375747Y-84152863D02*
X185375747Y-84010006D01*
X185375747Y-83510006D02*
X184375747Y-83510006D01*
X183875747Y-83510006D02*
X183947176Y-83581434D01*
X183947176Y-83581434D02*
X184018604Y-83510006D01*
X184018604Y-83510006D02*
X183947176Y-83438577D01*
X183947176Y-83438577D02*
X183875747Y-83510006D01*
X183875747Y-83510006D02*
X184018604Y-83510006D01*
X185375747Y-82581434D02*
X185304319Y-82724291D01*
X185304319Y-82724291D02*
X185232890Y-82795720D01*
X185232890Y-82795720D02*
X185090033Y-82867148D01*
X185090033Y-82867148D02*
X184661461Y-82867148D01*
X184661461Y-82867148D02*
X184518604Y-82795720D01*
X184518604Y-82795720D02*
X184447176Y-82724291D01*
X184447176Y-82724291D02*
X184375747Y-82581434D01*
X184375747Y-82581434D02*
X184375747Y-82367148D01*
X184375747Y-82367148D02*
X184447176Y-82224291D01*
X184447176Y-82224291D02*
X184518604Y-82152863D01*
X184518604Y-82152863D02*
X184661461Y-82081434D01*
X184661461Y-82081434D02*
X185090033Y-82081434D01*
X185090033Y-82081434D02*
X185232890Y-82152863D01*
X185232890Y-82152863D02*
X185304319Y-82224291D01*
X185304319Y-82224291D02*
X185375747Y-82367148D01*
X185375747Y-82367148D02*
X185375747Y-82581434D01*
X184375747Y-81438577D02*
X185375747Y-81438577D01*
X184518604Y-81438577D02*
X184447176Y-81367148D01*
X184447176Y-81367148D02*
X184375747Y-81224291D01*
X184375747Y-81224291D02*
X184375747Y-81010005D01*
X184375747Y-81010005D02*
X184447176Y-80867148D01*
X184447176Y-80867148D02*
X184590033Y-80795720D01*
X184590033Y-80795720D02*
X185375747Y-80795720D01*
D11*
X178058200Y-89314166D02*
X178124866Y-89114166D01*
X178124866Y-89114166D02*
X178124866Y-88780833D01*
X178124866Y-88780833D02*
X178058200Y-88647499D01*
X178058200Y-88647499D02*
X177991533Y-88580833D01*
X177991533Y-88580833D02*
X177858200Y-88514166D01*
X177858200Y-88514166D02*
X177724866Y-88514166D01*
X177724866Y-88514166D02*
X177591533Y-88580833D01*
X177591533Y-88580833D02*
X177524866Y-88647499D01*
X177524866Y-88647499D02*
X177458200Y-88780833D01*
X177458200Y-88780833D02*
X177391533Y-89047499D01*
X177391533Y-89047499D02*
X177324866Y-89180833D01*
X177324866Y-89180833D02*
X177258200Y-89247499D01*
X177258200Y-89247499D02*
X177124866Y-89314166D01*
X177124866Y-89314166D02*
X176991533Y-89314166D01*
X176991533Y-89314166D02*
X176858200Y-89247499D01*
X176858200Y-89247499D02*
X176791533Y-89180833D01*
X176791533Y-89180833D02*
X176724866Y-89047499D01*
X176724866Y-89047499D02*
X176724866Y-88714166D01*
X176724866Y-88714166D02*
X176791533Y-88514166D01*
X178124866Y-87180833D02*
X178124866Y-87980833D01*
X178124866Y-87580833D02*
X176724866Y-87580833D01*
X176724866Y-87580833D02*
X176924866Y-87714166D01*
X176924866Y-87714166D02*
X177058200Y-87847500D01*
X177058200Y-87847500D02*
X177124866Y-87980833D01*
X148618190Y-88847764D02*
X148689619Y-88919192D01*
X148689619Y-88919192D02*
X148761047Y-89133478D01*
X148761047Y-89133478D02*
X148761047Y-89276335D01*
X148761047Y-89276335D02*
X148689619Y-89490621D01*
X148689619Y-89490621D02*
X148546761Y-89633478D01*
X148546761Y-89633478D02*
X148403904Y-89704907D01*
X148403904Y-89704907D02*
X148118190Y-89776335D01*
X148118190Y-89776335D02*
X147903904Y-89776335D01*
X147903904Y-89776335D02*
X147618190Y-89704907D01*
X147618190Y-89704907D02*
X147475333Y-89633478D01*
X147475333Y-89633478D02*
X147332476Y-89490621D01*
X147332476Y-89490621D02*
X147261047Y-89276335D01*
X147261047Y-89276335D02*
X147261047Y-89133478D01*
X147261047Y-89133478D02*
X147332476Y-88919192D01*
X147332476Y-88919192D02*
X147403904Y-88847764D01*
X148761047Y-87419192D02*
X148761047Y-88276335D01*
X148761047Y-87847764D02*
X147261047Y-87847764D01*
X147261047Y-87847764D02*
X147475333Y-87990621D01*
X147475333Y-87990621D02*
X147618190Y-88133478D01*
X147618190Y-88133478D02*
X147689619Y-88276335D01*
X160618190Y-88847764D02*
X160689619Y-88919192D01*
X160689619Y-88919192D02*
X160761047Y-89133478D01*
X160761047Y-89133478D02*
X160761047Y-89276335D01*
X160761047Y-89276335D02*
X160689619Y-89490621D01*
X160689619Y-89490621D02*
X160546761Y-89633478D01*
X160546761Y-89633478D02*
X160403904Y-89704907D01*
X160403904Y-89704907D02*
X160118190Y-89776335D01*
X160118190Y-89776335D02*
X159903904Y-89776335D01*
X159903904Y-89776335D02*
X159618190Y-89704907D01*
X159618190Y-89704907D02*
X159475333Y-89633478D01*
X159475333Y-89633478D02*
X159332476Y-89490621D01*
X159332476Y-89490621D02*
X159261047Y-89276335D01*
X159261047Y-89276335D02*
X159261047Y-89133478D01*
X159261047Y-89133478D02*
X159332476Y-88919192D01*
X159332476Y-88919192D02*
X159403904Y-88847764D01*
X159403904Y-88276335D02*
X159332476Y-88204907D01*
X159332476Y-88204907D02*
X159261047Y-88062050D01*
X159261047Y-88062050D02*
X159261047Y-87704907D01*
X159261047Y-87704907D02*
X159332476Y-87562050D01*
X159332476Y-87562050D02*
X159403904Y-87490621D01*
X159403904Y-87490621D02*
X159546761Y-87419192D01*
X159546761Y-87419192D02*
X159689619Y-87419192D01*
X159689619Y-87419192D02*
X159903904Y-87490621D01*
X159903904Y-87490621D02*
X160761047Y-88347764D01*
X160761047Y-88347764D02*
X160761047Y-87419192D01*
X100438095Y-89428600D02*
X100580952Y-89476219D01*
X100580952Y-89476219D02*
X100819047Y-89476219D01*
X100819047Y-89476219D02*
X100914285Y-89428600D01*
X100914285Y-89428600D02*
X100961904Y-89380980D01*
X100961904Y-89380980D02*
X101009523Y-89285742D01*
X101009523Y-89285742D02*
X101009523Y-89190504D01*
X101009523Y-89190504D02*
X100961904Y-89095266D01*
X100961904Y-89095266D02*
X100914285Y-89047647D01*
X100914285Y-89047647D02*
X100819047Y-89000028D01*
X100819047Y-89000028D02*
X100628571Y-88952409D01*
X100628571Y-88952409D02*
X100533333Y-88904790D01*
X100533333Y-88904790D02*
X100485714Y-88857171D01*
X100485714Y-88857171D02*
X100438095Y-88761933D01*
X100438095Y-88761933D02*
X100438095Y-88666695D01*
X100438095Y-88666695D02*
X100485714Y-88571457D01*
X100485714Y-88571457D02*
X100533333Y-88523838D01*
X100533333Y-88523838D02*
X100628571Y-88476219D01*
X100628571Y-88476219D02*
X100866666Y-88476219D01*
X100866666Y-88476219D02*
X101009523Y-88523838D01*
X101390476Y-88571457D02*
X101438095Y-88523838D01*
X101438095Y-88523838D02*
X101533333Y-88476219D01*
X101533333Y-88476219D02*
X101771428Y-88476219D01*
X101771428Y-88476219D02*
X101866666Y-88523838D01*
X101866666Y-88523838D02*
X101914285Y-88571457D01*
X101914285Y-88571457D02*
X101961904Y-88666695D01*
X101961904Y-88666695D02*
X101961904Y-88761933D01*
X101961904Y-88761933D02*
X101914285Y-88904790D01*
X101914285Y-88904790D02*
X101342857Y-89476219D01*
X101342857Y-89476219D02*
X101961904Y-89476219D01*
D12*
X97964654Y-78953810D02*
X98345607Y-78687143D01*
X97964654Y-78496667D02*
X98764654Y-78496667D01*
X98764654Y-78496667D02*
X98764654Y-78801429D01*
X98764654Y-78801429D02*
X98726559Y-78877619D01*
X98726559Y-78877619D02*
X98688464Y-78915714D01*
X98688464Y-78915714D02*
X98612273Y-78953810D01*
X98612273Y-78953810D02*
X98497988Y-78953810D01*
X98497988Y-78953810D02*
X98421797Y-78915714D01*
X98421797Y-78915714D02*
X98383702Y-78877619D01*
X98383702Y-78877619D02*
X98345607Y-78801429D01*
X98345607Y-78801429D02*
X98345607Y-78496667D01*
X98383702Y-79563333D02*
X98383702Y-79296667D01*
X97964654Y-79296667D02*
X98764654Y-79296667D01*
X98764654Y-79296667D02*
X98764654Y-79677619D01*
X97964654Y-80401428D02*
X97964654Y-79944285D01*
X97964654Y-80172857D02*
X98764654Y-80172857D01*
X98764654Y-80172857D02*
X98650369Y-80096666D01*
X98650369Y-80096666D02*
X98574178Y-80020476D01*
X98574178Y-80020476D02*
X98536083Y-79944285D01*
D11*
X129843571Y-94401128D02*
X129843571Y-92901128D01*
X129843571Y-92901128D02*
X130415000Y-92901128D01*
X130415000Y-92901128D02*
X130557857Y-92972557D01*
X130557857Y-92972557D02*
X130629286Y-93043985D01*
X130629286Y-93043985D02*
X130700714Y-93186842D01*
X130700714Y-93186842D02*
X130700714Y-93401128D01*
X130700714Y-93401128D02*
X130629286Y-93543985D01*
X130629286Y-93543985D02*
X130557857Y-93615414D01*
X130557857Y-93615414D02*
X130415000Y-93686842D01*
X130415000Y-93686842D02*
X129843571Y-93686842D01*
X131272143Y-94329700D02*
X131486429Y-94401128D01*
X131486429Y-94401128D02*
X131843571Y-94401128D01*
X131843571Y-94401128D02*
X131986429Y-94329700D01*
X131986429Y-94329700D02*
X132057857Y-94258271D01*
X132057857Y-94258271D02*
X132129286Y-94115414D01*
X132129286Y-94115414D02*
X132129286Y-93972557D01*
X132129286Y-93972557D02*
X132057857Y-93829700D01*
X132057857Y-93829700D02*
X131986429Y-93758271D01*
X131986429Y-93758271D02*
X131843571Y-93686842D01*
X131843571Y-93686842D02*
X131557857Y-93615414D01*
X131557857Y-93615414D02*
X131415000Y-93543985D01*
X131415000Y-93543985D02*
X131343571Y-93472557D01*
X131343571Y-93472557D02*
X131272143Y-93329700D01*
X131272143Y-93329700D02*
X131272143Y-93186842D01*
X131272143Y-93186842D02*
X131343571Y-93043985D01*
X131343571Y-93043985D02*
X131415000Y-92972557D01*
X131415000Y-92972557D02*
X131557857Y-92901128D01*
X131557857Y-92901128D02*
X131915000Y-92901128D01*
X131915000Y-92901128D02*
X132129286Y-92972557D01*
X133557857Y-94401128D02*
X132700714Y-94401128D01*
X133129285Y-94401128D02*
X133129285Y-92901128D01*
X133129285Y-92901128D02*
X132986428Y-93115414D01*
X132986428Y-93115414D02*
X132843571Y-93258271D01*
X132843571Y-93258271D02*
X132700714Y-93329700D01*
D13*
X106658846Y-93564761D02*
X107135037Y-93231428D01*
X106658846Y-92993333D02*
X107658846Y-92993333D01*
X107658846Y-92993333D02*
X107658846Y-93374285D01*
X107658846Y-93374285D02*
X107611227Y-93469523D01*
X107611227Y-93469523D02*
X107563608Y-93517142D01*
X107563608Y-93517142D02*
X107468370Y-93564761D01*
X107468370Y-93564761D02*
X107325513Y-93564761D01*
X107325513Y-93564761D02*
X107230275Y-93517142D01*
X107230275Y-93517142D02*
X107182656Y-93469523D01*
X107182656Y-93469523D02*
X107135037Y-93374285D01*
X107135037Y-93374285D02*
X107135037Y-92993333D01*
X107182656Y-94326666D02*
X107182656Y-93993333D01*
X106658846Y-93993333D02*
X107658846Y-93993333D01*
X107658846Y-93993333D02*
X107658846Y-94469523D01*
X107563608Y-94802857D02*
X107611227Y-94850476D01*
X107611227Y-94850476D02*
X107658846Y-94945714D01*
X107658846Y-94945714D02*
X107658846Y-95183809D01*
X107658846Y-95183809D02*
X107611227Y-95279047D01*
X107611227Y-95279047D02*
X107563608Y-95326666D01*
X107563608Y-95326666D02*
X107468370Y-95374285D01*
X107468370Y-95374285D02*
X107373132Y-95374285D01*
X107373132Y-95374285D02*
X107230275Y-95326666D01*
X107230275Y-95326666D02*
X106658846Y-94755238D01*
X106658846Y-94755238D02*
X106658846Y-95374285D01*
D11*
X120803333Y-78537680D02*
X120803333Y-77823395D01*
X120803333Y-77823395D02*
X120850952Y-77680538D01*
X120850952Y-77680538D02*
X120946190Y-77585300D01*
X120946190Y-77585300D02*
X121089047Y-77537680D01*
X121089047Y-77537680D02*
X121184285Y-77537680D01*
X120422380Y-78537680D02*
X119755714Y-78537680D01*
X119755714Y-78537680D02*
X120184285Y-77537680D01*
D14*
%TO.C,S1*%
X172965000Y-83297500D02*
X182005000Y-83297500D01*
X172965000Y-93197500D02*
X172965000Y-83297500D01*
X182005000Y-83297500D02*
X182005000Y-93197500D01*
X182005000Y-93197500D02*
X172965000Y-93197500D01*
D13*
X174985000Y-93947500D02*
G75*
G02*
X174785000Y-93947500I-100000J0D01*
G01*
X174785000Y-93947500D02*
G75*
G02*
X174985000Y-93947500I100000J0D01*
G01*
D15*
%TO.C,C1*%
X147439919Y-94490565D02*
X148709919Y-94490565D01*
X148074919Y-95125565D02*
X148074919Y-93855565D01*
X153205719Y-88597765D02*
G75*
G02*
X142944119Y-88597765I-5130800J0D01*
G01*
X142944119Y-88597765D02*
G75*
G02*
X153205719Y-88597765I5130800J0D01*
G01*
%TO.C,C2*%
X159439919Y-94490565D02*
X160709919Y-94490565D01*
X160074919Y-95125565D02*
X160074919Y-93855565D01*
X165205719Y-88597765D02*
G75*
G02*
X154944119Y-88597765I-5130800J0D01*
G01*
X154944119Y-88597765D02*
G75*
G02*
X165205719Y-88597765I5130800J0D01*
G01*
D14*
%TO.C,S2*%
X96750000Y-107261400D02*
X98900000Y-107261400D01*
X96750000Y-117761400D02*
X96750000Y-107261400D01*
X97450000Y-91561400D02*
X97450000Y-102561400D01*
X97450000Y-102561400D02*
X98350000Y-102561400D01*
X98350000Y-102561400D02*
X103950000Y-102561400D01*
X98350000Y-104561400D02*
X98350000Y-102561400D01*
X98900000Y-104561400D02*
X98350000Y-104561400D01*
X98900000Y-107261400D02*
X98900000Y-104561400D01*
X103400000Y-104561400D02*
X98900000Y-104561400D01*
X103400000Y-104561400D02*
X103400000Y-107261400D01*
X103400000Y-107261400D02*
X98900000Y-107261400D01*
X103400000Y-107261400D02*
X105550000Y-107261400D01*
X103950000Y-102561400D02*
X103950000Y-104561400D01*
X103950000Y-102561400D02*
X104850000Y-102561400D01*
X103950000Y-104561400D02*
X103400000Y-104561400D01*
X104850000Y-91561400D02*
X97450000Y-91561400D01*
X104850000Y-102561400D02*
X104850000Y-91561400D01*
X105550000Y-107261400D02*
X105550000Y-117761400D01*
X105550000Y-117761400D02*
X96750000Y-117761400D01*
D13*
X98297000Y-85041400D02*
G75*
G02*
X98097000Y-85041400I-100000J0D01*
G01*
X98097000Y-85041400D02*
G75*
G02*
X98297000Y-85041400I100000J0D01*
G01*
%TO.C,RF1*%
D15*
X99500000Y-74530000D02*
X97000000Y-74530000D01*
X97000000Y-84530000D01*
X99500000Y-84530000D01*
X99500000Y-74530000D01*
D14*
%TO.C,PS1*%
X108995000Y-83565000D02*
X140795000Y-83565000D01*
X108995000Y-103865000D02*
X108995000Y-83565000D01*
X140795000Y-83565000D02*
X140795000Y-103865000D01*
X140795000Y-103865000D02*
X108995000Y-103865000D01*
D13*
X141505000Y-86095000D02*
G75*
G02*
X141305000Y-86095000I-100000J0D01*
G01*
X141305000Y-86095000D02*
G75*
G02*
X141505000Y-86095000I100000J0D01*
G01*
%TO.C,RF2*%
D15*
X108361066Y-95791250D02*
X105861066Y-95791250D01*
X105861066Y-103291250D01*
X108361066Y-103291250D01*
X108361066Y-95791250D01*
%TO.C,J7*%
X100886600Y-73788800D02*
X100886600Y-82145400D01*
X100886600Y-82145400D02*
X140053400Y-82145400D01*
X140053400Y-73788800D02*
X100886600Y-73788800D01*
X140053400Y-82145400D02*
X140053400Y-73788800D01*
D16*
X100632600Y-81212500D02*
G75*
G02*
X99870600Y-81212500I-381000J0D01*
G01*
X99870600Y-81212500D02*
G75*
G02*
X100632600Y-81212500I381000J0D01*
G01*
%TD*%
M02*
