%TF.GenerationSoftware,KiCad,Pcbnew,9.0.0*%
%TF.CreationDate,2025-11-28T03:58:01-07:00*%
%TF.ProjectId,signal-board,7369676e-616c-42d6-926f-6172642e6b69,rev?*%
%TF.SameCoordinates,Original*%
%TF.FileFunction,Legend,Bot*%
%TF.FilePolarity,Positive*%
%FSLAX46Y46*%
G04 Gerber Fmt 4.6, Leading zero omitted, Abs format (unit mm)*
G04 Created by KiCad (PCBNEW 9.0.0) date 2025-11-28 03:58:01*
%MOMM*%
%LPD*%
G01*
G04 APERTURE LIST*
%ADD10C,0.200000*%
%ADD11C,0.150000*%
%ADD12C,0.160000*%
%ADD13C,0.127000*%
%ADD14C,0.152400*%
%ADD15C,0.508000*%
G04 APERTURE END LIST*
D10*
X187546666Y-80692219D02*
X187879999Y-80216028D01*
X188118094Y-80692219D02*
X188118094Y-79692219D01*
X188118094Y-79692219D02*
X187737142Y-79692219D01*
X187737142Y-79692219D02*
X187641904Y-79739838D01*
X187641904Y-79739838D02*
X187594285Y-79787457D01*
X187594285Y-79787457D02*
X187546666Y-79882695D01*
X187546666Y-79882695D02*
X187546666Y-80025552D01*
X187546666Y-80025552D02*
X187594285Y-80120790D01*
X187594285Y-80120790D02*
X187641904Y-80168409D01*
X187641904Y-80168409D02*
X187737142Y-80216028D01*
X187737142Y-80216028D02*
X188118094Y-80216028D01*
X186641904Y-79692219D02*
X187118094Y-79692219D01*
X187118094Y-79692219D02*
X187165713Y-80168409D01*
X187165713Y-80168409D02*
X187118094Y-80120790D01*
X187118094Y-80120790D02*
X187022856Y-80073171D01*
X187022856Y-80073171D02*
X186784761Y-80073171D01*
X186784761Y-80073171D02*
X186689523Y-80120790D01*
X186689523Y-80120790D02*
X186641904Y-80168409D01*
X186641904Y-80168409D02*
X186594285Y-80263647D01*
X186594285Y-80263647D02*
X186594285Y-80501742D01*
X186594285Y-80501742D02*
X186641904Y-80596980D01*
X186641904Y-80596980D02*
X186689523Y-80644600D01*
X186689523Y-80644600D02*
X186784761Y-80692219D01*
X186784761Y-80692219D02*
X187022856Y-80692219D01*
X187022856Y-80692219D02*
X187118094Y-80644600D01*
X187118094Y-80644600D02*
X187165713Y-80596980D01*
X176126666Y-77292219D02*
X176459999Y-76816028D01*
X176698094Y-77292219D02*
X176698094Y-76292219D01*
X176698094Y-76292219D02*
X176317142Y-76292219D01*
X176317142Y-76292219D02*
X176221904Y-76339838D01*
X176221904Y-76339838D02*
X176174285Y-76387457D01*
X176174285Y-76387457D02*
X176126666Y-76482695D01*
X176126666Y-76482695D02*
X176126666Y-76625552D01*
X176126666Y-76625552D02*
X176174285Y-76720790D01*
X176174285Y-76720790D02*
X176221904Y-76768409D01*
X176221904Y-76768409D02*
X176317142Y-76816028D01*
X176317142Y-76816028D02*
X176698094Y-76816028D01*
X175269523Y-76292219D02*
X175459999Y-76292219D01*
X175459999Y-76292219D02*
X175555237Y-76339838D01*
X175555237Y-76339838D02*
X175602856Y-76387457D01*
X175602856Y-76387457D02*
X175698094Y-76530314D01*
X175698094Y-76530314D02*
X175745713Y-76720790D01*
X175745713Y-76720790D02*
X175745713Y-77101742D01*
X175745713Y-77101742D02*
X175698094Y-77196980D01*
X175698094Y-77196980D02*
X175650475Y-77244600D01*
X175650475Y-77244600D02*
X175555237Y-77292219D01*
X175555237Y-77292219D02*
X175364761Y-77292219D01*
X175364761Y-77292219D02*
X175269523Y-77244600D01*
X175269523Y-77244600D02*
X175221904Y-77196980D01*
X175221904Y-77196980D02*
X175174285Y-77101742D01*
X175174285Y-77101742D02*
X175174285Y-76863647D01*
X175174285Y-76863647D02*
X175221904Y-76768409D01*
X175221904Y-76768409D02*
X175269523Y-76720790D01*
X175269523Y-76720790D02*
X175364761Y-76673171D01*
X175364761Y-76673171D02*
X175555237Y-76673171D01*
X175555237Y-76673171D02*
X175650475Y-76720790D01*
X175650475Y-76720790D02*
X175698094Y-76768409D01*
X175698094Y-76768409D02*
X175745713Y-76863647D01*
X192916666Y-84521004D02*
X193349999Y-83901957D01*
X193659523Y-84521004D02*
X193659523Y-83221004D01*
X193659523Y-83221004D02*
X193164285Y-83221004D01*
X193164285Y-83221004D02*
X193040475Y-83282909D01*
X193040475Y-83282909D02*
X192978570Y-83344814D01*
X192978570Y-83344814D02*
X192916666Y-83468623D01*
X192916666Y-83468623D02*
X192916666Y-83654338D01*
X192916666Y-83654338D02*
X192978570Y-83778147D01*
X192978570Y-83778147D02*
X193040475Y-83840052D01*
X193040475Y-83840052D02*
X193164285Y-83901957D01*
X193164285Y-83901957D02*
X193659523Y-83901957D01*
X191802380Y-83654338D02*
X191802380Y-84521004D01*
X192111904Y-83159100D02*
X192421427Y-84087671D01*
X192421427Y-84087671D02*
X191616666Y-84087671D01*
X192776666Y-98371004D02*
X193209999Y-97751957D01*
X193519523Y-98371004D02*
X193519523Y-97071004D01*
X193519523Y-97071004D02*
X193024285Y-97071004D01*
X193024285Y-97071004D02*
X192900475Y-97132909D01*
X192900475Y-97132909D02*
X192838570Y-97194814D01*
X192838570Y-97194814D02*
X192776666Y-97318623D01*
X192776666Y-97318623D02*
X192776666Y-97504338D01*
X192776666Y-97504338D02*
X192838570Y-97628147D01*
X192838570Y-97628147D02*
X192900475Y-97690052D01*
X192900475Y-97690052D02*
X193024285Y-97751957D01*
X193024285Y-97751957D02*
X193519523Y-97751957D01*
X191538570Y-98371004D02*
X192281427Y-98371004D01*
X191909999Y-98371004D02*
X191909999Y-97071004D01*
X191909999Y-97071004D02*
X192033808Y-97256719D01*
X192033808Y-97256719D02*
X192157618Y-97380528D01*
X192157618Y-97380528D02*
X192281427Y-97442433D01*
X192776666Y-93871004D02*
X193209999Y-93251957D01*
X193519523Y-93871004D02*
X193519523Y-92571004D01*
X193519523Y-92571004D02*
X193024285Y-92571004D01*
X193024285Y-92571004D02*
X192900475Y-92632909D01*
X192900475Y-92632909D02*
X192838570Y-92694814D01*
X192838570Y-92694814D02*
X192776666Y-92818623D01*
X192776666Y-92818623D02*
X192776666Y-93004338D01*
X192776666Y-93004338D02*
X192838570Y-93128147D01*
X192838570Y-93128147D02*
X192900475Y-93190052D01*
X192900475Y-93190052D02*
X193024285Y-93251957D01*
X193024285Y-93251957D02*
X193519523Y-93251957D01*
X192281427Y-92694814D02*
X192219523Y-92632909D01*
X192219523Y-92632909D02*
X192095713Y-92571004D01*
X192095713Y-92571004D02*
X191786189Y-92571004D01*
X191786189Y-92571004D02*
X191662380Y-92632909D01*
X191662380Y-92632909D02*
X191600475Y-92694814D01*
X191600475Y-92694814D02*
X191538570Y-92818623D01*
X191538570Y-92818623D02*
X191538570Y-92942433D01*
X191538570Y-92942433D02*
X191600475Y-93128147D01*
X191600475Y-93128147D02*
X192343332Y-93871004D01*
X192343332Y-93871004D02*
X191538570Y-93871004D01*
X192916666Y-88771004D02*
X193349999Y-88151957D01*
X193659523Y-88771004D02*
X193659523Y-87471004D01*
X193659523Y-87471004D02*
X193164285Y-87471004D01*
X193164285Y-87471004D02*
X193040475Y-87532909D01*
X193040475Y-87532909D02*
X192978570Y-87594814D01*
X192978570Y-87594814D02*
X192916666Y-87718623D01*
X192916666Y-87718623D02*
X192916666Y-87904338D01*
X192916666Y-87904338D02*
X192978570Y-88028147D01*
X192978570Y-88028147D02*
X193040475Y-88090052D01*
X193040475Y-88090052D02*
X193164285Y-88151957D01*
X193164285Y-88151957D02*
X193659523Y-88151957D01*
X192483332Y-87471004D02*
X191678570Y-87471004D01*
X191678570Y-87471004D02*
X192111904Y-87966242D01*
X192111904Y-87966242D02*
X191926189Y-87966242D01*
X191926189Y-87966242D02*
X191802380Y-88028147D01*
X191802380Y-88028147D02*
X191740475Y-88090052D01*
X191740475Y-88090052D02*
X191678570Y-88213861D01*
X191678570Y-88213861D02*
X191678570Y-88523385D01*
X191678570Y-88523385D02*
X191740475Y-88647195D01*
X191740475Y-88647195D02*
X191802380Y-88709100D01*
X191802380Y-88709100D02*
X191926189Y-88771004D01*
X191926189Y-88771004D02*
X192297618Y-88771004D01*
X192297618Y-88771004D02*
X192421427Y-88709100D01*
X192421427Y-88709100D02*
X192483332Y-88647195D01*
X117622857Y-100032219D02*
X117956190Y-99556028D01*
X118194285Y-100032219D02*
X118194285Y-99032219D01*
X118194285Y-99032219D02*
X117813333Y-99032219D01*
X117813333Y-99032219D02*
X117718095Y-99079838D01*
X117718095Y-99079838D02*
X117670476Y-99127457D01*
X117670476Y-99127457D02*
X117622857Y-99222695D01*
X117622857Y-99222695D02*
X117622857Y-99365552D01*
X117622857Y-99365552D02*
X117670476Y-99460790D01*
X117670476Y-99460790D02*
X117718095Y-99508409D01*
X117718095Y-99508409D02*
X117813333Y-99556028D01*
X117813333Y-99556028D02*
X118194285Y-99556028D01*
X116670476Y-100032219D02*
X117241904Y-100032219D01*
X116956190Y-100032219D02*
X116956190Y-99032219D01*
X116956190Y-99032219D02*
X117051428Y-99175076D01*
X117051428Y-99175076D02*
X117146666Y-99270314D01*
X117146666Y-99270314D02*
X117241904Y-99317933D01*
X116099047Y-99460790D02*
X116194285Y-99413171D01*
X116194285Y-99413171D02*
X116241904Y-99365552D01*
X116241904Y-99365552D02*
X116289523Y-99270314D01*
X116289523Y-99270314D02*
X116289523Y-99222695D01*
X116289523Y-99222695D02*
X116241904Y-99127457D01*
X116241904Y-99127457D02*
X116194285Y-99079838D01*
X116194285Y-99079838D02*
X116099047Y-99032219D01*
X116099047Y-99032219D02*
X115908571Y-99032219D01*
X115908571Y-99032219D02*
X115813333Y-99079838D01*
X115813333Y-99079838D02*
X115765714Y-99127457D01*
X115765714Y-99127457D02*
X115718095Y-99222695D01*
X115718095Y-99222695D02*
X115718095Y-99270314D01*
X115718095Y-99270314D02*
X115765714Y-99365552D01*
X115765714Y-99365552D02*
X115813333Y-99413171D01*
X115813333Y-99413171D02*
X115908571Y-99460790D01*
X115908571Y-99460790D02*
X116099047Y-99460790D01*
X116099047Y-99460790D02*
X116194285Y-99508409D01*
X116194285Y-99508409D02*
X116241904Y-99556028D01*
X116241904Y-99556028D02*
X116289523Y-99651266D01*
X116289523Y-99651266D02*
X116289523Y-99841742D01*
X116289523Y-99841742D02*
X116241904Y-99936980D01*
X116241904Y-99936980D02*
X116194285Y-99984600D01*
X116194285Y-99984600D02*
X116099047Y-100032219D01*
X116099047Y-100032219D02*
X115908571Y-100032219D01*
X115908571Y-100032219D02*
X115813333Y-99984600D01*
X115813333Y-99984600D02*
X115765714Y-99936980D01*
X115765714Y-99936980D02*
X115718095Y-99841742D01*
X115718095Y-99841742D02*
X115718095Y-99651266D01*
X115718095Y-99651266D02*
X115765714Y-99556028D01*
X115765714Y-99556028D02*
X115813333Y-99508409D01*
X115813333Y-99508409D02*
X115908571Y-99460790D01*
D11*
X160271904Y-80884819D02*
X160271904Y-81694342D01*
X160271904Y-81694342D02*
X160224285Y-81789580D01*
X160224285Y-81789580D02*
X160176666Y-81837200D01*
X160176666Y-81837200D02*
X160081428Y-81884819D01*
X160081428Y-81884819D02*
X159890952Y-81884819D01*
X159890952Y-81884819D02*
X159795714Y-81837200D01*
X159795714Y-81837200D02*
X159748095Y-81789580D01*
X159748095Y-81789580D02*
X159700476Y-81694342D01*
X159700476Y-81694342D02*
X159700476Y-80884819D01*
X158795714Y-81218152D02*
X158795714Y-81884819D01*
X159033809Y-80837200D02*
X159271904Y-81551485D01*
X159271904Y-81551485D02*
X158652857Y-81551485D01*
X147541904Y-86164819D02*
X147541904Y-86974342D01*
X147541904Y-86974342D02*
X147494285Y-87069580D01*
X147494285Y-87069580D02*
X147446666Y-87117200D01*
X147446666Y-87117200D02*
X147351428Y-87164819D01*
X147351428Y-87164819D02*
X147160952Y-87164819D01*
X147160952Y-87164819D02*
X147065714Y-87117200D01*
X147065714Y-87117200D02*
X147018095Y-87069580D01*
X147018095Y-87069580D02*
X146970476Y-86974342D01*
X146970476Y-86974342D02*
X146970476Y-86164819D01*
X146018095Y-86164819D02*
X146494285Y-86164819D01*
X146494285Y-86164819D02*
X146541904Y-86641009D01*
X146541904Y-86641009D02*
X146494285Y-86593390D01*
X146494285Y-86593390D02*
X146399047Y-86545771D01*
X146399047Y-86545771D02*
X146160952Y-86545771D01*
X146160952Y-86545771D02*
X146065714Y-86593390D01*
X146065714Y-86593390D02*
X146018095Y-86641009D01*
X146018095Y-86641009D02*
X145970476Y-86736247D01*
X145970476Y-86736247D02*
X145970476Y-86974342D01*
X145970476Y-86974342D02*
X146018095Y-87069580D01*
X146018095Y-87069580D02*
X146065714Y-87117200D01*
X146065714Y-87117200D02*
X146160952Y-87164819D01*
X146160952Y-87164819D02*
X146399047Y-87164819D01*
X146399047Y-87164819D02*
X146494285Y-87117200D01*
X146494285Y-87117200D02*
X146541904Y-87069580D01*
X141574998Y-88794419D02*
X141574998Y-89032514D01*
X141813093Y-88937276D02*
X141574998Y-89032514D01*
X141574998Y-89032514D02*
X141336903Y-88937276D01*
X141717855Y-89222990D02*
X141574998Y-89032514D01*
X141574998Y-89032514D02*
X141432141Y-89222990D01*
X141574999Y-89884780D02*
X141574999Y-89646685D01*
X141336904Y-89741923D02*
X141574999Y-89646685D01*
X141574999Y-89646685D02*
X141813094Y-89741923D01*
X141432142Y-89456209D02*
X141574999Y-89646685D01*
X141574999Y-89646685D02*
X141717856Y-89456209D01*
D10*
X122062857Y-100032219D02*
X122396190Y-99556028D01*
X122634285Y-100032219D02*
X122634285Y-99032219D01*
X122634285Y-99032219D02*
X122253333Y-99032219D01*
X122253333Y-99032219D02*
X122158095Y-99079838D01*
X122158095Y-99079838D02*
X122110476Y-99127457D01*
X122110476Y-99127457D02*
X122062857Y-99222695D01*
X122062857Y-99222695D02*
X122062857Y-99365552D01*
X122062857Y-99365552D02*
X122110476Y-99460790D01*
X122110476Y-99460790D02*
X122158095Y-99508409D01*
X122158095Y-99508409D02*
X122253333Y-99556028D01*
X122253333Y-99556028D02*
X122634285Y-99556028D01*
X121110476Y-100032219D02*
X121681904Y-100032219D01*
X121396190Y-100032219D02*
X121396190Y-99032219D01*
X121396190Y-99032219D02*
X121491428Y-99175076D01*
X121491428Y-99175076D02*
X121586666Y-99270314D01*
X121586666Y-99270314D02*
X121681904Y-99317933D01*
X120777142Y-99032219D02*
X120110476Y-99032219D01*
X120110476Y-99032219D02*
X120539047Y-100032219D01*
X161422857Y-88858219D02*
X161756190Y-88382028D01*
X161994285Y-88858219D02*
X161994285Y-87858219D01*
X161994285Y-87858219D02*
X161613333Y-87858219D01*
X161613333Y-87858219D02*
X161518095Y-87905838D01*
X161518095Y-87905838D02*
X161470476Y-87953457D01*
X161470476Y-87953457D02*
X161422857Y-88048695D01*
X161422857Y-88048695D02*
X161422857Y-88191552D01*
X161422857Y-88191552D02*
X161470476Y-88286790D01*
X161470476Y-88286790D02*
X161518095Y-88334409D01*
X161518095Y-88334409D02*
X161613333Y-88382028D01*
X161613333Y-88382028D02*
X161994285Y-88382028D01*
X160470476Y-88858219D02*
X161041904Y-88858219D01*
X160756190Y-88858219D02*
X160756190Y-87858219D01*
X160756190Y-87858219D02*
X160851428Y-88001076D01*
X160851428Y-88001076D02*
X160946666Y-88096314D01*
X160946666Y-88096314D02*
X161041904Y-88143933D01*
X160089523Y-87953457D02*
X160041904Y-87905838D01*
X160041904Y-87905838D02*
X159946666Y-87858219D01*
X159946666Y-87858219D02*
X159708571Y-87858219D01*
X159708571Y-87858219D02*
X159613333Y-87905838D01*
X159613333Y-87905838D02*
X159565714Y-87953457D01*
X159565714Y-87953457D02*
X159518095Y-88048695D01*
X159518095Y-88048695D02*
X159518095Y-88143933D01*
X159518095Y-88143933D02*
X159565714Y-88286790D01*
X159565714Y-88286790D02*
X160137142Y-88858219D01*
X160137142Y-88858219D02*
X159518095Y-88858219D01*
D12*
X135172857Y-84294299D02*
X135506190Y-83818108D01*
X135744285Y-84294299D02*
X135744285Y-83294299D01*
X135744285Y-83294299D02*
X135363333Y-83294299D01*
X135363333Y-83294299D02*
X135268095Y-83341918D01*
X135268095Y-83341918D02*
X135220476Y-83389537D01*
X135220476Y-83389537D02*
X135172857Y-83484775D01*
X135172857Y-83484775D02*
X135172857Y-83627632D01*
X135172857Y-83627632D02*
X135220476Y-83722870D01*
X135220476Y-83722870D02*
X135268095Y-83770489D01*
X135268095Y-83770489D02*
X135363333Y-83818108D01*
X135363333Y-83818108D02*
X135744285Y-83818108D01*
X134220476Y-84294299D02*
X134791904Y-84294299D01*
X134506190Y-84294299D02*
X134506190Y-83294299D01*
X134506190Y-83294299D02*
X134601428Y-83437156D01*
X134601428Y-83437156D02*
X134696666Y-83532394D01*
X134696666Y-83532394D02*
X134791904Y-83580013D01*
X133744285Y-84294299D02*
X133553809Y-84294299D01*
X133553809Y-84294299D02*
X133458571Y-84246680D01*
X133458571Y-84246680D02*
X133410952Y-84199060D01*
X133410952Y-84199060D02*
X133315714Y-84056203D01*
X133315714Y-84056203D02*
X133268095Y-83865727D01*
X133268095Y-83865727D02*
X133268095Y-83484775D01*
X133268095Y-83484775D02*
X133315714Y-83389537D01*
X133315714Y-83389537D02*
X133363333Y-83341918D01*
X133363333Y-83341918D02*
X133458571Y-83294299D01*
X133458571Y-83294299D02*
X133649047Y-83294299D01*
X133649047Y-83294299D02*
X133744285Y-83341918D01*
X133744285Y-83341918D02*
X133791904Y-83389537D01*
X133791904Y-83389537D02*
X133839523Y-83484775D01*
X133839523Y-83484775D02*
X133839523Y-83722870D01*
X133839523Y-83722870D02*
X133791904Y-83818108D01*
X133791904Y-83818108D02*
X133744285Y-83865727D01*
X133744285Y-83865727D02*
X133649047Y-83913346D01*
X133649047Y-83913346D02*
X133458571Y-83913346D01*
X133458571Y-83913346D02*
X133363333Y-83865727D01*
X133363333Y-83865727D02*
X133315714Y-83818108D01*
X133315714Y-83818108D02*
X133268095Y-83722870D01*
D10*
X167332857Y-77358219D02*
X167666190Y-76882028D01*
X167904285Y-77358219D02*
X167904285Y-76358219D01*
X167904285Y-76358219D02*
X167523333Y-76358219D01*
X167523333Y-76358219D02*
X167428095Y-76405838D01*
X167428095Y-76405838D02*
X167380476Y-76453457D01*
X167380476Y-76453457D02*
X167332857Y-76548695D01*
X167332857Y-76548695D02*
X167332857Y-76691552D01*
X167332857Y-76691552D02*
X167380476Y-76786790D01*
X167380476Y-76786790D02*
X167428095Y-76834409D01*
X167428095Y-76834409D02*
X167523333Y-76882028D01*
X167523333Y-76882028D02*
X167904285Y-76882028D01*
X166951904Y-76453457D02*
X166904285Y-76405838D01*
X166904285Y-76405838D02*
X166809047Y-76358219D01*
X166809047Y-76358219D02*
X166570952Y-76358219D01*
X166570952Y-76358219D02*
X166475714Y-76405838D01*
X166475714Y-76405838D02*
X166428095Y-76453457D01*
X166428095Y-76453457D02*
X166380476Y-76548695D01*
X166380476Y-76548695D02*
X166380476Y-76643933D01*
X166380476Y-76643933D02*
X166428095Y-76786790D01*
X166428095Y-76786790D02*
X166999523Y-77358219D01*
X166999523Y-77358219D02*
X166380476Y-77358219D01*
X165999523Y-76453457D02*
X165951904Y-76405838D01*
X165951904Y-76405838D02*
X165856666Y-76358219D01*
X165856666Y-76358219D02*
X165618571Y-76358219D01*
X165618571Y-76358219D02*
X165523333Y-76405838D01*
X165523333Y-76405838D02*
X165475714Y-76453457D01*
X165475714Y-76453457D02*
X165428095Y-76548695D01*
X165428095Y-76548695D02*
X165428095Y-76643933D01*
X165428095Y-76643933D02*
X165475714Y-76786790D01*
X165475714Y-76786790D02*
X166047142Y-77358219D01*
X166047142Y-77358219D02*
X165428095Y-77358219D01*
X160346666Y-97258219D02*
X160679999Y-96782028D01*
X160918094Y-97258219D02*
X160918094Y-96258219D01*
X160918094Y-96258219D02*
X160537142Y-96258219D01*
X160537142Y-96258219D02*
X160441904Y-96305838D01*
X160441904Y-96305838D02*
X160394285Y-96353457D01*
X160394285Y-96353457D02*
X160346666Y-96448695D01*
X160346666Y-96448695D02*
X160346666Y-96591552D01*
X160346666Y-96591552D02*
X160394285Y-96686790D01*
X160394285Y-96686790D02*
X160441904Y-96734409D01*
X160441904Y-96734409D02*
X160537142Y-96782028D01*
X160537142Y-96782028D02*
X160918094Y-96782028D01*
X159870475Y-97258219D02*
X159679999Y-97258219D01*
X159679999Y-97258219D02*
X159584761Y-97210600D01*
X159584761Y-97210600D02*
X159537142Y-97162980D01*
X159537142Y-97162980D02*
X159441904Y-97020123D01*
X159441904Y-97020123D02*
X159394285Y-96829647D01*
X159394285Y-96829647D02*
X159394285Y-96448695D01*
X159394285Y-96448695D02*
X159441904Y-96353457D01*
X159441904Y-96353457D02*
X159489523Y-96305838D01*
X159489523Y-96305838D02*
X159584761Y-96258219D01*
X159584761Y-96258219D02*
X159775237Y-96258219D01*
X159775237Y-96258219D02*
X159870475Y-96305838D01*
X159870475Y-96305838D02*
X159918094Y-96353457D01*
X159918094Y-96353457D02*
X159965713Y-96448695D01*
X159965713Y-96448695D02*
X159965713Y-96686790D01*
X159965713Y-96686790D02*
X159918094Y-96782028D01*
X159918094Y-96782028D02*
X159870475Y-96829647D01*
X159870475Y-96829647D02*
X159775237Y-96877266D01*
X159775237Y-96877266D02*
X159584761Y-96877266D01*
X159584761Y-96877266D02*
X159489523Y-96829647D01*
X159489523Y-96829647D02*
X159441904Y-96782028D01*
X159441904Y-96782028D02*
X159394285Y-96686790D01*
X172081004Y-87254673D02*
X173133385Y-87254673D01*
X173133385Y-87254673D02*
X173257195Y-87316578D01*
X173257195Y-87316578D02*
X173319100Y-87378483D01*
X173319100Y-87378483D02*
X173381004Y-87502292D01*
X173381004Y-87502292D02*
X173381004Y-87749911D01*
X173381004Y-87749911D02*
X173319100Y-87873721D01*
X173319100Y-87873721D02*
X173257195Y-87935626D01*
X173257195Y-87935626D02*
X173133385Y-87997530D01*
X173133385Y-87997530D02*
X172081004Y-87997530D01*
X172204814Y-88554674D02*
X172142909Y-88616578D01*
X172142909Y-88616578D02*
X172081004Y-88740388D01*
X172081004Y-88740388D02*
X172081004Y-89049912D01*
X172081004Y-89049912D02*
X172142909Y-89173721D01*
X172142909Y-89173721D02*
X172204814Y-89235626D01*
X172204814Y-89235626D02*
X172328623Y-89297531D01*
X172328623Y-89297531D02*
X172452433Y-89297531D01*
X172452433Y-89297531D02*
X172638147Y-89235626D01*
X172638147Y-89235626D02*
X173381004Y-88492769D01*
X173381004Y-88492769D02*
X173381004Y-89297531D01*
D11*
X160321904Y-69924819D02*
X160321904Y-70734342D01*
X160321904Y-70734342D02*
X160274285Y-70829580D01*
X160274285Y-70829580D02*
X160226666Y-70877200D01*
X160226666Y-70877200D02*
X160131428Y-70924819D01*
X160131428Y-70924819D02*
X159940952Y-70924819D01*
X159940952Y-70924819D02*
X159845714Y-70877200D01*
X159845714Y-70877200D02*
X159798095Y-70829580D01*
X159798095Y-70829580D02*
X159750476Y-70734342D01*
X159750476Y-70734342D02*
X159750476Y-69924819D01*
X159369523Y-69924819D02*
X158750476Y-69924819D01*
X158750476Y-69924819D02*
X159083809Y-70305771D01*
X159083809Y-70305771D02*
X158940952Y-70305771D01*
X158940952Y-70305771D02*
X158845714Y-70353390D01*
X158845714Y-70353390D02*
X158798095Y-70401009D01*
X158798095Y-70401009D02*
X158750476Y-70496247D01*
X158750476Y-70496247D02*
X158750476Y-70734342D01*
X158750476Y-70734342D02*
X158798095Y-70829580D01*
X158798095Y-70829580D02*
X158845714Y-70877200D01*
X158845714Y-70877200D02*
X158940952Y-70924819D01*
X158940952Y-70924819D02*
X159226666Y-70924819D01*
X159226666Y-70924819D02*
X159321904Y-70877200D01*
X159321904Y-70877200D02*
X159369523Y-70829580D01*
X156802199Y-77259719D02*
X156802199Y-77497814D01*
X157040294Y-77402576D02*
X156802199Y-77497814D01*
X156802199Y-77497814D02*
X156564104Y-77402576D01*
X156945056Y-77688290D02*
X156802199Y-77497814D01*
X156802199Y-77497814D02*
X156659342Y-77688290D01*
X156802200Y-78350080D02*
X156802200Y-78111985D01*
X156564105Y-78207223D02*
X156802200Y-78111985D01*
X156802200Y-78111985D02*
X157040295Y-78207223D01*
X156659343Y-77921509D02*
X156802200Y-78111985D01*
X156802200Y-78111985D02*
X156945057Y-77921509D01*
D10*
X161372857Y-93208219D02*
X161706190Y-92732028D01*
X161944285Y-93208219D02*
X161944285Y-92208219D01*
X161944285Y-92208219D02*
X161563333Y-92208219D01*
X161563333Y-92208219D02*
X161468095Y-92255838D01*
X161468095Y-92255838D02*
X161420476Y-92303457D01*
X161420476Y-92303457D02*
X161372857Y-92398695D01*
X161372857Y-92398695D02*
X161372857Y-92541552D01*
X161372857Y-92541552D02*
X161420476Y-92636790D01*
X161420476Y-92636790D02*
X161468095Y-92684409D01*
X161468095Y-92684409D02*
X161563333Y-92732028D01*
X161563333Y-92732028D02*
X161944285Y-92732028D01*
X160420476Y-93208219D02*
X160991904Y-93208219D01*
X160706190Y-93208219D02*
X160706190Y-92208219D01*
X160706190Y-92208219D02*
X160801428Y-92351076D01*
X160801428Y-92351076D02*
X160896666Y-92446314D01*
X160896666Y-92446314D02*
X160991904Y-92493933D01*
X159801428Y-92208219D02*
X159706190Y-92208219D01*
X159706190Y-92208219D02*
X159610952Y-92255838D01*
X159610952Y-92255838D02*
X159563333Y-92303457D01*
X159563333Y-92303457D02*
X159515714Y-92398695D01*
X159515714Y-92398695D02*
X159468095Y-92589171D01*
X159468095Y-92589171D02*
X159468095Y-92827266D01*
X159468095Y-92827266D02*
X159515714Y-93017742D01*
X159515714Y-93017742D02*
X159563333Y-93112980D01*
X159563333Y-93112980D02*
X159610952Y-93160600D01*
X159610952Y-93160600D02*
X159706190Y-93208219D01*
X159706190Y-93208219D02*
X159801428Y-93208219D01*
X159801428Y-93208219D02*
X159896666Y-93160600D01*
X159896666Y-93160600D02*
X159944285Y-93112980D01*
X159944285Y-93112980D02*
X159991904Y-93017742D01*
X159991904Y-93017742D02*
X160039523Y-92827266D01*
X160039523Y-92827266D02*
X160039523Y-92589171D01*
X160039523Y-92589171D02*
X159991904Y-92398695D01*
X159991904Y-92398695D02*
X159944285Y-92303457D01*
X159944285Y-92303457D02*
X159896666Y-92255838D01*
X159896666Y-92255838D02*
X159801428Y-92208219D01*
X171722857Y-77358219D02*
X172056190Y-76882028D01*
X172294285Y-77358219D02*
X172294285Y-76358219D01*
X172294285Y-76358219D02*
X171913333Y-76358219D01*
X171913333Y-76358219D02*
X171818095Y-76405838D01*
X171818095Y-76405838D02*
X171770476Y-76453457D01*
X171770476Y-76453457D02*
X171722857Y-76548695D01*
X171722857Y-76548695D02*
X171722857Y-76691552D01*
X171722857Y-76691552D02*
X171770476Y-76786790D01*
X171770476Y-76786790D02*
X171818095Y-76834409D01*
X171818095Y-76834409D02*
X171913333Y-76882028D01*
X171913333Y-76882028D02*
X172294285Y-76882028D01*
X171341904Y-76453457D02*
X171294285Y-76405838D01*
X171294285Y-76405838D02*
X171199047Y-76358219D01*
X171199047Y-76358219D02*
X170960952Y-76358219D01*
X170960952Y-76358219D02*
X170865714Y-76405838D01*
X170865714Y-76405838D02*
X170818095Y-76453457D01*
X170818095Y-76453457D02*
X170770476Y-76548695D01*
X170770476Y-76548695D02*
X170770476Y-76643933D01*
X170770476Y-76643933D02*
X170818095Y-76786790D01*
X170818095Y-76786790D02*
X171389523Y-77358219D01*
X171389523Y-77358219D02*
X170770476Y-77358219D01*
X170151428Y-76358219D02*
X170056190Y-76358219D01*
X170056190Y-76358219D02*
X169960952Y-76405838D01*
X169960952Y-76405838D02*
X169913333Y-76453457D01*
X169913333Y-76453457D02*
X169865714Y-76548695D01*
X169865714Y-76548695D02*
X169818095Y-76739171D01*
X169818095Y-76739171D02*
X169818095Y-76977266D01*
X169818095Y-76977266D02*
X169865714Y-77167742D01*
X169865714Y-77167742D02*
X169913333Y-77262980D01*
X169913333Y-77262980D02*
X169960952Y-77310600D01*
X169960952Y-77310600D02*
X170056190Y-77358219D01*
X170056190Y-77358219D02*
X170151428Y-77358219D01*
X170151428Y-77358219D02*
X170246666Y-77310600D01*
X170246666Y-77310600D02*
X170294285Y-77262980D01*
X170294285Y-77262980D02*
X170341904Y-77167742D01*
X170341904Y-77167742D02*
X170389523Y-76977266D01*
X170389523Y-76977266D02*
X170389523Y-76739171D01*
X170389523Y-76739171D02*
X170341904Y-76548695D01*
X170341904Y-76548695D02*
X170294285Y-76453457D01*
X170294285Y-76453457D02*
X170246666Y-76405838D01*
X170246666Y-76405838D02*
X170151428Y-76358219D01*
X139202857Y-84282219D02*
X139536190Y-83806028D01*
X139774285Y-84282219D02*
X139774285Y-83282219D01*
X139774285Y-83282219D02*
X139393333Y-83282219D01*
X139393333Y-83282219D02*
X139298095Y-83329838D01*
X139298095Y-83329838D02*
X139250476Y-83377457D01*
X139250476Y-83377457D02*
X139202857Y-83472695D01*
X139202857Y-83472695D02*
X139202857Y-83615552D01*
X139202857Y-83615552D02*
X139250476Y-83710790D01*
X139250476Y-83710790D02*
X139298095Y-83758409D01*
X139298095Y-83758409D02*
X139393333Y-83806028D01*
X139393333Y-83806028D02*
X139774285Y-83806028D01*
X138821904Y-83377457D02*
X138774285Y-83329838D01*
X138774285Y-83329838D02*
X138679047Y-83282219D01*
X138679047Y-83282219D02*
X138440952Y-83282219D01*
X138440952Y-83282219D02*
X138345714Y-83329838D01*
X138345714Y-83329838D02*
X138298095Y-83377457D01*
X138298095Y-83377457D02*
X138250476Y-83472695D01*
X138250476Y-83472695D02*
X138250476Y-83567933D01*
X138250476Y-83567933D02*
X138298095Y-83710790D01*
X138298095Y-83710790D02*
X138869523Y-84282219D01*
X138869523Y-84282219D02*
X138250476Y-84282219D01*
X137298095Y-84282219D02*
X137869523Y-84282219D01*
X137583809Y-84282219D02*
X137583809Y-83282219D01*
X137583809Y-83282219D02*
X137679047Y-83425076D01*
X137679047Y-83425076D02*
X137774285Y-83520314D01*
X137774285Y-83520314D02*
X137869523Y-83567933D01*
X161422857Y-84258219D02*
X161756190Y-83782028D01*
X161994285Y-84258219D02*
X161994285Y-83258219D01*
X161994285Y-83258219D02*
X161613333Y-83258219D01*
X161613333Y-83258219D02*
X161518095Y-83305838D01*
X161518095Y-83305838D02*
X161470476Y-83353457D01*
X161470476Y-83353457D02*
X161422857Y-83448695D01*
X161422857Y-83448695D02*
X161422857Y-83591552D01*
X161422857Y-83591552D02*
X161470476Y-83686790D01*
X161470476Y-83686790D02*
X161518095Y-83734409D01*
X161518095Y-83734409D02*
X161613333Y-83782028D01*
X161613333Y-83782028D02*
X161994285Y-83782028D01*
X160470476Y-84258219D02*
X161041904Y-84258219D01*
X160756190Y-84258219D02*
X160756190Y-83258219D01*
X160756190Y-83258219D02*
X160851428Y-83401076D01*
X160851428Y-83401076D02*
X160946666Y-83496314D01*
X160946666Y-83496314D02*
X161041904Y-83543933D01*
X159518095Y-84258219D02*
X160089523Y-84258219D01*
X159803809Y-84258219D02*
X159803809Y-83258219D01*
X159803809Y-83258219D02*
X159899047Y-83401076D01*
X159899047Y-83401076D02*
X159994285Y-83496314D01*
X159994285Y-83496314D02*
X160089523Y-83543933D01*
D13*
%TO.C,R5*%
X184200000Y-81040000D02*
X182960000Y-81040000D01*
X184200000Y-79340000D02*
X182960000Y-79340000D01*
%TO.C,R4*%
X188700000Y-84670000D02*
X187240000Y-84670000D01*
X188700000Y-83010000D02*
X187240000Y-83010000D01*
%TO.C,R1*%
X188590000Y-98540000D02*
X187350000Y-98540000D01*
X188590000Y-96840000D02*
X187350000Y-96840000D01*
%TO.C,R2*%
X188590000Y-94040000D02*
X187350000Y-94040000D01*
X188590000Y-92340000D02*
X187350000Y-92340000D01*
%TO.C,R3*%
X188630000Y-89190000D02*
X187390000Y-89190000D01*
X188630000Y-87490000D02*
X187390000Y-87490000D01*
%TO.C,R18*%
X118130000Y-96656000D02*
X118130000Y-95476000D01*
X116370000Y-96656000D02*
X116370000Y-95476000D01*
%TO.C,U4*%
X160790000Y-80328100D02*
X158190000Y-80328100D01*
X160790000Y-78728100D02*
X158190000Y-78728100D01*
D14*
%TO.C,U5*%
X149480200Y-91121760D02*
X149480200Y-89016100D01*
X148819800Y-91121760D02*
X148819800Y-89016100D01*
X144880200Y-91121760D02*
X144880200Y-89016100D01*
X144219800Y-91121760D02*
X144219800Y-89016100D01*
D13*
%TO.C,R17*%
X122300000Y-96656000D02*
X122300000Y-95476000D01*
X120540000Y-96656000D02*
X120540000Y-95476000D01*
D15*
%TO.C,J3*%
X105696001Y-71327801D02*
G75*
G02*
X104934001Y-71327801I-381000J0D01*
G01*
X104934001Y-71327801D02*
G75*
G02*
X105696001Y-71327801I381000J0D01*
G01*
D13*
%TO.C,R12*%
X157180000Y-89158100D02*
X156000000Y-89158100D01*
X157180000Y-87398100D02*
X156000000Y-87398100D01*
%TO.C,R6*%
X176910000Y-72990000D02*
X176910000Y-74230000D01*
X175210000Y-72990000D02*
X175210000Y-74230000D01*
%TO.C,R19*%
X135440000Y-80908100D02*
X135440000Y-79348100D01*
X133840000Y-80908100D02*
X133840000Y-79348100D01*
%TO.C,R22*%
X167580000Y-72978100D02*
X167580000Y-74218100D01*
X165880000Y-72978100D02*
X165880000Y-74218100D01*
D15*
%TO.C,J6*%
X102052500Y-88620851D02*
G75*
G02*
X101290500Y-88620851I-381000J0D01*
G01*
X101290500Y-88620851D02*
G75*
G02*
X102052500Y-88620851I381000J0D01*
G01*
D13*
%TO.C,R9*%
X157180000Y-97758100D02*
X156000000Y-97758100D01*
X157180000Y-95998100D02*
X156000000Y-95998100D01*
D10*
%TO.C,U2*%
X179490000Y-80066000D02*
G75*
G02*
X179290000Y-80066000I-100000J0D01*
G01*
X179290000Y-80066000D02*
G75*
G02*
X179490000Y-80066000I100000J0D01*
G01*
D13*
X176040000Y-79246000D02*
X169540000Y-79246000D01*
X169540000Y-99086000D02*
X176040000Y-99086000D01*
D14*
%TO.C,U3*%
X159215200Y-76700000D02*
G75*
G02*
X159824800Y-76700000I304800J0D01*
G01*
X160893653Y-76700000D02*
X158146347Y-76700000D01*
X158146347Y-71696200D02*
X160893653Y-71696200D01*
D13*
%TO.C,R10*%
X157180000Y-93508100D02*
X156000000Y-93508100D01*
X157180000Y-91748100D02*
X156000000Y-91748100D01*
%TO.C,R20*%
X171980000Y-72978100D02*
X171980000Y-74218100D01*
X170280000Y-72978100D02*
X170280000Y-74218100D01*
%TO.C,R21*%
X139360000Y-79248100D02*
X139360000Y-80808100D01*
X137760000Y-79248100D02*
X137760000Y-80808100D01*
%TO.C,R11*%
X157180000Y-84608100D02*
X156000000Y-84608100D01*
X157180000Y-82848100D02*
X156000000Y-82848100D01*
%TD*%
M02*
