%TF.GenerationSoftware,KiCad,Pcbnew,9.0.0*%
%TF.CreationDate,2025-11-28T03:58:01-07:00*%
%TF.ProjectId,signal-board,7369676e-616c-42d6-926f-6172642e6b69,rev?*%
%TF.SameCoordinates,Original*%
%TF.FileFunction,Copper,L1,Top*%
%TF.FilePolarity,Positive*%
%FSLAX46Y46*%
G04 Gerber Fmt 4.6, Leading zero omitted, Abs format (unit mm)*
G04 Created by KiCad (PCBNEW 9.0.0) date 2025-11-28 03:58:01*
%MOMM*%
%LPD*%
G01*
G04 APERTURE LIST*
%TA.AperFunction,ComponentPad*%
%ADD10R,2.100000X2.100000*%
%TD*%
%TA.AperFunction,ComponentPad*%
%ADD11C,2.100000*%
%TD*%
%TA.AperFunction,SMDPad,CuDef*%
%ADD12R,1.803400X1.193800*%
%TD*%
%TA.AperFunction,SMDPad,CuDef*%
%ADD13R,1.549400X0.609600*%
%TD*%
%TA.AperFunction,ComponentPad*%
%ADD14R,1.100000X1.100000*%
%TD*%
%TA.AperFunction,ComponentPad*%
%ADD15C,1.100000*%
%TD*%
%TA.AperFunction,ComponentPad*%
%ADD16C,1.397000*%
%TD*%
%TA.AperFunction,ComponentPad*%
%ADD17C,1.308000*%
%TD*%
%TA.AperFunction,ViaPad*%
%ADD18C,0.600000*%
%TD*%
%TA.AperFunction,Conductor*%
%ADD19C,0.254000*%
%TD*%
%TA.AperFunction,Conductor*%
%ADD20C,0.200000*%
%TD*%
%TA.AperFunction,Conductor*%
%ADD21C,1.000000*%
%TD*%
G04 APERTURE END LIST*
D10*
%TO.P,J1,01,01*%
%TO.N,ramp_up*%
X186002500Y-75090000D03*
D11*
%TO.P,J1,02,02*%
%TO.N,ramp_down*%
X180922500Y-75090000D03*
%TD*%
%TO.P,,03,02*%
%TO.N,spare*%
X195070000Y-95640000D03*
%TD*%
D10*
%TO.P,J2,01,01*%
%TO.N,sim_home*%
X126992500Y-75106000D03*
D11*
%TO.P,J2,02,02*%
%TO.N,+VIN-dc*%
X121912500Y-75106000D03*
%TO.P,J2,03,03*%
%TO.N,-Vin*%
X116832500Y-75106000D03*
%TD*%
D12*
%TO.P,J3,6*%
%TO.N,N/C*%
X107840000Y-79030000D03*
%TO.P,J3,5*%
X107840000Y-73430002D03*
D13*
%TO.P,J3,4,4*%
%TO.N,GPIO_22*%
X105315001Y-77730001D03*
%TO.P,J3,3,3*%
%TO.N,GPIO_21*%
X105315001Y-76730000D03*
%TO.P,J3,2,2*%
%TO.N,+3.3V*%
X105315001Y-75730002D03*
%TO.P,J3,1,1*%
%TO.N,ESP_GND2*%
X105315001Y-74730001D03*
%TD*%
D14*
%TO.P,C4,P*%
%TO.N,VDD*%
X149750000Y-74358100D03*
D15*
%TO.P,C4,N*%
%TO.N,-Vin*%
X149750000Y-72358100D03*
%TD*%
D16*
%TO.P,J6,B10,B10*%
%TO.N,-Vin*%
X133954900Y-86080851D03*
%TO.P,J6,B9,B9*%
%TO.N,GPIO_21*%
X131414900Y-86080851D03*
%TO.P,J6,B8,B8*%
%TO.N,GPIO_22*%
X128874900Y-86080851D03*
%TO.P,J6,B7,B7*%
%TO.N,GPIO_23*%
X126334900Y-86080851D03*
%TO.P,J6,B6,B6*%
%TO.N,+3.3V*%
X123794900Y-86080851D03*
%TO.P,J6,B5,B5*%
%TO.N,GPIO_32*%
X121254900Y-86080851D03*
%TO.P,J6,B4,B4*%
%TO.N,GPIO_33*%
X118714900Y-86080851D03*
%TO.P,J6,B3,B3*%
%TO.N,GPIO_25*%
X116174900Y-86080851D03*
%TO.P,J6,B2,B2*%
%TO.N,GPIO_26*%
X113634900Y-86080851D03*
%TO.P,J6,B1,B1*%
%TO.N,GPIO_27*%
X111094900Y-86080851D03*
%TO.P,J6,A10,A10*%
%TO.N,CLK*%
X133954900Y-88620851D03*
%TO.P,J6,A9,A9*%
%TO.N,GPIO_2*%
X131414900Y-88620851D03*
%TO.P,J6,A8,A8*%
%TO.N,ESP_GND2*%
X128874900Y-88620851D03*
%TO.P,J6,A7,A7*%
%TO.N,GPIO_13*%
X126334900Y-88620851D03*
%TO.P,J6,A6,A6*%
%TO.N,GPIO_ANAG_35*%
X123794900Y-88620851D03*
%TO.P,J6,A5,A5*%
%TO.N,unconnected-(J6-PadA5)*%
X121254900Y-88620851D03*
%TO.P,J6,A4,A4*%
%TO.N,GPIO_ANAG_34*%
X118714900Y-88620851D03*
%TO.P,J6,A3,A3*%
%TO.N,+VOUT_esp_signal*%
X116174900Y-88620851D03*
%TO.P,J6,A2,A2*%
%TO.N,+VIN-dc*%
X113634900Y-88620851D03*
%TO.P,J6,A1,A1*%
%TO.N,+VIN*%
X111094900Y-88620851D03*
%TD*%
D17*
%TO.P,C5,2*%
%TO.N,-Vin*%
X140790000Y-72328100D03*
%TO.P,C5,1*%
%TO.N,+VIN-dc*%
X140790000Y-74328100D03*
%TD*%
D18*
%TO.N,Net-(U3-1IN+)*%
X153113950Y-78652050D03*
%TO.N,+3.3V*%
X124930000Y-97616000D03*
%TO.N,GPIO_26*%
X164445000Y-81421000D03*
%TO.N,GPIO_22*%
X111900000Y-94572000D03*
%TO.N,GPIO_33*%
X164250000Y-92616000D03*
%TO.N,sim_home_safe*%
X153740000Y-76078100D03*
%TO.N,GPIO_25*%
X163700000Y-88316000D03*
%TO.N,GPIO_32*%
X162150000Y-95516000D03*
%TO.N,Net-(U3-1IN+)*%
X136530000Y-77906000D03*
%TO.N,+3.3V*%
X102150000Y-96716000D03*
%TO.N,-Vin*%
X174300000Y-78266000D03*
%TO.N,Net-(U3-1IN+)*%
X154090000Y-73563100D03*
%TO.N,GPIO_21*%
X108336601Y-76780001D03*
%TO.N,GPIO_22*%
X103300000Y-94266000D03*
%TO.N,+3.3V*%
X152580000Y-90556000D03*
%TO.N,ESP_GND2*%
X125280000Y-99256000D03*
%TO.N,sim_home_safe*%
X164840000Y-72166000D03*
%TO.N,GPIO_21*%
X121100000Y-91866000D03*
%TD*%
D19*
%TO.N,-Vin*%
X173700000Y-77666000D02*
X174300000Y-78266000D01*
X173700000Y-70570000D02*
X173700000Y-77666000D01*
X151538100Y-70570000D02*
X173700000Y-70570000D01*
X149750000Y-72358100D02*
X151538100Y-70570000D01*
%TO.N,GPIO_22*%
X103300000Y-79745002D02*
X105315001Y-77730001D01*
X103300000Y-94266000D02*
X103300000Y-79745002D01*
%TO.N,+3.3V*%
X104436600Y-75730002D02*
X105315001Y-75730002D01*
X102150000Y-78016602D02*
X104436600Y-75730002D01*
X102150000Y-96716000D02*
X102150000Y-78016602D01*
%TO.N,ESP_GND2*%
X100478000Y-78138602D02*
X100593301Y-78023301D01*
X100593301Y-78023301D02*
X103886601Y-74730001D01*
X100478000Y-99256000D02*
X100478000Y-78138602D01*
D20*
%TO.N,GPIO_26*%
X113634900Y-85295100D02*
X113660000Y-85270000D01*
D19*
X113660000Y-85270000D02*
X113660000Y-85776000D01*
D20*
X113634900Y-86080851D02*
X113634900Y-85295100D01*
%TO.N,GPIO_25*%
X116174900Y-86080851D02*
X116174900Y-85560000D01*
D19*
X116174900Y-85560000D02*
X116174900Y-85750900D01*
D21*
%TO.N,+VIN-dc*%
X112860000Y-91876000D02*
X113660000Y-91076000D01*
X108660000Y-91876000D02*
X112860000Y-91876000D01*
X113660000Y-91076000D02*
X113660000Y-88645951D01*
X113660000Y-88645951D02*
X113634900Y-88620851D01*
X119382500Y-77636000D02*
X113250000Y-77636000D01*
X108660000Y-82226000D02*
X108660000Y-91876000D01*
X121912500Y-75106000D02*
X119382500Y-77636000D01*
X113250000Y-77636000D02*
X108660000Y-82226000D01*
D19*
%TO.N,GPIO_33*%
X118740000Y-86055751D02*
X118714900Y-86080851D01*
X153800000Y-81916000D02*
X120600000Y-81916000D01*
X118740000Y-83776000D02*
X118740000Y-86055751D01*
X164250000Y-92616000D02*
X164250000Y-92366000D01*
X164250000Y-92366000D02*
X153800000Y-81916000D01*
X120600000Y-81916000D02*
X118740000Y-83776000D01*
%TO.N,GPIO_21*%
X135600000Y-87396000D02*
X132730049Y-87396000D01*
X132730049Y-87396000D02*
X131414900Y-86080851D01*
%TO.N,GPIO_22*%
X136300000Y-84666000D02*
X130010000Y-84666000D01*
X136650000Y-85016000D02*
X136300000Y-84666000D01*
X128874900Y-85801100D02*
X128874900Y-86080851D01*
X136650000Y-95866000D02*
X136650000Y-85016000D01*
X130010000Y-84666000D02*
X128874900Y-85801100D01*
X113194000Y-95866000D02*
X136650000Y-95866000D01*
X111900000Y-94572000D02*
X113194000Y-95866000D01*
%TO.N,+3.3V*%
X123794900Y-84381100D02*
X123794900Y-86080851D01*
X124410000Y-83766000D02*
X123794900Y-84381100D01*
X141150000Y-83766000D02*
X124410000Y-83766000D01*
X123794900Y-86080851D02*
X123794900Y-85801100D01*
X141550000Y-84166000D02*
X141150000Y-83766000D01*
X123794900Y-85801100D02*
X123820000Y-85776000D01*
%TO.N,GPIO_32*%
X121280000Y-84536000D02*
X121280000Y-86055751D01*
X121280000Y-86055751D02*
X121254900Y-86080851D01*
X123000000Y-82816000D02*
X121280000Y-84536000D01*
X162150000Y-95516000D02*
X149450000Y-82816000D01*
X149450000Y-82816000D02*
X123000000Y-82816000D01*
%TO.N,GPIO_21*%
X135600000Y-90816000D02*
X135600000Y-87396000D01*
%TO.N,Net-(U3-1IN+)*%
X136560000Y-77916000D02*
X136560000Y-77936000D01*
%TO.N,ESP_GND2*%
X125280000Y-99256000D02*
X100478000Y-99256000D01*
%TO.N,GPIO_21*%
X108286600Y-76730000D02*
X108336601Y-76780001D01*
D21*
%TO.N,+VIN-dc*%
X121912500Y-75106000D02*
X124632500Y-72386000D01*
D19*
%TO.N,Net-(U3-1IN+)*%
X136560000Y-77936000D02*
X136530000Y-77906000D01*
%TO.N,GPIO_21*%
X121100000Y-91866000D02*
X122150000Y-90816000D01*
%TO.N,+3.3V*%
X152580000Y-88346000D02*
X148400000Y-84166000D01*
X152580000Y-90556000D02*
X152580000Y-88346000D01*
%TO.N,Net-(U3-1IN+)*%
X152240000Y-75328100D02*
X154005000Y-73563100D01*
%TO.N,ESP_GND2*%
X103886601Y-74730001D02*
X105315001Y-74730001D01*
%TO.N,+3.3V*%
X139900000Y-97616000D02*
X141550000Y-95966000D01*
%TO.N,GPIO_21*%
X105315001Y-76730000D02*
X108286600Y-76730000D01*
%TO.N,sim_home_safe*%
X155827900Y-78166000D02*
X153740000Y-76078100D01*
D21*
%TO.N,+VIN-dc*%
X135132100Y-74328100D02*
X140790000Y-74328100D01*
D19*
%TO.N,+3.3V*%
X141550000Y-95966000D02*
X141550000Y-84166000D01*
%TO.N,GPIO_21*%
X122150000Y-90816000D02*
X135600000Y-90816000D01*
%TO.N,+3.3V*%
X124930000Y-97616000D02*
X139900000Y-97616000D01*
X148400000Y-84166000D02*
X141550000Y-84166000D01*
D21*
%TO.N,+VIN-dc*%
X124632500Y-72386000D02*
X133190000Y-72386000D01*
D19*
%TO.N,sim_home_safe*%
X164840000Y-72166000D02*
X164840000Y-78078100D01*
%TO.N,Net-(U3-1IN+)*%
X153113950Y-78652050D02*
X152377900Y-77916000D01*
X152377900Y-77916000D02*
X136560000Y-77916000D01*
X153113950Y-78652050D02*
X152240000Y-77778100D01*
X152240000Y-77778100D02*
X152240000Y-75328100D01*
X154005000Y-73563100D02*
X154090000Y-73563100D01*
%TO.N,sim_home_safe*%
X164752100Y-78166000D02*
X155827900Y-78166000D01*
X164840000Y-78078100D02*
X164752100Y-78166000D01*
D21*
%TO.N,+VIN-dc*%
X133190000Y-72386000D02*
X135132100Y-74328100D01*
D19*
%TO.N,GPIO_26*%
X115900000Y-80066000D02*
X113660000Y-82306000D01*
X157400000Y-80066000D02*
X115900000Y-80066000D01*
X161062100Y-83728100D02*
X157400000Y-80066000D01*
X164445000Y-81421000D02*
X162137900Y-83728100D01*
X162137900Y-83728100D02*
X161062100Y-83728100D01*
X113660000Y-82306000D02*
X113660000Y-85270000D01*
%TO.N,GPIO_25*%
X116174900Y-85750900D02*
X116200000Y-85776000D01*
X156400000Y-81016000D02*
X118050000Y-81016000D01*
X118050000Y-81016000D02*
X116174900Y-82891100D01*
X116174900Y-82891100D02*
X116174900Y-85560000D01*
X163700000Y-88316000D02*
X156400000Y-81016000D01*
%TD*%
M02*
