%TF.GenerationSoftware,KiCad,Pcbnew,9.0.0*%
%TF.CreationDate,2025-11-28T03:58:01-07:00*%
%TF.ProjectId,signal-board,7369676e-616c-42d6-926f-6172642e6b69,rev?*%
%TF.SameCoordinates,Original*%
%TF.FileFunction,Legend,Top*%
%TF.FilePolarity,Positive*%
%FSLAX46Y46*%
G04 Gerber Fmt 4.6, Leading zero omitted, Abs format (unit mm)*
G04 Created by KiCad (PCBNEW 9.0.0) date 2025-11-28 03:58:01*
%MOMM*%
%LPD*%
G01*
G04 APERTURE LIST*
%ADD10C,0.250000*%
%ADD11C,0.150000*%
%ADD12C,0.200000*%
%ADD13C,0.127000*%
%ADD14C,0.508000*%
%ADD15C,0.152400*%
G04 APERTURE END LIST*
D10*
X163166190Y-82504871D02*
X163166190Y-81504871D01*
X163166190Y-81504871D02*
X163463809Y-81504871D01*
X163463809Y-81504871D02*
X163642380Y-81552490D01*
X163642380Y-81552490D02*
X163761428Y-81647728D01*
X163761428Y-81647728D02*
X163820951Y-81742966D01*
X163820951Y-81742966D02*
X163880475Y-81933442D01*
X163880475Y-81933442D02*
X163880475Y-82076299D01*
X163880475Y-82076299D02*
X163820951Y-82266775D01*
X163820951Y-82266775D02*
X163761428Y-82362013D01*
X163761428Y-82362013D02*
X163642380Y-82457252D01*
X163642380Y-82457252D02*
X163463809Y-82504871D01*
X163463809Y-82504871D02*
X163166190Y-82504871D01*
X164892380Y-82457252D02*
X164773332Y-82504871D01*
X164773332Y-82504871D02*
X164535237Y-82504871D01*
X164535237Y-82504871D02*
X164416190Y-82457252D01*
X164416190Y-82457252D02*
X164356666Y-82362013D01*
X164356666Y-82362013D02*
X164356666Y-81981061D01*
X164356666Y-81981061D02*
X164416190Y-81885823D01*
X164416190Y-81885823D02*
X164535237Y-81838204D01*
X164535237Y-81838204D02*
X164773332Y-81838204D01*
X164773332Y-81838204D02*
X164892380Y-81885823D01*
X164892380Y-81885823D02*
X164951904Y-81981061D01*
X164951904Y-81981061D02*
X164951904Y-82076299D01*
X164951904Y-82076299D02*
X164356666Y-82171537D01*
X165487619Y-82504871D02*
X165487619Y-81838204D01*
X165487619Y-81933442D02*
X165547142Y-81885823D01*
X165547142Y-81885823D02*
X165666190Y-81838204D01*
X165666190Y-81838204D02*
X165844761Y-81838204D01*
X165844761Y-81838204D02*
X165963809Y-81885823D01*
X165963809Y-81885823D02*
X166023333Y-81981061D01*
X166023333Y-81981061D02*
X166023333Y-82504871D01*
X166023333Y-81981061D02*
X166082857Y-81885823D01*
X166082857Y-81885823D02*
X166201904Y-81838204D01*
X166201904Y-81838204D02*
X166380476Y-81838204D01*
X166380476Y-81838204D02*
X166499523Y-81885823D01*
X166499523Y-81885823D02*
X166559047Y-81981061D01*
X166559047Y-81981061D02*
X166559047Y-82504871D01*
X167630476Y-82457252D02*
X167511428Y-82504871D01*
X167511428Y-82504871D02*
X167273333Y-82504871D01*
X167273333Y-82504871D02*
X167154286Y-82457252D01*
X167154286Y-82457252D02*
X167094762Y-82362013D01*
X167094762Y-82362013D02*
X167094762Y-81981061D01*
X167094762Y-81981061D02*
X167154286Y-81885823D01*
X167154286Y-81885823D02*
X167273333Y-81838204D01*
X167273333Y-81838204D02*
X167511428Y-81838204D01*
X167511428Y-81838204D02*
X167630476Y-81885823D01*
X167630476Y-81885823D02*
X167690000Y-81981061D01*
X167690000Y-81981061D02*
X167690000Y-82076299D01*
X167690000Y-82076299D02*
X167094762Y-82171537D01*
X168047143Y-81838204D02*
X168523334Y-81838204D01*
X168225715Y-81504871D02*
X168225715Y-82362013D01*
X168225715Y-82362013D02*
X168285238Y-82457252D01*
X168285238Y-82457252D02*
X168404286Y-82504871D01*
X168404286Y-82504871D02*
X168523334Y-82504871D01*
X168940001Y-82504871D02*
X168940001Y-81838204D01*
X168940001Y-82028680D02*
X168999524Y-81933442D01*
X168999524Y-81933442D02*
X169059048Y-81885823D01*
X169059048Y-81885823D02*
X169178096Y-81838204D01*
X169178096Y-81838204D02*
X169297143Y-81838204D01*
X169713811Y-82504871D02*
X169713811Y-81838204D01*
X169713811Y-81504871D02*
X169654287Y-81552490D01*
X169654287Y-81552490D02*
X169713811Y-81600109D01*
X169713811Y-81600109D02*
X169773334Y-81552490D01*
X169773334Y-81552490D02*
X169713811Y-81504871D01*
X169713811Y-81504871D02*
X169713811Y-81600109D01*
X170844763Y-81838204D02*
X170844763Y-82504871D01*
X170309049Y-81838204D02*
X170309049Y-82362013D01*
X170309049Y-82362013D02*
X170368572Y-82457252D01*
X170368572Y-82457252D02*
X170487620Y-82504871D01*
X170487620Y-82504871D02*
X170666191Y-82504871D01*
X170666191Y-82504871D02*
X170785239Y-82457252D01*
X170785239Y-82457252D02*
X170844763Y-82409632D01*
X171380477Y-82457252D02*
X171499524Y-82504871D01*
X171499524Y-82504871D02*
X171737620Y-82504871D01*
X171737620Y-82504871D02*
X171856667Y-82457252D01*
X171856667Y-82457252D02*
X171916191Y-82362013D01*
X171916191Y-82362013D02*
X171916191Y-82314394D01*
X171916191Y-82314394D02*
X171856667Y-82219156D01*
X171856667Y-82219156D02*
X171737620Y-82171537D01*
X171737620Y-82171537D02*
X171559048Y-82171537D01*
X171559048Y-82171537D02*
X171440001Y-82123918D01*
X171440001Y-82123918D02*
X171380477Y-82028680D01*
X171380477Y-82028680D02*
X171380477Y-81981061D01*
X171380477Y-81981061D02*
X171440001Y-81885823D01*
X171440001Y-81885823D02*
X171559048Y-81838204D01*
X171559048Y-81838204D02*
X171737620Y-81838204D01*
X171737620Y-81838204D02*
X171856667Y-81885823D01*
X174118572Y-82504871D02*
X173701906Y-82028680D01*
X173404287Y-82504871D02*
X173404287Y-81504871D01*
X173404287Y-81504871D02*
X173880477Y-81504871D01*
X173880477Y-81504871D02*
X173999525Y-81552490D01*
X173999525Y-81552490D02*
X174059048Y-81600109D01*
X174059048Y-81600109D02*
X174118572Y-81695347D01*
X174118572Y-81695347D02*
X174118572Y-81838204D01*
X174118572Y-81838204D02*
X174059048Y-81933442D01*
X174059048Y-81933442D02*
X173999525Y-81981061D01*
X173999525Y-81981061D02*
X173880477Y-82028680D01*
X173880477Y-82028680D02*
X173404287Y-82028680D01*
X174832858Y-82504871D02*
X174713810Y-82457252D01*
X174713810Y-82457252D02*
X174654287Y-82409632D01*
X174654287Y-82409632D02*
X174594763Y-82314394D01*
X174594763Y-82314394D02*
X174594763Y-82028680D01*
X174594763Y-82028680D02*
X174654287Y-81933442D01*
X174654287Y-81933442D02*
X174713810Y-81885823D01*
X174713810Y-81885823D02*
X174832858Y-81838204D01*
X174832858Y-81838204D02*
X175011429Y-81838204D01*
X175011429Y-81838204D02*
X175130477Y-81885823D01*
X175130477Y-81885823D02*
X175190001Y-81933442D01*
X175190001Y-81933442D02*
X175249525Y-82028680D01*
X175249525Y-82028680D02*
X175249525Y-82314394D01*
X175249525Y-82314394D02*
X175190001Y-82409632D01*
X175190001Y-82409632D02*
X175130477Y-82457252D01*
X175130477Y-82457252D02*
X175011429Y-82504871D01*
X175011429Y-82504871D02*
X174832858Y-82504871D01*
X175725715Y-82457252D02*
X175844762Y-82504871D01*
X175844762Y-82504871D02*
X176082858Y-82504871D01*
X176082858Y-82504871D02*
X176201905Y-82457252D01*
X176201905Y-82457252D02*
X176261429Y-82362013D01*
X176261429Y-82362013D02*
X176261429Y-82314394D01*
X176261429Y-82314394D02*
X176201905Y-82219156D01*
X176201905Y-82219156D02*
X176082858Y-82171537D01*
X176082858Y-82171537D02*
X175904286Y-82171537D01*
X175904286Y-82171537D02*
X175785239Y-82123918D01*
X175785239Y-82123918D02*
X175725715Y-82028680D01*
X175725715Y-82028680D02*
X175725715Y-81981061D01*
X175725715Y-81981061D02*
X175785239Y-81885823D01*
X175785239Y-81885823D02*
X175904286Y-81838204D01*
X175904286Y-81838204D02*
X176082858Y-81838204D01*
X176082858Y-81838204D02*
X176201905Y-81885823D01*
X176737620Y-82457252D02*
X176856667Y-82504871D01*
X176856667Y-82504871D02*
X177094763Y-82504871D01*
X177094763Y-82504871D02*
X177213810Y-82457252D01*
X177213810Y-82457252D02*
X177273334Y-82362013D01*
X177273334Y-82362013D02*
X177273334Y-82314394D01*
X177273334Y-82314394D02*
X177213810Y-82219156D01*
X177213810Y-82219156D02*
X177094763Y-82171537D01*
X177094763Y-82171537D02*
X176916191Y-82171537D01*
X176916191Y-82171537D02*
X176797144Y-82123918D01*
X176797144Y-82123918D02*
X176737620Y-82028680D01*
X176737620Y-82028680D02*
X176737620Y-81981061D01*
X176737620Y-81981061D02*
X176797144Y-81885823D01*
X176797144Y-81885823D02*
X176916191Y-81838204D01*
X176916191Y-81838204D02*
X177094763Y-81838204D01*
X177094763Y-81838204D02*
X177213810Y-81885823D01*
X155041189Y-84114815D02*
X155041189Y-83114815D01*
X155041189Y-83114815D02*
X155338808Y-83114815D01*
X155338808Y-83114815D02*
X155517379Y-83162434D01*
X155517379Y-83162434D02*
X155636427Y-83257672D01*
X155636427Y-83257672D02*
X155695950Y-83352910D01*
X155695950Y-83352910D02*
X155755474Y-83543386D01*
X155755474Y-83543386D02*
X155755474Y-83686243D01*
X155755474Y-83686243D02*
X155695950Y-83876719D01*
X155695950Y-83876719D02*
X155636427Y-83971957D01*
X155636427Y-83971957D02*
X155517379Y-84067196D01*
X155517379Y-84067196D02*
X155338808Y-84114815D01*
X155338808Y-84114815D02*
X155041189Y-84114815D01*
X156767379Y-84067196D02*
X156648331Y-84114815D01*
X156648331Y-84114815D02*
X156410236Y-84114815D01*
X156410236Y-84114815D02*
X156291189Y-84067196D01*
X156291189Y-84067196D02*
X156231665Y-83971957D01*
X156231665Y-83971957D02*
X156231665Y-83591005D01*
X156231665Y-83591005D02*
X156291189Y-83495767D01*
X156291189Y-83495767D02*
X156410236Y-83448148D01*
X156410236Y-83448148D02*
X156648331Y-83448148D01*
X156648331Y-83448148D02*
X156767379Y-83495767D01*
X156767379Y-83495767D02*
X156826903Y-83591005D01*
X156826903Y-83591005D02*
X156826903Y-83686243D01*
X156826903Y-83686243D02*
X156231665Y-83781481D01*
X157362618Y-84114815D02*
X157362618Y-83448148D01*
X157362618Y-83543386D02*
X157422141Y-83495767D01*
X157422141Y-83495767D02*
X157541189Y-83448148D01*
X157541189Y-83448148D02*
X157719760Y-83448148D01*
X157719760Y-83448148D02*
X157838808Y-83495767D01*
X157838808Y-83495767D02*
X157898332Y-83591005D01*
X157898332Y-83591005D02*
X157898332Y-84114815D01*
X157898332Y-83591005D02*
X157957856Y-83495767D01*
X157957856Y-83495767D02*
X158076903Y-83448148D01*
X158076903Y-83448148D02*
X158255475Y-83448148D01*
X158255475Y-83448148D02*
X158374522Y-83495767D01*
X158374522Y-83495767D02*
X158434046Y-83591005D01*
X158434046Y-83591005D02*
X158434046Y-84114815D01*
X159505475Y-84067196D02*
X159386427Y-84114815D01*
X159386427Y-84114815D02*
X159148332Y-84114815D01*
X159148332Y-84114815D02*
X159029285Y-84067196D01*
X159029285Y-84067196D02*
X158969761Y-83971957D01*
X158969761Y-83971957D02*
X158969761Y-83591005D01*
X158969761Y-83591005D02*
X159029285Y-83495767D01*
X159029285Y-83495767D02*
X159148332Y-83448148D01*
X159148332Y-83448148D02*
X159386427Y-83448148D01*
X159386427Y-83448148D02*
X159505475Y-83495767D01*
X159505475Y-83495767D02*
X159564999Y-83591005D01*
X159564999Y-83591005D02*
X159564999Y-83686243D01*
X159564999Y-83686243D02*
X158969761Y-83781481D01*
X159922142Y-83448148D02*
X160398333Y-83448148D01*
X160100714Y-83114815D02*
X160100714Y-83971957D01*
X160100714Y-83971957D02*
X160160237Y-84067196D01*
X160160237Y-84067196D02*
X160279285Y-84114815D01*
X160279285Y-84114815D02*
X160398333Y-84114815D01*
X160815000Y-84114815D02*
X160815000Y-83448148D01*
X160815000Y-83638624D02*
X160874523Y-83543386D01*
X160874523Y-83543386D02*
X160934047Y-83495767D01*
X160934047Y-83495767D02*
X161053095Y-83448148D01*
X161053095Y-83448148D02*
X161172142Y-83448148D01*
X161588810Y-84114815D02*
X161588810Y-83448148D01*
X161588810Y-83114815D02*
X161529286Y-83162434D01*
X161529286Y-83162434D02*
X161588810Y-83210053D01*
X161588810Y-83210053D02*
X161648333Y-83162434D01*
X161648333Y-83162434D02*
X161588810Y-83114815D01*
X161588810Y-83114815D02*
X161588810Y-83210053D01*
X162719762Y-83448148D02*
X162719762Y-84114815D01*
X162184048Y-83448148D02*
X162184048Y-83971957D01*
X162184048Y-83971957D02*
X162243571Y-84067196D01*
X162243571Y-84067196D02*
X162362619Y-84114815D01*
X162362619Y-84114815D02*
X162541190Y-84114815D01*
X162541190Y-84114815D02*
X162660238Y-84067196D01*
X162660238Y-84067196D02*
X162719762Y-84019576D01*
X163255476Y-84067196D02*
X163374523Y-84114815D01*
X163374523Y-84114815D02*
X163612619Y-84114815D01*
X163612619Y-84114815D02*
X163731666Y-84067196D01*
X163731666Y-84067196D02*
X163791190Y-83971957D01*
X163791190Y-83971957D02*
X163791190Y-83924338D01*
X163791190Y-83924338D02*
X163731666Y-83829100D01*
X163731666Y-83829100D02*
X163612619Y-83781481D01*
X163612619Y-83781481D02*
X163434047Y-83781481D01*
X163434047Y-83781481D02*
X163315000Y-83733862D01*
X163315000Y-83733862D02*
X163255476Y-83638624D01*
X163255476Y-83638624D02*
X163255476Y-83591005D01*
X163255476Y-83591005D02*
X163315000Y-83495767D01*
X163315000Y-83495767D02*
X163434047Y-83448148D01*
X163434047Y-83448148D02*
X163612619Y-83448148D01*
X163612619Y-83448148D02*
X163731666Y-83495767D01*
X164326905Y-84019576D02*
X164386428Y-84067196D01*
X164386428Y-84067196D02*
X164326905Y-84114815D01*
X164326905Y-84114815D02*
X164267381Y-84067196D01*
X164267381Y-84067196D02*
X164326905Y-84019576D01*
X164326905Y-84019576D02*
X164326905Y-84114815D01*
X165636428Y-84114815D02*
X165219762Y-83638624D01*
X164922143Y-84114815D02*
X164922143Y-83114815D01*
X164922143Y-83114815D02*
X165398333Y-83114815D01*
X165398333Y-83114815D02*
X165517381Y-83162434D01*
X165517381Y-83162434D02*
X165576904Y-83210053D01*
X165576904Y-83210053D02*
X165636428Y-83305291D01*
X165636428Y-83305291D02*
X165636428Y-83448148D01*
X165636428Y-83448148D02*
X165576904Y-83543386D01*
X165576904Y-83543386D02*
X165517381Y-83591005D01*
X165517381Y-83591005D02*
X165398333Y-83638624D01*
X165398333Y-83638624D02*
X164922143Y-83638624D01*
X166350714Y-84114815D02*
X166231666Y-84067196D01*
X166231666Y-84067196D02*
X166172143Y-84019576D01*
X166172143Y-84019576D02*
X166112619Y-83924338D01*
X166112619Y-83924338D02*
X166112619Y-83638624D01*
X166112619Y-83638624D02*
X166172143Y-83543386D01*
X166172143Y-83543386D02*
X166231666Y-83495767D01*
X166231666Y-83495767D02*
X166350714Y-83448148D01*
X166350714Y-83448148D02*
X166529285Y-83448148D01*
X166529285Y-83448148D02*
X166648333Y-83495767D01*
X166648333Y-83495767D02*
X166707857Y-83543386D01*
X166707857Y-83543386D02*
X166767381Y-83638624D01*
X166767381Y-83638624D02*
X166767381Y-83924338D01*
X166767381Y-83924338D02*
X166707857Y-84019576D01*
X166707857Y-84019576D02*
X166648333Y-84067196D01*
X166648333Y-84067196D02*
X166529285Y-84114815D01*
X166529285Y-84114815D02*
X166350714Y-84114815D01*
X167243571Y-84067196D02*
X167362618Y-84114815D01*
X167362618Y-84114815D02*
X167600714Y-84114815D01*
X167600714Y-84114815D02*
X167719761Y-84067196D01*
X167719761Y-84067196D02*
X167779285Y-83971957D01*
X167779285Y-83971957D02*
X167779285Y-83924338D01*
X167779285Y-83924338D02*
X167719761Y-83829100D01*
X167719761Y-83829100D02*
X167600714Y-83781481D01*
X167600714Y-83781481D02*
X167422142Y-83781481D01*
X167422142Y-83781481D02*
X167303095Y-83733862D01*
X167303095Y-83733862D02*
X167243571Y-83638624D01*
X167243571Y-83638624D02*
X167243571Y-83591005D01*
X167243571Y-83591005D02*
X167303095Y-83495767D01*
X167303095Y-83495767D02*
X167422142Y-83448148D01*
X167422142Y-83448148D02*
X167600714Y-83448148D01*
X167600714Y-83448148D02*
X167719761Y-83495767D01*
X168255476Y-84067196D02*
X168374523Y-84114815D01*
X168374523Y-84114815D02*
X168612619Y-84114815D01*
X168612619Y-84114815D02*
X168731666Y-84067196D01*
X168731666Y-84067196D02*
X168791190Y-83971957D01*
X168791190Y-83971957D02*
X168791190Y-83924338D01*
X168791190Y-83924338D02*
X168731666Y-83829100D01*
X168731666Y-83829100D02*
X168612619Y-83781481D01*
X168612619Y-83781481D02*
X168434047Y-83781481D01*
X168434047Y-83781481D02*
X168315000Y-83733862D01*
X168315000Y-83733862D02*
X168255476Y-83638624D01*
X168255476Y-83638624D02*
X168255476Y-83591005D01*
X168255476Y-83591005D02*
X168315000Y-83495767D01*
X168315000Y-83495767D02*
X168434047Y-83448148D01*
X168434047Y-83448148D02*
X168612619Y-83448148D01*
X168612619Y-83448148D02*
X168731666Y-83495767D01*
X170100714Y-83638624D02*
X170041190Y-83591005D01*
X170041190Y-83591005D02*
X169922143Y-83543386D01*
X169922143Y-83543386D02*
X169803095Y-83543386D01*
X169803095Y-83543386D02*
X169684047Y-83591005D01*
X169684047Y-83591005D02*
X169624524Y-83638624D01*
X169624524Y-83638624D02*
X169565000Y-83733862D01*
X169565000Y-83733862D02*
X169565000Y-83829100D01*
X169565000Y-83829100D02*
X169624524Y-83924338D01*
X169624524Y-83924338D02*
X169684047Y-83971957D01*
X169684047Y-83971957D02*
X169803095Y-84019576D01*
X169803095Y-84019576D02*
X169922143Y-84019576D01*
X169922143Y-84019576D02*
X170041190Y-83971957D01*
X170041190Y-83971957D02*
X170100714Y-83924338D01*
X170100714Y-83543386D02*
X170100714Y-83924338D01*
X170100714Y-83924338D02*
X170160238Y-83971957D01*
X170160238Y-83971957D02*
X170219762Y-83971957D01*
X170219762Y-83971957D02*
X170338809Y-83924338D01*
X170338809Y-83924338D02*
X170398333Y-83829100D01*
X170398333Y-83829100D02*
X170398333Y-83591005D01*
X170398333Y-83591005D02*
X170279286Y-83448148D01*
X170279286Y-83448148D02*
X170100714Y-83352910D01*
X170100714Y-83352910D02*
X169862619Y-83305291D01*
X169862619Y-83305291D02*
X169624524Y-83352910D01*
X169624524Y-83352910D02*
X169445952Y-83448148D01*
X169445952Y-83448148D02*
X169326905Y-83591005D01*
X169326905Y-83591005D02*
X169267381Y-83781481D01*
X169267381Y-83781481D02*
X169326905Y-83971957D01*
X169326905Y-83971957D02*
X169445952Y-84114815D01*
X169445952Y-84114815D02*
X169624524Y-84210053D01*
X169624524Y-84210053D02*
X169862619Y-84257672D01*
X169862619Y-84257672D02*
X170100714Y-84210053D01*
X170100714Y-84210053D02*
X170279286Y-84114815D01*
X170755476Y-83448148D02*
X171231667Y-83448148D01*
X170934048Y-84114815D02*
X170934048Y-83257672D01*
X170934048Y-83257672D02*
X170993571Y-83162434D01*
X170993571Y-83162434D02*
X171112619Y-83114815D01*
X171112619Y-83114815D02*
X171231667Y-83114815D01*
X171826905Y-84114815D02*
X171707857Y-84067196D01*
X171707857Y-84067196D02*
X171648334Y-83971957D01*
X171648334Y-83971957D02*
X171648334Y-83114815D01*
X172303096Y-84114815D02*
X172303096Y-83448148D01*
X172303096Y-83114815D02*
X172243572Y-83162434D01*
X172243572Y-83162434D02*
X172303096Y-83210053D01*
X172303096Y-83210053D02*
X172362619Y-83162434D01*
X172362619Y-83162434D02*
X172303096Y-83114815D01*
X172303096Y-83114815D02*
X172303096Y-83210053D01*
X173434048Y-83448148D02*
X173434048Y-84257672D01*
X173434048Y-84257672D02*
X173374524Y-84352910D01*
X173374524Y-84352910D02*
X173315000Y-84400529D01*
X173315000Y-84400529D02*
X173195953Y-84448148D01*
X173195953Y-84448148D02*
X173017381Y-84448148D01*
X173017381Y-84448148D02*
X172898334Y-84400529D01*
X173434048Y-84067196D02*
X173315000Y-84114815D01*
X173315000Y-84114815D02*
X173076905Y-84114815D01*
X173076905Y-84114815D02*
X172957857Y-84067196D01*
X172957857Y-84067196D02*
X172898334Y-84019576D01*
X172898334Y-84019576D02*
X172838810Y-83924338D01*
X172838810Y-83924338D02*
X172838810Y-83638624D01*
X172838810Y-83638624D02*
X172898334Y-83543386D01*
X172898334Y-83543386D02*
X172957857Y-83495767D01*
X172957857Y-83495767D02*
X173076905Y-83448148D01*
X173076905Y-83448148D02*
X173315000Y-83448148D01*
X173315000Y-83448148D02*
X173434048Y-83495767D01*
X174029286Y-84114815D02*
X174029286Y-83114815D01*
X174565000Y-84114815D02*
X174565000Y-83591005D01*
X174565000Y-83591005D02*
X174505476Y-83495767D01*
X174505476Y-83495767D02*
X174386428Y-83448148D01*
X174386428Y-83448148D02*
X174207857Y-83448148D01*
X174207857Y-83448148D02*
X174088809Y-83495767D01*
X174088809Y-83495767D02*
X174029286Y-83543386D01*
X174981666Y-83448148D02*
X175457857Y-83448148D01*
X175160238Y-83114815D02*
X175160238Y-83971957D01*
X175160238Y-83971957D02*
X175219761Y-84067196D01*
X175219761Y-84067196D02*
X175338809Y-84114815D01*
X175338809Y-84114815D02*
X175457857Y-84114815D01*
X175815000Y-84067196D02*
X175934047Y-84114815D01*
X175934047Y-84114815D02*
X176172143Y-84114815D01*
X176172143Y-84114815D02*
X176291190Y-84067196D01*
X176291190Y-84067196D02*
X176350714Y-83971957D01*
X176350714Y-83971957D02*
X176350714Y-83924338D01*
X176350714Y-83924338D02*
X176291190Y-83829100D01*
X176291190Y-83829100D02*
X176172143Y-83781481D01*
X176172143Y-83781481D02*
X175993571Y-83781481D01*
X175993571Y-83781481D02*
X175874524Y-83733862D01*
X175874524Y-83733862D02*
X175815000Y-83638624D01*
X175815000Y-83638624D02*
X175815000Y-83591005D01*
X175815000Y-83591005D02*
X175874524Y-83495767D01*
X175874524Y-83495767D02*
X175993571Y-83448148D01*
X175993571Y-83448148D02*
X176172143Y-83448148D01*
X176172143Y-83448148D02*
X176291190Y-83495767D01*
X177422143Y-84114815D02*
X177422143Y-83591005D01*
X177422143Y-83591005D02*
X177362619Y-83495767D01*
X177362619Y-83495767D02*
X177243571Y-83448148D01*
X177243571Y-83448148D02*
X177005476Y-83448148D01*
X177005476Y-83448148D02*
X176886429Y-83495767D01*
X177422143Y-84067196D02*
X177303095Y-84114815D01*
X177303095Y-84114815D02*
X177005476Y-84114815D01*
X177005476Y-84114815D02*
X176886429Y-84067196D01*
X176886429Y-84067196D02*
X176826905Y-83971957D01*
X176826905Y-83971957D02*
X176826905Y-83876719D01*
X176826905Y-83876719D02*
X176886429Y-83781481D01*
X176886429Y-83781481D02*
X177005476Y-83733862D01*
X177005476Y-83733862D02*
X177303095Y-83733862D01*
X177303095Y-83733862D02*
X177422143Y-83686243D01*
X177838809Y-83448148D02*
X178315000Y-83448148D01*
X178017381Y-84114815D02*
X178017381Y-83257672D01*
X178017381Y-83257672D02*
X178076904Y-83162434D01*
X178076904Y-83162434D02*
X178195952Y-83114815D01*
X178195952Y-83114815D02*
X178315000Y-83114815D01*
X179207857Y-84067196D02*
X179088809Y-84114815D01*
X179088809Y-84114815D02*
X178850714Y-84114815D01*
X178850714Y-84114815D02*
X178731667Y-84067196D01*
X178731667Y-84067196D02*
X178672143Y-83971957D01*
X178672143Y-83971957D02*
X178672143Y-83591005D01*
X178672143Y-83591005D02*
X178731667Y-83495767D01*
X178731667Y-83495767D02*
X178850714Y-83448148D01*
X178850714Y-83448148D02*
X179088809Y-83448148D01*
X179088809Y-83448148D02*
X179207857Y-83495767D01*
X179207857Y-83495767D02*
X179267381Y-83591005D01*
X179267381Y-83591005D02*
X179267381Y-83686243D01*
X179267381Y-83686243D02*
X178672143Y-83781481D01*
X179624524Y-83448148D02*
X180100715Y-83448148D01*
X179803096Y-83114815D02*
X179803096Y-83971957D01*
X179803096Y-83971957D02*
X179862619Y-84067196D01*
X179862619Y-84067196D02*
X179981667Y-84114815D01*
X179981667Y-84114815D02*
X180100715Y-84114815D01*
X180398334Y-83448148D02*
X180695953Y-84114815D01*
X180993572Y-83448148D02*
X180695953Y-84114815D01*
X180695953Y-84114815D02*
X180576905Y-84352910D01*
X180576905Y-84352910D02*
X180517382Y-84400529D01*
X180517382Y-84400529D02*
X180398334Y-84448148D01*
X181469763Y-84019576D02*
X181529286Y-84067196D01*
X181529286Y-84067196D02*
X181469763Y-84114815D01*
X181469763Y-84114815D02*
X181410239Y-84067196D01*
X181410239Y-84067196D02*
X181469763Y-84019576D01*
X181469763Y-84019576D02*
X181469763Y-84114815D01*
X182600715Y-84067196D02*
X182481667Y-84114815D01*
X182481667Y-84114815D02*
X182243572Y-84114815D01*
X182243572Y-84114815D02*
X182124524Y-84067196D01*
X182124524Y-84067196D02*
X182065001Y-84019576D01*
X182065001Y-84019576D02*
X182005477Y-83924338D01*
X182005477Y-83924338D02*
X182005477Y-83638624D01*
X182005477Y-83638624D02*
X182065001Y-83543386D01*
X182065001Y-83543386D02*
X182124524Y-83495767D01*
X182124524Y-83495767D02*
X182243572Y-83448148D01*
X182243572Y-83448148D02*
X182481667Y-83448148D01*
X182481667Y-83448148D02*
X182600715Y-83495767D01*
X183315001Y-84114815D02*
X183195953Y-84067196D01*
X183195953Y-84067196D02*
X183136430Y-84019576D01*
X183136430Y-84019576D02*
X183076906Y-83924338D01*
X183076906Y-83924338D02*
X183076906Y-83638624D01*
X183076906Y-83638624D02*
X183136430Y-83543386D01*
X183136430Y-83543386D02*
X183195953Y-83495767D01*
X183195953Y-83495767D02*
X183315001Y-83448148D01*
X183315001Y-83448148D02*
X183493572Y-83448148D01*
X183493572Y-83448148D02*
X183612620Y-83495767D01*
X183612620Y-83495767D02*
X183672144Y-83543386D01*
X183672144Y-83543386D02*
X183731668Y-83638624D01*
X183731668Y-83638624D02*
X183731668Y-83924338D01*
X183731668Y-83924338D02*
X183672144Y-84019576D01*
X183672144Y-84019576D02*
X183612620Y-84067196D01*
X183612620Y-84067196D02*
X183493572Y-84114815D01*
X183493572Y-84114815D02*
X183315001Y-84114815D01*
X184267382Y-84114815D02*
X184267382Y-83448148D01*
X184267382Y-83543386D02*
X184326905Y-83495767D01*
X184326905Y-83495767D02*
X184445953Y-83448148D01*
X184445953Y-83448148D02*
X184624524Y-83448148D01*
X184624524Y-83448148D02*
X184743572Y-83495767D01*
X184743572Y-83495767D02*
X184803096Y-83591005D01*
X184803096Y-83591005D02*
X184803096Y-84114815D01*
X184803096Y-83591005D02*
X184862620Y-83495767D01*
X184862620Y-83495767D02*
X184981667Y-83448148D01*
X184981667Y-83448148D02*
X185160239Y-83448148D01*
X185160239Y-83448148D02*
X185279286Y-83495767D01*
X185279286Y-83495767D02*
X185338810Y-83591005D01*
X185338810Y-83591005D02*
X185338810Y-84114815D01*
X161975713Y-88849408D02*
X161916189Y-88897028D01*
X161916189Y-88897028D02*
X161737618Y-88944647D01*
X161737618Y-88944647D02*
X161618570Y-88944647D01*
X161618570Y-88944647D02*
X161439999Y-88897028D01*
X161439999Y-88897028D02*
X161320951Y-88801789D01*
X161320951Y-88801789D02*
X161261428Y-88706551D01*
X161261428Y-88706551D02*
X161201904Y-88516075D01*
X161201904Y-88516075D02*
X161201904Y-88373218D01*
X161201904Y-88373218D02*
X161261428Y-88182742D01*
X161261428Y-88182742D02*
X161320951Y-88087504D01*
X161320951Y-88087504D02*
X161439999Y-87992266D01*
X161439999Y-87992266D02*
X161618570Y-87944647D01*
X161618570Y-87944647D02*
X161737618Y-87944647D01*
X161737618Y-87944647D02*
X161916189Y-87992266D01*
X161916189Y-87992266D02*
X161975713Y-88039885D01*
X162511428Y-88944647D02*
X162511428Y-87944647D01*
X163047142Y-88944647D02*
X163047142Y-88420837D01*
X163047142Y-88420837D02*
X162987618Y-88325599D01*
X162987618Y-88325599D02*
X162868570Y-88277980D01*
X162868570Y-88277980D02*
X162689999Y-88277980D01*
X162689999Y-88277980D02*
X162570951Y-88325599D01*
X162570951Y-88325599D02*
X162511428Y-88373218D01*
X163642380Y-88944647D02*
X163642380Y-88277980D01*
X163642380Y-88468456D02*
X163701903Y-88373218D01*
X163701903Y-88373218D02*
X163761427Y-88325599D01*
X163761427Y-88325599D02*
X163880475Y-88277980D01*
X163880475Y-88277980D02*
X163999522Y-88277980D01*
X164416190Y-88944647D02*
X164416190Y-88277980D01*
X164416190Y-87944647D02*
X164356666Y-87992266D01*
X164356666Y-87992266D02*
X164416190Y-88039885D01*
X164416190Y-88039885D02*
X164475713Y-87992266D01*
X164475713Y-87992266D02*
X164416190Y-87944647D01*
X164416190Y-87944647D02*
X164416190Y-88039885D01*
X164951904Y-88897028D02*
X165070951Y-88944647D01*
X165070951Y-88944647D02*
X165309047Y-88944647D01*
X165309047Y-88944647D02*
X165428094Y-88897028D01*
X165428094Y-88897028D02*
X165487618Y-88801789D01*
X165487618Y-88801789D02*
X165487618Y-88754170D01*
X165487618Y-88754170D02*
X165428094Y-88658932D01*
X165428094Y-88658932D02*
X165309047Y-88611313D01*
X165309047Y-88611313D02*
X165130475Y-88611313D01*
X165130475Y-88611313D02*
X165011428Y-88563694D01*
X165011428Y-88563694D02*
X164951904Y-88468456D01*
X164951904Y-88468456D02*
X164951904Y-88420837D01*
X164951904Y-88420837D02*
X165011428Y-88325599D01*
X165011428Y-88325599D02*
X165130475Y-88277980D01*
X165130475Y-88277980D02*
X165309047Y-88277980D01*
X165309047Y-88277980D02*
X165428094Y-88325599D01*
X165844761Y-88277980D02*
X166320952Y-88277980D01*
X166023333Y-87944647D02*
X166023333Y-88801789D01*
X166023333Y-88801789D02*
X166082856Y-88897028D01*
X166082856Y-88897028D02*
X166201904Y-88944647D01*
X166201904Y-88944647D02*
X166320952Y-88944647D01*
X166916190Y-88944647D02*
X166797142Y-88897028D01*
X166797142Y-88897028D02*
X166737619Y-88849408D01*
X166737619Y-88849408D02*
X166678095Y-88754170D01*
X166678095Y-88754170D02*
X166678095Y-88468456D01*
X166678095Y-88468456D02*
X166737619Y-88373218D01*
X166737619Y-88373218D02*
X166797142Y-88325599D01*
X166797142Y-88325599D02*
X166916190Y-88277980D01*
X166916190Y-88277980D02*
X167094761Y-88277980D01*
X167094761Y-88277980D02*
X167213809Y-88325599D01*
X167213809Y-88325599D02*
X167273333Y-88373218D01*
X167273333Y-88373218D02*
X167332857Y-88468456D01*
X167332857Y-88468456D02*
X167332857Y-88754170D01*
X167332857Y-88754170D02*
X167273333Y-88849408D01*
X167273333Y-88849408D02*
X167213809Y-88897028D01*
X167213809Y-88897028D02*
X167094761Y-88944647D01*
X167094761Y-88944647D02*
X166916190Y-88944647D01*
X167868571Y-88277980D02*
X167868571Y-89277980D01*
X167868571Y-88325599D02*
X167987618Y-88277980D01*
X167987618Y-88277980D02*
X168225713Y-88277980D01*
X168225713Y-88277980D02*
X168344761Y-88325599D01*
X168344761Y-88325599D02*
X168404285Y-88373218D01*
X168404285Y-88373218D02*
X168463809Y-88468456D01*
X168463809Y-88468456D02*
X168463809Y-88754170D01*
X168463809Y-88754170D02*
X168404285Y-88849408D01*
X168404285Y-88849408D02*
X168344761Y-88897028D01*
X168344761Y-88897028D02*
X168225713Y-88944647D01*
X168225713Y-88944647D02*
X167987618Y-88944647D01*
X167987618Y-88944647D02*
X167868571Y-88897028D01*
X168999523Y-88944647D02*
X168999523Y-87944647D01*
X169535237Y-88944647D02*
X169535237Y-88420837D01*
X169535237Y-88420837D02*
X169475713Y-88325599D01*
X169475713Y-88325599D02*
X169356665Y-88277980D01*
X169356665Y-88277980D02*
X169178094Y-88277980D01*
X169178094Y-88277980D02*
X169059046Y-88325599D01*
X169059046Y-88325599D02*
X168999523Y-88373218D01*
X170606665Y-88897028D02*
X170487617Y-88944647D01*
X170487617Y-88944647D02*
X170249522Y-88944647D01*
X170249522Y-88944647D02*
X170130475Y-88897028D01*
X170130475Y-88897028D02*
X170070951Y-88801789D01*
X170070951Y-88801789D02*
X170070951Y-88420837D01*
X170070951Y-88420837D02*
X170130475Y-88325599D01*
X170130475Y-88325599D02*
X170249522Y-88277980D01*
X170249522Y-88277980D02*
X170487617Y-88277980D01*
X170487617Y-88277980D02*
X170606665Y-88325599D01*
X170606665Y-88325599D02*
X170666189Y-88420837D01*
X170666189Y-88420837D02*
X170666189Y-88516075D01*
X170666189Y-88516075D02*
X170070951Y-88611313D01*
X171201904Y-88944647D02*
X171201904Y-88277980D01*
X171201904Y-88468456D02*
X171261427Y-88373218D01*
X171261427Y-88373218D02*
X171320951Y-88325599D01*
X171320951Y-88325599D02*
X171439999Y-88277980D01*
X171439999Y-88277980D02*
X171559046Y-88277980D01*
X173344761Y-88420837D02*
X172928095Y-88420837D01*
X172928095Y-88944647D02*
X172928095Y-87944647D01*
X172928095Y-87944647D02*
X173523333Y-87944647D01*
X173999524Y-88944647D02*
X173999524Y-88277980D01*
X173999524Y-88468456D02*
X174059047Y-88373218D01*
X174059047Y-88373218D02*
X174118571Y-88325599D01*
X174118571Y-88325599D02*
X174237619Y-88277980D01*
X174237619Y-88277980D02*
X174356666Y-88277980D01*
X175309048Y-88944647D02*
X175309048Y-88420837D01*
X175309048Y-88420837D02*
X175249524Y-88325599D01*
X175249524Y-88325599D02*
X175130476Y-88277980D01*
X175130476Y-88277980D02*
X174892381Y-88277980D01*
X174892381Y-88277980D02*
X174773334Y-88325599D01*
X175309048Y-88897028D02*
X175190000Y-88944647D01*
X175190000Y-88944647D02*
X174892381Y-88944647D01*
X174892381Y-88944647D02*
X174773334Y-88897028D01*
X174773334Y-88897028D02*
X174713810Y-88801789D01*
X174713810Y-88801789D02*
X174713810Y-88706551D01*
X174713810Y-88706551D02*
X174773334Y-88611313D01*
X174773334Y-88611313D02*
X174892381Y-88563694D01*
X174892381Y-88563694D02*
X175190000Y-88563694D01*
X175190000Y-88563694D02*
X175309048Y-88516075D01*
X175904286Y-88277980D02*
X175904286Y-88944647D01*
X175904286Y-88373218D02*
X175963809Y-88325599D01*
X175963809Y-88325599D02*
X176082857Y-88277980D01*
X176082857Y-88277980D02*
X176261428Y-88277980D01*
X176261428Y-88277980D02*
X176380476Y-88325599D01*
X176380476Y-88325599D02*
X176440000Y-88420837D01*
X176440000Y-88420837D02*
X176440000Y-88944647D01*
X177570952Y-88897028D02*
X177451904Y-88944647D01*
X177451904Y-88944647D02*
X177213809Y-88944647D01*
X177213809Y-88944647D02*
X177094761Y-88897028D01*
X177094761Y-88897028D02*
X177035238Y-88849408D01*
X177035238Y-88849408D02*
X176975714Y-88754170D01*
X176975714Y-88754170D02*
X176975714Y-88468456D01*
X176975714Y-88468456D02*
X177035238Y-88373218D01*
X177035238Y-88373218D02*
X177094761Y-88325599D01*
X177094761Y-88325599D02*
X177213809Y-88277980D01*
X177213809Y-88277980D02*
X177451904Y-88277980D01*
X177451904Y-88277980D02*
X177570952Y-88325599D01*
X178106667Y-88944647D02*
X178106667Y-88277980D01*
X178106667Y-87944647D02*
X178047143Y-87992266D01*
X178047143Y-87992266D02*
X178106667Y-88039885D01*
X178106667Y-88039885D02*
X178166190Y-87992266D01*
X178166190Y-87992266D02*
X178106667Y-87944647D01*
X178106667Y-87944647D02*
X178106667Y-88039885D01*
X178642381Y-88897028D02*
X178761428Y-88944647D01*
X178761428Y-88944647D02*
X178999524Y-88944647D01*
X178999524Y-88944647D02*
X179118571Y-88897028D01*
X179118571Y-88897028D02*
X179178095Y-88801789D01*
X179178095Y-88801789D02*
X179178095Y-88754170D01*
X179178095Y-88754170D02*
X179118571Y-88658932D01*
X179118571Y-88658932D02*
X178999524Y-88611313D01*
X178999524Y-88611313D02*
X178820952Y-88611313D01*
X178820952Y-88611313D02*
X178701905Y-88563694D01*
X178701905Y-88563694D02*
X178642381Y-88468456D01*
X178642381Y-88468456D02*
X178642381Y-88420837D01*
X178642381Y-88420837D02*
X178701905Y-88325599D01*
X178701905Y-88325599D02*
X178820952Y-88277980D01*
X178820952Y-88277980D02*
X178999524Y-88277980D01*
X178999524Y-88277980D02*
X179118571Y-88325599D01*
X153850713Y-90459352D02*
X153791189Y-90506972D01*
X153791189Y-90506972D02*
X153612618Y-90554591D01*
X153612618Y-90554591D02*
X153493570Y-90554591D01*
X153493570Y-90554591D02*
X153314999Y-90506972D01*
X153314999Y-90506972D02*
X153195951Y-90411733D01*
X153195951Y-90411733D02*
X153136428Y-90316495D01*
X153136428Y-90316495D02*
X153076904Y-90126019D01*
X153076904Y-90126019D02*
X153076904Y-89983162D01*
X153076904Y-89983162D02*
X153136428Y-89792686D01*
X153136428Y-89792686D02*
X153195951Y-89697448D01*
X153195951Y-89697448D02*
X153314999Y-89602210D01*
X153314999Y-89602210D02*
X153493570Y-89554591D01*
X153493570Y-89554591D02*
X153612618Y-89554591D01*
X153612618Y-89554591D02*
X153791189Y-89602210D01*
X153791189Y-89602210D02*
X153850713Y-89649829D01*
X154386428Y-90554591D02*
X154386428Y-89554591D01*
X154922142Y-90554591D02*
X154922142Y-90030781D01*
X154922142Y-90030781D02*
X154862618Y-89935543D01*
X154862618Y-89935543D02*
X154743570Y-89887924D01*
X154743570Y-89887924D02*
X154564999Y-89887924D01*
X154564999Y-89887924D02*
X154445951Y-89935543D01*
X154445951Y-89935543D02*
X154386428Y-89983162D01*
X155517380Y-90554591D02*
X155517380Y-89887924D01*
X155517380Y-90078400D02*
X155576903Y-89983162D01*
X155576903Y-89983162D02*
X155636427Y-89935543D01*
X155636427Y-89935543D02*
X155755475Y-89887924D01*
X155755475Y-89887924D02*
X155874522Y-89887924D01*
X156291190Y-90554591D02*
X156291190Y-89887924D01*
X156291190Y-89554591D02*
X156231666Y-89602210D01*
X156231666Y-89602210D02*
X156291190Y-89649829D01*
X156291190Y-89649829D02*
X156350713Y-89602210D01*
X156350713Y-89602210D02*
X156291190Y-89554591D01*
X156291190Y-89554591D02*
X156291190Y-89649829D01*
X156826904Y-90506972D02*
X156945951Y-90554591D01*
X156945951Y-90554591D02*
X157184047Y-90554591D01*
X157184047Y-90554591D02*
X157303094Y-90506972D01*
X157303094Y-90506972D02*
X157362618Y-90411733D01*
X157362618Y-90411733D02*
X157362618Y-90364114D01*
X157362618Y-90364114D02*
X157303094Y-90268876D01*
X157303094Y-90268876D02*
X157184047Y-90221257D01*
X157184047Y-90221257D02*
X157005475Y-90221257D01*
X157005475Y-90221257D02*
X156886428Y-90173638D01*
X156886428Y-90173638D02*
X156826904Y-90078400D01*
X156826904Y-90078400D02*
X156826904Y-90030781D01*
X156826904Y-90030781D02*
X156886428Y-89935543D01*
X156886428Y-89935543D02*
X157005475Y-89887924D01*
X157005475Y-89887924D02*
X157184047Y-89887924D01*
X157184047Y-89887924D02*
X157303094Y-89935543D01*
X157719761Y-89887924D02*
X158195952Y-89887924D01*
X157898333Y-89554591D02*
X157898333Y-90411733D01*
X157898333Y-90411733D02*
X157957856Y-90506972D01*
X157957856Y-90506972D02*
X158076904Y-90554591D01*
X158076904Y-90554591D02*
X158195952Y-90554591D01*
X158791190Y-90554591D02*
X158672142Y-90506972D01*
X158672142Y-90506972D02*
X158612619Y-90459352D01*
X158612619Y-90459352D02*
X158553095Y-90364114D01*
X158553095Y-90364114D02*
X158553095Y-90078400D01*
X158553095Y-90078400D02*
X158612619Y-89983162D01*
X158612619Y-89983162D02*
X158672142Y-89935543D01*
X158672142Y-89935543D02*
X158791190Y-89887924D01*
X158791190Y-89887924D02*
X158969761Y-89887924D01*
X158969761Y-89887924D02*
X159088809Y-89935543D01*
X159088809Y-89935543D02*
X159148333Y-89983162D01*
X159148333Y-89983162D02*
X159207857Y-90078400D01*
X159207857Y-90078400D02*
X159207857Y-90364114D01*
X159207857Y-90364114D02*
X159148333Y-90459352D01*
X159148333Y-90459352D02*
X159088809Y-90506972D01*
X159088809Y-90506972D02*
X158969761Y-90554591D01*
X158969761Y-90554591D02*
X158791190Y-90554591D01*
X159743571Y-89887924D02*
X159743571Y-90887924D01*
X159743571Y-89935543D02*
X159862618Y-89887924D01*
X159862618Y-89887924D02*
X160100713Y-89887924D01*
X160100713Y-89887924D02*
X160219761Y-89935543D01*
X160219761Y-89935543D02*
X160279285Y-89983162D01*
X160279285Y-89983162D02*
X160338809Y-90078400D01*
X160338809Y-90078400D02*
X160338809Y-90364114D01*
X160338809Y-90364114D02*
X160279285Y-90459352D01*
X160279285Y-90459352D02*
X160219761Y-90506972D01*
X160219761Y-90506972D02*
X160100713Y-90554591D01*
X160100713Y-90554591D02*
X159862618Y-90554591D01*
X159862618Y-90554591D02*
X159743571Y-90506972D01*
X160874523Y-90554591D02*
X160874523Y-89554591D01*
X161410237Y-90554591D02*
X161410237Y-90030781D01*
X161410237Y-90030781D02*
X161350713Y-89935543D01*
X161350713Y-89935543D02*
X161231665Y-89887924D01*
X161231665Y-89887924D02*
X161053094Y-89887924D01*
X161053094Y-89887924D02*
X160934046Y-89935543D01*
X160934046Y-89935543D02*
X160874523Y-89983162D01*
X162481665Y-90506972D02*
X162362617Y-90554591D01*
X162362617Y-90554591D02*
X162124522Y-90554591D01*
X162124522Y-90554591D02*
X162005475Y-90506972D01*
X162005475Y-90506972D02*
X161945951Y-90411733D01*
X161945951Y-90411733D02*
X161945951Y-90030781D01*
X161945951Y-90030781D02*
X162005475Y-89935543D01*
X162005475Y-89935543D02*
X162124522Y-89887924D01*
X162124522Y-89887924D02*
X162362617Y-89887924D01*
X162362617Y-89887924D02*
X162481665Y-89935543D01*
X162481665Y-89935543D02*
X162541189Y-90030781D01*
X162541189Y-90030781D02*
X162541189Y-90126019D01*
X162541189Y-90126019D02*
X161945951Y-90221257D01*
X163076904Y-90554591D02*
X163076904Y-89887924D01*
X163076904Y-90078400D02*
X163136427Y-89983162D01*
X163136427Y-89983162D02*
X163195951Y-89935543D01*
X163195951Y-89935543D02*
X163314999Y-89887924D01*
X163314999Y-89887924D02*
X163434046Y-89887924D01*
X163850714Y-90459352D02*
X163910237Y-90506972D01*
X163910237Y-90506972D02*
X163850714Y-90554591D01*
X163850714Y-90554591D02*
X163791190Y-90506972D01*
X163791190Y-90506972D02*
X163850714Y-90459352D01*
X163850714Y-90459352D02*
X163850714Y-90554591D01*
X164862618Y-90030781D02*
X164445952Y-90030781D01*
X164445952Y-90554591D02*
X164445952Y-89554591D01*
X164445952Y-89554591D02*
X165041190Y-89554591D01*
X165517381Y-90554591D02*
X165517381Y-89887924D01*
X165517381Y-90078400D02*
X165576904Y-89983162D01*
X165576904Y-89983162D02*
X165636428Y-89935543D01*
X165636428Y-89935543D02*
X165755476Y-89887924D01*
X165755476Y-89887924D02*
X165874523Y-89887924D01*
X166826905Y-90554591D02*
X166826905Y-90030781D01*
X166826905Y-90030781D02*
X166767381Y-89935543D01*
X166767381Y-89935543D02*
X166648333Y-89887924D01*
X166648333Y-89887924D02*
X166410238Y-89887924D01*
X166410238Y-89887924D02*
X166291191Y-89935543D01*
X166826905Y-90506972D02*
X166707857Y-90554591D01*
X166707857Y-90554591D02*
X166410238Y-90554591D01*
X166410238Y-90554591D02*
X166291191Y-90506972D01*
X166291191Y-90506972D02*
X166231667Y-90411733D01*
X166231667Y-90411733D02*
X166231667Y-90316495D01*
X166231667Y-90316495D02*
X166291191Y-90221257D01*
X166291191Y-90221257D02*
X166410238Y-90173638D01*
X166410238Y-90173638D02*
X166707857Y-90173638D01*
X166707857Y-90173638D02*
X166826905Y-90126019D01*
X167422143Y-89887924D02*
X167422143Y-90554591D01*
X167422143Y-89983162D02*
X167481666Y-89935543D01*
X167481666Y-89935543D02*
X167600714Y-89887924D01*
X167600714Y-89887924D02*
X167779285Y-89887924D01*
X167779285Y-89887924D02*
X167898333Y-89935543D01*
X167898333Y-89935543D02*
X167957857Y-90030781D01*
X167957857Y-90030781D02*
X167957857Y-90554591D01*
X169088809Y-90506972D02*
X168969761Y-90554591D01*
X168969761Y-90554591D02*
X168731666Y-90554591D01*
X168731666Y-90554591D02*
X168612618Y-90506972D01*
X168612618Y-90506972D02*
X168553095Y-90459352D01*
X168553095Y-90459352D02*
X168493571Y-90364114D01*
X168493571Y-90364114D02*
X168493571Y-90078400D01*
X168493571Y-90078400D02*
X168553095Y-89983162D01*
X168553095Y-89983162D02*
X168612618Y-89935543D01*
X168612618Y-89935543D02*
X168731666Y-89887924D01*
X168731666Y-89887924D02*
X168969761Y-89887924D01*
X168969761Y-89887924D02*
X169088809Y-89935543D01*
X169624524Y-90554591D02*
X169624524Y-89887924D01*
X169624524Y-89554591D02*
X169565000Y-89602210D01*
X169565000Y-89602210D02*
X169624524Y-89649829D01*
X169624524Y-89649829D02*
X169684047Y-89602210D01*
X169684047Y-89602210D02*
X169624524Y-89554591D01*
X169624524Y-89554591D02*
X169624524Y-89649829D01*
X170160238Y-90506972D02*
X170279285Y-90554591D01*
X170279285Y-90554591D02*
X170517381Y-90554591D01*
X170517381Y-90554591D02*
X170636428Y-90506972D01*
X170636428Y-90506972D02*
X170695952Y-90411733D01*
X170695952Y-90411733D02*
X170695952Y-90364114D01*
X170695952Y-90364114D02*
X170636428Y-90268876D01*
X170636428Y-90268876D02*
X170517381Y-90221257D01*
X170517381Y-90221257D02*
X170338809Y-90221257D01*
X170338809Y-90221257D02*
X170219762Y-90173638D01*
X170219762Y-90173638D02*
X170160238Y-90078400D01*
X170160238Y-90078400D02*
X170160238Y-90030781D01*
X170160238Y-90030781D02*
X170219762Y-89935543D01*
X170219762Y-89935543D02*
X170338809Y-89887924D01*
X170338809Y-89887924D02*
X170517381Y-89887924D01*
X170517381Y-89887924D02*
X170636428Y-89935543D01*
X172005476Y-90078400D02*
X171945952Y-90030781D01*
X171945952Y-90030781D02*
X171826905Y-89983162D01*
X171826905Y-89983162D02*
X171707857Y-89983162D01*
X171707857Y-89983162D02*
X171588809Y-90030781D01*
X171588809Y-90030781D02*
X171529286Y-90078400D01*
X171529286Y-90078400D02*
X171469762Y-90173638D01*
X171469762Y-90173638D02*
X171469762Y-90268876D01*
X171469762Y-90268876D02*
X171529286Y-90364114D01*
X171529286Y-90364114D02*
X171588809Y-90411733D01*
X171588809Y-90411733D02*
X171707857Y-90459352D01*
X171707857Y-90459352D02*
X171826905Y-90459352D01*
X171826905Y-90459352D02*
X171945952Y-90411733D01*
X171945952Y-90411733D02*
X172005476Y-90364114D01*
X172005476Y-89983162D02*
X172005476Y-90364114D01*
X172005476Y-90364114D02*
X172065000Y-90411733D01*
X172065000Y-90411733D02*
X172124524Y-90411733D01*
X172124524Y-90411733D02*
X172243571Y-90364114D01*
X172243571Y-90364114D02*
X172303095Y-90268876D01*
X172303095Y-90268876D02*
X172303095Y-90030781D01*
X172303095Y-90030781D02*
X172184048Y-89887924D01*
X172184048Y-89887924D02*
X172005476Y-89792686D01*
X172005476Y-89792686D02*
X171767381Y-89745067D01*
X171767381Y-89745067D02*
X171529286Y-89792686D01*
X171529286Y-89792686D02*
X171350714Y-89887924D01*
X171350714Y-89887924D02*
X171231667Y-90030781D01*
X171231667Y-90030781D02*
X171172143Y-90221257D01*
X171172143Y-90221257D02*
X171231667Y-90411733D01*
X171231667Y-90411733D02*
X171350714Y-90554591D01*
X171350714Y-90554591D02*
X171529286Y-90649829D01*
X171529286Y-90649829D02*
X171767381Y-90697448D01*
X171767381Y-90697448D02*
X172005476Y-90649829D01*
X172005476Y-90649829D02*
X172184048Y-90554591D01*
X172660238Y-89887924D02*
X173136429Y-89887924D01*
X172838810Y-90554591D02*
X172838810Y-89697448D01*
X172838810Y-89697448D02*
X172898333Y-89602210D01*
X172898333Y-89602210D02*
X173017381Y-89554591D01*
X173017381Y-89554591D02*
X173136429Y-89554591D01*
X173731667Y-90554591D02*
X173612619Y-90506972D01*
X173612619Y-90506972D02*
X173553096Y-90411733D01*
X173553096Y-90411733D02*
X173553096Y-89554591D01*
X174207858Y-90554591D02*
X174207858Y-89887924D01*
X174207858Y-89554591D02*
X174148334Y-89602210D01*
X174148334Y-89602210D02*
X174207858Y-89649829D01*
X174207858Y-89649829D02*
X174267381Y-89602210D01*
X174267381Y-89602210D02*
X174207858Y-89554591D01*
X174207858Y-89554591D02*
X174207858Y-89649829D01*
X175338810Y-89887924D02*
X175338810Y-90697448D01*
X175338810Y-90697448D02*
X175279286Y-90792686D01*
X175279286Y-90792686D02*
X175219762Y-90840305D01*
X175219762Y-90840305D02*
X175100715Y-90887924D01*
X175100715Y-90887924D02*
X174922143Y-90887924D01*
X174922143Y-90887924D02*
X174803096Y-90840305D01*
X175338810Y-90506972D02*
X175219762Y-90554591D01*
X175219762Y-90554591D02*
X174981667Y-90554591D01*
X174981667Y-90554591D02*
X174862619Y-90506972D01*
X174862619Y-90506972D02*
X174803096Y-90459352D01*
X174803096Y-90459352D02*
X174743572Y-90364114D01*
X174743572Y-90364114D02*
X174743572Y-90078400D01*
X174743572Y-90078400D02*
X174803096Y-89983162D01*
X174803096Y-89983162D02*
X174862619Y-89935543D01*
X174862619Y-89935543D02*
X174981667Y-89887924D01*
X174981667Y-89887924D02*
X175219762Y-89887924D01*
X175219762Y-89887924D02*
X175338810Y-89935543D01*
X175934048Y-90554591D02*
X175934048Y-89554591D01*
X176469762Y-90554591D02*
X176469762Y-90030781D01*
X176469762Y-90030781D02*
X176410238Y-89935543D01*
X176410238Y-89935543D02*
X176291190Y-89887924D01*
X176291190Y-89887924D02*
X176112619Y-89887924D01*
X176112619Y-89887924D02*
X175993571Y-89935543D01*
X175993571Y-89935543D02*
X175934048Y-89983162D01*
X176886428Y-89887924D02*
X177362619Y-89887924D01*
X177065000Y-89554591D02*
X177065000Y-90411733D01*
X177065000Y-90411733D02*
X177124523Y-90506972D01*
X177124523Y-90506972D02*
X177243571Y-90554591D01*
X177243571Y-90554591D02*
X177362619Y-90554591D01*
X177719762Y-90506972D02*
X177838809Y-90554591D01*
X177838809Y-90554591D02*
X178076905Y-90554591D01*
X178076905Y-90554591D02*
X178195952Y-90506972D01*
X178195952Y-90506972D02*
X178255476Y-90411733D01*
X178255476Y-90411733D02*
X178255476Y-90364114D01*
X178255476Y-90364114D02*
X178195952Y-90268876D01*
X178195952Y-90268876D02*
X178076905Y-90221257D01*
X178076905Y-90221257D02*
X177898333Y-90221257D01*
X177898333Y-90221257D02*
X177779286Y-90173638D01*
X177779286Y-90173638D02*
X177719762Y-90078400D01*
X177719762Y-90078400D02*
X177719762Y-90030781D01*
X177719762Y-90030781D02*
X177779286Y-89935543D01*
X177779286Y-89935543D02*
X177898333Y-89887924D01*
X177898333Y-89887924D02*
X178076905Y-89887924D01*
X178076905Y-89887924D02*
X178195952Y-89935543D01*
X179326905Y-90554591D02*
X179326905Y-90030781D01*
X179326905Y-90030781D02*
X179267381Y-89935543D01*
X179267381Y-89935543D02*
X179148333Y-89887924D01*
X179148333Y-89887924D02*
X178910238Y-89887924D01*
X178910238Y-89887924D02*
X178791191Y-89935543D01*
X179326905Y-90506972D02*
X179207857Y-90554591D01*
X179207857Y-90554591D02*
X178910238Y-90554591D01*
X178910238Y-90554591D02*
X178791191Y-90506972D01*
X178791191Y-90506972D02*
X178731667Y-90411733D01*
X178731667Y-90411733D02*
X178731667Y-90316495D01*
X178731667Y-90316495D02*
X178791191Y-90221257D01*
X178791191Y-90221257D02*
X178910238Y-90173638D01*
X178910238Y-90173638D02*
X179207857Y-90173638D01*
X179207857Y-90173638D02*
X179326905Y-90126019D01*
X179743571Y-89887924D02*
X180219762Y-89887924D01*
X179922143Y-90554591D02*
X179922143Y-89697448D01*
X179922143Y-89697448D02*
X179981666Y-89602210D01*
X179981666Y-89602210D02*
X180100714Y-89554591D01*
X180100714Y-89554591D02*
X180219762Y-89554591D01*
X181112619Y-90506972D02*
X180993571Y-90554591D01*
X180993571Y-90554591D02*
X180755476Y-90554591D01*
X180755476Y-90554591D02*
X180636429Y-90506972D01*
X180636429Y-90506972D02*
X180576905Y-90411733D01*
X180576905Y-90411733D02*
X180576905Y-90030781D01*
X180576905Y-90030781D02*
X180636429Y-89935543D01*
X180636429Y-89935543D02*
X180755476Y-89887924D01*
X180755476Y-89887924D02*
X180993571Y-89887924D01*
X180993571Y-89887924D02*
X181112619Y-89935543D01*
X181112619Y-89935543D02*
X181172143Y-90030781D01*
X181172143Y-90030781D02*
X181172143Y-90126019D01*
X181172143Y-90126019D02*
X180576905Y-90221257D01*
X181529286Y-89887924D02*
X182005477Y-89887924D01*
X181707858Y-89554591D02*
X181707858Y-90411733D01*
X181707858Y-90411733D02*
X181767381Y-90506972D01*
X181767381Y-90506972D02*
X181886429Y-90554591D01*
X181886429Y-90554591D02*
X182005477Y-90554591D01*
X182303096Y-89887924D02*
X182600715Y-90554591D01*
X182898334Y-89887924D02*
X182600715Y-90554591D01*
X182600715Y-90554591D02*
X182481667Y-90792686D01*
X182481667Y-90792686D02*
X182422144Y-90840305D01*
X182422144Y-90840305D02*
X182303096Y-90887924D01*
X183374525Y-90459352D02*
X183434048Y-90506972D01*
X183434048Y-90506972D02*
X183374525Y-90554591D01*
X183374525Y-90554591D02*
X183315001Y-90506972D01*
X183315001Y-90506972D02*
X183374525Y-90459352D01*
X183374525Y-90459352D02*
X183374525Y-90554591D01*
X184505477Y-90506972D02*
X184386429Y-90554591D01*
X184386429Y-90554591D02*
X184148334Y-90554591D01*
X184148334Y-90554591D02*
X184029286Y-90506972D01*
X184029286Y-90506972D02*
X183969763Y-90459352D01*
X183969763Y-90459352D02*
X183910239Y-90364114D01*
X183910239Y-90364114D02*
X183910239Y-90078400D01*
X183910239Y-90078400D02*
X183969763Y-89983162D01*
X183969763Y-89983162D02*
X184029286Y-89935543D01*
X184029286Y-89935543D02*
X184148334Y-89887924D01*
X184148334Y-89887924D02*
X184386429Y-89887924D01*
X184386429Y-89887924D02*
X184505477Y-89935543D01*
X185219763Y-90554591D02*
X185100715Y-90506972D01*
X185100715Y-90506972D02*
X185041192Y-90459352D01*
X185041192Y-90459352D02*
X184981668Y-90364114D01*
X184981668Y-90364114D02*
X184981668Y-90078400D01*
X184981668Y-90078400D02*
X185041192Y-89983162D01*
X185041192Y-89983162D02*
X185100715Y-89935543D01*
X185100715Y-89935543D02*
X185219763Y-89887924D01*
X185219763Y-89887924D02*
X185398334Y-89887924D01*
X185398334Y-89887924D02*
X185517382Y-89935543D01*
X185517382Y-89935543D02*
X185576906Y-89983162D01*
X185576906Y-89983162D02*
X185636430Y-90078400D01*
X185636430Y-90078400D02*
X185636430Y-90364114D01*
X185636430Y-90364114D02*
X185576906Y-90459352D01*
X185576906Y-90459352D02*
X185517382Y-90506972D01*
X185517382Y-90506972D02*
X185398334Y-90554591D01*
X185398334Y-90554591D02*
X185219763Y-90554591D01*
X186172144Y-90554591D02*
X186172144Y-89887924D01*
X186172144Y-89983162D02*
X186231667Y-89935543D01*
X186231667Y-89935543D02*
X186350715Y-89887924D01*
X186350715Y-89887924D02*
X186529286Y-89887924D01*
X186529286Y-89887924D02*
X186648334Y-89935543D01*
X186648334Y-89935543D02*
X186707858Y-90030781D01*
X186707858Y-90030781D02*
X186707858Y-90554591D01*
X186707858Y-90030781D02*
X186767382Y-89935543D01*
X186767382Y-89935543D02*
X186886429Y-89887924D01*
X186886429Y-89887924D02*
X187065001Y-89887924D01*
X187065001Y-89887924D02*
X187184048Y-89935543D01*
X187184048Y-89935543D02*
X187243572Y-90030781D01*
X187243572Y-90030781D02*
X187243572Y-90554591D01*
X167690000Y-95289184D02*
X167630476Y-95336804D01*
X167630476Y-95336804D02*
X167451905Y-95384423D01*
X167451905Y-95384423D02*
X167332857Y-95384423D01*
X167332857Y-95384423D02*
X167154286Y-95336804D01*
X167154286Y-95336804D02*
X167035238Y-95241565D01*
X167035238Y-95241565D02*
X166975715Y-95146327D01*
X166975715Y-95146327D02*
X166916191Y-94955851D01*
X166916191Y-94955851D02*
X166916191Y-94812994D01*
X166916191Y-94812994D02*
X166975715Y-94622518D01*
X166975715Y-94622518D02*
X167035238Y-94527280D01*
X167035238Y-94527280D02*
X167154286Y-94432042D01*
X167154286Y-94432042D02*
X167332857Y-94384423D01*
X167332857Y-94384423D02*
X167451905Y-94384423D01*
X167451905Y-94384423D02*
X167630476Y-94432042D01*
X167630476Y-94432042D02*
X167690000Y-94479661D01*
X168225715Y-95384423D02*
X168225715Y-94384423D01*
X168761429Y-95384423D02*
X168761429Y-94860613D01*
X168761429Y-94860613D02*
X168701905Y-94765375D01*
X168701905Y-94765375D02*
X168582857Y-94717756D01*
X168582857Y-94717756D02*
X168404286Y-94717756D01*
X168404286Y-94717756D02*
X168285238Y-94765375D01*
X168285238Y-94765375D02*
X168225715Y-94812994D01*
X169892381Y-94717756D02*
X169892381Y-95384423D01*
X169356667Y-94717756D02*
X169356667Y-95241565D01*
X169356667Y-95241565D02*
X169416190Y-95336804D01*
X169416190Y-95336804D02*
X169535238Y-95384423D01*
X169535238Y-95384423D02*
X169713809Y-95384423D01*
X169713809Y-95384423D02*
X169832857Y-95336804D01*
X169832857Y-95336804D02*
X169892381Y-95289184D01*
X171201904Y-95289184D02*
X171142380Y-95336804D01*
X171142380Y-95336804D02*
X170963809Y-95384423D01*
X170963809Y-95384423D02*
X170844761Y-95384423D01*
X170844761Y-95384423D02*
X170666190Y-95336804D01*
X170666190Y-95336804D02*
X170547142Y-95241565D01*
X170547142Y-95241565D02*
X170487619Y-95146327D01*
X170487619Y-95146327D02*
X170428095Y-94955851D01*
X170428095Y-94955851D02*
X170428095Y-94812994D01*
X170428095Y-94812994D02*
X170487619Y-94622518D01*
X170487619Y-94622518D02*
X170547142Y-94527280D01*
X170547142Y-94527280D02*
X170666190Y-94432042D01*
X170666190Y-94432042D02*
X170844761Y-94384423D01*
X170844761Y-94384423D02*
X170963809Y-94384423D01*
X170963809Y-94384423D02*
X171142380Y-94432042D01*
X171142380Y-94432042D02*
X171201904Y-94479661D01*
X171737619Y-95384423D02*
X171737619Y-94384423D01*
X172273333Y-95384423D02*
X172273333Y-94860613D01*
X172273333Y-94860613D02*
X172213809Y-94765375D01*
X172213809Y-94765375D02*
X172094761Y-94717756D01*
X172094761Y-94717756D02*
X171916190Y-94717756D01*
X171916190Y-94717756D02*
X171797142Y-94765375D01*
X171797142Y-94765375D02*
X171737619Y-94812994D01*
X173404285Y-94717756D02*
X173404285Y-95384423D01*
X172868571Y-94717756D02*
X172868571Y-95241565D01*
X172868571Y-95241565D02*
X172928094Y-95336804D01*
X172928094Y-95336804D02*
X173047142Y-95384423D01*
X173047142Y-95384423D02*
X173225713Y-95384423D01*
X173225713Y-95384423D02*
X173344761Y-95336804D01*
X173344761Y-95336804D02*
X173404285Y-95289184D01*
X151410238Y-96708652D02*
X152005476Y-96708652D01*
X151291190Y-96994367D02*
X151707857Y-95994367D01*
X151707857Y-95994367D02*
X152124523Y-96994367D01*
X152719762Y-96994367D02*
X152600714Y-96946748D01*
X152600714Y-96946748D02*
X152541191Y-96851509D01*
X152541191Y-96851509D02*
X152541191Y-95994367D01*
X153672143Y-96946748D02*
X153553095Y-96994367D01*
X153553095Y-96994367D02*
X153315000Y-96994367D01*
X153315000Y-96994367D02*
X153195953Y-96946748D01*
X153195953Y-96946748D02*
X153136429Y-96851509D01*
X153136429Y-96851509D02*
X153136429Y-96470557D01*
X153136429Y-96470557D02*
X153195953Y-96375319D01*
X153195953Y-96375319D02*
X153315000Y-96327700D01*
X153315000Y-96327700D02*
X153553095Y-96327700D01*
X153553095Y-96327700D02*
X153672143Y-96375319D01*
X153672143Y-96375319D02*
X153731667Y-96470557D01*
X153731667Y-96470557D02*
X153731667Y-96565795D01*
X153731667Y-96565795D02*
X153136429Y-96661033D01*
X154148334Y-96994367D02*
X154803096Y-96327700D01*
X154148334Y-96327700D02*
X154803096Y-96994367D01*
X155219763Y-96946748D02*
X155338810Y-96994367D01*
X155338810Y-96994367D02*
X155576906Y-96994367D01*
X155576906Y-96994367D02*
X155695953Y-96946748D01*
X155695953Y-96946748D02*
X155755477Y-96851509D01*
X155755477Y-96851509D02*
X155755477Y-96803890D01*
X155755477Y-96803890D02*
X155695953Y-96708652D01*
X155695953Y-96708652D02*
X155576906Y-96661033D01*
X155576906Y-96661033D02*
X155398334Y-96661033D01*
X155398334Y-96661033D02*
X155279287Y-96613414D01*
X155279287Y-96613414D02*
X155219763Y-96518176D01*
X155219763Y-96518176D02*
X155219763Y-96470557D01*
X155219763Y-96470557D02*
X155279287Y-96375319D01*
X155279287Y-96375319D02*
X155398334Y-96327700D01*
X155398334Y-96327700D02*
X155576906Y-96327700D01*
X155576906Y-96327700D02*
X155695953Y-96375319D01*
X156826906Y-96994367D02*
X156826906Y-96470557D01*
X156826906Y-96470557D02*
X156767382Y-96375319D01*
X156767382Y-96375319D02*
X156648334Y-96327700D01*
X156648334Y-96327700D02*
X156410239Y-96327700D01*
X156410239Y-96327700D02*
X156291192Y-96375319D01*
X156826906Y-96946748D02*
X156707858Y-96994367D01*
X156707858Y-96994367D02*
X156410239Y-96994367D01*
X156410239Y-96994367D02*
X156291192Y-96946748D01*
X156291192Y-96946748D02*
X156231668Y-96851509D01*
X156231668Y-96851509D02*
X156231668Y-96756271D01*
X156231668Y-96756271D02*
X156291192Y-96661033D01*
X156291192Y-96661033D02*
X156410239Y-96613414D01*
X156410239Y-96613414D02*
X156707858Y-96613414D01*
X156707858Y-96613414D02*
X156826906Y-96565795D01*
X157422144Y-96327700D02*
X157422144Y-96994367D01*
X157422144Y-96422938D02*
X157481667Y-96375319D01*
X157481667Y-96375319D02*
X157600715Y-96327700D01*
X157600715Y-96327700D02*
X157779286Y-96327700D01*
X157779286Y-96327700D02*
X157898334Y-96375319D01*
X157898334Y-96375319D02*
X157957858Y-96470557D01*
X157957858Y-96470557D02*
X157957858Y-96994367D01*
X159088810Y-96994367D02*
X159088810Y-95994367D01*
X159088810Y-96946748D02*
X158969762Y-96994367D01*
X158969762Y-96994367D02*
X158731667Y-96994367D01*
X158731667Y-96994367D02*
X158612619Y-96946748D01*
X158612619Y-96946748D02*
X158553096Y-96899128D01*
X158553096Y-96899128D02*
X158493572Y-96803890D01*
X158493572Y-96803890D02*
X158493572Y-96518176D01*
X158493572Y-96518176D02*
X158553096Y-96422938D01*
X158553096Y-96422938D02*
X158612619Y-96375319D01*
X158612619Y-96375319D02*
X158731667Y-96327700D01*
X158731667Y-96327700D02*
X158969762Y-96327700D01*
X158969762Y-96327700D02*
X159088810Y-96375319D01*
X159684048Y-96994367D02*
X159684048Y-96327700D01*
X159684048Y-96518176D02*
X159743571Y-96422938D01*
X159743571Y-96422938D02*
X159803095Y-96375319D01*
X159803095Y-96375319D02*
X159922143Y-96327700D01*
X159922143Y-96327700D02*
X160041190Y-96327700D01*
X160457858Y-96899128D02*
X160517381Y-96946748D01*
X160517381Y-96946748D02*
X160457858Y-96994367D01*
X160457858Y-96994367D02*
X160398334Y-96946748D01*
X160398334Y-96946748D02*
X160457858Y-96899128D01*
X160457858Y-96899128D02*
X160457858Y-96994367D01*
X161767381Y-96899128D02*
X161707857Y-96946748D01*
X161707857Y-96946748D02*
X161529286Y-96994367D01*
X161529286Y-96994367D02*
X161410238Y-96994367D01*
X161410238Y-96994367D02*
X161231667Y-96946748D01*
X161231667Y-96946748D02*
X161112619Y-96851509D01*
X161112619Y-96851509D02*
X161053096Y-96756271D01*
X161053096Y-96756271D02*
X160993572Y-96565795D01*
X160993572Y-96565795D02*
X160993572Y-96422938D01*
X160993572Y-96422938D02*
X161053096Y-96232462D01*
X161053096Y-96232462D02*
X161112619Y-96137224D01*
X161112619Y-96137224D02*
X161231667Y-96041986D01*
X161231667Y-96041986D02*
X161410238Y-95994367D01*
X161410238Y-95994367D02*
X161529286Y-95994367D01*
X161529286Y-95994367D02*
X161707857Y-96041986D01*
X161707857Y-96041986D02*
X161767381Y-96089605D01*
X162303096Y-96994367D02*
X162303096Y-95994367D01*
X162838810Y-96994367D02*
X162838810Y-96470557D01*
X162838810Y-96470557D02*
X162779286Y-96375319D01*
X162779286Y-96375319D02*
X162660238Y-96327700D01*
X162660238Y-96327700D02*
X162481667Y-96327700D01*
X162481667Y-96327700D02*
X162362619Y-96375319D01*
X162362619Y-96375319D02*
X162303096Y-96422938D01*
X163969762Y-96327700D02*
X163969762Y-96994367D01*
X163434048Y-96327700D02*
X163434048Y-96851509D01*
X163434048Y-96851509D02*
X163493571Y-96946748D01*
X163493571Y-96946748D02*
X163612619Y-96994367D01*
X163612619Y-96994367D02*
X163791190Y-96994367D01*
X163791190Y-96994367D02*
X163910238Y-96946748D01*
X163910238Y-96946748D02*
X163969762Y-96899128D01*
X165100714Y-96946748D02*
X164981666Y-96994367D01*
X164981666Y-96994367D02*
X164743571Y-96994367D01*
X164743571Y-96994367D02*
X164624523Y-96946748D01*
X164624523Y-96946748D02*
X164565000Y-96899128D01*
X164565000Y-96899128D02*
X164505476Y-96803890D01*
X164505476Y-96803890D02*
X164505476Y-96518176D01*
X164505476Y-96518176D02*
X164565000Y-96422938D01*
X164565000Y-96422938D02*
X164624523Y-96375319D01*
X164624523Y-96375319D02*
X164743571Y-96327700D01*
X164743571Y-96327700D02*
X164981666Y-96327700D01*
X164981666Y-96327700D02*
X165100714Y-96375319D01*
X165636429Y-96994367D02*
X165636429Y-95994367D01*
X166172143Y-96994367D02*
X166172143Y-96470557D01*
X166172143Y-96470557D02*
X166112619Y-96375319D01*
X166112619Y-96375319D02*
X165993571Y-96327700D01*
X165993571Y-96327700D02*
X165815000Y-96327700D01*
X165815000Y-96327700D02*
X165695952Y-96375319D01*
X165695952Y-96375319D02*
X165636429Y-96422938D01*
X167303095Y-96327700D02*
X167303095Y-96994367D01*
X166767381Y-96327700D02*
X166767381Y-96851509D01*
X166767381Y-96851509D02*
X166826904Y-96946748D01*
X166826904Y-96946748D02*
X166945952Y-96994367D01*
X166945952Y-96994367D02*
X167124523Y-96994367D01*
X167124523Y-96994367D02*
X167243571Y-96946748D01*
X167243571Y-96946748D02*
X167303095Y-96899128D01*
X167898333Y-96327700D02*
X167898333Y-97327700D01*
X167898333Y-96375319D02*
X168017380Y-96327700D01*
X168017380Y-96327700D02*
X168255475Y-96327700D01*
X168255475Y-96327700D02*
X168374523Y-96375319D01*
X168374523Y-96375319D02*
X168434047Y-96422938D01*
X168434047Y-96422938D02*
X168493571Y-96518176D01*
X168493571Y-96518176D02*
X168493571Y-96803890D01*
X168493571Y-96803890D02*
X168434047Y-96899128D01*
X168434047Y-96899128D02*
X168374523Y-96946748D01*
X168374523Y-96946748D02*
X168255475Y-96994367D01*
X168255475Y-96994367D02*
X168017380Y-96994367D01*
X168017380Y-96994367D02*
X167898333Y-96946748D01*
X169564999Y-96994367D02*
X169564999Y-96470557D01*
X169564999Y-96470557D02*
X169505475Y-96375319D01*
X169505475Y-96375319D02*
X169386427Y-96327700D01*
X169386427Y-96327700D02*
X169148332Y-96327700D01*
X169148332Y-96327700D02*
X169029285Y-96375319D01*
X169564999Y-96946748D02*
X169445951Y-96994367D01*
X169445951Y-96994367D02*
X169148332Y-96994367D01*
X169148332Y-96994367D02*
X169029285Y-96946748D01*
X169029285Y-96946748D02*
X168969761Y-96851509D01*
X168969761Y-96851509D02*
X168969761Y-96756271D01*
X168969761Y-96756271D02*
X169029285Y-96661033D01*
X169029285Y-96661033D02*
X169148332Y-96613414D01*
X169148332Y-96613414D02*
X169445951Y-96613414D01*
X169445951Y-96613414D02*
X169564999Y-96565795D01*
X170338808Y-96994367D02*
X170219760Y-96946748D01*
X170219760Y-96946748D02*
X170160237Y-96851509D01*
X170160237Y-96851509D02*
X170160237Y-95994367D01*
X170993570Y-96994367D02*
X170874522Y-96946748D01*
X170874522Y-96946748D02*
X170814999Y-96899128D01*
X170814999Y-96899128D02*
X170755475Y-96803890D01*
X170755475Y-96803890D02*
X170755475Y-96518176D01*
X170755475Y-96518176D02*
X170814999Y-96422938D01*
X170814999Y-96422938D02*
X170874522Y-96375319D01*
X170874522Y-96375319D02*
X170993570Y-96327700D01*
X170993570Y-96327700D02*
X171172141Y-96327700D01*
X171172141Y-96327700D02*
X171291189Y-96375319D01*
X171291189Y-96375319D02*
X171350713Y-96422938D01*
X171350713Y-96422938D02*
X171410237Y-96518176D01*
X171410237Y-96518176D02*
X171410237Y-96803890D01*
X171410237Y-96803890D02*
X171350713Y-96899128D01*
X171350713Y-96899128D02*
X171291189Y-96946748D01*
X171291189Y-96946748D02*
X171172141Y-96994367D01*
X171172141Y-96994367D02*
X170993570Y-96994367D01*
X171826903Y-96327700D02*
X172124522Y-96994367D01*
X172124522Y-96994367D02*
X172422141Y-96327700D01*
X173672141Y-96518176D02*
X173612617Y-96470557D01*
X173612617Y-96470557D02*
X173493570Y-96422938D01*
X173493570Y-96422938D02*
X173374522Y-96422938D01*
X173374522Y-96422938D02*
X173255474Y-96470557D01*
X173255474Y-96470557D02*
X173195951Y-96518176D01*
X173195951Y-96518176D02*
X173136427Y-96613414D01*
X173136427Y-96613414D02*
X173136427Y-96708652D01*
X173136427Y-96708652D02*
X173195951Y-96803890D01*
X173195951Y-96803890D02*
X173255474Y-96851509D01*
X173255474Y-96851509D02*
X173374522Y-96899128D01*
X173374522Y-96899128D02*
X173493570Y-96899128D01*
X173493570Y-96899128D02*
X173612617Y-96851509D01*
X173612617Y-96851509D02*
X173672141Y-96803890D01*
X173672141Y-96422938D02*
X173672141Y-96803890D01*
X173672141Y-96803890D02*
X173731665Y-96851509D01*
X173731665Y-96851509D02*
X173791189Y-96851509D01*
X173791189Y-96851509D02*
X173910236Y-96803890D01*
X173910236Y-96803890D02*
X173969760Y-96708652D01*
X173969760Y-96708652D02*
X173969760Y-96470557D01*
X173969760Y-96470557D02*
X173850713Y-96327700D01*
X173850713Y-96327700D02*
X173672141Y-96232462D01*
X173672141Y-96232462D02*
X173434046Y-96184843D01*
X173434046Y-96184843D02*
X173195951Y-96232462D01*
X173195951Y-96232462D02*
X173017379Y-96327700D01*
X173017379Y-96327700D02*
X172898332Y-96470557D01*
X172898332Y-96470557D02*
X172838808Y-96661033D01*
X172838808Y-96661033D02*
X172898332Y-96851509D01*
X172898332Y-96851509D02*
X173017379Y-96994367D01*
X173017379Y-96994367D02*
X173195951Y-97089605D01*
X173195951Y-97089605D02*
X173434046Y-97137224D01*
X173434046Y-97137224D02*
X173672141Y-97089605D01*
X173672141Y-97089605D02*
X173850713Y-96994367D01*
X174326903Y-96327700D02*
X174803094Y-96327700D01*
X174505475Y-96994367D02*
X174505475Y-96137224D01*
X174505475Y-96137224D02*
X174564998Y-96041986D01*
X174564998Y-96041986D02*
X174684046Y-95994367D01*
X174684046Y-95994367D02*
X174803094Y-95994367D01*
X175398332Y-96994367D02*
X175279284Y-96946748D01*
X175279284Y-96946748D02*
X175219761Y-96851509D01*
X175219761Y-96851509D02*
X175219761Y-95994367D01*
X175874523Y-96994367D02*
X175874523Y-96327700D01*
X175874523Y-95994367D02*
X175814999Y-96041986D01*
X175814999Y-96041986D02*
X175874523Y-96089605D01*
X175874523Y-96089605D02*
X175934046Y-96041986D01*
X175934046Y-96041986D02*
X175874523Y-95994367D01*
X175874523Y-95994367D02*
X175874523Y-96089605D01*
X177005475Y-96327700D02*
X177005475Y-97137224D01*
X177005475Y-97137224D02*
X176945951Y-97232462D01*
X176945951Y-97232462D02*
X176886427Y-97280081D01*
X176886427Y-97280081D02*
X176767380Y-97327700D01*
X176767380Y-97327700D02*
X176588808Y-97327700D01*
X176588808Y-97327700D02*
X176469761Y-97280081D01*
X177005475Y-96946748D02*
X176886427Y-96994367D01*
X176886427Y-96994367D02*
X176648332Y-96994367D01*
X176648332Y-96994367D02*
X176529284Y-96946748D01*
X176529284Y-96946748D02*
X176469761Y-96899128D01*
X176469761Y-96899128D02*
X176410237Y-96803890D01*
X176410237Y-96803890D02*
X176410237Y-96518176D01*
X176410237Y-96518176D02*
X176469761Y-96422938D01*
X176469761Y-96422938D02*
X176529284Y-96375319D01*
X176529284Y-96375319D02*
X176648332Y-96327700D01*
X176648332Y-96327700D02*
X176886427Y-96327700D01*
X176886427Y-96327700D02*
X177005475Y-96375319D01*
X177600713Y-96994367D02*
X177600713Y-95994367D01*
X178136427Y-96994367D02*
X178136427Y-96470557D01*
X178136427Y-96470557D02*
X178076903Y-96375319D01*
X178076903Y-96375319D02*
X177957855Y-96327700D01*
X177957855Y-96327700D02*
X177779284Y-96327700D01*
X177779284Y-96327700D02*
X177660236Y-96375319D01*
X177660236Y-96375319D02*
X177600713Y-96422938D01*
X178553093Y-96327700D02*
X179029284Y-96327700D01*
X178731665Y-95994367D02*
X178731665Y-96851509D01*
X178731665Y-96851509D02*
X178791188Y-96946748D01*
X178791188Y-96946748D02*
X178910236Y-96994367D01*
X178910236Y-96994367D02*
X179029284Y-96994367D01*
X179386427Y-96946748D02*
X179505474Y-96994367D01*
X179505474Y-96994367D02*
X179743570Y-96994367D01*
X179743570Y-96994367D02*
X179862617Y-96946748D01*
X179862617Y-96946748D02*
X179922141Y-96851509D01*
X179922141Y-96851509D02*
X179922141Y-96803890D01*
X179922141Y-96803890D02*
X179862617Y-96708652D01*
X179862617Y-96708652D02*
X179743570Y-96661033D01*
X179743570Y-96661033D02*
X179564998Y-96661033D01*
X179564998Y-96661033D02*
X179445951Y-96613414D01*
X179445951Y-96613414D02*
X179386427Y-96518176D01*
X179386427Y-96518176D02*
X179386427Y-96470557D01*
X179386427Y-96470557D02*
X179445951Y-96375319D01*
X179445951Y-96375319D02*
X179564998Y-96327700D01*
X179564998Y-96327700D02*
X179743570Y-96327700D01*
X179743570Y-96327700D02*
X179862617Y-96375319D01*
X180993570Y-96994367D02*
X180993570Y-96470557D01*
X180993570Y-96470557D02*
X180934046Y-96375319D01*
X180934046Y-96375319D02*
X180814998Y-96327700D01*
X180814998Y-96327700D02*
X180576903Y-96327700D01*
X180576903Y-96327700D02*
X180457856Y-96375319D01*
X180993570Y-96946748D02*
X180874522Y-96994367D01*
X180874522Y-96994367D02*
X180576903Y-96994367D01*
X180576903Y-96994367D02*
X180457856Y-96946748D01*
X180457856Y-96946748D02*
X180398332Y-96851509D01*
X180398332Y-96851509D02*
X180398332Y-96756271D01*
X180398332Y-96756271D02*
X180457856Y-96661033D01*
X180457856Y-96661033D02*
X180576903Y-96613414D01*
X180576903Y-96613414D02*
X180874522Y-96613414D01*
X180874522Y-96613414D02*
X180993570Y-96565795D01*
X181410236Y-96327700D02*
X181886427Y-96327700D01*
X181588808Y-96994367D02*
X181588808Y-96137224D01*
X181588808Y-96137224D02*
X181648331Y-96041986D01*
X181648331Y-96041986D02*
X181767379Y-95994367D01*
X181767379Y-95994367D02*
X181886427Y-95994367D01*
X182779284Y-96946748D02*
X182660236Y-96994367D01*
X182660236Y-96994367D02*
X182422141Y-96994367D01*
X182422141Y-96994367D02*
X182303094Y-96946748D01*
X182303094Y-96946748D02*
X182243570Y-96851509D01*
X182243570Y-96851509D02*
X182243570Y-96470557D01*
X182243570Y-96470557D02*
X182303094Y-96375319D01*
X182303094Y-96375319D02*
X182422141Y-96327700D01*
X182422141Y-96327700D02*
X182660236Y-96327700D01*
X182660236Y-96327700D02*
X182779284Y-96375319D01*
X182779284Y-96375319D02*
X182838808Y-96470557D01*
X182838808Y-96470557D02*
X182838808Y-96565795D01*
X182838808Y-96565795D02*
X182243570Y-96661033D01*
X183195951Y-96327700D02*
X183672142Y-96327700D01*
X183374523Y-95994367D02*
X183374523Y-96851509D01*
X183374523Y-96851509D02*
X183434046Y-96946748D01*
X183434046Y-96946748D02*
X183553094Y-96994367D01*
X183553094Y-96994367D02*
X183672142Y-96994367D01*
X183969761Y-96327700D02*
X184267380Y-96994367D01*
X184564999Y-96327700D02*
X184267380Y-96994367D01*
X184267380Y-96994367D02*
X184148332Y-97232462D01*
X184148332Y-97232462D02*
X184088809Y-97280081D01*
X184088809Y-97280081D02*
X183969761Y-97327700D01*
X185041190Y-96899128D02*
X185100713Y-96946748D01*
X185100713Y-96946748D02*
X185041190Y-96994367D01*
X185041190Y-96994367D02*
X184981666Y-96946748D01*
X184981666Y-96946748D02*
X185041190Y-96899128D01*
X185041190Y-96899128D02*
X185041190Y-96994367D01*
X186172142Y-96946748D02*
X186053094Y-96994367D01*
X186053094Y-96994367D02*
X185814999Y-96994367D01*
X185814999Y-96994367D02*
X185695951Y-96946748D01*
X185695951Y-96946748D02*
X185636428Y-96899128D01*
X185636428Y-96899128D02*
X185576904Y-96803890D01*
X185576904Y-96803890D02*
X185576904Y-96518176D01*
X185576904Y-96518176D02*
X185636428Y-96422938D01*
X185636428Y-96422938D02*
X185695951Y-96375319D01*
X185695951Y-96375319D02*
X185814999Y-96327700D01*
X185814999Y-96327700D02*
X186053094Y-96327700D01*
X186053094Y-96327700D02*
X186172142Y-96375319D01*
X186886428Y-96994367D02*
X186767380Y-96946748D01*
X186767380Y-96946748D02*
X186707857Y-96899128D01*
X186707857Y-96899128D02*
X186648333Y-96803890D01*
X186648333Y-96803890D02*
X186648333Y-96518176D01*
X186648333Y-96518176D02*
X186707857Y-96422938D01*
X186707857Y-96422938D02*
X186767380Y-96375319D01*
X186767380Y-96375319D02*
X186886428Y-96327700D01*
X186886428Y-96327700D02*
X187064999Y-96327700D01*
X187064999Y-96327700D02*
X187184047Y-96375319D01*
X187184047Y-96375319D02*
X187243571Y-96422938D01*
X187243571Y-96422938D02*
X187303095Y-96518176D01*
X187303095Y-96518176D02*
X187303095Y-96803890D01*
X187303095Y-96803890D02*
X187243571Y-96899128D01*
X187243571Y-96899128D02*
X187184047Y-96946748D01*
X187184047Y-96946748D02*
X187064999Y-96994367D01*
X187064999Y-96994367D02*
X186886428Y-96994367D01*
X187838809Y-96994367D02*
X187838809Y-96327700D01*
X187838809Y-96422938D02*
X187898332Y-96375319D01*
X187898332Y-96375319D02*
X188017380Y-96327700D01*
X188017380Y-96327700D02*
X188195951Y-96327700D01*
X188195951Y-96327700D02*
X188314999Y-96375319D01*
X188314999Y-96375319D02*
X188374523Y-96470557D01*
X188374523Y-96470557D02*
X188374523Y-96994367D01*
X188374523Y-96470557D02*
X188434047Y-96375319D01*
X188434047Y-96375319D02*
X188553094Y-96327700D01*
X188553094Y-96327700D02*
X188731666Y-96327700D01*
X188731666Y-96327700D02*
X188850713Y-96375319D01*
X188850713Y-96375319D02*
X188910237Y-96470557D01*
X188910237Y-96470557D02*
X188910237Y-96994367D01*
D11*
X183119166Y-71684819D02*
X183119166Y-72399104D01*
X183119166Y-72399104D02*
X183071547Y-72541961D01*
X183071547Y-72541961D02*
X182976309Y-72637200D01*
X182976309Y-72637200D02*
X182833452Y-72684819D01*
X182833452Y-72684819D02*
X182738214Y-72684819D01*
X184119166Y-72684819D02*
X183547738Y-72684819D01*
X183833452Y-72684819D02*
X183833452Y-71684819D01*
X183833452Y-71684819D02*
X183738214Y-71827676D01*
X183738214Y-71827676D02*
X183642976Y-71922914D01*
X183642976Y-71922914D02*
X183547738Y-71970533D01*
X121420000Y-70072128D02*
X121420000Y-71143557D01*
X121420000Y-71143557D02*
X121348571Y-71357842D01*
X121348571Y-71357842D02*
X121205714Y-71500700D01*
X121205714Y-71500700D02*
X120991428Y-71572128D01*
X120991428Y-71572128D02*
X120848571Y-71572128D01*
X122062857Y-70214985D02*
X122134285Y-70143557D01*
X122134285Y-70143557D02*
X122277143Y-70072128D01*
X122277143Y-70072128D02*
X122634285Y-70072128D01*
X122634285Y-70072128D02*
X122777143Y-70143557D01*
X122777143Y-70143557D02*
X122848571Y-70214985D01*
X122848571Y-70214985D02*
X122920000Y-70357842D01*
X122920000Y-70357842D02*
X122920000Y-70500700D01*
X122920000Y-70500700D02*
X122848571Y-70714985D01*
X122848571Y-70714985D02*
X121991428Y-71572128D01*
X121991428Y-71572128D02*
X122920000Y-71572128D01*
X107133267Y-75124820D02*
X107133267Y-75839105D01*
X107133267Y-75839105D02*
X107085648Y-75981962D01*
X107085648Y-75981962D02*
X106990410Y-76077201D01*
X106990410Y-76077201D02*
X106847553Y-76124820D01*
X106847553Y-76124820D02*
X106752315Y-76124820D01*
X107514220Y-75124820D02*
X108133267Y-75124820D01*
X108133267Y-75124820D02*
X107799934Y-75505772D01*
X107799934Y-75505772D02*
X107942791Y-75505772D01*
X107942791Y-75505772D02*
X108038029Y-75553391D01*
X108038029Y-75553391D02*
X108085648Y-75601010D01*
X108085648Y-75601010D02*
X108133267Y-75696248D01*
X108133267Y-75696248D02*
X108133267Y-75934343D01*
X108133267Y-75934343D02*
X108085648Y-76029581D01*
X108085648Y-76029581D02*
X108038029Y-76077201D01*
X108038029Y-76077201D02*
X107942791Y-76124820D01*
X107942791Y-76124820D02*
X107657077Y-76124820D01*
X107657077Y-76124820D02*
X107561839Y-76077201D01*
X107561839Y-76077201D02*
X107514220Y-76029581D01*
X151033333Y-77229580D02*
X150985714Y-77277200D01*
X150985714Y-77277200D02*
X150842857Y-77324819D01*
X150842857Y-77324819D02*
X150747619Y-77324819D01*
X150747619Y-77324819D02*
X150604762Y-77277200D01*
X150604762Y-77277200D02*
X150509524Y-77181961D01*
X150509524Y-77181961D02*
X150461905Y-77086723D01*
X150461905Y-77086723D02*
X150414286Y-76896247D01*
X150414286Y-76896247D02*
X150414286Y-76753390D01*
X150414286Y-76753390D02*
X150461905Y-76562914D01*
X150461905Y-76562914D02*
X150509524Y-76467676D01*
X150509524Y-76467676D02*
X150604762Y-76372438D01*
X150604762Y-76372438D02*
X150747619Y-76324819D01*
X150747619Y-76324819D02*
X150842857Y-76324819D01*
X150842857Y-76324819D02*
X150985714Y-76372438D01*
X150985714Y-76372438D02*
X151033333Y-76420057D01*
X151890476Y-76658152D02*
X151890476Y-77324819D01*
X151652381Y-76277200D02*
X151414286Y-76991485D01*
X151414286Y-76991485D02*
X152033333Y-76991485D01*
X122316666Y-89814819D02*
X122316666Y-90529104D01*
X122316666Y-90529104D02*
X122269047Y-90671961D01*
X122269047Y-90671961D02*
X122173809Y-90767200D01*
X122173809Y-90767200D02*
X122030952Y-90814819D01*
X122030952Y-90814819D02*
X121935714Y-90814819D01*
X123221428Y-89814819D02*
X123030952Y-89814819D01*
X123030952Y-89814819D02*
X122935714Y-89862438D01*
X122935714Y-89862438D02*
X122888095Y-89910057D01*
X122888095Y-89910057D02*
X122792857Y-90052914D01*
X122792857Y-90052914D02*
X122745238Y-90243390D01*
X122745238Y-90243390D02*
X122745238Y-90624342D01*
X122745238Y-90624342D02*
X122792857Y-90719580D01*
X122792857Y-90719580D02*
X122840476Y-90767200D01*
X122840476Y-90767200D02*
X122935714Y-90814819D01*
X122935714Y-90814819D02*
X123126190Y-90814819D01*
X123126190Y-90814819D02*
X123221428Y-90767200D01*
X123221428Y-90767200D02*
X123269047Y-90719580D01*
X123269047Y-90719580D02*
X123316666Y-90624342D01*
X123316666Y-90624342D02*
X123316666Y-90386247D01*
X123316666Y-90386247D02*
X123269047Y-90291009D01*
X123269047Y-90291009D02*
X123221428Y-90243390D01*
X123221428Y-90243390D02*
X123126190Y-90195771D01*
X123126190Y-90195771D02*
X122935714Y-90195771D01*
X122935714Y-90195771D02*
X122840476Y-90243390D01*
X122840476Y-90243390D02*
X122792857Y-90291009D01*
X122792857Y-90291009D02*
X122745238Y-90386247D01*
D12*
X141903333Y-77226980D02*
X141855714Y-77274600D01*
X141855714Y-77274600D02*
X141712857Y-77322219D01*
X141712857Y-77322219D02*
X141617619Y-77322219D01*
X141617619Y-77322219D02*
X141474762Y-77274600D01*
X141474762Y-77274600D02*
X141379524Y-77179361D01*
X141379524Y-77179361D02*
X141331905Y-77084123D01*
X141331905Y-77084123D02*
X141284286Y-76893647D01*
X141284286Y-76893647D02*
X141284286Y-76750790D01*
X141284286Y-76750790D02*
X141331905Y-76560314D01*
X141331905Y-76560314D02*
X141379524Y-76465076D01*
X141379524Y-76465076D02*
X141474762Y-76369838D01*
X141474762Y-76369838D02*
X141617619Y-76322219D01*
X141617619Y-76322219D02*
X141712857Y-76322219D01*
X141712857Y-76322219D02*
X141855714Y-76369838D01*
X141855714Y-76369838D02*
X141903333Y-76417457D01*
X142808095Y-76322219D02*
X142331905Y-76322219D01*
X142331905Y-76322219D02*
X142284286Y-76798409D01*
X142284286Y-76798409D02*
X142331905Y-76750790D01*
X142331905Y-76750790D02*
X142427143Y-76703171D01*
X142427143Y-76703171D02*
X142665238Y-76703171D01*
X142665238Y-76703171D02*
X142760476Y-76750790D01*
X142760476Y-76750790D02*
X142808095Y-76798409D01*
X142808095Y-76798409D02*
X142855714Y-76893647D01*
X142855714Y-76893647D02*
X142855714Y-77131742D01*
X142855714Y-77131742D02*
X142808095Y-77226980D01*
X142808095Y-77226980D02*
X142760476Y-77274600D01*
X142760476Y-77274600D02*
X142665238Y-77322219D01*
X142665238Y-77322219D02*
X142427143Y-77322219D01*
X142427143Y-77322219D02*
X142331905Y-77274600D01*
X142331905Y-77274600D02*
X142284286Y-77226980D01*
D11*
X140247533Y-76932861D02*
X140247533Y-76323338D01*
X140552295Y-76628099D02*
X139942771Y-76628099D01*
D13*
%TO.C,J1*%
X177382500Y-65090000D02*
X189542500Y-65090000D01*
X177382500Y-77090000D02*
X177382500Y-65090000D01*
X177382500Y-77090000D02*
X189542500Y-77090000D01*
X189542500Y-65090000D02*
X189542500Y-77090000D01*
D12*
X190292500Y-75090000D02*
G75*
G02*
X190092500Y-75090000I-100000J0D01*
G01*
X190092500Y-75090000D02*
G75*
G02*
X190292500Y-75090000I100000J0D01*
G01*
D13*
%TO.C,J2*%
X113292500Y-65106000D02*
X130532500Y-65106000D01*
X113292500Y-77106000D02*
X113292500Y-65106000D01*
X113292500Y-77106000D02*
X130532500Y-77106000D01*
X130532500Y-65106000D02*
X130532500Y-77106000D01*
D12*
X131282500Y-75106000D02*
G75*
G02*
X131082500Y-75106000I-100000J0D01*
G01*
X131082500Y-75106000D02*
G75*
G02*
X131282500Y-75106000I100000J0D01*
G01*
D14*
%TO.C,J3*%
X105696001Y-71327801D02*
G75*
G02*
X104934001Y-71327801I-381000J0D01*
G01*
X104934001Y-71327801D02*
G75*
G02*
X105696001Y-71327801I381000J0D01*
G01*
D15*
X108667001Y-78100360D02*
X108667001Y-74359642D01*
X106605560Y-73105801D02*
X104806201Y-73105801D01*
X104806201Y-79354201D02*
X106605560Y-79354201D01*
X104806201Y-78367541D02*
X104806201Y-79354201D01*
X104806201Y-73105801D02*
X104806201Y-74092461D01*
D12*
%TO.C,C4*%
X149850000Y-76608100D02*
G75*
G02*
X149650000Y-76608100I-100000J0D01*
G01*
X149650000Y-76608100D02*
G75*
G02*
X149850000Y-76608100I100000J0D01*
G01*
D13*
X152250000Y-73358100D02*
G75*
G02*
X147250000Y-73358100I-2500000J0D01*
G01*
X147250000Y-73358100D02*
G75*
G02*
X152250000Y-73358100I2500000J0D01*
G01*
D14*
%TO.C,J6*%
X102052500Y-88620851D02*
G75*
G02*
X101290500Y-88620851I-381000J0D01*
G01*
X101290500Y-88620851D02*
G75*
G02*
X102052500Y-88620851I381000J0D01*
G01*
D15*
X141600300Y-101384650D02*
X141600300Y-88633851D01*
X141600300Y-88633851D02*
X134986058Y-88633851D01*
X132923742Y-88633851D02*
X132446058Y-88633851D01*
X130383742Y-88633851D02*
X129906058Y-88633851D01*
X127843742Y-88633851D02*
X127366058Y-88633851D01*
X125303742Y-88633851D02*
X124826058Y-88633851D01*
X122763742Y-88633851D02*
X122286058Y-88633851D01*
X120223742Y-88633851D02*
X119746058Y-88633851D01*
X117683742Y-88633851D02*
X117206058Y-88633851D01*
X115143742Y-88633851D02*
X114666058Y-88633851D01*
X112603742Y-88633851D02*
X112126058Y-88633851D01*
X110063742Y-88633851D02*
X103449500Y-88633851D01*
X103449500Y-101384650D02*
X141600300Y-101384650D01*
X103449500Y-88633851D02*
X103449500Y-101384650D01*
D12*
%TO.C,C5*%
X143390000Y-73328100D02*
G75*
G02*
X138190000Y-73328100I-2600000J0D01*
G01*
X138190000Y-73328100D02*
G75*
G02*
X143390000Y-73328100I2600000J0D01*
G01*
%TD*%
M02*
