%TF.GenerationSoftware,KiCad,Pcbnew,9.0.0*%
%TF.CreationDate,2025-05-02T07:07:21-06:00*%
%TF.ProjectId,schematic_Mk2.1,73636865-6d61-4746-9963-5f4d6b322e31,rev?*%
%TF.SameCoordinates,Original*%
%TF.FileFunction,Paste,Bot*%
%TF.FilePolarity,Positive*%
%FSLAX46Y46*%
G04 Gerber Fmt 4.6, Leading zero omitted, Abs format (unit mm)*
G04 Created by KiCad (PCBNEW 9.0.0) date 2025-05-02 07:07:21*
%MOMM*%
%LPD*%
G01*
G04 APERTURE LIST*
G04 Aperture macros list*
%AMRotRect*
0 Rectangle, with rotation*
0 The origin of the aperture is its center*
0 $1 length*
0 $2 width*
0 $3 Rotation angle, in degrees counterclockwise*
0 Add horizontal line*
21,1,$1,$2,0,0,$3*%
G04 Aperture macros list end*
%ADD10R,2.090000X1.390000*%
%ADD11R,0.609600X1.549400*%
%ADD12R,1.193800X1.803400*%
%ADD13R,1.170000X1.770000*%
%ADD14R,1.770000X1.170000*%
%ADD15R,1.050000X1.720000*%
%ADD16RotRect,1.050000X1.720000X45.000000*%
%ADD17R,2.209800X1.651000*%
%ADD18R,1.720000X1.050000*%
%ADD19R,0.890000X1.680000*%
%ADD20R,1.820000X1.200000*%
G04 APERTURE END LIST*
D10*
%TO.C,U2*%
X140740000Y-85890000D03*
X140740000Y-83350000D03*
X140740000Y-80810000D03*
X140740000Y-78270000D03*
X140740000Y-75730000D03*
X140740000Y-73190000D03*
X140740000Y-70650000D03*
X140740000Y-68110000D03*
X131660000Y-68110000D03*
X131660000Y-70650000D03*
X131660000Y-73190000D03*
X131660000Y-75730000D03*
X131660000Y-78270000D03*
X131660000Y-80810000D03*
X131660000Y-83350000D03*
X131660000Y-85890000D03*
%TD*%
D11*
%TO.C,J3*%
X164500000Y-81527600D03*
X163499999Y-81527600D03*
X162500001Y-81527600D03*
X161500000Y-81527600D03*
D12*
X165799999Y-79002601D03*
X160200001Y-79002601D03*
%TD*%
D13*
%TO.C,R18*%
X157706000Y-86906000D03*
X160694000Y-86906000D03*
%TD*%
D14*
%TO.C,R11*%
X166400000Y-105294000D03*
X166400000Y-102306000D03*
%TD*%
%TO.C,R13*%
X166400000Y-113294000D03*
X166400000Y-110306000D03*
%TD*%
D15*
%TO.C,R6*%
X121000000Y-81500000D03*
X123920000Y-81500000D03*
%TD*%
D16*
%TO.C,R8*%
X120467624Y-93532376D03*
X122532376Y-91467624D03*
%TD*%
D17*
%TO.C,D1*%
X112000000Y-103879100D03*
X112000000Y-108120900D03*
%TD*%
D18*
%TO.C,R1*%
X124500000Y-59580000D03*
X124500000Y-62500000D03*
%TD*%
D15*
%TO.C,R5*%
X121000000Y-77000000D03*
X123920000Y-77000000D03*
%TD*%
D19*
%TO.C,R4*%
X121045000Y-72000000D03*
X124035000Y-72000000D03*
%TD*%
D15*
%TO.C,R3*%
X121040000Y-67500000D03*
X123960000Y-67500000D03*
%TD*%
D13*
%TO.C,R17*%
X165506000Y-86906000D03*
X168494000Y-86906000D03*
%TD*%
D14*
%TO.C,R10*%
X159200000Y-92706000D03*
X159200000Y-95694000D03*
%TD*%
%TO.C,R9*%
X166400000Y-92800000D03*
X166400000Y-95788000D03*
%TD*%
%TO.C,R12*%
X159200000Y-105200000D03*
X159200000Y-102212000D03*
%TD*%
%TO.C,R14*%
X159200000Y-110306000D03*
X159200000Y-113294000D03*
%TD*%
%TO.C,R16*%
X166400000Y-120694000D03*
X166400000Y-117706000D03*
%TD*%
D18*
%TO.C,R2*%
X120000000Y-59580000D03*
X120000000Y-62500000D03*
%TD*%
D14*
%TO.C,R15*%
X159200000Y-120694000D03*
X159200000Y-117706000D03*
%TD*%
D20*
%TO.C,C3*%
X137800000Y-111540000D03*
X137800000Y-114460000D03*
%TD*%
D16*
%TO.C,R7*%
X116967624Y-90032376D03*
X119032376Y-87967624D03*
%TD*%
M02*
