%TF.GenerationSoftware,KiCad,Pcbnew,9.0.0*%
%TF.CreationDate,2025-05-02T07:07:21-06:00*%
%TF.ProjectId,schematic_Mk2.1,73636865-6d61-4746-9963-5f4d6b322e31,rev?*%
%TF.SameCoordinates,Original*%
%TF.FileFunction,Soldermask,Top*%
%TF.FilePolarity,Negative*%
%FSLAX46Y46*%
G04 Gerber Fmt 4.6, Leading zero omitted, Abs format (unit mm)*
G04 Created by KiCad (PCBNEW 9.0.0) date 2025-05-02 07:07:21*
%MOMM*%
%LPD*%
G01*
G04 APERTURE LIST*
G04 Aperture macros list*
%AMRoundRect*
0 Rectangle with rounded corners*
0 $1 Rounding radius*
0 $2 $3 $4 $5 $6 $7 $8 $9 X,Y pos of 4 corners*
0 Add a 4 corners polygon primitive as box body*
4,1,4,$2,$3,$4,$5,$6,$7,$8,$9,$2,$3,0*
0 Add four circle primitives for the rounded corners*
1,1,$1+$1,$2,$3*
1,1,$1+$1,$4,$5*
1,1,$1+$1,$6,$7*
1,1,$1+$1,$8,$9*
0 Add four rect primitives between the rounded corners*
20,1,$1+$1,$2,$3,$4,$5,0*
20,1,$1+$1,$4,$5,$6,$7,0*
20,1,$1+$1,$6,$7,$8,$9,0*
20,1,$1+$1,$8,$9,$2,$3,0*%
G04 Aperture macros list end*
%ADD10C,2.004000*%
%ADD11C,1.625600*%
%ADD12C,1.524800*%
%ADD13RoundRect,0.102000X-0.780000X-0.780000X0.780000X-0.780000X0.780000X0.780000X-0.780000X0.780000X0*%
%ADD14C,1.764000*%
%ADD15C,1.600200*%
%ADD16RoundRect,0.102000X-0.787500X0.787500X-0.787500X-0.787500X0.787500X-0.787500X0.787500X0.787500X0*%
%ADD17C,1.779000*%
%ADD18C,4.270000*%
%ADD19RoundRect,0.050800X-0.762000X0.762000X-0.762000X-0.762000X0.762000X-0.762000X0.762000X0.762000X0*%
%ADD20RoundRect,0.102000X-1.050000X1.050000X-1.050000X-1.050000X1.050000X-1.050000X1.050000X1.050000X0*%
%ADD21C,2.304000*%
%ADD22C,1.512000*%
G04 APERTURE END LIST*
D10*
%TO.C,J5*%
X140900000Y-59650000D03*
X140900000Y-62750000D03*
X138400000Y-59650000D03*
X138400000Y-62750000D03*
X135900000Y-59650000D03*
X135900000Y-62750000D03*
X133400000Y-59650000D03*
X133400000Y-62750000D03*
%TD*%
D11*
%TO.C,RF1*%
X111550000Y-114061700D03*
X111550000Y-119573500D03*
%TD*%
D12*
%TO.C,S1*%
X175750000Y-113509150D03*
X175750000Y-116049150D03*
X175750000Y-118589150D03*
X175750000Y-121129150D03*
X173210000Y-116049150D03*
%TD*%
D13*
%TO.C,U1*%
X150250000Y-63029150D03*
D14*
X150250000Y-65569150D03*
X150250000Y-68109150D03*
X150250000Y-70649150D03*
X150250000Y-73189150D03*
X150250000Y-75729150D03*
X150250000Y-78269150D03*
X150250000Y-80809150D03*
X150250000Y-83349150D03*
X150250000Y-85889150D03*
X150250000Y-88429150D03*
X150250000Y-90969150D03*
X150250000Y-93509150D03*
X150250000Y-96049150D03*
X150250000Y-98589150D03*
X150250000Y-101129150D03*
X150250000Y-103669150D03*
X150250000Y-106209150D03*
X150250000Y-108749150D03*
X175650000Y-63029150D03*
X175650000Y-65569150D03*
X175650000Y-68109150D03*
X175650000Y-70649150D03*
X175650000Y-73189150D03*
X175650000Y-75729150D03*
X175650000Y-78269150D03*
X175650000Y-80809150D03*
X175650000Y-83349150D03*
X175650000Y-85889150D03*
X175650000Y-88429150D03*
X175650000Y-90969150D03*
X175650000Y-93509150D03*
X175650000Y-96049150D03*
X175650000Y-98589150D03*
X175650000Y-101129150D03*
X175650000Y-103669150D03*
X175650000Y-106209150D03*
X175650000Y-108749150D03*
%TD*%
D15*
%TO.C,J4*%
X114104900Y-98745100D03*
X116604900Y-98745100D03*
X119104900Y-98745100D03*
%TD*%
D16*
%TO.C,J1*%
X106670000Y-79545000D03*
D17*
X106670000Y-76775000D03*
X106670000Y-74005000D03*
X106670000Y-71235000D03*
X106670000Y-68465000D03*
X103830000Y-78160000D03*
X103830000Y-75390000D03*
X103830000Y-72620000D03*
X103830000Y-69850000D03*
D18*
X105250000Y-61510000D03*
X105250000Y-86500000D03*
%TD*%
D11*
%TO.C,RF2*%
X151210000Y-119989150D03*
X151210000Y-114477350D03*
%TD*%
D19*
%TO.C,C2*%
X140750000Y-93000000D03*
D11*
X140750000Y-98511800D03*
%TD*%
D20*
%TO.C,J2*%
X105725000Y-109415000D03*
D21*
X105725000Y-114495000D03*
X105725000Y-119575000D03*
%TD*%
D19*
%TO.C,C1*%
X129000000Y-93000000D03*
D11*
X129000000Y-98511800D03*
%TD*%
D22*
%TO.C,PS1*%
X119970000Y-120209150D03*
X122510000Y-120209150D03*
X137750000Y-120209150D03*
X142830000Y-120209150D03*
X142830000Y-104969150D03*
X137750000Y-104969150D03*
X122510000Y-104969150D03*
X119970000Y-104969150D03*
%TD*%
M02*
