%TF.GenerationSoftware,KiCad,Pcbnew,9.0.0*%
%TF.CreationDate,2025-05-02T07:07:21-06:00*%
%TF.ProjectId,schematic_Mk2.1,73636865-6d61-4746-9963-5f4d6b322e31,rev?*%
%TF.SameCoordinates,Original*%
%TF.FileFunction,Copper,L2,Bot*%
%TF.FilePolarity,Positive*%
%FSLAX46Y46*%
G04 Gerber Fmt 4.6, Leading zero omitted, Abs format (unit mm)*
G04 Created by KiCad (PCBNEW 9.0.0) date 2025-05-02 07:07:21*
%MOMM*%
%LPD*%
G01*
G04 APERTURE LIST*
G04 Aperture macros list*
%AMRotRect*
0 Rectangle, with rotation*
0 The origin of the aperture is its center*
0 $1 length*
0 $2 width*
0 $3 Rotation angle, in degrees counterclockwise*
0 Add horizontal line*
21,1,$1,$2,0,0,$3*%
G04 Aperture macros list end*
%TA.AperFunction,SMDPad,CuDef*%
%ADD10R,2.090000X1.390000*%
%TD*%
%TA.AperFunction,ComponentPad*%
%ADD11C,1.800000*%
%TD*%
%TA.AperFunction,ComponentPad*%
%ADD12C,1.524000*%
%TD*%
%TA.AperFunction,ComponentPad*%
%ADD13C,1.320800*%
%TD*%
%TA.AperFunction,ComponentPad*%
%ADD14R,1.560000X1.560000*%
%TD*%
%TA.AperFunction,ComponentPad*%
%ADD15C,1.560000*%
%TD*%
%TA.AperFunction,ComponentPad*%
%ADD16C,1.498600*%
%TD*%
%TA.AperFunction,ComponentPad*%
%ADD17R,1.575000X1.575000*%
%TD*%
%TA.AperFunction,ComponentPad*%
%ADD18C,1.575000*%
%TD*%
%TA.AperFunction,ComponentPad*%
%ADD19C,4.066000*%
%TD*%
%TA.AperFunction,ComponentPad*%
%ADD20R,1.524000X1.524000*%
%TD*%
%TA.AperFunction,ComponentPad*%
%ADD21R,2.100000X2.100000*%
%TD*%
%TA.AperFunction,ComponentPad*%
%ADD22C,2.100000*%
%TD*%
%TA.AperFunction,ComponentPad*%
%ADD23C,1.308000*%
%TD*%
%TA.AperFunction,SMDPad,CuDef*%
%ADD24R,0.609600X1.549400*%
%TD*%
%TA.AperFunction,SMDPad,CuDef*%
%ADD25R,1.193800X1.803400*%
%TD*%
%TA.AperFunction,SMDPad,CuDef*%
%ADD26R,1.170000X1.770000*%
%TD*%
%TA.AperFunction,SMDPad,CuDef*%
%ADD27R,1.770000X1.170000*%
%TD*%
%TA.AperFunction,SMDPad,CuDef*%
%ADD28R,1.050000X1.720000*%
%TD*%
%TA.AperFunction,SMDPad,CuDef*%
%ADD29RotRect,1.050000X1.720000X45.000000*%
%TD*%
%TA.AperFunction,SMDPad,CuDef*%
%ADD30R,2.209800X1.651000*%
%TD*%
%TA.AperFunction,SMDPad,CuDef*%
%ADD31R,1.720000X1.050000*%
%TD*%
%TA.AperFunction,SMDPad,CuDef*%
%ADD32R,0.890000X1.680000*%
%TD*%
%TA.AperFunction,SMDPad,CuDef*%
%ADD33R,1.820000X1.200000*%
%TD*%
%TA.AperFunction,ViaPad*%
%ADD34C,0.600000*%
%TD*%
%TA.AperFunction,Conductor*%
%ADD35C,0.254000*%
%TD*%
G04 APERTURE END LIST*
D10*
%TO.P,U2,16*%
%TO.N,GPIO_26*%
X140740000Y-85890000D03*
%TO.P,U2,15*%
%TO.N,ESP_GND2*%
X140740000Y-83350000D03*
%TO.P,U2,14*%
%TO.N,GPIO_25*%
X140740000Y-80810000D03*
%TO.P,U2,13*%
%TO.N,ESP_GND2*%
X140740000Y-78270000D03*
%TO.P,U2,12*%
%TO.N,GPIO_33*%
X140740000Y-75730000D03*
%TO.P,U2,11*%
%TO.N,ESP_GND2*%
X140740000Y-73190000D03*
%TO.P,U2,10*%
%TO.N,GPIO_32*%
X140740000Y-70650000D03*
%TO.P,U2,9*%
%TO.N,ESP_GND2*%
X140740000Y-68110000D03*
%TO.P,U2,8*%
%TO.N,-Vin*%
X131660000Y-68110000D03*
%TO.P,U2,7*%
%TO.N,spare_opto*%
X131660000Y-70650000D03*
%TO.P,U2,6*%
%TO.N,-Vin*%
X131660000Y-73190000D03*
%TO.P,U2,5*%
%TO.N,ramp_up_opto*%
X131660000Y-75730000D03*
%TO.P,U2,4*%
%TO.N,-Vin*%
X131660000Y-78270000D03*
%TO.P,U2,3*%
%TO.N,/ramp_down_opto*%
X131660000Y-80810000D03*
%TO.P,U2,2*%
%TO.N,-Vin*%
X131660000Y-83350000D03*
%TO.P,U2,1*%
%TO.N,/sim_home_opto*%
X131660000Y-85890000D03*
%TD*%
D11*
%TO.P,J5,4_1,4_1*%
%TO.N,+3.3V*%
X140900000Y-59650000D03*
%TO.P,J5,4_2,4_2*%
X140900000Y-62750000D03*
%TO.P,J5,3_1,3_1*%
X138400000Y-59650000D03*
%TO.P,J5,3_2,3_2*%
X138400000Y-62750000D03*
%TO.P,J5,2_1,2_1*%
%TO.N,GPIO_18*%
X135900000Y-59650000D03*
%TO.P,J5,2_2,2_2*%
X135900000Y-62750000D03*
%TO.P,J5,1_1,1_1*%
%TO.N,GPIO_19*%
X133400000Y-59650000D03*
%TO.P,J5,1_2,1_2*%
X133400000Y-62750000D03*
%TD*%
D12*
%TO.P,RF1,1*%
%TO.N,+VIN-dc*%
X111550000Y-114061700D03*
%TO.P,RF1,2*%
%TO.N,/+VIN*%
X111550000Y-119573500D03*
%TD*%
D13*
%TO.P,S1,1*%
%TO.N,GPIO_4*%
X175750000Y-113509150D03*
%TO.P,S1,2*%
%TO.N,GPIO_16*%
X175750000Y-116049150D03*
%TO.P,S1,4*%
%TO.N,GPIO_17*%
X175750000Y-118589150D03*
%TO.P,S1,8*%
%TO.N,GPIO_5*%
X175750000Y-121129150D03*
%TO.P,S1,C*%
%TO.N,+3.3V*%
X173210000Y-116049150D03*
%TD*%
D14*
%TO.P,U1,J2-1,3V3*%
%TO.N,+3.3V*%
X150250000Y-63029150D03*
D15*
%TO.P,U1,J2-2,EN*%
%TO.N,unconnected-(U1-EN-PadJ2-2)*%
X150250000Y-65569150D03*
%TO.P,U1,J2-3,SENSOR_VP*%
%TO.N,unconnected-(U1-SENSOR_VP-PadJ2-3)*%
X150250000Y-68109150D03*
%TO.P,U1,J2-4,SENSOR_VN*%
%TO.N,unconnected-(U1-SENSOR_VN-PadJ2-4)*%
X150250000Y-70649150D03*
%TO.P,U1,J2-5,IO34*%
%TO.N,unconnected-(U1-IO34-PadJ2-5)*%
X150250000Y-73189150D03*
%TO.P,U1,J2-6,IO35*%
%TO.N,unconnected-(U1-IO35-PadJ2-6)*%
X150250000Y-75729150D03*
%TO.P,U1,J2-7,IO32*%
%TO.N,GPIO_32*%
X150250000Y-78269150D03*
%TO.P,U1,J2-8,IO33*%
%TO.N,GPIO_33*%
X150250000Y-80809150D03*
%TO.P,U1,J2-9,IO25*%
%TO.N,GPIO_25*%
X150250000Y-83349150D03*
%TO.P,U1,J2-10,IO26*%
%TO.N,GPIO_26*%
X150250000Y-85889150D03*
%TO.P,U1,J2-11,IO27*%
%TO.N,unconnected-(U1-IO27-PadJ2-11)*%
X150250000Y-88429150D03*
%TO.P,U1,J2-12,IO14*%
%TO.N,unconnected-(U1-IO14-PadJ2-12)*%
X150250000Y-90969150D03*
%TO.P,U1,J2-13,IO12*%
%TO.N,unconnected-(U1-IO12-PadJ2-13)*%
X150250000Y-93509150D03*
%TO.P,U1,J2-14,GND1*%
%TO.N,ESP_GND2*%
X150250000Y-96049150D03*
%TO.P,U1,J2-15,IO13*%
%TO.N,unconnected-(U1-IO13-PadJ2-15)*%
X150250000Y-98589150D03*
%TO.P,U1,J2-16,SD2*%
%TO.N,unconnected-(U1-SD2-PadJ2-16)*%
X150250000Y-101129150D03*
%TO.P,U1,J2-17,SD3*%
%TO.N,unconnected-(U1-SD3-PadJ2-17)*%
X150250000Y-103669150D03*
%TO.P,U1,J2-18,CMD*%
%TO.N,unconnected-(U1-CMD-PadJ2-18)*%
X150250000Y-106209150D03*
%TO.P,U1,J2-19,EXT_5V*%
%TO.N,+VOUT-esp*%
X150250000Y-108749150D03*
%TO.P,U1,J3-1,GND3*%
%TO.N,ESP_GND2*%
X175650000Y-63029150D03*
%TO.P,U1,J3-2,IO23*%
%TO.N,unconnected-(U1-IO23-PadJ3-2)*%
X175650000Y-65569150D03*
%TO.P,U1,J3-3,IO22*%
%TO.N,GPIO_22*%
X175650000Y-68109150D03*
%TO.P,U1,J3-4,TXD0*%
%TO.N,unconnected-(U1-TXD0-PadJ3-4)*%
X175650000Y-70649150D03*
%TO.P,U1,J3-5,RXD0*%
%TO.N,unconnected-(U1-RXD0-PadJ3-5)*%
X175650000Y-73189150D03*
%TO.P,U1,J3-6,IO21*%
%TO.N,GPIO_21*%
X175650000Y-75729150D03*
%TO.P,U1,J3-7,GND2*%
%TO.N,ESP_GND2*%
X175650000Y-78269150D03*
%TO.P,U1,J3-8,IO19*%
%TO.N,GPIO_19*%
X175650000Y-80809150D03*
%TO.P,U1,J3-9,IO18*%
%TO.N,GPIO_18*%
X175650000Y-83349150D03*
%TO.P,U1,J3-10,IO5*%
%TO.N,GPIO_5*%
X175650000Y-85889150D03*
%TO.P,U1,J3-11,IO17*%
%TO.N,GPIO_17*%
X175650000Y-88429150D03*
%TO.P,U1,J3-12,IO16*%
%TO.N,GPIO_16*%
X175650000Y-90969150D03*
%TO.P,U1,J3-13,IO4*%
%TO.N,GPIO_4*%
X175650000Y-93509150D03*
%TO.P,U1,J3-14,IO0*%
%TO.N,unconnected-(U1-IO0-PadJ3-14)*%
X175650000Y-96049150D03*
%TO.P,U1,J3-15,IO2*%
%TO.N,unconnected-(U1-IO2-PadJ3-15)*%
X175650000Y-98589150D03*
%TO.P,U1,J3-16,IO15*%
%TO.N,unconnected-(U1-IO15-PadJ3-16)*%
X175650000Y-101129150D03*
%TO.P,U1,J3-17,SD1*%
%TO.N,unconnected-(U1-SD1-PadJ3-17)*%
X175650000Y-103669150D03*
%TO.P,U1,J3-18,SD0*%
%TO.N,unconnected-(U1-SD0-PadJ3-18)*%
X175650000Y-106209150D03*
%TO.P,U1,J3-19,CLK*%
%TO.N,unconnected-(U1-CLK-PadJ3-19)*%
X175650000Y-108749150D03*
%TD*%
D16*
%TO.P,J4,1,1*%
%TO.N,+24V*%
X114104900Y-98745100D03*
%TO.P,J4,2,2*%
%TO.N,+VIN-dc*%
X116604900Y-98745100D03*
%TO.P,J4,3,3*%
%TO.N,-Vin*%
X119104900Y-98745100D03*
%TD*%
D17*
%TO.P,J1,1*%
%TO.N,unconnected-(J1-Pad1)*%
X106670000Y-79545000D03*
D18*
%TO.P,J1,2*%
%TO.N,unconnected-(J1-Pad2)*%
X106670000Y-76775000D03*
%TO.P,J1,3*%
%TO.N,ramp_down*%
X106670000Y-74005000D03*
%TO.P,J1,4*%
%TO.N,ramp_up*%
X106670000Y-71235000D03*
%TO.P,J1,5*%
%TO.N,spare*%
X106670000Y-68465000D03*
%TO.P,J1,6*%
%TO.N,unconnected-(J1-Pad6)*%
X103830000Y-78160000D03*
%TO.P,J1,7*%
%TO.N,unconnected-(J1-Pad7)*%
X103830000Y-75390000D03*
%TO.P,J1,8*%
%TO.N,unconnected-(J1-Pad8)*%
X103830000Y-72620000D03*
%TO.P,J1,9*%
%TO.N,unconnected-(J1-Pad9)*%
X103830000Y-69850000D03*
D19*
%TO.P,J1,S1,SHIELD*%
%TO.N,unconnected-(J1-SHIELD-PadS1)*%
X105250000Y-61510000D03*
%TO.P,J1,S2,SHIELD__1*%
%TO.N,unconnected-(J1-SHIELD__1-PadS2)*%
X105250000Y-86500000D03*
%TD*%
D12*
%TO.P,RF2,1*%
%TO.N,/+VOUT*%
X151210000Y-119989150D03*
%TO.P,RF2,2*%
%TO.N,+VOUT-esp*%
X151210000Y-114477350D03*
%TD*%
D20*
%TO.P,C2,1*%
%TO.N,/+VIN*%
X140750000Y-93000000D03*
D12*
%TO.P,C2,2*%
%TO.N,-Vin*%
X140750000Y-98511800D03*
%TD*%
D21*
%TO.P,J2,01,01*%
%TO.N,sim_home*%
X105725000Y-109415000D03*
D22*
%TO.P,J2,02,02*%
%TO.N,/+24V-Sim*%
X105725000Y-114495000D03*
%TO.P,J2,03,03*%
%TO.N,-Vin*%
X105725000Y-119575000D03*
%TD*%
D20*
%TO.P,C1,1*%
%TO.N,/+VIN*%
X129000000Y-93000000D03*
D12*
%TO.P,C1,2*%
%TO.N,-Vin*%
X129000000Y-98511800D03*
%TD*%
D23*
%TO.P,PS1,2,-VIN*%
%TO.N,-Vin*%
X119970000Y-120209150D03*
%TO.P,PS1,3,-VIN__1*%
%TO.N,unconnected-(PS1--VIN__1-Pad3)*%
X122510000Y-120209150D03*
%TO.P,PS1,9,NC*%
%TO.N,unconnected-(PS1-NC-Pad9)*%
X137750000Y-120209150D03*
%TO.P,PS1,11,NC1*%
%TO.N,unconnected-(PS1-NC1-Pad11)*%
X142830000Y-120209150D03*
%TO.P,PS1,14,+VOUT*%
%TO.N,/+VOUT*%
X142830000Y-104969150D03*
%TO.P,PS1,16,-VOUT*%
%TO.N,ESP_GND2*%
X137750000Y-104969150D03*
%TO.P,PS1,22,+VIN*%
%TO.N,/+VIN*%
X122510000Y-104969150D03*
%TO.P,PS1,23,+VIN__1*%
%TO.N,unconnected-(PS1-+VIN__1-Pad23)*%
X119970000Y-104969150D03*
%TD*%
D24*
%TO.P,J3,1,1*%
%TO.N,ESP_GND2*%
X164500000Y-81527600D03*
%TO.P,J3,2,2*%
%TO.N,+3.3V*%
X163499999Y-81527600D03*
%TO.P,J3,3,3*%
%TO.N,GPIO_21*%
X162500001Y-81527600D03*
%TO.P,J3,4,4*%
%TO.N,GPIO_22*%
X161500000Y-81527600D03*
D25*
%TO.P,J3,5*%
%TO.N,N/C*%
X165799999Y-79002601D03*
%TO.P,J3,6*%
X160200001Y-79002601D03*
%TD*%
D26*
%TO.P,R18,1*%
%TO.N,+3.3V*%
X157706000Y-86906000D03*
%TO.P,R18,2*%
%TO.N,GPIO_22*%
X160694000Y-86906000D03*
%TD*%
D27*
%TO.P,R11,1*%
%TO.N,GPIO_26*%
X166400000Y-105294000D03*
%TO.P,R11,2*%
%TO.N,+3.3V*%
X166400000Y-102306000D03*
%TD*%
%TO.P,R13,1*%
%TO.N,GPIO_17*%
X166400000Y-113294000D03*
%TO.P,R13,2*%
%TO.N,ESP_GND2*%
X166400000Y-110306000D03*
%TD*%
D28*
%TO.P,R6,1*%
%TO.N,ramp_down*%
X121000000Y-81500000D03*
%TO.P,R6,2*%
%TO.N,/ramp_down_opto*%
X123920000Y-81500000D03*
%TD*%
D29*
%TO.P,R8,1*%
%TO.N,sim_home*%
X120467624Y-93532376D03*
%TO.P,R8,2*%
%TO.N,/sim_home_opto*%
X122532376Y-91467624D03*
%TD*%
D30*
%TO.P,D1,1*%
%TO.N,+24V*%
X112000000Y-103879100D03*
%TO.P,D1,2*%
%TO.N,/+24V-Sim*%
X112000000Y-108120900D03*
%TD*%
D31*
%TO.P,R1,1*%
%TO.N,spare*%
X124500000Y-59580000D03*
%TO.P,R1,2*%
%TO.N,spare_opto*%
X124500000Y-62500000D03*
%TD*%
D28*
%TO.P,R5,1*%
%TO.N,ramp_down*%
X121000000Y-77000000D03*
%TO.P,R5,2*%
%TO.N,/ramp_down_opto*%
X123920000Y-77000000D03*
%TD*%
D32*
%TO.P,R4,1*%
%TO.N,ramp_up*%
X121045000Y-72000000D03*
%TO.P,R4,2*%
%TO.N,ramp_up_opto*%
X124035000Y-72000000D03*
%TD*%
D28*
%TO.P,R3,1*%
%TO.N,ramp_up*%
X121040000Y-67500000D03*
%TO.P,R3,2*%
%TO.N,ramp_up_opto*%
X123960000Y-67500000D03*
%TD*%
D26*
%TO.P,R17,1*%
%TO.N,+3.3V*%
X165506000Y-86906000D03*
%TO.P,R17,2*%
%TO.N,GPIO_21*%
X168494000Y-86906000D03*
%TD*%
D27*
%TO.P,R10,1*%
%TO.N,GPIO_33*%
X159200000Y-92706000D03*
%TO.P,R10,2*%
%TO.N,+3.3V*%
X159200000Y-95694000D03*
%TD*%
%TO.P,R9,1*%
%TO.N,GPIO_32*%
X166400000Y-92800000D03*
%TO.P,R9,2*%
%TO.N,+3.3V*%
X166400000Y-95788000D03*
%TD*%
%TO.P,R12,1*%
%TO.N,GPIO_25*%
X159200000Y-105200000D03*
%TO.P,R12,2*%
%TO.N,+3.3V*%
X159200000Y-102212000D03*
%TD*%
%TO.P,R14,1*%
%TO.N,GPIO_5*%
X159200000Y-110306000D03*
%TO.P,R14,2*%
%TO.N,ESP_GND2*%
X159200000Y-113294000D03*
%TD*%
%TO.P,R16,1*%
%TO.N,GPIO_4*%
X166400000Y-120694000D03*
%TO.P,R16,2*%
%TO.N,ESP_GND2*%
X166400000Y-117706000D03*
%TD*%
D31*
%TO.P,R2,1*%
%TO.N,spare*%
X120000000Y-59580000D03*
%TO.P,R2,2*%
%TO.N,spare_opto*%
X120000000Y-62500000D03*
%TD*%
D27*
%TO.P,R15,1*%
%TO.N,GPIO_16*%
X159200000Y-120694000D03*
%TO.P,R15,2*%
%TO.N,ESP_GND2*%
X159200000Y-117706000D03*
%TD*%
D33*
%TO.P,C3,1*%
%TO.N,ESP_GND2*%
X137800000Y-111540000D03*
%TO.P,C3,2*%
%TO.N,-Vin*%
X137800000Y-114460000D03*
%TD*%
D29*
%TO.P,R7,1*%
%TO.N,sim_home*%
X116967624Y-90032376D03*
%TO.P,R7,2*%
%TO.N,/sim_home_opto*%
X119032376Y-87967624D03*
%TD*%
D34*
%TO.N,ramp_up*%
X114550000Y-68500000D03*
X112550000Y-68500000D03*
X116550000Y-68500000D03*
%TO.N,ramp_down*%
X113700000Y-83150000D03*
X115700000Y-83150000D03*
X111700000Y-83150000D03*
X112450000Y-84800000D03*
X110450000Y-84800000D03*
X114450000Y-84800000D03*
X114650000Y-76850000D03*
X112650000Y-76850000D03*
X116650000Y-76850000D03*
%TO.N,/+VOUT*%
X151750000Y-125700000D03*
X151750000Y-124400000D03*
X150300000Y-125700000D03*
X150300000Y-124400000D03*
X148850000Y-125650000D03*
X148850000Y-124350000D03*
X147400000Y-125650000D03*
X147400000Y-124350000D03*
X146000000Y-125650000D03*
X146000000Y-124350000D03*
X144550000Y-125650000D03*
X144550000Y-124350000D03*
%TO.N,+24V*%
X112450000Y-100800000D03*
X111450000Y-99900000D03*
X110350000Y-100800000D03*
%TO.N,/+24V-Sim*%
X100000000Y-118350000D03*
X101600000Y-118350000D03*
%TO.N,sim_home*%
X101683333Y-97600000D03*
X103466667Y-97600000D03*
X105250000Y-97600000D03*
X99900000Y-97600000D03*
X101683333Y-95650000D03*
X103466667Y-95650000D03*
X105250000Y-95650000D03*
X99900000Y-95650000D03*
X99900000Y-93550000D03*
X105250000Y-93550000D03*
X103466667Y-93550000D03*
X101683333Y-93550000D03*
%TO.N,ESP_GND2*%
X157100000Y-72450000D03*
%TO.N,spare*%
X110600000Y-59200000D03*
X110600000Y-61200000D03*
X116400000Y-57200000D03*
X110600000Y-57200000D03*
X114400000Y-59200000D03*
X110600000Y-63200000D03*
X116400000Y-59200000D03*
X114400000Y-57200000D03*
X112400000Y-61200000D03*
X112400000Y-59200000D03*
X112400000Y-57200000D03*
%TO.N,ramp_up*%
X116600000Y-66800000D03*
X112600000Y-66800000D03*
X114600000Y-66800000D03*
%TO.N,+3.3V*%
X166200000Y-99000000D03*
X168000000Y-66400000D03*
%TO.N,GPIO_25*%
X162000000Y-103600000D03*
%TO.N,GPIO_26*%
X162200000Y-108000000D03*
%TO.N,ESP_GND2*%
X169400000Y-78400000D03*
%TO.N,GPIO_17*%
X170400000Y-114800000D03*
X162500000Y-113250000D03*
%TO.N,GPIO_4*%
X172850000Y-123950000D03*
%TO.N,+VOUT-esp*%
X150800000Y-111600000D03*
X152600000Y-111600000D03*
X149000000Y-111600000D03*
%TO.N,/+24V-Sim*%
X100000000Y-116600000D03*
X100000000Y-113600000D03*
X101600000Y-113600000D03*
X100000000Y-115000000D03*
X101600000Y-115000000D03*
X101600000Y-116600000D03*
%TO.N,GPIO_32*%
X164300000Y-90150000D03*
%TO.N,GPIO_33*%
X158800000Y-90700000D03*
%TD*%
D35*
%TO.N,GPIO_19*%
X177800000Y-54050000D02*
X177800000Y-78659150D01*
X139000000Y-54050000D02*
X177800000Y-54050000D01*
X133400000Y-59650000D02*
X139000000Y-54050000D01*
X177800000Y-78659150D02*
X175650000Y-80809150D01*
X133400000Y-62750000D02*
X133400000Y-59650000D01*
%TO.N,ESP_GND2*%
X154500000Y-96850000D02*
X152775425Y-98574575D01*
X154500000Y-75050000D02*
X154500000Y-96850000D01*
X157100000Y-72450000D02*
X154500000Y-75050000D01*
X152775425Y-98574575D02*
X150250000Y-96049150D01*
X155400000Y-101199150D02*
X152775425Y-98574575D01*
%TO.N,GPIO_4*%
X169594000Y-120694000D02*
X172850000Y-123950000D01*
X166400000Y-120694000D02*
X169594000Y-120694000D01*
%TO.N,GPIO_17*%
X165794000Y-113900000D02*
X166400000Y-113294000D01*
X163800000Y-113250000D02*
X164450000Y-113900000D01*
X162500000Y-113250000D02*
X163800000Y-113250000D01*
X164450000Y-113900000D02*
X165794000Y-113900000D01*
%TO.N,ESP_GND2*%
X165056000Y-111650000D02*
X166400000Y-110306000D01*
X160844000Y-111650000D02*
X165056000Y-111650000D01*
X159200000Y-113294000D02*
X160844000Y-111650000D01*
%TO.N,GPIO_17*%
X170400000Y-93679150D02*
X175650000Y-88429150D01*
X170400000Y-114800000D02*
X170400000Y-93679150D01*
X174189150Y-118589150D02*
X175750000Y-118589150D01*
X170400000Y-114800000D02*
X174189150Y-118589150D01*
%TO.N,GPIO_32*%
X164300000Y-90150000D02*
X164950000Y-90150000D01*
X164950000Y-90150000D02*
X166400000Y-91600000D01*
X166400000Y-91600000D02*
X166400000Y-92800000D01*
%TO.N,GPIO_33*%
X158800000Y-91200000D02*
X159200000Y-91600000D01*
X159200000Y-91600000D02*
X159200000Y-92706000D01*
X158800000Y-90700000D02*
X158800000Y-91200000D01*
%TO.N,GPIO_4*%
X175290850Y-93509150D02*
X175650000Y-93509150D01*
X172800000Y-96000000D02*
X175290850Y-93509150D01*
X172800000Y-110559150D02*
X172800000Y-96000000D01*
X175750000Y-113509150D02*
X172800000Y-110559150D01*
%TO.N,GPIO_16*%
X175080850Y-90969150D02*
X175650000Y-90969150D01*
X171650000Y-94400000D02*
X175080850Y-90969150D01*
X171650000Y-111949150D02*
X171650000Y-94400000D01*
X175750000Y-116049150D02*
X171650000Y-111949150D01*
%TO.N,GPIO_22*%
X158650000Y-76350000D02*
X161500000Y-73500000D01*
X158650000Y-84862000D02*
X158650000Y-76350000D01*
X160694000Y-86906000D02*
X158650000Y-84862000D01*
%TO.N,GPIO_16*%
X177000000Y-121472000D02*
X177000000Y-117299150D01*
X177000000Y-117299150D02*
X175750000Y-116049150D01*
X173322000Y-125150000D02*
X177000000Y-121472000D01*
X163656000Y-125150000D02*
X173322000Y-125150000D01*
X159200000Y-120694000D02*
X163656000Y-125150000D01*
%TO.N,+3.3V*%
X166400000Y-99200000D02*
X166400000Y-102306000D01*
X151090301Y-63029150D02*
X150250000Y-63029150D01*
X157706000Y-74694000D02*
X157706000Y-84200000D01*
X157706000Y-84200000D02*
X156400000Y-84200000D01*
X162612000Y-89800000D02*
X155600000Y-89800000D01*
X166306000Y-102212000D02*
X166400000Y-102306000D01*
X155600000Y-85000000D02*
X155600000Y-89800000D01*
X156400000Y-84200000D02*
X155600000Y-85000000D01*
X165506000Y-86906000D02*
X162612000Y-89800000D01*
X153510425Y-66289575D02*
X150250000Y-63029150D01*
X159810425Y-72589575D02*
X153510425Y-66289575D01*
X166306000Y-95694000D02*
X166400000Y-95788000D01*
X159200000Y-102212000D02*
X166306000Y-102212000D01*
X168000000Y-66400000D02*
X153620850Y-66400000D01*
X159200000Y-95694000D02*
X166306000Y-95694000D01*
X159200000Y-95694000D02*
X159200000Y-102212000D01*
X166200000Y-99000000D02*
X166400000Y-99200000D01*
X165506000Y-86906000D02*
X163499999Y-84899999D01*
X153620850Y-66400000D02*
X153510425Y-66289575D01*
X163499999Y-84899999D02*
X163499999Y-81527600D01*
X157706000Y-84200000D02*
X157706000Y-86906000D01*
X159810425Y-72589575D02*
X157706000Y-74694000D01*
%TO.N,GPIO_25*%
X160400000Y-105200000D02*
X162000000Y-103600000D01*
X159200000Y-105200000D02*
X160400000Y-105200000D01*
%TO.N,GPIO_26*%
X164906000Y-105294000D02*
X162200000Y-108000000D01*
X166400000Y-105294000D02*
X164906000Y-105294000D01*
%TO.N,ESP_GND2*%
X155400000Y-109494000D02*
X155400000Y-101199150D01*
X159200000Y-117706000D02*
X166400000Y-117706000D01*
X159200000Y-113294000D02*
X155400000Y-109494000D01*
X166272400Y-81527600D02*
X169400000Y-78400000D01*
X164500000Y-81527600D02*
X166272400Y-81527600D01*
X159200000Y-117706000D02*
X159200000Y-113294000D01*
%TO.N,GPIO_21*%
X168494000Y-82885150D02*
X175650000Y-75729150D01*
X163070850Y-75729150D02*
X175650000Y-75729150D01*
X162500001Y-76299999D02*
X163070850Y-75729150D01*
X168494000Y-86906000D02*
X168494000Y-82885150D01*
X162500001Y-81527600D02*
X162500001Y-76299999D01*
%TO.N,GPIO_22*%
X161500000Y-73500000D02*
X166890850Y-68109150D01*
X161500000Y-81527600D02*
X161500000Y-73500000D01*
X166890850Y-68109150D02*
X175650000Y-68109150D01*
%TO.N,GPIO_5*%
X159200000Y-110306000D02*
X162694000Y-110306000D01*
X162694000Y-110306000D02*
X165200000Y-107800000D01*
X171400000Y-87200000D02*
X174339150Y-87200000D01*
X174339150Y-87200000D02*
X175650000Y-85889150D01*
X168800000Y-107800000D02*
X168800000Y-89800000D01*
X168800000Y-117400000D02*
X172529150Y-121129150D01*
X168800000Y-89800000D02*
X171400000Y-87200000D01*
X168800000Y-107800000D02*
X168800000Y-117400000D01*
X172529150Y-121129150D02*
X175750000Y-121129150D01*
X165200000Y-107800000D02*
X168800000Y-107800000D01*
%TD*%
%TA.AperFunction,Conductor*%
%TO.N,GPIO_33*%
G36*
X144792734Y-74619685D02*
G01*
X144797578Y-74622961D01*
X145029102Y-74787699D01*
X145396915Y-75049411D01*
X145440126Y-75104316D01*
X145442176Y-75109801D01*
X147000000Y-79599999D01*
X146999999Y-79599999D01*
X147000000Y-79600000D01*
X148856626Y-79800000D01*
X149881591Y-79910411D01*
X150260330Y-80289150D01*
X150181541Y-80289150D01*
X150049288Y-80324587D01*
X149930713Y-80393046D01*
X149833896Y-80489863D01*
X149765437Y-80608438D01*
X149730000Y-80740691D01*
X149730000Y-80877609D01*
X149765437Y-81009862D01*
X149833896Y-81128437D01*
X149930713Y-81225254D01*
X150049288Y-81293713D01*
X150181541Y-81329150D01*
X150260328Y-81329150D01*
X149809995Y-81779483D01*
X149748672Y-81812968D01*
X149711572Y-81815336D01*
X146821702Y-81564043D01*
X146757759Y-81539494D01*
X146248035Y-81154904D01*
X146207053Y-81100609D01*
X146163017Y-80986633D01*
X146058561Y-80716276D01*
X149070000Y-80716276D01*
X149070000Y-80902023D01*
X149099055Y-81085468D01*
X149099055Y-81085471D01*
X149156450Y-81262111D01*
X149156450Y-81262112D01*
X149193665Y-81335153D01*
X149193666Y-81335153D01*
X149719670Y-80809150D01*
X149719670Y-80809149D01*
X149193665Y-80283145D01*
X149156450Y-80356187D01*
X149156450Y-80356188D01*
X149099055Y-80532828D01*
X149099055Y-80532831D01*
X149070000Y-80716276D01*
X146058561Y-80716276D01*
X146015518Y-80604871D01*
X145974818Y-80499529D01*
X144719319Y-77250000D01*
X144219319Y-77250000D01*
X142226454Y-77250000D01*
X142159415Y-77230315D01*
X142149797Y-77222564D01*
X142149645Y-77222768D01*
X142027335Y-77131206D01*
X142027328Y-77131202D01*
X141892482Y-77080908D01*
X141892483Y-77080908D01*
X141832883Y-77074501D01*
X141832881Y-77074500D01*
X141832873Y-77074500D01*
X141832865Y-77074500D01*
X140525862Y-77074500D01*
X140458823Y-77054815D01*
X140438181Y-77038181D01*
X140382680Y-76982680D01*
X140349195Y-76921357D01*
X140354179Y-76851665D01*
X140365000Y-76834827D01*
X140365000Y-76824999D01*
X141115000Y-76824999D01*
X141816479Y-76824999D01*
X141910149Y-76810164D01*
X141910155Y-76810162D01*
X142023041Y-76752643D01*
X142023050Y-76752636D01*
X142112636Y-76663050D01*
X142112639Y-76663046D01*
X142170166Y-76550144D01*
X142185000Y-76456486D01*
X142185000Y-76105000D01*
X141115000Y-76105000D01*
X141115000Y-76824999D01*
X140365000Y-76824999D01*
X140365000Y-75854000D01*
X140384685Y-75786961D01*
X140437489Y-75741206D01*
X140489000Y-75730000D01*
X140740000Y-75730000D01*
X140740000Y-75479000D01*
X140759685Y-75411961D01*
X140812489Y-75366206D01*
X140864000Y-75355000D01*
X142184999Y-75355000D01*
X142184999Y-75003520D01*
X142170164Y-74909850D01*
X142170162Y-74909844D01*
X142112642Y-74796957D01*
X142112585Y-74796878D01*
X142112544Y-74796765D01*
X142108211Y-74788260D01*
X142109310Y-74787699D01*
X142089111Y-74731070D01*
X142104941Y-74663017D01*
X142155050Y-74614326D01*
X142212909Y-74600000D01*
X144725695Y-74600000D01*
X144792734Y-74619685D01*
G37*
%TD.AperFunction*%
%TD*%
%TA.AperFunction,Conductor*%
%TO.N,GPIO_26*%
G36*
X150260330Y-85369150D02*
G01*
X150181541Y-85369150D01*
X150049288Y-85404587D01*
X149930713Y-85473046D01*
X149833896Y-85569863D01*
X149765437Y-85688438D01*
X149730000Y-85820691D01*
X149730000Y-85957609D01*
X149765437Y-86089862D01*
X149833896Y-86208437D01*
X149930713Y-86305254D01*
X150049288Y-86373713D01*
X150181541Y-86409150D01*
X150260328Y-86409150D01*
X149721099Y-86948379D01*
X149723132Y-86956811D01*
X149715699Y-86978184D01*
X149712799Y-87000630D01*
X149704445Y-87010553D01*
X149700185Y-87022805D01*
X149682375Y-87036768D01*
X149667801Y-87054082D01*
X149654139Y-87058908D01*
X149645201Y-87065917D01*
X149610890Y-87074188D01*
X149572107Y-87077835D01*
X149572102Y-87077835D01*
X149572103Y-87077836D01*
X147475000Y-87275000D01*
X145050689Y-87502926D01*
X145044892Y-87503334D01*
X144052899Y-87549864D01*
X144047089Y-87550000D01*
X143350000Y-87550000D01*
X140702036Y-87550000D01*
X140634997Y-87530315D01*
X140613547Y-87512866D01*
X140604190Y-87503334D01*
X140302361Y-87195864D01*
X140269446Y-87134234D01*
X140275075Y-87064592D01*
X140317463Y-87009048D01*
X140354305Y-86995693D01*
X140365000Y-86984999D01*
X141115000Y-86984999D01*
X141816479Y-86984999D01*
X141910149Y-86970164D01*
X141910155Y-86970162D01*
X142023041Y-86912643D01*
X142023050Y-86912636D01*
X142112636Y-86823050D01*
X142112639Y-86823046D01*
X142170166Y-86710144D01*
X142185000Y-86616486D01*
X142185000Y-86265000D01*
X141115000Y-86265000D01*
X141115000Y-86984999D01*
X140365000Y-86984999D01*
X140365000Y-86014000D01*
X140384685Y-85946961D01*
X140437489Y-85901206D01*
X140489000Y-85890000D01*
X140740000Y-85890000D01*
X140740000Y-85796276D01*
X149070000Y-85796276D01*
X149070000Y-85982023D01*
X149099055Y-86165468D01*
X149099055Y-86165471D01*
X149156450Y-86342111D01*
X149156450Y-86342112D01*
X149193665Y-86415153D01*
X149193666Y-86415153D01*
X149719670Y-85889150D01*
X149719670Y-85889149D01*
X149193665Y-85363145D01*
X149156450Y-85436187D01*
X149156450Y-85436188D01*
X149099055Y-85612828D01*
X149099055Y-85612831D01*
X149070000Y-85796276D01*
X140740000Y-85796276D01*
X140740000Y-85639000D01*
X140759685Y-85571961D01*
X140812489Y-85526206D01*
X140864000Y-85515000D01*
X142184999Y-85515000D01*
X142184999Y-85163520D01*
X142170164Y-85069850D01*
X142170164Y-85069849D01*
X142150010Y-85030295D01*
X142137114Y-84961625D01*
X142163391Y-84896885D01*
X142220497Y-84856628D01*
X142260495Y-84850000D01*
X145900007Y-84850000D01*
X145900008Y-84850000D01*
X145900008Y-84849999D01*
X145906975Y-84848355D01*
X145934194Y-84845044D01*
X147935784Y-84824563D01*
X149697715Y-84806535D01*
X150260330Y-85369150D01*
G37*
%TD.AperFunction*%
%TD*%
%TA.AperFunction,Conductor*%
%TO.N,-Vin*%
G36*
X135993692Y-66519685D02*
G01*
X136039447Y-66572489D01*
X136050651Y-66623345D01*
X136146110Y-84700908D01*
X136210000Y-96800000D01*
X142296489Y-96842922D01*
X142363386Y-96863079D01*
X142408768Y-96916204D01*
X142419592Y-96969178D01*
X142385446Y-98843524D01*
X142369734Y-99705998D01*
X142364874Y-99972759D01*
X142343972Y-100039428D01*
X142290343Y-100084214D01*
X142240895Y-100094500D01*
X138073519Y-100094500D01*
X137969469Y-100107552D01*
X137948659Y-100110163D01*
X137948654Y-100110164D01*
X137889306Y-100125292D01*
X137889294Y-100125295D01*
X137772193Y-100171303D01*
X137772188Y-100171307D01*
X137656953Y-100257454D01*
X137607514Y-100306828D01*
X137607503Y-100306841D01*
X137598076Y-100319417D01*
X137542114Y-100361250D01*
X137501812Y-100369004D01*
X135200000Y-100423809D01*
X135200000Y-100423810D01*
X135200000Y-113400000D01*
X136719678Y-113400000D01*
X136786717Y-113419685D01*
X136832472Y-113472489D01*
X136842416Y-113541647D01*
X136813391Y-113605203D01*
X136788569Y-113627102D01*
X136709760Y-113679760D01*
X136654505Y-113762455D01*
X136654503Y-113762459D01*
X136640000Y-113835371D01*
X136640000Y-114085000D01*
X138960000Y-114085000D01*
X138960000Y-113835373D01*
X138959999Y-113835371D01*
X138945496Y-113762459D01*
X138945494Y-113762455D01*
X138890239Y-113679760D01*
X138811431Y-113627102D01*
X138766626Y-113573490D01*
X138757919Y-113504165D01*
X138788073Y-113441138D01*
X138847516Y-113404418D01*
X138880322Y-113400000D01*
X141276000Y-113400000D01*
X141343039Y-113419685D01*
X141388794Y-113472489D01*
X141400000Y-113524000D01*
X141400000Y-127676000D01*
X141380315Y-127743039D01*
X141327511Y-127788794D01*
X141276000Y-127800000D01*
X102924000Y-127800000D01*
X102856961Y-127780315D01*
X102811206Y-127727511D01*
X102800000Y-127676000D01*
X102800000Y-119472682D01*
X104425000Y-119472682D01*
X104425000Y-119677317D01*
X104457009Y-119879417D01*
X104520244Y-120074031D01*
X104579447Y-120190221D01*
X105041711Y-119727957D01*
X105051901Y-119779182D01*
X105104668Y-119906574D01*
X105181274Y-120021224D01*
X105278776Y-120118726D01*
X105393426Y-120195332D01*
X105520818Y-120248099D01*
X105572041Y-120258288D01*
X105109776Y-120720551D01*
X105225968Y-120779755D01*
X105420582Y-120842990D01*
X105622683Y-120875000D01*
X105827317Y-120875000D01*
X106029417Y-120842990D01*
X106224025Y-120779756D01*
X106340222Y-120720551D01*
X105877959Y-120258288D01*
X105929182Y-120248099D01*
X106056574Y-120195332D01*
X106171224Y-120118726D01*
X106268726Y-120021224D01*
X106345332Y-119906574D01*
X106398099Y-119779182D01*
X106408288Y-119727959D01*
X106870551Y-120190222D01*
X106929756Y-120074025D01*
X106992990Y-119879417D01*
X107025000Y-119677317D01*
X107025000Y-119472682D01*
X106992990Y-119270582D01*
X106929755Y-119075968D01*
X106870551Y-118959776D01*
X106408287Y-119422040D01*
X106398099Y-119370818D01*
X106345332Y-119243426D01*
X106268726Y-119128776D01*
X106171224Y-119031274D01*
X106056574Y-118954668D01*
X105929182Y-118901901D01*
X105877958Y-118891711D01*
X106340221Y-118429447D01*
X106224031Y-118370244D01*
X106029417Y-118307009D01*
X105827317Y-118275000D01*
X105622683Y-118275000D01*
X105420582Y-118307009D01*
X105225972Y-118370243D01*
X105225965Y-118370246D01*
X105109776Y-118429446D01*
X105572041Y-118891711D01*
X105520818Y-118901901D01*
X105393426Y-118954668D01*
X105278776Y-119031274D01*
X105181274Y-119128776D01*
X105104668Y-119243426D01*
X105051901Y-119370818D01*
X105041711Y-119422041D01*
X104579446Y-118959776D01*
X104520246Y-119075965D01*
X104520243Y-119075972D01*
X104457009Y-119270582D01*
X104425000Y-119472682D01*
X102800000Y-119472682D01*
X102800000Y-117724000D01*
X102819685Y-117656961D01*
X102872489Y-117611206D01*
X102924000Y-117600000D01*
X109676000Y-117600000D01*
X109743039Y-117619685D01*
X109788794Y-117672489D01*
X109800000Y-117724000D01*
X109800000Y-121400000D01*
X115400000Y-121400000D01*
X115400000Y-121106019D01*
X115406627Y-121083447D01*
X115408846Y-121060024D01*
X115410952Y-121056370D01*
X119653108Y-121056370D01*
X119706313Y-121078410D01*
X119706319Y-121078411D01*
X119880959Y-121113149D01*
X119880963Y-121113150D01*
X120059037Y-121113150D01*
X120059040Y-121113149D01*
X120233680Y-121078411D01*
X120233691Y-121078408D01*
X120286890Y-121056371D01*
X120286890Y-121056370D01*
X119970001Y-120739480D01*
X119970000Y-120739480D01*
X119653108Y-121056370D01*
X115410952Y-121056370D01*
X115418346Y-121043539D01*
X115419685Y-121038980D01*
X115426462Y-121029454D01*
X116140411Y-120120109D01*
X119066000Y-120120109D01*
X119066000Y-120298190D01*
X119100738Y-120472829D01*
X119100740Y-120472837D01*
X119122778Y-120526041D01*
X119439670Y-120209150D01*
X119439670Y-120209149D01*
X119387010Y-120156489D01*
X119570000Y-120156489D01*
X119570000Y-120261811D01*
X119597259Y-120363544D01*
X119649920Y-120454756D01*
X119724394Y-120529230D01*
X119815606Y-120581891D01*
X119917339Y-120609150D01*
X120022661Y-120609150D01*
X120124394Y-120581891D01*
X120215606Y-120529230D01*
X120290080Y-120454756D01*
X120342741Y-120363544D01*
X120370000Y-120261811D01*
X120370000Y-120209149D01*
X120500330Y-120209149D01*
X120500330Y-120209150D01*
X120817220Y-120526040D01*
X120817221Y-120526040D01*
X120839258Y-120472841D01*
X120839261Y-120472830D01*
X120873999Y-120298190D01*
X120874000Y-120298187D01*
X120874000Y-120120111D01*
X120873638Y-120118289D01*
X121355500Y-120118289D01*
X121355500Y-120300010D01*
X121383928Y-120479497D01*
X121383928Y-120479500D01*
X121440081Y-120652321D01*
X121440083Y-120652324D01*
X121522583Y-120814240D01*
X121629397Y-120961256D01*
X121757894Y-121089753D01*
X121904910Y-121196567D01*
X122066826Y-121279067D01*
X122066828Y-121279068D01*
X122228029Y-121331444D01*
X122239654Y-121335222D01*
X122419139Y-121363650D01*
X122419140Y-121363650D01*
X122600860Y-121363650D01*
X122600861Y-121363650D01*
X122780346Y-121335222D01*
X122780349Y-121335221D01*
X122780350Y-121335221D01*
X122953171Y-121279068D01*
X122953171Y-121279067D01*
X122953174Y-121279067D01*
X123115090Y-121196567D01*
X123262106Y-121089753D01*
X123390603Y-120961256D01*
X123497417Y-120814240D01*
X123579917Y-120652324D01*
X123636072Y-120479496D01*
X123664500Y-120300011D01*
X123664500Y-120118289D01*
X136595500Y-120118289D01*
X136595500Y-120300010D01*
X136623928Y-120479497D01*
X136623928Y-120479500D01*
X136680081Y-120652321D01*
X136680083Y-120652324D01*
X136762583Y-120814240D01*
X136869397Y-120961256D01*
X136997894Y-121089753D01*
X137144910Y-121196567D01*
X137306826Y-121279067D01*
X137306828Y-121279068D01*
X137468029Y-121331444D01*
X137479654Y-121335222D01*
X137659139Y-121363650D01*
X137659140Y-121363650D01*
X137840860Y-121363650D01*
X137840861Y-121363650D01*
X138020346Y-121335222D01*
X138020349Y-121335221D01*
X138020350Y-121335221D01*
X138193171Y-121279068D01*
X138193171Y-121279067D01*
X138193174Y-121279067D01*
X138355090Y-121196567D01*
X138502106Y-121089753D01*
X138630603Y-120961256D01*
X138737417Y-120814240D01*
X138819917Y-120652324D01*
X138876072Y-120479496D01*
X138904500Y-120300011D01*
X138904500Y-120118289D01*
X138876072Y-119938804D01*
X138876071Y-119938800D01*
X138876071Y-119938799D01*
X138819918Y-119765978D01*
X138819916Y-119765975D01*
X138775509Y-119678820D01*
X138737417Y-119604060D01*
X138630603Y-119457044D01*
X138502106Y-119328547D01*
X138355090Y-119221733D01*
X138193174Y-119139233D01*
X138193171Y-119139231D01*
X138020348Y-119083078D01*
X137900689Y-119064126D01*
X137840861Y-119054650D01*
X137659139Y-119054650D01*
X137599310Y-119064126D01*
X137479652Y-119083078D01*
X137479649Y-119083078D01*
X137306828Y-119139231D01*
X137306825Y-119139233D01*
X137144909Y-119221733D01*
X137067653Y-119277864D01*
X136997894Y-119328547D01*
X136997892Y-119328549D01*
X136997891Y-119328549D01*
X136869399Y-119457041D01*
X136869399Y-119457042D01*
X136869397Y-119457044D01*
X136823525Y-119520180D01*
X136762583Y-119604059D01*
X136680083Y-119765975D01*
X136680081Y-119765978D01*
X136623928Y-119938799D01*
X136623928Y-119938802D01*
X136595500Y-120118289D01*
X123664500Y-120118289D01*
X123636072Y-119938804D01*
X123636071Y-119938800D01*
X123636071Y-119938799D01*
X123579918Y-119765978D01*
X123579916Y-119765975D01*
X123535509Y-119678820D01*
X123497417Y-119604060D01*
X123390603Y-119457044D01*
X123262106Y-119328547D01*
X123115090Y-119221733D01*
X122953174Y-119139233D01*
X122953171Y-119139231D01*
X122780348Y-119083078D01*
X122660689Y-119064126D01*
X122600861Y-119054650D01*
X122419139Y-119054650D01*
X122359310Y-119064126D01*
X122239652Y-119083078D01*
X122239649Y-119083078D01*
X122066828Y-119139231D01*
X122066825Y-119139233D01*
X121904909Y-119221733D01*
X121827653Y-119277864D01*
X121757894Y-119328547D01*
X121757892Y-119328549D01*
X121757891Y-119328549D01*
X121629399Y-119457041D01*
X121629399Y-119457042D01*
X121629397Y-119457044D01*
X121583525Y-119520180D01*
X121522583Y-119604059D01*
X121440083Y-119765975D01*
X121440081Y-119765978D01*
X121383928Y-119938799D01*
X121383928Y-119938802D01*
X121355500Y-120118289D01*
X120873638Y-120118289D01*
X120839261Y-119945469D01*
X120839260Y-119945463D01*
X120817220Y-119892258D01*
X120500330Y-120209149D01*
X120370000Y-120209149D01*
X120370000Y-120156489D01*
X120342741Y-120054756D01*
X120290080Y-119963544D01*
X120215606Y-119889070D01*
X120124394Y-119836409D01*
X120022661Y-119809150D01*
X119917339Y-119809150D01*
X119815606Y-119836409D01*
X119724394Y-119889070D01*
X119649920Y-119963544D01*
X119597259Y-120054756D01*
X119570000Y-120156489D01*
X119387010Y-120156489D01*
X119122778Y-119892257D01*
X119100740Y-119945461D01*
X119100737Y-119945470D01*
X119066000Y-120120109D01*
X116140411Y-120120109D01*
X116735677Y-119361928D01*
X119653107Y-119361928D01*
X119970000Y-119678820D01*
X119970001Y-119678820D01*
X120286891Y-119361928D01*
X120233687Y-119339890D01*
X120233679Y-119339888D01*
X120059040Y-119305150D01*
X119880959Y-119305150D01*
X119706320Y-119339887D01*
X119706311Y-119339890D01*
X119653107Y-119361928D01*
X116735677Y-119361928D01*
X120093887Y-115084628D01*
X136640000Y-115084628D01*
X136654503Y-115157540D01*
X136654505Y-115157544D01*
X136709760Y-115240239D01*
X136792455Y-115295494D01*
X136792459Y-115295496D01*
X136865371Y-115309999D01*
X136865374Y-115310000D01*
X137425000Y-115310000D01*
X138175000Y-115310000D01*
X138734626Y-115310000D01*
X138734628Y-115309999D01*
X138807540Y-115295496D01*
X138807544Y-115295494D01*
X138890239Y-115240239D01*
X138945494Y-115157544D01*
X138945496Y-115157540D01*
X138959999Y-115084628D01*
X138960000Y-115084626D01*
X138960000Y-114835000D01*
X138175000Y-114835000D01*
X138175000Y-115310000D01*
X137425000Y-115310000D01*
X137425000Y-114835000D01*
X136640000Y-114835000D01*
X136640000Y-115084628D01*
X120093887Y-115084628D01*
X124400000Y-109600000D01*
X124600000Y-101000000D01*
X124600000Y-100999999D01*
X118524087Y-101004260D01*
X118457034Y-100984622D01*
X118411242Y-100931851D01*
X118400000Y-100880260D01*
X118400000Y-99707936D01*
X118419685Y-99640897D01*
X118472489Y-99595142D01*
X118541647Y-99585198D01*
X118592891Y-99604834D01*
X118631556Y-99630669D01*
X118813410Y-99705995D01*
X118813420Y-99705998D01*
X119006475Y-99744400D01*
X119203324Y-99744400D01*
X119396380Y-99705998D01*
X119396393Y-99705994D01*
X119494730Y-99665260D01*
X119494730Y-99665259D01*
X119271151Y-99441680D01*
X128600448Y-99441680D01*
X128704813Y-99484910D01*
X128704817Y-99484911D01*
X128900322Y-99523799D01*
X128900326Y-99523800D01*
X129099674Y-99523800D01*
X129099677Y-99523799D01*
X129295183Y-99484911D01*
X129295198Y-99484907D01*
X129399551Y-99441681D01*
X129399551Y-99441680D01*
X140350448Y-99441680D01*
X140454813Y-99484910D01*
X140454817Y-99484911D01*
X140650322Y-99523799D01*
X140650326Y-99523800D01*
X140849674Y-99523800D01*
X140849677Y-99523799D01*
X141045183Y-99484911D01*
X141045198Y-99484907D01*
X141149551Y-99441681D01*
X141149551Y-99441680D01*
X140750001Y-99042130D01*
X140750000Y-99042130D01*
X140350448Y-99441680D01*
X129399551Y-99441680D01*
X129000001Y-99042130D01*
X129000000Y-99042130D01*
X128600448Y-99441680D01*
X119271151Y-99441680D01*
X119069871Y-99240400D01*
X119170107Y-99240400D01*
X119296079Y-99206646D01*
X119409021Y-99141439D01*
X119501239Y-99049221D01*
X119566446Y-98936279D01*
X119600200Y-98810307D01*
X119600200Y-98745099D01*
X119635230Y-98745099D01*
X119635230Y-98745101D01*
X120025059Y-99134930D01*
X120025060Y-99134930D01*
X120065794Y-99036593D01*
X120065798Y-99036580D01*
X120104200Y-98843524D01*
X120104200Y-98646675D01*
X120065798Y-98453620D01*
X120065797Y-98453618D01*
X120065745Y-98453491D01*
X120065744Y-98453489D01*
X120048609Y-98412122D01*
X127988000Y-98412122D01*
X127988000Y-98611477D01*
X128026888Y-98806982D01*
X128026890Y-98806990D01*
X128070118Y-98911351D01*
X128469670Y-98511800D01*
X128469670Y-98511799D01*
X128402791Y-98444920D01*
X128492000Y-98444920D01*
X128492000Y-98578680D01*
X128526619Y-98707881D01*
X128593498Y-98823720D01*
X128688080Y-98918302D01*
X128803919Y-98985181D01*
X128933120Y-99019800D01*
X129066880Y-99019800D01*
X129196081Y-98985181D01*
X129311920Y-98918302D01*
X129406502Y-98823720D01*
X129473381Y-98707881D01*
X129508000Y-98578680D01*
X129508000Y-98511799D01*
X129530330Y-98511799D01*
X129530330Y-98511800D01*
X129929880Y-98911351D01*
X129929881Y-98911351D01*
X129973107Y-98806998D01*
X129973111Y-98806983D01*
X130011999Y-98611477D01*
X130012000Y-98611474D01*
X130012000Y-98412126D01*
X130011999Y-98412122D01*
X139738000Y-98412122D01*
X139738000Y-98611477D01*
X139776888Y-98806982D01*
X139776890Y-98806990D01*
X139820118Y-98911351D01*
X140219670Y-98511800D01*
X140219670Y-98511799D01*
X140152791Y-98444920D01*
X140242000Y-98444920D01*
X140242000Y-98578680D01*
X140276619Y-98707881D01*
X140343498Y-98823720D01*
X140438080Y-98918302D01*
X140553919Y-98985181D01*
X140683120Y-99019800D01*
X140816880Y-99019800D01*
X140946081Y-98985181D01*
X141061920Y-98918302D01*
X141156502Y-98823720D01*
X141223381Y-98707881D01*
X141258000Y-98578680D01*
X141258000Y-98511799D01*
X141280330Y-98511799D01*
X141280330Y-98511800D01*
X141679880Y-98911351D01*
X141679881Y-98911351D01*
X141723107Y-98806998D01*
X141723111Y-98806983D01*
X141761999Y-98611477D01*
X141762000Y-98611474D01*
X141762000Y-98412126D01*
X141761999Y-98412122D01*
X141723111Y-98216617D01*
X141723110Y-98216613D01*
X141679880Y-98112248D01*
X141280330Y-98511799D01*
X141258000Y-98511799D01*
X141258000Y-98444920D01*
X141223381Y-98315719D01*
X141156502Y-98199880D01*
X141061920Y-98105298D01*
X140946081Y-98038419D01*
X140816880Y-98003800D01*
X140683120Y-98003800D01*
X140553919Y-98038419D01*
X140438080Y-98105298D01*
X140343498Y-98199880D01*
X140276619Y-98315719D01*
X140242000Y-98444920D01*
X140152791Y-98444920D01*
X139820118Y-98112247D01*
X139776890Y-98216609D01*
X139776888Y-98216617D01*
X139738000Y-98412122D01*
X130011999Y-98412122D01*
X129973111Y-98216617D01*
X129973110Y-98216613D01*
X129929880Y-98112248D01*
X129530330Y-98511799D01*
X129508000Y-98511799D01*
X129508000Y-98444920D01*
X129473381Y-98315719D01*
X129406502Y-98199880D01*
X129311920Y-98105298D01*
X129196081Y-98038419D01*
X129066880Y-98003800D01*
X128933120Y-98003800D01*
X128803919Y-98038419D01*
X128688080Y-98105298D01*
X128593498Y-98199880D01*
X128526619Y-98315719D01*
X128492000Y-98444920D01*
X128402791Y-98444920D01*
X128070118Y-98112247D01*
X128026890Y-98216609D01*
X128026888Y-98216617D01*
X127988000Y-98412122D01*
X120048609Y-98412122D01*
X120025059Y-98355269D01*
X119635230Y-98745099D01*
X119600200Y-98745099D01*
X119600200Y-98679893D01*
X119566446Y-98553921D01*
X119501239Y-98440979D01*
X119409021Y-98348761D01*
X119296079Y-98283554D01*
X119170107Y-98249800D01*
X119069870Y-98249800D01*
X119494730Y-97824939D01*
X119396385Y-97784203D01*
X119396379Y-97784201D01*
X119203324Y-97745800D01*
X119006476Y-97745800D01*
X118813420Y-97784201D01*
X118813410Y-97784204D01*
X118631555Y-97859530D01*
X118631553Y-97859531D01*
X118592889Y-97885366D01*
X118526212Y-97906243D01*
X118458832Y-97887758D01*
X118412142Y-97835778D01*
X118400000Y-97782263D01*
X118400000Y-97581918D01*
X128600447Y-97581918D01*
X129000000Y-97981470D01*
X129000001Y-97981470D01*
X129399551Y-97581918D01*
X140350447Y-97581918D01*
X140750000Y-97981470D01*
X140750001Y-97981470D01*
X141149551Y-97581918D01*
X141045190Y-97538690D01*
X141045182Y-97538688D01*
X140849677Y-97499800D01*
X140650322Y-97499800D01*
X140454817Y-97538688D01*
X140454809Y-97538690D01*
X140350447Y-97581918D01*
X129399551Y-97581918D01*
X129295190Y-97538690D01*
X129295182Y-97538688D01*
X129099677Y-97499800D01*
X128900322Y-97499800D01*
X128704817Y-97538688D01*
X128704809Y-97538690D01*
X128600447Y-97581918D01*
X118400000Y-97581918D01*
X118400000Y-97121360D01*
X118419685Y-97054321D01*
X118472489Y-97008566D01*
X118524026Y-96997360D01*
X130600000Y-97000000D01*
X130600000Y-96999999D01*
X130628545Y-87209137D01*
X130648424Y-87142156D01*
X130701362Y-87096555D01*
X130752539Y-87085499D01*
X132752872Y-87085499D01*
X132812483Y-87079091D01*
X132947331Y-87028796D01*
X133062546Y-86942546D01*
X133148796Y-86827331D01*
X133199091Y-86692483D01*
X133205500Y-86632873D01*
X133205499Y-85147128D01*
X133199091Y-85087517D01*
X133148796Y-84952669D01*
X133148795Y-84952668D01*
X133148793Y-84952664D01*
X133062547Y-84837455D01*
X133062544Y-84837452D01*
X132947335Y-84751206D01*
X132947328Y-84751202D01*
X132812482Y-84700908D01*
X132812483Y-84700908D01*
X132752883Y-84694501D01*
X132752881Y-84694500D01*
X132752873Y-84694500D01*
X132752865Y-84694500D01*
X130760238Y-84694500D01*
X130751378Y-84691898D01*
X130742234Y-84693186D01*
X130718385Y-84682210D01*
X130693199Y-84674815D01*
X130687152Y-84667836D01*
X130678763Y-84663976D01*
X130664633Y-84641849D01*
X130647444Y-84622011D01*
X130645132Y-84611308D01*
X130641160Y-84605088D01*
X130636239Y-84570139D01*
X130636680Y-84418639D01*
X130656559Y-84351657D01*
X130709496Y-84306056D01*
X130760679Y-84295000D01*
X131285000Y-84295000D01*
X132035000Y-84295000D01*
X132729626Y-84295000D01*
X132729628Y-84294999D01*
X132802540Y-84280496D01*
X132802544Y-84280494D01*
X132885239Y-84225239D01*
X132940494Y-84142544D01*
X132940496Y-84142540D01*
X132954999Y-84069628D01*
X132955000Y-84069626D01*
X132955000Y-83725000D01*
X132035000Y-83725000D01*
X132035000Y-84295000D01*
X131285000Y-84295000D01*
X131285000Y-82975000D01*
X132035000Y-82975000D01*
X132955000Y-82975000D01*
X132955000Y-82630373D01*
X132954999Y-82630371D01*
X132940496Y-82557459D01*
X132940494Y-82557455D01*
X132885239Y-82474760D01*
X132802544Y-82419505D01*
X132802540Y-82419503D01*
X132729627Y-82405000D01*
X132035000Y-82405000D01*
X132035000Y-82975000D01*
X131285000Y-82975000D01*
X131285000Y-82405000D01*
X130766912Y-82405000D01*
X130758051Y-82402398D01*
X130748907Y-82403686D01*
X130725056Y-82392709D01*
X130699873Y-82385315D01*
X130693827Y-82378337D01*
X130685436Y-82374476D01*
X130671304Y-82352344D01*
X130654118Y-82332511D01*
X130651806Y-82321811D01*
X130647833Y-82315588D01*
X130642913Y-82280642D01*
X130643355Y-82129136D01*
X130663235Y-82062155D01*
X130716172Y-82016555D01*
X130767349Y-82005499D01*
X132752872Y-82005499D01*
X132812483Y-81999091D01*
X132947331Y-81948796D01*
X133062546Y-81862546D01*
X133148796Y-81747331D01*
X133199091Y-81612483D01*
X133205500Y-81552873D01*
X133205499Y-80067128D01*
X133199091Y-80007517D01*
X133148796Y-79872669D01*
X133148795Y-79872668D01*
X133148793Y-79872664D01*
X133062547Y-79757455D01*
X133062544Y-79757452D01*
X132947335Y-79671206D01*
X132947328Y-79671202D01*
X132812482Y-79620908D01*
X132812483Y-79620908D01*
X132752883Y-79614501D01*
X132752881Y-79614500D01*
X132752873Y-79614500D01*
X132752865Y-79614500D01*
X131524000Y-79614500D01*
X131456961Y-79594815D01*
X131411206Y-79542011D01*
X131400000Y-79490500D01*
X131400000Y-79345000D01*
X131400000Y-79215000D01*
X132035000Y-79215000D01*
X132729626Y-79215000D01*
X132729628Y-79214999D01*
X132802540Y-79200496D01*
X132802544Y-79200494D01*
X132885239Y-79145239D01*
X132940494Y-79062544D01*
X132940496Y-79062540D01*
X132954999Y-78989628D01*
X132955000Y-78989626D01*
X132955000Y-78645000D01*
X132035000Y-78645000D01*
X132035000Y-79215000D01*
X131400000Y-79215000D01*
X131400000Y-78271957D01*
X131409000Y-78270000D01*
X131660000Y-78270000D01*
X131660000Y-78019000D01*
X131679685Y-77951961D01*
X131732489Y-77906206D01*
X131784000Y-77895000D01*
X132955000Y-77895000D01*
X132955000Y-77550373D01*
X132954999Y-77550371D01*
X132940496Y-77477459D01*
X132940494Y-77477455D01*
X132883991Y-77392891D01*
X132863113Y-77326213D01*
X132881598Y-77258833D01*
X132933577Y-77212143D01*
X132987093Y-77200000D01*
X133000000Y-77200000D01*
X133000000Y-76891437D01*
X133019685Y-76824398D01*
X133049690Y-76792169D01*
X133062546Y-76782546D01*
X133148796Y-76667331D01*
X133199091Y-76532483D01*
X133205500Y-76472873D01*
X133205499Y-74987128D01*
X133199091Y-74927517D01*
X133187179Y-74895580D01*
X133148797Y-74792671D01*
X133148793Y-74792664D01*
X133062547Y-74677455D01*
X133062544Y-74677452D01*
X132947335Y-74591206D01*
X132947328Y-74591202D01*
X132812482Y-74540908D01*
X132812483Y-74540908D01*
X132752883Y-74534501D01*
X132752881Y-74534500D01*
X132752873Y-74534500D01*
X132752865Y-74534500D01*
X131524000Y-74534500D01*
X131456961Y-74514815D01*
X131411206Y-74462011D01*
X131400000Y-74410500D01*
X131400000Y-74265000D01*
X131400000Y-74135000D01*
X132035000Y-74135000D01*
X132729626Y-74135000D01*
X132729628Y-74134999D01*
X132802540Y-74120496D01*
X132802544Y-74120494D01*
X132885239Y-74065239D01*
X132940494Y-73982544D01*
X132940496Y-73982540D01*
X132954999Y-73909628D01*
X132955000Y-73909626D01*
X132955000Y-73565000D01*
X132035000Y-73565000D01*
X132035000Y-74135000D01*
X131400000Y-74135000D01*
X131400000Y-72815000D01*
X132035000Y-72815000D01*
X132955000Y-72815000D01*
X132955000Y-72470373D01*
X132954999Y-72470371D01*
X132940496Y-72397459D01*
X132940494Y-72397455D01*
X132885239Y-72314760D01*
X132802544Y-72259505D01*
X132802540Y-72259503D01*
X132729627Y-72245000D01*
X132035000Y-72245000D01*
X132035000Y-72815000D01*
X131400000Y-72815000D01*
X131400000Y-71969499D01*
X131419685Y-71902460D01*
X131472489Y-71856705D01*
X131523997Y-71845499D01*
X132752872Y-71845499D01*
X132812483Y-71839091D01*
X132947331Y-71788796D01*
X133062546Y-71702546D01*
X133148796Y-71587331D01*
X133199091Y-71452483D01*
X133205500Y-71392873D01*
X133205499Y-69907128D01*
X133199091Y-69847517D01*
X133179158Y-69794075D01*
X133148797Y-69712671D01*
X133148793Y-69712664D01*
X133062547Y-69597455D01*
X133062544Y-69597452D01*
X132947335Y-69511206D01*
X132947328Y-69511202D01*
X132812482Y-69460908D01*
X132812483Y-69460908D01*
X132752883Y-69454501D01*
X132752881Y-69454500D01*
X132752873Y-69454500D01*
X132752865Y-69454500D01*
X131034699Y-69454500D01*
X131025183Y-69451705D01*
X131015348Y-69452981D01*
X130992213Y-69442024D01*
X130967660Y-69434815D01*
X130961166Y-69427321D01*
X130952202Y-69423076D01*
X130938662Y-69401349D01*
X130921905Y-69382011D01*
X130919508Y-69370616D01*
X130915248Y-69363779D01*
X130910711Y-69328777D01*
X130912816Y-69177277D01*
X130933430Y-69110518D01*
X130986865Y-69065501D01*
X131036804Y-69055000D01*
X131285000Y-69055000D01*
X132035000Y-69055000D01*
X132729626Y-69055000D01*
X132729628Y-69054999D01*
X132802540Y-69040496D01*
X132802544Y-69040494D01*
X132885239Y-68985239D01*
X132940494Y-68902544D01*
X132940496Y-68902540D01*
X132954999Y-68829628D01*
X132955000Y-68829626D01*
X132955000Y-68485000D01*
X132035000Y-68485000D01*
X132035000Y-69055000D01*
X131285000Y-69055000D01*
X131285000Y-67735000D01*
X132035000Y-67735000D01*
X132955000Y-67735000D01*
X132955000Y-67390373D01*
X132954999Y-67390371D01*
X132940496Y-67317459D01*
X132940494Y-67317455D01*
X132885239Y-67234760D01*
X132802544Y-67179505D01*
X132802540Y-67179503D01*
X132729627Y-67165000D01*
X132035000Y-67165000D01*
X132035000Y-67735000D01*
X131285000Y-67735000D01*
X131285000Y-67165000D01*
X131066498Y-67165000D01*
X130999459Y-67145315D01*
X130953704Y-67092511D01*
X130942510Y-67039278D01*
X130948302Y-66622278D01*
X130968916Y-66555518D01*
X131022350Y-66510501D01*
X131072290Y-66500000D01*
X135926653Y-66500000D01*
X135993692Y-66519685D01*
G37*
%TD.AperFunction*%
%TD*%
%TA.AperFunction,Conductor*%
%TO.N,+VIN-dc*%
G36*
X116143354Y-98936279D02*
G01*
X116208561Y-99049221D01*
X116300779Y-99141439D01*
X116413721Y-99206646D01*
X116479327Y-99224225D01*
X115915275Y-99788276D01*
X115915275Y-99788277D01*
X115950123Y-99813596D01*
X116125334Y-99902872D01*
X116125337Y-99902873D01*
X116312353Y-99963637D01*
X116506579Y-99994400D01*
X116703221Y-99994400D01*
X116897446Y-99963637D01*
X117084462Y-99902873D01*
X117084475Y-99902867D01*
X117259669Y-99813600D01*
X117259674Y-99813597D01*
X117294524Y-99788276D01*
X116730473Y-99224225D01*
X116796079Y-99206646D01*
X116909021Y-99141439D01*
X117001239Y-99049221D01*
X117066446Y-98936279D01*
X117084025Y-98870672D01*
X117648076Y-99434723D01*
X117666273Y-99433292D01*
X117734650Y-99447657D01*
X117784406Y-99496709D01*
X117800000Y-99556910D01*
X117800000Y-116380367D01*
X117780315Y-116447406D01*
X117727511Y-116493161D01*
X117677676Y-116504356D01*
X110723235Y-116598334D01*
X110655935Y-116579557D01*
X110609471Y-116527376D01*
X110597583Y-116476779D01*
X110571698Y-115156611D01*
X110590063Y-115089203D01*
X110641960Y-115042422D01*
X110710910Y-115031125D01*
X110768559Y-115053867D01*
X110888567Y-115141058D01*
X111065562Y-115231242D01*
X111254477Y-115292624D01*
X111450679Y-115323700D01*
X111649321Y-115323700D01*
X111845520Y-115292624D01*
X111845523Y-115292624D01*
X112034437Y-115231242D01*
X112211425Y-115141062D01*
X112248715Y-115113968D01*
X111685941Y-114551195D01*
X111746081Y-114535081D01*
X111861920Y-114468202D01*
X111956502Y-114373620D01*
X112023381Y-114257781D01*
X112039495Y-114197642D01*
X112602268Y-114760415D01*
X112629362Y-114723125D01*
X112719542Y-114546137D01*
X112780924Y-114357223D01*
X112780924Y-114357220D01*
X112812000Y-114161021D01*
X112812000Y-113962378D01*
X112780924Y-113766179D01*
X112780924Y-113766176D01*
X112719542Y-113577262D01*
X112629358Y-113400267D01*
X112602268Y-113362983D01*
X112039494Y-113925757D01*
X112023381Y-113865619D01*
X111956502Y-113749780D01*
X111861920Y-113655198D01*
X111746081Y-113588319D01*
X111685942Y-113572204D01*
X112248716Y-113009431D01*
X112248715Y-113009430D01*
X112211432Y-112982341D01*
X112034437Y-112892157D01*
X111845522Y-112830775D01*
X111649321Y-112799700D01*
X111450679Y-112799700D01*
X111254479Y-112830775D01*
X111254476Y-112830775D01*
X111065562Y-112892157D01*
X110888564Y-112982343D01*
X110851283Y-113009429D01*
X110851282Y-113009430D01*
X111414058Y-113572204D01*
X111353919Y-113588319D01*
X111238080Y-113655198D01*
X111143498Y-113749780D01*
X111076619Y-113865619D01*
X111060504Y-113925758D01*
X110537305Y-113402558D01*
X110514244Y-112226430D01*
X110532610Y-112159018D01*
X110584507Y-112112237D01*
X110638220Y-112100000D01*
X115500000Y-112100000D01*
X115500000Y-99566159D01*
X115500357Y-99566159D01*
X115500000Y-99562838D01*
X115500000Y-99524365D01*
X115527869Y-99468688D01*
X115530944Y-99465502D01*
X116125774Y-98870671D01*
X116143354Y-98936279D01*
G37*
%TD.AperFunction*%
%TD*%
%TA.AperFunction,Conductor*%
%TO.N,GPIO_25*%
G36*
X144668197Y-79769685D02*
G01*
X144671460Y-79771855D01*
X145286520Y-80195170D01*
X145330583Y-80249393D01*
X145332040Y-80253030D01*
X145999998Y-81999998D01*
X145999999Y-81999998D01*
X146000000Y-82000000D01*
X146476321Y-82041418D01*
X146476323Y-82041419D01*
X146498119Y-82043314D01*
X146498120Y-82043315D01*
X148300000Y-82200000D01*
X149757958Y-82326778D01*
X150260330Y-82829150D01*
X150181541Y-82829150D01*
X150049288Y-82864587D01*
X149930713Y-82933046D01*
X149833896Y-83029863D01*
X149765437Y-83148438D01*
X149730000Y-83280691D01*
X149730000Y-83417609D01*
X149765437Y-83549862D01*
X149833896Y-83668437D01*
X149930713Y-83765254D01*
X150049288Y-83833713D01*
X150181541Y-83869150D01*
X150260328Y-83869150D01*
X149855761Y-84273717D01*
X149794438Y-84307202D01*
X149751691Y-84308948D01*
X149692543Y-84301061D01*
X145929011Y-84339570D01*
X145873153Y-84343243D01*
X145873137Y-84343244D01*
X145870275Y-84343593D01*
X145855305Y-84344500D01*
X145587866Y-84344500D01*
X145520827Y-84324815D01*
X145515228Y-84320997D01*
X145135645Y-84046638D01*
X145092843Y-83991413D01*
X145089833Y-83982824D01*
X144874677Y-83288093D01*
X144864823Y-83256276D01*
X149070000Y-83256276D01*
X149070000Y-83442023D01*
X149099055Y-83625468D01*
X149099055Y-83625471D01*
X149156450Y-83802111D01*
X149156450Y-83802112D01*
X149193665Y-83875153D01*
X149193666Y-83875153D01*
X149719670Y-83349150D01*
X149719670Y-83349149D01*
X149193665Y-82823145D01*
X149156450Y-82896187D01*
X149156450Y-82896188D01*
X149099055Y-83072828D01*
X149099055Y-83072831D01*
X149070000Y-83256276D01*
X144864823Y-83256276D01*
X144763039Y-82927620D01*
X144753304Y-82896187D01*
X144615122Y-82450000D01*
X144615121Y-82450000D01*
X142318811Y-82450000D01*
X142251772Y-82430315D01*
X142219546Y-82400313D01*
X142142546Y-82297454D01*
X142119709Y-82280358D01*
X142027335Y-82211206D01*
X142027328Y-82211202D01*
X141892482Y-82160908D01*
X141892483Y-82160908D01*
X141832883Y-82154501D01*
X141832881Y-82154500D01*
X141832873Y-82154500D01*
X141832865Y-82154500D01*
X140455862Y-82154500D01*
X140388823Y-82134815D01*
X140368181Y-82118181D01*
X140347680Y-82097680D01*
X140314195Y-82036357D01*
X140319179Y-81966665D01*
X140347681Y-81922317D01*
X140364999Y-81904999D01*
X141115000Y-81904999D01*
X141816479Y-81904999D01*
X141910149Y-81890164D01*
X141910155Y-81890162D01*
X142023041Y-81832643D01*
X142023050Y-81832636D01*
X142112636Y-81743050D01*
X142112639Y-81743046D01*
X142170166Y-81630144D01*
X142185000Y-81536486D01*
X142185000Y-81185000D01*
X141115000Y-81185000D01*
X141115000Y-81904999D01*
X140364999Y-81904999D01*
X140365000Y-81904998D01*
X140365000Y-80934000D01*
X140384685Y-80866961D01*
X140437489Y-80821206D01*
X140489000Y-80810000D01*
X140740000Y-80810000D01*
X140740000Y-80559000D01*
X140759685Y-80491961D01*
X140812489Y-80446206D01*
X140864000Y-80435000D01*
X142184999Y-80435000D01*
X142184999Y-80083520D01*
X142170164Y-79989850D01*
X142139819Y-79930295D01*
X142126923Y-79861626D01*
X142153199Y-79796886D01*
X142210305Y-79756628D01*
X142250304Y-79750000D01*
X144601158Y-79750000D01*
X144668197Y-79769685D01*
G37*
%TD.AperFunction*%
%TD*%
%TA.AperFunction,Conductor*%
%TO.N,spare_opto*%
G36*
X129743039Y-61419685D02*
G01*
X129788794Y-61472489D01*
X129800000Y-61524000D01*
X129800000Y-69600000D01*
X130397998Y-69600000D01*
X130407507Y-69602792D01*
X130417337Y-69601517D01*
X130440478Y-69612473D01*
X130465037Y-69619685D01*
X130473209Y-69627970D01*
X130480486Y-69631416D01*
X130503196Y-69658374D01*
X130503228Y-69658406D01*
X130517652Y-69681546D01*
X130517655Y-69681550D01*
X130522961Y-69690063D01*
X130523190Y-69690432D01*
X130523194Y-69690438D01*
X130523198Y-69690444D01*
X130523200Y-69690446D01*
X130527116Y-69695094D01*
X130536599Y-69707946D01*
X130539879Y-69713049D01*
X130539881Y-69713052D01*
X130539884Y-69713056D01*
X130545535Y-69719577D01*
X130545537Y-69719581D01*
X130585635Y-69765855D01*
X130588776Y-69768996D01*
X130588552Y-69769219D01*
X130589584Y-69770409D01*
X130595955Y-69776804D01*
X130615901Y-69800478D01*
X130657063Y-69827745D01*
X130694373Y-69860073D01*
X130731365Y-69876966D01*
X130735850Y-69879937D01*
X130735854Y-69879938D01*
X130735856Y-69879940D01*
X130776450Y-69899164D01*
X130776453Y-69899166D01*
X130798493Y-69909604D01*
X130799017Y-69909854D01*
X130799033Y-69909860D01*
X130799035Y-69909860D01*
X130799040Y-69909863D01*
X130804840Y-69911653D01*
X130819782Y-69917343D01*
X130825252Y-69919841D01*
X130849805Y-69927050D01*
X130849805Y-69927049D01*
X130875926Y-69934719D01*
X130875942Y-69934723D01*
X130882727Y-69936716D01*
X130882727Y-69936717D01*
X130892130Y-69939478D01*
X130892275Y-69939522D01*
X130892280Y-69939523D01*
X130892283Y-69939524D01*
X130892286Y-69939524D01*
X130896789Y-69940518D01*
X130896721Y-69940824D01*
X130897525Y-69941060D01*
X130906919Y-69943160D01*
X130936520Y-69952297D01*
X130977842Y-69952865D01*
X130993778Y-69954116D01*
X131034692Y-69959999D01*
X131034699Y-69960000D01*
X132575999Y-69960000D01*
X132643038Y-69979685D01*
X132688793Y-70032489D01*
X132699999Y-70084000D01*
X132700000Y-71215999D01*
X132680315Y-71283038D01*
X132627512Y-71328793D01*
X132576000Y-71339999D01*
X131523988Y-71339999D01*
X131416537Y-71351552D01*
X131416536Y-71351552D01*
X131372350Y-71361165D01*
X131365027Y-71362759D01*
X131365025Y-71362759D01*
X131365023Y-71362760D01*
X131262492Y-71396887D01*
X131141453Y-71474676D01*
X131140659Y-71475271D01*
X131140347Y-71475387D01*
X131137732Y-71477068D01*
X131137366Y-71476498D01*
X131075193Y-71499685D01*
X131066354Y-71500000D01*
X127474000Y-71500000D01*
X127406961Y-71480315D01*
X127361206Y-71427511D01*
X127350000Y-71376000D01*
X127350000Y-64600000D01*
X116124000Y-64600000D01*
X116056961Y-64580315D01*
X116011206Y-64527511D01*
X116000000Y-64476000D01*
X116000000Y-61524000D01*
X116019685Y-61456961D01*
X116072489Y-61411206D01*
X116124000Y-61400000D01*
X129676000Y-61400000D01*
X129743039Y-61419685D01*
G37*
%TD.AperFunction*%
%TD*%
%TA.AperFunction,Conductor*%
%TO.N,spare*%
G36*
X126708059Y-55001061D02*
G01*
X126813223Y-55014906D01*
X126844491Y-55023284D01*
X126934918Y-55060740D01*
X126962952Y-55076925D01*
X127040602Y-55136509D01*
X127063491Y-55159398D01*
X127123074Y-55237048D01*
X127139259Y-55265081D01*
X127176715Y-55355508D01*
X127185093Y-55386775D01*
X127198939Y-55491939D01*
X127200000Y-55508125D01*
X127200000Y-60291874D01*
X127198939Y-60308060D01*
X127185093Y-60413224D01*
X127176715Y-60444491D01*
X127139259Y-60534918D01*
X127123074Y-60562951D01*
X127063491Y-60640601D01*
X127040601Y-60663491D01*
X126962951Y-60723074D01*
X126934918Y-60739259D01*
X126844491Y-60776715D01*
X126813224Y-60785093D01*
X126719398Y-60797446D01*
X126708058Y-60798939D01*
X126691874Y-60800000D01*
X125614684Y-60800000D01*
X125547645Y-60780315D01*
X125501890Y-60727511D01*
X125491946Y-60658353D01*
X125520971Y-60594797D01*
X125571351Y-60559818D01*
X125602086Y-60548354D01*
X125602093Y-60548350D01*
X125717187Y-60462190D01*
X125717190Y-60462187D01*
X125803350Y-60347093D01*
X125803354Y-60347086D01*
X125853596Y-60212379D01*
X125853598Y-60212372D01*
X125859999Y-60152844D01*
X125860000Y-60152827D01*
X125860000Y-59830000D01*
X123140000Y-59830000D01*
X123140000Y-60152844D01*
X123146401Y-60212372D01*
X123146403Y-60212379D01*
X123196645Y-60347086D01*
X123196649Y-60347093D01*
X123282809Y-60462187D01*
X123282812Y-60462190D01*
X123397906Y-60548350D01*
X123397913Y-60548354D01*
X123428649Y-60559818D01*
X123484583Y-60601689D01*
X123509000Y-60667154D01*
X123494148Y-60735427D01*
X123444743Y-60784832D01*
X123385316Y-60800000D01*
X121114684Y-60800000D01*
X121047645Y-60780315D01*
X121001890Y-60727511D01*
X120991946Y-60658353D01*
X121020971Y-60594797D01*
X121071351Y-60559818D01*
X121102086Y-60548354D01*
X121102093Y-60548350D01*
X121217187Y-60462190D01*
X121217190Y-60462187D01*
X121303350Y-60347093D01*
X121303354Y-60347086D01*
X121353596Y-60212379D01*
X121353598Y-60212372D01*
X121359999Y-60152844D01*
X121360000Y-60152827D01*
X121360000Y-59830000D01*
X118640000Y-59830000D01*
X118640000Y-60152844D01*
X118646401Y-60212372D01*
X118646403Y-60212379D01*
X118696645Y-60347086D01*
X118696649Y-60347093D01*
X118782809Y-60462187D01*
X118782812Y-60462190D01*
X118897906Y-60548350D01*
X118897913Y-60548354D01*
X118928649Y-60559818D01*
X118984583Y-60601689D01*
X119009000Y-60667154D01*
X118994148Y-60735427D01*
X118944743Y-60784832D01*
X118885316Y-60800000D01*
X115400000Y-60800000D01*
X115399999Y-60800000D01*
X115399997Y-60800001D01*
X109391443Y-67149122D01*
X109391443Y-67149123D01*
X108171134Y-68438596D01*
X108110757Y-68473757D01*
X108040954Y-68470694D01*
X107983889Y-68430380D01*
X107958805Y-68368397D01*
X107958262Y-68368484D01*
X107957890Y-68366137D01*
X107957678Y-68365613D01*
X107957512Y-68363749D01*
X107925796Y-68163508D01*
X107863174Y-67970774D01*
X107863172Y-67970771D01*
X107771168Y-67790202D01*
X107740525Y-67748027D01*
X107740525Y-67748026D01*
X107173374Y-68315176D01*
X107159222Y-68262358D01*
X107090104Y-68142643D01*
X106992357Y-68044896D01*
X106872642Y-67975778D01*
X106819822Y-67961624D01*
X107386972Y-67394474D01*
X107386971Y-67394473D01*
X107344797Y-67363831D01*
X107164228Y-67271827D01*
X107164225Y-67271825D01*
X106971491Y-67209203D01*
X106771327Y-67177500D01*
X106568673Y-67177500D01*
X106368508Y-67209203D01*
X106175774Y-67271825D01*
X106175771Y-67271826D01*
X105995204Y-67363830D01*
X105953027Y-67394473D01*
X106520178Y-67961624D01*
X106467358Y-67975778D01*
X106347643Y-68044896D01*
X106249896Y-68142643D01*
X106180778Y-68262358D01*
X106166624Y-68315178D01*
X105599473Y-67748027D01*
X105568830Y-67790204D01*
X105476826Y-67970771D01*
X105476825Y-67970774D01*
X105414203Y-68163508D01*
X105382500Y-68363672D01*
X105382500Y-68566323D01*
X105388248Y-68602619D01*
X105379292Y-68671913D01*
X105334294Y-68725364D01*
X105267542Y-68746002D01*
X105200229Y-68727276D01*
X105185605Y-68716614D01*
X103792871Y-67536331D01*
X103792870Y-67536330D01*
X103777226Y-67523072D01*
X103764669Y-67510800D01*
X103688477Y-67424982D01*
X103669152Y-67395763D01*
X103623810Y-67300094D01*
X103613429Y-67266636D01*
X103604212Y-67209203D01*
X103596652Y-67162101D01*
X103596043Y-67127087D01*
X103609173Y-67022019D01*
X103618381Y-66988233D01*
X103660370Y-66891035D01*
X103678665Y-66861165D01*
X103751832Y-66772737D01*
X103763930Y-66760061D01*
X109000000Y-62000000D01*
X109000000Y-59007155D01*
X118640000Y-59007155D01*
X118640000Y-59330000D01*
X119750000Y-59330000D01*
X120250000Y-59330000D01*
X121360000Y-59330000D01*
X121360000Y-59007172D01*
X121359999Y-59007155D01*
X123140000Y-59007155D01*
X123140000Y-59330000D01*
X124250000Y-59330000D01*
X124750000Y-59330000D01*
X125860000Y-59330000D01*
X125860000Y-59007172D01*
X125859999Y-59007155D01*
X125853598Y-58947627D01*
X125853596Y-58947620D01*
X125803354Y-58812913D01*
X125803350Y-58812906D01*
X125717190Y-58697812D01*
X125717187Y-58697809D01*
X125602093Y-58611649D01*
X125602086Y-58611645D01*
X125467379Y-58561403D01*
X125467372Y-58561401D01*
X125407844Y-58555000D01*
X124750000Y-58555000D01*
X124750000Y-59330000D01*
X124250000Y-59330000D01*
X124250000Y-58555000D01*
X123592155Y-58555000D01*
X123532627Y-58561401D01*
X123532620Y-58561403D01*
X123397913Y-58611645D01*
X123397906Y-58611649D01*
X123282812Y-58697809D01*
X123282809Y-58697812D01*
X123196649Y-58812906D01*
X123196645Y-58812913D01*
X123146403Y-58947620D01*
X123146401Y-58947627D01*
X123140000Y-59007155D01*
X121359999Y-59007155D01*
X121353598Y-58947627D01*
X121353596Y-58947620D01*
X121303354Y-58812913D01*
X121303350Y-58812906D01*
X121217190Y-58697812D01*
X121217187Y-58697809D01*
X121102093Y-58611649D01*
X121102086Y-58611645D01*
X120967379Y-58561403D01*
X120967372Y-58561401D01*
X120907844Y-58555000D01*
X120250000Y-58555000D01*
X120250000Y-59330000D01*
X119750000Y-59330000D01*
X119750000Y-58555000D01*
X119092155Y-58555000D01*
X119032627Y-58561401D01*
X119032620Y-58561403D01*
X118897913Y-58611645D01*
X118897906Y-58611649D01*
X118782812Y-58697809D01*
X118782809Y-58697812D01*
X118696649Y-58812906D01*
X118696645Y-58812913D01*
X118646403Y-58947620D01*
X118646401Y-58947627D01*
X118640000Y-59007155D01*
X109000000Y-59007155D01*
X109000000Y-55508125D01*
X109001061Y-55491940D01*
X109014906Y-55386776D01*
X109014906Y-55386775D01*
X109023284Y-55355508D01*
X109060740Y-55265081D01*
X109076923Y-55237050D01*
X109136513Y-55159392D01*
X109159392Y-55136513D01*
X109237050Y-55076923D01*
X109265079Y-55060740D01*
X109355509Y-55023283D01*
X109386775Y-55014906D01*
X109491941Y-55001061D01*
X109508126Y-55000000D01*
X126691874Y-55000000D01*
X126708059Y-55001061D01*
G37*
%TD.AperFunction*%
%TD*%
%TA.AperFunction,Conductor*%
%TO.N,sim_home*%
G36*
X116297319Y-87503710D02*
G01*
X116404349Y-87516632D01*
X116436190Y-87524870D01*
X116528335Y-87562343D01*
X116556895Y-87578669D01*
X116642564Y-87644113D01*
X116654970Y-87654970D01*
X123047801Y-94047801D01*
X123058496Y-94059996D01*
X123123075Y-94144157D01*
X123139260Y-94172191D01*
X123176715Y-94262616D01*
X123185093Y-94293882D01*
X123198939Y-94399046D01*
X123200000Y-94415232D01*
X123200000Y-95991874D01*
X123198939Y-96008060D01*
X123185093Y-96113224D01*
X123176715Y-96144491D01*
X123139259Y-96234918D01*
X123123074Y-96262951D01*
X123063491Y-96340601D01*
X123040601Y-96363491D01*
X122962951Y-96423074D01*
X122934918Y-96439259D01*
X122844491Y-96476715D01*
X122813224Y-96485093D01*
X122762881Y-96491721D01*
X122746668Y-96492782D01*
X118524144Y-96491859D01*
X118454907Y-96499292D01*
X118441672Y-96500000D01*
X111500000Y-96500000D01*
X109785714Y-97785713D01*
X107500000Y-99499999D01*
X107500000Y-108190750D01*
X107480315Y-108257789D01*
X107427511Y-108303544D01*
X107358353Y-108313488D01*
X107294797Y-108284463D01*
X107259818Y-108234083D01*
X107218354Y-108122913D01*
X107218350Y-108122906D01*
X107132190Y-108007812D01*
X107132187Y-108007809D01*
X107017093Y-107921649D01*
X107017086Y-107921645D01*
X106882379Y-107871403D01*
X106882372Y-107871401D01*
X106822844Y-107865000D01*
X105975000Y-107865000D01*
X105975000Y-108760879D01*
X105929182Y-108741901D01*
X105793944Y-108715000D01*
X105656056Y-108715000D01*
X105520818Y-108741901D01*
X105475000Y-108760879D01*
X105475000Y-107865000D01*
X104627155Y-107865000D01*
X104567627Y-107871401D01*
X104567620Y-107871403D01*
X104432913Y-107921645D01*
X104432906Y-107921649D01*
X104317812Y-108007809D01*
X104317809Y-108007812D01*
X104231649Y-108122906D01*
X104231645Y-108122913D01*
X104181403Y-108257620D01*
X104181401Y-108257627D01*
X104175000Y-108317155D01*
X104175000Y-109165000D01*
X105070879Y-109165000D01*
X105051901Y-109210818D01*
X105025000Y-109346056D01*
X105025000Y-109483944D01*
X105051901Y-109619182D01*
X105070879Y-109665000D01*
X104175000Y-109665000D01*
X104175000Y-110512844D01*
X104181401Y-110572372D01*
X104181403Y-110572379D01*
X104231645Y-110707086D01*
X104231649Y-110707093D01*
X104317809Y-110822187D01*
X104317812Y-110822190D01*
X104432906Y-110908350D01*
X104432913Y-110908354D01*
X104567620Y-110958596D01*
X104567627Y-110958598D01*
X104627155Y-110964999D01*
X104627172Y-110965000D01*
X105475000Y-110965000D01*
X105475000Y-110069120D01*
X105520818Y-110088099D01*
X105656056Y-110115000D01*
X105793944Y-110115000D01*
X105929182Y-110088099D01*
X105975000Y-110069120D01*
X105975000Y-110965000D01*
X106822828Y-110965000D01*
X106822844Y-110964999D01*
X106882372Y-110958598D01*
X106882379Y-110958596D01*
X107017086Y-110908354D01*
X107017093Y-110908350D01*
X107132187Y-110822190D01*
X107132190Y-110822187D01*
X107218350Y-110707093D01*
X107218354Y-110707086D01*
X107259818Y-110595916D01*
X107301689Y-110539982D01*
X107367153Y-110515565D01*
X107435426Y-110530416D01*
X107484832Y-110579821D01*
X107500000Y-110639249D01*
X107500000Y-110991874D01*
X107498939Y-111008059D01*
X107498939Y-111008060D01*
X107485093Y-111113224D01*
X107476715Y-111144491D01*
X107439259Y-111234918D01*
X107423074Y-111262951D01*
X107363491Y-111340601D01*
X107340601Y-111363491D01*
X107262951Y-111423074D01*
X107234918Y-111439259D01*
X107144491Y-111476715D01*
X107113224Y-111485093D01*
X107019398Y-111497446D01*
X107008058Y-111498939D01*
X106991874Y-111500000D01*
X98508126Y-111500000D01*
X98491941Y-111498939D01*
X98478917Y-111497224D01*
X98386775Y-111485093D01*
X98355508Y-111476715D01*
X98265081Y-111439259D01*
X98237048Y-111423074D01*
X98159398Y-111363491D01*
X98136508Y-111340601D01*
X98076925Y-111262951D01*
X98060740Y-111234918D01*
X98023284Y-111144491D01*
X98014906Y-111113223D01*
X98001061Y-111008059D01*
X98000000Y-110991874D01*
X98000000Y-94433936D01*
X119919616Y-94433936D01*
X119919616Y-94433937D01*
X120384772Y-94899093D01*
X120431407Y-94936673D01*
X120562188Y-94996399D01*
X120704505Y-95016860D01*
X120846821Y-94996399D01*
X120977602Y-94936673D01*
X121024237Y-94899093D01*
X121252512Y-94670818D01*
X121252512Y-94670817D01*
X120467623Y-93885929D01*
X120467622Y-93885929D01*
X119919616Y-94433936D01*
X98000000Y-94433936D01*
X98000000Y-93295494D01*
X118983140Y-93295494D01*
X118983140Y-93295495D01*
X119003600Y-93437811D01*
X119063326Y-93568592D01*
X119100906Y-93615227D01*
X119100910Y-93615231D01*
X119566061Y-94080383D01*
X119566062Y-94080383D01*
X120114070Y-93532376D01*
X120114068Y-93532374D01*
X120821177Y-93532374D01*
X120821177Y-93532375D01*
X121606065Y-94317264D01*
X121606066Y-94317264D01*
X121834341Y-94088989D01*
X121871921Y-94042354D01*
X121931647Y-93911573D01*
X121952108Y-93769257D01*
X121952108Y-93769256D01*
X121931647Y-93626940D01*
X121871921Y-93496159D01*
X121834341Y-93449524D01*
X121834337Y-93449520D01*
X121369186Y-92984368D01*
X121369185Y-92984368D01*
X120821177Y-93532374D01*
X120114068Y-93532374D01*
X119329181Y-92747487D01*
X119329180Y-92747487D01*
X119100910Y-92975757D01*
X119063326Y-93022397D01*
X119003600Y-93153178D01*
X118983140Y-93295494D01*
X98000000Y-93295494D01*
X98000000Y-92393932D01*
X119682735Y-92393932D01*
X119682735Y-92393933D01*
X120467624Y-93178822D01*
X120467625Y-93178822D01*
X121015631Y-92630814D01*
X120550475Y-92165658D01*
X120503840Y-92128078D01*
X120373059Y-92068352D01*
X120230743Y-92047892D01*
X120088426Y-92068352D01*
X119957645Y-92128078D01*
X119911005Y-92165662D01*
X119682735Y-92393932D01*
X98000000Y-92393932D01*
X98000000Y-91008125D01*
X98001061Y-90991940D01*
X98008697Y-90933936D01*
X116419616Y-90933936D01*
X116419616Y-90933937D01*
X116884772Y-91399093D01*
X116931407Y-91436673D01*
X117062188Y-91496399D01*
X117204505Y-91516860D01*
X117346821Y-91496399D01*
X117477602Y-91436673D01*
X117524237Y-91399093D01*
X117752512Y-91170818D01*
X117752512Y-91170817D01*
X116967623Y-90385929D01*
X116967622Y-90385929D01*
X116419616Y-90933936D01*
X98008697Y-90933936D01*
X98014906Y-90886776D01*
X98023284Y-90855509D01*
X98031728Y-90835123D01*
X98031728Y-90835122D01*
X98060740Y-90765081D01*
X98076923Y-90737050D01*
X98136513Y-90659392D01*
X98159392Y-90636513D01*
X98237050Y-90576923D01*
X98265079Y-90560740D01*
X98355509Y-90523283D01*
X98386775Y-90514906D01*
X98491941Y-90501061D01*
X98508126Y-90500000D01*
X109000000Y-90500000D01*
X108939267Y-89795494D01*
X115483140Y-89795494D01*
X115483140Y-89795495D01*
X115503600Y-89937811D01*
X115563326Y-90068592D01*
X115600906Y-90115227D01*
X115600910Y-90115231D01*
X116066061Y-90580383D01*
X116066062Y-90580383D01*
X116614070Y-90032376D01*
X116614068Y-90032374D01*
X117321177Y-90032374D01*
X117321177Y-90032375D01*
X118106065Y-90817264D01*
X118106066Y-90817264D01*
X118334341Y-90588989D01*
X118371921Y-90542354D01*
X118431647Y-90411573D01*
X118452108Y-90269257D01*
X118452108Y-90269256D01*
X118431647Y-90126940D01*
X118371921Y-89996159D01*
X118334341Y-89949524D01*
X118334337Y-89949520D01*
X117869186Y-89484368D01*
X117869185Y-89484368D01*
X117321177Y-90032374D01*
X116614068Y-90032374D01*
X115829181Y-89247487D01*
X115829180Y-89247487D01*
X115600910Y-89475757D01*
X115563326Y-89522397D01*
X115503600Y-89653178D01*
X115483140Y-89795494D01*
X108939267Y-89795494D01*
X108861546Y-88893932D01*
X116182735Y-88893932D01*
X116182735Y-88893933D01*
X116967624Y-89678822D01*
X116967625Y-89678822D01*
X117515631Y-89130814D01*
X117050475Y-88665658D01*
X117003840Y-88628078D01*
X116873059Y-88568352D01*
X116730743Y-88547892D01*
X116588426Y-88568352D01*
X116457645Y-88628078D01*
X116411005Y-88665662D01*
X116182735Y-88893932D01*
X108861546Y-88893932D01*
X108796933Y-88144428D01*
X108796637Y-88127475D01*
X108802293Y-88016644D01*
X108808623Y-87983378D01*
X108841311Y-87886360D01*
X108856403Y-87856046D01*
X108914124Y-87771486D01*
X108936854Y-87746389D01*
X109015301Y-87680601D01*
X109043970Y-87662592D01*
X109137303Y-87620478D01*
X109169764Y-87610901D01*
X109279504Y-87594327D01*
X109296397Y-87592949D01*
X116280872Y-87502827D01*
X116297319Y-87503710D01*
G37*
%TD.AperFunction*%
%TD*%
%TA.AperFunction,Conductor*%
%TO.N,/+VOUT*%
G36*
X143539695Y-103678741D02*
G01*
X143563395Y-103681305D01*
X143728285Y-103715432D01*
X143751061Y-103722489D01*
X143906361Y-103787549D01*
X143927368Y-103798835D01*
X144055901Y-103884774D01*
X144067336Y-103892419D01*
X144085796Y-103907521D01*
X144205257Y-104026169D01*
X144220484Y-104044524D01*
X144315025Y-104183852D01*
X144326456Y-104204783D01*
X144394933Y-104365154D01*
X144399087Y-104376347D01*
X145739354Y-108600475D01*
X148749998Y-118089149D01*
X148750000Y-118089150D01*
X153243907Y-118089150D01*
X153256061Y-118089747D01*
X153432941Y-118107168D01*
X153456769Y-118111907D01*
X153621001Y-118161726D01*
X153643453Y-118171027D01*
X153794798Y-118251922D01*
X153815010Y-118265427D01*
X153947666Y-118374295D01*
X153964854Y-118391483D01*
X154073722Y-118524139D01*
X154087227Y-118544351D01*
X154168121Y-118695693D01*
X154177424Y-118718151D01*
X154227240Y-118882374D01*
X154231982Y-118906215D01*
X154249403Y-119083088D01*
X154250000Y-119095242D01*
X154250000Y-126793901D01*
X154249403Y-126806055D01*
X154231982Y-126982929D01*
X154227240Y-127006770D01*
X154177424Y-127170991D01*
X154168121Y-127193450D01*
X154087224Y-127344796D01*
X154073719Y-127365007D01*
X153964853Y-127497661D01*
X153947664Y-127514850D01*
X153815007Y-127623718D01*
X153794795Y-127637223D01*
X153643450Y-127718117D01*
X153620993Y-127727419D01*
X153456771Y-127777235D01*
X153432928Y-127781977D01*
X153256055Y-127799395D01*
X153243902Y-127799992D01*
X148040937Y-127799962D01*
X143010143Y-127799932D01*
X142997991Y-127799335D01*
X142821144Y-127781918D01*
X142797306Y-127777177D01*
X142656827Y-127734569D01*
X142633105Y-127727374D01*
X142610654Y-127718076D01*
X142459365Y-127637223D01*
X142459326Y-127637202D01*
X142439116Y-127623701D01*
X142306467Y-127514860D01*
X142289279Y-127497675D01*
X142289268Y-127497661D01*
X142180409Y-127365048D01*
X142166910Y-127344852D01*
X142085997Y-127193530D01*
X142076698Y-127171090D01*
X142026857Y-127006893D01*
X142022112Y-126983060D01*
X142004656Y-126806207D01*
X142004057Y-126794081D01*
X142002827Y-121278599D01*
X142022496Y-121211561D01*
X142075289Y-121165794D01*
X142144446Y-121155835D01*
X142199713Y-121178260D01*
X142224908Y-121196566D01*
X142224910Y-121196567D01*
X142386826Y-121279067D01*
X142386828Y-121279068D01*
X142548029Y-121331444D01*
X142559654Y-121335222D01*
X142739139Y-121363650D01*
X142739140Y-121363650D01*
X142920860Y-121363650D01*
X142920861Y-121363650D01*
X143100346Y-121335222D01*
X143100349Y-121335221D01*
X143100350Y-121335221D01*
X143273171Y-121279068D01*
X143273171Y-121279067D01*
X143273174Y-121279067D01*
X143435090Y-121196567D01*
X143582106Y-121089753D01*
X143710603Y-120961256D01*
X143817417Y-120814240D01*
X143899917Y-120652324D01*
X143956072Y-120479496D01*
X143984500Y-120300011D01*
X143984500Y-120118289D01*
X143956072Y-119938804D01*
X143956071Y-119938802D01*
X143956072Y-119938802D01*
X143951026Y-119923272D01*
X143951025Y-119923270D01*
X143940159Y-119889828D01*
X149948000Y-119889828D01*
X149948000Y-120088471D01*
X149979075Y-120284670D01*
X149979075Y-120284673D01*
X150040457Y-120473587D01*
X150130641Y-120650582D01*
X150157730Y-120687865D01*
X150157731Y-120687866D01*
X150720504Y-120125092D01*
X150736619Y-120185231D01*
X150803498Y-120301070D01*
X150898080Y-120395652D01*
X151013919Y-120462531D01*
X151074057Y-120478644D01*
X150511283Y-121041418D01*
X150511283Y-121041419D01*
X150548567Y-121068508D01*
X150725562Y-121158692D01*
X150914477Y-121220074D01*
X151110679Y-121251150D01*
X151309321Y-121251150D01*
X151505520Y-121220074D01*
X151505523Y-121220074D01*
X151694437Y-121158692D01*
X151871425Y-121068512D01*
X151908716Y-121041418D01*
X151345942Y-120478644D01*
X151406081Y-120462531D01*
X151521920Y-120395652D01*
X151616502Y-120301070D01*
X151683381Y-120185231D01*
X151699495Y-120125092D01*
X152262268Y-120687865D01*
X152289362Y-120650575D01*
X152379542Y-120473587D01*
X152440924Y-120284673D01*
X152440924Y-120284670D01*
X152472000Y-120088471D01*
X152472000Y-119889828D01*
X152440924Y-119693629D01*
X152440924Y-119693626D01*
X152379542Y-119504712D01*
X152289358Y-119327717D01*
X152262268Y-119290433D01*
X151699494Y-119853207D01*
X151683381Y-119793069D01*
X151616502Y-119677230D01*
X151521920Y-119582648D01*
X151406081Y-119515769D01*
X151345942Y-119499654D01*
X151908716Y-118936881D01*
X151908715Y-118936880D01*
X151871432Y-118909791D01*
X151694437Y-118819607D01*
X151505522Y-118758225D01*
X151309321Y-118727150D01*
X151110679Y-118727150D01*
X150914479Y-118758225D01*
X150914476Y-118758225D01*
X150725562Y-118819607D01*
X150548564Y-118909793D01*
X150511283Y-118936879D01*
X150511282Y-118936880D01*
X151074058Y-119499654D01*
X151013919Y-119515769D01*
X150898080Y-119582648D01*
X150803498Y-119677230D01*
X150736619Y-119793069D01*
X150720504Y-119853207D01*
X150157730Y-119290432D01*
X150157729Y-119290433D01*
X150130643Y-119327714D01*
X150040457Y-119504712D01*
X149979075Y-119693626D01*
X149979075Y-119693629D01*
X149948000Y-119889828D01*
X143940159Y-119889828D01*
X143899918Y-119765978D01*
X143899916Y-119765975D01*
X143863055Y-119693629D01*
X143817417Y-119604060D01*
X143710603Y-119457044D01*
X143582106Y-119328547D01*
X143435090Y-119221733D01*
X143273174Y-119139233D01*
X143273171Y-119139231D01*
X143158802Y-119102071D01*
X143100348Y-119083078D01*
X142980689Y-119064126D01*
X142920861Y-119054650D01*
X142739139Y-119054650D01*
X142679310Y-119064126D01*
X142559652Y-119083078D01*
X142559649Y-119083078D01*
X142386828Y-119139231D01*
X142386825Y-119139233D01*
X142224910Y-119221732D01*
X142199235Y-119240387D01*
X142133428Y-119263866D01*
X142065374Y-119248040D01*
X142016680Y-119197934D01*
X142002350Y-119140098D01*
X142000022Y-108698465D01*
X142000021Y-108698464D01*
X142000000Y-108600000D01*
X141351051Y-105340428D01*
X141348945Y-105324535D01*
X141343029Y-105236287D01*
X141345033Y-105204321D01*
X141360172Y-105126522D01*
X141371239Y-105094241D01*
X141405672Y-105026173D01*
X141426565Y-104996589D01*
X141462247Y-104959157D01*
X141522752Y-104924216D01*
X141592543Y-104927532D01*
X141649461Y-104968054D01*
X141675437Y-105032915D01*
X141676000Y-105044717D01*
X141676000Y-105059971D01*
X141704415Y-105239375D01*
X141760548Y-105412134D01*
X141843012Y-105573980D01*
X141843014Y-105573984D01*
X141855048Y-105590545D01*
X141855049Y-105590546D01*
X142430000Y-105015595D01*
X142430000Y-105021811D01*
X142457259Y-105123544D01*
X142509920Y-105214756D01*
X142584394Y-105289230D01*
X142675606Y-105341891D01*
X142777339Y-105369150D01*
X142783554Y-105369150D01*
X142208602Y-105944099D01*
X142208603Y-105944100D01*
X142225165Y-105956135D01*
X142225179Y-105956143D01*
X142387012Y-106038600D01*
X142559774Y-106094734D01*
X142739179Y-106123150D01*
X142920821Y-106123150D01*
X143100225Y-106094734D01*
X143272984Y-106038601D01*
X143434831Y-105956136D01*
X143451396Y-105944099D01*
X142876447Y-105369150D01*
X142882661Y-105369150D01*
X142984394Y-105341891D01*
X143075606Y-105289230D01*
X143150080Y-105214756D01*
X143202741Y-105123544D01*
X143230000Y-105021811D01*
X143230000Y-105015596D01*
X143804949Y-105590545D01*
X143816986Y-105573981D01*
X143899451Y-105412134D01*
X143955584Y-105239375D01*
X143984000Y-105059971D01*
X143984000Y-104878328D01*
X143955584Y-104698924D01*
X143899450Y-104526162D01*
X143816993Y-104364329D01*
X143816985Y-104364315D01*
X143804950Y-104347753D01*
X143804949Y-104347752D01*
X143230000Y-104922702D01*
X143230000Y-104916489D01*
X143202741Y-104814756D01*
X143150080Y-104723544D01*
X143075606Y-104649070D01*
X142984394Y-104596409D01*
X142882661Y-104569150D01*
X142876446Y-104569150D01*
X143451396Y-103994199D01*
X143451395Y-103994198D01*
X143434834Y-103982164D01*
X143434829Y-103982162D01*
X143300464Y-103913699D01*
X143249668Y-103865724D01*
X143232873Y-103797903D01*
X143255410Y-103731768D01*
X143310126Y-103688317D01*
X143334415Y-103681243D01*
X143347570Y-103678833D01*
X143371328Y-103676813D01*
X143539695Y-103678741D01*
G37*
%TD.AperFunction*%
%TD*%
%TA.AperFunction,Conductor*%
%TO.N,/+24V-Sim*%
G36*
X109999939Y-106519685D02*
G01*
X110045694Y-106572489D01*
X110056900Y-106624000D01*
X110056900Y-107244600D01*
X110271100Y-107244600D01*
X110338139Y-107264285D01*
X110383894Y-107317089D01*
X110395100Y-107368600D01*
X110395100Y-107870900D01*
X113604900Y-107870900D01*
X113604900Y-107368600D01*
X113624585Y-107301561D01*
X113677389Y-107255806D01*
X113728900Y-107244600D01*
X113943100Y-107244600D01*
X113943100Y-106624000D01*
X113962785Y-106556961D01*
X114015589Y-106511206D01*
X114067100Y-106500000D01*
X114676000Y-106500000D01*
X114743039Y-106519685D01*
X114788794Y-106572489D01*
X114800000Y-106624000D01*
X114800000Y-110876000D01*
X114780315Y-110943039D01*
X114727511Y-110988794D01*
X114676000Y-111000000D01*
X110000000Y-111000000D01*
X110000000Y-117002649D01*
X109980315Y-117069688D01*
X109927511Y-117115443D01*
X109858353Y-117125387D01*
X109841065Y-117121626D01*
X109818420Y-117114977D01*
X109818422Y-117114977D01*
X109818417Y-117114976D01*
X109740600Y-117103788D01*
X109676000Y-117094500D01*
X102924000Y-117094500D01*
X102923991Y-117094500D01*
X102923990Y-117094501D01*
X102816549Y-117106052D01*
X102816537Y-117106054D01*
X102765027Y-117117260D01*
X102662502Y-117151383D01*
X102662496Y-117151386D01*
X102541462Y-117229171D01*
X102541451Y-117229179D01*
X102488659Y-117274923D01*
X102394433Y-117383664D01*
X102394430Y-117383668D01*
X102334664Y-117514534D01*
X102314976Y-117581582D01*
X102294500Y-117724001D01*
X102294500Y-127676000D01*
X102274815Y-127743039D01*
X102222011Y-127788794D01*
X102170500Y-127800000D01*
X98324000Y-127800000D01*
X98256961Y-127780315D01*
X98211206Y-127727511D01*
X98200000Y-127676000D01*
X98200000Y-114373006D01*
X104175000Y-114373006D01*
X104175000Y-114616993D01*
X104213165Y-114857959D01*
X104288560Y-115089998D01*
X104399323Y-115307380D01*
X104466543Y-115399901D01*
X104466544Y-115399902D01*
X105085690Y-114780756D01*
X105104668Y-114826574D01*
X105181274Y-114941224D01*
X105278776Y-115038726D01*
X105393426Y-115115332D01*
X105439242Y-115134309D01*
X104820096Y-115753454D01*
X104820097Y-115753456D01*
X104912619Y-115820676D01*
X105130001Y-115931439D01*
X105362040Y-116006834D01*
X105603007Y-116045000D01*
X105846993Y-116045000D01*
X106087959Y-116006834D01*
X106319998Y-115931439D01*
X106537377Y-115820678D01*
X106629901Y-115753454D01*
X106629902Y-115753454D01*
X106010757Y-115134309D01*
X106056574Y-115115332D01*
X106171224Y-115038726D01*
X106268726Y-114941224D01*
X106345332Y-114826574D01*
X106364309Y-114780757D01*
X106983454Y-115399902D01*
X106983454Y-115399901D01*
X107050678Y-115307377D01*
X107161439Y-115089998D01*
X107236834Y-114857959D01*
X107275000Y-114616993D01*
X107275000Y-114373006D01*
X107236834Y-114132040D01*
X107161439Y-113900001D01*
X107050676Y-113682619D01*
X106983456Y-113590097D01*
X106983454Y-113590096D01*
X106364309Y-114209241D01*
X106345332Y-114163426D01*
X106268726Y-114048776D01*
X106171224Y-113951274D01*
X106056574Y-113874668D01*
X106010756Y-113855689D01*
X106629902Y-113236544D01*
X106629901Y-113236543D01*
X106537380Y-113169323D01*
X106319998Y-113058560D01*
X106087959Y-112983165D01*
X105846993Y-112945000D01*
X105603007Y-112945000D01*
X105362040Y-112983165D01*
X105130001Y-113058560D01*
X104912626Y-113169319D01*
X104820097Y-113236544D01*
X105439243Y-113855689D01*
X105393426Y-113874668D01*
X105278776Y-113951274D01*
X105181274Y-114048776D01*
X105104668Y-114163426D01*
X105085690Y-114209243D01*
X104466544Y-113590097D01*
X104399319Y-113682626D01*
X104288560Y-113900001D01*
X104213165Y-114132040D01*
X104175000Y-114373006D01*
X98200000Y-114373006D01*
X98200000Y-112111760D01*
X98219685Y-112044721D01*
X98272489Y-111998966D01*
X98340184Y-111988821D01*
X98425957Y-112000114D01*
X98458874Y-112003356D01*
X98475059Y-112004417D01*
X98508126Y-112005500D01*
X98508140Y-112005500D01*
X106991860Y-112005500D01*
X106991874Y-112005500D01*
X107024943Y-112004417D01*
X107041127Y-112003356D01*
X107074042Y-112000114D01*
X107179208Y-111986268D01*
X107244058Y-111973368D01*
X107275325Y-111964990D01*
X107337937Y-111943736D01*
X107428364Y-111906280D01*
X107487670Y-111877034D01*
X107515703Y-111860849D01*
X107570680Y-111824114D01*
X107648330Y-111764531D01*
X107698043Y-111720933D01*
X107720933Y-111698043D01*
X107764531Y-111648330D01*
X107824114Y-111570680D01*
X107860849Y-111515703D01*
X107877034Y-111487670D01*
X107906280Y-111428364D01*
X107943736Y-111337937D01*
X107964990Y-111275325D01*
X107973368Y-111244058D01*
X107986268Y-111179209D01*
X107987718Y-111168188D01*
X108000000Y-111167647D01*
X108000000Y-111074910D01*
X108000114Y-111074045D01*
X108003356Y-111041125D01*
X108004417Y-111024939D01*
X108005500Y-110991874D01*
X108005500Y-110639249D01*
X108000967Y-110603158D01*
X108000000Y-110587705D01*
X108000000Y-108994244D01*
X110395100Y-108994244D01*
X110401501Y-109053772D01*
X110401503Y-109053779D01*
X110451745Y-109188486D01*
X110451749Y-109188493D01*
X110537909Y-109303587D01*
X110537912Y-109303590D01*
X110653006Y-109389750D01*
X110653013Y-109389754D01*
X110787720Y-109439996D01*
X110787727Y-109439998D01*
X110847255Y-109446399D01*
X110847272Y-109446400D01*
X111750000Y-109446400D01*
X112250000Y-109446400D01*
X113152728Y-109446400D01*
X113152744Y-109446399D01*
X113212272Y-109439998D01*
X113212279Y-109439996D01*
X113346986Y-109389754D01*
X113346993Y-109389750D01*
X113462087Y-109303590D01*
X113462090Y-109303587D01*
X113548250Y-109188493D01*
X113548254Y-109188486D01*
X113598496Y-109053779D01*
X113598498Y-109053772D01*
X113604899Y-108994244D01*
X113604900Y-108994227D01*
X113604900Y-108370900D01*
X112250000Y-108370900D01*
X112250000Y-109446400D01*
X111750000Y-109446400D01*
X111750000Y-108370900D01*
X110395100Y-108370900D01*
X110395100Y-108994244D01*
X108000000Y-108994244D01*
X108000000Y-108237872D01*
X108001262Y-108220225D01*
X108005500Y-108190750D01*
X108005500Y-106624000D01*
X108025185Y-106556961D01*
X108077989Y-106511206D01*
X108129500Y-106500000D01*
X109932900Y-106500000D01*
X109999939Y-106519685D01*
G37*
%TD.AperFunction*%
%TD*%
%TA.AperFunction,Conductor*%
%TO.N,+24V*%
G36*
X114043039Y-97025185D02*
G01*
X114088794Y-97077989D01*
X114100000Y-97129500D01*
X114100000Y-97375097D01*
X114080315Y-97442136D01*
X114027511Y-97487891D01*
X113995398Y-97497570D01*
X113812353Y-97526561D01*
X113625337Y-97587326D01*
X113625334Y-97587327D01*
X113450120Y-97676605D01*
X113415275Y-97701921D01*
X113415275Y-97701923D01*
X113979327Y-98265974D01*
X113913721Y-98283554D01*
X113800779Y-98348761D01*
X113708561Y-98440979D01*
X113643354Y-98553921D01*
X113625774Y-98619527D01*
X113061723Y-98055475D01*
X113061721Y-98055475D01*
X113036405Y-98090320D01*
X112947127Y-98265534D01*
X112947126Y-98265537D01*
X112886362Y-98452553D01*
X112855600Y-98646778D01*
X112855600Y-98843421D01*
X112886362Y-99037646D01*
X112947126Y-99224662D01*
X112947127Y-99224665D01*
X113036402Y-99399875D01*
X113061722Y-99434723D01*
X113061722Y-99434724D01*
X113625774Y-98870672D01*
X113643354Y-98936279D01*
X113708561Y-99049221D01*
X113800779Y-99141439D01*
X113913721Y-99206646D01*
X113979326Y-99224224D01*
X113415275Y-99788276D01*
X113415275Y-99788277D01*
X113450123Y-99813596D01*
X113625334Y-99902872D01*
X113625337Y-99902873D01*
X113812353Y-99963637D01*
X113995398Y-99992629D01*
X114058532Y-100022558D01*
X114095464Y-100081869D01*
X114100000Y-100115102D01*
X114100000Y-104631400D01*
X114097449Y-104640085D01*
X114098738Y-104649047D01*
X114087759Y-104673087D01*
X114080315Y-104698439D01*
X114073474Y-104704366D01*
X114069713Y-104712603D01*
X114047478Y-104726892D01*
X114027511Y-104744194D01*
X114016996Y-104746481D01*
X114010935Y-104750377D01*
X113976000Y-104755400D01*
X113728900Y-104755400D01*
X113661861Y-104735715D01*
X113616106Y-104682911D01*
X113604900Y-104631400D01*
X113604900Y-104129100D01*
X110395100Y-104129100D01*
X110395100Y-104631400D01*
X110375415Y-104698439D01*
X110322611Y-104744194D01*
X110271100Y-104755400D01*
X110056900Y-104755400D01*
X110056900Y-104876000D01*
X110037215Y-104943039D01*
X109984411Y-104988794D01*
X109932900Y-105000000D01*
X108129500Y-105000000D01*
X108062461Y-104980315D01*
X108016706Y-104927511D01*
X108005500Y-104876000D01*
X108005500Y-103005755D01*
X110395100Y-103005755D01*
X110395100Y-103629100D01*
X111750000Y-103629100D01*
X112250000Y-103629100D01*
X113604900Y-103629100D01*
X113604900Y-103005772D01*
X113604899Y-103005755D01*
X113598498Y-102946227D01*
X113598496Y-102946220D01*
X113548254Y-102811513D01*
X113548250Y-102811506D01*
X113462090Y-102696412D01*
X113462087Y-102696409D01*
X113346993Y-102610249D01*
X113346986Y-102610245D01*
X113212279Y-102560003D01*
X113212272Y-102560001D01*
X113152744Y-102553600D01*
X112250000Y-102553600D01*
X112250000Y-103629100D01*
X111750000Y-103629100D01*
X111750000Y-102553600D01*
X110847255Y-102553600D01*
X110787727Y-102560001D01*
X110787720Y-102560003D01*
X110653013Y-102610245D01*
X110653006Y-102610249D01*
X110537912Y-102696409D01*
X110537909Y-102696412D01*
X110451749Y-102811506D01*
X110451745Y-102811513D01*
X110401503Y-102946220D01*
X110401501Y-102946227D01*
X110395100Y-103005755D01*
X108005500Y-103005755D01*
X108005500Y-101549853D01*
X108025185Y-101482814D01*
X108046085Y-101458103D01*
X112908478Y-97037746D01*
X112971324Y-97007217D01*
X112991889Y-97005500D01*
X113976000Y-97005500D01*
X114043039Y-97025185D01*
G37*
%TD.AperFunction*%
%TD*%
%TA.AperFunction,Conductor*%
%TO.N,ramp_up*%
G36*
X115453258Y-61982603D02*
G01*
X115490044Y-62042004D01*
X115494500Y-62074946D01*
X115494500Y-64476000D01*
X115494501Y-64476009D01*
X115506052Y-64583450D01*
X115506054Y-64583462D01*
X115517260Y-64634972D01*
X115551383Y-64737497D01*
X115551386Y-64737503D01*
X115629171Y-64858537D01*
X115629179Y-64858548D01*
X115674923Y-64911340D01*
X115674926Y-64911343D01*
X115674930Y-64911347D01*
X115783664Y-65005567D01*
X115914541Y-65065338D01*
X115981580Y-65085023D01*
X115981584Y-65085024D01*
X116124000Y-65105500D01*
X121876000Y-65105500D01*
X121943039Y-65125185D01*
X121988794Y-65177989D01*
X122000000Y-65229500D01*
X122000000Y-66093337D01*
X121980315Y-66160376D01*
X121927511Y-66206131D01*
X121858353Y-66216075D01*
X121816130Y-66198591D01*
X121814872Y-66200897D01*
X121807086Y-66196645D01*
X121672379Y-66146403D01*
X121672372Y-66146401D01*
X121612844Y-66140000D01*
X121290000Y-66140000D01*
X121290000Y-68860000D01*
X121612828Y-68860000D01*
X121612844Y-68859999D01*
X121672372Y-68853598D01*
X121672379Y-68853596D01*
X121807086Y-68803354D01*
X121814872Y-68799103D01*
X121816404Y-68801909D01*
X121867135Y-68782979D01*
X121935411Y-68797821D01*
X121984823Y-68847219D01*
X122000000Y-68906662D01*
X122000000Y-70669483D01*
X121980315Y-70736522D01*
X121927511Y-70782277D01*
X121858353Y-70792221D01*
X121801689Y-70768749D01*
X121732093Y-70716649D01*
X121732086Y-70716645D01*
X121597379Y-70666403D01*
X121597372Y-70666401D01*
X121537844Y-70660000D01*
X121295000Y-70660000D01*
X121295000Y-71876000D01*
X121275315Y-71943039D01*
X121222511Y-71988794D01*
X121171000Y-72000000D01*
X121045000Y-72000000D01*
X121045000Y-72126000D01*
X121025315Y-72193039D01*
X120972511Y-72238794D01*
X120921000Y-72250000D01*
X120100000Y-72250000D01*
X120100000Y-72887844D01*
X120106401Y-72947372D01*
X120106403Y-72947379D01*
X120156645Y-73082086D01*
X120156649Y-73082093D01*
X120242809Y-73197187D01*
X120242812Y-73197190D01*
X120341721Y-73271234D01*
X120383592Y-73327168D01*
X120388576Y-73396859D01*
X120355090Y-73458182D01*
X120293767Y-73491666D01*
X120267410Y-73494500D01*
X111138696Y-73494500D01*
X111101356Y-73488744D01*
X107655162Y-72400472D01*
X107593389Y-72388680D01*
X107538988Y-72378295D01*
X107538985Y-72378294D01*
X107538981Y-72378294D01*
X107538977Y-72378293D01*
X107500822Y-72375566D01*
X107500961Y-72373612D01*
X107441651Y-72356197D01*
X107421009Y-72339563D01*
X106819821Y-71738375D01*
X106872642Y-71724222D01*
X106992357Y-71655104D01*
X107090104Y-71557357D01*
X107159222Y-71437642D01*
X107173375Y-71384821D01*
X107740525Y-71951971D01*
X107740526Y-71951971D01*
X107771168Y-71909797D01*
X107863172Y-71729228D01*
X107863174Y-71729225D01*
X107925796Y-71536491D01*
X107957500Y-71336327D01*
X107957500Y-71133671D01*
X107956641Y-71128248D01*
X107954092Y-71112155D01*
X120100000Y-71112155D01*
X120100000Y-71750000D01*
X120795000Y-71750000D01*
X120795000Y-70660000D01*
X120552155Y-70660000D01*
X120492627Y-70666401D01*
X120492620Y-70666403D01*
X120357913Y-70716645D01*
X120357906Y-70716649D01*
X120242812Y-70802809D01*
X120242809Y-70802812D01*
X120156649Y-70917906D01*
X120156645Y-70917913D01*
X120106403Y-71052620D01*
X120106401Y-71052627D01*
X120100000Y-71112155D01*
X107954092Y-71112155D01*
X107925796Y-70933508D01*
X107863174Y-70740774D01*
X107863172Y-70740771D01*
X107771168Y-70560202D01*
X107740525Y-70518027D01*
X107740525Y-70518026D01*
X107173375Y-71085177D01*
X107159222Y-71032358D01*
X107090104Y-70912643D01*
X106992357Y-70814896D01*
X106872642Y-70745778D01*
X106819821Y-70731624D01*
X107386972Y-70164473D01*
X107344797Y-70133831D01*
X107159887Y-70039615D01*
X107160493Y-70038425D01*
X107110824Y-69998404D01*
X107088755Y-69932111D01*
X107106031Y-69864411D01*
X107157165Y-69816797D01*
X107169127Y-69811577D01*
X108450251Y-69331156D01*
X109250588Y-68467372D01*
X109305744Y-68407844D01*
X120015000Y-68407844D01*
X120021401Y-68467372D01*
X120021403Y-68467379D01*
X120071645Y-68602086D01*
X120071649Y-68602093D01*
X120157809Y-68717187D01*
X120157812Y-68717190D01*
X120272906Y-68803350D01*
X120272913Y-68803354D01*
X120407620Y-68853596D01*
X120407627Y-68853598D01*
X120467155Y-68859999D01*
X120467172Y-68860000D01*
X120790000Y-68860000D01*
X120790000Y-67750000D01*
X120015000Y-67750000D01*
X120015000Y-68407844D01*
X109305744Y-68407844D01*
X110040944Y-67614361D01*
X110988066Y-66592155D01*
X120015000Y-66592155D01*
X120015000Y-67250000D01*
X120790000Y-67250000D01*
X120790000Y-66140000D01*
X120467155Y-66140000D01*
X120407627Y-66146401D01*
X120407620Y-66146403D01*
X120272913Y-66196645D01*
X120272906Y-66196649D01*
X120157812Y-66282809D01*
X120157809Y-66282812D01*
X120071649Y-66397906D01*
X120071645Y-66397913D01*
X120021403Y-66532620D01*
X120021401Y-66532627D01*
X120015000Y-66592155D01*
X110988066Y-66592155D01*
X111069214Y-66504574D01*
X115181370Y-62066424D01*
X115193747Y-62054779D01*
X115279770Y-61984322D01*
X115308709Y-61966622D01*
X115316531Y-61963206D01*
X115320881Y-61961307D01*
X115339767Y-61958912D01*
X115344097Y-61957079D01*
X115348394Y-61957819D01*
X115390196Y-61952520D01*
X115453258Y-61982603D01*
G37*
%TD.AperFunction*%
%TD*%
%TA.AperFunction,Conductor*%
%TO.N,/sim_home_opto*%
G36*
X130128366Y-84808520D02*
G01*
X130132795Y-84808357D01*
X130137704Y-84811262D01*
X130166389Y-84819685D01*
X130187333Y-84840631D01*
X130192925Y-84843940D01*
X130198153Y-84851451D01*
X130203673Y-84856972D01*
X130206590Y-84861512D01*
X130211731Y-84870959D01*
X130213087Y-84872908D01*
X130214193Y-84875111D01*
X130215118Y-84877152D01*
X130215583Y-84877880D01*
X130215589Y-84877892D01*
X130252570Y-84935804D01*
X130252721Y-84936042D01*
X130252740Y-84936067D01*
X130253996Y-84937525D01*
X130264364Y-84951415D01*
X130265397Y-84953023D01*
X130265404Y-84953032D01*
X130265406Y-84953035D01*
X130282595Y-84972873D01*
X130310704Y-85005314D01*
X130310708Y-85005318D01*
X130311158Y-85005837D01*
X130311171Y-85005851D01*
X130312712Y-85007186D01*
X130314355Y-85008718D01*
X130314865Y-85009579D01*
X130323741Y-85018478D01*
X130346646Y-85045064D01*
X130377907Y-85065280D01*
X130391766Y-85075686D01*
X130419904Y-85100067D01*
X130419909Y-85100071D01*
X130451825Y-85114646D01*
X130463479Y-85120735D01*
X130465595Y-85121987D01*
X130467464Y-85123196D01*
X130475853Y-85127056D01*
X130477411Y-85127773D01*
X130477418Y-85127776D01*
X130526232Y-85150242D01*
X130526237Y-85150244D01*
X130530896Y-85152388D01*
X130530926Y-85152402D01*
X130536706Y-85154116D01*
X130540551Y-85155539D01*
X130541424Y-85156189D01*
X130549045Y-85159043D01*
X130550788Y-85159840D01*
X130575974Y-85167235D01*
X130575974Y-85167234D01*
X130595387Y-85172934D01*
X130595394Y-85172936D01*
X130608939Y-85176913D01*
X130608939Y-85176915D01*
X130617414Y-85179404D01*
X130617786Y-85179515D01*
X130617809Y-85179520D01*
X130617822Y-85179524D01*
X130617834Y-85179525D01*
X130622445Y-85180553D01*
X130635229Y-85183352D01*
X130668862Y-85193333D01*
X130668859Y-85193333D01*
X130670497Y-85193337D01*
X130706085Y-85193439D01*
X130723376Y-85194699D01*
X130760238Y-85200000D01*
X132326000Y-85200000D01*
X132393039Y-85219685D01*
X132438794Y-85272489D01*
X132450000Y-85324000D01*
X132450000Y-86455999D01*
X132430315Y-86523038D01*
X132377511Y-86568793D01*
X132326000Y-86579999D01*
X130752539Y-86579999D01*
X130738045Y-86581546D01*
X130645799Y-86591397D01*
X130594637Y-86602449D01*
X130594607Y-86602457D01*
X130492715Y-86636124D01*
X130492713Y-86636125D01*
X130371452Y-86713553D01*
X130371447Y-86713557D01*
X130319243Y-86758525D01*
X130318588Y-86759079D01*
X130318503Y-86759162D01*
X130223965Y-86867626D01*
X130163820Y-86998320D01*
X130163814Y-86998335D01*
X130143937Y-87065310D01*
X130143936Y-87065313D01*
X130139727Y-87094002D01*
X130110518Y-87157474D01*
X130051631Y-87195078D01*
X130017041Y-87200000D01*
X128818180Y-87200000D01*
X128370530Y-88184831D01*
X128370530Y-88184832D01*
X128039821Y-88912391D01*
X128034772Y-88922296D01*
X127998804Y-88985655D01*
X127986151Y-89003912D01*
X127939449Y-89059845D01*
X127931947Y-89068052D01*
X123859301Y-93140698D01*
X123847106Y-93151393D01*
X123762951Y-93215967D01*
X123734918Y-93232152D01*
X123644491Y-93269608D01*
X123613224Y-93277986D01*
X123516186Y-93290762D01*
X123483814Y-93290762D01*
X123386775Y-93277986D01*
X123355508Y-93269608D01*
X123265081Y-93232152D01*
X123237048Y-93215967D01*
X123152893Y-93151393D01*
X123140698Y-93140698D01*
X116901168Y-86901168D01*
X116889781Y-86888063D01*
X116821533Y-86797401D01*
X116804774Y-86767097D01*
X116767401Y-86669303D01*
X116759678Y-86635541D01*
X116756865Y-86602449D01*
X116750812Y-86531234D01*
X116752726Y-86496656D01*
X116773059Y-86393957D01*
X116784464Y-86361257D01*
X116832407Y-86268189D01*
X116852404Y-86239929D01*
X116930259Y-86157346D01*
X116943007Y-86145594D01*
X118479863Y-84916109D01*
X118497206Y-84904487D01*
X118616420Y-84838420D01*
X118655701Y-84824641D01*
X118751320Y-84808357D01*
X118790058Y-84801760D01*
X118810875Y-84800000D01*
X130099350Y-84800000D01*
X130128366Y-84808520D01*
G37*
%TD.AperFunction*%
%TD*%
%TA.AperFunction,Conductor*%
%TO.N,ramp_down*%
G36*
X107502938Y-72882508D02*
G01*
X107574870Y-72905223D01*
X107574871Y-72905224D01*
X108891848Y-73321111D01*
X111041663Y-74000000D01*
X111041664Y-74000000D01*
X121491874Y-74000000D01*
X121508059Y-74001061D01*
X121613223Y-74014906D01*
X121644491Y-74023284D01*
X121734918Y-74060740D01*
X121762952Y-74076925D01*
X121840602Y-74136509D01*
X121863491Y-74159398D01*
X121923074Y-74237048D01*
X121939259Y-74265081D01*
X121976715Y-74355508D01*
X121985093Y-74386775D01*
X121998939Y-74491939D01*
X122000000Y-74508125D01*
X122000000Y-75623281D01*
X121980315Y-75690320D01*
X121927511Y-75736075D01*
X121858353Y-75746019D01*
X121801690Y-75722548D01*
X121767093Y-75696649D01*
X121767086Y-75696645D01*
X121632379Y-75646403D01*
X121632372Y-75646401D01*
X121572844Y-75640000D01*
X121250000Y-75640000D01*
X121250000Y-78360000D01*
X121572828Y-78360000D01*
X121572844Y-78359999D01*
X121632372Y-78353598D01*
X121632379Y-78353596D01*
X121767086Y-78303354D01*
X121767089Y-78303352D01*
X121801688Y-78277452D01*
X121867152Y-78253034D01*
X121935426Y-78267885D01*
X121984831Y-78317290D01*
X122000000Y-78376718D01*
X122000000Y-80123281D01*
X121980315Y-80190320D01*
X121927511Y-80236075D01*
X121858353Y-80246019D01*
X121801690Y-80222548D01*
X121767093Y-80196649D01*
X121767086Y-80196645D01*
X121632379Y-80146403D01*
X121632372Y-80146401D01*
X121572844Y-80140000D01*
X121250000Y-80140000D01*
X121250000Y-82860000D01*
X121572828Y-82860000D01*
X121572844Y-82859999D01*
X121632372Y-82853598D01*
X121632379Y-82853596D01*
X121767086Y-82803354D01*
X121767089Y-82803352D01*
X121801688Y-82777452D01*
X121867152Y-82753034D01*
X121935426Y-82767885D01*
X121984831Y-82817290D01*
X122000000Y-82876718D01*
X122000000Y-83341874D01*
X121998939Y-83358060D01*
X121985093Y-83463224D01*
X121976715Y-83494491D01*
X121939259Y-83584918D01*
X121923074Y-83612951D01*
X121863491Y-83690601D01*
X121840601Y-83713491D01*
X121762951Y-83773074D01*
X121734918Y-83789259D01*
X121644491Y-83826715D01*
X121613224Y-83835093D01*
X121519398Y-83847446D01*
X121508058Y-83848939D01*
X121491874Y-83850000D01*
X118764286Y-83850000D01*
X116000000Y-86000000D01*
X116000000Y-86491874D01*
X115998939Y-86508059D01*
X115998939Y-86508060D01*
X115985093Y-86613224D01*
X115976715Y-86644491D01*
X115939259Y-86734918D01*
X115923074Y-86762951D01*
X115863491Y-86840601D01*
X115840601Y-86863491D01*
X115762951Y-86923074D01*
X115734918Y-86939259D01*
X115644491Y-86976715D01*
X115613224Y-86985093D01*
X115519398Y-86997446D01*
X115508058Y-86998939D01*
X115491874Y-87000000D01*
X109258126Y-87000000D01*
X109241941Y-86998939D01*
X109228917Y-86997224D01*
X109136775Y-86985093D01*
X109105508Y-86976715D01*
X109015081Y-86939259D01*
X108987048Y-86923074D01*
X108909398Y-86863491D01*
X108886508Y-86840601D01*
X108826925Y-86762951D01*
X108810740Y-86734918D01*
X108773284Y-86644491D01*
X108764906Y-86613223D01*
X108751061Y-86508059D01*
X108750000Y-86491874D01*
X108750000Y-82407844D01*
X119975000Y-82407844D01*
X119981401Y-82467372D01*
X119981403Y-82467379D01*
X120031645Y-82602086D01*
X120031649Y-82602093D01*
X120117809Y-82717187D01*
X120117812Y-82717190D01*
X120232906Y-82803350D01*
X120232913Y-82803354D01*
X120367620Y-82853596D01*
X120367627Y-82853598D01*
X120427155Y-82859999D01*
X120427172Y-82860000D01*
X120750000Y-82860000D01*
X120750000Y-81750000D01*
X119975000Y-81750000D01*
X119975000Y-82407844D01*
X108750000Y-82407844D01*
X108750000Y-80592155D01*
X119975000Y-80592155D01*
X119975000Y-81250000D01*
X120750000Y-81250000D01*
X120750000Y-80140000D01*
X120427155Y-80140000D01*
X120367627Y-80146401D01*
X120367620Y-80146403D01*
X120232913Y-80196645D01*
X120232906Y-80196649D01*
X120117812Y-80282809D01*
X120117809Y-80282812D01*
X120031649Y-80397906D01*
X120031645Y-80397913D01*
X119981403Y-80532620D01*
X119981401Y-80532627D01*
X119975000Y-80592155D01*
X108750000Y-80592155D01*
X108750000Y-77907844D01*
X119975000Y-77907844D01*
X119981401Y-77967372D01*
X119981403Y-77967379D01*
X120031645Y-78102086D01*
X120031649Y-78102093D01*
X120117809Y-78217187D01*
X120117812Y-78217190D01*
X120232906Y-78303350D01*
X120232913Y-78303354D01*
X120367620Y-78353596D01*
X120367627Y-78353598D01*
X120427155Y-78359999D01*
X120427172Y-78360000D01*
X120750000Y-78360000D01*
X120750000Y-77250000D01*
X119975000Y-77250000D01*
X119975000Y-77907844D01*
X108750000Y-77907844D01*
X108750000Y-76500000D01*
X108473609Y-76361804D01*
X108475300Y-76358420D01*
X108475298Y-76358419D01*
X108473607Y-76361803D01*
X108149522Y-76199760D01*
X107934312Y-76092155D01*
X119975000Y-76092155D01*
X119975000Y-76750000D01*
X120750000Y-76750000D01*
X120750000Y-75640000D01*
X120427155Y-75640000D01*
X120367627Y-75646401D01*
X120367620Y-75646403D01*
X120232913Y-75696645D01*
X120232906Y-75696649D01*
X120117812Y-75782809D01*
X120117809Y-75782812D01*
X120031649Y-75897906D01*
X120031645Y-75897913D01*
X119981403Y-76032620D01*
X119981401Y-76032627D01*
X119975000Y-76092155D01*
X107934312Y-76092155D01*
X107696951Y-75973474D01*
X107656303Y-75939025D01*
X107655596Y-75939629D01*
X107652429Y-75935921D01*
X107509074Y-75792566D01*
X107509069Y-75792562D01*
X107345062Y-75673405D01*
X107345061Y-75673404D01*
X107345059Y-75673403D01*
X107279502Y-75640000D01*
X107164420Y-75581362D01*
X107164417Y-75581361D01*
X106971609Y-75518715D01*
X106930596Y-75512219D01*
X106867462Y-75482289D01*
X106830532Y-75422977D01*
X106831530Y-75353114D01*
X106870141Y-75294882D01*
X106930600Y-75267272D01*
X106971495Y-75260795D01*
X107164225Y-75198174D01*
X107164228Y-75198172D01*
X107344797Y-75106168D01*
X107386971Y-75075526D01*
X107386971Y-75075525D01*
X106819821Y-74508375D01*
X106872642Y-74494222D01*
X106992357Y-74425104D01*
X107090104Y-74327357D01*
X107159222Y-74207642D01*
X107173375Y-74154821D01*
X107740525Y-74721971D01*
X107740526Y-74721971D01*
X107771168Y-74679797D01*
X107863172Y-74499228D01*
X107863174Y-74499225D01*
X107925796Y-74306491D01*
X107957500Y-74106327D01*
X107957500Y-73903672D01*
X107925796Y-73703508D01*
X107863174Y-73510774D01*
X107863172Y-73510771D01*
X107771168Y-73330202D01*
X107740525Y-73288027D01*
X107740525Y-73288026D01*
X107173375Y-73855177D01*
X107159222Y-73802358D01*
X107090104Y-73682643D01*
X106992357Y-73584896D01*
X106872642Y-73515778D01*
X106819821Y-73501624D01*
X107407866Y-72913580D01*
X107469189Y-72880095D01*
X107502938Y-72882508D01*
G37*
%TD.AperFunction*%
%TD*%
%TA.AperFunction,Conductor*%
%TO.N,ESP_GND2*%
G36*
X141187290Y-66519685D02*
G01*
X141233045Y-66572489D01*
X141244246Y-66622863D01*
X141246695Y-66889863D01*
X141227626Y-66957080D01*
X141175244Y-67003317D01*
X141122700Y-67015000D01*
X141115000Y-67015000D01*
X141115000Y-69204999D01*
X141145067Y-69204999D01*
X141153234Y-69207397D01*
X141161650Y-69206113D01*
X141186256Y-69217093D01*
X141212106Y-69224684D01*
X141217679Y-69231116D01*
X141225455Y-69234586D01*
X141240220Y-69257129D01*
X141257861Y-69277488D01*
X141260070Y-69287436D01*
X141263737Y-69293035D01*
X141269062Y-69327925D01*
X141269075Y-69329426D01*
X141249972Y-69396634D01*
X141197566Y-69442844D01*
X141145080Y-69454500D01*
X139647129Y-69454500D01*
X139647123Y-69454501D01*
X139587516Y-69460908D01*
X139452671Y-69511202D01*
X139452664Y-69511206D01*
X139337455Y-69597452D01*
X139337452Y-69597455D01*
X139251206Y-69712664D01*
X139251202Y-69712671D01*
X139200908Y-69847517D01*
X139194501Y-69907116D01*
X139194500Y-69907135D01*
X139194500Y-71392870D01*
X139194501Y-71392876D01*
X139200908Y-71452483D01*
X139251202Y-71587328D01*
X139251206Y-71587335D01*
X139337452Y-71702544D01*
X139337455Y-71702547D01*
X139452664Y-71788793D01*
X139452671Y-71788797D01*
X139497618Y-71805561D01*
X139587517Y-71839091D01*
X139647127Y-71845500D01*
X139716337Y-71845499D01*
X139720732Y-71846790D01*
X139725212Y-71845817D01*
X139753951Y-71856543D01*
X139783375Y-71865183D01*
X139786375Y-71868645D01*
X139790671Y-71870249D01*
X139809046Y-71894808D01*
X139829131Y-71917986D01*
X139830549Y-71923547D01*
X139832529Y-71926193D01*
X139840023Y-71960682D01*
X139840130Y-71962183D01*
X139825262Y-72030452D01*
X139775845Y-72079846D01*
X139716446Y-72095000D01*
X139663521Y-72095000D01*
X139569849Y-72109835D01*
X139569844Y-72109837D01*
X139456958Y-72167356D01*
X139456949Y-72167363D01*
X139367363Y-72256949D01*
X139367360Y-72256953D01*
X139309833Y-72369855D01*
X139295000Y-72463513D01*
X139295000Y-72815000D01*
X140616000Y-72815000D01*
X140683039Y-72834685D01*
X140728794Y-72887489D01*
X140740000Y-72939000D01*
X140740000Y-73190000D01*
X140991000Y-73190000D01*
X141058039Y-73209685D01*
X141103794Y-73262489D01*
X141115000Y-73314000D01*
X141115000Y-74284999D01*
X141184994Y-74284999D01*
X141193441Y-74287479D01*
X141202150Y-74286192D01*
X141226449Y-74297171D01*
X141252033Y-74304684D01*
X141257797Y-74311336D01*
X141265821Y-74314962D01*
X141280328Y-74337339D01*
X141297788Y-74357488D01*
X141300040Y-74367742D01*
X141303831Y-74373589D01*
X141308993Y-74408503D01*
X141308999Y-74410004D01*
X141289583Y-74477122D01*
X141236962Y-74523088D01*
X141185000Y-74534500D01*
X139647129Y-74534500D01*
X139647123Y-74534501D01*
X139587516Y-74540908D01*
X139452671Y-74591202D01*
X139452664Y-74591206D01*
X139337455Y-74677452D01*
X139337452Y-74677455D01*
X139251206Y-74792664D01*
X139251202Y-74792671D01*
X139200908Y-74927517D01*
X139194501Y-74987116D01*
X139194500Y-74987135D01*
X139194500Y-76472870D01*
X139194501Y-76472876D01*
X139200908Y-76532483D01*
X139251202Y-76667328D01*
X139251206Y-76667335D01*
X139337452Y-76782544D01*
X139337455Y-76782547D01*
X139452664Y-76868793D01*
X139452671Y-76868797D01*
X139497618Y-76885561D01*
X139587517Y-76919091D01*
X139647127Y-76925500D01*
X139732848Y-76925499D01*
X139762311Y-76934150D01*
X139792311Y-76940687D01*
X139795524Y-76943902D01*
X139799886Y-76945183D01*
X139819994Y-76968388D01*
X139841700Y-76990108D01*
X139843875Y-76995947D01*
X139845642Y-76997986D01*
X139854023Y-77023181D01*
X139854349Y-77024682D01*
X139849341Y-77094372D01*
X139807451Y-77150292D01*
X139741979Y-77174687D01*
X139733176Y-77175000D01*
X139663520Y-77175000D01*
X139569849Y-77189835D01*
X139569844Y-77189837D01*
X139456958Y-77247356D01*
X139456949Y-77247363D01*
X139367363Y-77336949D01*
X139367360Y-77336953D01*
X139309833Y-77449855D01*
X139295000Y-77543513D01*
X139295000Y-77895000D01*
X140616000Y-77895000D01*
X140683039Y-77914685D01*
X140728794Y-77967489D01*
X140740000Y-78019000D01*
X140740000Y-78270000D01*
X140991000Y-78270000D01*
X141058039Y-78289685D01*
X141103794Y-78342489D01*
X141115000Y-78394000D01*
X141115000Y-79364999D01*
X141207294Y-79364999D01*
X141215741Y-79367479D01*
X141224450Y-79366192D01*
X141248749Y-79377171D01*
X141274333Y-79384684D01*
X141280097Y-79391336D01*
X141288121Y-79394962D01*
X141302628Y-79417339D01*
X141320088Y-79437488D01*
X141322340Y-79447742D01*
X141326131Y-79453589D01*
X141331293Y-79488503D01*
X141331299Y-79490004D01*
X141311883Y-79557122D01*
X141259262Y-79603088D01*
X141207300Y-79614500D01*
X139647129Y-79614500D01*
X139647123Y-79614501D01*
X139587516Y-79620908D01*
X139452671Y-79671202D01*
X139452664Y-79671206D01*
X139337455Y-79757452D01*
X139337452Y-79757455D01*
X139251206Y-79872664D01*
X139251202Y-79872671D01*
X139200908Y-80007517D01*
X139194501Y-80067116D01*
X139194500Y-80067135D01*
X139194500Y-81552870D01*
X139194501Y-81552876D01*
X139200908Y-81612483D01*
X139251202Y-81747328D01*
X139251206Y-81747335D01*
X139337452Y-81862544D01*
X139337455Y-81862547D01*
X139452664Y-81948793D01*
X139452671Y-81948797D01*
X139497618Y-81965561D01*
X139587517Y-81999091D01*
X139647127Y-82005500D01*
X139694907Y-82005499D01*
X139699302Y-82006790D01*
X139703782Y-82005817D01*
X139732516Y-82016542D01*
X139761944Y-82025182D01*
X139764945Y-82028645D01*
X139769241Y-82030249D01*
X139787617Y-82054809D01*
X139807700Y-82077985D01*
X139809118Y-82083546D01*
X139811099Y-82086193D01*
X139818593Y-82120682D01*
X139818700Y-82122183D01*
X139803832Y-82190452D01*
X139754415Y-82239846D01*
X139695017Y-82255000D01*
X139663521Y-82255000D01*
X139569849Y-82269835D01*
X139569844Y-82269837D01*
X139456958Y-82327356D01*
X139456949Y-82327363D01*
X139367363Y-82416949D01*
X139367360Y-82416953D01*
X139309833Y-82529855D01*
X139295000Y-82623513D01*
X139295000Y-82975000D01*
X140616000Y-82975000D01*
X140683039Y-82994685D01*
X140728794Y-83047489D01*
X140740000Y-83099000D01*
X140740000Y-83350000D01*
X140991000Y-83350000D01*
X141058039Y-83369685D01*
X141103794Y-83422489D01*
X141115000Y-83474000D01*
X141115000Y-84444999D01*
X141631845Y-84444999D01*
X141637953Y-84446792D01*
X141644210Y-84445617D01*
X141671075Y-84456518D01*
X141698884Y-84464684D01*
X141703051Y-84469493D01*
X141708952Y-84471888D01*
X141725659Y-84495585D01*
X141744639Y-84517488D01*
X141745544Y-84523788D01*
X141749214Y-84528992D01*
X141750457Y-84557953D01*
X141754583Y-84586646D01*
X141752006Y-84594034D01*
X141752211Y-84598797D01*
X141738941Y-84631501D01*
X141738065Y-84633002D01*
X141687272Y-84680980D01*
X141630969Y-84694500D01*
X139647129Y-84694500D01*
X139647123Y-84694501D01*
X139587516Y-84700908D01*
X139452671Y-84751202D01*
X139452664Y-84751206D01*
X139337455Y-84837452D01*
X139337452Y-84837455D01*
X139251206Y-84952664D01*
X139251202Y-84952671D01*
X139200908Y-85087517D01*
X139194501Y-85147116D01*
X139194500Y-85147135D01*
X139194500Y-86632870D01*
X139194501Y-86632876D01*
X139200908Y-86692483D01*
X139251202Y-86827328D01*
X139251206Y-86827335D01*
X139337452Y-86942544D01*
X139337455Y-86942547D01*
X139452664Y-87028793D01*
X139452671Y-87028797D01*
X139587516Y-87079091D01*
X139647113Y-87085499D01*
X139647118Y-87085499D01*
X139647127Y-87085500D01*
X139648543Y-87085499D01*
X139648859Y-87085592D01*
X139650434Y-87085677D01*
X139650424Y-87085855D01*
X139650431Y-87085856D01*
X139650417Y-87085977D01*
X139650414Y-87086048D01*
X139715584Y-87105169D01*
X139761350Y-87157964D01*
X139772327Y-87201797D01*
X139774524Y-87237103D01*
X139774525Y-87237108D01*
X139823551Y-87372368D01*
X139823552Y-87372370D01*
X139856063Y-87433244D01*
X139856450Y-87433980D01*
X139856470Y-87434007D01*
X139941625Y-87549982D01*
X140252811Y-87866984D01*
X140294553Y-87905005D01*
X140294561Y-87905012D01*
X140294568Y-87905018D01*
X140315982Y-87922437D01*
X140316003Y-87922454D01*
X140316015Y-87922463D01*
X140316027Y-87922472D01*
X140336916Y-87937608D01*
X140361700Y-87955567D01*
X140361705Y-87955569D01*
X140361708Y-87955571D01*
X140477120Y-88008279D01*
X140492577Y-88015338D01*
X140559616Y-88035023D01*
X140559620Y-88035024D01*
X140702036Y-88055500D01*
X140702039Y-88055500D01*
X144047050Y-88055500D01*
X144047089Y-88055500D01*
X144058918Y-88055362D01*
X144064728Y-88055226D01*
X144064753Y-88055225D01*
X144064758Y-88055225D01*
X144076531Y-88054811D01*
X144076542Y-88054810D01*
X144076584Y-88054809D01*
X145068577Y-88008279D01*
X145068616Y-88008276D01*
X145068631Y-88008276D01*
X145080354Y-88007589D01*
X145080856Y-88007553D01*
X145086179Y-88007179D01*
X145098006Y-88006207D01*
X145195770Y-87997015D01*
X145206908Y-87996474D01*
X148825401Y-87984441D01*
X148892504Y-88003902D01*
X148938434Y-88056554D01*
X148949812Y-88108626D01*
X148946322Y-90429885D01*
X148940464Y-94325987D01*
X149273731Y-94377619D01*
X149336964Y-94407335D01*
X149342425Y-94412476D01*
X149415810Y-94485861D01*
X149578871Y-94604332D01*
X149758458Y-94695836D01*
X149758460Y-94695837D01*
X149814529Y-94714055D01*
X149872204Y-94753492D01*
X149899403Y-94817851D01*
X149887489Y-94886697D01*
X149840245Y-94938173D01*
X149814530Y-94949917D01*
X149797036Y-94955601D01*
X149723996Y-94992816D01*
X150260330Y-95529150D01*
X150181541Y-95529150D01*
X150049288Y-95564587D01*
X149930713Y-95633046D01*
X149833896Y-95729863D01*
X149765437Y-95848438D01*
X149730000Y-95980691D01*
X149730000Y-96117609D01*
X149765437Y-96249862D01*
X149833896Y-96368437D01*
X149930713Y-96465254D01*
X150049288Y-96533713D01*
X150181541Y-96569150D01*
X150260328Y-96569150D01*
X149723996Y-97105482D01*
X149797036Y-97142698D01*
X149814528Y-97148382D01*
X149872204Y-97187819D01*
X149899403Y-97252177D01*
X149887489Y-97321024D01*
X149840245Y-97372500D01*
X149814530Y-97384244D01*
X149758459Y-97402463D01*
X149578872Y-97493967D01*
X149578867Y-97493970D01*
X149547993Y-97516400D01*
X149482186Y-97539877D01*
X149481990Y-97539888D01*
X148400000Y-97599999D01*
X148400000Y-102871322D01*
X148380315Y-102938361D01*
X148327511Y-102984116D01*
X148271411Y-102995237D01*
X142999999Y-102799999D01*
X140750000Y-104589149D01*
X140750000Y-112676000D01*
X140730315Y-112743039D01*
X140677511Y-112788794D01*
X140626000Y-112800000D01*
X136124000Y-112800000D01*
X136056961Y-112780315D01*
X136011206Y-112727511D01*
X136000000Y-112676000D01*
X136000000Y-112171479D01*
X136490001Y-112171479D01*
X136504835Y-112265149D01*
X136504837Y-112265155D01*
X136562356Y-112378041D01*
X136562363Y-112378050D01*
X136651949Y-112467636D01*
X136651953Y-112467639D01*
X136764855Y-112525166D01*
X136858514Y-112539999D01*
X137424999Y-112539999D01*
X138175000Y-112539999D01*
X138741479Y-112539999D01*
X138835149Y-112525164D01*
X138835155Y-112525162D01*
X138948041Y-112467643D01*
X138948050Y-112467636D01*
X139037636Y-112378050D01*
X139037639Y-112378046D01*
X139095166Y-112265144D01*
X139110000Y-112171486D01*
X139110000Y-111915000D01*
X138175000Y-111915000D01*
X138175000Y-112539999D01*
X137424999Y-112539999D01*
X137425000Y-112539998D01*
X137425000Y-111915000D01*
X136490001Y-111915000D01*
X136490001Y-112171479D01*
X136000000Y-112171479D01*
X136000000Y-110908513D01*
X136490000Y-110908513D01*
X136490000Y-111165000D01*
X137425000Y-111165000D01*
X138175000Y-111165000D01*
X139109999Y-111165000D01*
X139109999Y-110908520D01*
X139095164Y-110814850D01*
X139095162Y-110814844D01*
X139037643Y-110701958D01*
X139037636Y-110701949D01*
X138948050Y-110612363D01*
X138948046Y-110612360D01*
X138835144Y-110554833D01*
X138741486Y-110540000D01*
X138175000Y-110540000D01*
X138175000Y-111165000D01*
X137425000Y-111165000D01*
X137425000Y-110540000D01*
X136858520Y-110540000D01*
X136764850Y-110554835D01*
X136764844Y-110554837D01*
X136651958Y-110612356D01*
X136651949Y-110612363D01*
X136562363Y-110701949D01*
X136562360Y-110701953D01*
X136504833Y-110814855D01*
X136490000Y-110908513D01*
X136000000Y-110908513D01*
X136000000Y-105931176D01*
X137318301Y-105931176D01*
X137442558Y-105982645D01*
X137442566Y-105982647D01*
X137646185Y-106023149D01*
X137646189Y-106023150D01*
X137853811Y-106023150D01*
X137853814Y-106023149D01*
X138057433Y-105982647D01*
X138057441Y-105982645D01*
X138181697Y-105931176D01*
X137750001Y-105499480D01*
X137750000Y-105499480D01*
X137318301Y-105931176D01*
X136000000Y-105931176D01*
X136000000Y-104865335D01*
X136696000Y-104865335D01*
X136696000Y-105072964D01*
X136736502Y-105276582D01*
X136736505Y-105276594D01*
X136787971Y-105400846D01*
X137219670Y-104969150D01*
X137167009Y-104916489D01*
X137350000Y-104916489D01*
X137350000Y-105021811D01*
X137377259Y-105123544D01*
X137429920Y-105214756D01*
X137504394Y-105289230D01*
X137595606Y-105341891D01*
X137697339Y-105369150D01*
X137802661Y-105369150D01*
X137904394Y-105341891D01*
X137995606Y-105289230D01*
X138070080Y-105214756D01*
X138122741Y-105123544D01*
X138150000Y-105021811D01*
X138150000Y-104969149D01*
X138280330Y-104969149D01*
X138280330Y-104969150D01*
X138712026Y-105400847D01*
X138763495Y-105276591D01*
X138763497Y-105276583D01*
X138803999Y-105072964D01*
X138804000Y-105072961D01*
X138804000Y-104865339D01*
X138803999Y-104865335D01*
X138763497Y-104661716D01*
X138763495Y-104661708D01*
X138712026Y-104537451D01*
X138280330Y-104969149D01*
X138150000Y-104969149D01*
X138150000Y-104916489D01*
X138122741Y-104814756D01*
X138070080Y-104723544D01*
X137995606Y-104649070D01*
X137904394Y-104596409D01*
X137802661Y-104569150D01*
X137697339Y-104569150D01*
X137595606Y-104596409D01*
X137504394Y-104649070D01*
X137429920Y-104723544D01*
X137377259Y-104814756D01*
X137350000Y-104916489D01*
X137167009Y-104916489D01*
X136787972Y-104537452D01*
X136736504Y-104661710D01*
X136736502Y-104661717D01*
X136696000Y-104865335D01*
X136000000Y-104865335D01*
X136000000Y-104288833D01*
X136015206Y-104229336D01*
X136136730Y-104007122D01*
X137318302Y-104007122D01*
X137750000Y-104438820D01*
X137750001Y-104438820D01*
X138181697Y-104007122D01*
X138057444Y-103955655D01*
X138057432Y-103955652D01*
X137853814Y-103915150D01*
X137646185Y-103915150D01*
X137442567Y-103955652D01*
X137442560Y-103955654D01*
X137318302Y-104007122D01*
X136136730Y-104007122D01*
X136146947Y-103988439D01*
X137964725Y-100664503D01*
X138014162Y-100615130D01*
X138073519Y-100600000D01*
X143050000Y-100600000D01*
X143050000Y-95956276D01*
X149070000Y-95956276D01*
X149070000Y-96142023D01*
X149099055Y-96325468D01*
X149099055Y-96325471D01*
X149156450Y-96502111D01*
X149156450Y-96502112D01*
X149193665Y-96575153D01*
X149193666Y-96575153D01*
X149719670Y-96049150D01*
X149719670Y-96049149D01*
X149193665Y-95523145D01*
X149156450Y-95596187D01*
X149156450Y-95596188D01*
X149099055Y-95772828D01*
X149099055Y-95772831D01*
X149070000Y-95956276D01*
X143050000Y-95956276D01*
X143050000Y-90405597D01*
X137224740Y-90449069D01*
X137157556Y-90429885D01*
X137111408Y-90377424D01*
X137099815Y-90325255D01*
X137096387Y-88008276D01*
X137090570Y-84076479D01*
X139295001Y-84076479D01*
X139309835Y-84170149D01*
X139309837Y-84170155D01*
X139367356Y-84283041D01*
X139367363Y-84283050D01*
X139456949Y-84372636D01*
X139456953Y-84372639D01*
X139569855Y-84430166D01*
X139663514Y-84444999D01*
X140364999Y-84444999D01*
X140365000Y-84444998D01*
X140365000Y-83725000D01*
X139295001Y-83725000D01*
X139295001Y-84076479D01*
X137090570Y-84076479D01*
X137083054Y-78996479D01*
X139295001Y-78996479D01*
X139309835Y-79090149D01*
X139309837Y-79090155D01*
X139367356Y-79203041D01*
X139367363Y-79203050D01*
X139456949Y-79292636D01*
X139456953Y-79292639D01*
X139569855Y-79350166D01*
X139663514Y-79364999D01*
X140364999Y-79364999D01*
X140365000Y-79364998D01*
X140365000Y-78645000D01*
X139295001Y-78645000D01*
X139295001Y-78996479D01*
X137083054Y-78996479D01*
X137079060Y-76296600D01*
X137075540Y-73916479D01*
X139295001Y-73916479D01*
X139309835Y-74010149D01*
X139309837Y-74010155D01*
X139367356Y-74123041D01*
X139367363Y-74123050D01*
X139456949Y-74212636D01*
X139456953Y-74212639D01*
X139569855Y-74270166D01*
X139663514Y-74284999D01*
X140364999Y-74284999D01*
X140365000Y-74284998D01*
X140365000Y-73565000D01*
X139295001Y-73565000D01*
X139295001Y-73916479D01*
X137075540Y-73916479D01*
X137074944Y-73513821D01*
X137068024Y-68836479D01*
X139295001Y-68836479D01*
X139309835Y-68930149D01*
X139309837Y-68930155D01*
X139367356Y-69043041D01*
X139367363Y-69043050D01*
X139456949Y-69132636D01*
X139456953Y-69132639D01*
X139569855Y-69190166D01*
X139663514Y-69204999D01*
X140364999Y-69204999D01*
X140365000Y-69204998D01*
X140365000Y-68485000D01*
X139295001Y-68485000D01*
X139295001Y-68836479D01*
X137068024Y-68836479D01*
X137067428Y-68433821D01*
X137065874Y-67383513D01*
X139295000Y-67383513D01*
X139295000Y-67735000D01*
X140365000Y-67735000D01*
X140365000Y-67015000D01*
X139663520Y-67015000D01*
X139569850Y-67029835D01*
X139569844Y-67029837D01*
X139456958Y-67087356D01*
X139456949Y-67087363D01*
X139367363Y-67176949D01*
X139367360Y-67176953D01*
X139309833Y-67289855D01*
X139295000Y-67383513D01*
X137065874Y-67383513D01*
X137065867Y-67378830D01*
X137065735Y-67289855D01*
X137064751Y-66624183D01*
X137084337Y-66557115D01*
X137137073Y-66511282D01*
X137188751Y-66500000D01*
X141120251Y-66500000D01*
X141187290Y-66519685D01*
G37*
%TD.AperFunction*%
%TD*%
%TA.AperFunction,Conductor*%
%TO.N,+VOUT-esp*%
G36*
X149555130Y-107619685D02*
G01*
X149600885Y-107672489D01*
X149611709Y-107733732D01*
X149609988Y-107755585D01*
X150104260Y-108249857D01*
X150049288Y-108264587D01*
X149930713Y-108333046D01*
X149833896Y-108429863D01*
X149765437Y-108548438D01*
X149750707Y-108603410D01*
X149256435Y-108109138D01*
X149256433Y-108109138D01*
X149240771Y-108130698D01*
X149156452Y-108296182D01*
X149099054Y-108472832D01*
X149070000Y-108656276D01*
X149070000Y-108842023D01*
X149099054Y-109025467D01*
X149156452Y-109202117D01*
X149240774Y-109367607D01*
X149256433Y-109389160D01*
X149256434Y-109389160D01*
X149750706Y-108894888D01*
X149765437Y-108949862D01*
X149833896Y-109068437D01*
X149930713Y-109165254D01*
X150049288Y-109233713D01*
X150104260Y-109248442D01*
X149609987Y-109742714D01*
X149609988Y-109742715D01*
X149631540Y-109758374D01*
X149797032Y-109842697D01*
X149973682Y-109900095D01*
X150157127Y-109929150D01*
X150342873Y-109929150D01*
X150526317Y-109900095D01*
X150702967Y-109842697D01*
X150868455Y-109758376D01*
X150890010Y-109742715D01*
X150890010Y-109742714D01*
X150395739Y-109248442D01*
X150450712Y-109233713D01*
X150569287Y-109165254D01*
X150666104Y-109068437D01*
X150734563Y-108949862D01*
X150749292Y-108894888D01*
X151243564Y-109389160D01*
X151243565Y-109389160D01*
X151259226Y-109367605D01*
X151343547Y-109202117D01*
X151400945Y-109025467D01*
X151430000Y-108842023D01*
X151430000Y-108656276D01*
X151400945Y-108472832D01*
X151343547Y-108296182D01*
X151259224Y-108130690D01*
X151243565Y-108109138D01*
X151243564Y-108109137D01*
X150749292Y-108603409D01*
X150734563Y-108548438D01*
X150666104Y-108429863D01*
X150569287Y-108333046D01*
X150450712Y-108264587D01*
X150395739Y-108249857D01*
X150890010Y-107755584D01*
X150888290Y-107733730D01*
X150902654Y-107665353D01*
X150951704Y-107615596D01*
X151011908Y-107600000D01*
X152955747Y-107600000D01*
X153022786Y-107619685D01*
X153045312Y-107638244D01*
X153157662Y-107755585D01*
X153904067Y-108535147D01*
X153928640Y-108560811D01*
X153960785Y-108622847D01*
X153962958Y-108651953D01*
X153645599Y-115951199D01*
X153623021Y-116017320D01*
X153607472Y-116035378D01*
X152635965Y-116965565D01*
X152573929Y-116997710D01*
X152550209Y-117000000D01*
X150639586Y-117000000D01*
X150572547Y-116980315D01*
X150567737Y-116977063D01*
X149303743Y-116078441D01*
X149260510Y-116023553D01*
X149258474Y-116018115D01*
X148690745Y-114385893D01*
X150048000Y-114385893D01*
X150048000Y-114568806D01*
X150076611Y-114749452D01*
X150133133Y-114923407D01*
X150216169Y-115086370D01*
X150229320Y-115104473D01*
X150229321Y-115104473D01*
X150720504Y-114613290D01*
X150736619Y-114673431D01*
X150803498Y-114789270D01*
X150898080Y-114883852D01*
X151013919Y-114950731D01*
X151074058Y-114966845D01*
X150582875Y-115458027D01*
X150582875Y-115458028D01*
X150600978Y-115471180D01*
X150600980Y-115471181D01*
X150763944Y-115554216D01*
X150937897Y-115610738D01*
X151118544Y-115639350D01*
X151301456Y-115639350D01*
X151482102Y-115610738D01*
X151656055Y-115554216D01*
X151819020Y-115471180D01*
X151837123Y-115458028D01*
X151837123Y-115458027D01*
X151345941Y-114966845D01*
X151406081Y-114950731D01*
X151521920Y-114883852D01*
X151616502Y-114789270D01*
X151683381Y-114673431D01*
X151699495Y-114613291D01*
X152190677Y-115104473D01*
X152190678Y-115104473D01*
X152203830Y-115086370D01*
X152286866Y-114923405D01*
X152343388Y-114749452D01*
X152372000Y-114568806D01*
X152372000Y-114385893D01*
X152343388Y-114205247D01*
X152286866Y-114031294D01*
X152203831Y-113868330D01*
X152203830Y-113868328D01*
X152190677Y-113850225D01*
X151699494Y-114341407D01*
X151683381Y-114281269D01*
X151616502Y-114165430D01*
X151521920Y-114070848D01*
X151406081Y-114003969D01*
X151345941Y-113987854D01*
X151837123Y-113496671D01*
X151837123Y-113496670D01*
X151819020Y-113483519D01*
X151656057Y-113400483D01*
X151482102Y-113343961D01*
X151301456Y-113315350D01*
X151118544Y-113315350D01*
X150937897Y-113343961D01*
X150763944Y-113400483D01*
X150600981Y-113483517D01*
X150582875Y-113496670D01*
X150582875Y-113496671D01*
X151074058Y-113987854D01*
X151013919Y-114003969D01*
X150898080Y-114070848D01*
X150803498Y-114165430D01*
X150736619Y-114281269D01*
X150720504Y-114341408D01*
X150229321Y-113850225D01*
X150229320Y-113850225D01*
X150216167Y-113868331D01*
X150133133Y-114031294D01*
X150076611Y-114205247D01*
X150048000Y-114385893D01*
X148690745Y-114385893D01*
X146679976Y-108604932D01*
X146676543Y-108535147D01*
X146696027Y-108492350D01*
X147293358Y-107652151D01*
X147348246Y-107608918D01*
X147394421Y-107600000D01*
X149488091Y-107600000D01*
X149555130Y-107619685D01*
G37*
%TD.AperFunction*%
%TD*%
%TA.AperFunction,Conductor*%
%TO.N,/ramp_down_opto*%
G36*
X127493039Y-75219685D02*
G01*
X127538794Y-75272489D01*
X127550000Y-75324000D01*
X127550000Y-79850000D01*
X130952579Y-79850000D01*
X131019618Y-79869685D01*
X131046292Y-79892798D01*
X131074923Y-79925840D01*
X131074926Y-79925843D01*
X131074930Y-79925847D01*
X131183664Y-80020067D01*
X131314541Y-80079838D01*
X131381580Y-80099523D01*
X131381584Y-80099524D01*
X131524000Y-80120000D01*
X132575999Y-80120000D01*
X132643038Y-80139685D01*
X132688793Y-80192489D01*
X132699999Y-80244000D01*
X132700000Y-81375999D01*
X132680315Y-81443038D01*
X132627512Y-81488793D01*
X132576000Y-81499999D01*
X130767349Y-81499999D01*
X130747451Y-81502123D01*
X130660611Y-81511397D01*
X130609445Y-81522450D01*
X130609429Y-81522454D01*
X130507524Y-81556124D01*
X130391028Y-81630511D01*
X130324296Y-81650000D01*
X130000000Y-81650000D01*
X129935699Y-83771910D01*
X129913993Y-83838322D01*
X129859827Y-83882457D01*
X129809542Y-83892134D01*
X127092435Y-83843614D01*
X127025758Y-83822736D01*
X127001537Y-83800000D01*
X127000000Y-83800000D01*
X122924000Y-83800000D01*
X122856961Y-83780315D01*
X122811206Y-83727511D01*
X122800000Y-83676000D01*
X122800000Y-75324000D01*
X122819685Y-75256961D01*
X122872489Y-75211206D01*
X122924000Y-75200000D01*
X127426000Y-75200000D01*
X127493039Y-75219685D01*
G37*
%TD.AperFunction*%
%TD*%
%TA.AperFunction,Conductor*%
%TO.N,ramp_up_opto*%
G36*
X126493039Y-66119685D02*
G01*
X126538794Y-66172489D01*
X126550000Y-66224000D01*
X126550000Y-72300000D01*
X129876000Y-72300000D01*
X129943039Y-72319685D01*
X129988794Y-72372489D01*
X130000000Y-72424000D01*
X130000000Y-74800000D01*
X130978574Y-74800000D01*
X131045613Y-74819685D01*
X131072287Y-74842798D01*
X131074923Y-74845840D01*
X131074926Y-74845843D01*
X131074930Y-74845847D01*
X131183664Y-74940067D01*
X131314541Y-74999838D01*
X131381580Y-75019523D01*
X131381584Y-75019524D01*
X131524000Y-75040000D01*
X132575999Y-75040000D01*
X132643038Y-75059685D01*
X132688793Y-75112489D01*
X132699999Y-75164000D01*
X132699999Y-76377140D01*
X132680314Y-76444179D01*
X132666757Y-76461633D01*
X132649701Y-76479952D01*
X132649701Y-76479953D01*
X132594435Y-76551097D01*
X132594434Y-76551098D01*
X132534663Y-76681974D01*
X132514976Y-76749019D01*
X132494500Y-76891438D01*
X132494500Y-76896767D01*
X132481250Y-76952538D01*
X132474816Y-76965314D01*
X132451535Y-76993172D01*
X132394110Y-77125096D01*
X132393817Y-77126161D01*
X132390993Y-77131771D01*
X132369396Y-77154856D01*
X132349133Y-77179102D01*
X132345711Y-77180173D01*
X132343260Y-77182794D01*
X132312607Y-77190538D01*
X132282456Y-77199980D01*
X132280243Y-77200000D01*
X128174000Y-77200000D01*
X128106961Y-77180315D01*
X128061206Y-77127511D01*
X128050000Y-77076000D01*
X128050000Y-74650000D01*
X122874000Y-74650000D01*
X122806961Y-74630315D01*
X122761206Y-74577511D01*
X122750000Y-74526000D01*
X122750000Y-66224000D01*
X122769685Y-66156961D01*
X122822489Y-66111206D01*
X122874000Y-66100000D01*
X126426000Y-66100000D01*
X126493039Y-66119685D01*
G37*
%TD.AperFunction*%
%TD*%
%TA.AperFunction,Conductor*%
%TO.N,GPIO_32*%
G36*
X146382518Y-69769685D02*
G01*
X146388588Y-69773845D01*
X146975635Y-70202368D01*
X147018177Y-70257793D01*
X147020627Y-70264733D01*
X148999998Y-76450597D01*
X148999998Y-76450598D01*
X148999999Y-76450599D01*
X149000000Y-76450601D01*
X149600000Y-77125300D01*
X149867735Y-77426369D01*
X150052838Y-77783635D01*
X150049288Y-77784587D01*
X149930713Y-77853046D01*
X149833896Y-77949863D01*
X149765437Y-78068438D01*
X149730000Y-78200691D01*
X149730000Y-78337609D01*
X149765437Y-78469862D01*
X149833896Y-78588437D01*
X149930713Y-78685254D01*
X150049288Y-78753713D01*
X150181541Y-78789150D01*
X150260327Y-78789150D01*
X149712219Y-79337260D01*
X149650896Y-79370745D01*
X149611257Y-79372866D01*
X147450707Y-79140126D01*
X147386162Y-79113374D01*
X147346838Y-79057483D01*
X147331361Y-79012872D01*
X147041113Y-78176276D01*
X149070000Y-78176276D01*
X149070000Y-78362023D01*
X149099055Y-78545468D01*
X149099055Y-78545471D01*
X149156450Y-78722111D01*
X149156450Y-78722112D01*
X149193665Y-78795153D01*
X149193666Y-78795153D01*
X149719670Y-78269150D01*
X149719670Y-78269149D01*
X149193665Y-77743145D01*
X149156450Y-77816187D01*
X149156450Y-77816188D01*
X149099055Y-77992828D01*
X149099055Y-77992831D01*
X149070000Y-78176276D01*
X147041113Y-78176276D01*
X147028144Y-78138896D01*
X146282986Y-75974387D01*
X144983607Y-72200000D01*
X142251437Y-72200000D01*
X142184398Y-72180315D01*
X142152172Y-72150313D01*
X142142546Y-72137454D01*
X142142544Y-72137452D01*
X142142543Y-72137451D01*
X142027335Y-72051206D01*
X142027328Y-72051202D01*
X141892482Y-72000908D01*
X141892483Y-72000908D01*
X141832883Y-71994501D01*
X141832881Y-71994500D01*
X141832873Y-71994500D01*
X141832865Y-71994500D01*
X140495862Y-71994500D01*
X140428823Y-71974815D01*
X140408181Y-71958181D01*
X140367680Y-71917680D01*
X140334195Y-71856357D01*
X140339179Y-71786665D01*
X140365000Y-71746487D01*
X140365000Y-71744999D01*
X141115000Y-71744999D01*
X141816479Y-71744999D01*
X141910149Y-71730164D01*
X141910155Y-71730162D01*
X142023041Y-71672643D01*
X142023050Y-71672636D01*
X142112636Y-71583050D01*
X142112639Y-71583046D01*
X142170166Y-71470144D01*
X142185000Y-71376486D01*
X142185000Y-71025000D01*
X141115000Y-71025000D01*
X141115000Y-71744999D01*
X140365000Y-71744999D01*
X140365000Y-70774000D01*
X140384685Y-70706961D01*
X140437489Y-70661206D01*
X140489000Y-70650000D01*
X140740000Y-70650000D01*
X140740000Y-70399000D01*
X140759685Y-70331961D01*
X140812489Y-70286206D01*
X140864000Y-70275000D01*
X142184999Y-70275000D01*
X142184999Y-69923521D01*
X142180228Y-69893397D01*
X142189184Y-69824103D01*
X142234181Y-69770652D01*
X142300932Y-69750013D01*
X142302702Y-69750000D01*
X146315479Y-69750000D01*
X146382518Y-69769685D01*
G37*
%TD.AperFunction*%
%TD*%
M02*
