%TF.GenerationSoftware,KiCad,Pcbnew,9.0.0*%
%TF.CreationDate,2025-11-28T03:58:55-07:00*%
%TF.ProjectId,ESP-Board,4553502d-426f-4617-9264-2e6b69636164,rev?*%
%TF.SameCoordinates,Original*%
%TF.FileFunction,Copper,L2,Bot*%
%TF.FilePolarity,Positive*%
%FSLAX46Y46*%
G04 Gerber Fmt 4.6, Leading zero omitted, Abs format (unit mm)*
G04 Created by KiCad (PCBNEW 9.0.0) date 2025-11-28 03:58:55*
%MOMM*%
%LPD*%
G01*
G04 APERTURE LIST*
%TA.AperFunction,ComponentPad*%
%ADD10R,1.580000X1.580000*%
%TD*%
%TA.AperFunction,ComponentPad*%
%ADD11C,1.580000*%
%TD*%
%TA.AperFunction,ComponentPad*%
%ADD12R,1.524000X1.524000*%
%TD*%
%TA.AperFunction,ComponentPad*%
%ADD13C,1.524000*%
%TD*%
%TA.AperFunction,ComponentPad*%
%ADD14R,1.650000X1.650000*%
%TD*%
%TA.AperFunction,ComponentPad*%
%ADD15C,1.650000*%
%TD*%
%TA.AperFunction,ComponentPad*%
%ADD16C,1.900000*%
%TD*%
%TA.AperFunction,ComponentPad*%
%ADD17C,1.700000*%
%TD*%
%TA.AperFunction,ComponentPad*%
%ADD18C,1.651000*%
%TD*%
%TA.AperFunction,SMDPad,CuDef*%
%ADD19R,0.939800X1.244600*%
%TD*%
%TA.AperFunction,SMDPad,CuDef*%
%ADD20R,1.371600X0.660400*%
%TD*%
%TA.AperFunction,SMDPad,CuDef*%
%ADD21R,1.770000X1.170000*%
%TD*%
%TA.AperFunction,SMDPad,CuDef*%
%ADD22R,1.170000X1.770000*%
%TD*%
%TA.AperFunction,SMDPad,CuDef*%
%ADD23R,1.230000X1.770000*%
%TD*%
%TA.AperFunction,ComponentPad*%
%ADD24R,1.560000X1.560000*%
%TD*%
%TA.AperFunction,ComponentPad*%
%ADD25C,1.560000*%
%TD*%
%TA.AperFunction,SMDPad,CuDef*%
%ADD26R,2.209800X1.651000*%
%TD*%
%TA.AperFunction,SMDPad,CuDef*%
%ADD27R,1.200000X1.820000*%
%TD*%
%TA.AperFunction,ViaPad*%
%ADD28C,0.600000*%
%TD*%
%TA.AperFunction,Conductor*%
%ADD29C,0.254000*%
%TD*%
%TA.AperFunction,Conductor*%
%ADD30C,0.450000*%
%TD*%
%TA.AperFunction,Conductor*%
%ADD31C,1.000000*%
%TD*%
%TA.AperFunction,Conductor*%
%ADD32C,0.500000*%
%TD*%
G04 APERTURE END LIST*
D10*
%TO.P,S1,1A*%
%TO.N,+3.3V*%
X174945000Y-92057500D03*
D11*
%TO.P,S1,1B*%
%TO.N,GPIO_14*%
X174945000Y-84437500D03*
%TO.P,S1,2A*%
%TO.N,+3.3V*%
X177485000Y-92057500D03*
%TO.P,S1,2B*%
%TO.N,GPIO_18*%
X177485000Y-84437500D03*
%TO.P,S1,3A*%
%TO.N,+3.3V*%
X180025000Y-92057500D03*
%TO.P,S1,3B*%
%TO.N,GPIO_19*%
X180025000Y-84437500D03*
%TD*%
D12*
%TO.P,C1,1*%
%TO.N,+VIN*%
X148074919Y-91353665D03*
D13*
%TO.P,C1,2*%
%TO.N,-Vin*%
X148074919Y-85841865D03*
%TD*%
D12*
%TO.P,C2,1*%
%TO.N,+VIN*%
X160074919Y-91353665D03*
D13*
%TO.P,C2,2*%
%TO.N,-Vin*%
X160074919Y-85841865D03*
%TD*%
D14*
%TO.P,S2,1*%
%TO.N,+24V*%
X98200000Y-86871400D03*
D15*
%TO.P,S2,2*%
%TO.N,+VIN*%
X98200000Y-89371400D03*
%TO.P,S2,3*%
%TO.N,+24V*%
X104100000Y-86871400D03*
%TO.P,S2,4*%
%TO.N,+VIN*%
X104100000Y-89371400D03*
%TD*%
D16*
%TO.P,RF1,1*%
%TO.N,+VIN-dc*%
X98250000Y-76530000D03*
%TO.P,RF1,2*%
%TO.N,+VIN*%
X98250000Y-82041800D03*
%TD*%
D17*
%TO.P,PS1,2,-VIN*%
%TO.N,-Vin*%
X136195000Y-86095000D03*
%TO.P,PS1,3,-VIN__1*%
%TO.N,unconnected-(PS1--VIN__1-Pad3)*%
X133655000Y-86095000D03*
%TO.P,PS1,9,NC*%
%TO.N,unconnected-(PS1-NC-Pad9)*%
X118415000Y-86095000D03*
%TO.P,PS1,11,NC1*%
%TO.N,unconnected-(PS1-NC1-Pad11)*%
X113335000Y-86095000D03*
%TO.P,PS1,14,+VOUT*%
%TO.N,/ESP-Board/+VOUT*%
X113335000Y-101335000D03*
%TO.P,PS1,16,-VOUT*%
%TO.N,ESP_GND2*%
X118415000Y-101335000D03*
%TO.P,PS1,22,+VIN*%
%TO.N,+VIN*%
X133655000Y-101335000D03*
%TO.P,PS1,23,+VIN__1*%
%TO.N,unconnected-(PS1-+VIN__1-Pad23)*%
X136195000Y-101335000D03*
%TD*%
D16*
%TO.P,RF2,1*%
%TO.N,/ESP-Board/+VOUT*%
X107111066Y-97191250D03*
%TO.P,RF2,2*%
%TO.N,+VOUT_esp_signal*%
X107136066Y-101941250D03*
%TD*%
D18*
%TO.P,J7,1,1*%
%TO.N,GPIO_27*%
X109040000Y-79262500D03*
%TO.P,J7,2,2*%
%TO.N,GPIO_26*%
X111580000Y-79262500D03*
%TO.P,J7,3,3*%
%TO.N,GPIO_25*%
X114120000Y-79262500D03*
%TO.P,J7,4,4*%
%TO.N,GPIO_33*%
X116660000Y-79262500D03*
%TO.P,J7,5,5*%
%TO.N,GPIO_32*%
X119200000Y-79262500D03*
%TO.P,J7,6,6*%
%TO.N,+3.3V*%
X121740000Y-79262500D03*
%TO.P,J7,7,7*%
%TO.N,GPIO_23*%
X124280000Y-79262500D03*
%TO.P,J7,8,8*%
%TO.N,GPIO_22*%
X126820000Y-79262500D03*
%TO.P,J7,9,9*%
%TO.N,GPIO_21*%
X129360000Y-79262500D03*
%TO.P,J7,10,10*%
%TO.N,-Vin*%
X131900000Y-79262500D03*
%TO.P,J7,11,11*%
%TO.N,+VIN*%
X109040000Y-76722500D03*
%TO.P,J7,12,12*%
%TO.N,+VIN-dc*%
X111580000Y-76722500D03*
%TO.P,J7,13,13*%
%TO.N,+VOUT_esp_signal*%
X114120000Y-76722500D03*
%TO.P,J7,14,14*%
%TO.N,GPIO_ANAG_34*%
X116660000Y-76722500D03*
%TO.P,J7,15,15*%
%TO.N,unconnected-(J7-Pad15)*%
X119200000Y-76722500D03*
%TO.P,J7,16,16*%
%TO.N,GPIO_ANAG_35*%
X121740000Y-76722500D03*
%TO.P,J7,17,17*%
%TO.N,GPIO_13*%
X124280000Y-76722500D03*
%TO.P,J7,18,18*%
%TO.N,ESP_GND2*%
X126820000Y-76722500D03*
%TO.P,J7,19,19*%
%TO.N,GPIO_2*%
X129360000Y-76722500D03*
%TO.P,J7,20,20*%
%TO.N,CLK*%
X131900000Y-76722500D03*
%TD*%
D19*
%TO.P,LED1,1,VDD*%
%TO.N,+VOUT_esp_signal*%
X111835000Y-89216600D03*
%TO.P,LED1,2,DOUT*%
%TO.N,GPIO_27*%
X115134998Y-89216600D03*
%TO.P,LED1,3,VSS*%
%TO.N,ESP_GND2*%
X115134998Y-94093400D03*
%TO.P,LED1,4,DIN*%
%TO.N,Net-(LED1-DIN)*%
X111835000Y-94093400D03*
%TD*%
D20*
%TO.P,U6,1,1*%
%TO.N,GPIO_4*%
X126761400Y-95775000D03*
%TO.P,U6,2,2*%
%TO.N,+3.3V*%
X126761400Y-93235000D03*
%TO.P,U6,3,3*%
%TO.N,GPIO_17*%
X126761400Y-90695000D03*
%TO.P,U6,4,4*%
%TO.N,GPIO_16*%
X136108600Y-90695000D03*
%TO.P,U6,5,5*%
%TO.N,+3.3V*%
X136108600Y-93235000D03*
%TO.P,U6,6,6*%
%TO.N,GPIO_5*%
X136108600Y-95775000D03*
%TD*%
D21*
%TO.P,R15,1*%
%TO.N,GPIO_16*%
X123575000Y-100291000D03*
%TO.P,R15,2*%
%TO.N,ESP_GND2*%
X123575000Y-103279000D03*
%TD*%
D22*
%TO.P,R16,1*%
%TO.N,GPIO_4*%
X122289000Y-91035000D03*
%TO.P,R16,2*%
%TO.N,ESP_GND2*%
X119301000Y-91035000D03*
%TD*%
D23*
%TO.P,R7,1*%
%TO.N,Net-(LED1-DIN)*%
X111959000Y-97895000D03*
%TO.P,R7,2*%
%TO.N,GPIO_27*%
X114891000Y-97895000D03*
%TD*%
D24*
%TO.P,U1,J2-1,3V3*%
%TO.N,+3.3V*%
X188595000Y-101635000D03*
D25*
%TO.P,U1,J2-2,EN*%
%TO.N,unconnected-(U1-EN-PadJ2-2)*%
X186055000Y-101635000D03*
%TO.P,U1,J2-3,SENSOR_VP*%
%TO.N,unconnected-(U1-SENSOR_VP-PadJ2-3)*%
X183515000Y-101635000D03*
%TO.P,U1,J2-4,SENSOR_VN*%
%TO.N,unconnected-(U1-SENSOR_VN-PadJ2-4)*%
X180975000Y-101635000D03*
%TO.P,U1,J2-5,IO34*%
%TO.N,GPIO_ANAG_34*%
X178435000Y-101635000D03*
%TO.P,U1,J2-6,IO35*%
%TO.N,GPIO_ANAG_35*%
X175895000Y-101635000D03*
%TO.P,U1,J2-7,IO32*%
%TO.N,GPIO_32*%
X173355000Y-101635000D03*
%TO.P,U1,J2-8,IO33*%
%TO.N,GPIO_33*%
X170815000Y-101635000D03*
%TO.P,U1,J2-9,IO25*%
%TO.N,GPIO_25*%
X168275000Y-101635000D03*
%TO.P,U1,J2-10,IO26*%
%TO.N,GPIO_26*%
X165735000Y-101635000D03*
%TO.P,U1,J2-11,IO27*%
%TO.N,GPIO_27*%
X163195000Y-101635000D03*
%TO.P,U1,J2-12,IO14*%
%TO.N,GPIO_14*%
X160655000Y-101635000D03*
%TO.P,U1,J2-13,IO12*%
%TO.N,unconnected-(U1-IO12-PadJ2-13)*%
X158115000Y-101635000D03*
%TO.P,U1,J2-14,GND1*%
%TO.N,ESP_GND2*%
X155575000Y-101635000D03*
%TO.P,U1,J2-15,IO13*%
%TO.N,GPIO_13*%
X153035000Y-101635000D03*
%TO.P,U1,J2-16,SD2*%
%TO.N,unconnected-(U1-SD2-PadJ2-16)*%
X150495000Y-101635000D03*
%TO.P,U1,J2-17,SD3*%
%TO.N,unconnected-(U1-SD3-PadJ2-17)*%
X147955000Y-101635000D03*
%TO.P,U1,J2-18,CMD*%
%TO.N,unconnected-(U1-CMD-PadJ2-18)*%
X145415000Y-101635000D03*
%TO.P,U1,J2-19,EXT_5V*%
%TO.N,+VOUT_esp_signal*%
X142875000Y-101635000D03*
%TO.P,U1,J3-1,GND3*%
%TO.N,ESP_GND2*%
X188595000Y-76235000D03*
%TO.P,U1,J3-2,IO23*%
%TO.N,GPIO_23*%
X186055000Y-76235000D03*
%TO.P,U1,J3-3,IO22*%
%TO.N,GPIO_22*%
X183515000Y-76235000D03*
%TO.P,U1,J3-4,TXD0*%
%TO.N,unconnected-(U1-TXD0-PadJ3-4)*%
X180975000Y-76235000D03*
%TO.P,U1,J3-5,RXD0*%
%TO.N,unconnected-(U1-RXD0-PadJ3-5)*%
X178435000Y-76235000D03*
%TO.P,U1,J3-6,IO21*%
%TO.N,GPIO_21*%
X175895000Y-76235000D03*
%TO.P,U1,J3-7,GND2*%
%TO.N,ESP_GND2*%
X173355000Y-76235000D03*
%TO.P,U1,J3-8,IO19*%
%TO.N,GPIO_19*%
X170815000Y-76235000D03*
%TO.P,U1,J3-9,IO18*%
%TO.N,GPIO_18*%
X168275000Y-76235000D03*
%TO.P,U1,J3-10,IO5*%
%TO.N,GPIO_5*%
X165735000Y-76235000D03*
%TO.P,U1,J3-11,IO17*%
%TO.N,GPIO_17*%
X163195000Y-76235000D03*
%TO.P,U1,J3-12,IO16*%
%TO.N,GPIO_16*%
X160655000Y-76235000D03*
%TO.P,U1,J3-13,IO4*%
%TO.N,GPIO_4*%
X158115000Y-76235000D03*
%TO.P,U1,J3-14,IO0*%
%TO.N,unconnected-(U1-IO0-PadJ3-14)*%
X155575000Y-76235000D03*
%TO.P,U1,J3-15,IO2*%
%TO.N,GPIO_2*%
X153035000Y-76235000D03*
%TO.P,U1,J3-16,IO15*%
%TO.N,unconnected-(U1-IO15-PadJ3-16)*%
X150495000Y-76235000D03*
%TO.P,U1,J3-17,SD1*%
%TO.N,unconnected-(U1-SD1-PadJ3-17)*%
X147955000Y-76235000D03*
%TO.P,U1,J3-18,SD0*%
%TO.N,unconnected-(U1-SD0-PadJ3-18)*%
X145415000Y-76235000D03*
%TO.P,U1,J3-19,CLK*%
%TO.N,CLK*%
X142875000Y-76235000D03*
%TD*%
D26*
%TO.P,D1,1*%
%TO.N,+24V*%
X101100000Y-92721400D03*
%TO.P,D1,2*%
%TO.N,+VIN*%
X101100000Y-96963200D03*
%TD*%
D27*
%TO.P,C3,1*%
%TO.N,ESP_GND2*%
X128115000Y-82955000D03*
%TO.P,C3,2*%
%TO.N,-Vin*%
X131035000Y-82955000D03*
%TD*%
D22*
%TO.P,R14,1*%
%TO.N,GPIO_5*%
X122289000Y-95915000D03*
%TO.P,R14,2*%
%TO.N,ESP_GND2*%
X119301000Y-95915000D03*
%TD*%
D21*
%TO.P,R13,1*%
%TO.N,GPIO_17*%
X123685000Y-85719000D03*
%TO.P,R13,2*%
%TO.N,ESP_GND2*%
X123685000Y-82731000D03*
%TD*%
D28*
%TO.N,+VIN*%
X131285000Y-101235000D03*
%TO.N,+3.3V*%
X132435000Y-90435000D03*
%TO.N,GPIO_ANAG_34*%
X186385000Y-89535000D03*
%TO.N,+VOUT_esp_signal*%
X126590000Y-102320000D03*
X129530000Y-102330000D03*
%TO.N,GPIO_ANAG_35*%
X184735000Y-86235000D03*
%TO.N,GPIO_27*%
X115875000Y-100175000D03*
%TO.N,GPIO_5*%
X169585000Y-87685000D03*
X138755485Y-94414515D03*
%TO.N,GPIO_17*%
X168535000Y-86135000D03*
X129685000Y-91235000D03*
%TO.N,GPIO_16*%
X138335000Y-89985000D03*
X167435000Y-84635000D03*
%TO.N,GPIO_4*%
X131935000Y-94085000D03*
X166235000Y-93035000D03*
%TD*%
D29*
%TO.N,GPIO_ANAG_34*%
X191985000Y-79185000D02*
X191985000Y-73330000D01*
X191985000Y-73330000D02*
X120012500Y-73330000D01*
X188535000Y-79185000D02*
X191985000Y-79185000D01*
X186685000Y-81035000D02*
X188535000Y-79185000D01*
X120012500Y-73330000D02*
X116620000Y-76722500D01*
X186685000Y-89235000D02*
X186685000Y-81035000D01*
X186385000Y-89535000D02*
X186685000Y-89235000D01*
D30*
%TO.N,+VOUT_esp_signal*%
X128740000Y-102330000D02*
X129530000Y-102330000D01*
X127665000Y-102335000D02*
X128735000Y-102335000D01*
X128735000Y-102335000D02*
X128740000Y-102330000D01*
X126600000Y-102330000D02*
X127660000Y-102330000D01*
X127660000Y-102330000D02*
X127665000Y-102335000D01*
X126590000Y-102320000D02*
X126600000Y-102330000D01*
D31*
%TO.N,+VIN*%
X104410000Y-94810000D02*
X107385000Y-91835000D01*
X104410000Y-96960500D02*
X104410000Y-94810000D01*
X101895000Y-82070000D02*
X98278200Y-82070000D01*
X107385000Y-87560000D02*
X101895000Y-82070000D01*
X98278200Y-82070000D02*
X98250000Y-82041800D01*
X107385000Y-91835000D02*
X107385000Y-87560000D01*
X101102700Y-96960500D02*
X104410000Y-96960500D01*
X101100000Y-96963200D02*
X101102700Y-96960500D01*
D29*
%TO.N,ESP_GND2*%
X118415000Y-97373402D02*
X118415000Y-101335000D01*
X115134998Y-94093400D02*
X118415000Y-97373402D01*
D31*
%TO.N,+24V*%
X101100000Y-92721400D02*
X101100000Y-86921400D01*
X101050000Y-86871400D02*
X98200000Y-86871400D01*
X101150000Y-86871400D02*
X104100000Y-86871400D01*
D29*
X101160000Y-87910500D02*
X101210000Y-87860500D01*
X101160000Y-87910500D02*
X101110000Y-87860500D01*
%TO.N,+3.3V*%
X132435000Y-91985000D02*
X133685000Y-93235000D01*
X188595000Y-99795000D02*
X184035000Y-95235000D01*
X132185000Y-90435000D02*
X129385000Y-93235000D01*
X180025000Y-92057500D02*
X177485000Y-92057500D01*
X183202500Y-95235000D02*
X180025000Y-92057500D01*
X129385000Y-93235000D02*
X126761400Y-93235000D01*
X132435000Y-90435000D02*
X132185000Y-90435000D01*
X188595000Y-101635000D02*
X188595000Y-99795000D01*
X133685000Y-93235000D02*
X136108600Y-93235000D01*
X132435000Y-90435000D02*
X132435000Y-91985000D01*
X177485000Y-92057500D02*
X174945000Y-92057500D01*
X184035000Y-95235000D02*
X183202500Y-95235000D01*
D32*
%TO.N,+VOUT_esp_signal*%
X106085000Y-81185000D02*
X106085000Y-74735000D01*
X109125000Y-84225000D02*
X106085000Y-81185000D01*
D29*
X111835000Y-89216600D02*
X109146600Y-89216600D01*
D32*
X114080000Y-75580000D02*
X114080000Y-76722500D01*
X106085000Y-74735000D02*
X113235000Y-74735000D01*
X113235000Y-74735000D02*
X114080000Y-75580000D01*
X107236066Y-101941250D02*
X109125000Y-100052316D01*
X109125000Y-100052316D02*
X109125000Y-89195000D01*
X109125000Y-89195000D02*
X109125000Y-84225000D01*
D29*
X109146600Y-89216600D02*
X109125000Y-89195000D01*
%TO.N,GPIO_ANAG_35*%
X184735000Y-80235000D02*
X186685000Y-78285000D01*
X184735000Y-86235000D02*
X184735000Y-80235000D01*
X190785000Y-74085000D02*
X122465000Y-74085000D01*
X122465000Y-74085000D02*
X121700000Y-74850000D01*
X121700000Y-74850000D02*
X121700000Y-76722500D01*
X186685000Y-78285000D02*
X190785000Y-78285000D01*
X190785000Y-78285000D02*
X190785000Y-74085000D01*
%TO.N,GPIO_13*%
X124240000Y-75280000D02*
X124785000Y-74735000D01*
X124240000Y-76722500D02*
X124240000Y-75280000D01*
X153035000Y-98185000D02*
X153035000Y-101635000D01*
X145035000Y-82035000D02*
X163335000Y-82035000D01*
X124785000Y-74735000D02*
X137735000Y-74735000D01*
X154285000Y-96935000D02*
X153035000Y-98185000D01*
X163885000Y-94835000D02*
X161785000Y-96935000D01*
X163885000Y-82585000D02*
X163885000Y-94835000D01*
X161785000Y-96935000D02*
X154285000Y-96935000D01*
X163335000Y-82035000D02*
X163885000Y-82585000D01*
X137735000Y-74735000D02*
X145035000Y-82035000D01*
%TO.N,GPIO_27*%
X115134998Y-89216600D02*
X115134998Y-85397498D01*
X115875000Y-100175000D02*
X114891000Y-99191000D01*
X114891000Y-99191000D02*
X114891000Y-97895000D01*
X115134998Y-85397498D02*
X109000000Y-79262500D01*
%TO.N,Net-(LED1-DIN)*%
X111959000Y-97895000D02*
X111959000Y-94217400D01*
X111959000Y-94217400D02*
X111835000Y-94093400D01*
%TO.N,GPIO_5*%
X169585000Y-87685000D02*
X169585000Y-79035000D01*
X166822500Y-77335000D02*
X165335000Y-75847500D01*
X169585000Y-79035000D02*
X167885000Y-77335000D01*
X167885000Y-77335000D02*
X166822500Y-77335000D01*
X138755485Y-94414515D02*
X137395000Y-95775000D01*
X137395000Y-95775000D02*
X136108600Y-95775000D01*
X133988600Y-97895000D02*
X136108600Y-95775000D01*
X124269000Y-97895000D02*
X133988600Y-97895000D01*
X122289000Y-95915000D02*
X124269000Y-97895000D01*
%TO.N,GPIO_17*%
X123685000Y-85719000D02*
X123685000Y-87618600D01*
X168535000Y-86135000D02*
X168535000Y-79385000D01*
X168535000Y-79385000D02*
X167235000Y-78085000D01*
X167235000Y-78085000D02*
X165032500Y-78085000D01*
X123685000Y-87618600D02*
X126761400Y-90695000D01*
X126761400Y-90695000D02*
X129145000Y-90695000D01*
X129145000Y-90695000D02*
X129685000Y-91235000D01*
X165032500Y-78085000D02*
X162795000Y-75847500D01*
%TO.N,GPIO_16*%
X139665000Y-91315000D02*
X138335000Y-89985000D01*
X136108600Y-90695000D02*
X137625000Y-90695000D01*
X166485000Y-78835000D02*
X163242500Y-78835000D01*
X125141000Y-98835000D02*
X135795000Y-98835000D01*
X135795000Y-98835000D02*
X139665000Y-94965000D01*
X139665000Y-94965000D02*
X139665000Y-91315000D01*
X123575000Y-100291000D02*
X123685000Y-100291000D01*
X137625000Y-90695000D02*
X138335000Y-89985000D01*
X123685000Y-100291000D02*
X125141000Y-98835000D01*
X167435000Y-84635000D02*
X167435000Y-79785000D01*
X167435000Y-79785000D02*
X166485000Y-78835000D01*
X163242500Y-78835000D02*
X160255000Y-75847500D01*
%TO.N,GPIO_4*%
X165885000Y-79885000D02*
X161752500Y-79885000D01*
X122289000Y-91302600D02*
X126761400Y-95775000D01*
X166235000Y-93035000D02*
X166235000Y-80235000D01*
X122289000Y-91035000D02*
X122289000Y-91302600D01*
X166235000Y-80235000D02*
X165885000Y-79885000D01*
X161752500Y-79885000D02*
X157715000Y-75847500D01*
X129095000Y-95775000D02*
X126761400Y-95775000D01*
X130785000Y-94085000D02*
X129095000Y-95775000D01*
X131935000Y-94085000D02*
X130785000Y-94085000D01*
%TO.N,GPIO_18*%
X175432500Y-82385000D02*
X177485000Y-84437500D01*
X174412500Y-82385000D02*
X175432500Y-82385000D01*
X167875000Y-75847500D02*
X174412500Y-82385000D01*
%TO.N,GPIO_19*%
X178785000Y-80735000D02*
X180025000Y-81975000D01*
X175302500Y-80735000D02*
X178785000Y-80735000D01*
X180025000Y-81975000D02*
X180025000Y-84437500D01*
X170415000Y-75847500D02*
X175302500Y-80735000D01*
%TO.N,GPIO_14*%
X174945000Y-87345000D02*
X160655000Y-101635000D01*
X174945000Y-84437500D02*
X174945000Y-87345000D01*
%TD*%
%TA.AperFunction,Conductor*%
%TO.N,-Vin*%
G36*
X133577958Y-77994200D02*
G01*
X133623713Y-78047004D01*
X133634919Y-78098515D01*
X133634919Y-81035102D01*
X138962329Y-81044303D01*
X139029335Y-81064104D01*
X139074998Y-81116986D01*
X139086109Y-81167099D01*
X139104202Y-83030673D01*
X139104202Y-83030672D01*
X139104203Y-83030674D01*
X162169960Y-82936528D01*
X162237079Y-82955939D01*
X162283049Y-83008556D01*
X162294466Y-83060527D01*
X162294466Y-87646253D01*
X162274781Y-87713292D01*
X162221977Y-87759047D01*
X162170300Y-87770253D01*
X130871673Y-87728313D01*
X130804660Y-87708539D01*
X130758976Y-87655673D01*
X130747851Y-87602582D01*
X130754814Y-87103865D01*
X130770343Y-85991530D01*
X132604500Y-85991530D01*
X132604500Y-86198469D01*
X132629928Y-86326302D01*
X132644870Y-86401420D01*
X132724059Y-86592598D01*
X132737836Y-86613217D01*
X132839024Y-86764657D01*
X132985342Y-86910975D01*
X132985345Y-86910977D01*
X133157402Y-87025941D01*
X133348580Y-87105130D01*
X133551530Y-87145499D01*
X133551534Y-87145500D01*
X133551535Y-87145500D01*
X133758466Y-87145500D01*
X133758467Y-87145499D01*
X133961420Y-87105130D01*
X134152598Y-87025941D01*
X134324655Y-86910977D01*
X134470977Y-86764655D01*
X134585941Y-86592598D01*
X134654165Y-86427889D01*
X134698004Y-86373488D01*
X134764298Y-86351423D01*
X134831998Y-86368702D01*
X134879609Y-86419839D01*
X134886656Y-86437026D01*
X134943904Y-86613216D01*
X135040375Y-86802550D01*
X135079728Y-86856716D01*
X135795000Y-86141445D01*
X135795000Y-86147661D01*
X135822259Y-86249394D01*
X135874920Y-86340606D01*
X135949394Y-86415080D01*
X136040606Y-86467741D01*
X136142339Y-86495000D01*
X136148554Y-86495000D01*
X135433282Y-87210269D01*
X135433282Y-87210270D01*
X135487449Y-87249624D01*
X135676782Y-87346095D01*
X135878870Y-87411757D01*
X136088754Y-87445000D01*
X136301246Y-87445000D01*
X136511127Y-87411757D01*
X136511130Y-87411757D01*
X136713217Y-87346095D01*
X136902554Y-87249622D01*
X136956716Y-87210270D01*
X136956717Y-87210270D01*
X136241446Y-86495000D01*
X136247661Y-86495000D01*
X136349394Y-86467741D01*
X136440606Y-86415080D01*
X136515080Y-86340606D01*
X136567741Y-86249394D01*
X136595000Y-86147661D01*
X136595000Y-86141446D01*
X137310270Y-86856717D01*
X137310270Y-86856716D01*
X137349622Y-86802554D01*
X137355723Y-86790581D01*
X137355723Y-86790580D01*
X137355724Y-86790579D01*
X137446095Y-86613217D01*
X137511757Y-86411130D01*
X137511757Y-86411127D01*
X137545000Y-86201246D01*
X137545000Y-85988753D01*
X137511758Y-85778873D01*
X137510822Y-85775993D01*
X137510821Y-85775991D01*
X137510821Y-85775989D01*
X137499954Y-85742543D01*
X146812919Y-85742543D01*
X146812919Y-85941186D01*
X146843994Y-86137385D01*
X146843994Y-86137388D01*
X146905376Y-86326302D01*
X146995560Y-86503297D01*
X147022649Y-86540580D01*
X147022650Y-86540581D01*
X147585423Y-85977807D01*
X147601538Y-86037946D01*
X147668417Y-86153785D01*
X147762999Y-86248367D01*
X147878838Y-86315246D01*
X147938976Y-86331359D01*
X147376202Y-86894133D01*
X147376202Y-86894134D01*
X147413486Y-86921223D01*
X147590481Y-87011407D01*
X147779396Y-87072789D01*
X147975598Y-87103865D01*
X148174240Y-87103865D01*
X148370439Y-87072789D01*
X148370442Y-87072789D01*
X148559356Y-87011407D01*
X148736344Y-86921227D01*
X148773635Y-86894133D01*
X148210861Y-86331359D01*
X148271000Y-86315246D01*
X148386839Y-86248367D01*
X148481421Y-86153785D01*
X148548300Y-86037946D01*
X148564414Y-85977807D01*
X149127187Y-86540580D01*
X149154281Y-86503290D01*
X149244461Y-86326302D01*
X149305843Y-86137388D01*
X149305843Y-86137385D01*
X149336919Y-85941186D01*
X149336919Y-85742543D01*
X158812919Y-85742543D01*
X158812919Y-85941186D01*
X158843994Y-86137385D01*
X158843994Y-86137388D01*
X158905376Y-86326302D01*
X158995560Y-86503297D01*
X159022649Y-86540580D01*
X159022650Y-86540581D01*
X159585423Y-85977807D01*
X159601538Y-86037946D01*
X159668417Y-86153785D01*
X159762999Y-86248367D01*
X159878838Y-86315246D01*
X159938976Y-86331359D01*
X159376202Y-86894133D01*
X159376202Y-86894134D01*
X159413486Y-86921223D01*
X159590481Y-87011407D01*
X159779396Y-87072789D01*
X159975598Y-87103865D01*
X160174240Y-87103865D01*
X160370439Y-87072789D01*
X160370442Y-87072789D01*
X160559356Y-87011407D01*
X160736344Y-86921227D01*
X160773635Y-86894133D01*
X160210861Y-86331359D01*
X160271000Y-86315246D01*
X160386839Y-86248367D01*
X160481421Y-86153785D01*
X160548300Y-86037946D01*
X160564414Y-85977807D01*
X161127187Y-86540580D01*
X161154281Y-86503290D01*
X161244461Y-86326302D01*
X161305843Y-86137388D01*
X161305843Y-86137385D01*
X161336919Y-85941186D01*
X161336919Y-85742543D01*
X161305843Y-85546344D01*
X161305843Y-85546341D01*
X161244461Y-85357427D01*
X161154277Y-85180432D01*
X161127187Y-85143148D01*
X160564413Y-85705922D01*
X160548300Y-85645784D01*
X160481421Y-85529945D01*
X160386839Y-85435363D01*
X160271000Y-85368484D01*
X160210861Y-85352369D01*
X160773635Y-84789596D01*
X160773634Y-84789595D01*
X160736351Y-84762506D01*
X160559356Y-84672322D01*
X160370441Y-84610940D01*
X160174240Y-84579865D01*
X159975598Y-84579865D01*
X159779398Y-84610940D01*
X159779395Y-84610940D01*
X159590481Y-84672322D01*
X159413483Y-84762508D01*
X159376202Y-84789594D01*
X159376201Y-84789595D01*
X159938977Y-85352369D01*
X159878838Y-85368484D01*
X159762999Y-85435363D01*
X159668417Y-85529945D01*
X159601538Y-85645784D01*
X159585423Y-85705922D01*
X159022649Y-85143147D01*
X159022648Y-85143148D01*
X158995562Y-85180429D01*
X158905376Y-85357427D01*
X158843994Y-85546341D01*
X158843994Y-85546344D01*
X158812919Y-85742543D01*
X149336919Y-85742543D01*
X149305843Y-85546344D01*
X149305843Y-85546341D01*
X149244461Y-85357427D01*
X149154277Y-85180432D01*
X149127187Y-85143148D01*
X148564413Y-85705922D01*
X148548300Y-85645784D01*
X148481421Y-85529945D01*
X148386839Y-85435363D01*
X148271000Y-85368484D01*
X148210861Y-85352369D01*
X148773635Y-84789596D01*
X148773634Y-84789595D01*
X148736351Y-84762506D01*
X148559356Y-84672322D01*
X148370441Y-84610940D01*
X148174240Y-84579865D01*
X147975598Y-84579865D01*
X147779398Y-84610940D01*
X147779395Y-84610940D01*
X147590481Y-84672322D01*
X147413483Y-84762508D01*
X147376202Y-84789594D01*
X147376201Y-84789595D01*
X147938977Y-85352369D01*
X147878838Y-85368484D01*
X147762999Y-85435363D01*
X147668417Y-85529945D01*
X147601538Y-85645784D01*
X147585423Y-85705922D01*
X147022649Y-85143147D01*
X147022648Y-85143148D01*
X146995562Y-85180429D01*
X146905376Y-85357427D01*
X146843994Y-85546341D01*
X146843994Y-85546344D01*
X146812919Y-85742543D01*
X137499954Y-85742543D01*
X137446095Y-85576782D01*
X137349624Y-85387449D01*
X137310270Y-85333282D01*
X137310269Y-85333282D01*
X136595000Y-86048552D01*
X136595000Y-86042339D01*
X136567741Y-85940606D01*
X136515080Y-85849394D01*
X136440606Y-85774920D01*
X136349394Y-85722259D01*
X136247661Y-85695000D01*
X136241447Y-85695000D01*
X136956716Y-84979728D01*
X136902550Y-84940375D01*
X136713217Y-84843904D01*
X136511129Y-84778242D01*
X136301246Y-84745000D01*
X136088754Y-84745000D01*
X135878872Y-84778242D01*
X135878869Y-84778242D01*
X135676782Y-84843904D01*
X135487439Y-84940380D01*
X135433282Y-84979727D01*
X135433282Y-84979728D01*
X136148554Y-85695000D01*
X136142339Y-85695000D01*
X136040606Y-85722259D01*
X135949394Y-85774920D01*
X135874920Y-85849394D01*
X135822259Y-85940606D01*
X135795000Y-86042339D01*
X135795000Y-86048554D01*
X135079728Y-85333282D01*
X135079727Y-85333282D01*
X135040380Y-85387439D01*
X134943905Y-85576781D01*
X134886656Y-85752974D01*
X134847218Y-85810649D01*
X134782859Y-85837847D01*
X134714013Y-85825932D01*
X134662537Y-85778688D01*
X134654164Y-85762107D01*
X134646060Y-85742543D01*
X134605982Y-85645784D01*
X134585943Y-85597405D01*
X134470975Y-85425342D01*
X134324657Y-85279024D01*
X134177102Y-85180432D01*
X134152598Y-85164059D01*
X133961420Y-85084870D01*
X133961412Y-85084868D01*
X133758469Y-85044500D01*
X133758465Y-85044500D01*
X133551535Y-85044500D01*
X133551530Y-85044500D01*
X133348587Y-85084868D01*
X133348579Y-85084870D01*
X133157403Y-85164058D01*
X132985342Y-85279024D01*
X132839024Y-85425342D01*
X132724058Y-85597403D01*
X132644870Y-85788579D01*
X132644868Y-85788587D01*
X132604500Y-85991530D01*
X130770343Y-85991530D01*
X130785381Y-84914415D01*
X130785380Y-84914415D01*
X130785683Y-84892747D01*
X130778598Y-84879704D01*
X130775835Y-84851806D01*
X130782187Y-84417373D01*
X130785000Y-84408287D01*
X130785000Y-84365000D01*
X131285000Y-84365000D01*
X131682828Y-84365000D01*
X131682844Y-84364999D01*
X131742372Y-84358598D01*
X131742379Y-84358596D01*
X131877086Y-84308354D01*
X131877093Y-84308350D01*
X131992187Y-84222190D01*
X131992190Y-84222187D01*
X132078350Y-84107093D01*
X132078354Y-84107086D01*
X132128596Y-83972379D01*
X132128598Y-83972372D01*
X132134999Y-83912844D01*
X132135000Y-83912827D01*
X132135000Y-83205000D01*
X131285000Y-83205000D01*
X131285000Y-84365000D01*
X130785000Y-84365000D01*
X130785000Y-84224974D01*
X130807222Y-82705000D01*
X131285000Y-82705000D01*
X132135000Y-82705000D01*
X132135000Y-81997172D01*
X132134999Y-81997155D01*
X132128598Y-81937627D01*
X132128596Y-81937620D01*
X132078354Y-81802913D01*
X132078350Y-81802906D01*
X131992190Y-81687812D01*
X131992187Y-81687809D01*
X131877093Y-81601649D01*
X131877086Y-81601645D01*
X131742379Y-81551403D01*
X131742372Y-81551401D01*
X131682844Y-81545000D01*
X131285000Y-81545000D01*
X131285000Y-82705000D01*
X130807222Y-82705000D01*
X130824919Y-81494515D01*
X130785000Y-81494515D01*
X130538919Y-81494515D01*
X130471880Y-81474830D01*
X130426125Y-81422026D01*
X130414919Y-81370515D01*
X130414919Y-80138515D01*
X130434604Y-80071476D01*
X130487408Y-80025721D01*
X130538919Y-80014515D01*
X130768256Y-80014515D01*
X130783235Y-80007892D01*
X130801530Y-80007414D01*
X131358657Y-79450287D01*
X131367447Y-79483091D01*
X131442687Y-79613409D01*
X131549091Y-79719813D01*
X131679409Y-79795053D01*
X131712211Y-79803842D01*
X131155822Y-80360230D01*
X131155822Y-80360231D01*
X131205285Y-80396169D01*
X131391179Y-80490887D01*
X131589610Y-80555362D01*
X131795676Y-80588000D01*
X132004324Y-80588000D01*
X132210389Y-80555362D01*
X132408820Y-80490887D01*
X132594709Y-80396172D01*
X132644176Y-80360230D01*
X132087788Y-79803842D01*
X132120591Y-79795053D01*
X132250909Y-79719813D01*
X132357313Y-79613409D01*
X132432553Y-79483091D01*
X132441342Y-79450288D01*
X132997730Y-80006676D01*
X133033672Y-79957209D01*
X133128387Y-79771320D01*
X133192862Y-79572889D01*
X133225500Y-79366824D01*
X133225500Y-79158175D01*
X133192862Y-78952110D01*
X133128387Y-78753679D01*
X133033669Y-78567785D01*
X132997730Y-78518322D01*
X132441342Y-79074710D01*
X132432553Y-79041909D01*
X132357313Y-78911591D01*
X132250909Y-78805187D01*
X132120591Y-78729947D01*
X132087787Y-78721157D01*
X132644176Y-78164768D01*
X132639728Y-78108243D01*
X132654093Y-78039866D01*
X132703144Y-77990110D01*
X132763346Y-77974515D01*
X133510919Y-77974515D01*
X133577958Y-77994200D01*
G37*
%TD.AperFunction*%
%TD*%
%TA.AperFunction,Conductor*%
%TO.N,+VIN*%
G36*
X162177414Y-89687225D02*
G01*
X162223191Y-89740010D01*
X162234417Y-89791041D01*
X162249374Y-93311081D01*
X162229974Y-93378204D01*
X162177365Y-93424182D01*
X162125297Y-93435608D01*
X146320983Y-93425700D01*
X146309667Y-93425693D01*
X146309666Y-93425693D01*
X146292899Y-97735000D01*
X146285796Y-99560651D01*
X146285481Y-99641482D01*
X146265536Y-99708445D01*
X146212554Y-99753994D01*
X146161482Y-99765000D01*
X140807039Y-99765000D01*
X140799054Y-100627439D01*
X140781359Y-102538449D01*
X140761054Y-102605303D01*
X140707829Y-102650567D01*
X140657746Y-102661300D01*
X134482121Y-102680301D01*
X134415021Y-102660823D01*
X134369104Y-102608160D01*
X134358947Y-102539033D01*
X134387777Y-102475388D01*
X134408854Y-102455984D01*
X134416716Y-102450271D01*
X134416717Y-102450270D01*
X133701446Y-101735000D01*
X133707661Y-101735000D01*
X133809394Y-101707741D01*
X133900606Y-101655080D01*
X133975080Y-101580606D01*
X134027741Y-101489394D01*
X134055000Y-101387661D01*
X134055000Y-101381447D01*
X134770270Y-102096717D01*
X134770270Y-102096716D01*
X134809622Y-102042554D01*
X134906095Y-101853217D01*
X134963343Y-101677026D01*
X135002780Y-101619351D01*
X135067139Y-101592152D01*
X135135985Y-101604066D01*
X135187461Y-101651310D01*
X135195835Y-101667891D01*
X135264058Y-101832596D01*
X135379024Y-102004657D01*
X135525342Y-102150975D01*
X135525345Y-102150977D01*
X135697402Y-102265941D01*
X135888580Y-102345130D01*
X136091530Y-102385499D01*
X136091534Y-102385500D01*
X136091535Y-102385500D01*
X136298466Y-102385500D01*
X136298467Y-102385499D01*
X136501420Y-102345130D01*
X136692598Y-102265941D01*
X136864655Y-102150977D01*
X137010977Y-102004655D01*
X137125941Y-101832598D01*
X137205130Y-101641420D01*
X137245500Y-101438465D01*
X137245500Y-101231535D01*
X137205130Y-101028580D01*
X137125941Y-100837402D01*
X137010977Y-100665345D01*
X137010975Y-100665342D01*
X136864657Y-100519024D01*
X136778626Y-100461541D01*
X136692598Y-100404059D01*
X136501420Y-100324870D01*
X136501412Y-100324868D01*
X136298469Y-100284500D01*
X136298465Y-100284500D01*
X136091535Y-100284500D01*
X136091530Y-100284500D01*
X135888587Y-100324868D01*
X135888579Y-100324870D01*
X135697403Y-100404058D01*
X135525342Y-100519024D01*
X135379024Y-100665342D01*
X135264057Y-100837403D01*
X135195835Y-101002108D01*
X135151994Y-101056511D01*
X135085700Y-101078576D01*
X135018000Y-101061297D01*
X134970390Y-101010159D01*
X134963343Y-100992973D01*
X134906095Y-100816782D01*
X134809624Y-100627449D01*
X134770270Y-100573282D01*
X134770269Y-100573282D01*
X134055000Y-101288552D01*
X134055000Y-101282339D01*
X134027741Y-101180606D01*
X133975080Y-101089394D01*
X133900606Y-101014920D01*
X133809394Y-100962259D01*
X133707661Y-100935000D01*
X133701447Y-100935000D01*
X134416716Y-100219728D01*
X134362550Y-100180375D01*
X134173217Y-100083904D01*
X133971129Y-100018242D01*
X133761246Y-99985000D01*
X133548754Y-99985000D01*
X133338872Y-100018242D01*
X133338869Y-100018242D01*
X133136782Y-100083904D01*
X132947439Y-100180380D01*
X132893282Y-100219727D01*
X132893282Y-100219728D01*
X133608554Y-100935000D01*
X133602339Y-100935000D01*
X133500606Y-100962259D01*
X133409394Y-101014920D01*
X133334920Y-101089394D01*
X133282259Y-101180606D01*
X133255000Y-101282339D01*
X133255000Y-101288554D01*
X132539728Y-100573282D01*
X132539727Y-100573282D01*
X132500380Y-100627439D01*
X132403904Y-100816782D01*
X132338242Y-101018869D01*
X132338242Y-101018872D01*
X132305000Y-101228753D01*
X132305000Y-101441246D01*
X132338242Y-101651127D01*
X132338242Y-101651130D01*
X132403904Y-101853217D01*
X132500375Y-102042550D01*
X132539728Y-102096716D01*
X133255000Y-101381445D01*
X133255000Y-101387661D01*
X133282259Y-101489394D01*
X133334920Y-101580606D01*
X133409394Y-101655080D01*
X133500606Y-101707741D01*
X133602339Y-101735000D01*
X133608554Y-101735000D01*
X132893282Y-102450269D01*
X132893282Y-102450271D01*
X132908118Y-102461050D01*
X132950784Y-102516379D01*
X132956763Y-102585993D01*
X132924158Y-102647788D01*
X132863319Y-102682145D01*
X132835615Y-102685367D01*
X130781136Y-102691688D01*
X130714036Y-102672210D01*
X130668119Y-102619547D01*
X130656756Y-102566952D01*
X130674269Y-99627569D01*
X130694353Y-99560651D01*
X130747428Y-99515212D01*
X130797570Y-99504313D01*
X138075017Y-99463543D01*
X138093582Y-97866873D01*
X138114045Y-97800069D01*
X138167377Y-97754931D01*
X138217350Y-97744317D01*
X143435000Y-97735000D01*
X143472552Y-90543820D01*
X146812919Y-90543820D01*
X146812919Y-91103665D01*
X147632668Y-91103665D01*
X147601538Y-91157584D01*
X147566919Y-91286785D01*
X147566919Y-91420545D01*
X147601538Y-91549746D01*
X147632668Y-91603665D01*
X146812919Y-91603665D01*
X146812919Y-92163509D01*
X146819320Y-92223037D01*
X146819322Y-92223044D01*
X146869564Y-92357751D01*
X146869568Y-92357758D01*
X146955728Y-92472852D01*
X146955731Y-92472855D01*
X147070825Y-92559015D01*
X147070832Y-92559019D01*
X147205539Y-92609261D01*
X147205546Y-92609263D01*
X147265074Y-92615664D01*
X147265091Y-92615665D01*
X147824919Y-92615665D01*
X147824919Y-91795916D01*
X147878838Y-91827046D01*
X148008039Y-91861665D01*
X148141799Y-91861665D01*
X148271000Y-91827046D01*
X148324919Y-91795916D01*
X148324919Y-92615665D01*
X148884747Y-92615665D01*
X148884763Y-92615664D01*
X148944291Y-92609263D01*
X148944298Y-92609261D01*
X149079005Y-92559019D01*
X149079012Y-92559015D01*
X149194106Y-92472855D01*
X149194109Y-92472852D01*
X149280269Y-92357758D01*
X149280273Y-92357751D01*
X149330515Y-92223044D01*
X149330517Y-92223037D01*
X149336918Y-92163509D01*
X149336919Y-92163492D01*
X149336919Y-91603665D01*
X148517170Y-91603665D01*
X148548300Y-91549746D01*
X148582919Y-91420545D01*
X148582919Y-91286785D01*
X148548300Y-91157584D01*
X148517170Y-91103665D01*
X149336919Y-91103665D01*
X149336919Y-90543837D01*
X149336918Y-90543820D01*
X158812919Y-90543820D01*
X158812919Y-91103665D01*
X159632668Y-91103665D01*
X159601538Y-91157584D01*
X159566919Y-91286785D01*
X159566919Y-91420545D01*
X159601538Y-91549746D01*
X159632668Y-91603665D01*
X158812919Y-91603665D01*
X158812919Y-92163509D01*
X158819320Y-92223037D01*
X158819322Y-92223044D01*
X158869564Y-92357751D01*
X158869568Y-92357758D01*
X158955728Y-92472852D01*
X158955731Y-92472855D01*
X159070825Y-92559015D01*
X159070832Y-92559019D01*
X159205539Y-92609261D01*
X159205546Y-92609263D01*
X159265074Y-92615664D01*
X159265091Y-92615665D01*
X159824919Y-92615665D01*
X159824919Y-91795916D01*
X159878838Y-91827046D01*
X160008039Y-91861665D01*
X160141799Y-91861665D01*
X160271000Y-91827046D01*
X160324919Y-91795916D01*
X160324919Y-92615665D01*
X160884747Y-92615665D01*
X160884763Y-92615664D01*
X160944291Y-92609263D01*
X160944298Y-92609261D01*
X161079005Y-92559019D01*
X161079012Y-92559015D01*
X161194106Y-92472855D01*
X161194109Y-92472852D01*
X161280269Y-92357758D01*
X161280273Y-92357751D01*
X161330515Y-92223044D01*
X161330517Y-92223037D01*
X161336918Y-92163509D01*
X161336919Y-92163492D01*
X161336919Y-91603665D01*
X160517170Y-91603665D01*
X160548300Y-91549746D01*
X160582919Y-91420545D01*
X160582919Y-91286785D01*
X160548300Y-91157584D01*
X160517170Y-91103665D01*
X161336919Y-91103665D01*
X161336919Y-90543837D01*
X161336918Y-90543820D01*
X161330517Y-90484292D01*
X161330515Y-90484285D01*
X161280273Y-90349578D01*
X161280269Y-90349571D01*
X161194109Y-90234477D01*
X161194106Y-90234474D01*
X161079012Y-90148314D01*
X161079005Y-90148310D01*
X160944298Y-90098068D01*
X160944291Y-90098066D01*
X160884763Y-90091665D01*
X160324919Y-90091665D01*
X160324919Y-90911413D01*
X160271000Y-90880284D01*
X160141799Y-90845665D01*
X160008039Y-90845665D01*
X159878838Y-90880284D01*
X159824919Y-90911413D01*
X159824919Y-90091665D01*
X159265074Y-90091665D01*
X159205546Y-90098066D01*
X159205539Y-90098068D01*
X159070832Y-90148310D01*
X159070825Y-90148314D01*
X158955731Y-90234474D01*
X158955728Y-90234477D01*
X158869568Y-90349571D01*
X158869564Y-90349578D01*
X158819322Y-90484285D01*
X158819320Y-90484292D01*
X158812919Y-90543820D01*
X149336918Y-90543820D01*
X149330517Y-90484292D01*
X149330515Y-90484285D01*
X149280273Y-90349578D01*
X149280269Y-90349571D01*
X149194109Y-90234477D01*
X149194106Y-90234474D01*
X149079012Y-90148314D01*
X149079005Y-90148310D01*
X148944298Y-90098068D01*
X148944291Y-90098066D01*
X148884763Y-90091665D01*
X148324919Y-90091665D01*
X148324919Y-90911413D01*
X148271000Y-90880284D01*
X148141799Y-90845665D01*
X148008039Y-90845665D01*
X147878838Y-90880284D01*
X147824919Y-90911413D01*
X147824919Y-90091665D01*
X147265074Y-90091665D01*
X147205546Y-90098066D01*
X147205539Y-90098068D01*
X147070832Y-90148310D01*
X147070825Y-90148314D01*
X146955731Y-90234474D01*
X146955728Y-90234477D01*
X146869568Y-90349571D01*
X146869564Y-90349578D01*
X146819322Y-90484285D01*
X146819320Y-90484292D01*
X146812919Y-90543820D01*
X143472552Y-90543820D01*
X143476444Y-89798547D01*
X143496478Y-89731612D01*
X143549520Y-89686133D01*
X143600390Y-89675195D01*
X162110370Y-89667568D01*
X162177414Y-89687225D01*
G37*
%TD.AperFunction*%
%TD*%
%TA.AperFunction,Conductor*%
%TO.N,ESP_GND2*%
G36*
X129360993Y-81064635D02*
G01*
X129427972Y-81084516D01*
X129473572Y-81137454D01*
X129484626Y-81189008D01*
X129465330Y-87589604D01*
X129445444Y-87656584D01*
X129392502Y-87702179D01*
X129340918Y-87713229D01*
X124276847Y-87696342D01*
X124247626Y-87687656D01*
X124217833Y-87681175D01*
X124212571Y-87677236D01*
X124209873Y-87676434D01*
X124189579Y-87660024D01*
X124048819Y-87519264D01*
X124015334Y-87457941D01*
X124012500Y-87431583D01*
X124012500Y-86628500D01*
X124032185Y-86561461D01*
X124084989Y-86515706D01*
X124136500Y-86504500D01*
X124589750Y-86504500D01*
X124589751Y-86504499D01*
X124604568Y-86501552D01*
X124648229Y-86492868D01*
X124648229Y-86492867D01*
X124648231Y-86492867D01*
X124714552Y-86448552D01*
X124758867Y-86382231D01*
X124758867Y-86382229D01*
X124758868Y-86382229D01*
X124770499Y-86323752D01*
X124770500Y-86323750D01*
X124770500Y-85114249D01*
X124770499Y-85114247D01*
X124758868Y-85055770D01*
X124758867Y-85055769D01*
X124714552Y-84989447D01*
X124648230Y-84945132D01*
X124648229Y-84945131D01*
X124589752Y-84933500D01*
X124589748Y-84933500D01*
X122780252Y-84933500D01*
X122780247Y-84933500D01*
X122721770Y-84945131D01*
X122721769Y-84945132D01*
X122655447Y-84989447D01*
X122611132Y-85055769D01*
X122611131Y-85055770D01*
X122599500Y-85114247D01*
X122599500Y-86323752D01*
X122611131Y-86382229D01*
X122611132Y-86382230D01*
X122655447Y-86448552D01*
X122721769Y-86492867D01*
X122721770Y-86492868D01*
X122780247Y-86504499D01*
X122780250Y-86504500D01*
X122780252Y-86504500D01*
X123233500Y-86504500D01*
X123300539Y-86524185D01*
X123346294Y-86576989D01*
X123357500Y-86628500D01*
X123357500Y-87568863D01*
X123337815Y-87635902D01*
X123285011Y-87681657D01*
X123233087Y-87692862D01*
X120875000Y-87685000D01*
X120924999Y-101784998D01*
X120925000Y-101785000D01*
X125446521Y-101786246D01*
X125513554Y-101805949D01*
X125559295Y-101858766D01*
X125570472Y-101908353D01*
X125586915Y-102985390D01*
X125586919Y-102988875D01*
X125586846Y-102994514D01*
X125586847Y-102994515D01*
X130723897Y-102994515D01*
X130728436Y-102995847D01*
X130774865Y-102995925D01*
X130774866Y-102995927D01*
X154017634Y-103035354D01*
X154049535Y-103035409D01*
X154049534Y-103035408D01*
X154049536Y-103035409D01*
X154032080Y-101534262D01*
X154295000Y-101534262D01*
X154295000Y-101735737D01*
X154326518Y-101934735D01*
X154388775Y-102126346D01*
X154388776Y-102126349D01*
X154480248Y-102305869D01*
X154509842Y-102346602D01*
X154509843Y-102346603D01*
X155075707Y-101780739D01*
X155090437Y-101835712D01*
X155158896Y-101954287D01*
X155255713Y-102051104D01*
X155374288Y-102119563D01*
X155429259Y-102134292D01*
X154863395Y-102700155D01*
X154904133Y-102729753D01*
X155083650Y-102821223D01*
X155083653Y-102821224D01*
X155275264Y-102883481D01*
X155474263Y-102915000D01*
X155675737Y-102915000D01*
X155874735Y-102883481D01*
X156066346Y-102821224D01*
X156066349Y-102821223D01*
X156245866Y-102729753D01*
X156286602Y-102700156D01*
X156286602Y-102700155D01*
X155720739Y-102134292D01*
X155775712Y-102119563D01*
X155894287Y-102051104D01*
X155991104Y-101954287D01*
X156059563Y-101835712D01*
X156074292Y-101780739D01*
X156640155Y-102346602D01*
X156640156Y-102346602D01*
X156669753Y-102305866D01*
X156761223Y-102126349D01*
X156761224Y-102126346D01*
X156823481Y-101934735D01*
X156855000Y-101735737D01*
X156855000Y-101534262D01*
X156823481Y-101335264D01*
X156761224Y-101143653D01*
X156761223Y-101143650D01*
X156669753Y-100964133D01*
X156640155Y-100923396D01*
X156640155Y-100923395D01*
X156074292Y-101489259D01*
X156059563Y-101434288D01*
X155991104Y-101315713D01*
X155894287Y-101218896D01*
X155775712Y-101150437D01*
X155720738Y-101135707D01*
X156286603Y-100569843D01*
X156286602Y-100569842D01*
X156245869Y-100540248D01*
X156066349Y-100448776D01*
X156066346Y-100448775D01*
X155874735Y-100386518D01*
X155675737Y-100355000D01*
X155474263Y-100355000D01*
X155275264Y-100386518D01*
X155083653Y-100448775D01*
X155083650Y-100448776D01*
X154904135Y-100540245D01*
X154904133Y-100540246D01*
X154863396Y-100569842D01*
X154863396Y-100569843D01*
X155429260Y-101135707D01*
X155374288Y-101150437D01*
X155255713Y-101218896D01*
X155158896Y-101315713D01*
X155090437Y-101434288D01*
X155075707Y-101489260D01*
X154509843Y-100923396D01*
X154509842Y-100923396D01*
X154480246Y-100964133D01*
X154480245Y-100964135D01*
X154388776Y-101143650D01*
X154388775Y-101143653D01*
X154326518Y-101335264D01*
X154295000Y-101534262D01*
X154032080Y-101534262D01*
X154011989Y-99806443D01*
X154030893Y-99739182D01*
X154083162Y-99692816D01*
X154133501Y-99681029D01*
X157091416Y-99621871D01*
X157158833Y-99640211D01*
X157205635Y-99692089D01*
X157217889Y-99744877D01*
X157229146Y-101185823D01*
X157219711Y-101234244D01*
X157172181Y-101348993D01*
X157172178Y-101349001D01*
X157134500Y-101538424D01*
X157134500Y-101731575D01*
X157172177Y-101920993D01*
X157172180Y-101921002D01*
X157226849Y-102052986D01*
X157236284Y-102099469D01*
X157243278Y-102994514D01*
X157251481Y-104044533D01*
X157232322Y-104111722D01*
X157179877Y-104157888D01*
X157127486Y-104169500D01*
X125058296Y-104169500D01*
X124991257Y-104149815D01*
X124945502Y-104097011D01*
X124935558Y-104027853D01*
X124942114Y-104002167D01*
X124953596Y-103971380D01*
X124953598Y-103971372D01*
X124959999Y-103911844D01*
X124960000Y-103911827D01*
X124960000Y-103529000D01*
X122190000Y-103529000D01*
X122190000Y-103911844D01*
X122196401Y-103971372D01*
X122196403Y-103971380D01*
X122207886Y-104002167D01*
X122212870Y-104071859D01*
X122179385Y-104133182D01*
X122118061Y-104166666D01*
X122091704Y-104169500D01*
X116813815Y-104169500D01*
X116746776Y-104149815D01*
X116701021Y-104097011D01*
X116689820Y-104044400D01*
X116704391Y-102401911D01*
X116709209Y-101858766D01*
X116714798Y-101228753D01*
X117065000Y-101228753D01*
X117065000Y-101441246D01*
X117098242Y-101651127D01*
X117098242Y-101651130D01*
X117163904Y-101853217D01*
X117260375Y-102042550D01*
X117299728Y-102096716D01*
X118015000Y-101381445D01*
X118015000Y-101387661D01*
X118042259Y-101489394D01*
X118094920Y-101580606D01*
X118169394Y-101655080D01*
X118260606Y-101707741D01*
X118362339Y-101735000D01*
X118368554Y-101735000D01*
X117653282Y-102450269D01*
X117653282Y-102450270D01*
X117707449Y-102489624D01*
X117896782Y-102586095D01*
X118098870Y-102651757D01*
X118308754Y-102685000D01*
X118521246Y-102685000D01*
X118731127Y-102651757D01*
X118731130Y-102651757D01*
X118748371Y-102646155D01*
X122190000Y-102646155D01*
X122190000Y-103029000D01*
X123325000Y-103029000D01*
X123825000Y-103029000D01*
X124960000Y-103029000D01*
X124960000Y-102646172D01*
X124959999Y-102646155D01*
X124953598Y-102586627D01*
X124953596Y-102586620D01*
X124903354Y-102451913D01*
X124903350Y-102451906D01*
X124817190Y-102336812D01*
X124817187Y-102336809D01*
X124702093Y-102250649D01*
X124702086Y-102250645D01*
X124567379Y-102200403D01*
X124567372Y-102200401D01*
X124507844Y-102194000D01*
X123825000Y-102194000D01*
X123825000Y-103029000D01*
X123325000Y-103029000D01*
X123325000Y-102194000D01*
X122642155Y-102194000D01*
X122582627Y-102200401D01*
X122582620Y-102200403D01*
X122447913Y-102250645D01*
X122447906Y-102250649D01*
X122332812Y-102336809D01*
X122332809Y-102336812D01*
X122246649Y-102451906D01*
X122246645Y-102451913D01*
X122196403Y-102586620D01*
X122196401Y-102586627D01*
X122190000Y-102646155D01*
X118748371Y-102646155D01*
X118933217Y-102586095D01*
X119038667Y-102532366D01*
X119122554Y-102489622D01*
X119176716Y-102450270D01*
X119176717Y-102450270D01*
X118461446Y-101735000D01*
X118467661Y-101735000D01*
X118569394Y-101707741D01*
X118660606Y-101655080D01*
X118735080Y-101580606D01*
X118787741Y-101489394D01*
X118815000Y-101387661D01*
X118815000Y-101381447D01*
X119530270Y-102096717D01*
X119530270Y-102096716D01*
X119569622Y-102042554D01*
X119666095Y-101853217D01*
X119731757Y-101651130D01*
X119731757Y-101651127D01*
X119765000Y-101441246D01*
X119765000Y-101228753D01*
X119731757Y-101018872D01*
X119731757Y-101018869D01*
X119666095Y-100816782D01*
X119569624Y-100627449D01*
X119530270Y-100573282D01*
X119530269Y-100573282D01*
X118815000Y-101288552D01*
X118815000Y-101282339D01*
X118787741Y-101180606D01*
X118735080Y-101089394D01*
X118660606Y-101014920D01*
X118569394Y-100962259D01*
X118467661Y-100935000D01*
X118461447Y-100935000D01*
X119176716Y-100219728D01*
X119122550Y-100180375D01*
X118933217Y-100083904D01*
X118731129Y-100018242D01*
X118521246Y-99985000D01*
X118308754Y-99985000D01*
X118098872Y-100018242D01*
X118098869Y-100018242D01*
X117896782Y-100083904D01*
X117707439Y-100180380D01*
X117653282Y-100219727D01*
X117653282Y-100219728D01*
X118368554Y-100935000D01*
X118362339Y-100935000D01*
X118260606Y-100962259D01*
X118169394Y-101014920D01*
X118094920Y-101089394D01*
X118042259Y-101180606D01*
X118015000Y-101282339D01*
X118015000Y-101288554D01*
X117299728Y-100573282D01*
X117299727Y-100573282D01*
X117260380Y-100627439D01*
X117163904Y-100816782D01*
X117098242Y-101018869D01*
X117098242Y-101018872D01*
X117065000Y-101228753D01*
X116714798Y-101228753D01*
X116741812Y-98183684D01*
X116753663Y-96847844D01*
X118216000Y-96847844D01*
X118222401Y-96907372D01*
X118222403Y-96907379D01*
X118272645Y-97042086D01*
X118272649Y-97042093D01*
X118358809Y-97157187D01*
X118358812Y-97157190D01*
X118473906Y-97243350D01*
X118473913Y-97243354D01*
X118608620Y-97293596D01*
X118608627Y-97293598D01*
X118668155Y-97299999D01*
X118668172Y-97300000D01*
X119051000Y-97300000D01*
X119551000Y-97300000D01*
X119933828Y-97300000D01*
X119933844Y-97299999D01*
X119993372Y-97293598D01*
X119993379Y-97293596D01*
X120128086Y-97243354D01*
X120128093Y-97243350D01*
X120243187Y-97157190D01*
X120243190Y-97157187D01*
X120329350Y-97042093D01*
X120329354Y-97042086D01*
X120379596Y-96907379D01*
X120379598Y-96907372D01*
X120385999Y-96847844D01*
X120386000Y-96847827D01*
X120386000Y-96165000D01*
X119551000Y-96165000D01*
X119551000Y-97300000D01*
X119051000Y-97300000D01*
X119051000Y-96165000D01*
X118216000Y-96165000D01*
X118216000Y-96847844D01*
X116753663Y-96847844D01*
X116760186Y-96112538D01*
X116770214Y-94982155D01*
X118216000Y-94982155D01*
X118216000Y-95665000D01*
X119051000Y-95665000D01*
X119551000Y-95665000D01*
X120386000Y-95665000D01*
X120386000Y-94982172D01*
X120385999Y-94982155D01*
X120379598Y-94922627D01*
X120379596Y-94922620D01*
X120329354Y-94787913D01*
X120329350Y-94787906D01*
X120243190Y-94672812D01*
X120243187Y-94672809D01*
X120128093Y-94586649D01*
X120128086Y-94586645D01*
X119993379Y-94536403D01*
X119993372Y-94536401D01*
X119933844Y-94530000D01*
X119551000Y-94530000D01*
X119551000Y-95665000D01*
X119051000Y-95665000D01*
X119051000Y-94530000D01*
X118668155Y-94530000D01*
X118608627Y-94536401D01*
X118608620Y-94536403D01*
X118473913Y-94586645D01*
X118473906Y-94586649D01*
X118358812Y-94672809D01*
X118358809Y-94672812D01*
X118272649Y-94787906D01*
X118272645Y-94787913D01*
X118222403Y-94922620D01*
X118222401Y-94922627D01*
X118216000Y-94982155D01*
X116770214Y-94982155D01*
X116770253Y-94977751D01*
X116796955Y-91967844D01*
X118216000Y-91967844D01*
X118222401Y-92027372D01*
X118222403Y-92027379D01*
X118272645Y-92162086D01*
X118272649Y-92162093D01*
X118358809Y-92277187D01*
X118358812Y-92277190D01*
X118473906Y-92363350D01*
X118473913Y-92363354D01*
X118608620Y-92413596D01*
X118608627Y-92413598D01*
X118668155Y-92419999D01*
X118668172Y-92420000D01*
X119051000Y-92420000D01*
X119551000Y-92420000D01*
X119933828Y-92420000D01*
X119933844Y-92419999D01*
X119993372Y-92413598D01*
X119993379Y-92413596D01*
X120128086Y-92363354D01*
X120128093Y-92363350D01*
X120243187Y-92277190D01*
X120243190Y-92277187D01*
X120329350Y-92162093D01*
X120329354Y-92162086D01*
X120379596Y-92027379D01*
X120379598Y-92027372D01*
X120385999Y-91967844D01*
X120386000Y-91967827D01*
X120386000Y-91285000D01*
X119551000Y-91285000D01*
X119551000Y-92420000D01*
X119051000Y-92420000D01*
X119051000Y-91285000D01*
X118216000Y-91285000D01*
X118216000Y-91967844D01*
X116796955Y-91967844D01*
X116803478Y-91232538D01*
X116813506Y-90102155D01*
X118216000Y-90102155D01*
X118216000Y-90785000D01*
X119051000Y-90785000D01*
X119551000Y-90785000D01*
X120386000Y-90785000D01*
X120386000Y-90102172D01*
X120385999Y-90102155D01*
X120379598Y-90042627D01*
X120379596Y-90042620D01*
X120329354Y-89907913D01*
X120329350Y-89907906D01*
X120243190Y-89792812D01*
X120243187Y-89792809D01*
X120128093Y-89706649D01*
X120128086Y-89706645D01*
X119993379Y-89656403D01*
X119993372Y-89656401D01*
X119933844Y-89650000D01*
X119551000Y-89650000D01*
X119551000Y-90785000D01*
X119051000Y-90785000D01*
X119051000Y-89650000D01*
X118668155Y-89650000D01*
X118608627Y-89656401D01*
X118608620Y-89656403D01*
X118473913Y-89706645D01*
X118473906Y-89706649D01*
X118358812Y-89792809D01*
X118358809Y-89792812D01*
X118272649Y-89907906D01*
X118272645Y-89907913D01*
X118222403Y-90042620D01*
X118222401Y-90042627D01*
X118216000Y-90102155D01*
X116813506Y-90102155D01*
X116813545Y-90097751D01*
X116844640Y-86592596D01*
X116849972Y-85991530D01*
X117364500Y-85991530D01*
X117364500Y-86198469D01*
X117404868Y-86401412D01*
X117404870Y-86401420D01*
X117484058Y-86592596D01*
X117599024Y-86764657D01*
X117745342Y-86910975D01*
X117745345Y-86910977D01*
X117917402Y-87025941D01*
X118108580Y-87105130D01*
X118311530Y-87145499D01*
X118311534Y-87145500D01*
X118311535Y-87145500D01*
X118518466Y-87145500D01*
X118518467Y-87145499D01*
X118721420Y-87105130D01*
X118912598Y-87025941D01*
X119084655Y-86910977D01*
X119230977Y-86764655D01*
X119345941Y-86592598D01*
X119425130Y-86401420D01*
X119465500Y-86198465D01*
X119465500Y-85991535D01*
X119425130Y-85788580D01*
X119345941Y-85597402D01*
X119230977Y-85425345D01*
X119230975Y-85425342D01*
X119084657Y-85279024D01*
X118998626Y-85221541D01*
X118912598Y-85164059D01*
X118721420Y-85084870D01*
X118721412Y-85084868D01*
X118518469Y-85044500D01*
X118518465Y-85044500D01*
X118311535Y-85044500D01*
X118311530Y-85044500D01*
X118108587Y-85084868D01*
X118108579Y-85084870D01*
X117917403Y-85164058D01*
X117745342Y-85279024D01*
X117599024Y-85425342D01*
X117484058Y-85597403D01*
X117404870Y-85788579D01*
X117404868Y-85788587D01*
X117364500Y-85991530D01*
X116849972Y-85991530D01*
X116868413Y-83912844D01*
X127015000Y-83912844D01*
X127021401Y-83972372D01*
X127021403Y-83972379D01*
X127071645Y-84107086D01*
X127071649Y-84107093D01*
X127157809Y-84222187D01*
X127157812Y-84222190D01*
X127272906Y-84308350D01*
X127272913Y-84308354D01*
X127407620Y-84358596D01*
X127407627Y-84358598D01*
X127467155Y-84364999D01*
X127467172Y-84365000D01*
X127865000Y-84365000D01*
X128365000Y-84365000D01*
X128762828Y-84365000D01*
X128762844Y-84364999D01*
X128822372Y-84358598D01*
X128822379Y-84358596D01*
X128957086Y-84308354D01*
X128957093Y-84308350D01*
X129072187Y-84222190D01*
X129072190Y-84222187D01*
X129158350Y-84107093D01*
X129158354Y-84107086D01*
X129208596Y-83972379D01*
X129208598Y-83972372D01*
X129214999Y-83912844D01*
X129215000Y-83912827D01*
X129215000Y-83205000D01*
X128365000Y-83205000D01*
X128365000Y-84365000D01*
X127865000Y-84365000D01*
X127865000Y-83205000D01*
X127015000Y-83205000D01*
X127015000Y-83912844D01*
X116868413Y-83912844D01*
X116873283Y-83363844D01*
X122300000Y-83363844D01*
X122306401Y-83423372D01*
X122306403Y-83423379D01*
X122356645Y-83558086D01*
X122356649Y-83558093D01*
X122442809Y-83673187D01*
X122442812Y-83673190D01*
X122557906Y-83759350D01*
X122557913Y-83759354D01*
X122692620Y-83809596D01*
X122692627Y-83809598D01*
X122752155Y-83815999D01*
X122752172Y-83816000D01*
X123435000Y-83816000D01*
X123935000Y-83816000D01*
X124617828Y-83816000D01*
X124617844Y-83815999D01*
X124677372Y-83809598D01*
X124677379Y-83809596D01*
X124812086Y-83759354D01*
X124812093Y-83759350D01*
X124927187Y-83673190D01*
X124927190Y-83673187D01*
X125013350Y-83558093D01*
X125013354Y-83558086D01*
X125063596Y-83423379D01*
X125063598Y-83423372D01*
X125069999Y-83363844D01*
X125070000Y-83363827D01*
X125070000Y-82981000D01*
X123935000Y-82981000D01*
X123935000Y-83816000D01*
X123435000Y-83816000D01*
X123435000Y-82981000D01*
X122300000Y-82981000D01*
X122300000Y-83363844D01*
X116873283Y-83363844D01*
X116884511Y-82098155D01*
X122300000Y-82098155D01*
X122300000Y-82481000D01*
X123435000Y-82481000D01*
X123935000Y-82481000D01*
X125070000Y-82481000D01*
X125070000Y-82098166D01*
X125069999Y-82098155D01*
X125063598Y-82038627D01*
X125063596Y-82038619D01*
X125063062Y-82037186D01*
X125063061Y-82037184D01*
X125048131Y-81997155D01*
X127015000Y-81997155D01*
X127015000Y-82705000D01*
X127865000Y-82705000D01*
X128365000Y-82705000D01*
X129215000Y-82705000D01*
X129215000Y-81997172D01*
X129214999Y-81997155D01*
X129208598Y-81937627D01*
X129208596Y-81937620D01*
X129158354Y-81802913D01*
X129158350Y-81802906D01*
X129072190Y-81687812D01*
X129072187Y-81687809D01*
X128957093Y-81601649D01*
X128957086Y-81601645D01*
X128822379Y-81551403D01*
X128822372Y-81551401D01*
X128762844Y-81545000D01*
X128365000Y-81545000D01*
X128365000Y-82705000D01*
X127865000Y-82705000D01*
X127865000Y-81545000D01*
X127467155Y-81545000D01*
X127407627Y-81551401D01*
X127407620Y-81551403D01*
X127272913Y-81601645D01*
X127272906Y-81601649D01*
X127157812Y-81687809D01*
X127157809Y-81687812D01*
X127071649Y-81802906D01*
X127071645Y-81802913D01*
X127021403Y-81937620D01*
X127021401Y-81937627D01*
X127015000Y-81997155D01*
X125048131Y-81997155D01*
X125013354Y-81903913D01*
X125013350Y-81903906D01*
X124927190Y-81788812D01*
X124927187Y-81788809D01*
X124812093Y-81702649D01*
X124812086Y-81702645D01*
X124677379Y-81652403D01*
X124677372Y-81652401D01*
X124617844Y-81646000D01*
X123935000Y-81646000D01*
X123935000Y-82481000D01*
X123435000Y-82481000D01*
X123435000Y-81646000D01*
X122752155Y-81646000D01*
X122692627Y-81652401D01*
X122692620Y-81652403D01*
X122557913Y-81702645D01*
X122557906Y-81702649D01*
X122442812Y-81788809D01*
X122442809Y-81788812D01*
X122356649Y-81903906D01*
X122356645Y-81903913D01*
X122306403Y-82038620D01*
X122306401Y-82038627D01*
X122300000Y-82098155D01*
X116884511Y-82098155D01*
X116892911Y-81151285D01*
X116913189Y-81084425D01*
X116966397Y-81039140D01*
X117017265Y-81028388D01*
X129360993Y-81064635D01*
G37*
%TD.AperFunction*%
%TD*%
M02*
