M48
; DRILL file {KiCad 9.0.0} date 2025-11-28T03:58:57-0700
; FORMAT={-:-/ absolute / metric / decimal}
; #@! TF.CreationDate,2025-11-28T03:58:57-07:00
; #@! TF.GenerationSoftware,Kicad,Pcbnew,9.0.0
; #@! TF.FileFunction,Plated,1,2,PTH
FMAT,2
METRIC
; #@! TA.AperFunction,Plated,PTH,ViaDrill
T1C0.300
; #@! TA.AperFunction,Plated,PTH,ComponentDrill
T2C0.800
; #@! TA.AperFunction,Plated,PTH,ComponentDrill
T3C1.000
; #@! TA.AperFunction,Plated,PTH,ComponentDrill
T4C1.016
; #@! TA.AperFunction,Plated,PTH,ComponentDrill
T5C1.040
; #@! TA.AperFunction,Plated,PTH,ComponentDrill
T6C1.100
; #@! TA.AperFunction,Plated,PTH,ComponentDrill
T7C1.143
%
G90
G05
T1
X115.875Y-100.175
X126.59Y-102.32
X129.53Y-102.33
X129.685Y-91.235
X131.285Y-101.235
X131.935Y-94.085
X132.435Y-90.435
X138.335Y-89.985
X138.755Y-94.415
X166.235Y-93.035
X167.435Y-84.635
X168.535Y-86.135
X169.585Y-87.685
X184.735Y-86.235
X186.385Y-89.535
T2
X113.335Y-86.095
X113.335Y-101.335
X118.415Y-86.095
X118.415Y-101.335
X133.655Y-86.095
X133.655Y-101.335
X136.195Y-86.095
X136.195Y-101.335
T3
X174.945Y-84.438
X174.945Y-92.057
X177.485Y-84.438
X177.485Y-92.057
X180.025Y-84.438
X180.025Y-92.057
T4
X98.25Y-76.53
X98.25Y-82.042
X107.111Y-97.191
X107.136Y-101.941
X148.075Y-85.842
X148.075Y-91.354
X160.075Y-85.842
X160.075Y-91.354
T5
X142.875Y-76.235
X142.875Y-101.635
X145.415Y-76.235
X145.415Y-101.635
X147.955Y-76.235
X147.955Y-101.635
X150.495Y-76.235
X150.495Y-101.635
X153.035Y-76.235
X153.035Y-101.635
X155.575Y-76.235
X155.575Y-101.635
X158.115Y-76.235
X158.115Y-101.635
X160.655Y-76.235
X160.655Y-101.635
X163.195Y-76.235
X163.195Y-101.635
X165.735Y-76.235
X165.735Y-101.635
X168.275Y-76.235
X168.275Y-101.635
X170.815Y-76.235
X170.815Y-101.635
X173.355Y-76.235
X173.355Y-101.635
X175.895Y-76.235
X175.895Y-101.635
X178.435Y-76.235
X178.435Y-101.635
X180.975Y-76.235
X180.975Y-101.635
X183.515Y-76.235
X183.515Y-101.635
X186.055Y-76.235
X186.055Y-101.635
X188.595Y-76.235
X188.595Y-101.635
T6
X98.2Y-86.871
X98.2Y-89.371
X104.1Y-86.871
X104.1Y-89.371
T7
X109.04Y-76.722
X109.04Y-79.263
X111.58Y-76.722
X111.58Y-79.263
X114.12Y-76.722
X114.12Y-79.263
X116.66Y-76.722
X116.66Y-79.263
X119.2Y-76.722
X119.2Y-79.263
X121.74Y-76.722
X121.74Y-79.263
X124.28Y-76.722
X124.28Y-79.263
X126.82Y-76.722
X126.82Y-79.263
X129.36Y-76.722
X129.36Y-79.263
X131.9Y-76.722
X131.9Y-79.263
M30
