M48
; DRILL file {KiCad 9.0.0} date 2025-06-18T07:15:57-0600
; FORMAT={-:-/ absolute / metric / decimal}
; #@! TF.CreationDate,2025-06-18T07:15:57-06:00
; #@! TF.GenerationSoftware,Kicad,Pcbnew,9.0.0
; #@! TF.FileFunction,Plated,1,2,PTH
FMAT,2
METRIC
; #@! TA.AperFunction,Plated,PTH,ViaDrill
T1C0.300
; #@! TA.AperFunction,Plated,PTH,ComponentDrill
T2C0.800
; #@! TA.AperFunction,Plated,PTH,ComponentDrill
T3C0.813
; #@! TA.AperFunction,Plated,PTH,ComponentDrill
T4C0.991
; #@! TA.AperFunction,Plated,PTH,ComponentDrill
T5C1.016
; #@! TA.AperFunction,Plated,PTH,ComponentDrill
T6C1.040
; #@! TA.AperFunction,Plated,PTH,ComponentDrill
T7C1.050
; #@! TA.AperFunction,Plated,PTH,ComponentDrill
T8C1.400
; #@! TA.AperFunction,Plated,PTH,ComponentDrill
T9C3.050
%
G90
G05
T1
X99.9Y-93.55
X99.9Y-95.65
X99.9Y-97.6
X100.0Y-113.6
X100.0Y-115.0
X100.0Y-116.6
X100.0Y-118.35
X101.6Y-113.6
X101.6Y-115.0
X101.6Y-116.6
X101.6Y-118.35
X101.683Y-93.55
X101.683Y-95.65
X101.683Y-97.6
X103.467Y-93.55
X103.467Y-95.65
X103.467Y-97.6
X105.25Y-93.55
X105.25Y-95.65
X105.25Y-97.6
X110.35Y-100.8
X110.6Y-57.2
X110.6Y-59.2
X110.6Y-61.2
X110.6Y-63.2
X111.12Y-81.55
X111.45Y-99.9
X112.37Y-79.9
X112.4Y-57.2
X112.4Y-59.2
X112.4Y-61.2
X112.45Y-100.8
X112.56Y-70.51
X112.61Y-68.81
X113.03Y-78.48
X113.12Y-81.55
X114.37Y-79.9
X114.4Y-57.2
X114.4Y-59.2
X114.56Y-70.51
X114.61Y-68.81
X115.03Y-78.48
X115.12Y-81.55
X116.37Y-79.9
X116.4Y-57.2
X116.4Y-59.2
X116.56Y-70.51
X116.61Y-68.81
X117.03Y-78.48
X144.55Y-124.35
X144.55Y-125.65
X146.0Y-124.35
X146.0Y-125.65
X147.4Y-124.35
X147.4Y-125.65
X148.85Y-124.35
X148.85Y-125.65
X149.0Y-111.6
X150.3Y-124.4
X150.3Y-125.7
X150.8Y-111.6
X151.75Y-124.4
X151.75Y-125.7
X152.6Y-111.6
X157.1Y-72.45
X158.8Y-90.7
X162.0Y-103.6
X162.2Y-108.0
X162.5Y-113.25
X164.3Y-90.15
X166.2Y-99.0
X168.0Y-66.4
X169.4Y-78.4
X170.4Y-114.8
X172.85Y-123.95
T2
X119.97Y-104.969
X119.97Y-120.209
X122.51Y-104.969
X122.51Y-120.209
X137.75Y-104.969
X137.75Y-120.209
X142.83Y-104.969
X142.83Y-120.209
T3
X173.21Y-116.049
X175.75Y-113.509
X175.75Y-116.049
X175.75Y-118.589
X175.75Y-121.129
T4
X114.105Y-98.745
X116.605Y-98.745
X119.105Y-98.745
T5
X111.55Y-114.062
X111.55Y-119.573
X129.0Y-93.0
X129.0Y-98.512
X140.75Y-93.0
X140.75Y-98.512
X151.21Y-114.477
X151.21Y-119.989
T6
X142.8Y-61.4
X142.8Y-63.9
X142.8Y-66.4
X142.8Y-68.9
X145.9Y-61.4
X145.9Y-63.9
X145.9Y-66.4
X145.9Y-68.9
X150.25Y-63.029
X150.25Y-65.569
X150.25Y-68.109
X150.25Y-70.649
X150.25Y-73.189
X150.25Y-75.729
X150.25Y-78.269
X150.25Y-80.809
X150.25Y-83.349
X150.25Y-85.889
X150.25Y-88.429
X150.25Y-90.969
X150.25Y-93.509
X150.25Y-96.049
X150.25Y-98.589
X150.25Y-101.129
X150.25Y-103.669
X150.25Y-106.209
X150.25Y-108.749
X175.65Y-63.029
X175.65Y-65.569
X175.65Y-68.109
X175.65Y-70.649
X175.65Y-73.189
X175.65Y-75.729
X175.65Y-78.269
X175.65Y-80.809
X175.65Y-83.349
X175.65Y-85.889
X175.65Y-88.429
X175.65Y-90.969
X175.65Y-93.509
X175.65Y-96.049
X175.65Y-98.589
X175.65Y-101.129
X175.65Y-103.669
X175.65Y-106.209
X175.65Y-108.749
T7
X103.83Y-69.85
X103.83Y-72.62
X103.83Y-75.39
X103.83Y-78.16
X106.67Y-68.465
X106.67Y-71.235
X106.67Y-74.005
X106.67Y-76.775
X106.67Y-79.545
T8
X105.725Y-109.415
X105.725Y-114.495
X105.725Y-119.575
T9
X105.25Y-61.51
X105.25Y-86.5
M30
