%TF.GenerationSoftware,KiCad,Pcbnew,9.0.0*%
%TF.CreationDate,2025-06-18T07:15:52-06:00*%
%TF.ProjectId,schematic_Mk2.1,73636865-6d61-4746-9963-5f4d6b322e31,rev?*%
%TF.SameCoordinates,Original*%
%TF.FileFunction,Copper,L2,Bot*%
%TF.FilePolarity,Positive*%
%FSLAX46Y46*%
G04 Gerber Fmt 4.6, Leading zero omitted, Abs format (unit mm)*
G04 Created by KiCad (PCBNEW 9.0.0) date 2025-06-18 07:15:52*
%MOMM*%
%LPD*%
G01*
G04 APERTURE LIST*
G04 Aperture macros list*
%AMRotRect*
0 Rectangle, with rotation*
0 The origin of the aperture is its center*
0 $1 length*
0 $2 width*
0 $3 Rotation angle, in degrees counterclockwise*
0 Add horizontal line*
21,1,$1,$2,0,0,$3*%
G04 Aperture macros list end*
%TA.AperFunction,ComponentPad*%
%ADD10C,1.560000*%
%TD*%
%TA.AperFunction,ComponentPad*%
%ADD11C,1.498600*%
%TD*%
%TA.AperFunction,ComponentPad*%
%ADD12C,1.570000*%
%TD*%
%TA.AperFunction,ComponentPad*%
%ADD13R,1.560000X1.560000*%
%TD*%
%TA.AperFunction,ComponentPad*%
%ADD14C,1.575000*%
%TD*%
%TA.AperFunction,ComponentPad*%
%ADD15R,1.575000X1.575000*%
%TD*%
%TA.AperFunction,ComponentPad*%
%ADD16C,4.066000*%
%TD*%
%TA.AperFunction,ComponentPad*%
%ADD17C,1.524000*%
%TD*%
%TA.AperFunction,ComponentPad*%
%ADD18R,1.524000X1.524000*%
%TD*%
%TA.AperFunction,ComponentPad*%
%ADD19R,2.100000X2.100000*%
%TD*%
%TA.AperFunction,ComponentPad*%
%ADD20C,2.100000*%
%TD*%
%TA.AperFunction,ComponentPad*%
%ADD21C,1.700000*%
%TD*%
%TA.AperFunction,SMDPad,CuDef*%
%ADD22R,0.609600X1.549400*%
%TD*%
%TA.AperFunction,SMDPad,CuDef*%
%ADD23R,1.193800X1.803400*%
%TD*%
%TA.AperFunction,SMDPad,CuDef*%
%ADD24R,1.170000X1.770000*%
%TD*%
%TA.AperFunction,SMDPad,CuDef*%
%ADD25R,1.770000X1.170000*%
%TD*%
%TA.AperFunction,SMDPad,CuDef*%
%ADD26R,1.050000X1.720000*%
%TD*%
%TA.AperFunction,SMDPad,CuDef*%
%ADD27RotRect,1.050000X1.720000X45.000000*%
%TD*%
%TA.AperFunction,SMDPad,CuDef*%
%ADD28R,2.209800X1.651000*%
%TD*%
%TA.AperFunction,SMDPad,CuDef*%
%ADD29R,1.720000X1.050000*%
%TD*%
%TA.AperFunction,SMDPad,CuDef*%
%ADD30R,0.890000X1.680000*%
%TD*%
%TA.AperFunction,SMDPad,CuDef*%
%ADD31R,2.090000X1.390000*%
%TD*%
%TA.AperFunction,SMDPad,CuDef*%
%ADD32R,1.820000X1.200000*%
%TD*%
%TA.AperFunction,ViaPad*%
%ADD33C,0.600000*%
%TD*%
%TA.AperFunction,Conductor*%
%ADD34C,0.254000*%
%TD*%
G04 APERTURE END LIST*
D10*
%TO.P,J5,4_2,4_2*%
%TO.N,ESP_GND2*%
X142800000Y-68900000D03*
%TO.P,J5,4_1,4_1*%
X145900000Y-68900000D03*
%TO.P,J5,3_2,3_2*%
%TO.N,+3.3V*%
X142800000Y-66400000D03*
%TO.P,J5,3_1,3_1*%
X145900000Y-66400000D03*
%TO.P,J5,2_2,2_2*%
%TO.N,GPIO_18*%
X142800000Y-63900000D03*
%TO.P,J5,2_1,2_1*%
X145900000Y-63900000D03*
%TO.P,J5,1_2,1_2*%
%TO.N,GPIO_19*%
X142800000Y-61400000D03*
%TO.P,J5,1_1,1_1*%
X145900000Y-61400000D03*
%TD*%
D11*
%TO.P,J4,3,3*%
%TO.N,-Vin*%
X119104900Y-98745100D03*
%TO.P,J4,2,2*%
%TO.N,+VIN-dc*%
X116604900Y-98745100D03*
%TO.P,J4,1,1*%
%TO.N,+24V*%
X114104900Y-98745100D03*
%TD*%
D12*
%TO.P,S1,1*%
%TO.N,GPIO_4*%
X175750000Y-113509150D03*
%TO.P,S1,2*%
%TO.N,GPIO_16*%
X175750000Y-116049150D03*
%TO.P,S1,4*%
%TO.N,GPIO_17*%
X175750000Y-118589150D03*
%TO.P,S1,8*%
%TO.N,GPIO_5*%
X175750000Y-121129150D03*
%TO.P,S1,C*%
%TO.N,+3.3V*%
X173210000Y-116049150D03*
%TD*%
D13*
%TO.P,U1,J2-1,3V3*%
%TO.N,+3.3V*%
X150250000Y-63029150D03*
D10*
%TO.P,U1,J2-2,EN*%
%TO.N,unconnected-(U1-EN-PadJ2-2)*%
X150250000Y-65569150D03*
%TO.P,U1,J2-3,SENSOR_VP*%
%TO.N,unconnected-(U1-SENSOR_VP-PadJ2-3)*%
X150250000Y-68109150D03*
%TO.P,U1,J2-4,SENSOR_VN*%
%TO.N,unconnected-(U1-SENSOR_VN-PadJ2-4)*%
X150250000Y-70649150D03*
%TO.P,U1,J2-5,IO34*%
%TO.N,unconnected-(U1-IO34-PadJ2-5)*%
X150250000Y-73189150D03*
%TO.P,U1,J2-6,IO35*%
%TO.N,unconnected-(U1-IO35-PadJ2-6)*%
X150250000Y-75729150D03*
%TO.P,U1,J2-7,IO32*%
%TO.N,GPIO_32*%
X150250000Y-78269150D03*
%TO.P,U1,J2-8,IO33*%
%TO.N,GPIO_33*%
X150250000Y-80809150D03*
%TO.P,U1,J2-9,IO25*%
%TO.N,GPIO_25*%
X150250000Y-83349150D03*
%TO.P,U1,J2-10,IO26*%
%TO.N,GPIO_26*%
X150250000Y-85889150D03*
%TO.P,U1,J2-11,IO27*%
%TO.N,unconnected-(U1-IO27-PadJ2-11)*%
X150250000Y-88429150D03*
%TO.P,U1,J2-12,IO14*%
%TO.N,unconnected-(U1-IO14-PadJ2-12)*%
X150250000Y-90969150D03*
%TO.P,U1,J2-13,IO12*%
%TO.N,unconnected-(U1-IO12-PadJ2-13)*%
X150250000Y-93509150D03*
%TO.P,U1,J2-14,GND1*%
%TO.N,ESP_GND2*%
X150250000Y-96049150D03*
%TO.P,U1,J2-15,IO13*%
%TO.N,unconnected-(U1-IO13-PadJ2-15)*%
X150250000Y-98589150D03*
%TO.P,U1,J2-16,SD2*%
%TO.N,unconnected-(U1-SD2-PadJ2-16)*%
X150250000Y-101129150D03*
%TO.P,U1,J2-17,SD3*%
%TO.N,unconnected-(U1-SD3-PadJ2-17)*%
X150250000Y-103669150D03*
%TO.P,U1,J2-18,CMD*%
%TO.N,unconnected-(U1-CMD-PadJ2-18)*%
X150250000Y-106209150D03*
%TO.P,U1,J2-19,EXT_5V*%
%TO.N,+VOUT-esp*%
X150250000Y-108749150D03*
%TO.P,U1,J3-1,GND3*%
%TO.N,ESP_GND2*%
X175650000Y-63029150D03*
%TO.P,U1,J3-2,IO23*%
%TO.N,unconnected-(U1-IO23-PadJ3-2)*%
X175650000Y-65569150D03*
%TO.P,U1,J3-3,IO22*%
%TO.N,GPIO_22*%
X175650000Y-68109150D03*
%TO.P,U1,J3-4,TXD0*%
%TO.N,unconnected-(U1-TXD0-PadJ3-4)*%
X175650000Y-70649150D03*
%TO.P,U1,J3-5,RXD0*%
%TO.N,unconnected-(U1-RXD0-PadJ3-5)*%
X175650000Y-73189150D03*
%TO.P,U1,J3-6,IO21*%
%TO.N,GPIO_21*%
X175650000Y-75729150D03*
%TO.P,U1,J3-7,GND2*%
%TO.N,ESP_GND2*%
X175650000Y-78269150D03*
%TO.P,U1,J3-8,IO19*%
%TO.N,GPIO_19*%
X175650000Y-80809150D03*
%TO.P,U1,J3-9,IO18*%
%TO.N,GPIO_18*%
X175650000Y-83349150D03*
%TO.P,U1,J3-10,IO5*%
%TO.N,GPIO_5*%
X175650000Y-85889150D03*
%TO.P,U1,J3-11,IO17*%
%TO.N,GPIO_17*%
X175650000Y-88429150D03*
%TO.P,U1,J3-12,IO16*%
%TO.N,GPIO_16*%
X175650000Y-90969150D03*
%TO.P,U1,J3-13,IO4*%
%TO.N,GPIO_4*%
X175650000Y-93509150D03*
%TO.P,U1,J3-14,IO0*%
%TO.N,unconnected-(U1-IO0-PadJ3-14)*%
X175650000Y-96049150D03*
%TO.P,U1,J3-15,IO2*%
%TO.N,unconnected-(U1-IO2-PadJ3-15)*%
X175650000Y-98589150D03*
%TO.P,U1,J3-16,IO15*%
%TO.N,unconnected-(U1-IO15-PadJ3-16)*%
X175650000Y-101129150D03*
%TO.P,U1,J3-17,SD1*%
%TO.N,unconnected-(U1-SD1-PadJ3-17)*%
X175650000Y-103669150D03*
%TO.P,U1,J3-18,SD0*%
%TO.N,unconnected-(U1-SD0-PadJ3-18)*%
X175650000Y-106209150D03*
%TO.P,U1,J3-19,CLK*%
%TO.N,unconnected-(U1-CLK-PadJ3-19)*%
X175650000Y-108749150D03*
%TD*%
D14*
%TO.P,J1,5*%
%TO.N,spare*%
X106670000Y-68465000D03*
%TO.P,J1,4*%
%TO.N,ramp_up*%
X106670000Y-71235000D03*
D15*
%TO.P,J1,1*%
%TO.N,unconnected-(J1-Pad1)*%
X106670000Y-79545000D03*
D14*
%TO.P,J1,2*%
%TO.N,unconnected-(J1-Pad2)*%
X106670000Y-76775000D03*
%TO.P,J1,3*%
%TO.N,ramp_down*%
X106670000Y-74005000D03*
%TO.P,J1,6*%
%TO.N,GPIO_19*%
X103830000Y-78160000D03*
%TO.P,J1,7*%
%TO.N,GPIO_18*%
X103830000Y-75390000D03*
%TO.P,J1,8*%
%TO.N,+3.3V*%
X103830000Y-72620000D03*
%TO.P,J1,9*%
%TO.N,ESP_GND2*%
X103830000Y-69850000D03*
D16*
%TO.P,J1,S1,SHIELD*%
%TO.N,unconnected-(J1-SHIELD-PadS1)*%
X105250000Y-61510000D03*
%TO.P,J1,S2,SHIELD__1*%
%TO.N,unconnected-(J1-SHIELD__1-PadS2)*%
X105250000Y-86500000D03*
%TD*%
D17*
%TO.P,RF2,1*%
%TO.N,/+VOUT*%
X151210000Y-119989150D03*
%TO.P,RF2,2*%
%TO.N,+VOUT-esp*%
X151210000Y-114477350D03*
%TD*%
%TO.P,RF1,1*%
%TO.N,+VIN-dc*%
X111550000Y-114061700D03*
%TO.P,RF1,2*%
%TO.N,/+VIN*%
X111550000Y-119573500D03*
%TD*%
D18*
%TO.P,C2,1*%
%TO.N,/+VIN*%
X140750000Y-93000000D03*
D17*
%TO.P,C2,2*%
%TO.N,-Vin*%
X140750000Y-98511800D03*
%TD*%
D19*
%TO.P,J2,01,01*%
%TO.N,sim_home*%
X105725000Y-109415000D03*
D20*
%TO.P,J2,02,02*%
%TO.N,/+24V-Sim*%
X105725000Y-114495000D03*
%TO.P,J2,03,03*%
%TO.N,-Vin*%
X105725000Y-119575000D03*
%TD*%
D18*
%TO.P,C1,1*%
%TO.N,/+VIN*%
X129000000Y-93000000D03*
D17*
%TO.P,C1,2*%
%TO.N,-Vin*%
X129000000Y-98511800D03*
%TD*%
D21*
%TO.P,PS1,23,+VIN__1*%
%TO.N,unconnected-(PS1-+VIN__1-Pad23)*%
X119970000Y-104969150D03*
%TO.P,PS1,22,+VIN*%
%TO.N,/+VIN*%
X122510000Y-104969150D03*
%TO.P,PS1,3,-VIN__1*%
%TO.N,unconnected-(PS1--VIN__1-Pad3)*%
X122510000Y-120209150D03*
%TO.P,PS1,2,-VIN*%
%TO.N,-Vin*%
X119970000Y-120209150D03*
%TO.P,PS1,9,NC*%
%TO.N,unconnected-(PS1-NC-Pad9)*%
X137750000Y-120209150D03*
%TO.P,PS1,11,NC1*%
%TO.N,unconnected-(PS1-NC1-Pad11)*%
X142830000Y-120209150D03*
%TO.P,PS1,14,+VOUT*%
%TO.N,/+VOUT*%
X142830000Y-104969150D03*
%TO.P,PS1,16,-VOUT*%
%TO.N,ESP_GND2*%
X137750000Y-104969150D03*
%TD*%
D22*
%TO.P,J3,1,1*%
%TO.N,ESP_GND2*%
X164500000Y-81527600D03*
%TO.P,J3,2,2*%
%TO.N,+3.3V*%
X163499999Y-81527600D03*
%TO.P,J3,3,3*%
%TO.N,GPIO_21*%
X162500001Y-81527600D03*
%TO.P,J3,4,4*%
%TO.N,GPIO_22*%
X161500000Y-81527600D03*
D23*
%TO.P,J3,5*%
%TO.N,N/C*%
X165799999Y-79002601D03*
%TO.P,J3,6*%
X160200001Y-79002601D03*
%TD*%
D24*
%TO.P,R18,1*%
%TO.N,+3.3V*%
X157706000Y-86906000D03*
%TO.P,R18,2*%
%TO.N,GPIO_22*%
X160694000Y-86906000D03*
%TD*%
D25*
%TO.P,R11,1*%
%TO.N,GPIO_26*%
X166400000Y-105294000D03*
%TO.P,R11,2*%
%TO.N,+3.3V*%
X166400000Y-102306000D03*
%TD*%
%TO.P,R13,1*%
%TO.N,GPIO_17*%
X166400000Y-113294000D03*
%TO.P,R13,2*%
%TO.N,ESP_GND2*%
X166400000Y-110306000D03*
%TD*%
D26*
%TO.P,R6,1*%
%TO.N,ramp_down*%
X120990000Y-82750000D03*
%TO.P,R6,2*%
%TO.N,/ramp_down_opto*%
X123910000Y-82750000D03*
%TD*%
D27*
%TO.P,R8,1*%
%TO.N,sim_home*%
X120467624Y-93532376D03*
%TO.P,R8,2*%
%TO.N,/sim_home_opto*%
X122532376Y-91467624D03*
%TD*%
D28*
%TO.P,D1,1*%
%TO.N,+24V*%
X112000000Y-103879100D03*
%TO.P,D1,2*%
%TO.N,/+24V-Sim*%
X112000000Y-108120900D03*
%TD*%
D29*
%TO.P,R1,1*%
%TO.N,spare*%
X124500000Y-59580000D03*
%TO.P,R1,2*%
%TO.N,spare_opto*%
X124500000Y-62500000D03*
%TD*%
D26*
%TO.P,R5,1*%
%TO.N,ramp_down*%
X120990000Y-78250000D03*
%TO.P,R5,2*%
%TO.N,/ramp_down_opto*%
X123910000Y-78250000D03*
%TD*%
D30*
%TO.P,R4,1*%
%TO.N,ramp_up*%
X120955000Y-74100000D03*
%TO.P,R4,2*%
%TO.N,ramp_up_opto*%
X123945000Y-74100000D03*
%TD*%
D26*
%TO.P,R3,1*%
%TO.N,ramp_up*%
X120950000Y-69600000D03*
%TO.P,R3,2*%
%TO.N,ramp_up_opto*%
X123870000Y-69600000D03*
%TD*%
D24*
%TO.P,R17,1*%
%TO.N,+3.3V*%
X165506000Y-86906000D03*
%TO.P,R17,2*%
%TO.N,GPIO_21*%
X168494000Y-86906000D03*
%TD*%
D25*
%TO.P,R10,1*%
%TO.N,GPIO_33*%
X159200000Y-92706000D03*
%TO.P,R10,2*%
%TO.N,+3.3V*%
X159200000Y-95694000D03*
%TD*%
D31*
%TO.P,U2,1*%
%TO.N,/sim_home_opto*%
X129930000Y-88890000D03*
%TO.P,U2,2*%
%TO.N,-Vin*%
X129930000Y-86350000D03*
%TO.P,U2,3*%
%TO.N,/ramp_down_opto*%
X129930000Y-83810000D03*
%TO.P,U2,4*%
%TO.N,-Vin*%
X129930000Y-81270000D03*
%TO.P,U2,5*%
%TO.N,ramp_up_opto*%
X129930000Y-78730000D03*
%TO.P,U2,6*%
%TO.N,-Vin*%
X129930000Y-76190000D03*
%TO.P,U2,7*%
%TO.N,spare_opto*%
X129930000Y-73650000D03*
%TO.P,U2,8*%
%TO.N,-Vin*%
X129930000Y-71110000D03*
%TO.P,U2,9*%
%TO.N,ESP_GND2*%
X139010000Y-71110000D03*
%TO.P,U2,10*%
%TO.N,GPIO_32*%
X139010000Y-73650000D03*
%TO.P,U2,11*%
%TO.N,ESP_GND2*%
X139010000Y-76190000D03*
%TO.P,U2,12*%
%TO.N,GPIO_33*%
X139010000Y-78730000D03*
%TO.P,U2,13*%
%TO.N,ESP_GND2*%
X139010000Y-81270000D03*
%TO.P,U2,14*%
%TO.N,GPIO_25*%
X139010000Y-83810000D03*
%TO.P,U2,15*%
%TO.N,ESP_GND2*%
X139010000Y-86350000D03*
%TO.P,U2,16*%
%TO.N,GPIO_26*%
X139010000Y-88890000D03*
%TD*%
D25*
%TO.P,R9,1*%
%TO.N,GPIO_32*%
X166400000Y-92800000D03*
%TO.P,R9,2*%
%TO.N,+3.3V*%
X166400000Y-95788000D03*
%TD*%
%TO.P,R12,1*%
%TO.N,GPIO_25*%
X159200000Y-105200000D03*
%TO.P,R12,2*%
%TO.N,+3.3V*%
X159200000Y-102212000D03*
%TD*%
%TO.P,R14,1*%
%TO.N,GPIO_5*%
X159200000Y-110306000D03*
%TO.P,R14,2*%
%TO.N,ESP_GND2*%
X159200000Y-113294000D03*
%TD*%
%TO.P,R16,1*%
%TO.N,GPIO_4*%
X166400000Y-120694000D03*
%TO.P,R16,2*%
%TO.N,ESP_GND2*%
X166400000Y-117706000D03*
%TD*%
D29*
%TO.P,R2,1*%
%TO.N,spare*%
X120000000Y-59580000D03*
%TO.P,R2,2*%
%TO.N,spare_opto*%
X120000000Y-62500000D03*
%TD*%
D25*
%TO.P,R15,1*%
%TO.N,GPIO_16*%
X159200000Y-120694000D03*
%TO.P,R15,2*%
%TO.N,ESP_GND2*%
X159200000Y-117706000D03*
%TD*%
D32*
%TO.P,C3,1*%
%TO.N,ESP_GND2*%
X137800000Y-111540000D03*
%TO.P,C3,2*%
%TO.N,-Vin*%
X137800000Y-114460000D03*
%TD*%
D27*
%TO.P,R7,1*%
%TO.N,sim_home*%
X116967624Y-90032376D03*
%TO.P,R7,2*%
%TO.N,/sim_home_opto*%
X119032376Y-87967624D03*
%TD*%
D33*
%TO.N,sim_home*%
X105250000Y-95650000D03*
X103466667Y-97600000D03*
X101683333Y-93550000D03*
X103466667Y-93550000D03*
X105250000Y-97600000D03*
X99900000Y-93550000D03*
X101683333Y-95650000D03*
X99900000Y-97600000D03*
X101683333Y-97600000D03*
X103466667Y-95650000D03*
X99900000Y-95650000D03*
X105250000Y-93550000D03*
%TO.N,spare*%
X110600000Y-59200000D03*
X110600000Y-61200000D03*
X116400000Y-57200000D03*
X110600000Y-57200000D03*
X114400000Y-59200000D03*
X110600000Y-63200000D03*
X116400000Y-59200000D03*
X114400000Y-57200000D03*
X112400000Y-61200000D03*
X112400000Y-59200000D03*
X112400000Y-57200000D03*
%TO.N,ramp_down*%
X116370000Y-79900000D03*
X117030000Y-78480000D03*
X112370000Y-79900000D03*
X115030000Y-78480000D03*
X113120000Y-81550000D03*
X114370000Y-79900000D03*
X113030000Y-78480000D03*
X115120000Y-81550000D03*
X111120000Y-81550000D03*
%TO.N,ramp_up*%
X116560000Y-70510000D03*
X116610000Y-68810000D03*
X114560000Y-70510000D03*
X112560000Y-70510000D03*
X112610000Y-68810000D03*
X114610000Y-68810000D03*
%TO.N,+3.3V*%
X166200000Y-99000000D03*
X168000000Y-66400000D03*
%TO.N,GPIO_25*%
X162000000Y-103600000D03*
%TO.N,GPIO_26*%
X162200000Y-108000000D03*
%TO.N,ESP_GND2*%
X169400000Y-78400000D03*
X157100000Y-72450000D03*
%TO.N,GPIO_17*%
X170400000Y-114800000D03*
X162500000Y-113250000D03*
%TO.N,GPIO_4*%
X172850000Y-123950000D03*
%TO.N,+24V*%
X111450000Y-99900000D03*
X110350000Y-100800000D03*
X112450000Y-100800000D03*
%TO.N,GPIO_32*%
X164300000Y-90150000D03*
%TO.N,GPIO_33*%
X158800000Y-90700000D03*
%TO.N,/+VOUT*%
X148850000Y-124350000D03*
X148850000Y-125650000D03*
X146000000Y-124350000D03*
X144550000Y-124350000D03*
X151750000Y-125700000D03*
X144550000Y-125650000D03*
X150300000Y-124400000D03*
X147400000Y-124350000D03*
X150300000Y-125700000D03*
X151750000Y-124400000D03*
X146000000Y-125650000D03*
X147400000Y-125650000D03*
%TO.N,+VOUT-esp*%
X150800000Y-111600000D03*
X152600000Y-111600000D03*
X149000000Y-111600000D03*
%TO.N,/+24V-Sim*%
X100000000Y-116600000D03*
X100000000Y-118350000D03*
X100000000Y-113600000D03*
X101600000Y-118350000D03*
X101600000Y-113600000D03*
X100000000Y-115000000D03*
X101600000Y-115000000D03*
X101600000Y-116600000D03*
%TD*%
D34*
%TO.N,GPIO_19*%
X100625000Y-54125000D02*
X100625000Y-74955000D01*
X100625000Y-74955000D02*
X103830000Y-78160000D01*
X135525000Y-54125000D02*
X100625000Y-54125000D01*
X139000000Y-57600000D02*
X135525000Y-54125000D01*
%TO.N,ESP_GND2*%
X140590000Y-71110000D02*
X142800000Y-68900000D01*
X139010000Y-71110000D02*
X140590000Y-71110000D01*
%TO.N,GPIO_19*%
X139000000Y-57600000D02*
X142800000Y-61400000D01*
X139000000Y-54050000D02*
X139000000Y-57600000D01*
%TO.N,ESP_GND2*%
X101700000Y-67720000D02*
X103830000Y-69850000D01*
X104750000Y-55175000D02*
X101700000Y-58225000D01*
X131875000Y-55175000D02*
X104750000Y-55175000D01*
X101700000Y-58225000D02*
X101700000Y-67720000D01*
X139010000Y-62310000D02*
X131875000Y-55175000D01*
X139010000Y-71110000D02*
X139010000Y-62310000D01*
%TO.N,GPIO_17*%
X172789150Y-118589150D02*
X175750000Y-118589150D01*
X170400000Y-116200000D02*
X172789150Y-118589150D01*
X170400000Y-114800000D02*
X170400000Y-116200000D01*
%TO.N,+3.3V*%
X166400000Y-99200000D02*
X166400000Y-102306000D01*
X151090301Y-63029150D02*
X150250000Y-63029150D01*
X157706000Y-74694000D02*
X157706000Y-84200000D01*
X157706000Y-84200000D02*
X156400000Y-84200000D01*
X162612000Y-89800000D02*
X155600000Y-89800000D01*
X166306000Y-102212000D02*
X166400000Y-102306000D01*
X155600000Y-85000000D02*
X155600000Y-89800000D01*
X156400000Y-84200000D02*
X155600000Y-85000000D01*
X165506000Y-86906000D02*
X162612000Y-89800000D01*
X153510425Y-66289575D02*
X150250000Y-63029150D01*
X159810425Y-72589575D02*
X153510425Y-66289575D01*
X166306000Y-95694000D02*
X166400000Y-95788000D01*
X159200000Y-102212000D02*
X166306000Y-102212000D01*
X168000000Y-66400000D02*
X153620850Y-66400000D01*
X159200000Y-95694000D02*
X166306000Y-95694000D01*
X159200000Y-95694000D02*
X159200000Y-102212000D01*
X166200000Y-99000000D02*
X166400000Y-99200000D01*
X165506000Y-86906000D02*
X163499999Y-84899999D01*
X153620850Y-66400000D02*
X153510425Y-66289575D01*
X163499999Y-84899999D02*
X163499999Y-81527600D01*
X157706000Y-84200000D02*
X157706000Y-86906000D01*
X159810425Y-72589575D02*
X157706000Y-74694000D01*
%TO.N,GPIO_25*%
X160400000Y-105200000D02*
X162000000Y-103600000D01*
X159200000Y-105200000D02*
X160400000Y-105200000D01*
%TO.N,GPIO_26*%
X164906000Y-105294000D02*
X162200000Y-108000000D01*
X166400000Y-105294000D02*
X164906000Y-105294000D01*
%TO.N,GPIO_16*%
X159200000Y-120694000D02*
X163656000Y-125150000D01*
X175080850Y-90969150D02*
X175650000Y-90969150D01*
X171650000Y-94400000D02*
X175080850Y-90969150D01*
X171650000Y-111949150D02*
X171650000Y-94400000D01*
X175750000Y-116049150D02*
X171650000Y-111949150D01*
X177000000Y-117299150D02*
X175750000Y-116049150D01*
X163656000Y-125150000D02*
X173322000Y-125150000D01*
X173322000Y-125150000D02*
X177000000Y-121472000D01*
X177000000Y-121472000D02*
X177000000Y-117299150D01*
%TO.N,ESP_GND2*%
X152775425Y-98574575D02*
X150250000Y-96049150D01*
X155400000Y-109494000D02*
X155400000Y-101199150D01*
X155400000Y-101199150D02*
X152775425Y-98574575D01*
X165056000Y-111650000D02*
X166400000Y-110306000D01*
X160844000Y-111650000D02*
X165056000Y-111650000D01*
X159200000Y-117706000D02*
X166400000Y-117706000D01*
X159200000Y-113294000D02*
X155400000Y-109494000D01*
X166272400Y-81527600D02*
X169400000Y-78400000D01*
X157100000Y-72450000D02*
X154500000Y-75050000D01*
X154500000Y-96850000D02*
X152775425Y-98574575D01*
X164500000Y-81527600D02*
X166272400Y-81527600D01*
X159200000Y-113294000D02*
X160844000Y-111650000D01*
X159200000Y-117706000D02*
X159200000Y-113294000D01*
X154500000Y-75050000D02*
X154500000Y-96850000D01*
%TO.N,GPIO_17*%
X170400000Y-114800000D02*
X170400000Y-93679150D01*
X165794000Y-113900000D02*
X166400000Y-113294000D01*
X164450000Y-113900000D02*
X165794000Y-113900000D01*
X162500000Y-113250000D02*
X163800000Y-113250000D01*
X163800000Y-113250000D02*
X164450000Y-113900000D01*
X170400000Y-93679150D02*
X175650000Y-88429150D01*
%TO.N,GPIO_4*%
X175750000Y-113509150D02*
X172800000Y-110559150D01*
X175290850Y-93509150D02*
X175650000Y-93509150D01*
X169594000Y-120694000D02*
X172850000Y-123950000D01*
X172800000Y-96000000D02*
X175290850Y-93509150D01*
X166400000Y-120694000D02*
X169594000Y-120694000D01*
X172800000Y-110559150D02*
X172800000Y-96000000D01*
%TO.N,GPIO_21*%
X168494000Y-82885150D02*
X175650000Y-75729150D01*
X163070850Y-75729150D02*
X175650000Y-75729150D01*
X162500001Y-76299999D02*
X163070850Y-75729150D01*
X168494000Y-86906000D02*
X168494000Y-82885150D01*
X162500001Y-81527600D02*
X162500001Y-76299999D01*
%TO.N,GPIO_22*%
X158650000Y-76350000D02*
X161500000Y-73500000D01*
X161500000Y-73500000D02*
X166890850Y-68109150D01*
X161500000Y-81527600D02*
X161500000Y-73500000D01*
X158650000Y-84862000D02*
X158650000Y-76350000D01*
X160694000Y-86906000D02*
X158650000Y-84862000D01*
X166890850Y-68109150D02*
X175650000Y-68109150D01*
%TO.N,GPIO_32*%
X164950000Y-90150000D02*
X166400000Y-91600000D01*
X164300000Y-90150000D02*
X164950000Y-90150000D01*
X166400000Y-91600000D02*
X166400000Y-92800000D01*
%TO.N,GPIO_33*%
X158800000Y-91200000D02*
X159200000Y-91600000D01*
X158800000Y-90700000D02*
X158800000Y-91200000D01*
X159200000Y-91600000D02*
X159200000Y-92706000D01*
%TO.N,GPIO_5*%
X159200000Y-110306000D02*
X162694000Y-110306000D01*
X162694000Y-110306000D02*
X165200000Y-107800000D01*
X171400000Y-87200000D02*
X174339150Y-87200000D01*
X174339150Y-87200000D02*
X175650000Y-85889150D01*
X168800000Y-107800000D02*
X168800000Y-89800000D01*
X168800000Y-117400000D02*
X172529150Y-121129150D01*
X168800000Y-89800000D02*
X171400000Y-87200000D01*
X168800000Y-107800000D02*
X168800000Y-117400000D01*
X172529150Y-121129150D02*
X175750000Y-121129150D01*
X165200000Y-107800000D02*
X168800000Y-107800000D01*
%TO.N,GPIO_19*%
X139000000Y-54050000D02*
X177800000Y-54050000D01*
X177800000Y-54050000D02*
X177800000Y-78659150D01*
X177800000Y-78659150D02*
X175650000Y-80809150D01*
%TD*%
%TA.AperFunction,Conductor*%
%TO.N,-Vin*%
G36*
X134422681Y-68929685D02*
G01*
X134468436Y-68982489D01*
X134479641Y-69034358D01*
X134399999Y-96649999D01*
X134400000Y-96649999D01*
X134400000Y-96650000D01*
X142221906Y-96838975D01*
X142288445Y-96860272D01*
X142332912Y-96914166D01*
X142342893Y-96964739D01*
X142303017Y-99709881D01*
X142282361Y-99776628D01*
X142228898Y-99821611D01*
X142186765Y-99831839D01*
X139090760Y-100025340D01*
X138036713Y-100091218D01*
X138036711Y-100091218D01*
X138036700Y-100091219D01*
X137928159Y-100110033D01*
X137928144Y-100110036D01*
X137876543Y-100124919D01*
X137774655Y-100166798D01*
X137659424Y-100252940D01*
X137609973Y-100302326D01*
X137597144Y-100319440D01*
X137541181Y-100361273D01*
X137500880Y-100369026D01*
X135200000Y-100423809D01*
X135200000Y-100423810D01*
X135200000Y-113400000D01*
X136719678Y-113400000D01*
X136786717Y-113419685D01*
X136832472Y-113472489D01*
X136842416Y-113541647D01*
X136813391Y-113605203D01*
X136788569Y-113627102D01*
X136709760Y-113679760D01*
X136654505Y-113762455D01*
X136654503Y-113762459D01*
X136640000Y-113835371D01*
X136640000Y-114085000D01*
X138960000Y-114085000D01*
X138960000Y-113835373D01*
X138959999Y-113835371D01*
X138945496Y-113762459D01*
X138945494Y-113762455D01*
X138890239Y-113679760D01*
X138811431Y-113627102D01*
X138766626Y-113573490D01*
X138757919Y-113504165D01*
X138788073Y-113441138D01*
X138847516Y-113404418D01*
X138880322Y-113400000D01*
X141276000Y-113400000D01*
X141343039Y-113419685D01*
X141388794Y-113472489D01*
X141400000Y-113524000D01*
X141400000Y-127676000D01*
X141380315Y-127743039D01*
X141327511Y-127788794D01*
X141276000Y-127800000D01*
X102924000Y-127800000D01*
X102856961Y-127780315D01*
X102811206Y-127727511D01*
X102800000Y-127676000D01*
X102800000Y-119472682D01*
X104425000Y-119472682D01*
X104425000Y-119677317D01*
X104457009Y-119879417D01*
X104520244Y-120074031D01*
X104579447Y-120190221D01*
X105041711Y-119727957D01*
X105051901Y-119779182D01*
X105104668Y-119906574D01*
X105181274Y-120021224D01*
X105278776Y-120118726D01*
X105393426Y-120195332D01*
X105520818Y-120248099D01*
X105572041Y-120258288D01*
X105109776Y-120720551D01*
X105225968Y-120779755D01*
X105420582Y-120842990D01*
X105622683Y-120875000D01*
X105827317Y-120875000D01*
X106029417Y-120842990D01*
X106224025Y-120779756D01*
X106340222Y-120720551D01*
X105877959Y-120258288D01*
X105929182Y-120248099D01*
X106056574Y-120195332D01*
X106171224Y-120118726D01*
X106268726Y-120021224D01*
X106345332Y-119906574D01*
X106398099Y-119779182D01*
X106408288Y-119727959D01*
X106870551Y-120190222D01*
X106929756Y-120074025D01*
X106992990Y-119879417D01*
X107025000Y-119677317D01*
X107025000Y-119472682D01*
X106992990Y-119270582D01*
X106929755Y-119075968D01*
X106870551Y-118959776D01*
X106408287Y-119422040D01*
X106398099Y-119370818D01*
X106345332Y-119243426D01*
X106268726Y-119128776D01*
X106171224Y-119031274D01*
X106056574Y-118954668D01*
X105929182Y-118901901D01*
X105877958Y-118891711D01*
X106340221Y-118429447D01*
X106224031Y-118370244D01*
X106029417Y-118307009D01*
X105827317Y-118275000D01*
X105622683Y-118275000D01*
X105420582Y-118307009D01*
X105225972Y-118370243D01*
X105225965Y-118370246D01*
X105109776Y-118429446D01*
X105572041Y-118891711D01*
X105520818Y-118901901D01*
X105393426Y-118954668D01*
X105278776Y-119031274D01*
X105181274Y-119128776D01*
X105104668Y-119243426D01*
X105051901Y-119370818D01*
X105041711Y-119422041D01*
X104579446Y-118959776D01*
X104520246Y-119075965D01*
X104520243Y-119075972D01*
X104457009Y-119270582D01*
X104425000Y-119472682D01*
X102800000Y-119472682D01*
X102800000Y-117724000D01*
X102819685Y-117656961D01*
X102872489Y-117611206D01*
X102924000Y-117600000D01*
X109676000Y-117600000D01*
X109743039Y-117619685D01*
X109788794Y-117672489D01*
X109800000Y-117724000D01*
X109800000Y-121400000D01*
X115400000Y-121400000D01*
X115400000Y-121206002D01*
X119503476Y-121206002D01*
X119547746Y-121228560D01*
X119547749Y-121228561D01*
X119712413Y-121282063D01*
X119883429Y-121309150D01*
X120056571Y-121309150D01*
X120227584Y-121282064D01*
X120392251Y-121228559D01*
X120436523Y-121206002D01*
X119970001Y-120739480D01*
X119970000Y-120739480D01*
X119503476Y-121206002D01*
X115400000Y-121206002D01*
X115400000Y-121106019D01*
X115419685Y-121038980D01*
X115426462Y-121029454D01*
X116138472Y-120122578D01*
X118870000Y-120122578D01*
X118870000Y-120295721D01*
X118897086Y-120466735D01*
X118897086Y-120466738D01*
X118950589Y-120631401D01*
X118950589Y-120631402D01*
X118973146Y-120675673D01*
X119439670Y-120209150D01*
X119439670Y-120209149D01*
X119387010Y-120156489D01*
X119570000Y-120156489D01*
X119570000Y-120261811D01*
X119597259Y-120363544D01*
X119649920Y-120454756D01*
X119724394Y-120529230D01*
X119815606Y-120581891D01*
X119917339Y-120609150D01*
X120022661Y-120609150D01*
X120124394Y-120581891D01*
X120215606Y-120529230D01*
X120290080Y-120454756D01*
X120342741Y-120363544D01*
X120370000Y-120261811D01*
X120370000Y-120209149D01*
X120500330Y-120209149D01*
X120500330Y-120209151D01*
X120966852Y-120675673D01*
X120989410Y-120631401D01*
X120990370Y-120628446D01*
X120991041Y-120627463D01*
X120991275Y-120626900D01*
X120991393Y-120626949D01*
X121029802Y-120570767D01*
X121094159Y-120543563D01*
X121163006Y-120555472D01*
X121214486Y-120602712D01*
X121226234Y-120628434D01*
X121234309Y-120653287D01*
X121258444Y-120727564D01*
X121354951Y-120916970D01*
X121479890Y-121088936D01*
X121630213Y-121239259D01*
X121802179Y-121364198D01*
X121802181Y-121364199D01*
X121802184Y-121364201D01*
X121991588Y-121460707D01*
X122193757Y-121526396D01*
X122403713Y-121559650D01*
X122403714Y-121559650D01*
X122616286Y-121559650D01*
X122616287Y-121559650D01*
X122826243Y-121526396D01*
X123028412Y-121460707D01*
X123217816Y-121364201D01*
X123330869Y-121282064D01*
X123389786Y-121239259D01*
X123389788Y-121239256D01*
X123389792Y-121239254D01*
X123540104Y-121088942D01*
X123540106Y-121088938D01*
X123540109Y-121088936D01*
X123665048Y-120916970D01*
X123665047Y-120916970D01*
X123665051Y-120916966D01*
X123761557Y-120727562D01*
X123827246Y-120525393D01*
X123860500Y-120315437D01*
X123860500Y-120102863D01*
X136399500Y-120102863D01*
X136399500Y-120315437D01*
X136432754Y-120525393D01*
X136474309Y-120653287D01*
X136498444Y-120727564D01*
X136594951Y-120916970D01*
X136719890Y-121088936D01*
X136870213Y-121239259D01*
X137042179Y-121364198D01*
X137042181Y-121364199D01*
X137042184Y-121364201D01*
X137231588Y-121460707D01*
X137433757Y-121526396D01*
X137643713Y-121559650D01*
X137643714Y-121559650D01*
X137856286Y-121559650D01*
X137856287Y-121559650D01*
X138066243Y-121526396D01*
X138268412Y-121460707D01*
X138457816Y-121364201D01*
X138570869Y-121282064D01*
X138629786Y-121239259D01*
X138629788Y-121239256D01*
X138629792Y-121239254D01*
X138780104Y-121088942D01*
X138780106Y-121088938D01*
X138780109Y-121088936D01*
X138905048Y-120916970D01*
X138905047Y-120916970D01*
X138905051Y-120916966D01*
X139001557Y-120727562D01*
X139067246Y-120525393D01*
X139100500Y-120315437D01*
X139100500Y-120102863D01*
X139067246Y-119892907D01*
X139001557Y-119690738D01*
X138905051Y-119501334D01*
X138905049Y-119501331D01*
X138905048Y-119501329D01*
X138780109Y-119329363D01*
X138629786Y-119179040D01*
X138457820Y-119054101D01*
X138268414Y-118957594D01*
X138268413Y-118957593D01*
X138268412Y-118957593D01*
X138066243Y-118891904D01*
X138066241Y-118891903D01*
X138066240Y-118891903D01*
X137904957Y-118866358D01*
X137856287Y-118858650D01*
X137643713Y-118858650D01*
X137595042Y-118866358D01*
X137433760Y-118891903D01*
X137231585Y-118957594D01*
X137042179Y-119054101D01*
X136870213Y-119179040D01*
X136719890Y-119329363D01*
X136594951Y-119501329D01*
X136498444Y-119690735D01*
X136432753Y-119892910D01*
X136404067Y-120074031D01*
X136399500Y-120102863D01*
X123860500Y-120102863D01*
X123827246Y-119892907D01*
X123761557Y-119690738D01*
X123665051Y-119501334D01*
X123665049Y-119501331D01*
X123665048Y-119501329D01*
X123540109Y-119329363D01*
X123389786Y-119179040D01*
X123217820Y-119054101D01*
X123028414Y-118957594D01*
X123028413Y-118957593D01*
X123028412Y-118957593D01*
X122826243Y-118891904D01*
X122826241Y-118891903D01*
X122826240Y-118891903D01*
X122664957Y-118866358D01*
X122616287Y-118858650D01*
X122403713Y-118858650D01*
X122355042Y-118866358D01*
X122193760Y-118891903D01*
X121991585Y-118957594D01*
X121802179Y-119054101D01*
X121630213Y-119179040D01*
X121479890Y-119329363D01*
X121354951Y-119501329D01*
X121258444Y-119690733D01*
X121226235Y-119789863D01*
X121186797Y-119847538D01*
X121122438Y-119874736D01*
X121053592Y-119862821D01*
X121002116Y-119815576D01*
X120990370Y-119789852D01*
X120989410Y-119786897D01*
X120989410Y-119786896D01*
X120966852Y-119742626D01*
X120500330Y-120209149D01*
X120370000Y-120209149D01*
X120370000Y-120156489D01*
X120342741Y-120054756D01*
X120290080Y-119963544D01*
X120215606Y-119889070D01*
X120124394Y-119836409D01*
X120022661Y-119809150D01*
X119917339Y-119809150D01*
X119815606Y-119836409D01*
X119724394Y-119889070D01*
X119649920Y-119963544D01*
X119597259Y-120054756D01*
X119570000Y-120156489D01*
X119387010Y-120156489D01*
X118973146Y-119742625D01*
X118950589Y-119786898D01*
X118950588Y-119786901D01*
X118897086Y-119951561D01*
X118897086Y-119951564D01*
X118870000Y-120122578D01*
X116138472Y-120122578D01*
X116853156Y-119212296D01*
X119503475Y-119212296D01*
X119970000Y-119678820D01*
X119970001Y-119678820D01*
X120436523Y-119212296D01*
X120436523Y-119212295D01*
X120392252Y-119189739D01*
X120227586Y-119136236D01*
X120056571Y-119109150D01*
X119883429Y-119109150D01*
X119712414Y-119136236D01*
X119712411Y-119136236D01*
X119547751Y-119189738D01*
X119547748Y-119189739D01*
X119503475Y-119212296D01*
X116853156Y-119212296D01*
X120093887Y-115084628D01*
X136640000Y-115084628D01*
X136654503Y-115157540D01*
X136654505Y-115157544D01*
X136709760Y-115240239D01*
X136792455Y-115295494D01*
X136792459Y-115295496D01*
X136865371Y-115309999D01*
X136865374Y-115310000D01*
X137425000Y-115310000D01*
X138175000Y-115310000D01*
X138734626Y-115310000D01*
X138734628Y-115309999D01*
X138807540Y-115295496D01*
X138807544Y-115295494D01*
X138890239Y-115240239D01*
X138945494Y-115157544D01*
X138945496Y-115157540D01*
X138959999Y-115084628D01*
X138960000Y-115084626D01*
X138960000Y-114835000D01*
X138175000Y-114835000D01*
X138175000Y-115310000D01*
X137425000Y-115310000D01*
X137425000Y-114835000D01*
X136640000Y-114835000D01*
X136640000Y-115084628D01*
X120093887Y-115084628D01*
X124400000Y-109600000D01*
X124600000Y-101000000D01*
X124600000Y-100999999D01*
X118524087Y-101004260D01*
X118457034Y-100984622D01*
X118411242Y-100931851D01*
X118400000Y-100880260D01*
X118400000Y-99707936D01*
X118419685Y-99640897D01*
X118472489Y-99595142D01*
X118541647Y-99585198D01*
X118592891Y-99604834D01*
X118631556Y-99630669D01*
X118813410Y-99705995D01*
X118813420Y-99705998D01*
X119006475Y-99744400D01*
X119203324Y-99744400D01*
X119396380Y-99705998D01*
X119396393Y-99705994D01*
X119494730Y-99665260D01*
X119494730Y-99665259D01*
X119271151Y-99441680D01*
X128600448Y-99441680D01*
X128704813Y-99484910D01*
X128704817Y-99484911D01*
X128900322Y-99523799D01*
X128900326Y-99523800D01*
X129099674Y-99523800D01*
X129099677Y-99523799D01*
X129295183Y-99484911D01*
X129295198Y-99484907D01*
X129399551Y-99441681D01*
X129399551Y-99441680D01*
X140350448Y-99441680D01*
X140454813Y-99484910D01*
X140454817Y-99484911D01*
X140650322Y-99523799D01*
X140650326Y-99523800D01*
X140849674Y-99523800D01*
X140849677Y-99523799D01*
X141045183Y-99484911D01*
X141045198Y-99484907D01*
X141149551Y-99441681D01*
X141149551Y-99441680D01*
X140750001Y-99042130D01*
X140750000Y-99042130D01*
X140350448Y-99441680D01*
X129399551Y-99441680D01*
X129000001Y-99042130D01*
X129000000Y-99042130D01*
X128600448Y-99441680D01*
X119271151Y-99441680D01*
X119069871Y-99240400D01*
X119170107Y-99240400D01*
X119296079Y-99206646D01*
X119409021Y-99141439D01*
X119501239Y-99049221D01*
X119566446Y-98936279D01*
X119600200Y-98810307D01*
X119600200Y-98745099D01*
X119635230Y-98745099D01*
X119635230Y-98745101D01*
X120025059Y-99134930D01*
X120025060Y-99134930D01*
X120065794Y-99036593D01*
X120065798Y-99036580D01*
X120104200Y-98843524D01*
X120104200Y-98646675D01*
X120065798Y-98453620D01*
X120065797Y-98453618D01*
X120065745Y-98453491D01*
X120065744Y-98453489D01*
X120048609Y-98412122D01*
X127988000Y-98412122D01*
X127988000Y-98611477D01*
X128026888Y-98806982D01*
X128026890Y-98806990D01*
X128070118Y-98911351D01*
X128469670Y-98511800D01*
X128469670Y-98511799D01*
X128402791Y-98444920D01*
X128492000Y-98444920D01*
X128492000Y-98578680D01*
X128526619Y-98707881D01*
X128593498Y-98823720D01*
X128688080Y-98918302D01*
X128803919Y-98985181D01*
X128933120Y-99019800D01*
X129066880Y-99019800D01*
X129196081Y-98985181D01*
X129311920Y-98918302D01*
X129406502Y-98823720D01*
X129473381Y-98707881D01*
X129508000Y-98578680D01*
X129508000Y-98511799D01*
X129530330Y-98511799D01*
X129530330Y-98511800D01*
X129929880Y-98911351D01*
X129929881Y-98911351D01*
X129973107Y-98806998D01*
X129973111Y-98806983D01*
X130011999Y-98611477D01*
X130012000Y-98611474D01*
X130012000Y-98412126D01*
X130011999Y-98412122D01*
X139738000Y-98412122D01*
X139738000Y-98611477D01*
X139776888Y-98806982D01*
X139776890Y-98806990D01*
X139820118Y-98911351D01*
X140219670Y-98511800D01*
X140219670Y-98511799D01*
X140152791Y-98444920D01*
X140242000Y-98444920D01*
X140242000Y-98578680D01*
X140276619Y-98707881D01*
X140343498Y-98823720D01*
X140438080Y-98918302D01*
X140553919Y-98985181D01*
X140683120Y-99019800D01*
X140816880Y-99019800D01*
X140946081Y-98985181D01*
X141061920Y-98918302D01*
X141156502Y-98823720D01*
X141223381Y-98707881D01*
X141258000Y-98578680D01*
X141258000Y-98511799D01*
X141280330Y-98511799D01*
X141280330Y-98511800D01*
X141679880Y-98911351D01*
X141679881Y-98911351D01*
X141723107Y-98806998D01*
X141723111Y-98806983D01*
X141761999Y-98611477D01*
X141762000Y-98611474D01*
X141762000Y-98412126D01*
X141761999Y-98412122D01*
X141723111Y-98216617D01*
X141723110Y-98216613D01*
X141679880Y-98112248D01*
X141280330Y-98511799D01*
X141258000Y-98511799D01*
X141258000Y-98444920D01*
X141223381Y-98315719D01*
X141156502Y-98199880D01*
X141061920Y-98105298D01*
X140946081Y-98038419D01*
X140816880Y-98003800D01*
X140683120Y-98003800D01*
X140553919Y-98038419D01*
X140438080Y-98105298D01*
X140343498Y-98199880D01*
X140276619Y-98315719D01*
X140242000Y-98444920D01*
X140152791Y-98444920D01*
X139820118Y-98112247D01*
X139776890Y-98216609D01*
X139776888Y-98216617D01*
X139738000Y-98412122D01*
X130011999Y-98412122D01*
X129973111Y-98216617D01*
X129973110Y-98216613D01*
X129929880Y-98112248D01*
X129530330Y-98511799D01*
X129508000Y-98511799D01*
X129508000Y-98444920D01*
X129473381Y-98315719D01*
X129406502Y-98199880D01*
X129311920Y-98105298D01*
X129196081Y-98038419D01*
X129066880Y-98003800D01*
X128933120Y-98003800D01*
X128803919Y-98038419D01*
X128688080Y-98105298D01*
X128593498Y-98199880D01*
X128526619Y-98315719D01*
X128492000Y-98444920D01*
X128402791Y-98444920D01*
X128070118Y-98112247D01*
X128026890Y-98216609D01*
X128026888Y-98216617D01*
X127988000Y-98412122D01*
X120048609Y-98412122D01*
X120025059Y-98355269D01*
X119635230Y-98745099D01*
X119600200Y-98745099D01*
X119600200Y-98679893D01*
X119566446Y-98553921D01*
X119501239Y-98440979D01*
X119409021Y-98348761D01*
X119296079Y-98283554D01*
X119170107Y-98249800D01*
X119069870Y-98249800D01*
X119494730Y-97824939D01*
X119396385Y-97784203D01*
X119396379Y-97784201D01*
X119203324Y-97745800D01*
X119006476Y-97745800D01*
X118813420Y-97784201D01*
X118813410Y-97784204D01*
X118631555Y-97859530D01*
X118631553Y-97859531D01*
X118592889Y-97885366D01*
X118526212Y-97906243D01*
X118458832Y-97887758D01*
X118412142Y-97835778D01*
X118400000Y-97782263D01*
X118400000Y-97581918D01*
X128600447Y-97581918D01*
X129000000Y-97981470D01*
X129000001Y-97981470D01*
X129399551Y-97581918D01*
X140350447Y-97581918D01*
X140750000Y-97981470D01*
X140750001Y-97981470D01*
X141149551Y-97581918D01*
X141045190Y-97538690D01*
X141045182Y-97538688D01*
X140849677Y-97499800D01*
X140650322Y-97499800D01*
X140454817Y-97538688D01*
X140454809Y-97538690D01*
X140350447Y-97581918D01*
X129399551Y-97581918D01*
X129295190Y-97538690D01*
X129295182Y-97538688D01*
X129099677Y-97499800D01*
X128900322Y-97499800D01*
X128704817Y-97538688D01*
X128704809Y-97538690D01*
X128600447Y-97581918D01*
X118400000Y-97581918D01*
X118400000Y-97121360D01*
X118419685Y-97054321D01*
X118472489Y-97008566D01*
X118524026Y-96997360D01*
X130600000Y-97000000D01*
X130154652Y-94134929D01*
X130163806Y-94065663D01*
X130177908Y-94041584D01*
X130205796Y-94004331D01*
X130256091Y-93869483D01*
X130262500Y-93809873D01*
X130262499Y-92190128D01*
X130256091Y-92130517D01*
X130232724Y-92067868D01*
X130205797Y-91995671D01*
X130205793Y-91995664D01*
X130119547Y-91880455D01*
X130119544Y-91880452D01*
X130004335Y-91794206D01*
X130004328Y-91794202D01*
X129869482Y-91743908D01*
X129861938Y-91742126D01*
X129862664Y-91739051D01*
X129811536Y-91717821D01*
X129771738Y-91660394D01*
X129766900Y-91640396D01*
X129547442Y-90228544D01*
X129556596Y-90159277D01*
X129601746Y-90105955D01*
X129668557Y-90085507D01*
X129669861Y-90085499D01*
X131022872Y-90085499D01*
X131082483Y-90079091D01*
X131217331Y-90028796D01*
X131332546Y-89942546D01*
X131418796Y-89827331D01*
X131469091Y-89692483D01*
X131475500Y-89632873D01*
X131475499Y-88147128D01*
X131469091Y-88087517D01*
X131437984Y-88004116D01*
X131418797Y-87952671D01*
X131418793Y-87952664D01*
X131332547Y-87837455D01*
X131332544Y-87837452D01*
X131217335Y-87751206D01*
X131217328Y-87751202D01*
X131082482Y-87700908D01*
X131082483Y-87700908D01*
X131022883Y-87694501D01*
X131022881Y-87694500D01*
X131022873Y-87694500D01*
X131022865Y-87694500D01*
X129259764Y-87694500D01*
X129226908Y-87684852D01*
X129193919Y-87675573D01*
X129193430Y-87675022D01*
X129192725Y-87674815D01*
X129170333Y-87648973D01*
X129147564Y-87623295D01*
X129147280Y-87622369D01*
X129146970Y-87622011D01*
X129137235Y-87589546D01*
X129113686Y-87438046D01*
X129122840Y-87368778D01*
X129167990Y-87315456D01*
X129234801Y-87295008D01*
X129236215Y-87295000D01*
X129555000Y-87295000D01*
X130305000Y-87295000D01*
X130999626Y-87295000D01*
X130999628Y-87294999D01*
X131072540Y-87280496D01*
X131072544Y-87280494D01*
X131155239Y-87225239D01*
X131210494Y-87142544D01*
X131210496Y-87142540D01*
X131224999Y-87069628D01*
X131225000Y-87069626D01*
X131225000Y-86725000D01*
X130305000Y-86725000D01*
X130305000Y-87295000D01*
X129555000Y-87295000D01*
X129555000Y-85975000D01*
X130305000Y-85975000D01*
X131225000Y-85975000D01*
X131225000Y-85630373D01*
X131224999Y-85630371D01*
X131210496Y-85557459D01*
X131210494Y-85557455D01*
X131155239Y-85474760D01*
X131072544Y-85419505D01*
X131072540Y-85419503D01*
X130999627Y-85405000D01*
X130305000Y-85405000D01*
X130305000Y-85975000D01*
X129555000Y-85975000D01*
X129555000Y-85405000D01*
X129209535Y-85405000D01*
X129201266Y-85402572D01*
X129192747Y-85403858D01*
X129168250Y-85392877D01*
X129142496Y-85385315D01*
X129136854Y-85378804D01*
X129128990Y-85375279D01*
X129114317Y-85352794D01*
X129096741Y-85332511D01*
X129094515Y-85322452D01*
X129090805Y-85316766D01*
X129085538Y-85281868D01*
X129084478Y-85130367D01*
X129103693Y-85063191D01*
X129156176Y-85017068D01*
X129208471Y-85005499D01*
X131022872Y-85005499D01*
X131082483Y-84999091D01*
X131217331Y-84948796D01*
X131332546Y-84862546D01*
X131418796Y-84747331D01*
X131469091Y-84612483D01*
X131475500Y-84552873D01*
X131475499Y-83067128D01*
X131469091Y-83007517D01*
X131418796Y-82872669D01*
X131418795Y-82872668D01*
X131418793Y-82872664D01*
X131332547Y-82757455D01*
X131332544Y-82757452D01*
X131217335Y-82671206D01*
X131217328Y-82671202D01*
X131082482Y-82620908D01*
X131082483Y-82620908D01*
X131022883Y-82614501D01*
X131022881Y-82614500D01*
X131022873Y-82614500D01*
X131022865Y-82614500D01*
X129190020Y-82614500D01*
X129181751Y-82612072D01*
X129173231Y-82613358D01*
X129148734Y-82602377D01*
X129122981Y-82594815D01*
X129117338Y-82588303D01*
X129109474Y-82584778D01*
X129094801Y-82562293D01*
X129077226Y-82542011D01*
X129075000Y-82531952D01*
X129071290Y-82526266D01*
X129066023Y-82491370D01*
X129064964Y-82339866D01*
X129084180Y-82272691D01*
X129136662Y-82226568D01*
X129188961Y-82215000D01*
X129555000Y-82215000D01*
X130305000Y-82215000D01*
X130999626Y-82215000D01*
X130999628Y-82214999D01*
X131072540Y-82200496D01*
X131072544Y-82200494D01*
X131155239Y-82145239D01*
X131210494Y-82062544D01*
X131210496Y-82062540D01*
X131224999Y-81989628D01*
X131225000Y-81989626D01*
X131225000Y-81645000D01*
X130305000Y-81645000D01*
X130305000Y-82215000D01*
X129555000Y-82215000D01*
X129555000Y-81394000D01*
X129574685Y-81326961D01*
X129627489Y-81281206D01*
X129679000Y-81270000D01*
X129930000Y-81270000D01*
X129930000Y-81019000D01*
X129949685Y-80951961D01*
X130002489Y-80906206D01*
X130054000Y-80895000D01*
X131225000Y-80895000D01*
X131225000Y-80550373D01*
X131224999Y-80550371D01*
X131210496Y-80477459D01*
X131210494Y-80477455D01*
X131153991Y-80392891D01*
X131133113Y-80326213D01*
X131151598Y-80258833D01*
X131203577Y-80212143D01*
X131257093Y-80200000D01*
X131400000Y-80200000D01*
X131400000Y-79733402D01*
X131415170Y-79673971D01*
X131418793Y-79667334D01*
X131418796Y-79667331D01*
X131469091Y-79532483D01*
X131475500Y-79472873D01*
X131475499Y-77987128D01*
X131469091Y-77927517D01*
X131443309Y-77858393D01*
X131418797Y-77792672D01*
X131418796Y-77792669D01*
X131418793Y-77792665D01*
X131415168Y-77786026D01*
X131400000Y-77726598D01*
X131400000Y-77200000D01*
X131297184Y-77200000D01*
X131230145Y-77180315D01*
X131184390Y-77127511D01*
X131174446Y-77058353D01*
X131194081Y-77007110D01*
X131210495Y-76982543D01*
X131210496Y-76982540D01*
X131224999Y-76909628D01*
X131225000Y-76909626D01*
X131225000Y-76565000D01*
X130054000Y-76565000D01*
X129986961Y-76545315D01*
X129941206Y-76492511D01*
X129930000Y-76441000D01*
X129930000Y-76190000D01*
X129679000Y-76190000D01*
X129611961Y-76170315D01*
X129566206Y-76117511D01*
X129555000Y-76066000D01*
X129555000Y-75815000D01*
X130305000Y-75815000D01*
X131225000Y-75815000D01*
X131225000Y-75470373D01*
X131224999Y-75470371D01*
X131210496Y-75397459D01*
X131210494Y-75397455D01*
X131155239Y-75314760D01*
X131072544Y-75259505D01*
X131072540Y-75259503D01*
X130999627Y-75245000D01*
X130305000Y-75245000D01*
X130305000Y-75815000D01*
X129555000Y-75815000D01*
X129555000Y-75245000D01*
X128906617Y-75245000D01*
X128896995Y-75242174D01*
X128887048Y-75243446D01*
X128864029Y-75232494D01*
X128839578Y-75225315D01*
X128833012Y-75217738D01*
X128823955Y-75213429D01*
X128810510Y-75191768D01*
X128793823Y-75172511D01*
X128791414Y-75161004D01*
X128787107Y-75154066D01*
X128782632Y-75119056D01*
X128785008Y-74967550D01*
X128805740Y-74900833D01*
X128859255Y-74855911D01*
X128908987Y-74845499D01*
X131022872Y-74845499D01*
X131082483Y-74839091D01*
X131217331Y-74788796D01*
X131332546Y-74702546D01*
X131418796Y-74587331D01*
X131469091Y-74452483D01*
X131475500Y-74392873D01*
X131475499Y-72907128D01*
X131469091Y-72847517D01*
X131455606Y-72811363D01*
X131418797Y-72712671D01*
X131418793Y-72712664D01*
X131332547Y-72597455D01*
X131332544Y-72597452D01*
X131217335Y-72511206D01*
X131217328Y-72511202D01*
X131082482Y-72460908D01*
X131082483Y-72460908D01*
X131022883Y-72454501D01*
X131022881Y-72454500D01*
X131022873Y-72454500D01*
X131022865Y-72454500D01*
X128950375Y-72454500D01*
X128940752Y-72451674D01*
X128930805Y-72452946D01*
X128907788Y-72441995D01*
X128883336Y-72434815D01*
X128876769Y-72427236D01*
X128867713Y-72422928D01*
X128854270Y-72401271D01*
X128837581Y-72382011D01*
X128835171Y-72370503D01*
X128830865Y-72363565D01*
X128826391Y-72328568D01*
X128828767Y-72177050D01*
X128849500Y-72110333D01*
X128903015Y-72065412D01*
X128952751Y-72055000D01*
X129555000Y-72055000D01*
X130305000Y-72055000D01*
X130999626Y-72055000D01*
X130999628Y-72054999D01*
X131072540Y-72040496D01*
X131072544Y-72040494D01*
X131155239Y-71985239D01*
X131210494Y-71902544D01*
X131210496Y-71902540D01*
X131224999Y-71829628D01*
X131225000Y-71829626D01*
X131225000Y-71485000D01*
X130305000Y-71485000D01*
X130305000Y-72055000D01*
X129555000Y-72055000D01*
X129555000Y-70735000D01*
X130305000Y-70735000D01*
X131225000Y-70735000D01*
X131225000Y-70390373D01*
X131224999Y-70390371D01*
X131210496Y-70317459D01*
X131210494Y-70317455D01*
X131155239Y-70234760D01*
X131072544Y-70179505D01*
X131072540Y-70179503D01*
X130999627Y-70165000D01*
X130305000Y-70165000D01*
X130305000Y-70735000D01*
X129555000Y-70735000D01*
X129555000Y-70165000D01*
X128986279Y-70165000D01*
X128919240Y-70145315D01*
X128873485Y-70092511D01*
X128862294Y-70039058D01*
X128878086Y-69032056D01*
X128898820Y-68965333D01*
X128952335Y-68920412D01*
X129002071Y-68910000D01*
X134355642Y-68910000D01*
X134422681Y-68929685D01*
G37*
%TD.AperFunction*%
%TD*%
%TA.AperFunction,Conductor*%
%TO.N,/ramp_down_opto*%
G36*
X125662539Y-76919685D02*
G01*
X125708294Y-76972489D01*
X125719500Y-77024000D01*
X125719500Y-79626000D01*
X125719501Y-79626009D01*
X125731052Y-79733450D01*
X125731054Y-79733462D01*
X125742259Y-79784969D01*
X125768654Y-79864269D01*
X125775000Y-79903429D01*
X125775000Y-80500000D01*
X128260500Y-80500000D01*
X128327539Y-80519685D01*
X128373294Y-80572489D01*
X128384500Y-80624000D01*
X128384500Y-82012870D01*
X128384501Y-82012876D01*
X128390908Y-82072483D01*
X128441202Y-82207328D01*
X128441204Y-82207331D01*
X128525266Y-82319624D01*
X128549684Y-82385086D01*
X128550000Y-82393934D01*
X128550000Y-83100000D01*
X129037751Y-83100000D01*
X129054664Y-83101159D01*
X129063391Y-83102360D01*
X129104799Y-83114205D01*
X129147250Y-83113906D01*
X129156099Y-83115125D01*
X129156238Y-83115187D01*
X129156831Y-83115227D01*
X129190020Y-83120000D01*
X130845999Y-83120000D01*
X130854684Y-83122550D01*
X130863646Y-83121262D01*
X130887686Y-83132240D01*
X130913038Y-83139685D01*
X130918965Y-83146525D01*
X130927202Y-83150287D01*
X130941491Y-83172521D01*
X130958793Y-83192489D01*
X130961080Y-83203003D01*
X130964976Y-83209065D01*
X130969999Y-83244000D01*
X130969999Y-83438052D01*
X130969942Y-83441808D01*
X130941520Y-84379755D01*
X130919814Y-84446167D01*
X130865648Y-84490302D01*
X130817577Y-84499999D01*
X129208463Y-84499999D01*
X129099279Y-84511933D01*
X129046978Y-84523503D01*
X128942979Y-84558725D01*
X128884567Y-84596843D01*
X128817666Y-84616994D01*
X128815162Y-84616986D01*
X122922360Y-84539054D01*
X122855587Y-84518485D01*
X122810534Y-84465080D01*
X122800000Y-84415065D01*
X122800000Y-77024000D01*
X122819685Y-76956961D01*
X122872489Y-76911206D01*
X122924000Y-76900000D01*
X125595500Y-76900000D01*
X125662539Y-76919685D01*
G37*
%TD.AperFunction*%
%TD*%
%TA.AperFunction,Conductor*%
%TO.N,sim_home*%
G36*
X116297319Y-87503710D02*
G01*
X116404349Y-87516632D01*
X116436190Y-87524870D01*
X116528335Y-87562343D01*
X116556895Y-87578669D01*
X116642564Y-87644113D01*
X116654970Y-87654970D01*
X123047801Y-94047801D01*
X123058496Y-94059996D01*
X123123075Y-94144157D01*
X123139260Y-94172191D01*
X123176715Y-94262616D01*
X123185093Y-94293882D01*
X123198939Y-94399046D01*
X123200000Y-94415232D01*
X123200000Y-95991874D01*
X123198939Y-96008060D01*
X123185093Y-96113224D01*
X123176715Y-96144491D01*
X123139259Y-96234918D01*
X123123074Y-96262951D01*
X123063491Y-96340601D01*
X123040601Y-96363491D01*
X122962951Y-96423074D01*
X122934918Y-96439259D01*
X122844491Y-96476715D01*
X122813224Y-96485093D01*
X122762882Y-96491721D01*
X122746669Y-96492782D01*
X118524144Y-96491859D01*
X118454907Y-96499292D01*
X118441672Y-96500000D01*
X111500000Y-96500000D01*
X109785714Y-97785713D01*
X107500000Y-99499999D01*
X107500000Y-108190750D01*
X107480315Y-108257789D01*
X107427511Y-108303544D01*
X107358353Y-108313488D01*
X107294797Y-108284463D01*
X107259818Y-108234083D01*
X107218354Y-108122913D01*
X107218350Y-108122906D01*
X107132190Y-108007812D01*
X107132187Y-108007809D01*
X107017093Y-107921649D01*
X107017086Y-107921645D01*
X106882379Y-107871403D01*
X106882372Y-107871401D01*
X106822844Y-107865000D01*
X105975000Y-107865000D01*
X105975000Y-108760879D01*
X105929182Y-108741901D01*
X105793944Y-108715000D01*
X105656056Y-108715000D01*
X105520818Y-108741901D01*
X105475000Y-108760879D01*
X105475000Y-107865000D01*
X104627155Y-107865000D01*
X104567627Y-107871401D01*
X104567620Y-107871403D01*
X104432913Y-107921645D01*
X104432906Y-107921649D01*
X104317812Y-108007809D01*
X104317809Y-108007812D01*
X104231649Y-108122906D01*
X104231645Y-108122913D01*
X104181403Y-108257620D01*
X104181401Y-108257627D01*
X104175000Y-108317155D01*
X104175000Y-109165000D01*
X105070879Y-109165000D01*
X105051901Y-109210818D01*
X105025000Y-109346056D01*
X105025000Y-109483944D01*
X105051901Y-109619182D01*
X105070879Y-109665000D01*
X104175000Y-109665000D01*
X104175000Y-110512844D01*
X104181401Y-110572372D01*
X104181403Y-110572379D01*
X104231645Y-110707086D01*
X104231649Y-110707093D01*
X104317809Y-110822187D01*
X104317812Y-110822190D01*
X104432906Y-110908350D01*
X104432913Y-110908354D01*
X104567620Y-110958596D01*
X104567627Y-110958598D01*
X104627155Y-110964999D01*
X104627172Y-110965000D01*
X105475000Y-110965000D01*
X105475000Y-110069120D01*
X105520818Y-110088099D01*
X105656056Y-110115000D01*
X105793944Y-110115000D01*
X105929182Y-110088099D01*
X105975000Y-110069120D01*
X105975000Y-110965000D01*
X106822828Y-110965000D01*
X106822844Y-110964999D01*
X106882372Y-110958598D01*
X106882379Y-110958596D01*
X107017086Y-110908354D01*
X107017093Y-110908350D01*
X107132187Y-110822190D01*
X107132190Y-110822187D01*
X107218350Y-110707093D01*
X107218354Y-110707086D01*
X107259818Y-110595916D01*
X107301689Y-110539982D01*
X107367153Y-110515565D01*
X107435426Y-110530416D01*
X107484832Y-110579821D01*
X107500000Y-110639249D01*
X107500000Y-110991874D01*
X107498939Y-111008059D01*
X107498939Y-111008060D01*
X107485093Y-111113224D01*
X107476715Y-111144491D01*
X107439259Y-111234918D01*
X107423074Y-111262951D01*
X107363491Y-111340601D01*
X107340601Y-111363491D01*
X107262951Y-111423074D01*
X107234918Y-111439259D01*
X107144491Y-111476715D01*
X107113224Y-111485093D01*
X107019398Y-111497446D01*
X107008058Y-111498939D01*
X106991874Y-111500000D01*
X98508126Y-111500000D01*
X98491941Y-111498939D01*
X98478917Y-111497224D01*
X98386775Y-111485093D01*
X98355508Y-111476715D01*
X98265081Y-111439259D01*
X98237048Y-111423074D01*
X98159398Y-111363491D01*
X98136508Y-111340601D01*
X98076925Y-111262951D01*
X98060740Y-111234918D01*
X98023284Y-111144491D01*
X98014906Y-111113223D01*
X98001061Y-111008059D01*
X98000000Y-110991874D01*
X98000000Y-94433936D01*
X119919616Y-94433936D01*
X119919616Y-94433937D01*
X120384772Y-94899093D01*
X120431407Y-94936673D01*
X120562188Y-94996399D01*
X120704505Y-95016860D01*
X120846821Y-94996399D01*
X120977602Y-94936673D01*
X121024237Y-94899093D01*
X121252512Y-94670818D01*
X121252512Y-94670817D01*
X120467623Y-93885929D01*
X120467622Y-93885929D01*
X119919616Y-94433936D01*
X98000000Y-94433936D01*
X98000000Y-93295494D01*
X118983140Y-93295494D01*
X118983140Y-93295495D01*
X119003600Y-93437811D01*
X119063326Y-93568592D01*
X119100906Y-93615227D01*
X119100910Y-93615231D01*
X119566061Y-94080383D01*
X119566062Y-94080383D01*
X120114070Y-93532376D01*
X120114068Y-93532374D01*
X120821177Y-93532374D01*
X120821177Y-93532375D01*
X121606065Y-94317264D01*
X121606066Y-94317264D01*
X121834341Y-94088989D01*
X121871921Y-94042354D01*
X121931647Y-93911573D01*
X121952108Y-93769257D01*
X121952108Y-93769256D01*
X121931647Y-93626940D01*
X121871921Y-93496159D01*
X121834341Y-93449524D01*
X121834337Y-93449520D01*
X121369186Y-92984368D01*
X121369185Y-92984368D01*
X120821177Y-93532374D01*
X120114068Y-93532374D01*
X119329181Y-92747487D01*
X119329180Y-92747487D01*
X119100910Y-92975757D01*
X119063326Y-93022397D01*
X119003600Y-93153178D01*
X118983140Y-93295494D01*
X98000000Y-93295494D01*
X98000000Y-92393932D01*
X119682735Y-92393932D01*
X119682735Y-92393933D01*
X120467624Y-93178822D01*
X120467625Y-93178822D01*
X121015631Y-92630814D01*
X120550475Y-92165658D01*
X120503840Y-92128078D01*
X120373059Y-92068352D01*
X120230743Y-92047892D01*
X120088426Y-92068352D01*
X119957645Y-92128078D01*
X119911005Y-92165662D01*
X119682735Y-92393932D01*
X98000000Y-92393932D01*
X98000000Y-91008125D01*
X98001061Y-90991940D01*
X98008697Y-90933936D01*
X116419616Y-90933936D01*
X116419616Y-90933937D01*
X116884772Y-91399093D01*
X116931407Y-91436673D01*
X117062188Y-91496399D01*
X117204505Y-91516860D01*
X117346821Y-91496399D01*
X117477602Y-91436673D01*
X117524237Y-91399093D01*
X117752512Y-91170818D01*
X117752512Y-91170817D01*
X116967623Y-90385929D01*
X116967622Y-90385929D01*
X116419616Y-90933936D01*
X98008697Y-90933936D01*
X98014906Y-90886776D01*
X98023284Y-90855509D01*
X98031728Y-90835123D01*
X98031728Y-90835122D01*
X98060740Y-90765081D01*
X98076923Y-90737050D01*
X98136513Y-90659392D01*
X98159392Y-90636513D01*
X98237050Y-90576923D01*
X98265079Y-90560740D01*
X98355509Y-90523283D01*
X98386775Y-90514906D01*
X98491941Y-90501061D01*
X98508126Y-90500000D01*
X109000000Y-90500000D01*
X108939267Y-89795494D01*
X115483140Y-89795494D01*
X115483140Y-89795495D01*
X115503600Y-89937811D01*
X115563326Y-90068592D01*
X115600906Y-90115227D01*
X115600910Y-90115231D01*
X116066061Y-90580383D01*
X116066062Y-90580383D01*
X116614070Y-90032376D01*
X116614068Y-90032374D01*
X117321177Y-90032374D01*
X117321177Y-90032375D01*
X118106065Y-90817264D01*
X118106066Y-90817264D01*
X118334341Y-90588989D01*
X118371921Y-90542354D01*
X118431647Y-90411573D01*
X118452108Y-90269257D01*
X118452108Y-90269256D01*
X118431647Y-90126940D01*
X118371921Y-89996159D01*
X118334341Y-89949524D01*
X118334337Y-89949520D01*
X117869186Y-89484368D01*
X117869185Y-89484368D01*
X117321177Y-90032374D01*
X116614068Y-90032374D01*
X115829181Y-89247487D01*
X115829180Y-89247487D01*
X115600910Y-89475757D01*
X115563326Y-89522397D01*
X115503600Y-89653178D01*
X115483140Y-89795494D01*
X108939267Y-89795494D01*
X108861546Y-88893932D01*
X116182735Y-88893932D01*
X116182735Y-88893933D01*
X116967624Y-89678822D01*
X116967625Y-89678822D01*
X117515631Y-89130814D01*
X117050475Y-88665658D01*
X117003840Y-88628078D01*
X116873059Y-88568352D01*
X116730743Y-88547892D01*
X116588426Y-88568352D01*
X116457645Y-88628078D01*
X116411005Y-88665662D01*
X116182735Y-88893932D01*
X108861546Y-88893932D01*
X108796933Y-88144428D01*
X108796637Y-88127475D01*
X108802293Y-88016644D01*
X108808623Y-87983378D01*
X108841311Y-87886360D01*
X108856403Y-87856046D01*
X108914124Y-87771486D01*
X108936854Y-87746389D01*
X109015301Y-87680601D01*
X109043970Y-87662592D01*
X109137303Y-87620478D01*
X109169764Y-87610901D01*
X109279504Y-87594327D01*
X109296397Y-87592949D01*
X116280872Y-87502827D01*
X116297319Y-87503710D01*
G37*
%TD.AperFunction*%
%TD*%
%TA.AperFunction,Conductor*%
%TO.N,+24V*%
G36*
X114043039Y-97025185D02*
G01*
X114088794Y-97077989D01*
X114100000Y-97129500D01*
X114100000Y-97375097D01*
X114080315Y-97442136D01*
X114027511Y-97487891D01*
X113995398Y-97497570D01*
X113812353Y-97526561D01*
X113625337Y-97587326D01*
X113625334Y-97587327D01*
X113450120Y-97676605D01*
X113415275Y-97701921D01*
X113415275Y-97701923D01*
X113979327Y-98265974D01*
X113913721Y-98283554D01*
X113800779Y-98348761D01*
X113708561Y-98440979D01*
X113643354Y-98553921D01*
X113625774Y-98619527D01*
X113061723Y-98055475D01*
X113061721Y-98055475D01*
X113036405Y-98090320D01*
X112947127Y-98265534D01*
X112947126Y-98265537D01*
X112886362Y-98452553D01*
X112855600Y-98646778D01*
X112855600Y-98843421D01*
X112886362Y-99037646D01*
X112947126Y-99224662D01*
X112947127Y-99224665D01*
X113036402Y-99399875D01*
X113061722Y-99434723D01*
X113061722Y-99434724D01*
X113625774Y-98870672D01*
X113643354Y-98936279D01*
X113708561Y-99049221D01*
X113800779Y-99141439D01*
X113913721Y-99206646D01*
X113979326Y-99224224D01*
X113415275Y-99788276D01*
X113415275Y-99788277D01*
X113450123Y-99813596D01*
X113625334Y-99902872D01*
X113625337Y-99902873D01*
X113812353Y-99963637D01*
X113995398Y-99992629D01*
X114058532Y-100022558D01*
X114095464Y-100081869D01*
X114100000Y-100115102D01*
X114100000Y-104631400D01*
X114097449Y-104640085D01*
X114098738Y-104649047D01*
X114087759Y-104673087D01*
X114080315Y-104698439D01*
X114073474Y-104704366D01*
X114069713Y-104712603D01*
X114047478Y-104726892D01*
X114027511Y-104744194D01*
X114016996Y-104746481D01*
X114010935Y-104750377D01*
X113976000Y-104755400D01*
X113728900Y-104755400D01*
X113661861Y-104735715D01*
X113616106Y-104682911D01*
X113604900Y-104631400D01*
X113604900Y-104129100D01*
X110395100Y-104129100D01*
X110395100Y-104631400D01*
X110375415Y-104698439D01*
X110322611Y-104744194D01*
X110271100Y-104755400D01*
X110056900Y-104755400D01*
X110056900Y-104876000D01*
X110037215Y-104943039D01*
X109984411Y-104988794D01*
X109932900Y-105000000D01*
X108129500Y-105000000D01*
X108062461Y-104980315D01*
X108016706Y-104927511D01*
X108005500Y-104876000D01*
X108005500Y-103005755D01*
X110395100Y-103005755D01*
X110395100Y-103629100D01*
X111750000Y-103629100D01*
X112250000Y-103629100D01*
X113604900Y-103629100D01*
X113604900Y-103005772D01*
X113604899Y-103005755D01*
X113598498Y-102946227D01*
X113598496Y-102946220D01*
X113548254Y-102811513D01*
X113548250Y-102811506D01*
X113462090Y-102696412D01*
X113462087Y-102696409D01*
X113346993Y-102610249D01*
X113346986Y-102610245D01*
X113212279Y-102560003D01*
X113212272Y-102560001D01*
X113152744Y-102553600D01*
X112250000Y-102553600D01*
X112250000Y-103629100D01*
X111750000Y-103629100D01*
X111750000Y-102553600D01*
X110847255Y-102553600D01*
X110787727Y-102560001D01*
X110787720Y-102560003D01*
X110653013Y-102610245D01*
X110653006Y-102610249D01*
X110537912Y-102696409D01*
X110537909Y-102696412D01*
X110451749Y-102811506D01*
X110451745Y-102811513D01*
X110401503Y-102946220D01*
X110401501Y-102946227D01*
X110395100Y-103005755D01*
X108005500Y-103005755D01*
X108005500Y-101549853D01*
X108025185Y-101482814D01*
X108046085Y-101458103D01*
X112908478Y-97037746D01*
X112971324Y-97007217D01*
X112991889Y-97005500D01*
X113976000Y-97005500D01*
X114043039Y-97025185D01*
G37*
%TD.AperFunction*%
%TD*%
%TA.AperFunction,Conductor*%
%TO.N,GPIO_33*%
G36*
X140725599Y-77242521D02*
G01*
X142362873Y-77297097D01*
X142429220Y-77319004D01*
X142432520Y-77321365D01*
X143031998Y-77765142D01*
X143074168Y-77820850D01*
X143075544Y-77824668D01*
X143634765Y-79459314D01*
X143634766Y-79459315D01*
X144111110Y-79483086D01*
X144111112Y-79483087D01*
X144134144Y-79484236D01*
X144134145Y-79484237D01*
X147169936Y-79635739D01*
X149734926Y-79763746D01*
X150260330Y-80289150D01*
X150181541Y-80289150D01*
X150049288Y-80324587D01*
X149930713Y-80393046D01*
X149833896Y-80489863D01*
X149765437Y-80608438D01*
X149730000Y-80740691D01*
X149730000Y-80877609D01*
X149765437Y-81009862D01*
X149833896Y-81128437D01*
X149930713Y-81225254D01*
X150049288Y-81293713D01*
X150181541Y-81329150D01*
X150260328Y-81329150D01*
X149838335Y-81751143D01*
X149777012Y-81784628D01*
X149733014Y-81786201D01*
X149721181Y-81784500D01*
X149721179Y-81784500D01*
X142526428Y-81784500D01*
X142523201Y-81784458D01*
X142454626Y-81782672D01*
X141749450Y-81764308D01*
X141682946Y-81742885D01*
X141664809Y-81727843D01*
X141224156Y-81285292D01*
X141190802Y-81223897D01*
X141188054Y-81200494D01*
X141186253Y-81117648D01*
X141177528Y-80716276D01*
X149070000Y-80716276D01*
X149070000Y-80902023D01*
X149099055Y-81085468D01*
X149099055Y-81085471D01*
X149156450Y-81262111D01*
X149156450Y-81262112D01*
X149193665Y-81335153D01*
X149193666Y-81335153D01*
X149719670Y-80809150D01*
X149719670Y-80809149D01*
X149193665Y-80283145D01*
X149156450Y-80356187D01*
X149156450Y-80356188D01*
X149099055Y-80532828D01*
X149099055Y-80532831D01*
X149070000Y-80716276D01*
X141177528Y-80716276D01*
X141160867Y-79949882D01*
X141150000Y-79450000D01*
X140579000Y-79450000D01*
X140511961Y-79430315D01*
X140466206Y-79377511D01*
X140455000Y-79326000D01*
X140455000Y-79105000D01*
X139134000Y-79105000D01*
X139066961Y-79085315D01*
X139021206Y-79032511D01*
X139010000Y-78981000D01*
X139010000Y-78730000D01*
X138759000Y-78730000D01*
X138691961Y-78710315D01*
X138646206Y-78657511D01*
X138635000Y-78606000D01*
X138635000Y-78355000D01*
X139385000Y-78355000D01*
X140454999Y-78355000D01*
X140454999Y-78003520D01*
X140440164Y-77909850D01*
X140440162Y-77909844D01*
X140382643Y-77796958D01*
X140382636Y-77796949D01*
X140293050Y-77707363D01*
X140293046Y-77707360D01*
X140180144Y-77649833D01*
X140086486Y-77635000D01*
X139385000Y-77635000D01*
X139385000Y-78355000D01*
X138635000Y-78355000D01*
X138635000Y-77623223D01*
X138649532Y-77573730D01*
X138808092Y-77420367D01*
X138869962Y-77387911D01*
X138894292Y-77385499D01*
X140102872Y-77385499D01*
X140162483Y-77379091D01*
X140297331Y-77328796D01*
X140310411Y-77319004D01*
X140391037Y-77258648D01*
X140456501Y-77234230D01*
X140469467Y-77233983D01*
X140725599Y-77242521D01*
G37*
%TD.AperFunction*%
%TD*%
%TA.AperFunction,Conductor*%
%TO.N,GPIO_26*%
G36*
X150260330Y-85369150D02*
G01*
X150181541Y-85369150D01*
X150049288Y-85404587D01*
X149930713Y-85473046D01*
X149833896Y-85569863D01*
X149765437Y-85688438D01*
X149730000Y-85820691D01*
X149730000Y-85957609D01*
X149765437Y-86089862D01*
X149833896Y-86208437D01*
X149930713Y-86305254D01*
X150049288Y-86373713D01*
X150181541Y-86409150D01*
X150260328Y-86409150D01*
X149723996Y-86945482D01*
X149783625Y-86975865D01*
X149834421Y-87023839D01*
X149851216Y-87091660D01*
X149828679Y-87157795D01*
X149773964Y-87201247D01*
X149765340Y-87204381D01*
X149004905Y-87449268D01*
X144981776Y-88744851D01*
X144969917Y-88748031D01*
X144009221Y-88955299D01*
X143997106Y-88957291D01*
X141050289Y-89293004D01*
X141043282Y-89293602D01*
X140569113Y-89320524D01*
X140501066Y-89304671D01*
X140474403Y-89284404D01*
X140454999Y-89265000D01*
X139134000Y-89265000D01*
X139066961Y-89245315D01*
X139021206Y-89192511D01*
X139010000Y-89141000D01*
X139010000Y-88890000D01*
X138759000Y-88890000D01*
X138691961Y-88870315D01*
X138646206Y-88817511D01*
X138635000Y-88766000D01*
X138635000Y-88515000D01*
X139385000Y-88515000D01*
X140454999Y-88515000D01*
X140454999Y-88163520D01*
X140440164Y-88069850D01*
X140440162Y-88069844D01*
X140382643Y-87956958D01*
X140382636Y-87956949D01*
X140293050Y-87867363D01*
X140293046Y-87867360D01*
X140180144Y-87809833D01*
X140086486Y-87795000D01*
X139385000Y-87795000D01*
X139385000Y-88515000D01*
X138635000Y-88515000D01*
X138635000Y-87791933D01*
X138605203Y-87737365D01*
X138610187Y-87667673D01*
X138635221Y-87626938D01*
X138673523Y-87585418D01*
X138733445Y-87549492D01*
X138764656Y-87545499D01*
X140102872Y-87545499D01*
X140162483Y-87539091D01*
X140297329Y-87488797D01*
X140297331Y-87488796D01*
X140322214Y-87470167D01*
X140387675Y-87445749D01*
X140396267Y-87445434D01*
X141062351Y-87444216D01*
X141087848Y-86296844D01*
X141109017Y-86230260D01*
X141120795Y-86215392D01*
X141166982Y-86165468D01*
X141508536Y-85796276D01*
X149070000Y-85796276D01*
X149070000Y-85982023D01*
X149099055Y-86165468D01*
X149099055Y-86165471D01*
X149156450Y-86342111D01*
X149156450Y-86342112D01*
X149193665Y-86415153D01*
X149193666Y-86415153D01*
X149719670Y-85889150D01*
X149719670Y-85889149D01*
X149193665Y-85363145D01*
X149156450Y-85436187D01*
X149156450Y-85436188D01*
X149099055Y-85612828D01*
X149099055Y-85612831D01*
X149070000Y-85796276D01*
X141508536Y-85796276D01*
X141565601Y-85734593D01*
X141625576Y-85698751D01*
X141644244Y-85695421D01*
X145850123Y-85273650D01*
X149771581Y-84880401D01*
X150260330Y-85369150D01*
G37*
%TD.AperFunction*%
%TD*%
%TA.AperFunction,Conductor*%
%TO.N,GPIO_32*%
G36*
X147134478Y-72119685D02*
G01*
X147140547Y-72123844D01*
X147721172Y-72547680D01*
X147727595Y-72552368D01*
X147770137Y-72607793D01*
X147772587Y-72614733D01*
X148999998Y-76450597D01*
X148999998Y-76450598D01*
X148999999Y-76450599D01*
X149000000Y-76450601D01*
X149600000Y-77125300D01*
X149867735Y-77426369D01*
X150052838Y-77783635D01*
X150049288Y-77784587D01*
X149930713Y-77853046D01*
X149833896Y-77949863D01*
X149765437Y-78068438D01*
X149730000Y-78200691D01*
X149730000Y-78337609D01*
X149765437Y-78469862D01*
X149833896Y-78588437D01*
X149930713Y-78685254D01*
X150049288Y-78753713D01*
X150181541Y-78789150D01*
X150260327Y-78789150D01*
X149828063Y-79221415D01*
X149766740Y-79254900D01*
X149734201Y-79257580D01*
X147456458Y-79143908D01*
X147390483Y-79120906D01*
X147347417Y-79065887D01*
X147345407Y-79060466D01*
X147041014Y-78176276D01*
X149070000Y-78176276D01*
X149070000Y-78362023D01*
X149099055Y-78545468D01*
X149099055Y-78545471D01*
X149156450Y-78722111D01*
X149156450Y-78722112D01*
X149193665Y-78795153D01*
X149193666Y-78795153D01*
X149719670Y-78269150D01*
X149719670Y-78269149D01*
X149193665Y-77743145D01*
X149156450Y-77816187D01*
X149156450Y-77816188D01*
X149099055Y-77992828D01*
X149099055Y-77992831D01*
X149070000Y-78176276D01*
X147041014Y-78176276D01*
X146282986Y-75974387D01*
X145740984Y-74400000D01*
X140579000Y-74400000D01*
X140511961Y-74380315D01*
X140466206Y-74327511D01*
X140455000Y-74276000D01*
X140455000Y-74025000D01*
X139134000Y-74025000D01*
X139066961Y-74005315D01*
X139021206Y-73952511D01*
X139010000Y-73901000D01*
X139010000Y-73650000D01*
X138759000Y-73650000D01*
X138691961Y-73630315D01*
X138646206Y-73577511D01*
X138635000Y-73526000D01*
X138635000Y-73275000D01*
X139385000Y-73275000D01*
X140454999Y-73275000D01*
X140454999Y-72923520D01*
X140440164Y-72829850D01*
X140440162Y-72829844D01*
X140382643Y-72716958D01*
X140382636Y-72716949D01*
X140293050Y-72627363D01*
X140293046Y-72627360D01*
X140180144Y-72569833D01*
X140086486Y-72555000D01*
X139385000Y-72555000D01*
X139385000Y-73275000D01*
X138635000Y-73275000D01*
X138635000Y-72555000D01*
X138627680Y-72547680D01*
X138594195Y-72486357D01*
X138599179Y-72416665D01*
X138627676Y-72372323D01*
X138658184Y-72341815D01*
X138719503Y-72308333D01*
X138745855Y-72305499D01*
X140102872Y-72305499D01*
X140162483Y-72299091D01*
X140297331Y-72248796D01*
X140412546Y-72162546D01*
X140422171Y-72149687D01*
X140478104Y-72107818D01*
X140521437Y-72100000D01*
X147067439Y-72100000D01*
X147134478Y-72119685D01*
G37*
%TD.AperFunction*%
%TD*%
%TA.AperFunction,Conductor*%
%TO.N,+VIN-dc*%
G36*
X116143354Y-98936279D02*
G01*
X116208561Y-99049221D01*
X116300779Y-99141439D01*
X116413721Y-99206646D01*
X116479327Y-99224225D01*
X115915275Y-99788276D01*
X115915275Y-99788277D01*
X115950123Y-99813596D01*
X116125334Y-99902872D01*
X116125337Y-99902873D01*
X116312353Y-99963637D01*
X116506579Y-99994400D01*
X116703221Y-99994400D01*
X116897446Y-99963637D01*
X117084462Y-99902873D01*
X117084475Y-99902867D01*
X117259669Y-99813600D01*
X117259674Y-99813597D01*
X117294524Y-99788276D01*
X116730473Y-99224225D01*
X116796079Y-99206646D01*
X116909021Y-99141439D01*
X117001239Y-99049221D01*
X117066446Y-98936279D01*
X117084025Y-98870672D01*
X117648076Y-99434723D01*
X117666273Y-99433292D01*
X117734650Y-99447657D01*
X117784406Y-99496709D01*
X117800000Y-99556910D01*
X117800000Y-116380367D01*
X117780315Y-116447406D01*
X117727511Y-116493161D01*
X117677676Y-116504356D01*
X110723235Y-116598334D01*
X110655935Y-116579557D01*
X110609471Y-116527376D01*
X110597583Y-116476779D01*
X110571698Y-115156611D01*
X110590063Y-115089203D01*
X110641960Y-115042422D01*
X110710910Y-115031125D01*
X110768559Y-115053867D01*
X110888567Y-115141058D01*
X111065562Y-115231242D01*
X111254477Y-115292624D01*
X111450679Y-115323700D01*
X111649321Y-115323700D01*
X111845520Y-115292624D01*
X111845523Y-115292624D01*
X112034437Y-115231242D01*
X112211425Y-115141062D01*
X112248715Y-115113968D01*
X111685941Y-114551195D01*
X111746081Y-114535081D01*
X111861920Y-114468202D01*
X111956502Y-114373620D01*
X112023381Y-114257781D01*
X112039495Y-114197642D01*
X112602268Y-114760415D01*
X112629362Y-114723125D01*
X112719542Y-114546137D01*
X112780924Y-114357223D01*
X112780924Y-114357220D01*
X112812000Y-114161021D01*
X112812000Y-113962378D01*
X112780924Y-113766179D01*
X112780924Y-113766176D01*
X112719542Y-113577262D01*
X112629358Y-113400267D01*
X112602268Y-113362983D01*
X112039494Y-113925757D01*
X112023381Y-113865619D01*
X111956502Y-113749780D01*
X111861920Y-113655198D01*
X111746081Y-113588319D01*
X111685942Y-113572204D01*
X112248716Y-113009431D01*
X112248715Y-113009430D01*
X112211432Y-112982341D01*
X112034437Y-112892157D01*
X111845522Y-112830775D01*
X111649321Y-112799700D01*
X111450679Y-112799700D01*
X111254479Y-112830775D01*
X111254476Y-112830775D01*
X111065562Y-112892157D01*
X110888564Y-112982343D01*
X110851283Y-113009429D01*
X110851282Y-113009430D01*
X111414058Y-113572204D01*
X111353919Y-113588319D01*
X111238080Y-113655198D01*
X111143498Y-113749780D01*
X111076619Y-113865619D01*
X111060504Y-113925758D01*
X110537305Y-113402558D01*
X110514244Y-112226430D01*
X110532610Y-112159018D01*
X110584507Y-112112237D01*
X110638220Y-112100000D01*
X115500000Y-112100000D01*
X115500000Y-99566159D01*
X115500357Y-99566159D01*
X115500000Y-99562838D01*
X115500000Y-99524365D01*
X115527869Y-99468688D01*
X115530944Y-99465502D01*
X116125774Y-98870671D01*
X116143354Y-98936279D01*
G37*
%TD.AperFunction*%
%TD*%
%TA.AperFunction,Conductor*%
%TO.N,GPIO_25*%
G36*
X150260329Y-82829150D02*
G01*
X150181541Y-82829150D01*
X150049288Y-82864587D01*
X149930713Y-82933046D01*
X149833896Y-83029863D01*
X149765437Y-83148438D01*
X149730000Y-83280691D01*
X149730000Y-83417609D01*
X149765437Y-83549862D01*
X149833896Y-83668437D01*
X149930713Y-83765254D01*
X150049288Y-83833713D01*
X150181541Y-83869150D01*
X150260328Y-83869150D01*
X149786786Y-84342692D01*
X149725463Y-84376177D01*
X149711478Y-84378392D01*
X147382786Y-84611916D01*
X147378612Y-84612264D01*
X145800938Y-84716806D01*
X145796841Y-84717009D01*
X144802055Y-84749932D01*
X144797953Y-84750000D01*
X140566368Y-84750000D01*
X140499329Y-84730315D01*
X140453574Y-84677511D01*
X140443630Y-84608353D01*
X140443895Y-84606602D01*
X140455000Y-84536486D01*
X140455000Y-84185000D01*
X139134000Y-84185000D01*
X139066961Y-84165315D01*
X139021206Y-84112511D01*
X139010000Y-84061000D01*
X139010000Y-83810000D01*
X138759000Y-83810000D01*
X138691961Y-83790315D01*
X138646206Y-83737511D01*
X138635000Y-83686000D01*
X138635000Y-83435000D01*
X139385000Y-83435000D01*
X140454999Y-83435000D01*
X140454999Y-83256276D01*
X149070000Y-83256276D01*
X149070000Y-83442023D01*
X149099055Y-83625468D01*
X149099055Y-83625471D01*
X149156450Y-83802111D01*
X149156450Y-83802112D01*
X149193665Y-83875153D01*
X149193666Y-83875153D01*
X149719670Y-83349150D01*
X149719670Y-83349149D01*
X149193665Y-82823145D01*
X149156450Y-82896187D01*
X149156450Y-82896188D01*
X149099055Y-83072828D01*
X149099055Y-83072831D01*
X149070000Y-83256276D01*
X140454999Y-83256276D01*
X140454999Y-83083520D01*
X140440164Y-82989850D01*
X140440162Y-82989844D01*
X140382643Y-82876958D01*
X140382636Y-82876949D01*
X140293050Y-82787363D01*
X140293046Y-82787360D01*
X140180144Y-82729833D01*
X140086486Y-82715000D01*
X139385000Y-82715000D01*
X139385000Y-83435000D01*
X138635000Y-83435000D01*
X138635000Y-82687831D01*
X138634195Y-82686357D01*
X138635000Y-82675100D01*
X138635000Y-82663638D01*
X138635820Y-82663638D01*
X138639179Y-82616665D01*
X138667674Y-82572325D01*
X138738185Y-82501814D01*
X138799505Y-82468333D01*
X138825856Y-82465499D01*
X140102872Y-82465499D01*
X140162483Y-82459091D01*
X140297331Y-82408796D01*
X140412546Y-82322546D01*
X140412545Y-82322546D01*
X140419645Y-82317232D01*
X140421319Y-82319468D01*
X140470096Y-82292834D01*
X140496454Y-82290000D01*
X149456530Y-82290000D01*
X149721179Y-82290000D01*
X150260329Y-82829150D01*
G37*
%TD.AperFunction*%
%TD*%
%TA.AperFunction,Conductor*%
%TO.N,ESP_GND2*%
G36*
X140054537Y-68929685D02*
G01*
X140100292Y-68982489D01*
X140111489Y-69032493D01*
X140121908Y-69889493D01*
X140103040Y-69956766D01*
X140050796Y-70003160D01*
X139997917Y-70015000D01*
X139385000Y-70015000D01*
X139385000Y-70986000D01*
X139365315Y-71053039D01*
X139312511Y-71098794D01*
X139261000Y-71110000D01*
X139010000Y-71110000D01*
X139010000Y-71361000D01*
X138990315Y-71428039D01*
X138937511Y-71473794D01*
X138886000Y-71485000D01*
X137565001Y-71485000D01*
X137565001Y-71836479D01*
X137579835Y-71930149D01*
X137579837Y-71930155D01*
X137637356Y-72043041D01*
X137637363Y-72043050D01*
X137726949Y-72132636D01*
X137726953Y-72132639D01*
X137839855Y-72190166D01*
X137933513Y-72204999D01*
X137979290Y-72204999D01*
X138000519Y-72211232D01*
X138022587Y-72212803D01*
X138033386Y-72220882D01*
X138046329Y-72224682D01*
X138060819Y-72241403D01*
X138078534Y-72254656D01*
X138083251Y-72267290D01*
X138092085Y-72277485D01*
X138095234Y-72299384D01*
X138102973Y-72320112D01*
X138101397Y-72342245D01*
X138102030Y-72346644D01*
X138100467Y-72355317D01*
X138100141Y-72356818D01*
X138066676Y-72418152D01*
X138005364Y-72451657D01*
X137978968Y-72454500D01*
X137917130Y-72454500D01*
X137917123Y-72454501D01*
X137857516Y-72460908D01*
X137722671Y-72511202D01*
X137722664Y-72511206D01*
X137607455Y-72597452D01*
X137607452Y-72597455D01*
X137521206Y-72712664D01*
X137521202Y-72712671D01*
X137470908Y-72847517D01*
X137464501Y-72907116D01*
X137464500Y-72907135D01*
X137464500Y-74392870D01*
X137464501Y-74392876D01*
X137470908Y-74452483D01*
X137521202Y-74587328D01*
X137521206Y-74587335D01*
X137607452Y-74702544D01*
X137607455Y-74702547D01*
X137722664Y-74788793D01*
X137722671Y-74788797D01*
X137857517Y-74839091D01*
X137857516Y-74839091D01*
X137864444Y-74839835D01*
X137917127Y-74845500D01*
X140061955Y-74845499D01*
X140069843Y-74847815D01*
X140077965Y-74846537D01*
X140102878Y-74857515D01*
X140128994Y-74865184D01*
X140134376Y-74871395D01*
X140141902Y-74874712D01*
X140156924Y-74897417D01*
X140174749Y-74917987D01*
X140176913Y-74927628D01*
X140180456Y-74932982D01*
X140185944Y-74967847D01*
X140185964Y-74969348D01*
X140167174Y-75036644D01*
X140114985Y-75083098D01*
X140061975Y-75095000D01*
X139385000Y-75095000D01*
X139385000Y-76066000D01*
X139365315Y-76133039D01*
X139312511Y-76178794D01*
X139261000Y-76190000D01*
X139010000Y-76190000D01*
X139010000Y-76441000D01*
X138990315Y-76508039D01*
X138937511Y-76553794D01*
X138886000Y-76565000D01*
X137565001Y-76565000D01*
X137565001Y-76916479D01*
X137579835Y-77010149D01*
X137579837Y-77010155D01*
X137637356Y-77123041D01*
X137637363Y-77123050D01*
X137726949Y-77212636D01*
X137726953Y-77212639D01*
X137839855Y-77270166D01*
X137933514Y-77284999D01*
X138041824Y-77284999D01*
X138067188Y-77292446D01*
X138093355Y-77296213D01*
X138100187Y-77302135D01*
X138108864Y-77304683D01*
X138126177Y-77324663D01*
X138146151Y-77341977D01*
X138148696Y-77350652D01*
X138154619Y-77357487D01*
X138158381Y-77383654D01*
X138165825Y-77409019D01*
X138163925Y-77422212D01*
X138164563Y-77426645D01*
X138160796Y-77443953D01*
X138160355Y-77445454D01*
X138122571Y-77504226D01*
X138059011Y-77533241D01*
X138041385Y-77534500D01*
X137917130Y-77534500D01*
X137917123Y-77534501D01*
X137857516Y-77540908D01*
X137722671Y-77591202D01*
X137722664Y-77591206D01*
X137607455Y-77677452D01*
X137607452Y-77677455D01*
X137521206Y-77792664D01*
X137521202Y-77792671D01*
X137470908Y-77927517D01*
X137464501Y-77987116D01*
X137464500Y-77987135D01*
X137464500Y-79472870D01*
X137464501Y-79472876D01*
X137470908Y-79532483D01*
X137521202Y-79667328D01*
X137521206Y-79667335D01*
X137607452Y-79782544D01*
X137607455Y-79782547D01*
X137722664Y-79868793D01*
X137722671Y-79868797D01*
X137857517Y-79919091D01*
X137857516Y-79919091D01*
X137864444Y-79919835D01*
X137917127Y-79925500D01*
X140102872Y-79925499D01*
X140114645Y-79924233D01*
X140129274Y-79926872D01*
X140143963Y-79924566D01*
X140162964Y-79932948D01*
X140183403Y-79936635D01*
X140194285Y-79946765D01*
X140207889Y-79952767D01*
X140219342Y-79970092D01*
X140234543Y-79984243D01*
X140238873Y-79999636D01*
X140246420Y-80011052D01*
X140251894Y-80045919D01*
X140252004Y-80054429D01*
X140233187Y-80121718D01*
X140180979Y-80168151D01*
X140111955Y-80178988D01*
X140108616Y-80178505D01*
X140086486Y-80175000D01*
X139385000Y-80175000D01*
X139385000Y-81146000D01*
X139365315Y-81213039D01*
X139312511Y-81258794D01*
X139261000Y-81270000D01*
X139010000Y-81270000D01*
X139010000Y-81521000D01*
X138990315Y-81588039D01*
X138937511Y-81633794D01*
X138886000Y-81645000D01*
X137565001Y-81645000D01*
X137565001Y-81996479D01*
X137579835Y-82090149D01*
X137579837Y-82090155D01*
X137637356Y-82203041D01*
X137637363Y-82203050D01*
X137726949Y-82292636D01*
X137726953Y-82292639D01*
X137839855Y-82350166D01*
X137933514Y-82364999D01*
X138027993Y-82364999D01*
X138049256Y-82371242D01*
X138071363Y-82372830D01*
X138082128Y-82380894D01*
X138095032Y-82384683D01*
X138109544Y-82401431D01*
X138127284Y-82414719D01*
X138131980Y-82427321D01*
X138140788Y-82437486D01*
X138143942Y-82459423D01*
X138151681Y-82480191D01*
X138150097Y-82502232D01*
X138150732Y-82506645D01*
X138149152Y-82515394D01*
X138148825Y-82516895D01*
X138115322Y-82578208D01*
X138053988Y-82611674D01*
X138027668Y-82614500D01*
X137917130Y-82614500D01*
X137917123Y-82614501D01*
X137857516Y-82620908D01*
X137722671Y-82671202D01*
X137722664Y-82671206D01*
X137607455Y-82757452D01*
X137607452Y-82757455D01*
X137521206Y-82872664D01*
X137521202Y-82872671D01*
X137470908Y-83007517D01*
X137464501Y-83067116D01*
X137464500Y-83067135D01*
X137464500Y-84552870D01*
X137464501Y-84552876D01*
X137470908Y-84612483D01*
X137521202Y-84747328D01*
X137521206Y-84747335D01*
X137607452Y-84862544D01*
X137607455Y-84862547D01*
X137722664Y-84948793D01*
X137722671Y-84948797D01*
X137857517Y-84999091D01*
X137857516Y-84999091D01*
X137864444Y-84999835D01*
X137917127Y-85005500D01*
X140012276Y-85005499D01*
X140043968Y-85014805D01*
X140079301Y-85025174D01*
X140079311Y-85025182D01*
X140079315Y-85025184D01*
X140105977Y-85048283D01*
X140107278Y-85049784D01*
X140136312Y-85113335D01*
X140126379Y-85182495D01*
X140080631Y-85235306D01*
X140013595Y-85255000D01*
X139385000Y-85255000D01*
X139385000Y-86226000D01*
X139365315Y-86293039D01*
X139312511Y-86338794D01*
X139261000Y-86350000D01*
X139010000Y-86350000D01*
X139010000Y-86601000D01*
X138990315Y-86668039D01*
X138937511Y-86713794D01*
X138886000Y-86725000D01*
X137565001Y-86725000D01*
X137565001Y-87076479D01*
X137579835Y-87170149D01*
X137579837Y-87170155D01*
X137637356Y-87283041D01*
X137637363Y-87283050D01*
X137726949Y-87372636D01*
X137726953Y-87372639D01*
X137839855Y-87430166D01*
X137933514Y-87444999D01*
X137992693Y-87444999D01*
X138013956Y-87451242D01*
X138036064Y-87452830D01*
X138046829Y-87460894D01*
X138059733Y-87464683D01*
X138074245Y-87481431D01*
X138091985Y-87494719D01*
X138096681Y-87507321D01*
X138105489Y-87517486D01*
X138108643Y-87539423D01*
X138116382Y-87560191D01*
X138114798Y-87582231D01*
X138115433Y-87586644D01*
X138113853Y-87595394D01*
X138113526Y-87596895D01*
X138080023Y-87658208D01*
X138018689Y-87691674D01*
X137992370Y-87694500D01*
X137917130Y-87694500D01*
X137917123Y-87694501D01*
X137857516Y-87700908D01*
X137722671Y-87751202D01*
X137722664Y-87751206D01*
X137607455Y-87837452D01*
X137607452Y-87837455D01*
X137521206Y-87952664D01*
X137521202Y-87952671D01*
X137470908Y-88087517D01*
X137464501Y-88147116D01*
X137464500Y-88147135D01*
X137464500Y-89632870D01*
X137464501Y-89632876D01*
X137470908Y-89692483D01*
X137521202Y-89827328D01*
X137521206Y-89827335D01*
X137607452Y-89942544D01*
X137607455Y-89942547D01*
X137722664Y-90028793D01*
X137722671Y-90028797D01*
X137857517Y-90079091D01*
X137857516Y-90079091D01*
X137864444Y-90079835D01*
X137917127Y-90085500D01*
X140102872Y-90085499D01*
X140162483Y-90079091D01*
X140297331Y-90028796D01*
X140412546Y-89942546D01*
X140465005Y-89872468D01*
X140520936Y-89830599D01*
X140574931Y-89823240D01*
X140597768Y-89825211D01*
X141071937Y-89798289D01*
X141086267Y-89797271D01*
X141093274Y-89796673D01*
X141107507Y-89795255D01*
X144054324Y-89459542D01*
X144079121Y-89456093D01*
X144091236Y-89454101D01*
X144115829Y-89449430D01*
X145076525Y-89242162D01*
X145100842Y-89236282D01*
X145112701Y-89233102D01*
X145136728Y-89226017D01*
X148787716Y-88050274D01*
X148857557Y-88048463D01*
X148917296Y-88084699D01*
X148947960Y-88147480D01*
X148949721Y-88168492D01*
X148940464Y-94325986D01*
X148940464Y-94325987D01*
X149273731Y-94377619D01*
X149336964Y-94407335D01*
X149342425Y-94412476D01*
X149415810Y-94485861D01*
X149578871Y-94604332D01*
X149758458Y-94695836D01*
X149758460Y-94695837D01*
X149814529Y-94714055D01*
X149872204Y-94753492D01*
X149899403Y-94817851D01*
X149887489Y-94886697D01*
X149840245Y-94938173D01*
X149814530Y-94949917D01*
X149797036Y-94955601D01*
X149723996Y-94992816D01*
X150260330Y-95529150D01*
X150181541Y-95529150D01*
X150049288Y-95564587D01*
X149930713Y-95633046D01*
X149833896Y-95729863D01*
X149765437Y-95848438D01*
X149730000Y-95980691D01*
X149730000Y-96117609D01*
X149765437Y-96249862D01*
X149833896Y-96368437D01*
X149930713Y-96465254D01*
X150049288Y-96533713D01*
X150181541Y-96569150D01*
X150260328Y-96569150D01*
X149723996Y-97105482D01*
X149797036Y-97142698D01*
X149814528Y-97148382D01*
X149872204Y-97187819D01*
X149899403Y-97252177D01*
X149887489Y-97321024D01*
X149840245Y-97372500D01*
X149814530Y-97384244D01*
X149758459Y-97402463D01*
X149578872Y-97493967D01*
X149578867Y-97493970D01*
X149547993Y-97516400D01*
X149482186Y-97539877D01*
X149481990Y-97539888D01*
X148400000Y-97599999D01*
X148400000Y-102871322D01*
X148380315Y-102938361D01*
X148327511Y-102984116D01*
X148271411Y-102995237D01*
X142999999Y-102799999D01*
X140750000Y-104589149D01*
X140750000Y-112676000D01*
X140730315Y-112743039D01*
X140677511Y-112788794D01*
X140626000Y-112800000D01*
X136124000Y-112800000D01*
X136056961Y-112780315D01*
X136011206Y-112727511D01*
X136000000Y-112676000D01*
X136000000Y-112171479D01*
X136490001Y-112171479D01*
X136504835Y-112265149D01*
X136504837Y-112265155D01*
X136562356Y-112378041D01*
X136562363Y-112378050D01*
X136651949Y-112467636D01*
X136651953Y-112467639D01*
X136764855Y-112525166D01*
X136858514Y-112539999D01*
X137424999Y-112539999D01*
X138175000Y-112539999D01*
X138741479Y-112539999D01*
X138835149Y-112525164D01*
X138835155Y-112525162D01*
X138948041Y-112467643D01*
X138948050Y-112467636D01*
X139037636Y-112378050D01*
X139037639Y-112378046D01*
X139095166Y-112265144D01*
X139110000Y-112171486D01*
X139110000Y-111915000D01*
X138175000Y-111915000D01*
X138175000Y-112539999D01*
X137424999Y-112539999D01*
X137425000Y-112539998D01*
X137425000Y-111915000D01*
X136490001Y-111915000D01*
X136490001Y-112171479D01*
X136000000Y-112171479D01*
X136000000Y-110908513D01*
X136490000Y-110908513D01*
X136490000Y-111165000D01*
X137425000Y-111165000D01*
X138175000Y-111165000D01*
X139109999Y-111165000D01*
X139109999Y-110908520D01*
X139095164Y-110814850D01*
X139095162Y-110814844D01*
X139037643Y-110701958D01*
X139037636Y-110701949D01*
X138948050Y-110612363D01*
X138948046Y-110612360D01*
X138835144Y-110554833D01*
X138741486Y-110540000D01*
X138175000Y-110540000D01*
X138175000Y-111165000D01*
X137425000Y-111165000D01*
X137425000Y-110540000D01*
X136858520Y-110540000D01*
X136764850Y-110554835D01*
X136764844Y-110554837D01*
X136651958Y-110612356D01*
X136651949Y-110612363D01*
X136562363Y-110701949D01*
X136562360Y-110701953D01*
X136504833Y-110814855D01*
X136490000Y-110908513D01*
X136000000Y-110908513D01*
X136000000Y-106077526D01*
X137171952Y-106077526D01*
X137270164Y-106127568D01*
X137457294Y-106188371D01*
X137651618Y-106219150D01*
X137848382Y-106219150D01*
X138042705Y-106188371D01*
X138229830Y-106127570D01*
X138328047Y-106077526D01*
X137750001Y-105499480D01*
X137750000Y-105499480D01*
X137171952Y-106077526D01*
X136000000Y-106077526D01*
X136000000Y-104870767D01*
X136500000Y-104870767D01*
X136500000Y-105067532D01*
X136530778Y-105261855D01*
X136591582Y-105448988D01*
X136641621Y-105547196D01*
X136641622Y-105547197D01*
X137219670Y-104969150D01*
X137167009Y-104916489D01*
X137350000Y-104916489D01*
X137350000Y-105021811D01*
X137377259Y-105123544D01*
X137429920Y-105214756D01*
X137504394Y-105289230D01*
X137595606Y-105341891D01*
X137697339Y-105369150D01*
X137802661Y-105369150D01*
X137904394Y-105341891D01*
X137995606Y-105289230D01*
X138070080Y-105214756D01*
X138122741Y-105123544D01*
X138150000Y-105021811D01*
X138150000Y-104969149D01*
X138280330Y-104969149D01*
X138280330Y-104969151D01*
X138858376Y-105547197D01*
X138908420Y-105448980D01*
X138969221Y-105261855D01*
X139000000Y-105067532D01*
X139000000Y-104870767D01*
X138969221Y-104676444D01*
X138908418Y-104489314D01*
X138858376Y-104391102D01*
X138280330Y-104969149D01*
X138150000Y-104969149D01*
X138150000Y-104916489D01*
X138122741Y-104814756D01*
X138070080Y-104723544D01*
X137995606Y-104649070D01*
X137904394Y-104596409D01*
X137802661Y-104569150D01*
X137697339Y-104569150D01*
X137595606Y-104596409D01*
X137504394Y-104649070D01*
X137429920Y-104723544D01*
X137377259Y-104814756D01*
X137350000Y-104916489D01*
X137167009Y-104916489D01*
X136641621Y-104391101D01*
X136591583Y-104489309D01*
X136591579Y-104489319D01*
X136530778Y-104676444D01*
X136500000Y-104870767D01*
X136000000Y-104870767D01*
X136000000Y-104288833D01*
X136015206Y-104229336D01*
X136216765Y-103860771D01*
X137171951Y-103860771D01*
X137750000Y-104438820D01*
X137750001Y-104438820D01*
X138328047Y-103860772D01*
X138328046Y-103860771D01*
X138229838Y-103810732D01*
X138042705Y-103749928D01*
X137848382Y-103719150D01*
X137651618Y-103719150D01*
X137457294Y-103749928D01*
X137270169Y-103810729D01*
X137270159Y-103810733D01*
X137171951Y-103860771D01*
X136216765Y-103860771D01*
X136225784Y-103844280D01*
X136696186Y-102984116D01*
X137967190Y-100659994D01*
X138016626Y-100610623D01*
X138068245Y-100595734D01*
X142800000Y-100300000D01*
X142863097Y-95956276D01*
X149070000Y-95956276D01*
X149070000Y-96142023D01*
X149099055Y-96325468D01*
X149099055Y-96325471D01*
X149156450Y-96502111D01*
X149156450Y-96502112D01*
X149193665Y-96575153D01*
X149193666Y-96575153D01*
X149719670Y-96049150D01*
X149719670Y-96049149D01*
X149193665Y-95523145D01*
X149156450Y-95596187D01*
X149156450Y-95596188D01*
X149099055Y-95772828D01*
X149099055Y-95772831D01*
X149070000Y-95956276D01*
X142863097Y-95956276D01*
X142930684Y-91303400D01*
X142930682Y-91303399D01*
X142930683Y-91303399D01*
X135720827Y-91216080D01*
X135654031Y-91195585D01*
X135608919Y-91142231D01*
X135598329Y-91092024D01*
X135598889Y-90028797D01*
X135601207Y-85623513D01*
X137565000Y-85623513D01*
X137565000Y-85975000D01*
X138635000Y-85975000D01*
X138635000Y-85255000D01*
X137933520Y-85255000D01*
X137839850Y-85269835D01*
X137839844Y-85269837D01*
X137726958Y-85327356D01*
X137726949Y-85327363D01*
X137637363Y-85416949D01*
X137637360Y-85416953D01*
X137579833Y-85529855D01*
X137565000Y-85623513D01*
X135601207Y-85623513D01*
X135603879Y-80543513D01*
X137565000Y-80543513D01*
X137565000Y-80895000D01*
X138635000Y-80895000D01*
X138635000Y-80175000D01*
X137933520Y-80175000D01*
X137839850Y-80189835D01*
X137839844Y-80189837D01*
X137726958Y-80247356D01*
X137726949Y-80247363D01*
X137637363Y-80336949D01*
X137637360Y-80336953D01*
X137579833Y-80449855D01*
X137565000Y-80543513D01*
X135603879Y-80543513D01*
X135604035Y-80247356D01*
X135606552Y-75463513D01*
X137565000Y-75463513D01*
X137565000Y-75815000D01*
X138635000Y-75815000D01*
X138635000Y-75095000D01*
X137933520Y-75095000D01*
X137839850Y-75109835D01*
X137839844Y-75109837D01*
X137726958Y-75167356D01*
X137726949Y-75167363D01*
X137637363Y-75256949D01*
X137637360Y-75256953D01*
X137579833Y-75369855D01*
X137565000Y-75463513D01*
X135606552Y-75463513D01*
X135609225Y-70383513D01*
X137565000Y-70383513D01*
X137565000Y-70735000D01*
X138635000Y-70735000D01*
X138635000Y-70015000D01*
X137933520Y-70015000D01*
X137839850Y-70029835D01*
X137839844Y-70029837D01*
X137726958Y-70087356D01*
X137726949Y-70087363D01*
X137637363Y-70176949D01*
X137637360Y-70176953D01*
X137579833Y-70289855D01*
X137565000Y-70383513D01*
X135609225Y-70383513D01*
X135609228Y-70378582D01*
X135609935Y-69033935D01*
X135629655Y-68966906D01*
X135682483Y-68921179D01*
X135733935Y-68910000D01*
X139987498Y-68910000D01*
X140054537Y-68929685D01*
G37*
%TD.AperFunction*%
%TD*%
%TA.AperFunction,Conductor*%
%TO.N,spare_opto*%
G36*
X128466685Y-61394801D02*
G01*
X128512545Y-61447514D01*
X128523849Y-61500388D01*
X128457790Y-68700812D01*
X128456501Y-68706399D01*
X128457323Y-68710487D01*
X128449273Y-68744851D01*
X128447662Y-68748966D01*
X128416090Y-68815326D01*
X128395356Y-68882049D01*
X128395355Y-68882052D01*
X128395188Y-68883095D01*
X128395186Y-68883101D01*
X128372649Y-69024119D01*
X128372648Y-69024131D01*
X128356855Y-70031133D01*
X128367520Y-70142641D01*
X128378713Y-70196101D01*
X128390318Y-70231431D01*
X128392494Y-70299919D01*
X128392693Y-70299966D01*
X128392519Y-70300701D01*
X128392537Y-70301265D01*
X128391932Y-70303182D01*
X128390908Y-70307517D01*
X128384501Y-70367116D01*
X128384500Y-70367135D01*
X128384500Y-71852869D01*
X128384501Y-71852880D01*
X128386907Y-71875261D01*
X128375590Y-71941785D01*
X128366775Y-71960312D01*
X128366769Y-71960326D01*
X128346041Y-72027027D01*
X128346036Y-72027045D01*
X128323330Y-72169115D01*
X128323329Y-72169125D01*
X128320953Y-72320644D01*
X128320954Y-72320674D01*
X128324970Y-72392653D01*
X128324972Y-72392669D01*
X128329446Y-72427666D01*
X128329448Y-72427675D01*
X128329448Y-72427677D01*
X128343658Y-72498325D01*
X128343659Y-72498327D01*
X128354625Y-72523375D01*
X128354624Y-72523375D01*
X128354972Y-72524169D01*
X128356993Y-72528785D01*
X128377763Y-72592005D01*
X128399430Y-72625719D01*
X128401362Y-72630132D01*
X128405668Y-72637070D01*
X128430638Y-72677302D01*
X128430668Y-72677345D01*
X128438226Y-72689520D01*
X128438241Y-72689544D01*
X128445723Y-72698457D01*
X128448567Y-72702445D01*
X128448827Y-72703194D01*
X128451916Y-72707389D01*
X128455551Y-72713044D01*
X128472240Y-72732304D01*
X128472240Y-72732303D01*
X128494732Y-72758260D01*
X128494732Y-72758261D01*
X128498440Y-72762540D01*
X128502570Y-72767307D01*
X128503140Y-72767817D01*
X128505819Y-72770692D01*
X128505661Y-72770838D01*
X128511276Y-72776541D01*
X128530752Y-72799740D01*
X128565741Y-72823006D01*
X128578282Y-72832548D01*
X128610038Y-72860066D01*
X128624993Y-72866895D01*
X128638033Y-72872851D01*
X128647648Y-72877758D01*
X128650553Y-72879404D01*
X128650562Y-72879410D01*
X128650570Y-72879414D01*
X128650574Y-72879416D01*
X128713244Y-72909233D01*
X128713636Y-72909421D01*
X128713660Y-72909431D01*
X128720093Y-72911429D01*
X128734824Y-72917055D01*
X128740916Y-72919837D01*
X128765368Y-72927017D01*
X128785686Y-72932983D01*
X128785690Y-72932984D01*
X128807735Y-72939458D01*
X128807936Y-72939518D01*
X128807947Y-72939520D01*
X128807959Y-72939524D01*
X128807971Y-72939525D01*
X128811729Y-72940355D01*
X128821795Y-72943024D01*
X128851062Y-72952117D01*
X128893079Y-72952772D01*
X128908769Y-72954018D01*
X128950375Y-72960000D01*
X130845999Y-72960000D01*
X130913038Y-72979685D01*
X130958793Y-73032489D01*
X130969999Y-73084000D01*
X130970000Y-74215999D01*
X130950315Y-74283038D01*
X130897512Y-74328793D01*
X130846000Y-74339999D01*
X128908977Y-74339999D01*
X128805412Y-74350724D01*
X128805404Y-74350725D01*
X128805400Y-74350726D01*
X128755668Y-74361138D01*
X128755665Y-74361139D01*
X128666492Y-74389659D01*
X128626094Y-74395524D01*
X126889508Y-74358771D01*
X126822900Y-74337673D01*
X126778273Y-74283912D01*
X126768138Y-74236011D01*
X126675000Y-64675000D01*
X116123129Y-64600865D01*
X116056229Y-64580710D01*
X116010847Y-64527586D01*
X116000000Y-64476868D01*
X116000000Y-61523752D01*
X116019685Y-61456713D01*
X116072489Y-61410958D01*
X116123748Y-61399752D01*
X128399607Y-61375250D01*
X128466685Y-61394801D01*
G37*
%TD.AperFunction*%
%TD*%
%TA.AperFunction,Conductor*%
%TO.N,spare*%
G36*
X126708059Y-55926061D02*
G01*
X126813223Y-55939906D01*
X126844491Y-55948284D01*
X126934918Y-55985740D01*
X126962952Y-56001925D01*
X127040602Y-56061509D01*
X127063491Y-56084398D01*
X127123074Y-56162048D01*
X127139259Y-56190081D01*
X127176715Y-56280508D01*
X127185093Y-56311775D01*
X127198939Y-56416939D01*
X127200000Y-56433125D01*
X127200000Y-60291874D01*
X127198939Y-60308060D01*
X127185093Y-60413224D01*
X127176715Y-60444491D01*
X127139259Y-60534918D01*
X127123074Y-60562951D01*
X127063491Y-60640601D01*
X127040601Y-60663491D01*
X126962951Y-60723074D01*
X126934918Y-60739259D01*
X126844491Y-60776715D01*
X126813224Y-60785093D01*
X126719398Y-60797446D01*
X126708058Y-60798939D01*
X126691874Y-60800000D01*
X125614684Y-60800000D01*
X125547645Y-60780315D01*
X125501890Y-60727511D01*
X125491946Y-60658353D01*
X125520971Y-60594797D01*
X125571351Y-60559818D01*
X125602086Y-60548354D01*
X125602093Y-60548350D01*
X125717187Y-60462190D01*
X125717190Y-60462187D01*
X125803350Y-60347093D01*
X125803354Y-60347086D01*
X125853596Y-60212379D01*
X125853598Y-60212372D01*
X125859999Y-60152844D01*
X125860000Y-60152827D01*
X125860000Y-59830000D01*
X123140000Y-59830000D01*
X123140000Y-60152844D01*
X123146401Y-60212372D01*
X123146403Y-60212379D01*
X123196645Y-60347086D01*
X123196649Y-60347093D01*
X123282809Y-60462187D01*
X123282812Y-60462190D01*
X123397906Y-60548350D01*
X123397913Y-60548354D01*
X123428649Y-60559818D01*
X123484583Y-60601689D01*
X123509000Y-60667154D01*
X123494148Y-60735427D01*
X123444743Y-60784832D01*
X123385316Y-60800000D01*
X121114684Y-60800000D01*
X121047645Y-60780315D01*
X121001890Y-60727511D01*
X120991946Y-60658353D01*
X121020971Y-60594797D01*
X121071351Y-60559818D01*
X121102086Y-60548354D01*
X121102093Y-60548350D01*
X121217187Y-60462190D01*
X121217190Y-60462187D01*
X121303350Y-60347093D01*
X121303354Y-60347086D01*
X121353596Y-60212379D01*
X121353598Y-60212372D01*
X121359999Y-60152844D01*
X121360000Y-60152827D01*
X121360000Y-59830000D01*
X118640000Y-59830000D01*
X118640000Y-60152844D01*
X118646401Y-60212372D01*
X118646403Y-60212379D01*
X118696645Y-60347086D01*
X118696649Y-60347093D01*
X118782809Y-60462187D01*
X118782812Y-60462190D01*
X118897906Y-60548350D01*
X118897913Y-60548354D01*
X118928649Y-60559818D01*
X118984583Y-60601689D01*
X119009000Y-60667154D01*
X118994148Y-60735427D01*
X118944743Y-60784832D01*
X118885316Y-60800000D01*
X115400000Y-60800000D01*
X115399999Y-60800000D01*
X115399997Y-60800001D01*
X109391443Y-67149122D01*
X109391443Y-67149123D01*
X108171134Y-68438596D01*
X108110757Y-68473757D01*
X108040954Y-68470694D01*
X107983889Y-68430380D01*
X107958805Y-68368397D01*
X107958262Y-68368484D01*
X107957890Y-68366137D01*
X107957678Y-68365613D01*
X107957512Y-68363749D01*
X107925796Y-68163508D01*
X107863174Y-67970774D01*
X107863172Y-67970771D01*
X107771168Y-67790202D01*
X107740525Y-67748027D01*
X107740525Y-67748026D01*
X107173374Y-68315176D01*
X107159222Y-68262358D01*
X107090104Y-68142643D01*
X106992357Y-68044896D01*
X106872642Y-67975778D01*
X106819822Y-67961624D01*
X107386972Y-67394474D01*
X107386971Y-67394473D01*
X107344797Y-67363831D01*
X107164228Y-67271827D01*
X107164225Y-67271825D01*
X106971491Y-67209203D01*
X106771327Y-67177500D01*
X106568673Y-67177500D01*
X106368508Y-67209203D01*
X106175774Y-67271825D01*
X106175771Y-67271826D01*
X105995204Y-67363830D01*
X105953027Y-67394473D01*
X106520178Y-67961624D01*
X106467358Y-67975778D01*
X106347643Y-68044896D01*
X106249896Y-68142643D01*
X106180778Y-68262358D01*
X106166624Y-68315178D01*
X105599473Y-67748027D01*
X105568830Y-67790204D01*
X105476826Y-67970771D01*
X105476825Y-67970774D01*
X105414203Y-68163508D01*
X105382500Y-68363672D01*
X105382500Y-68566323D01*
X105388248Y-68602619D01*
X105379292Y-68671913D01*
X105334294Y-68725364D01*
X105267542Y-68746002D01*
X105200229Y-68727276D01*
X105185605Y-68716614D01*
X103792871Y-67536331D01*
X103792870Y-67536330D01*
X103777226Y-67523072D01*
X103764669Y-67510800D01*
X103688477Y-67424982D01*
X103669152Y-67395763D01*
X103623810Y-67300094D01*
X103613429Y-67266636D01*
X103604212Y-67209203D01*
X103596652Y-67162101D01*
X103596043Y-67127087D01*
X103609173Y-67022019D01*
X103618381Y-66988233D01*
X103660370Y-66891035D01*
X103678665Y-66861165D01*
X103751832Y-66772737D01*
X103763930Y-66760061D01*
X109000000Y-62000000D01*
X109000000Y-59007155D01*
X118640000Y-59007155D01*
X118640000Y-59330000D01*
X119750000Y-59330000D01*
X120250000Y-59330000D01*
X121360000Y-59330000D01*
X121360000Y-59007172D01*
X121359999Y-59007155D01*
X123140000Y-59007155D01*
X123140000Y-59330000D01*
X124250000Y-59330000D01*
X124750000Y-59330000D01*
X125860000Y-59330000D01*
X125860000Y-59007172D01*
X125859999Y-59007155D01*
X125853598Y-58947627D01*
X125853596Y-58947620D01*
X125803354Y-58812913D01*
X125803350Y-58812906D01*
X125717190Y-58697812D01*
X125717187Y-58697809D01*
X125602093Y-58611649D01*
X125602086Y-58611645D01*
X125467379Y-58561403D01*
X125467372Y-58561401D01*
X125407844Y-58555000D01*
X124750000Y-58555000D01*
X124750000Y-59330000D01*
X124250000Y-59330000D01*
X124250000Y-58555000D01*
X123592155Y-58555000D01*
X123532627Y-58561401D01*
X123532620Y-58561403D01*
X123397913Y-58611645D01*
X123397906Y-58611649D01*
X123282812Y-58697809D01*
X123282809Y-58697812D01*
X123196649Y-58812906D01*
X123196645Y-58812913D01*
X123146403Y-58947620D01*
X123146401Y-58947627D01*
X123140000Y-59007155D01*
X121359999Y-59007155D01*
X121353598Y-58947627D01*
X121353596Y-58947620D01*
X121303354Y-58812913D01*
X121303350Y-58812906D01*
X121217190Y-58697812D01*
X121217187Y-58697809D01*
X121102093Y-58611649D01*
X121102086Y-58611645D01*
X120967379Y-58561403D01*
X120967372Y-58561401D01*
X120907844Y-58555000D01*
X120250000Y-58555000D01*
X120250000Y-59330000D01*
X119750000Y-59330000D01*
X119750000Y-58555000D01*
X119092155Y-58555000D01*
X119032627Y-58561401D01*
X119032620Y-58561403D01*
X118897913Y-58611645D01*
X118897906Y-58611649D01*
X118782812Y-58697809D01*
X118782809Y-58697812D01*
X118696649Y-58812906D01*
X118696645Y-58812913D01*
X118646403Y-58947620D01*
X118646401Y-58947627D01*
X118640000Y-59007155D01*
X109000000Y-59007155D01*
X109000000Y-56433125D01*
X109001061Y-56416940D01*
X109014906Y-56311776D01*
X109014906Y-56311775D01*
X109023284Y-56280508D01*
X109060740Y-56190081D01*
X109076923Y-56162050D01*
X109136513Y-56084392D01*
X109159392Y-56061513D01*
X109237050Y-56001923D01*
X109265079Y-55985740D01*
X109355509Y-55948283D01*
X109386775Y-55939906D01*
X109491941Y-55926061D01*
X109508126Y-55925000D01*
X126691874Y-55925000D01*
X126708059Y-55926061D01*
G37*
%TD.AperFunction*%
%TD*%
%TA.AperFunction,Conductor*%
%TO.N,+VOUT-esp*%
G36*
X149555130Y-107619685D02*
G01*
X149600885Y-107672489D01*
X149611709Y-107733732D01*
X149609988Y-107755585D01*
X150104260Y-108249857D01*
X150049288Y-108264587D01*
X149930713Y-108333046D01*
X149833896Y-108429863D01*
X149765437Y-108548438D01*
X149750707Y-108603410D01*
X149256435Y-108109138D01*
X149256433Y-108109138D01*
X149240771Y-108130698D01*
X149156452Y-108296182D01*
X149099054Y-108472832D01*
X149070000Y-108656276D01*
X149070000Y-108842023D01*
X149099054Y-109025467D01*
X149156452Y-109202117D01*
X149240774Y-109367607D01*
X149256433Y-109389160D01*
X149256434Y-109389160D01*
X149750706Y-108894888D01*
X149765437Y-108949862D01*
X149833896Y-109068437D01*
X149930713Y-109165254D01*
X150049288Y-109233713D01*
X150104260Y-109248442D01*
X149609987Y-109742714D01*
X149609988Y-109742715D01*
X149631540Y-109758374D01*
X149797032Y-109842697D01*
X149973682Y-109900095D01*
X150157127Y-109929150D01*
X150342873Y-109929150D01*
X150526317Y-109900095D01*
X150702967Y-109842697D01*
X150868455Y-109758376D01*
X150890010Y-109742715D01*
X150890010Y-109742714D01*
X150395739Y-109248442D01*
X150450712Y-109233713D01*
X150569287Y-109165254D01*
X150666104Y-109068437D01*
X150734563Y-108949862D01*
X150749292Y-108894888D01*
X151243564Y-109389160D01*
X151243565Y-109389160D01*
X151259226Y-109367605D01*
X151343547Y-109202117D01*
X151400945Y-109025467D01*
X151430000Y-108842023D01*
X151430000Y-108656276D01*
X151400945Y-108472832D01*
X151343547Y-108296182D01*
X151259224Y-108130690D01*
X151243565Y-108109138D01*
X151243564Y-108109137D01*
X150749292Y-108603409D01*
X150734563Y-108548438D01*
X150666104Y-108429863D01*
X150569287Y-108333046D01*
X150450712Y-108264587D01*
X150395739Y-108249857D01*
X150890010Y-107755584D01*
X150888290Y-107733730D01*
X150902654Y-107665353D01*
X150951704Y-107615596D01*
X151011908Y-107600000D01*
X152955747Y-107600000D01*
X153022786Y-107619685D01*
X153045312Y-107638244D01*
X153157662Y-107755585D01*
X153904067Y-108535147D01*
X153928640Y-108560811D01*
X153960785Y-108622847D01*
X153962958Y-108651953D01*
X153645599Y-115951199D01*
X153623021Y-116017320D01*
X153607472Y-116035378D01*
X152635965Y-116965565D01*
X152573929Y-116997710D01*
X152550209Y-117000000D01*
X150639586Y-117000000D01*
X150572547Y-116980315D01*
X150567737Y-116977063D01*
X149303743Y-116078441D01*
X149260510Y-116023553D01*
X149258474Y-116018115D01*
X148690745Y-114385893D01*
X150048000Y-114385893D01*
X150048000Y-114568806D01*
X150076611Y-114749452D01*
X150133133Y-114923407D01*
X150216169Y-115086370D01*
X150229320Y-115104473D01*
X150229321Y-115104473D01*
X150720504Y-114613290D01*
X150736619Y-114673431D01*
X150803498Y-114789270D01*
X150898080Y-114883852D01*
X151013919Y-114950731D01*
X151074058Y-114966845D01*
X150582875Y-115458027D01*
X150582875Y-115458028D01*
X150600978Y-115471180D01*
X150600980Y-115471181D01*
X150763944Y-115554216D01*
X150937897Y-115610738D01*
X151118544Y-115639350D01*
X151301456Y-115639350D01*
X151482102Y-115610738D01*
X151656055Y-115554216D01*
X151819020Y-115471180D01*
X151837123Y-115458028D01*
X151837123Y-115458027D01*
X151345941Y-114966845D01*
X151406081Y-114950731D01*
X151521920Y-114883852D01*
X151616502Y-114789270D01*
X151683381Y-114673431D01*
X151699495Y-114613291D01*
X152190677Y-115104473D01*
X152190678Y-115104473D01*
X152203830Y-115086370D01*
X152286866Y-114923405D01*
X152343388Y-114749452D01*
X152372000Y-114568806D01*
X152372000Y-114385893D01*
X152343388Y-114205247D01*
X152286866Y-114031294D01*
X152203831Y-113868330D01*
X152203830Y-113868328D01*
X152190677Y-113850225D01*
X151699494Y-114341407D01*
X151683381Y-114281269D01*
X151616502Y-114165430D01*
X151521920Y-114070848D01*
X151406081Y-114003969D01*
X151345941Y-113987854D01*
X151837123Y-113496671D01*
X151837123Y-113496670D01*
X151819020Y-113483519D01*
X151656057Y-113400483D01*
X151482102Y-113343961D01*
X151301456Y-113315350D01*
X151118544Y-113315350D01*
X150937897Y-113343961D01*
X150763944Y-113400483D01*
X150600981Y-113483517D01*
X150582875Y-113496670D01*
X150582875Y-113496671D01*
X151074058Y-113987854D01*
X151013919Y-114003969D01*
X150898080Y-114070848D01*
X150803498Y-114165430D01*
X150736619Y-114281269D01*
X150720504Y-114341408D01*
X150229321Y-113850225D01*
X150229320Y-113850225D01*
X150216167Y-113868331D01*
X150133133Y-114031294D01*
X150076611Y-114205247D01*
X150048000Y-114385893D01*
X148690745Y-114385893D01*
X146679976Y-108604932D01*
X146676543Y-108535147D01*
X146696027Y-108492350D01*
X147293358Y-107652151D01*
X147348246Y-107608918D01*
X147394421Y-107600000D01*
X149488091Y-107600000D01*
X149555130Y-107619685D01*
G37*
%TD.AperFunction*%
%TD*%
%TA.AperFunction,Conductor*%
%TO.N,/+VOUT*%
G36*
X143763067Y-103727518D02*
G01*
X143906361Y-103787548D01*
X143927368Y-103798835D01*
X144055901Y-103884774D01*
X144067336Y-103892419D01*
X144085796Y-103907521D01*
X144205257Y-104026169D01*
X144220484Y-104044524D01*
X144315025Y-104183852D01*
X144326456Y-104204783D01*
X144394933Y-104365154D01*
X144399087Y-104376347D01*
X145739354Y-108600475D01*
X148749998Y-118089149D01*
X148750000Y-118089150D01*
X153243907Y-118089150D01*
X153256061Y-118089747D01*
X153432941Y-118107168D01*
X153456769Y-118111907D01*
X153621001Y-118161726D01*
X153643453Y-118171027D01*
X153794798Y-118251922D01*
X153815010Y-118265427D01*
X153947666Y-118374295D01*
X153964854Y-118391483D01*
X154073722Y-118524139D01*
X154087227Y-118544351D01*
X154168121Y-118695693D01*
X154177424Y-118718151D01*
X154227240Y-118882374D01*
X154231982Y-118906215D01*
X154249403Y-119083088D01*
X154250000Y-119095242D01*
X154250000Y-126793901D01*
X154249403Y-126806055D01*
X154231982Y-126982929D01*
X154227240Y-127006770D01*
X154177424Y-127170991D01*
X154168121Y-127193450D01*
X154087224Y-127344796D01*
X154073719Y-127365007D01*
X153964853Y-127497661D01*
X153947664Y-127514850D01*
X153815007Y-127623718D01*
X153794795Y-127637223D01*
X153643450Y-127718117D01*
X153620993Y-127727419D01*
X153456771Y-127777235D01*
X153432928Y-127781977D01*
X153256055Y-127799395D01*
X153243902Y-127799992D01*
X148040937Y-127799962D01*
X143010143Y-127799932D01*
X142997991Y-127799335D01*
X142821144Y-127781918D01*
X142797306Y-127777177D01*
X142656827Y-127734569D01*
X142633105Y-127727374D01*
X142610654Y-127718076D01*
X142459365Y-127637223D01*
X142459326Y-127637202D01*
X142439116Y-127623701D01*
X142306467Y-127514860D01*
X142289279Y-127497675D01*
X142289268Y-127497661D01*
X142180409Y-127365048D01*
X142166910Y-127344852D01*
X142085997Y-127193530D01*
X142076698Y-127171090D01*
X142026857Y-127006893D01*
X142022112Y-126983060D01*
X142004656Y-126806207D01*
X142004057Y-126794081D01*
X142002878Y-121505784D01*
X142022547Y-121438745D01*
X142075340Y-121392978D01*
X142144497Y-121383019D01*
X142183172Y-121395276D01*
X142311588Y-121460707D01*
X142513757Y-121526396D01*
X142723713Y-121559650D01*
X142723714Y-121559650D01*
X142936286Y-121559650D01*
X142936287Y-121559650D01*
X143146243Y-121526396D01*
X143348412Y-121460707D01*
X143537816Y-121364201D01*
X143559789Y-121348236D01*
X143709786Y-121239259D01*
X143709788Y-121239256D01*
X143709792Y-121239254D01*
X143860104Y-121088942D01*
X143985051Y-120916966D01*
X144081557Y-120727562D01*
X144147246Y-120525393D01*
X144180500Y-120315437D01*
X144180500Y-120102863D01*
X144147246Y-119892907D01*
X144146246Y-119889828D01*
X149948000Y-119889828D01*
X149948000Y-120088471D01*
X149979075Y-120284670D01*
X149979075Y-120284673D01*
X150040457Y-120473587D01*
X150130641Y-120650582D01*
X150157730Y-120687865D01*
X150157731Y-120687866D01*
X150720504Y-120125092D01*
X150736619Y-120185231D01*
X150803498Y-120301070D01*
X150898080Y-120395652D01*
X151013919Y-120462531D01*
X151074057Y-120478644D01*
X150511283Y-121041418D01*
X150511283Y-121041419D01*
X150548567Y-121068508D01*
X150725562Y-121158692D01*
X150914477Y-121220074D01*
X151110679Y-121251150D01*
X151309321Y-121251150D01*
X151505520Y-121220074D01*
X151505523Y-121220074D01*
X151694437Y-121158692D01*
X151871425Y-121068512D01*
X151908716Y-121041418D01*
X151345942Y-120478644D01*
X151406081Y-120462531D01*
X151521920Y-120395652D01*
X151616502Y-120301070D01*
X151683381Y-120185231D01*
X151699495Y-120125092D01*
X152262268Y-120687865D01*
X152289362Y-120650575D01*
X152379542Y-120473587D01*
X152440924Y-120284673D01*
X152440924Y-120284670D01*
X152472000Y-120088471D01*
X152472000Y-119889828D01*
X152440924Y-119693629D01*
X152440924Y-119693626D01*
X152379542Y-119504712D01*
X152289358Y-119327717D01*
X152262268Y-119290433D01*
X151699494Y-119853207D01*
X151683381Y-119793069D01*
X151616502Y-119677230D01*
X151521920Y-119582648D01*
X151406081Y-119515769D01*
X151345942Y-119499654D01*
X151908716Y-118936881D01*
X151908715Y-118936880D01*
X151871432Y-118909791D01*
X151694437Y-118819607D01*
X151505522Y-118758225D01*
X151309321Y-118727150D01*
X151110679Y-118727150D01*
X150914479Y-118758225D01*
X150914476Y-118758225D01*
X150725562Y-118819607D01*
X150548564Y-118909793D01*
X150511283Y-118936879D01*
X150511282Y-118936880D01*
X151074058Y-119499654D01*
X151013919Y-119515769D01*
X150898080Y-119582648D01*
X150803498Y-119677230D01*
X150736619Y-119793069D01*
X150720504Y-119853207D01*
X150157730Y-119290432D01*
X150157729Y-119290433D01*
X150130643Y-119327714D01*
X150040457Y-119504712D01*
X149979075Y-119693626D01*
X149979075Y-119693629D01*
X149948000Y-119889828D01*
X144146246Y-119889828D01*
X144081557Y-119690738D01*
X143985051Y-119501334D01*
X143985049Y-119501331D01*
X143985048Y-119501329D01*
X143860109Y-119329363D01*
X143709786Y-119179040D01*
X143579603Y-119084458D01*
X143537820Y-119054101D01*
X143348414Y-118957594D01*
X143348413Y-118957593D01*
X143348412Y-118957593D01*
X143146243Y-118891904D01*
X143146241Y-118891903D01*
X143146240Y-118891903D01*
X142984957Y-118866358D01*
X142936287Y-118858650D01*
X142723713Y-118858650D01*
X142675042Y-118866358D01*
X142513760Y-118891903D01*
X142311582Y-118957595D01*
X142182593Y-119023318D01*
X142113924Y-119036214D01*
X142049184Y-119009937D01*
X142008927Y-118952831D01*
X142002299Y-118912866D01*
X142000022Y-108698465D01*
X142000021Y-108698464D01*
X142000000Y-108600000D01*
X141428096Y-105727412D01*
X141434311Y-105657819D01*
X141477165Y-105602635D01*
X141543051Y-105579379D01*
X141611051Y-105595435D01*
X141659575Y-105645706D01*
X141660194Y-105646906D01*
X141675373Y-105676697D01*
X141714728Y-105730866D01*
X142430000Y-105015595D01*
X142430000Y-105021811D01*
X142457259Y-105123544D01*
X142509920Y-105214756D01*
X142584394Y-105289230D01*
X142675606Y-105341891D01*
X142777339Y-105369150D01*
X142783554Y-105369150D01*
X142068282Y-106084419D01*
X142068282Y-106084420D01*
X142122449Y-106123774D01*
X142311782Y-106220245D01*
X142513870Y-106285907D01*
X142723754Y-106319150D01*
X142936246Y-106319150D01*
X143146127Y-106285907D01*
X143146130Y-106285907D01*
X143348217Y-106220245D01*
X143537554Y-106123772D01*
X143591716Y-106084420D01*
X143591717Y-106084420D01*
X142876446Y-105369150D01*
X142882661Y-105369150D01*
X142984394Y-105341891D01*
X143075606Y-105289230D01*
X143150080Y-105214756D01*
X143202741Y-105123544D01*
X143230000Y-105021811D01*
X143230000Y-105015596D01*
X143945270Y-105730867D01*
X143945270Y-105730866D01*
X143984622Y-105676704D01*
X144081095Y-105487367D01*
X144146757Y-105285280D01*
X144146757Y-105285277D01*
X144180000Y-105075396D01*
X144180000Y-104862903D01*
X144146757Y-104653022D01*
X144146757Y-104653019D01*
X144081095Y-104450932D01*
X143984624Y-104261599D01*
X143945270Y-104207432D01*
X143945269Y-104207432D01*
X143230000Y-104922702D01*
X143230000Y-104916489D01*
X143202741Y-104814756D01*
X143150080Y-104723544D01*
X143075606Y-104649070D01*
X142984394Y-104596409D01*
X142882661Y-104569150D01*
X142876446Y-104569150D01*
X143591715Y-103853879D01*
X143591538Y-103851620D01*
X143605901Y-103783243D01*
X143654952Y-103733485D01*
X143723116Y-103718145D01*
X143763067Y-103727518D01*
G37*
%TD.AperFunction*%
%TD*%
%TA.AperFunction,Conductor*%
%TO.N,/+24V-Sim*%
G36*
X109999939Y-106519685D02*
G01*
X110045694Y-106572489D01*
X110056900Y-106624000D01*
X110056900Y-107244600D01*
X110271100Y-107244600D01*
X110338139Y-107264285D01*
X110383894Y-107317089D01*
X110395100Y-107368600D01*
X110395100Y-107870900D01*
X113604900Y-107870900D01*
X113604900Y-107368600D01*
X113624585Y-107301561D01*
X113677389Y-107255806D01*
X113728900Y-107244600D01*
X113943100Y-107244600D01*
X113943100Y-106624000D01*
X113962785Y-106556961D01*
X114015589Y-106511206D01*
X114067100Y-106500000D01*
X114676000Y-106500000D01*
X114743039Y-106519685D01*
X114788794Y-106572489D01*
X114800000Y-106624000D01*
X114800000Y-110876000D01*
X114780315Y-110943039D01*
X114727511Y-110988794D01*
X114676000Y-111000000D01*
X110000000Y-111000000D01*
X110000000Y-117002649D01*
X109980315Y-117069688D01*
X109927511Y-117115443D01*
X109858353Y-117125387D01*
X109841065Y-117121626D01*
X109818420Y-117114977D01*
X109818422Y-117114977D01*
X109818417Y-117114976D01*
X109740600Y-117103788D01*
X109676000Y-117094500D01*
X102924000Y-117094500D01*
X102923991Y-117094500D01*
X102923990Y-117094501D01*
X102816549Y-117106052D01*
X102816537Y-117106054D01*
X102765027Y-117117260D01*
X102662502Y-117151383D01*
X102662496Y-117151386D01*
X102541462Y-117229171D01*
X102541451Y-117229179D01*
X102488659Y-117274923D01*
X102394433Y-117383664D01*
X102394430Y-117383668D01*
X102334664Y-117514534D01*
X102314976Y-117581582D01*
X102294500Y-117724001D01*
X102294500Y-127676000D01*
X102274815Y-127743039D01*
X102222011Y-127788794D01*
X102170500Y-127800000D01*
X98324000Y-127800000D01*
X98256961Y-127780315D01*
X98211206Y-127727511D01*
X98200000Y-127676000D01*
X98200000Y-114373006D01*
X104175000Y-114373006D01*
X104175000Y-114616993D01*
X104213165Y-114857959D01*
X104288560Y-115089998D01*
X104399323Y-115307380D01*
X104466543Y-115399901D01*
X104466544Y-115399902D01*
X105085690Y-114780756D01*
X105104668Y-114826574D01*
X105181274Y-114941224D01*
X105278776Y-115038726D01*
X105393426Y-115115332D01*
X105439242Y-115134309D01*
X104820096Y-115753454D01*
X104820097Y-115753456D01*
X104912619Y-115820676D01*
X105130001Y-115931439D01*
X105362040Y-116006834D01*
X105603007Y-116045000D01*
X105846993Y-116045000D01*
X106087959Y-116006834D01*
X106319998Y-115931439D01*
X106537377Y-115820678D01*
X106629901Y-115753454D01*
X106629902Y-115753454D01*
X106010757Y-115134309D01*
X106056574Y-115115332D01*
X106171224Y-115038726D01*
X106268726Y-114941224D01*
X106345332Y-114826574D01*
X106364309Y-114780757D01*
X106983454Y-115399902D01*
X106983454Y-115399901D01*
X107050678Y-115307377D01*
X107161439Y-115089998D01*
X107236834Y-114857959D01*
X107275000Y-114616993D01*
X107275000Y-114373006D01*
X107236834Y-114132040D01*
X107161439Y-113900001D01*
X107050676Y-113682619D01*
X106983456Y-113590097D01*
X106983454Y-113590096D01*
X106364309Y-114209241D01*
X106345332Y-114163426D01*
X106268726Y-114048776D01*
X106171224Y-113951274D01*
X106056574Y-113874668D01*
X106010756Y-113855689D01*
X106629902Y-113236544D01*
X106629901Y-113236543D01*
X106537380Y-113169323D01*
X106319998Y-113058560D01*
X106087959Y-112983165D01*
X105846993Y-112945000D01*
X105603007Y-112945000D01*
X105362040Y-112983165D01*
X105130001Y-113058560D01*
X104912626Y-113169319D01*
X104820097Y-113236544D01*
X105439243Y-113855689D01*
X105393426Y-113874668D01*
X105278776Y-113951274D01*
X105181274Y-114048776D01*
X105104668Y-114163426D01*
X105085690Y-114209243D01*
X104466544Y-113590097D01*
X104399319Y-113682626D01*
X104288560Y-113900001D01*
X104213165Y-114132040D01*
X104175000Y-114373006D01*
X98200000Y-114373006D01*
X98200000Y-112111760D01*
X98219685Y-112044721D01*
X98272489Y-111998966D01*
X98340184Y-111988821D01*
X98425957Y-112000114D01*
X98458874Y-112003356D01*
X98475059Y-112004417D01*
X98508126Y-112005500D01*
X98508140Y-112005500D01*
X106991860Y-112005500D01*
X106991874Y-112005500D01*
X107024943Y-112004417D01*
X107041127Y-112003356D01*
X107074042Y-112000114D01*
X107179208Y-111986268D01*
X107244058Y-111973368D01*
X107275325Y-111964990D01*
X107337937Y-111943736D01*
X107428364Y-111906280D01*
X107487670Y-111877034D01*
X107515703Y-111860849D01*
X107570680Y-111824114D01*
X107648330Y-111764531D01*
X107698043Y-111720933D01*
X107720933Y-111698043D01*
X107764531Y-111648330D01*
X107824114Y-111570680D01*
X107860849Y-111515703D01*
X107877034Y-111487670D01*
X107906280Y-111428364D01*
X107943736Y-111337937D01*
X107964990Y-111275325D01*
X107973368Y-111244058D01*
X107986268Y-111179209D01*
X107987718Y-111168188D01*
X108000000Y-111167647D01*
X108000000Y-111074910D01*
X108000114Y-111074045D01*
X108003356Y-111041125D01*
X108004417Y-111024939D01*
X108005500Y-110991874D01*
X108005500Y-110639249D01*
X108000967Y-110603158D01*
X108000000Y-110587705D01*
X108000000Y-108994244D01*
X110395100Y-108994244D01*
X110401501Y-109053772D01*
X110401503Y-109053779D01*
X110451745Y-109188486D01*
X110451749Y-109188493D01*
X110537909Y-109303587D01*
X110537912Y-109303590D01*
X110653006Y-109389750D01*
X110653013Y-109389754D01*
X110787720Y-109439996D01*
X110787727Y-109439998D01*
X110847255Y-109446399D01*
X110847272Y-109446400D01*
X111750000Y-109446400D01*
X112250000Y-109446400D01*
X113152728Y-109446400D01*
X113152744Y-109446399D01*
X113212272Y-109439998D01*
X113212279Y-109439996D01*
X113346986Y-109389754D01*
X113346993Y-109389750D01*
X113462087Y-109303590D01*
X113462090Y-109303587D01*
X113548250Y-109188493D01*
X113548254Y-109188486D01*
X113598496Y-109053779D01*
X113598498Y-109053772D01*
X113604899Y-108994244D01*
X113604900Y-108994227D01*
X113604900Y-108370900D01*
X112250000Y-108370900D01*
X112250000Y-109446400D01*
X111750000Y-109446400D01*
X111750000Y-108370900D01*
X110395100Y-108370900D01*
X110395100Y-108994244D01*
X108000000Y-108994244D01*
X108000000Y-108237872D01*
X108001262Y-108220225D01*
X108005500Y-108190750D01*
X108005500Y-106624000D01*
X108025185Y-106556961D01*
X108077989Y-106511206D01*
X108129500Y-106500000D01*
X109932900Y-106500000D01*
X109999939Y-106519685D01*
G37*
%TD.AperFunction*%
%TD*%
%TA.AperFunction,Conductor*%
%TO.N,ramp_up*%
G36*
X115453258Y-61982603D02*
G01*
X115490044Y-62042004D01*
X115494500Y-62074946D01*
X115494500Y-64476868D01*
X115501486Y-64542943D01*
X115505679Y-64582591D01*
X115516524Y-64633298D01*
X115516527Y-64633311D01*
X115549564Y-64734341D01*
X115626496Y-64855922D01*
X115669326Y-64906059D01*
X115670691Y-64907763D01*
X115671882Y-64909051D01*
X115779955Y-65004034D01*
X115910411Y-65064722D01*
X115977311Y-65084877D01*
X116119578Y-65106353D01*
X121876874Y-65146802D01*
X121943771Y-65166956D01*
X121989153Y-65220080D01*
X122000000Y-65270798D01*
X122000000Y-68260712D01*
X121980315Y-68327751D01*
X121927511Y-68373506D01*
X121858353Y-68383450D01*
X121801689Y-68359978D01*
X121717093Y-68296649D01*
X121717086Y-68296645D01*
X121582379Y-68246403D01*
X121582372Y-68246401D01*
X121522844Y-68240000D01*
X121200000Y-68240000D01*
X121200000Y-70960000D01*
X121522828Y-70960000D01*
X121522844Y-70959999D01*
X121582372Y-70953598D01*
X121582379Y-70953596D01*
X121717086Y-70903354D01*
X121717089Y-70903352D01*
X121801688Y-70840021D01*
X121867152Y-70815603D01*
X121935425Y-70830454D01*
X121984831Y-70879858D01*
X122000000Y-70939287D01*
X122000000Y-72854608D01*
X121980315Y-72921647D01*
X121927511Y-72967402D01*
X121858353Y-72977346D01*
X121794797Y-72948321D01*
X121776734Y-72928919D01*
X121757190Y-72902812D01*
X121757187Y-72902809D01*
X121642093Y-72816649D01*
X121642086Y-72816645D01*
X121507379Y-72766403D01*
X121507372Y-72766401D01*
X121447844Y-72760000D01*
X121205000Y-72760000D01*
X121205000Y-75440000D01*
X121447828Y-75440000D01*
X121447844Y-75439999D01*
X121507372Y-75433598D01*
X121507379Y-75433596D01*
X121642086Y-75383354D01*
X121642093Y-75383350D01*
X121757187Y-75297190D01*
X121757188Y-75297189D01*
X121776733Y-75271081D01*
X121801304Y-75252686D01*
X121824489Y-75232597D01*
X121829008Y-75231947D01*
X121832666Y-75229209D01*
X121863276Y-75227019D01*
X121893647Y-75222653D01*
X121897802Y-75224550D01*
X121902358Y-75224225D01*
X121929289Y-75238930D01*
X121957203Y-75251678D01*
X121959672Y-75255520D01*
X121963681Y-75257709D01*
X121978388Y-75284642D01*
X121994977Y-75310456D01*
X121995868Y-75316655D01*
X121997166Y-75319032D01*
X122000000Y-75345391D01*
X122000000Y-75391839D01*
X121998891Y-75408389D01*
X121984416Y-75515873D01*
X121975660Y-75547793D01*
X121936546Y-75639897D01*
X121919658Y-75668362D01*
X121857574Y-75746837D01*
X121833758Y-75769822D01*
X121753125Y-75829079D01*
X121724077Y-75844944D01*
X121665772Y-75867293D01*
X121630638Y-75880760D01*
X121598427Y-75888376D01*
X121490504Y-75899019D01*
X121473928Y-75899540D01*
X119770708Y-75838968D01*
X118733354Y-75802075D01*
X118726574Y-75801647D01*
X118682209Y-75797628D01*
X118668771Y-75795664D01*
X118625109Y-75786817D01*
X118618491Y-75785287D01*
X117227313Y-75423086D01*
X117221216Y-75421330D01*
X115848509Y-74987844D01*
X120010000Y-74987844D01*
X120016401Y-75047372D01*
X120016403Y-75047379D01*
X120066645Y-75182086D01*
X120066649Y-75182093D01*
X120152809Y-75297187D01*
X120152812Y-75297190D01*
X120267906Y-75383350D01*
X120267913Y-75383354D01*
X120402620Y-75433596D01*
X120402627Y-75433598D01*
X120462155Y-75439999D01*
X120462172Y-75440000D01*
X120705000Y-75440000D01*
X120705000Y-74350000D01*
X120010000Y-74350000D01*
X120010000Y-74987844D01*
X115848509Y-74987844D01*
X114040462Y-74416882D01*
X110589468Y-73327095D01*
X110225491Y-73212155D01*
X120010000Y-73212155D01*
X120010000Y-73850000D01*
X120705000Y-73850000D01*
X120705000Y-72760000D01*
X120462155Y-72760000D01*
X120402627Y-72766401D01*
X120402620Y-72766403D01*
X120267913Y-72816645D01*
X120267906Y-72816649D01*
X120152812Y-72902809D01*
X120152809Y-72902812D01*
X120066649Y-73017906D01*
X120066645Y-73017913D01*
X120016403Y-73152620D01*
X120016401Y-73152627D01*
X120010000Y-73212155D01*
X110225491Y-73212155D01*
X107655162Y-72400472D01*
X107593389Y-72388680D01*
X107538988Y-72378295D01*
X107538985Y-72378294D01*
X107538981Y-72378294D01*
X107538977Y-72378293D01*
X107500822Y-72375566D01*
X107500961Y-72373612D01*
X107441651Y-72356197D01*
X107421009Y-72339563D01*
X106819821Y-71738375D01*
X106872642Y-71724222D01*
X106992357Y-71655104D01*
X107090104Y-71557357D01*
X107159222Y-71437642D01*
X107173375Y-71384821D01*
X107740525Y-71951971D01*
X107740526Y-71951971D01*
X107771168Y-71909797D01*
X107863172Y-71729228D01*
X107863174Y-71729225D01*
X107925796Y-71536491D01*
X107957500Y-71336327D01*
X107957500Y-71133672D01*
X107925796Y-70933508D01*
X107863174Y-70740774D01*
X107863172Y-70740771D01*
X107771168Y-70560202D01*
X107740525Y-70518027D01*
X107740525Y-70518026D01*
X107173375Y-71085177D01*
X107159222Y-71032358D01*
X107090104Y-70912643D01*
X106992357Y-70814896D01*
X106872642Y-70745778D01*
X106819821Y-70731624D01*
X107043601Y-70507844D01*
X119925000Y-70507844D01*
X119931401Y-70567372D01*
X119931403Y-70567379D01*
X119981645Y-70702086D01*
X119981649Y-70702093D01*
X120067809Y-70817187D01*
X120067812Y-70817190D01*
X120182906Y-70903350D01*
X120182913Y-70903354D01*
X120317620Y-70953596D01*
X120317627Y-70953598D01*
X120377155Y-70959999D01*
X120377172Y-70960000D01*
X120700000Y-70960000D01*
X120700000Y-69850000D01*
X119925000Y-69850000D01*
X119925000Y-70507844D01*
X107043601Y-70507844D01*
X107386972Y-70164473D01*
X107344797Y-70133831D01*
X107159887Y-70039615D01*
X107160493Y-70038425D01*
X107110824Y-69998404D01*
X107088755Y-69932111D01*
X107106031Y-69864411D01*
X107157165Y-69816797D01*
X107169127Y-69811577D01*
X108450251Y-69331156D01*
X109042316Y-68692155D01*
X119925000Y-68692155D01*
X119925000Y-69350000D01*
X120700000Y-69350000D01*
X120700000Y-68240000D01*
X120377155Y-68240000D01*
X120317627Y-68246401D01*
X120317620Y-68246403D01*
X120182913Y-68296645D01*
X120182906Y-68296649D01*
X120067812Y-68382809D01*
X120067809Y-68382812D01*
X119981649Y-68497906D01*
X119981645Y-68497913D01*
X119931403Y-68632620D01*
X119931401Y-68632627D01*
X119925000Y-68692155D01*
X109042316Y-68692155D01*
X109123464Y-68604574D01*
X112709418Y-64734341D01*
X115181371Y-62066422D01*
X115193747Y-62054779D01*
X115279770Y-61984322D01*
X115308709Y-61966622D01*
X115316531Y-61963206D01*
X115320881Y-61961307D01*
X115339767Y-61958912D01*
X115344097Y-61957079D01*
X115348394Y-61957819D01*
X115390196Y-61952520D01*
X115453258Y-61982603D01*
G37*
%TD.AperFunction*%
%TD*%
%TA.AperFunction,Conductor*%
%TO.N,/sim_home_opto*%
G36*
X127891125Y-85119408D02*
G01*
X127907266Y-85120619D01*
X128012236Y-85135451D01*
X128043381Y-85144110D01*
X128133392Y-85182372D01*
X128161250Y-85198798D01*
X128238296Y-85259031D01*
X128260961Y-85282104D01*
X128319810Y-85360212D01*
X128335738Y-85388363D01*
X128372385Y-85479035D01*
X128380491Y-85510347D01*
X128386438Y-85558645D01*
X128386657Y-85587048D01*
X128384500Y-85607111D01*
X128384500Y-86825028D01*
X128384496Y-86826053D01*
X128375000Y-87974999D01*
X128375000Y-87975000D01*
X128736563Y-87980795D01*
X128760211Y-87988153D01*
X128784769Y-87991394D01*
X128798724Y-88000135D01*
X128803272Y-88001550D01*
X128814680Y-88010129D01*
X128815835Y-88011106D01*
X128815839Y-88011111D01*
X128838994Y-88030708D01*
X128855245Y-88044463D01*
X128856335Y-88045397D01*
X128919645Y-88100253D01*
X128921913Y-88101674D01*
X128925494Y-88103917D01*
X129003559Y-88138497D01*
X129004815Y-88139061D01*
X129050313Y-88159840D01*
X129051018Y-88160047D01*
X129051018Y-88160046D01*
X129054543Y-88161081D01*
X129057046Y-88162190D01*
X129087284Y-88170695D01*
X129112985Y-88178242D01*
X129115094Y-88178946D01*
X129117331Y-88179518D01*
X129117340Y-88179521D01*
X129117348Y-88179524D01*
X129259764Y-88200000D01*
X130821006Y-88200000D01*
X130835890Y-88204370D01*
X130851393Y-88203781D01*
X130868731Y-88214013D01*
X130888045Y-88219685D01*
X130899049Y-88231907D01*
X130911564Y-88239293D01*
X130931756Y-88268231D01*
X130956754Y-88317883D01*
X130969999Y-88373641D01*
X130970000Y-89455999D01*
X130950316Y-89523038D01*
X130897512Y-89568793D01*
X130846000Y-89579999D01*
X129669737Y-89579999D01*
X129666935Y-89580007D01*
X129666936Y-89580008D01*
X129666785Y-89580008D01*
X129666760Y-89580009D01*
X129665456Y-89580017D01*
X129665446Y-89580017D01*
X129665296Y-89580018D01*
X129665295Y-89580017D01*
X129662805Y-89580039D01*
X129662790Y-89580040D01*
X129579972Y-89592913D01*
X129520619Y-89602139D01*
X129520617Y-89602139D01*
X129520614Y-89602140D01*
X129453810Y-89622586D01*
X129453808Y-89622586D01*
X129323622Y-89683844D01*
X129215968Y-89779296D01*
X129215960Y-89779305D01*
X129170815Y-89832621D01*
X129094413Y-89954541D01*
X129055452Y-90093049D01*
X129055452Y-90093051D01*
X129046485Y-90160906D01*
X129018187Y-90224788D01*
X128959844Y-90263231D01*
X128926860Y-90268616D01*
X127750001Y-90299999D01*
X127749999Y-90300000D01*
X123908024Y-93192782D01*
X123908022Y-93192783D01*
X123854183Y-93233319D01*
X123839298Y-93242941D01*
X123737768Y-93298711D01*
X123704664Y-93311143D01*
X123600284Y-93334063D01*
X123565015Y-93336644D01*
X123458418Y-93329169D01*
X123423855Y-93321691D01*
X123323697Y-93284429D01*
X123292652Y-93267499D01*
X123199894Y-93198102D01*
X123186495Y-93186495D01*
X116901168Y-86901168D01*
X116889781Y-86888063D01*
X116821533Y-86797401D01*
X116804774Y-86767097D01*
X116767401Y-86669303D01*
X116759678Y-86635541D01*
X116750812Y-86531237D01*
X116752726Y-86496656D01*
X116773059Y-86393957D01*
X116784464Y-86361257D01*
X116832407Y-86268189D01*
X116852404Y-86239929D01*
X116930259Y-86157346D01*
X116943007Y-86145594D01*
X118192722Y-85145822D01*
X118210319Y-85134060D01*
X118331365Y-85067356D01*
X118371261Y-85053575D01*
X118507665Y-85031352D01*
X118528772Y-85029745D01*
X127891125Y-85119408D01*
G37*
%TD.AperFunction*%
%TD*%
%TA.AperFunction,Conductor*%
%TO.N,ramp_down*%
G36*
X107502938Y-72882508D02*
G01*
X111480066Y-74138443D01*
X112113916Y-74338606D01*
X119274998Y-76600000D01*
X119274999Y-76600000D01*
X121491874Y-76600000D01*
X121508059Y-76601061D01*
X121613223Y-76614906D01*
X121644491Y-76623284D01*
X121734918Y-76660740D01*
X121762951Y-76676925D01*
X121796001Y-76702285D01*
X121837204Y-76758713D01*
X121841359Y-76828459D01*
X121807147Y-76889379D01*
X121745430Y-76922132D01*
X121677182Y-76916843D01*
X121622379Y-76896403D01*
X121622372Y-76896401D01*
X121562844Y-76890000D01*
X121240000Y-76890000D01*
X121240000Y-79610000D01*
X121562828Y-79610000D01*
X121562844Y-79609999D01*
X121622372Y-79603598D01*
X121622379Y-79603596D01*
X121757086Y-79553354D01*
X121757093Y-79553350D01*
X121801689Y-79519966D01*
X121867153Y-79495548D01*
X121935426Y-79510399D01*
X121984832Y-79559804D01*
X122000000Y-79619232D01*
X122000000Y-81380767D01*
X121980315Y-81447806D01*
X121927511Y-81493561D01*
X121858353Y-81503505D01*
X121801690Y-81480034D01*
X121757093Y-81446649D01*
X121757086Y-81446645D01*
X121622379Y-81396403D01*
X121622372Y-81396401D01*
X121562844Y-81390000D01*
X121240000Y-81390000D01*
X121240000Y-84110000D01*
X121562828Y-84110000D01*
X121562844Y-84109999D01*
X121622372Y-84103598D01*
X121622376Y-84103597D01*
X121729748Y-84063550D01*
X121730513Y-84063495D01*
X121731133Y-84063043D01*
X121765295Y-84061007D01*
X121799440Y-84058566D01*
X121800113Y-84058933D01*
X121800879Y-84058888D01*
X121830728Y-84075650D01*
X121860763Y-84092051D01*
X121861130Y-84092724D01*
X121861800Y-84093100D01*
X121877861Y-84123364D01*
X121894248Y-84153374D01*
X121894193Y-84154138D01*
X121894553Y-84154816D01*
X121891706Y-84188909D01*
X121889264Y-84223065D01*
X121888782Y-84223934D01*
X121888740Y-84224444D01*
X121871459Y-84255217D01*
X121863492Y-84265600D01*
X121840601Y-84288491D01*
X121762951Y-84348074D01*
X121734918Y-84364259D01*
X121644491Y-84401715D01*
X121613224Y-84410093D01*
X121519398Y-84422446D01*
X121508058Y-84423939D01*
X121491874Y-84425000D01*
X118025000Y-84425000D01*
X116000000Y-86000000D01*
X116000000Y-86491874D01*
X115998939Y-86508059D01*
X115998939Y-86508060D01*
X115985093Y-86613224D01*
X115976715Y-86644491D01*
X115939259Y-86734918D01*
X115923074Y-86762951D01*
X115863491Y-86840601D01*
X115840601Y-86863491D01*
X115762951Y-86923074D01*
X115734918Y-86939259D01*
X115644491Y-86976715D01*
X115613224Y-86985093D01*
X115519398Y-86997446D01*
X115508058Y-86998939D01*
X115491874Y-87000000D01*
X109258126Y-87000000D01*
X109241941Y-86998939D01*
X109228917Y-86997224D01*
X109136775Y-86985093D01*
X109105508Y-86976715D01*
X109015081Y-86939259D01*
X108987048Y-86923074D01*
X108909398Y-86863491D01*
X108886508Y-86840601D01*
X108826925Y-86762951D01*
X108810740Y-86734918D01*
X108773284Y-86644491D01*
X108764906Y-86613223D01*
X108751061Y-86508059D01*
X108750000Y-86491874D01*
X108750000Y-83657844D01*
X119965000Y-83657844D01*
X119971401Y-83717372D01*
X119971403Y-83717379D01*
X120021645Y-83852086D01*
X120021649Y-83852093D01*
X120107809Y-83967187D01*
X120107812Y-83967190D01*
X120222906Y-84053350D01*
X120222913Y-84053354D01*
X120357620Y-84103596D01*
X120357627Y-84103598D01*
X120417155Y-84109999D01*
X120417172Y-84110000D01*
X120740000Y-84110000D01*
X120740000Y-83000000D01*
X119965000Y-83000000D01*
X119965000Y-83657844D01*
X108750000Y-83657844D01*
X108750000Y-81842155D01*
X119965000Y-81842155D01*
X119965000Y-82500000D01*
X120740000Y-82500000D01*
X120740000Y-81390000D01*
X120417155Y-81390000D01*
X120357627Y-81396401D01*
X120357620Y-81396403D01*
X120222913Y-81446645D01*
X120222906Y-81446649D01*
X120107812Y-81532809D01*
X120107809Y-81532812D01*
X120021649Y-81647906D01*
X120021645Y-81647913D01*
X119971403Y-81782620D01*
X119971401Y-81782627D01*
X119965000Y-81842155D01*
X108750000Y-81842155D01*
X108750000Y-79157844D01*
X119965000Y-79157844D01*
X119971401Y-79217372D01*
X119971403Y-79217379D01*
X120021645Y-79352086D01*
X120021649Y-79352093D01*
X120107809Y-79467187D01*
X120107812Y-79467190D01*
X120222906Y-79553350D01*
X120222913Y-79553354D01*
X120357620Y-79603596D01*
X120357627Y-79603598D01*
X120417155Y-79609999D01*
X120417172Y-79610000D01*
X120740000Y-79610000D01*
X120740000Y-78500000D01*
X119965000Y-78500000D01*
X119965000Y-79157844D01*
X108750000Y-79157844D01*
X108750000Y-77342155D01*
X119965000Y-77342155D01*
X119965000Y-78000000D01*
X120740000Y-78000000D01*
X120740000Y-76890000D01*
X120417155Y-76890000D01*
X120357627Y-76896401D01*
X120357620Y-76896403D01*
X120222913Y-76946645D01*
X120222906Y-76946649D01*
X120107812Y-77032809D01*
X120107809Y-77032812D01*
X120021649Y-77147906D01*
X120021645Y-77147913D01*
X119971403Y-77282620D01*
X119971401Y-77282627D01*
X119965000Y-77342155D01*
X108750000Y-77342155D01*
X108750000Y-76500000D01*
X108473609Y-76361804D01*
X108475300Y-76358420D01*
X108475298Y-76358419D01*
X108473607Y-76361803D01*
X107696951Y-75973474D01*
X107656303Y-75939025D01*
X107655596Y-75939629D01*
X107652429Y-75935921D01*
X107509074Y-75792566D01*
X107509069Y-75792562D01*
X107345062Y-75673405D01*
X107345061Y-75673404D01*
X107345059Y-75673403D01*
X107287186Y-75643915D01*
X107164420Y-75581362D01*
X107164417Y-75581361D01*
X106971609Y-75518715D01*
X106930596Y-75512219D01*
X106867462Y-75482289D01*
X106830532Y-75422977D01*
X106831530Y-75353114D01*
X106870141Y-75294882D01*
X106930600Y-75267272D01*
X106971495Y-75260795D01*
X107164225Y-75198174D01*
X107164228Y-75198172D01*
X107344797Y-75106168D01*
X107386971Y-75075526D01*
X107386971Y-75075525D01*
X106819821Y-74508375D01*
X106872642Y-74494222D01*
X106992357Y-74425104D01*
X107090104Y-74327357D01*
X107159222Y-74207642D01*
X107173375Y-74154821D01*
X107740525Y-74721971D01*
X107740526Y-74721971D01*
X107771168Y-74679797D01*
X107863172Y-74499228D01*
X107863174Y-74499225D01*
X107925796Y-74306491D01*
X107957500Y-74106327D01*
X107957500Y-73903672D01*
X107925796Y-73703508D01*
X107863174Y-73510774D01*
X107863172Y-73510771D01*
X107771168Y-73330202D01*
X107740525Y-73288027D01*
X107740525Y-73288026D01*
X107173375Y-73855177D01*
X107159222Y-73802358D01*
X107090104Y-73682643D01*
X106992357Y-73584896D01*
X106872642Y-73515778D01*
X106819821Y-73501624D01*
X107407866Y-72913580D01*
X107469189Y-72880095D01*
X107502938Y-72882508D01*
G37*
%TD.AperFunction*%
%TD*%
%TA.AperFunction,Conductor*%
%TO.N,ramp_up_opto*%
G36*
X126052431Y-65176138D02*
G01*
X126119330Y-65196293D01*
X126164712Y-65249417D01*
X126175553Y-65298927D01*
X126262662Y-74240937D01*
X126262662Y-74240940D01*
X126273585Y-74340636D01*
X126273586Y-74340641D01*
X126273587Y-74340649D01*
X126283721Y-74388545D01*
X126283721Y-74388546D01*
X126314112Y-74484122D01*
X126314112Y-74484123D01*
X126389318Y-74606782D01*
X126389323Y-74606788D01*
X126433939Y-74660536D01*
X126433946Y-74660543D01*
X126433953Y-74660551D01*
X126540673Y-74757051D01*
X126670258Y-74819576D01*
X126706661Y-74831106D01*
X126736855Y-74840671D01*
X126736858Y-74840671D01*
X126736866Y-74840674D01*
X126878812Y-74864158D01*
X127628625Y-74880026D01*
X127695231Y-74901124D01*
X127739859Y-74954884D01*
X127750000Y-75003998D01*
X127750000Y-77850000D01*
X130814568Y-77850000D01*
X130835813Y-77856238D01*
X130857902Y-77857818D01*
X130868685Y-77865890D01*
X130881607Y-77869685D01*
X130896106Y-77886418D01*
X130913835Y-77899690D01*
X130924448Y-77919126D01*
X130927362Y-77922489D01*
X130930750Y-77930667D01*
X130962181Y-78014937D01*
X130969999Y-78058270D01*
X130969999Y-79401726D01*
X130962182Y-79445057D01*
X130932600Y-79524373D01*
X130927574Y-79543355D01*
X130925376Y-79548942D01*
X130925374Y-79548949D01*
X130910203Y-79608384D01*
X130906050Y-79641453D01*
X130878165Y-79705517D01*
X130820070Y-79744334D01*
X130783017Y-79750000D01*
X126349000Y-79750000D01*
X126281961Y-79730315D01*
X126236206Y-79677511D01*
X126225000Y-79626000D01*
X126225000Y-76325000D01*
X122874000Y-76325000D01*
X122806961Y-76305315D01*
X122761206Y-76252511D01*
X122750000Y-76201000D01*
X122750000Y-65277810D01*
X122769685Y-65210771D01*
X122822489Y-65165016D01*
X122874867Y-65153813D01*
X126052431Y-65176138D01*
G37*
%TD.AperFunction*%
%TD*%
M02*
