%TF.GenerationSoftware,KiCad,Pcbnew,9.0.0*%
%TF.CreationDate,2025-06-18T07:15:52-06:00*%
%TF.ProjectId,schematic_Mk2.1,73636865-6d61-4746-9963-5f4d6b322e31,rev?*%
%TF.SameCoordinates,Original*%
%TF.FileFunction,Legend,Top*%
%TF.FilePolarity,Positive*%
%FSLAX46Y46*%
G04 Gerber Fmt 4.6, Leading zero omitted, Abs format (unit mm)*
G04 Created by KiCad (PCBNEW 9.0.0) date 2025-06-18 07:15:52*
%MOMM*%
%LPD*%
G01*
G04 APERTURE LIST*
%ADD10C,0.300000*%
%ADD11C,0.500000*%
%ADD12C,0.250000*%
%ADD13C,0.200000*%
%ADD14C,0.150000*%
%ADD15C,0.127000*%
%ADD16C,0.508000*%
%ADD17C,0.152400*%
%ADD18C,0.010000*%
G04 APERTURE END LIST*
D10*
X155225000Y-118750000D02*
X171175000Y-118750000D01*
D11*
X155362399Y-123785667D02*
X155799899Y-120285667D01*
X155799899Y-120285667D02*
X156487399Y-122785667D01*
X156487399Y-122785667D02*
X157799899Y-120285667D01*
X157799899Y-120285667D02*
X157362399Y-123785667D01*
X160076684Y-123785667D02*
X160305851Y-121952334D01*
X160305851Y-121952334D02*
X160204660Y-121619001D01*
X160204660Y-121619001D02*
X159939779Y-121452334D01*
X159939779Y-121452334D02*
X159368351Y-121452334D01*
X159368351Y-121452334D02*
X159061803Y-121619001D01*
X160097518Y-123619001D02*
X159790970Y-123785667D01*
X159790970Y-123785667D02*
X159076684Y-123785667D01*
X159076684Y-123785667D02*
X158811803Y-123619001D01*
X158811803Y-123619001D02*
X158710613Y-123285667D01*
X158710613Y-123285667D02*
X158752279Y-122952334D01*
X158752279Y-122952334D02*
X158936803Y-122619001D01*
X158936803Y-122619001D02*
X159243351Y-122452334D01*
X159243351Y-122452334D02*
X159957637Y-122452334D01*
X159957637Y-122452334D02*
X160264184Y-122285667D01*
X161505256Y-123785667D02*
X161796923Y-121452334D01*
X161713589Y-122119001D02*
X161898113Y-121785667D01*
X161898113Y-121785667D02*
X162061804Y-121619001D01*
X162061804Y-121619001D02*
X162368351Y-121452334D01*
X162368351Y-121452334D02*
X162654065Y-121452334D01*
X163362399Y-123785667D02*
X163799899Y-120285667D01*
X163814780Y-122452334D02*
X164505256Y-123785667D01*
X164796923Y-121452334D02*
X163487399Y-122785667D01*
X168076684Y-123785667D02*
X168514184Y-120285667D01*
X169505255Y-123785667D02*
X169942755Y-120285667D01*
X170933826Y-123785667D02*
X171371326Y-120285667D01*
D12*
X120307406Y-63433534D02*
X120307406Y-62133534D01*
X120307406Y-62133534D02*
X120581216Y-62133534D01*
X120581216Y-62133534D02*
X120745501Y-62195439D01*
X120745501Y-62195439D02*
X120855025Y-62319249D01*
X120855025Y-62319249D02*
X120909787Y-62443058D01*
X120909787Y-62443058D02*
X120964549Y-62690677D01*
X120964549Y-62690677D02*
X120964549Y-62876391D01*
X120964549Y-62876391D02*
X120909787Y-63124010D01*
X120909787Y-63124010D02*
X120855025Y-63247820D01*
X120855025Y-63247820D02*
X120745501Y-63371630D01*
X120745501Y-63371630D02*
X120581216Y-63433534D01*
X120581216Y-63433534D02*
X120307406Y-63433534D01*
X121895501Y-63371630D02*
X121785977Y-63433534D01*
X121785977Y-63433534D02*
X121566930Y-63433534D01*
X121566930Y-63433534D02*
X121457406Y-63371630D01*
X121457406Y-63371630D02*
X121402644Y-63247820D01*
X121402644Y-63247820D02*
X121402644Y-62752582D01*
X121402644Y-62752582D02*
X121457406Y-62628772D01*
X121457406Y-62628772D02*
X121566930Y-62566868D01*
X121566930Y-62566868D02*
X121785977Y-62566868D01*
X121785977Y-62566868D02*
X121895501Y-62628772D01*
X121895501Y-62628772D02*
X121950263Y-62752582D01*
X121950263Y-62752582D02*
X121950263Y-62876391D01*
X121950263Y-62876391D02*
X121402644Y-63000201D01*
X122443120Y-63433534D02*
X122443120Y-62566868D01*
X122443120Y-62690677D02*
X122497882Y-62628772D01*
X122497882Y-62628772D02*
X122607406Y-62566868D01*
X122607406Y-62566868D02*
X122771691Y-62566868D01*
X122771691Y-62566868D02*
X122881215Y-62628772D01*
X122881215Y-62628772D02*
X122935977Y-62752582D01*
X122935977Y-62752582D02*
X122935977Y-63433534D01*
X122935977Y-62752582D02*
X122990739Y-62628772D01*
X122990739Y-62628772D02*
X123100263Y-62566868D01*
X123100263Y-62566868D02*
X123264549Y-62566868D01*
X123264549Y-62566868D02*
X123374072Y-62628772D01*
X123374072Y-62628772D02*
X123428834Y-62752582D01*
X123428834Y-62752582D02*
X123428834Y-63433534D01*
X124414548Y-63371630D02*
X124305024Y-63433534D01*
X124305024Y-63433534D02*
X124085977Y-63433534D01*
X124085977Y-63433534D02*
X123976453Y-63371630D01*
X123976453Y-63371630D02*
X123921691Y-63247820D01*
X123921691Y-63247820D02*
X123921691Y-62752582D01*
X123921691Y-62752582D02*
X123976453Y-62628772D01*
X123976453Y-62628772D02*
X124085977Y-62566868D01*
X124085977Y-62566868D02*
X124305024Y-62566868D01*
X124305024Y-62566868D02*
X124414548Y-62628772D01*
X124414548Y-62628772D02*
X124469310Y-62752582D01*
X124469310Y-62752582D02*
X124469310Y-62876391D01*
X124469310Y-62876391D02*
X123921691Y-63000201D01*
X124797881Y-62566868D02*
X125235977Y-62566868D01*
X124962167Y-62133534D02*
X124962167Y-63247820D01*
X124962167Y-63247820D02*
X125016929Y-63371630D01*
X125016929Y-63371630D02*
X125126453Y-63433534D01*
X125126453Y-63433534D02*
X125235977Y-63433534D01*
X125619310Y-63433534D02*
X125619310Y-62566868D01*
X125619310Y-62814487D02*
X125674072Y-62690677D01*
X125674072Y-62690677D02*
X125728834Y-62628772D01*
X125728834Y-62628772D02*
X125838358Y-62566868D01*
X125838358Y-62566868D02*
X125947881Y-62566868D01*
X126331215Y-63433534D02*
X126331215Y-62566868D01*
X126331215Y-62133534D02*
X126276453Y-62195439D01*
X126276453Y-62195439D02*
X126331215Y-62257344D01*
X126331215Y-62257344D02*
X126385977Y-62195439D01*
X126385977Y-62195439D02*
X126331215Y-62133534D01*
X126331215Y-62133534D02*
X126331215Y-62257344D01*
X127371691Y-62566868D02*
X127371691Y-63433534D01*
X126878834Y-62566868D02*
X126878834Y-63247820D01*
X126878834Y-63247820D02*
X126933596Y-63371630D01*
X126933596Y-63371630D02*
X127043120Y-63433534D01*
X127043120Y-63433534D02*
X127207405Y-63433534D01*
X127207405Y-63433534D02*
X127316929Y-63371630D01*
X127316929Y-63371630D02*
X127371691Y-63309725D01*
X127864548Y-63371630D02*
X127974072Y-63433534D01*
X127974072Y-63433534D02*
X128193120Y-63433534D01*
X128193120Y-63433534D02*
X128302643Y-63371630D01*
X128302643Y-63371630D02*
X128357405Y-63247820D01*
X128357405Y-63247820D02*
X128357405Y-63185915D01*
X128357405Y-63185915D02*
X128302643Y-63062106D01*
X128302643Y-63062106D02*
X128193120Y-63000201D01*
X128193120Y-63000201D02*
X128028834Y-63000201D01*
X128028834Y-63000201D02*
X127919310Y-62938296D01*
X127919310Y-62938296D02*
X127864548Y-62814487D01*
X127864548Y-62814487D02*
X127864548Y-62752582D01*
X127864548Y-62752582D02*
X127919310Y-62628772D01*
X127919310Y-62628772D02*
X128028834Y-62566868D01*
X128028834Y-62566868D02*
X128193120Y-62566868D01*
X128193120Y-62566868D02*
X128302643Y-62628772D01*
X130383595Y-63433534D02*
X130000262Y-62814487D01*
X129726452Y-63433534D02*
X129726452Y-62133534D01*
X129726452Y-62133534D02*
X130164547Y-62133534D01*
X130164547Y-62133534D02*
X130274071Y-62195439D01*
X130274071Y-62195439D02*
X130328833Y-62257344D01*
X130328833Y-62257344D02*
X130383595Y-62381153D01*
X130383595Y-62381153D02*
X130383595Y-62566868D01*
X130383595Y-62566868D02*
X130328833Y-62690677D01*
X130328833Y-62690677D02*
X130274071Y-62752582D01*
X130274071Y-62752582D02*
X130164547Y-62814487D01*
X130164547Y-62814487D02*
X129726452Y-62814487D01*
X131040738Y-63433534D02*
X130931214Y-63371630D01*
X130931214Y-63371630D02*
X130876452Y-63309725D01*
X130876452Y-63309725D02*
X130821690Y-63185915D01*
X130821690Y-63185915D02*
X130821690Y-62814487D01*
X130821690Y-62814487D02*
X130876452Y-62690677D01*
X130876452Y-62690677D02*
X130931214Y-62628772D01*
X130931214Y-62628772D02*
X131040738Y-62566868D01*
X131040738Y-62566868D02*
X131205023Y-62566868D01*
X131205023Y-62566868D02*
X131314547Y-62628772D01*
X131314547Y-62628772D02*
X131369309Y-62690677D01*
X131369309Y-62690677D02*
X131424071Y-62814487D01*
X131424071Y-62814487D02*
X131424071Y-63185915D01*
X131424071Y-63185915D02*
X131369309Y-63309725D01*
X131369309Y-63309725D02*
X131314547Y-63371630D01*
X131314547Y-63371630D02*
X131205023Y-63433534D01*
X131205023Y-63433534D02*
X131040738Y-63433534D01*
X131862166Y-63371630D02*
X131971690Y-63433534D01*
X131971690Y-63433534D02*
X132190738Y-63433534D01*
X132190738Y-63433534D02*
X132300261Y-63371630D01*
X132300261Y-63371630D02*
X132355023Y-63247820D01*
X132355023Y-63247820D02*
X132355023Y-63185915D01*
X132355023Y-63185915D02*
X132300261Y-63062106D01*
X132300261Y-63062106D02*
X132190738Y-63000201D01*
X132190738Y-63000201D02*
X132026452Y-63000201D01*
X132026452Y-63000201D02*
X131916928Y-62938296D01*
X131916928Y-62938296D02*
X131862166Y-62814487D01*
X131862166Y-62814487D02*
X131862166Y-62752582D01*
X131862166Y-62752582D02*
X131916928Y-62628772D01*
X131916928Y-62628772D02*
X132026452Y-62566868D01*
X132026452Y-62566868D02*
X132190738Y-62566868D01*
X132190738Y-62566868D02*
X132300261Y-62628772D01*
X132793118Y-63371630D02*
X132902642Y-63433534D01*
X132902642Y-63433534D02*
X133121690Y-63433534D01*
X133121690Y-63433534D02*
X133231213Y-63371630D01*
X133231213Y-63371630D02*
X133285975Y-63247820D01*
X133285975Y-63247820D02*
X133285975Y-63185915D01*
X133285975Y-63185915D02*
X133231213Y-63062106D01*
X133231213Y-63062106D02*
X133121690Y-63000201D01*
X133121690Y-63000201D02*
X132957404Y-63000201D01*
X132957404Y-63000201D02*
X132847880Y-62938296D01*
X132847880Y-62938296D02*
X132793118Y-62814487D01*
X132793118Y-62814487D02*
X132793118Y-62752582D01*
X132793118Y-62752582D02*
X132847880Y-62628772D01*
X132847880Y-62628772D02*
X132957404Y-62566868D01*
X132957404Y-62566868D02*
X133121690Y-62566868D01*
X133121690Y-62566868D02*
X133231213Y-62628772D01*
X112832407Y-65526461D02*
X112832407Y-64226461D01*
X112832407Y-64226461D02*
X113106217Y-64226461D01*
X113106217Y-64226461D02*
X113270502Y-64288366D01*
X113270502Y-64288366D02*
X113380026Y-64412176D01*
X113380026Y-64412176D02*
X113434788Y-64535985D01*
X113434788Y-64535985D02*
X113489550Y-64783604D01*
X113489550Y-64783604D02*
X113489550Y-64969318D01*
X113489550Y-64969318D02*
X113434788Y-65216937D01*
X113434788Y-65216937D02*
X113380026Y-65340747D01*
X113380026Y-65340747D02*
X113270502Y-65464557D01*
X113270502Y-65464557D02*
X113106217Y-65526461D01*
X113106217Y-65526461D02*
X112832407Y-65526461D01*
X114420502Y-65464557D02*
X114310978Y-65526461D01*
X114310978Y-65526461D02*
X114091931Y-65526461D01*
X114091931Y-65526461D02*
X113982407Y-65464557D01*
X113982407Y-65464557D02*
X113927645Y-65340747D01*
X113927645Y-65340747D02*
X113927645Y-64845509D01*
X113927645Y-64845509D02*
X113982407Y-64721699D01*
X113982407Y-64721699D02*
X114091931Y-64659795D01*
X114091931Y-64659795D02*
X114310978Y-64659795D01*
X114310978Y-64659795D02*
X114420502Y-64721699D01*
X114420502Y-64721699D02*
X114475264Y-64845509D01*
X114475264Y-64845509D02*
X114475264Y-64969318D01*
X114475264Y-64969318D02*
X113927645Y-65093128D01*
X114968121Y-65526461D02*
X114968121Y-64659795D01*
X114968121Y-64783604D02*
X115022883Y-64721699D01*
X115022883Y-64721699D02*
X115132407Y-64659795D01*
X115132407Y-64659795D02*
X115296692Y-64659795D01*
X115296692Y-64659795D02*
X115406216Y-64721699D01*
X115406216Y-64721699D02*
X115460978Y-64845509D01*
X115460978Y-64845509D02*
X115460978Y-65526461D01*
X115460978Y-64845509D02*
X115515740Y-64721699D01*
X115515740Y-64721699D02*
X115625264Y-64659795D01*
X115625264Y-64659795D02*
X115789550Y-64659795D01*
X115789550Y-64659795D02*
X115899073Y-64721699D01*
X115899073Y-64721699D02*
X115953835Y-64845509D01*
X115953835Y-64845509D02*
X115953835Y-65526461D01*
X116939549Y-65464557D02*
X116830025Y-65526461D01*
X116830025Y-65526461D02*
X116610978Y-65526461D01*
X116610978Y-65526461D02*
X116501454Y-65464557D01*
X116501454Y-65464557D02*
X116446692Y-65340747D01*
X116446692Y-65340747D02*
X116446692Y-64845509D01*
X116446692Y-64845509D02*
X116501454Y-64721699D01*
X116501454Y-64721699D02*
X116610978Y-64659795D01*
X116610978Y-64659795D02*
X116830025Y-64659795D01*
X116830025Y-64659795D02*
X116939549Y-64721699D01*
X116939549Y-64721699D02*
X116994311Y-64845509D01*
X116994311Y-64845509D02*
X116994311Y-64969318D01*
X116994311Y-64969318D02*
X116446692Y-65093128D01*
X117322882Y-64659795D02*
X117760978Y-64659795D01*
X117487168Y-64226461D02*
X117487168Y-65340747D01*
X117487168Y-65340747D02*
X117541930Y-65464557D01*
X117541930Y-65464557D02*
X117651454Y-65526461D01*
X117651454Y-65526461D02*
X117760978Y-65526461D01*
X118144311Y-65526461D02*
X118144311Y-64659795D01*
X118144311Y-64907414D02*
X118199073Y-64783604D01*
X118199073Y-64783604D02*
X118253835Y-64721699D01*
X118253835Y-64721699D02*
X118363359Y-64659795D01*
X118363359Y-64659795D02*
X118472882Y-64659795D01*
X118856216Y-65526461D02*
X118856216Y-64659795D01*
X118856216Y-64226461D02*
X118801454Y-64288366D01*
X118801454Y-64288366D02*
X118856216Y-64350271D01*
X118856216Y-64350271D02*
X118910978Y-64288366D01*
X118910978Y-64288366D02*
X118856216Y-64226461D01*
X118856216Y-64226461D02*
X118856216Y-64350271D01*
X119896692Y-64659795D02*
X119896692Y-65526461D01*
X119403835Y-64659795D02*
X119403835Y-65340747D01*
X119403835Y-65340747D02*
X119458597Y-65464557D01*
X119458597Y-65464557D02*
X119568121Y-65526461D01*
X119568121Y-65526461D02*
X119732406Y-65526461D01*
X119732406Y-65526461D02*
X119841930Y-65464557D01*
X119841930Y-65464557D02*
X119896692Y-65402652D01*
X120389549Y-65464557D02*
X120499073Y-65526461D01*
X120499073Y-65526461D02*
X120718121Y-65526461D01*
X120718121Y-65526461D02*
X120827644Y-65464557D01*
X120827644Y-65464557D02*
X120882406Y-65340747D01*
X120882406Y-65340747D02*
X120882406Y-65278842D01*
X120882406Y-65278842D02*
X120827644Y-65155033D01*
X120827644Y-65155033D02*
X120718121Y-65093128D01*
X120718121Y-65093128D02*
X120553835Y-65093128D01*
X120553835Y-65093128D02*
X120444311Y-65031223D01*
X120444311Y-65031223D02*
X120389549Y-64907414D01*
X120389549Y-64907414D02*
X120389549Y-64845509D01*
X120389549Y-64845509D02*
X120444311Y-64721699D01*
X120444311Y-64721699D02*
X120553835Y-64659795D01*
X120553835Y-64659795D02*
X120718121Y-64659795D01*
X120718121Y-64659795D02*
X120827644Y-64721699D01*
X121375263Y-65402652D02*
X121430025Y-65464557D01*
X121430025Y-65464557D02*
X121375263Y-65526461D01*
X121375263Y-65526461D02*
X121320501Y-65464557D01*
X121320501Y-65464557D02*
X121375263Y-65402652D01*
X121375263Y-65402652D02*
X121375263Y-65526461D01*
X122580025Y-65526461D02*
X122196692Y-64907414D01*
X121922882Y-65526461D02*
X121922882Y-64226461D01*
X121922882Y-64226461D02*
X122360977Y-64226461D01*
X122360977Y-64226461D02*
X122470501Y-64288366D01*
X122470501Y-64288366D02*
X122525263Y-64350271D01*
X122525263Y-64350271D02*
X122580025Y-64474080D01*
X122580025Y-64474080D02*
X122580025Y-64659795D01*
X122580025Y-64659795D02*
X122525263Y-64783604D01*
X122525263Y-64783604D02*
X122470501Y-64845509D01*
X122470501Y-64845509D02*
X122360977Y-64907414D01*
X122360977Y-64907414D02*
X121922882Y-64907414D01*
X123237168Y-65526461D02*
X123127644Y-65464557D01*
X123127644Y-65464557D02*
X123072882Y-65402652D01*
X123072882Y-65402652D02*
X123018120Y-65278842D01*
X123018120Y-65278842D02*
X123018120Y-64907414D01*
X123018120Y-64907414D02*
X123072882Y-64783604D01*
X123072882Y-64783604D02*
X123127644Y-64721699D01*
X123127644Y-64721699D02*
X123237168Y-64659795D01*
X123237168Y-64659795D02*
X123401453Y-64659795D01*
X123401453Y-64659795D02*
X123510977Y-64721699D01*
X123510977Y-64721699D02*
X123565739Y-64783604D01*
X123565739Y-64783604D02*
X123620501Y-64907414D01*
X123620501Y-64907414D02*
X123620501Y-65278842D01*
X123620501Y-65278842D02*
X123565739Y-65402652D01*
X123565739Y-65402652D02*
X123510977Y-65464557D01*
X123510977Y-65464557D02*
X123401453Y-65526461D01*
X123401453Y-65526461D02*
X123237168Y-65526461D01*
X124058596Y-65464557D02*
X124168120Y-65526461D01*
X124168120Y-65526461D02*
X124387168Y-65526461D01*
X124387168Y-65526461D02*
X124496691Y-65464557D01*
X124496691Y-65464557D02*
X124551453Y-65340747D01*
X124551453Y-65340747D02*
X124551453Y-65278842D01*
X124551453Y-65278842D02*
X124496691Y-65155033D01*
X124496691Y-65155033D02*
X124387168Y-65093128D01*
X124387168Y-65093128D02*
X124222882Y-65093128D01*
X124222882Y-65093128D02*
X124113358Y-65031223D01*
X124113358Y-65031223D02*
X124058596Y-64907414D01*
X124058596Y-64907414D02*
X124058596Y-64845509D01*
X124058596Y-64845509D02*
X124113358Y-64721699D01*
X124113358Y-64721699D02*
X124222882Y-64659795D01*
X124222882Y-64659795D02*
X124387168Y-64659795D01*
X124387168Y-64659795D02*
X124496691Y-64721699D01*
X124989548Y-65464557D02*
X125099072Y-65526461D01*
X125099072Y-65526461D02*
X125318120Y-65526461D01*
X125318120Y-65526461D02*
X125427643Y-65464557D01*
X125427643Y-65464557D02*
X125482405Y-65340747D01*
X125482405Y-65340747D02*
X125482405Y-65278842D01*
X125482405Y-65278842D02*
X125427643Y-65155033D01*
X125427643Y-65155033D02*
X125318120Y-65093128D01*
X125318120Y-65093128D02*
X125153834Y-65093128D01*
X125153834Y-65093128D02*
X125044310Y-65031223D01*
X125044310Y-65031223D02*
X124989548Y-64907414D01*
X124989548Y-64907414D02*
X124989548Y-64845509D01*
X124989548Y-64845509D02*
X125044310Y-64721699D01*
X125044310Y-64721699D02*
X125153834Y-64659795D01*
X125153834Y-64659795D02*
X125318120Y-64659795D01*
X125318120Y-64659795D02*
X125427643Y-64721699D01*
X126687167Y-64907414D02*
X126632405Y-64845509D01*
X126632405Y-64845509D02*
X126522881Y-64783604D01*
X126522881Y-64783604D02*
X126413357Y-64783604D01*
X126413357Y-64783604D02*
X126303833Y-64845509D01*
X126303833Y-64845509D02*
X126249072Y-64907414D01*
X126249072Y-64907414D02*
X126194310Y-65031223D01*
X126194310Y-65031223D02*
X126194310Y-65155033D01*
X126194310Y-65155033D02*
X126249072Y-65278842D01*
X126249072Y-65278842D02*
X126303833Y-65340747D01*
X126303833Y-65340747D02*
X126413357Y-65402652D01*
X126413357Y-65402652D02*
X126522881Y-65402652D01*
X126522881Y-65402652D02*
X126632405Y-65340747D01*
X126632405Y-65340747D02*
X126687167Y-65278842D01*
X126687167Y-64783604D02*
X126687167Y-65278842D01*
X126687167Y-65278842D02*
X126741929Y-65340747D01*
X126741929Y-65340747D02*
X126796691Y-65340747D01*
X126796691Y-65340747D02*
X126906214Y-65278842D01*
X126906214Y-65278842D02*
X126960976Y-65155033D01*
X126960976Y-65155033D02*
X126960976Y-64845509D01*
X126960976Y-64845509D02*
X126851453Y-64659795D01*
X126851453Y-64659795D02*
X126687167Y-64535985D01*
X126687167Y-64535985D02*
X126468119Y-64474080D01*
X126468119Y-64474080D02*
X126249072Y-64535985D01*
X126249072Y-64535985D02*
X126084786Y-64659795D01*
X126084786Y-64659795D02*
X125975262Y-64845509D01*
X125975262Y-64845509D02*
X125920500Y-65093128D01*
X125920500Y-65093128D02*
X125975262Y-65340747D01*
X125975262Y-65340747D02*
X126084786Y-65526461D01*
X126084786Y-65526461D02*
X126249072Y-65650271D01*
X126249072Y-65650271D02*
X126468119Y-65712176D01*
X126468119Y-65712176D02*
X126687167Y-65650271D01*
X126687167Y-65650271D02*
X126851453Y-65526461D01*
X127289547Y-64659795D02*
X127727643Y-64659795D01*
X127453833Y-65526461D02*
X127453833Y-64412176D01*
X127453833Y-64412176D02*
X127508595Y-64288366D01*
X127508595Y-64288366D02*
X127618119Y-64226461D01*
X127618119Y-64226461D02*
X127727643Y-64226461D01*
X128275262Y-65526461D02*
X128165738Y-65464557D01*
X128165738Y-65464557D02*
X128110976Y-65340747D01*
X128110976Y-65340747D02*
X128110976Y-64226461D01*
X128713357Y-65526461D02*
X128713357Y-64659795D01*
X128713357Y-64226461D02*
X128658595Y-64288366D01*
X128658595Y-64288366D02*
X128713357Y-64350271D01*
X128713357Y-64350271D02*
X128768119Y-64288366D01*
X128768119Y-64288366D02*
X128713357Y-64226461D01*
X128713357Y-64226461D02*
X128713357Y-64350271D01*
X129753833Y-64659795D02*
X129753833Y-65712176D01*
X129753833Y-65712176D02*
X129699071Y-65835985D01*
X129699071Y-65835985D02*
X129644309Y-65897890D01*
X129644309Y-65897890D02*
X129534786Y-65959795D01*
X129534786Y-65959795D02*
X129370500Y-65959795D01*
X129370500Y-65959795D02*
X129260976Y-65897890D01*
X129753833Y-65464557D02*
X129644309Y-65526461D01*
X129644309Y-65526461D02*
X129425262Y-65526461D01*
X129425262Y-65526461D02*
X129315738Y-65464557D01*
X129315738Y-65464557D02*
X129260976Y-65402652D01*
X129260976Y-65402652D02*
X129206214Y-65278842D01*
X129206214Y-65278842D02*
X129206214Y-64907414D01*
X129206214Y-64907414D02*
X129260976Y-64783604D01*
X129260976Y-64783604D02*
X129315738Y-64721699D01*
X129315738Y-64721699D02*
X129425262Y-64659795D01*
X129425262Y-64659795D02*
X129644309Y-64659795D01*
X129644309Y-64659795D02*
X129753833Y-64721699D01*
X130301452Y-65526461D02*
X130301452Y-64226461D01*
X130794309Y-65526461D02*
X130794309Y-64845509D01*
X130794309Y-64845509D02*
X130739547Y-64721699D01*
X130739547Y-64721699D02*
X130630023Y-64659795D01*
X130630023Y-64659795D02*
X130465738Y-64659795D01*
X130465738Y-64659795D02*
X130356214Y-64721699D01*
X130356214Y-64721699D02*
X130301452Y-64783604D01*
X131177642Y-64659795D02*
X131615738Y-64659795D01*
X131341928Y-64226461D02*
X131341928Y-65340747D01*
X131341928Y-65340747D02*
X131396690Y-65464557D01*
X131396690Y-65464557D02*
X131506214Y-65526461D01*
X131506214Y-65526461D02*
X131615738Y-65526461D01*
X131944309Y-65464557D02*
X132053833Y-65526461D01*
X132053833Y-65526461D02*
X132272881Y-65526461D01*
X132272881Y-65526461D02*
X132382404Y-65464557D01*
X132382404Y-65464557D02*
X132437166Y-65340747D01*
X132437166Y-65340747D02*
X132437166Y-65278842D01*
X132437166Y-65278842D02*
X132382404Y-65155033D01*
X132382404Y-65155033D02*
X132272881Y-65093128D01*
X132272881Y-65093128D02*
X132108595Y-65093128D01*
X132108595Y-65093128D02*
X131999071Y-65031223D01*
X131999071Y-65031223D02*
X131944309Y-64907414D01*
X131944309Y-64907414D02*
X131944309Y-64845509D01*
X131944309Y-64845509D02*
X131999071Y-64721699D01*
X131999071Y-64721699D02*
X132108595Y-64659795D01*
X132108595Y-64659795D02*
X132272881Y-64659795D01*
X132272881Y-64659795D02*
X132382404Y-64721699D01*
X133422880Y-65526461D02*
X133422880Y-64845509D01*
X133422880Y-64845509D02*
X133368118Y-64721699D01*
X133368118Y-64721699D02*
X133258594Y-64659795D01*
X133258594Y-64659795D02*
X133039547Y-64659795D01*
X133039547Y-64659795D02*
X132930023Y-64721699D01*
X133422880Y-65464557D02*
X133313356Y-65526461D01*
X133313356Y-65526461D02*
X133039547Y-65526461D01*
X133039547Y-65526461D02*
X132930023Y-65464557D01*
X132930023Y-65464557D02*
X132875261Y-65340747D01*
X132875261Y-65340747D02*
X132875261Y-65216937D01*
X132875261Y-65216937D02*
X132930023Y-65093128D01*
X132930023Y-65093128D02*
X133039547Y-65031223D01*
X133039547Y-65031223D02*
X133313356Y-65031223D01*
X133313356Y-65031223D02*
X133422880Y-64969318D01*
X133806213Y-64659795D02*
X134244309Y-64659795D01*
X133970499Y-65526461D02*
X133970499Y-64412176D01*
X133970499Y-64412176D02*
X134025261Y-64288366D01*
X134025261Y-64288366D02*
X134134785Y-64226461D01*
X134134785Y-64226461D02*
X134244309Y-64226461D01*
X135065737Y-65464557D02*
X134956213Y-65526461D01*
X134956213Y-65526461D02*
X134737166Y-65526461D01*
X134737166Y-65526461D02*
X134627642Y-65464557D01*
X134627642Y-65464557D02*
X134572880Y-65340747D01*
X134572880Y-65340747D02*
X134572880Y-64845509D01*
X134572880Y-64845509D02*
X134627642Y-64721699D01*
X134627642Y-64721699D02*
X134737166Y-64659795D01*
X134737166Y-64659795D02*
X134956213Y-64659795D01*
X134956213Y-64659795D02*
X135065737Y-64721699D01*
X135065737Y-64721699D02*
X135120499Y-64845509D01*
X135120499Y-64845509D02*
X135120499Y-64969318D01*
X135120499Y-64969318D02*
X134572880Y-65093128D01*
X135449070Y-64659795D02*
X135887166Y-64659795D01*
X135613356Y-64226461D02*
X135613356Y-65340747D01*
X135613356Y-65340747D02*
X135668118Y-65464557D01*
X135668118Y-65464557D02*
X135777642Y-65526461D01*
X135777642Y-65526461D02*
X135887166Y-65526461D01*
X136160975Y-64659795D02*
X136434785Y-65526461D01*
X136708594Y-64659795D02*
X136434785Y-65526461D01*
X136434785Y-65526461D02*
X136325261Y-65835985D01*
X136325261Y-65835985D02*
X136270499Y-65897890D01*
X136270499Y-65897890D02*
X136160975Y-65959795D01*
X137146689Y-65402652D02*
X137201451Y-65464557D01*
X137201451Y-65464557D02*
X137146689Y-65526461D01*
X137146689Y-65526461D02*
X137091927Y-65464557D01*
X137091927Y-65464557D02*
X137146689Y-65402652D01*
X137146689Y-65402652D02*
X137146689Y-65526461D01*
X138187165Y-65464557D02*
X138077641Y-65526461D01*
X138077641Y-65526461D02*
X137858594Y-65526461D01*
X137858594Y-65526461D02*
X137749070Y-65464557D01*
X137749070Y-65464557D02*
X137694308Y-65402652D01*
X137694308Y-65402652D02*
X137639546Y-65278842D01*
X137639546Y-65278842D02*
X137639546Y-64907414D01*
X137639546Y-64907414D02*
X137694308Y-64783604D01*
X137694308Y-64783604D02*
X137749070Y-64721699D01*
X137749070Y-64721699D02*
X137858594Y-64659795D01*
X137858594Y-64659795D02*
X138077641Y-64659795D01*
X138077641Y-64659795D02*
X138187165Y-64721699D01*
X138844308Y-65526461D02*
X138734784Y-65464557D01*
X138734784Y-65464557D02*
X138680022Y-65402652D01*
X138680022Y-65402652D02*
X138625260Y-65278842D01*
X138625260Y-65278842D02*
X138625260Y-64907414D01*
X138625260Y-64907414D02*
X138680022Y-64783604D01*
X138680022Y-64783604D02*
X138734784Y-64721699D01*
X138734784Y-64721699D02*
X138844308Y-64659795D01*
X138844308Y-64659795D02*
X139008593Y-64659795D01*
X139008593Y-64659795D02*
X139118117Y-64721699D01*
X139118117Y-64721699D02*
X139172879Y-64783604D01*
X139172879Y-64783604D02*
X139227641Y-64907414D01*
X139227641Y-64907414D02*
X139227641Y-65278842D01*
X139227641Y-65278842D02*
X139172879Y-65402652D01*
X139172879Y-65402652D02*
X139118117Y-65464557D01*
X139118117Y-65464557D02*
X139008593Y-65526461D01*
X139008593Y-65526461D02*
X138844308Y-65526461D01*
X139720498Y-65526461D02*
X139720498Y-64659795D01*
X139720498Y-64783604D02*
X139775260Y-64721699D01*
X139775260Y-64721699D02*
X139884784Y-64659795D01*
X139884784Y-64659795D02*
X140049069Y-64659795D01*
X140049069Y-64659795D02*
X140158593Y-64721699D01*
X140158593Y-64721699D02*
X140213355Y-64845509D01*
X140213355Y-64845509D02*
X140213355Y-65526461D01*
X140213355Y-64845509D02*
X140268117Y-64721699D01*
X140268117Y-64721699D02*
X140377641Y-64659795D01*
X140377641Y-64659795D02*
X140541927Y-64659795D01*
X140541927Y-64659795D02*
X140651450Y-64721699D01*
X140651450Y-64721699D02*
X140706212Y-64845509D01*
X140706212Y-64845509D02*
X140706212Y-65526461D01*
X119212168Y-73774360D02*
X119157406Y-73836265D01*
X119157406Y-73836265D02*
X118993120Y-73898169D01*
X118993120Y-73898169D02*
X118883596Y-73898169D01*
X118883596Y-73898169D02*
X118719311Y-73836265D01*
X118719311Y-73836265D02*
X118609787Y-73712455D01*
X118609787Y-73712455D02*
X118555025Y-73588645D01*
X118555025Y-73588645D02*
X118500263Y-73341026D01*
X118500263Y-73341026D02*
X118500263Y-73155312D01*
X118500263Y-73155312D02*
X118555025Y-72907693D01*
X118555025Y-72907693D02*
X118609787Y-72783884D01*
X118609787Y-72783884D02*
X118719311Y-72660074D01*
X118719311Y-72660074D02*
X118883596Y-72598169D01*
X118883596Y-72598169D02*
X118993120Y-72598169D01*
X118993120Y-72598169D02*
X119157406Y-72660074D01*
X119157406Y-72660074D02*
X119212168Y-72721979D01*
X119705025Y-73898169D02*
X119705025Y-72598169D01*
X120197882Y-73898169D02*
X120197882Y-73217217D01*
X120197882Y-73217217D02*
X120143120Y-73093407D01*
X120143120Y-73093407D02*
X120033596Y-73031503D01*
X120033596Y-73031503D02*
X119869311Y-73031503D01*
X119869311Y-73031503D02*
X119759787Y-73093407D01*
X119759787Y-73093407D02*
X119705025Y-73155312D01*
X120745501Y-73898169D02*
X120745501Y-73031503D01*
X120745501Y-73279122D02*
X120800263Y-73155312D01*
X120800263Y-73155312D02*
X120855025Y-73093407D01*
X120855025Y-73093407D02*
X120964549Y-73031503D01*
X120964549Y-73031503D02*
X121074072Y-73031503D01*
X121457406Y-73898169D02*
X121457406Y-73031503D01*
X121457406Y-72598169D02*
X121402644Y-72660074D01*
X121402644Y-72660074D02*
X121457406Y-72721979D01*
X121457406Y-72721979D02*
X121512168Y-72660074D01*
X121512168Y-72660074D02*
X121457406Y-72598169D01*
X121457406Y-72598169D02*
X121457406Y-72721979D01*
X121950263Y-73836265D02*
X122059787Y-73898169D01*
X122059787Y-73898169D02*
X122278835Y-73898169D01*
X122278835Y-73898169D02*
X122388358Y-73836265D01*
X122388358Y-73836265D02*
X122443120Y-73712455D01*
X122443120Y-73712455D02*
X122443120Y-73650550D01*
X122443120Y-73650550D02*
X122388358Y-73526741D01*
X122388358Y-73526741D02*
X122278835Y-73464836D01*
X122278835Y-73464836D02*
X122114549Y-73464836D01*
X122114549Y-73464836D02*
X122005025Y-73402931D01*
X122005025Y-73402931D02*
X121950263Y-73279122D01*
X121950263Y-73279122D02*
X121950263Y-73217217D01*
X121950263Y-73217217D02*
X122005025Y-73093407D01*
X122005025Y-73093407D02*
X122114549Y-73031503D01*
X122114549Y-73031503D02*
X122278835Y-73031503D01*
X122278835Y-73031503D02*
X122388358Y-73093407D01*
X122771691Y-73031503D02*
X123209787Y-73031503D01*
X122935977Y-72598169D02*
X122935977Y-73712455D01*
X122935977Y-73712455D02*
X122990739Y-73836265D01*
X122990739Y-73836265D02*
X123100263Y-73898169D01*
X123100263Y-73898169D02*
X123209787Y-73898169D01*
X123757406Y-73898169D02*
X123647882Y-73836265D01*
X123647882Y-73836265D02*
X123593120Y-73774360D01*
X123593120Y-73774360D02*
X123538358Y-73650550D01*
X123538358Y-73650550D02*
X123538358Y-73279122D01*
X123538358Y-73279122D02*
X123593120Y-73155312D01*
X123593120Y-73155312D02*
X123647882Y-73093407D01*
X123647882Y-73093407D02*
X123757406Y-73031503D01*
X123757406Y-73031503D02*
X123921691Y-73031503D01*
X123921691Y-73031503D02*
X124031215Y-73093407D01*
X124031215Y-73093407D02*
X124085977Y-73155312D01*
X124085977Y-73155312D02*
X124140739Y-73279122D01*
X124140739Y-73279122D02*
X124140739Y-73650550D01*
X124140739Y-73650550D02*
X124085977Y-73774360D01*
X124085977Y-73774360D02*
X124031215Y-73836265D01*
X124031215Y-73836265D02*
X123921691Y-73898169D01*
X123921691Y-73898169D02*
X123757406Y-73898169D01*
X124633596Y-73031503D02*
X124633596Y-74331503D01*
X124633596Y-73093407D02*
X124743120Y-73031503D01*
X124743120Y-73031503D02*
X124962167Y-73031503D01*
X124962167Y-73031503D02*
X125071691Y-73093407D01*
X125071691Y-73093407D02*
X125126453Y-73155312D01*
X125126453Y-73155312D02*
X125181215Y-73279122D01*
X125181215Y-73279122D02*
X125181215Y-73650550D01*
X125181215Y-73650550D02*
X125126453Y-73774360D01*
X125126453Y-73774360D02*
X125071691Y-73836265D01*
X125071691Y-73836265D02*
X124962167Y-73898169D01*
X124962167Y-73898169D02*
X124743120Y-73898169D01*
X124743120Y-73898169D02*
X124633596Y-73836265D01*
X125674072Y-73898169D02*
X125674072Y-72598169D01*
X126166929Y-73898169D02*
X126166929Y-73217217D01*
X126166929Y-73217217D02*
X126112167Y-73093407D01*
X126112167Y-73093407D02*
X126002643Y-73031503D01*
X126002643Y-73031503D02*
X125838358Y-73031503D01*
X125838358Y-73031503D02*
X125728834Y-73093407D01*
X125728834Y-73093407D02*
X125674072Y-73155312D01*
X127152643Y-73836265D02*
X127043119Y-73898169D01*
X127043119Y-73898169D02*
X126824072Y-73898169D01*
X126824072Y-73898169D02*
X126714548Y-73836265D01*
X126714548Y-73836265D02*
X126659786Y-73712455D01*
X126659786Y-73712455D02*
X126659786Y-73217217D01*
X126659786Y-73217217D02*
X126714548Y-73093407D01*
X126714548Y-73093407D02*
X126824072Y-73031503D01*
X126824072Y-73031503D02*
X127043119Y-73031503D01*
X127043119Y-73031503D02*
X127152643Y-73093407D01*
X127152643Y-73093407D02*
X127207405Y-73217217D01*
X127207405Y-73217217D02*
X127207405Y-73341026D01*
X127207405Y-73341026D02*
X126659786Y-73464836D01*
X127700262Y-73898169D02*
X127700262Y-73031503D01*
X127700262Y-73279122D02*
X127755024Y-73155312D01*
X127755024Y-73155312D02*
X127809786Y-73093407D01*
X127809786Y-73093407D02*
X127919310Y-73031503D01*
X127919310Y-73031503D02*
X128028833Y-73031503D01*
X129671690Y-73217217D02*
X129288357Y-73217217D01*
X129288357Y-73898169D02*
X129288357Y-72598169D01*
X129288357Y-72598169D02*
X129835976Y-72598169D01*
X130274071Y-73898169D02*
X130274071Y-73031503D01*
X130274071Y-73279122D02*
X130328833Y-73155312D01*
X130328833Y-73155312D02*
X130383595Y-73093407D01*
X130383595Y-73093407D02*
X130493119Y-73031503D01*
X130493119Y-73031503D02*
X130602642Y-73031503D01*
X131478833Y-73898169D02*
X131478833Y-73217217D01*
X131478833Y-73217217D02*
X131424071Y-73093407D01*
X131424071Y-73093407D02*
X131314547Y-73031503D01*
X131314547Y-73031503D02*
X131095500Y-73031503D01*
X131095500Y-73031503D02*
X130985976Y-73093407D01*
X131478833Y-73836265D02*
X131369309Y-73898169D01*
X131369309Y-73898169D02*
X131095500Y-73898169D01*
X131095500Y-73898169D02*
X130985976Y-73836265D01*
X130985976Y-73836265D02*
X130931214Y-73712455D01*
X130931214Y-73712455D02*
X130931214Y-73588645D01*
X130931214Y-73588645D02*
X130985976Y-73464836D01*
X130985976Y-73464836D02*
X131095500Y-73402931D01*
X131095500Y-73402931D02*
X131369309Y-73402931D01*
X131369309Y-73402931D02*
X131478833Y-73341026D01*
X132026452Y-73031503D02*
X132026452Y-73898169D01*
X132026452Y-73155312D02*
X132081214Y-73093407D01*
X132081214Y-73093407D02*
X132190738Y-73031503D01*
X132190738Y-73031503D02*
X132355023Y-73031503D01*
X132355023Y-73031503D02*
X132464547Y-73093407D01*
X132464547Y-73093407D02*
X132519309Y-73217217D01*
X132519309Y-73217217D02*
X132519309Y-73898169D01*
X133559785Y-73836265D02*
X133450261Y-73898169D01*
X133450261Y-73898169D02*
X133231214Y-73898169D01*
X133231214Y-73898169D02*
X133121690Y-73836265D01*
X133121690Y-73836265D02*
X133066928Y-73774360D01*
X133066928Y-73774360D02*
X133012166Y-73650550D01*
X133012166Y-73650550D02*
X133012166Y-73279122D01*
X133012166Y-73279122D02*
X133066928Y-73155312D01*
X133066928Y-73155312D02*
X133121690Y-73093407D01*
X133121690Y-73093407D02*
X133231214Y-73031503D01*
X133231214Y-73031503D02*
X133450261Y-73031503D01*
X133450261Y-73031503D02*
X133559785Y-73093407D01*
X134052642Y-73898169D02*
X134052642Y-73031503D01*
X134052642Y-72598169D02*
X133997880Y-72660074D01*
X133997880Y-72660074D02*
X134052642Y-72721979D01*
X134052642Y-72721979D02*
X134107404Y-72660074D01*
X134107404Y-72660074D02*
X134052642Y-72598169D01*
X134052642Y-72598169D02*
X134052642Y-72721979D01*
X134545499Y-73836265D02*
X134655023Y-73898169D01*
X134655023Y-73898169D02*
X134874071Y-73898169D01*
X134874071Y-73898169D02*
X134983594Y-73836265D01*
X134983594Y-73836265D02*
X135038356Y-73712455D01*
X135038356Y-73712455D02*
X135038356Y-73650550D01*
X135038356Y-73650550D02*
X134983594Y-73526741D01*
X134983594Y-73526741D02*
X134874071Y-73464836D01*
X134874071Y-73464836D02*
X134709785Y-73464836D01*
X134709785Y-73464836D02*
X134600261Y-73402931D01*
X134600261Y-73402931D02*
X134545499Y-73279122D01*
X134545499Y-73279122D02*
X134545499Y-73217217D01*
X134545499Y-73217217D02*
X134600261Y-73093407D01*
X134600261Y-73093407D02*
X134709785Y-73031503D01*
X134709785Y-73031503D02*
X134874071Y-73031503D01*
X134874071Y-73031503D02*
X134983594Y-73093407D01*
X111737169Y-75867287D02*
X111682407Y-75929192D01*
X111682407Y-75929192D02*
X111518121Y-75991096D01*
X111518121Y-75991096D02*
X111408597Y-75991096D01*
X111408597Y-75991096D02*
X111244312Y-75929192D01*
X111244312Y-75929192D02*
X111134788Y-75805382D01*
X111134788Y-75805382D02*
X111080026Y-75681572D01*
X111080026Y-75681572D02*
X111025264Y-75433953D01*
X111025264Y-75433953D02*
X111025264Y-75248239D01*
X111025264Y-75248239D02*
X111080026Y-75000620D01*
X111080026Y-75000620D02*
X111134788Y-74876811D01*
X111134788Y-74876811D02*
X111244312Y-74753001D01*
X111244312Y-74753001D02*
X111408597Y-74691096D01*
X111408597Y-74691096D02*
X111518121Y-74691096D01*
X111518121Y-74691096D02*
X111682407Y-74753001D01*
X111682407Y-74753001D02*
X111737169Y-74814906D01*
X112230026Y-75991096D02*
X112230026Y-74691096D01*
X112722883Y-75991096D02*
X112722883Y-75310144D01*
X112722883Y-75310144D02*
X112668121Y-75186334D01*
X112668121Y-75186334D02*
X112558597Y-75124430D01*
X112558597Y-75124430D02*
X112394312Y-75124430D01*
X112394312Y-75124430D02*
X112284788Y-75186334D01*
X112284788Y-75186334D02*
X112230026Y-75248239D01*
X113270502Y-75991096D02*
X113270502Y-75124430D01*
X113270502Y-75372049D02*
X113325264Y-75248239D01*
X113325264Y-75248239D02*
X113380026Y-75186334D01*
X113380026Y-75186334D02*
X113489550Y-75124430D01*
X113489550Y-75124430D02*
X113599073Y-75124430D01*
X113982407Y-75991096D02*
X113982407Y-75124430D01*
X113982407Y-74691096D02*
X113927645Y-74753001D01*
X113927645Y-74753001D02*
X113982407Y-74814906D01*
X113982407Y-74814906D02*
X114037169Y-74753001D01*
X114037169Y-74753001D02*
X113982407Y-74691096D01*
X113982407Y-74691096D02*
X113982407Y-74814906D01*
X114475264Y-75929192D02*
X114584788Y-75991096D01*
X114584788Y-75991096D02*
X114803836Y-75991096D01*
X114803836Y-75991096D02*
X114913359Y-75929192D01*
X114913359Y-75929192D02*
X114968121Y-75805382D01*
X114968121Y-75805382D02*
X114968121Y-75743477D01*
X114968121Y-75743477D02*
X114913359Y-75619668D01*
X114913359Y-75619668D02*
X114803836Y-75557763D01*
X114803836Y-75557763D02*
X114639550Y-75557763D01*
X114639550Y-75557763D02*
X114530026Y-75495858D01*
X114530026Y-75495858D02*
X114475264Y-75372049D01*
X114475264Y-75372049D02*
X114475264Y-75310144D01*
X114475264Y-75310144D02*
X114530026Y-75186334D01*
X114530026Y-75186334D02*
X114639550Y-75124430D01*
X114639550Y-75124430D02*
X114803836Y-75124430D01*
X114803836Y-75124430D02*
X114913359Y-75186334D01*
X115296692Y-75124430D02*
X115734788Y-75124430D01*
X115460978Y-74691096D02*
X115460978Y-75805382D01*
X115460978Y-75805382D02*
X115515740Y-75929192D01*
X115515740Y-75929192D02*
X115625264Y-75991096D01*
X115625264Y-75991096D02*
X115734788Y-75991096D01*
X116282407Y-75991096D02*
X116172883Y-75929192D01*
X116172883Y-75929192D02*
X116118121Y-75867287D01*
X116118121Y-75867287D02*
X116063359Y-75743477D01*
X116063359Y-75743477D02*
X116063359Y-75372049D01*
X116063359Y-75372049D02*
X116118121Y-75248239D01*
X116118121Y-75248239D02*
X116172883Y-75186334D01*
X116172883Y-75186334D02*
X116282407Y-75124430D01*
X116282407Y-75124430D02*
X116446692Y-75124430D01*
X116446692Y-75124430D02*
X116556216Y-75186334D01*
X116556216Y-75186334D02*
X116610978Y-75248239D01*
X116610978Y-75248239D02*
X116665740Y-75372049D01*
X116665740Y-75372049D02*
X116665740Y-75743477D01*
X116665740Y-75743477D02*
X116610978Y-75867287D01*
X116610978Y-75867287D02*
X116556216Y-75929192D01*
X116556216Y-75929192D02*
X116446692Y-75991096D01*
X116446692Y-75991096D02*
X116282407Y-75991096D01*
X117158597Y-75124430D02*
X117158597Y-76424430D01*
X117158597Y-75186334D02*
X117268121Y-75124430D01*
X117268121Y-75124430D02*
X117487168Y-75124430D01*
X117487168Y-75124430D02*
X117596692Y-75186334D01*
X117596692Y-75186334D02*
X117651454Y-75248239D01*
X117651454Y-75248239D02*
X117706216Y-75372049D01*
X117706216Y-75372049D02*
X117706216Y-75743477D01*
X117706216Y-75743477D02*
X117651454Y-75867287D01*
X117651454Y-75867287D02*
X117596692Y-75929192D01*
X117596692Y-75929192D02*
X117487168Y-75991096D01*
X117487168Y-75991096D02*
X117268121Y-75991096D01*
X117268121Y-75991096D02*
X117158597Y-75929192D01*
X118199073Y-75991096D02*
X118199073Y-74691096D01*
X118691930Y-75991096D02*
X118691930Y-75310144D01*
X118691930Y-75310144D02*
X118637168Y-75186334D01*
X118637168Y-75186334D02*
X118527644Y-75124430D01*
X118527644Y-75124430D02*
X118363359Y-75124430D01*
X118363359Y-75124430D02*
X118253835Y-75186334D01*
X118253835Y-75186334D02*
X118199073Y-75248239D01*
X119677644Y-75929192D02*
X119568120Y-75991096D01*
X119568120Y-75991096D02*
X119349073Y-75991096D01*
X119349073Y-75991096D02*
X119239549Y-75929192D01*
X119239549Y-75929192D02*
X119184787Y-75805382D01*
X119184787Y-75805382D02*
X119184787Y-75310144D01*
X119184787Y-75310144D02*
X119239549Y-75186334D01*
X119239549Y-75186334D02*
X119349073Y-75124430D01*
X119349073Y-75124430D02*
X119568120Y-75124430D01*
X119568120Y-75124430D02*
X119677644Y-75186334D01*
X119677644Y-75186334D02*
X119732406Y-75310144D01*
X119732406Y-75310144D02*
X119732406Y-75433953D01*
X119732406Y-75433953D02*
X119184787Y-75557763D01*
X120225263Y-75991096D02*
X120225263Y-75124430D01*
X120225263Y-75372049D02*
X120280025Y-75248239D01*
X120280025Y-75248239D02*
X120334787Y-75186334D01*
X120334787Y-75186334D02*
X120444311Y-75124430D01*
X120444311Y-75124430D02*
X120553834Y-75124430D01*
X120937168Y-75867287D02*
X120991930Y-75929192D01*
X120991930Y-75929192D02*
X120937168Y-75991096D01*
X120937168Y-75991096D02*
X120882406Y-75929192D01*
X120882406Y-75929192D02*
X120937168Y-75867287D01*
X120937168Y-75867287D02*
X120937168Y-75991096D01*
X121868120Y-75310144D02*
X121484787Y-75310144D01*
X121484787Y-75991096D02*
X121484787Y-74691096D01*
X121484787Y-74691096D02*
X122032406Y-74691096D01*
X122470501Y-75991096D02*
X122470501Y-75124430D01*
X122470501Y-75372049D02*
X122525263Y-75248239D01*
X122525263Y-75248239D02*
X122580025Y-75186334D01*
X122580025Y-75186334D02*
X122689549Y-75124430D01*
X122689549Y-75124430D02*
X122799072Y-75124430D01*
X123675263Y-75991096D02*
X123675263Y-75310144D01*
X123675263Y-75310144D02*
X123620501Y-75186334D01*
X123620501Y-75186334D02*
X123510977Y-75124430D01*
X123510977Y-75124430D02*
X123291930Y-75124430D01*
X123291930Y-75124430D02*
X123182406Y-75186334D01*
X123675263Y-75929192D02*
X123565739Y-75991096D01*
X123565739Y-75991096D02*
X123291930Y-75991096D01*
X123291930Y-75991096D02*
X123182406Y-75929192D01*
X123182406Y-75929192D02*
X123127644Y-75805382D01*
X123127644Y-75805382D02*
X123127644Y-75681572D01*
X123127644Y-75681572D02*
X123182406Y-75557763D01*
X123182406Y-75557763D02*
X123291930Y-75495858D01*
X123291930Y-75495858D02*
X123565739Y-75495858D01*
X123565739Y-75495858D02*
X123675263Y-75433953D01*
X124222882Y-75124430D02*
X124222882Y-75991096D01*
X124222882Y-75248239D02*
X124277644Y-75186334D01*
X124277644Y-75186334D02*
X124387168Y-75124430D01*
X124387168Y-75124430D02*
X124551453Y-75124430D01*
X124551453Y-75124430D02*
X124660977Y-75186334D01*
X124660977Y-75186334D02*
X124715739Y-75310144D01*
X124715739Y-75310144D02*
X124715739Y-75991096D01*
X125756215Y-75929192D02*
X125646691Y-75991096D01*
X125646691Y-75991096D02*
X125427644Y-75991096D01*
X125427644Y-75991096D02*
X125318120Y-75929192D01*
X125318120Y-75929192D02*
X125263358Y-75867287D01*
X125263358Y-75867287D02*
X125208596Y-75743477D01*
X125208596Y-75743477D02*
X125208596Y-75372049D01*
X125208596Y-75372049D02*
X125263358Y-75248239D01*
X125263358Y-75248239D02*
X125318120Y-75186334D01*
X125318120Y-75186334D02*
X125427644Y-75124430D01*
X125427644Y-75124430D02*
X125646691Y-75124430D01*
X125646691Y-75124430D02*
X125756215Y-75186334D01*
X126249072Y-75991096D02*
X126249072Y-75124430D01*
X126249072Y-74691096D02*
X126194310Y-74753001D01*
X126194310Y-74753001D02*
X126249072Y-74814906D01*
X126249072Y-74814906D02*
X126303834Y-74753001D01*
X126303834Y-74753001D02*
X126249072Y-74691096D01*
X126249072Y-74691096D02*
X126249072Y-74814906D01*
X126741929Y-75929192D02*
X126851453Y-75991096D01*
X126851453Y-75991096D02*
X127070501Y-75991096D01*
X127070501Y-75991096D02*
X127180024Y-75929192D01*
X127180024Y-75929192D02*
X127234786Y-75805382D01*
X127234786Y-75805382D02*
X127234786Y-75743477D01*
X127234786Y-75743477D02*
X127180024Y-75619668D01*
X127180024Y-75619668D02*
X127070501Y-75557763D01*
X127070501Y-75557763D02*
X126906215Y-75557763D01*
X126906215Y-75557763D02*
X126796691Y-75495858D01*
X126796691Y-75495858D02*
X126741929Y-75372049D01*
X126741929Y-75372049D02*
X126741929Y-75310144D01*
X126741929Y-75310144D02*
X126796691Y-75186334D01*
X126796691Y-75186334D02*
X126906215Y-75124430D01*
X126906215Y-75124430D02*
X127070501Y-75124430D01*
X127070501Y-75124430D02*
X127180024Y-75186334D01*
X128439548Y-75372049D02*
X128384786Y-75310144D01*
X128384786Y-75310144D02*
X128275262Y-75248239D01*
X128275262Y-75248239D02*
X128165738Y-75248239D01*
X128165738Y-75248239D02*
X128056214Y-75310144D01*
X128056214Y-75310144D02*
X128001453Y-75372049D01*
X128001453Y-75372049D02*
X127946691Y-75495858D01*
X127946691Y-75495858D02*
X127946691Y-75619668D01*
X127946691Y-75619668D02*
X128001453Y-75743477D01*
X128001453Y-75743477D02*
X128056214Y-75805382D01*
X128056214Y-75805382D02*
X128165738Y-75867287D01*
X128165738Y-75867287D02*
X128275262Y-75867287D01*
X128275262Y-75867287D02*
X128384786Y-75805382D01*
X128384786Y-75805382D02*
X128439548Y-75743477D01*
X128439548Y-75248239D02*
X128439548Y-75743477D01*
X128439548Y-75743477D02*
X128494310Y-75805382D01*
X128494310Y-75805382D02*
X128549072Y-75805382D01*
X128549072Y-75805382D02*
X128658595Y-75743477D01*
X128658595Y-75743477D02*
X128713357Y-75619668D01*
X128713357Y-75619668D02*
X128713357Y-75310144D01*
X128713357Y-75310144D02*
X128603834Y-75124430D01*
X128603834Y-75124430D02*
X128439548Y-75000620D01*
X128439548Y-75000620D02*
X128220500Y-74938715D01*
X128220500Y-74938715D02*
X128001453Y-75000620D01*
X128001453Y-75000620D02*
X127837167Y-75124430D01*
X127837167Y-75124430D02*
X127727643Y-75310144D01*
X127727643Y-75310144D02*
X127672881Y-75557763D01*
X127672881Y-75557763D02*
X127727643Y-75805382D01*
X127727643Y-75805382D02*
X127837167Y-75991096D01*
X127837167Y-75991096D02*
X128001453Y-76114906D01*
X128001453Y-76114906D02*
X128220500Y-76176811D01*
X128220500Y-76176811D02*
X128439548Y-76114906D01*
X128439548Y-76114906D02*
X128603834Y-75991096D01*
X129041928Y-75124430D02*
X129480024Y-75124430D01*
X129206214Y-75991096D02*
X129206214Y-74876811D01*
X129206214Y-74876811D02*
X129260976Y-74753001D01*
X129260976Y-74753001D02*
X129370500Y-74691096D01*
X129370500Y-74691096D02*
X129480024Y-74691096D01*
X130027643Y-75991096D02*
X129918119Y-75929192D01*
X129918119Y-75929192D02*
X129863357Y-75805382D01*
X129863357Y-75805382D02*
X129863357Y-74691096D01*
X130465738Y-75991096D02*
X130465738Y-75124430D01*
X130465738Y-74691096D02*
X130410976Y-74753001D01*
X130410976Y-74753001D02*
X130465738Y-74814906D01*
X130465738Y-74814906D02*
X130520500Y-74753001D01*
X130520500Y-74753001D02*
X130465738Y-74691096D01*
X130465738Y-74691096D02*
X130465738Y-74814906D01*
X131506214Y-75124430D02*
X131506214Y-76176811D01*
X131506214Y-76176811D02*
X131451452Y-76300620D01*
X131451452Y-76300620D02*
X131396690Y-76362525D01*
X131396690Y-76362525D02*
X131287167Y-76424430D01*
X131287167Y-76424430D02*
X131122881Y-76424430D01*
X131122881Y-76424430D02*
X131013357Y-76362525D01*
X131506214Y-75929192D02*
X131396690Y-75991096D01*
X131396690Y-75991096D02*
X131177643Y-75991096D01*
X131177643Y-75991096D02*
X131068119Y-75929192D01*
X131068119Y-75929192D02*
X131013357Y-75867287D01*
X131013357Y-75867287D02*
X130958595Y-75743477D01*
X130958595Y-75743477D02*
X130958595Y-75372049D01*
X130958595Y-75372049D02*
X131013357Y-75248239D01*
X131013357Y-75248239D02*
X131068119Y-75186334D01*
X131068119Y-75186334D02*
X131177643Y-75124430D01*
X131177643Y-75124430D02*
X131396690Y-75124430D01*
X131396690Y-75124430D02*
X131506214Y-75186334D01*
X132053833Y-75991096D02*
X132053833Y-74691096D01*
X132546690Y-75991096D02*
X132546690Y-75310144D01*
X132546690Y-75310144D02*
X132491928Y-75186334D01*
X132491928Y-75186334D02*
X132382404Y-75124430D01*
X132382404Y-75124430D02*
X132218119Y-75124430D01*
X132218119Y-75124430D02*
X132108595Y-75186334D01*
X132108595Y-75186334D02*
X132053833Y-75248239D01*
X132930023Y-75124430D02*
X133368119Y-75124430D01*
X133094309Y-74691096D02*
X133094309Y-75805382D01*
X133094309Y-75805382D02*
X133149071Y-75929192D01*
X133149071Y-75929192D02*
X133258595Y-75991096D01*
X133258595Y-75991096D02*
X133368119Y-75991096D01*
X133696690Y-75929192D02*
X133806214Y-75991096D01*
X133806214Y-75991096D02*
X134025262Y-75991096D01*
X134025262Y-75991096D02*
X134134785Y-75929192D01*
X134134785Y-75929192D02*
X134189547Y-75805382D01*
X134189547Y-75805382D02*
X134189547Y-75743477D01*
X134189547Y-75743477D02*
X134134785Y-75619668D01*
X134134785Y-75619668D02*
X134025262Y-75557763D01*
X134025262Y-75557763D02*
X133860976Y-75557763D01*
X133860976Y-75557763D02*
X133751452Y-75495858D01*
X133751452Y-75495858D02*
X133696690Y-75372049D01*
X133696690Y-75372049D02*
X133696690Y-75310144D01*
X133696690Y-75310144D02*
X133751452Y-75186334D01*
X133751452Y-75186334D02*
X133860976Y-75124430D01*
X133860976Y-75124430D02*
X134025262Y-75124430D01*
X134025262Y-75124430D02*
X134134785Y-75186334D01*
X135175261Y-75991096D02*
X135175261Y-75310144D01*
X135175261Y-75310144D02*
X135120499Y-75186334D01*
X135120499Y-75186334D02*
X135010975Y-75124430D01*
X135010975Y-75124430D02*
X134791928Y-75124430D01*
X134791928Y-75124430D02*
X134682404Y-75186334D01*
X135175261Y-75929192D02*
X135065737Y-75991096D01*
X135065737Y-75991096D02*
X134791928Y-75991096D01*
X134791928Y-75991096D02*
X134682404Y-75929192D01*
X134682404Y-75929192D02*
X134627642Y-75805382D01*
X134627642Y-75805382D02*
X134627642Y-75681572D01*
X134627642Y-75681572D02*
X134682404Y-75557763D01*
X134682404Y-75557763D02*
X134791928Y-75495858D01*
X134791928Y-75495858D02*
X135065737Y-75495858D01*
X135065737Y-75495858D02*
X135175261Y-75433953D01*
X135558594Y-75124430D02*
X135996690Y-75124430D01*
X135722880Y-75991096D02*
X135722880Y-74876811D01*
X135722880Y-74876811D02*
X135777642Y-74753001D01*
X135777642Y-74753001D02*
X135887166Y-74691096D01*
X135887166Y-74691096D02*
X135996690Y-74691096D01*
X136818118Y-75929192D02*
X136708594Y-75991096D01*
X136708594Y-75991096D02*
X136489547Y-75991096D01*
X136489547Y-75991096D02*
X136380023Y-75929192D01*
X136380023Y-75929192D02*
X136325261Y-75805382D01*
X136325261Y-75805382D02*
X136325261Y-75310144D01*
X136325261Y-75310144D02*
X136380023Y-75186334D01*
X136380023Y-75186334D02*
X136489547Y-75124430D01*
X136489547Y-75124430D02*
X136708594Y-75124430D01*
X136708594Y-75124430D02*
X136818118Y-75186334D01*
X136818118Y-75186334D02*
X136872880Y-75310144D01*
X136872880Y-75310144D02*
X136872880Y-75433953D01*
X136872880Y-75433953D02*
X136325261Y-75557763D01*
X137201451Y-75124430D02*
X137639547Y-75124430D01*
X137365737Y-74691096D02*
X137365737Y-75805382D01*
X137365737Y-75805382D02*
X137420499Y-75929192D01*
X137420499Y-75929192D02*
X137530023Y-75991096D01*
X137530023Y-75991096D02*
X137639547Y-75991096D01*
X137913356Y-75124430D02*
X138187166Y-75991096D01*
X138460975Y-75124430D02*
X138187166Y-75991096D01*
X138187166Y-75991096D02*
X138077642Y-76300620D01*
X138077642Y-76300620D02*
X138022880Y-76362525D01*
X138022880Y-76362525D02*
X137913356Y-76424430D01*
X138899070Y-75867287D02*
X138953832Y-75929192D01*
X138953832Y-75929192D02*
X138899070Y-75991096D01*
X138899070Y-75991096D02*
X138844308Y-75929192D01*
X138844308Y-75929192D02*
X138899070Y-75867287D01*
X138899070Y-75867287D02*
X138899070Y-75991096D01*
X139939546Y-75929192D02*
X139830022Y-75991096D01*
X139830022Y-75991096D02*
X139610975Y-75991096D01*
X139610975Y-75991096D02*
X139501451Y-75929192D01*
X139501451Y-75929192D02*
X139446689Y-75867287D01*
X139446689Y-75867287D02*
X139391927Y-75743477D01*
X139391927Y-75743477D02*
X139391927Y-75372049D01*
X139391927Y-75372049D02*
X139446689Y-75248239D01*
X139446689Y-75248239D02*
X139501451Y-75186334D01*
X139501451Y-75186334D02*
X139610975Y-75124430D01*
X139610975Y-75124430D02*
X139830022Y-75124430D01*
X139830022Y-75124430D02*
X139939546Y-75186334D01*
X140596689Y-75991096D02*
X140487165Y-75929192D01*
X140487165Y-75929192D02*
X140432403Y-75867287D01*
X140432403Y-75867287D02*
X140377641Y-75743477D01*
X140377641Y-75743477D02*
X140377641Y-75372049D01*
X140377641Y-75372049D02*
X140432403Y-75248239D01*
X140432403Y-75248239D02*
X140487165Y-75186334D01*
X140487165Y-75186334D02*
X140596689Y-75124430D01*
X140596689Y-75124430D02*
X140760974Y-75124430D01*
X140760974Y-75124430D02*
X140870498Y-75186334D01*
X140870498Y-75186334D02*
X140925260Y-75248239D01*
X140925260Y-75248239D02*
X140980022Y-75372049D01*
X140980022Y-75372049D02*
X140980022Y-75743477D01*
X140980022Y-75743477D02*
X140925260Y-75867287D01*
X140925260Y-75867287D02*
X140870498Y-75929192D01*
X140870498Y-75929192D02*
X140760974Y-75991096D01*
X140760974Y-75991096D02*
X140596689Y-75991096D01*
X141472879Y-75991096D02*
X141472879Y-75124430D01*
X141472879Y-75248239D02*
X141527641Y-75186334D01*
X141527641Y-75186334D02*
X141637165Y-75124430D01*
X141637165Y-75124430D02*
X141801450Y-75124430D01*
X141801450Y-75124430D02*
X141910974Y-75186334D01*
X141910974Y-75186334D02*
X141965736Y-75310144D01*
X141965736Y-75310144D02*
X141965736Y-75991096D01*
X141965736Y-75310144D02*
X142020498Y-75186334D01*
X142020498Y-75186334D02*
X142130022Y-75124430D01*
X142130022Y-75124430D02*
X142294308Y-75124430D01*
X142294308Y-75124430D02*
X142403831Y-75186334D01*
X142403831Y-75186334D02*
X142458593Y-75310144D01*
X142458593Y-75310144D02*
X142458593Y-75991096D01*
X124469310Y-84238995D02*
X124414548Y-84300900D01*
X124414548Y-84300900D02*
X124250262Y-84362804D01*
X124250262Y-84362804D02*
X124140738Y-84362804D01*
X124140738Y-84362804D02*
X123976453Y-84300900D01*
X123976453Y-84300900D02*
X123866929Y-84177090D01*
X123866929Y-84177090D02*
X123812167Y-84053280D01*
X123812167Y-84053280D02*
X123757405Y-83805661D01*
X123757405Y-83805661D02*
X123757405Y-83619947D01*
X123757405Y-83619947D02*
X123812167Y-83372328D01*
X123812167Y-83372328D02*
X123866929Y-83248519D01*
X123866929Y-83248519D02*
X123976453Y-83124709D01*
X123976453Y-83124709D02*
X124140738Y-83062804D01*
X124140738Y-83062804D02*
X124250262Y-83062804D01*
X124250262Y-83062804D02*
X124414548Y-83124709D01*
X124414548Y-83124709D02*
X124469310Y-83186614D01*
X124962167Y-84362804D02*
X124962167Y-83062804D01*
X125455024Y-84362804D02*
X125455024Y-83681852D01*
X125455024Y-83681852D02*
X125400262Y-83558042D01*
X125400262Y-83558042D02*
X125290738Y-83496138D01*
X125290738Y-83496138D02*
X125126453Y-83496138D01*
X125126453Y-83496138D02*
X125016929Y-83558042D01*
X125016929Y-83558042D02*
X124962167Y-83619947D01*
X126495500Y-83496138D02*
X126495500Y-84362804D01*
X126002643Y-83496138D02*
X126002643Y-84177090D01*
X126002643Y-84177090D02*
X126057405Y-84300900D01*
X126057405Y-84300900D02*
X126166929Y-84362804D01*
X126166929Y-84362804D02*
X126331214Y-84362804D01*
X126331214Y-84362804D02*
X126440738Y-84300900D01*
X126440738Y-84300900D02*
X126495500Y-84238995D01*
X127700262Y-84238995D02*
X127645500Y-84300900D01*
X127645500Y-84300900D02*
X127481214Y-84362804D01*
X127481214Y-84362804D02*
X127371690Y-84362804D01*
X127371690Y-84362804D02*
X127207405Y-84300900D01*
X127207405Y-84300900D02*
X127097881Y-84177090D01*
X127097881Y-84177090D02*
X127043119Y-84053280D01*
X127043119Y-84053280D02*
X126988357Y-83805661D01*
X126988357Y-83805661D02*
X126988357Y-83619947D01*
X126988357Y-83619947D02*
X127043119Y-83372328D01*
X127043119Y-83372328D02*
X127097881Y-83248519D01*
X127097881Y-83248519D02*
X127207405Y-83124709D01*
X127207405Y-83124709D02*
X127371690Y-83062804D01*
X127371690Y-83062804D02*
X127481214Y-83062804D01*
X127481214Y-83062804D02*
X127645500Y-83124709D01*
X127645500Y-83124709D02*
X127700262Y-83186614D01*
X128193119Y-84362804D02*
X128193119Y-83062804D01*
X128685976Y-84362804D02*
X128685976Y-83681852D01*
X128685976Y-83681852D02*
X128631214Y-83558042D01*
X128631214Y-83558042D02*
X128521690Y-83496138D01*
X128521690Y-83496138D02*
X128357405Y-83496138D01*
X128357405Y-83496138D02*
X128247881Y-83558042D01*
X128247881Y-83558042D02*
X128193119Y-83619947D01*
X129726452Y-83496138D02*
X129726452Y-84362804D01*
X129233595Y-83496138D02*
X129233595Y-84177090D01*
X129233595Y-84177090D02*
X129288357Y-84300900D01*
X129288357Y-84300900D02*
X129397881Y-84362804D01*
X129397881Y-84362804D02*
X129562166Y-84362804D01*
X129562166Y-84362804D02*
X129671690Y-84300900D01*
X129671690Y-84300900D02*
X129726452Y-84238995D01*
X109491932Y-86084303D02*
X110039551Y-86084303D01*
X109382408Y-86455731D02*
X109765742Y-85155731D01*
X109765742Y-85155731D02*
X110149075Y-86455731D01*
X110696694Y-86455731D02*
X110587170Y-86393827D01*
X110587170Y-86393827D02*
X110532408Y-86270017D01*
X110532408Y-86270017D02*
X110532408Y-85155731D01*
X111572884Y-86393827D02*
X111463360Y-86455731D01*
X111463360Y-86455731D02*
X111244313Y-86455731D01*
X111244313Y-86455731D02*
X111134789Y-86393827D01*
X111134789Y-86393827D02*
X111080027Y-86270017D01*
X111080027Y-86270017D02*
X111080027Y-85774779D01*
X111080027Y-85774779D02*
X111134789Y-85650969D01*
X111134789Y-85650969D02*
X111244313Y-85589065D01*
X111244313Y-85589065D02*
X111463360Y-85589065D01*
X111463360Y-85589065D02*
X111572884Y-85650969D01*
X111572884Y-85650969D02*
X111627646Y-85774779D01*
X111627646Y-85774779D02*
X111627646Y-85898588D01*
X111627646Y-85898588D02*
X111080027Y-86022398D01*
X112010979Y-86455731D02*
X112613360Y-85589065D01*
X112010979Y-85589065D02*
X112613360Y-86455731D01*
X112996693Y-86393827D02*
X113106217Y-86455731D01*
X113106217Y-86455731D02*
X113325265Y-86455731D01*
X113325265Y-86455731D02*
X113434788Y-86393827D01*
X113434788Y-86393827D02*
X113489550Y-86270017D01*
X113489550Y-86270017D02*
X113489550Y-86208112D01*
X113489550Y-86208112D02*
X113434788Y-86084303D01*
X113434788Y-86084303D02*
X113325265Y-86022398D01*
X113325265Y-86022398D02*
X113160979Y-86022398D01*
X113160979Y-86022398D02*
X113051455Y-85960493D01*
X113051455Y-85960493D02*
X112996693Y-85836684D01*
X112996693Y-85836684D02*
X112996693Y-85774779D01*
X112996693Y-85774779D02*
X113051455Y-85650969D01*
X113051455Y-85650969D02*
X113160979Y-85589065D01*
X113160979Y-85589065D02*
X113325265Y-85589065D01*
X113325265Y-85589065D02*
X113434788Y-85650969D01*
X114475264Y-86455731D02*
X114475264Y-85774779D01*
X114475264Y-85774779D02*
X114420502Y-85650969D01*
X114420502Y-85650969D02*
X114310978Y-85589065D01*
X114310978Y-85589065D02*
X114091931Y-85589065D01*
X114091931Y-85589065D02*
X113982407Y-85650969D01*
X114475264Y-86393827D02*
X114365740Y-86455731D01*
X114365740Y-86455731D02*
X114091931Y-86455731D01*
X114091931Y-86455731D02*
X113982407Y-86393827D01*
X113982407Y-86393827D02*
X113927645Y-86270017D01*
X113927645Y-86270017D02*
X113927645Y-86146207D01*
X113927645Y-86146207D02*
X113982407Y-86022398D01*
X113982407Y-86022398D02*
X114091931Y-85960493D01*
X114091931Y-85960493D02*
X114365740Y-85960493D01*
X114365740Y-85960493D02*
X114475264Y-85898588D01*
X115022883Y-85589065D02*
X115022883Y-86455731D01*
X115022883Y-85712874D02*
X115077645Y-85650969D01*
X115077645Y-85650969D02*
X115187169Y-85589065D01*
X115187169Y-85589065D02*
X115351454Y-85589065D01*
X115351454Y-85589065D02*
X115460978Y-85650969D01*
X115460978Y-85650969D02*
X115515740Y-85774779D01*
X115515740Y-85774779D02*
X115515740Y-86455731D01*
X116556216Y-86455731D02*
X116556216Y-85155731D01*
X116556216Y-86393827D02*
X116446692Y-86455731D01*
X116446692Y-86455731D02*
X116227645Y-86455731D01*
X116227645Y-86455731D02*
X116118121Y-86393827D01*
X116118121Y-86393827D02*
X116063359Y-86331922D01*
X116063359Y-86331922D02*
X116008597Y-86208112D01*
X116008597Y-86208112D02*
X116008597Y-85836684D01*
X116008597Y-85836684D02*
X116063359Y-85712874D01*
X116063359Y-85712874D02*
X116118121Y-85650969D01*
X116118121Y-85650969D02*
X116227645Y-85589065D01*
X116227645Y-85589065D02*
X116446692Y-85589065D01*
X116446692Y-85589065D02*
X116556216Y-85650969D01*
X117103835Y-86455731D02*
X117103835Y-85589065D01*
X117103835Y-85836684D02*
X117158597Y-85712874D01*
X117158597Y-85712874D02*
X117213359Y-85650969D01*
X117213359Y-85650969D02*
X117322883Y-85589065D01*
X117322883Y-85589065D02*
X117432406Y-85589065D01*
X117815740Y-86331922D02*
X117870502Y-86393827D01*
X117870502Y-86393827D02*
X117815740Y-86455731D01*
X117815740Y-86455731D02*
X117760978Y-86393827D01*
X117760978Y-86393827D02*
X117815740Y-86331922D01*
X117815740Y-86331922D02*
X117815740Y-86455731D01*
X119020502Y-86331922D02*
X118965740Y-86393827D01*
X118965740Y-86393827D02*
X118801454Y-86455731D01*
X118801454Y-86455731D02*
X118691930Y-86455731D01*
X118691930Y-86455731D02*
X118527645Y-86393827D01*
X118527645Y-86393827D02*
X118418121Y-86270017D01*
X118418121Y-86270017D02*
X118363359Y-86146207D01*
X118363359Y-86146207D02*
X118308597Y-85898588D01*
X118308597Y-85898588D02*
X118308597Y-85712874D01*
X118308597Y-85712874D02*
X118363359Y-85465255D01*
X118363359Y-85465255D02*
X118418121Y-85341446D01*
X118418121Y-85341446D02*
X118527645Y-85217636D01*
X118527645Y-85217636D02*
X118691930Y-85155731D01*
X118691930Y-85155731D02*
X118801454Y-85155731D01*
X118801454Y-85155731D02*
X118965740Y-85217636D01*
X118965740Y-85217636D02*
X119020502Y-85279541D01*
X119513359Y-86455731D02*
X119513359Y-85155731D01*
X120006216Y-86455731D02*
X120006216Y-85774779D01*
X120006216Y-85774779D02*
X119951454Y-85650969D01*
X119951454Y-85650969D02*
X119841930Y-85589065D01*
X119841930Y-85589065D02*
X119677645Y-85589065D01*
X119677645Y-85589065D02*
X119568121Y-85650969D01*
X119568121Y-85650969D02*
X119513359Y-85712874D01*
X121046692Y-85589065D02*
X121046692Y-86455731D01*
X120553835Y-85589065D02*
X120553835Y-86270017D01*
X120553835Y-86270017D02*
X120608597Y-86393827D01*
X120608597Y-86393827D02*
X120718121Y-86455731D01*
X120718121Y-86455731D02*
X120882406Y-86455731D01*
X120882406Y-86455731D02*
X120991930Y-86393827D01*
X120991930Y-86393827D02*
X121046692Y-86331922D01*
X122087168Y-86393827D02*
X121977644Y-86455731D01*
X121977644Y-86455731D02*
X121758597Y-86455731D01*
X121758597Y-86455731D02*
X121649073Y-86393827D01*
X121649073Y-86393827D02*
X121594311Y-86331922D01*
X121594311Y-86331922D02*
X121539549Y-86208112D01*
X121539549Y-86208112D02*
X121539549Y-85836684D01*
X121539549Y-85836684D02*
X121594311Y-85712874D01*
X121594311Y-85712874D02*
X121649073Y-85650969D01*
X121649073Y-85650969D02*
X121758597Y-85589065D01*
X121758597Y-85589065D02*
X121977644Y-85589065D01*
X121977644Y-85589065D02*
X122087168Y-85650969D01*
X122580025Y-86455731D02*
X122580025Y-85155731D01*
X123072882Y-86455731D02*
X123072882Y-85774779D01*
X123072882Y-85774779D02*
X123018120Y-85650969D01*
X123018120Y-85650969D02*
X122908596Y-85589065D01*
X122908596Y-85589065D02*
X122744311Y-85589065D01*
X122744311Y-85589065D02*
X122634787Y-85650969D01*
X122634787Y-85650969D02*
X122580025Y-85712874D01*
X124113358Y-85589065D02*
X124113358Y-86455731D01*
X123620501Y-85589065D02*
X123620501Y-86270017D01*
X123620501Y-86270017D02*
X123675263Y-86393827D01*
X123675263Y-86393827D02*
X123784787Y-86455731D01*
X123784787Y-86455731D02*
X123949072Y-86455731D01*
X123949072Y-86455731D02*
X124058596Y-86393827D01*
X124058596Y-86393827D02*
X124113358Y-86331922D01*
X124660977Y-85589065D02*
X124660977Y-86889065D01*
X124660977Y-85650969D02*
X124770501Y-85589065D01*
X124770501Y-85589065D02*
X124989548Y-85589065D01*
X124989548Y-85589065D02*
X125099072Y-85650969D01*
X125099072Y-85650969D02*
X125153834Y-85712874D01*
X125153834Y-85712874D02*
X125208596Y-85836684D01*
X125208596Y-85836684D02*
X125208596Y-86208112D01*
X125208596Y-86208112D02*
X125153834Y-86331922D01*
X125153834Y-86331922D02*
X125099072Y-86393827D01*
X125099072Y-86393827D02*
X124989548Y-86455731D01*
X124989548Y-86455731D02*
X124770501Y-86455731D01*
X124770501Y-86455731D02*
X124660977Y-86393827D01*
X126194310Y-86455731D02*
X126194310Y-85774779D01*
X126194310Y-85774779D02*
X126139548Y-85650969D01*
X126139548Y-85650969D02*
X126030024Y-85589065D01*
X126030024Y-85589065D02*
X125810977Y-85589065D01*
X125810977Y-85589065D02*
X125701453Y-85650969D01*
X126194310Y-86393827D02*
X126084786Y-86455731D01*
X126084786Y-86455731D02*
X125810977Y-86455731D01*
X125810977Y-86455731D02*
X125701453Y-86393827D01*
X125701453Y-86393827D02*
X125646691Y-86270017D01*
X125646691Y-86270017D02*
X125646691Y-86146207D01*
X125646691Y-86146207D02*
X125701453Y-86022398D01*
X125701453Y-86022398D02*
X125810977Y-85960493D01*
X125810977Y-85960493D02*
X126084786Y-85960493D01*
X126084786Y-85960493D02*
X126194310Y-85898588D01*
X126906215Y-86455731D02*
X126796691Y-86393827D01*
X126796691Y-86393827D02*
X126741929Y-86270017D01*
X126741929Y-86270017D02*
X126741929Y-85155731D01*
X127508596Y-86455731D02*
X127399072Y-86393827D01*
X127399072Y-86393827D02*
X127344310Y-86331922D01*
X127344310Y-86331922D02*
X127289548Y-86208112D01*
X127289548Y-86208112D02*
X127289548Y-85836684D01*
X127289548Y-85836684D02*
X127344310Y-85712874D01*
X127344310Y-85712874D02*
X127399072Y-85650969D01*
X127399072Y-85650969D02*
X127508596Y-85589065D01*
X127508596Y-85589065D02*
X127672881Y-85589065D01*
X127672881Y-85589065D02*
X127782405Y-85650969D01*
X127782405Y-85650969D02*
X127837167Y-85712874D01*
X127837167Y-85712874D02*
X127891929Y-85836684D01*
X127891929Y-85836684D02*
X127891929Y-86208112D01*
X127891929Y-86208112D02*
X127837167Y-86331922D01*
X127837167Y-86331922D02*
X127782405Y-86393827D01*
X127782405Y-86393827D02*
X127672881Y-86455731D01*
X127672881Y-86455731D02*
X127508596Y-86455731D01*
X128275262Y-85589065D02*
X128549072Y-86455731D01*
X128549072Y-86455731D02*
X128822881Y-85589065D01*
X129972881Y-85836684D02*
X129918119Y-85774779D01*
X129918119Y-85774779D02*
X129808595Y-85712874D01*
X129808595Y-85712874D02*
X129699071Y-85712874D01*
X129699071Y-85712874D02*
X129589547Y-85774779D01*
X129589547Y-85774779D02*
X129534786Y-85836684D01*
X129534786Y-85836684D02*
X129480024Y-85960493D01*
X129480024Y-85960493D02*
X129480024Y-86084303D01*
X129480024Y-86084303D02*
X129534786Y-86208112D01*
X129534786Y-86208112D02*
X129589547Y-86270017D01*
X129589547Y-86270017D02*
X129699071Y-86331922D01*
X129699071Y-86331922D02*
X129808595Y-86331922D01*
X129808595Y-86331922D02*
X129918119Y-86270017D01*
X129918119Y-86270017D02*
X129972881Y-86208112D01*
X129972881Y-85712874D02*
X129972881Y-86208112D01*
X129972881Y-86208112D02*
X130027643Y-86270017D01*
X130027643Y-86270017D02*
X130082405Y-86270017D01*
X130082405Y-86270017D02*
X130191928Y-86208112D01*
X130191928Y-86208112D02*
X130246690Y-86084303D01*
X130246690Y-86084303D02*
X130246690Y-85774779D01*
X130246690Y-85774779D02*
X130137167Y-85589065D01*
X130137167Y-85589065D02*
X129972881Y-85465255D01*
X129972881Y-85465255D02*
X129753833Y-85403350D01*
X129753833Y-85403350D02*
X129534786Y-85465255D01*
X129534786Y-85465255D02*
X129370500Y-85589065D01*
X129370500Y-85589065D02*
X129260976Y-85774779D01*
X129260976Y-85774779D02*
X129206214Y-86022398D01*
X129206214Y-86022398D02*
X129260976Y-86270017D01*
X129260976Y-86270017D02*
X129370500Y-86455731D01*
X129370500Y-86455731D02*
X129534786Y-86579541D01*
X129534786Y-86579541D02*
X129753833Y-86641446D01*
X129753833Y-86641446D02*
X129972881Y-86579541D01*
X129972881Y-86579541D02*
X130137167Y-86455731D01*
X130575261Y-85589065D02*
X131013357Y-85589065D01*
X130739547Y-86455731D02*
X130739547Y-85341446D01*
X130739547Y-85341446D02*
X130794309Y-85217636D01*
X130794309Y-85217636D02*
X130903833Y-85155731D01*
X130903833Y-85155731D02*
X131013357Y-85155731D01*
X131560976Y-86455731D02*
X131451452Y-86393827D01*
X131451452Y-86393827D02*
X131396690Y-86270017D01*
X131396690Y-86270017D02*
X131396690Y-85155731D01*
X131999071Y-86455731D02*
X131999071Y-85589065D01*
X131999071Y-85155731D02*
X131944309Y-85217636D01*
X131944309Y-85217636D02*
X131999071Y-85279541D01*
X131999071Y-85279541D02*
X132053833Y-85217636D01*
X132053833Y-85217636D02*
X131999071Y-85155731D01*
X131999071Y-85155731D02*
X131999071Y-85279541D01*
X133039547Y-85589065D02*
X133039547Y-86641446D01*
X133039547Y-86641446D02*
X132984785Y-86765255D01*
X132984785Y-86765255D02*
X132930023Y-86827160D01*
X132930023Y-86827160D02*
X132820500Y-86889065D01*
X132820500Y-86889065D02*
X132656214Y-86889065D01*
X132656214Y-86889065D02*
X132546690Y-86827160D01*
X133039547Y-86393827D02*
X132930023Y-86455731D01*
X132930023Y-86455731D02*
X132710976Y-86455731D01*
X132710976Y-86455731D02*
X132601452Y-86393827D01*
X132601452Y-86393827D02*
X132546690Y-86331922D01*
X132546690Y-86331922D02*
X132491928Y-86208112D01*
X132491928Y-86208112D02*
X132491928Y-85836684D01*
X132491928Y-85836684D02*
X132546690Y-85712874D01*
X132546690Y-85712874D02*
X132601452Y-85650969D01*
X132601452Y-85650969D02*
X132710976Y-85589065D01*
X132710976Y-85589065D02*
X132930023Y-85589065D01*
X132930023Y-85589065D02*
X133039547Y-85650969D01*
X133587166Y-86455731D02*
X133587166Y-85155731D01*
X134080023Y-86455731D02*
X134080023Y-85774779D01*
X134080023Y-85774779D02*
X134025261Y-85650969D01*
X134025261Y-85650969D02*
X133915737Y-85589065D01*
X133915737Y-85589065D02*
X133751452Y-85589065D01*
X133751452Y-85589065D02*
X133641928Y-85650969D01*
X133641928Y-85650969D02*
X133587166Y-85712874D01*
X134463356Y-85589065D02*
X134901452Y-85589065D01*
X134627642Y-85155731D02*
X134627642Y-86270017D01*
X134627642Y-86270017D02*
X134682404Y-86393827D01*
X134682404Y-86393827D02*
X134791928Y-86455731D01*
X134791928Y-86455731D02*
X134901452Y-86455731D01*
X135230023Y-86393827D02*
X135339547Y-86455731D01*
X135339547Y-86455731D02*
X135558595Y-86455731D01*
X135558595Y-86455731D02*
X135668118Y-86393827D01*
X135668118Y-86393827D02*
X135722880Y-86270017D01*
X135722880Y-86270017D02*
X135722880Y-86208112D01*
X135722880Y-86208112D02*
X135668118Y-86084303D01*
X135668118Y-86084303D02*
X135558595Y-86022398D01*
X135558595Y-86022398D02*
X135394309Y-86022398D01*
X135394309Y-86022398D02*
X135284785Y-85960493D01*
X135284785Y-85960493D02*
X135230023Y-85836684D01*
X135230023Y-85836684D02*
X135230023Y-85774779D01*
X135230023Y-85774779D02*
X135284785Y-85650969D01*
X135284785Y-85650969D02*
X135394309Y-85589065D01*
X135394309Y-85589065D02*
X135558595Y-85589065D01*
X135558595Y-85589065D02*
X135668118Y-85650969D01*
X136708594Y-86455731D02*
X136708594Y-85774779D01*
X136708594Y-85774779D02*
X136653832Y-85650969D01*
X136653832Y-85650969D02*
X136544308Y-85589065D01*
X136544308Y-85589065D02*
X136325261Y-85589065D01*
X136325261Y-85589065D02*
X136215737Y-85650969D01*
X136708594Y-86393827D02*
X136599070Y-86455731D01*
X136599070Y-86455731D02*
X136325261Y-86455731D01*
X136325261Y-86455731D02*
X136215737Y-86393827D01*
X136215737Y-86393827D02*
X136160975Y-86270017D01*
X136160975Y-86270017D02*
X136160975Y-86146207D01*
X136160975Y-86146207D02*
X136215737Y-86022398D01*
X136215737Y-86022398D02*
X136325261Y-85960493D01*
X136325261Y-85960493D02*
X136599070Y-85960493D01*
X136599070Y-85960493D02*
X136708594Y-85898588D01*
X137091927Y-85589065D02*
X137530023Y-85589065D01*
X137256213Y-86455731D02*
X137256213Y-85341446D01*
X137256213Y-85341446D02*
X137310975Y-85217636D01*
X137310975Y-85217636D02*
X137420499Y-85155731D01*
X137420499Y-85155731D02*
X137530023Y-85155731D01*
X138351451Y-86393827D02*
X138241927Y-86455731D01*
X138241927Y-86455731D02*
X138022880Y-86455731D01*
X138022880Y-86455731D02*
X137913356Y-86393827D01*
X137913356Y-86393827D02*
X137858594Y-86270017D01*
X137858594Y-86270017D02*
X137858594Y-85774779D01*
X137858594Y-85774779D02*
X137913356Y-85650969D01*
X137913356Y-85650969D02*
X138022880Y-85589065D01*
X138022880Y-85589065D02*
X138241927Y-85589065D01*
X138241927Y-85589065D02*
X138351451Y-85650969D01*
X138351451Y-85650969D02*
X138406213Y-85774779D01*
X138406213Y-85774779D02*
X138406213Y-85898588D01*
X138406213Y-85898588D02*
X137858594Y-86022398D01*
X138734784Y-85589065D02*
X139172880Y-85589065D01*
X138899070Y-85155731D02*
X138899070Y-86270017D01*
X138899070Y-86270017D02*
X138953832Y-86393827D01*
X138953832Y-86393827D02*
X139063356Y-86455731D01*
X139063356Y-86455731D02*
X139172880Y-86455731D01*
X139446689Y-85589065D02*
X139720499Y-86455731D01*
X139994308Y-85589065D02*
X139720499Y-86455731D01*
X139720499Y-86455731D02*
X139610975Y-86765255D01*
X139610975Y-86765255D02*
X139556213Y-86827160D01*
X139556213Y-86827160D02*
X139446689Y-86889065D01*
X140432403Y-86331922D02*
X140487165Y-86393827D01*
X140487165Y-86393827D02*
X140432403Y-86455731D01*
X140432403Y-86455731D02*
X140377641Y-86393827D01*
X140377641Y-86393827D02*
X140432403Y-86331922D01*
X140432403Y-86331922D02*
X140432403Y-86455731D01*
X141472879Y-86393827D02*
X141363355Y-86455731D01*
X141363355Y-86455731D02*
X141144308Y-86455731D01*
X141144308Y-86455731D02*
X141034784Y-86393827D01*
X141034784Y-86393827D02*
X140980022Y-86331922D01*
X140980022Y-86331922D02*
X140925260Y-86208112D01*
X140925260Y-86208112D02*
X140925260Y-85836684D01*
X140925260Y-85836684D02*
X140980022Y-85712874D01*
X140980022Y-85712874D02*
X141034784Y-85650969D01*
X141034784Y-85650969D02*
X141144308Y-85589065D01*
X141144308Y-85589065D02*
X141363355Y-85589065D01*
X141363355Y-85589065D02*
X141472879Y-85650969D01*
X142130022Y-86455731D02*
X142020498Y-86393827D01*
X142020498Y-86393827D02*
X141965736Y-86331922D01*
X141965736Y-86331922D02*
X141910974Y-86208112D01*
X141910974Y-86208112D02*
X141910974Y-85836684D01*
X141910974Y-85836684D02*
X141965736Y-85712874D01*
X141965736Y-85712874D02*
X142020498Y-85650969D01*
X142020498Y-85650969D02*
X142130022Y-85589065D01*
X142130022Y-85589065D02*
X142294307Y-85589065D01*
X142294307Y-85589065D02*
X142403831Y-85650969D01*
X142403831Y-85650969D02*
X142458593Y-85712874D01*
X142458593Y-85712874D02*
X142513355Y-85836684D01*
X142513355Y-85836684D02*
X142513355Y-86208112D01*
X142513355Y-86208112D02*
X142458593Y-86331922D01*
X142458593Y-86331922D02*
X142403831Y-86393827D01*
X142403831Y-86393827D02*
X142294307Y-86455731D01*
X142294307Y-86455731D02*
X142130022Y-86455731D01*
X143006212Y-86455731D02*
X143006212Y-85589065D01*
X143006212Y-85712874D02*
X143060974Y-85650969D01*
X143060974Y-85650969D02*
X143170498Y-85589065D01*
X143170498Y-85589065D02*
X143334783Y-85589065D01*
X143334783Y-85589065D02*
X143444307Y-85650969D01*
X143444307Y-85650969D02*
X143499069Y-85774779D01*
X143499069Y-85774779D02*
X143499069Y-86455731D01*
X143499069Y-85774779D02*
X143553831Y-85650969D01*
X143553831Y-85650969D02*
X143663355Y-85589065D01*
X143663355Y-85589065D02*
X143827641Y-85589065D01*
X143827641Y-85589065D02*
X143937164Y-85650969D01*
X143937164Y-85650969D02*
X143991926Y-85774779D01*
X143991926Y-85774779D02*
X143991926Y-86455731D01*
D13*
X155541668Y-117614600D02*
X155791668Y-117733647D01*
X155791668Y-117733647D02*
X156208335Y-117733647D01*
X156208335Y-117733647D02*
X156375001Y-117614600D01*
X156375001Y-117614600D02*
X156458335Y-117495552D01*
X156458335Y-117495552D02*
X156541668Y-117257457D01*
X156541668Y-117257457D02*
X156541668Y-117019361D01*
X156541668Y-117019361D02*
X156458335Y-116781266D01*
X156458335Y-116781266D02*
X156375001Y-116662219D01*
X156375001Y-116662219D02*
X156208335Y-116543171D01*
X156208335Y-116543171D02*
X155875001Y-116424123D01*
X155875001Y-116424123D02*
X155708335Y-116305076D01*
X155708335Y-116305076D02*
X155625001Y-116186028D01*
X155625001Y-116186028D02*
X155541668Y-115947933D01*
X155541668Y-115947933D02*
X155541668Y-115709838D01*
X155541668Y-115709838D02*
X155625001Y-115471742D01*
X155625001Y-115471742D02*
X155708335Y-115352695D01*
X155708335Y-115352695D02*
X155875001Y-115233647D01*
X155875001Y-115233647D02*
X156291668Y-115233647D01*
X156291668Y-115233647D02*
X156541668Y-115352695D01*
X157291668Y-117733647D02*
X157291668Y-116066980D01*
X157291668Y-115233647D02*
X157208335Y-115352695D01*
X157208335Y-115352695D02*
X157291668Y-115471742D01*
X157291668Y-115471742D02*
X157375002Y-115352695D01*
X157375002Y-115352695D02*
X157291668Y-115233647D01*
X157291668Y-115233647D02*
X157291668Y-115471742D01*
X158125001Y-117733647D02*
X158125001Y-116066980D01*
X158125001Y-116305076D02*
X158208335Y-116186028D01*
X158208335Y-116186028D02*
X158375001Y-116066980D01*
X158375001Y-116066980D02*
X158625001Y-116066980D01*
X158625001Y-116066980D02*
X158791668Y-116186028D01*
X158791668Y-116186028D02*
X158875001Y-116424123D01*
X158875001Y-116424123D02*
X158875001Y-117733647D01*
X158875001Y-116424123D02*
X158958335Y-116186028D01*
X158958335Y-116186028D02*
X159125001Y-116066980D01*
X159125001Y-116066980D02*
X159375001Y-116066980D01*
X159375001Y-116066980D02*
X159541668Y-116186028D01*
X159541668Y-116186028D02*
X159625001Y-116424123D01*
X159625001Y-116424123D02*
X159625001Y-117733647D01*
X161791667Y-117733647D02*
X161791667Y-115233647D01*
X161791667Y-115233647D02*
X162375001Y-117019361D01*
X162375001Y-117019361D02*
X162958334Y-115233647D01*
X162958334Y-115233647D02*
X162958334Y-117733647D01*
X164041667Y-117733647D02*
X163875001Y-117614600D01*
X163875001Y-117614600D02*
X163791667Y-117495552D01*
X163791667Y-117495552D02*
X163708334Y-117257457D01*
X163708334Y-117257457D02*
X163708334Y-116543171D01*
X163708334Y-116543171D02*
X163791667Y-116305076D01*
X163791667Y-116305076D02*
X163875001Y-116186028D01*
X163875001Y-116186028D02*
X164041667Y-116066980D01*
X164041667Y-116066980D02*
X164291667Y-116066980D01*
X164291667Y-116066980D02*
X164458334Y-116186028D01*
X164458334Y-116186028D02*
X164541667Y-116305076D01*
X164541667Y-116305076D02*
X164625001Y-116543171D01*
X164625001Y-116543171D02*
X164625001Y-117257457D01*
X164625001Y-117257457D02*
X164541667Y-117495552D01*
X164541667Y-117495552D02*
X164458334Y-117614600D01*
X164458334Y-117614600D02*
X164291667Y-117733647D01*
X164291667Y-117733647D02*
X164041667Y-117733647D01*
X165375000Y-116066980D02*
X165375000Y-117733647D01*
X165375000Y-116305076D02*
X165458334Y-116186028D01*
X165458334Y-116186028D02*
X165625000Y-116066980D01*
X165625000Y-116066980D02*
X165875000Y-116066980D01*
X165875000Y-116066980D02*
X166041667Y-116186028D01*
X166041667Y-116186028D02*
X166125000Y-116424123D01*
X166125000Y-116424123D02*
X166125000Y-117733647D01*
X166958333Y-117733647D02*
X166958333Y-116066980D01*
X166958333Y-115233647D02*
X166875000Y-115352695D01*
X166875000Y-115352695D02*
X166958333Y-115471742D01*
X166958333Y-115471742D02*
X167041667Y-115352695D01*
X167041667Y-115352695D02*
X166958333Y-115233647D01*
X166958333Y-115233647D02*
X166958333Y-115471742D01*
X167541666Y-116066980D02*
X168208333Y-116066980D01*
X167791666Y-115233647D02*
X167791666Y-117376504D01*
X167791666Y-117376504D02*
X167875000Y-117614600D01*
X167875000Y-117614600D02*
X168041666Y-117733647D01*
X168041666Y-117733647D02*
X168208333Y-117733647D01*
X169041666Y-117733647D02*
X168875000Y-117614600D01*
X168875000Y-117614600D02*
X168791666Y-117495552D01*
X168791666Y-117495552D02*
X168708333Y-117257457D01*
X168708333Y-117257457D02*
X168708333Y-116543171D01*
X168708333Y-116543171D02*
X168791666Y-116305076D01*
X168791666Y-116305076D02*
X168875000Y-116186028D01*
X168875000Y-116186028D02*
X169041666Y-116066980D01*
X169041666Y-116066980D02*
X169291666Y-116066980D01*
X169291666Y-116066980D02*
X169458333Y-116186028D01*
X169458333Y-116186028D02*
X169541666Y-116305076D01*
X169541666Y-116305076D02*
X169625000Y-116543171D01*
X169625000Y-116543171D02*
X169625000Y-117257457D01*
X169625000Y-117257457D02*
X169541666Y-117495552D01*
X169541666Y-117495552D02*
X169458333Y-117614600D01*
X169458333Y-117614600D02*
X169291666Y-117733647D01*
X169291666Y-117733647D02*
X169041666Y-117733647D01*
X170374999Y-117733647D02*
X170374999Y-116066980D01*
X170374999Y-116543171D02*
X170458333Y-116305076D01*
X170458333Y-116305076D02*
X170541666Y-116186028D01*
X170541666Y-116186028D02*
X170708333Y-116066980D01*
X170708333Y-116066980D02*
X170874999Y-116066980D01*
D14*
X140204166Y-62054819D02*
X140204166Y-62769104D01*
X140204166Y-62769104D02*
X140156547Y-62911961D01*
X140156547Y-62911961D02*
X140061309Y-63007200D01*
X140061309Y-63007200D02*
X139918452Y-63054819D01*
X139918452Y-63054819D02*
X139823214Y-63054819D01*
X141156547Y-62054819D02*
X140680357Y-62054819D01*
X140680357Y-62054819D02*
X140632738Y-62531009D01*
X140632738Y-62531009D02*
X140680357Y-62483390D01*
X140680357Y-62483390D02*
X140775595Y-62435771D01*
X140775595Y-62435771D02*
X141013690Y-62435771D01*
X141013690Y-62435771D02*
X141108928Y-62483390D01*
X141108928Y-62483390D02*
X141156547Y-62531009D01*
X141156547Y-62531009D02*
X141204166Y-62626247D01*
X141204166Y-62626247D02*
X141204166Y-62864342D01*
X141204166Y-62864342D02*
X141156547Y-62959580D01*
X141156547Y-62959580D02*
X141108928Y-63007200D01*
X141108928Y-63007200D02*
X141013690Y-63054819D01*
X141013690Y-63054819D02*
X140775595Y-63054819D01*
X140775595Y-63054819D02*
X140680357Y-63007200D01*
X140680357Y-63007200D02*
X140632738Y-62959580D01*
X115900000Y-93586128D02*
X115900000Y-94657557D01*
X115900000Y-94657557D02*
X115828571Y-94871842D01*
X115828571Y-94871842D02*
X115685714Y-95014700D01*
X115685714Y-95014700D02*
X115471428Y-95086128D01*
X115471428Y-95086128D02*
X115328571Y-95086128D01*
X117257143Y-94086128D02*
X117257143Y-95086128D01*
X116900000Y-93514700D02*
X116542857Y-94586128D01*
X116542857Y-94586128D02*
X117471428Y-94586128D01*
X174987213Y-124079350D02*
X175130236Y-124136492D01*
X175130236Y-124136492D02*
X175368606Y-124136492D01*
X175368606Y-124136492D02*
X175463955Y-124079350D01*
X175463955Y-124079350D02*
X175511629Y-124022207D01*
X175511629Y-124022207D02*
X175559303Y-123907921D01*
X175559303Y-123907921D02*
X175559303Y-123793635D01*
X175559303Y-123793635D02*
X175511629Y-123679350D01*
X175511629Y-123679350D02*
X175463955Y-123622207D01*
X175463955Y-123622207D02*
X175368606Y-123565064D01*
X175368606Y-123565064D02*
X175177910Y-123507921D01*
X175177910Y-123507921D02*
X175082561Y-123450778D01*
X175082561Y-123450778D02*
X175034887Y-123393635D01*
X175034887Y-123393635D02*
X174987213Y-123279350D01*
X174987213Y-123279350D02*
X174987213Y-123165064D01*
X174987213Y-123165064D02*
X175034887Y-123050778D01*
X175034887Y-123050778D02*
X175082561Y-122993635D01*
X175082561Y-122993635D02*
X175177910Y-122936492D01*
X175177910Y-122936492D02*
X175416280Y-122936492D01*
X175416280Y-122936492D02*
X175559303Y-122993635D01*
X176512786Y-124136492D02*
X175940696Y-124136492D01*
X176226741Y-124136492D02*
X176226741Y-122936492D01*
X176226741Y-122936492D02*
X176131393Y-123107921D01*
X176131393Y-123107921D02*
X176036044Y-123222207D01*
X176036044Y-123222207D02*
X175940696Y-123279350D01*
X162335714Y-59686492D02*
X162335714Y-60657921D01*
X162335714Y-60657921D02*
X162392857Y-60772207D01*
X162392857Y-60772207D02*
X162450000Y-60829350D01*
X162450000Y-60829350D02*
X162564285Y-60886492D01*
X162564285Y-60886492D02*
X162792857Y-60886492D01*
X162792857Y-60886492D02*
X162907142Y-60829350D01*
X162907142Y-60829350D02*
X162964285Y-60772207D01*
X162964285Y-60772207D02*
X163021428Y-60657921D01*
X163021428Y-60657921D02*
X163021428Y-59686492D01*
X164221428Y-60886492D02*
X163535714Y-60886492D01*
X163878571Y-60886492D02*
X163878571Y-59686492D01*
X163878571Y-59686492D02*
X163764285Y-59857921D01*
X163764285Y-59857921D02*
X163650000Y-59972207D01*
X163650000Y-59972207D02*
X163535714Y-60029350D01*
X98897500Y-73191128D02*
X98897500Y-74262557D01*
X98897500Y-74262557D02*
X98826071Y-74476842D01*
X98826071Y-74476842D02*
X98683214Y-74619700D01*
X98683214Y-74619700D02*
X98468928Y-74691128D01*
X98468928Y-74691128D02*
X98326071Y-74691128D01*
X100397500Y-74691128D02*
X99540357Y-74691128D01*
X99968928Y-74691128D02*
X99968928Y-73191128D01*
X99968928Y-73191128D02*
X99826071Y-73405414D01*
X99826071Y-73405414D02*
X99683214Y-73548271D01*
X99683214Y-73548271D02*
X99540357Y-73619700D01*
X150317143Y-117675278D02*
X149817143Y-116960992D01*
X149460000Y-117675278D02*
X149460000Y-116175278D01*
X149460000Y-116175278D02*
X150031429Y-116175278D01*
X150031429Y-116175278D02*
X150174286Y-116246707D01*
X150174286Y-116246707D02*
X150245715Y-116318135D01*
X150245715Y-116318135D02*
X150317143Y-116460992D01*
X150317143Y-116460992D02*
X150317143Y-116675278D01*
X150317143Y-116675278D02*
X150245715Y-116818135D01*
X150245715Y-116818135D02*
X150174286Y-116889564D01*
X150174286Y-116889564D02*
X150031429Y-116960992D01*
X150031429Y-116960992D02*
X149460000Y-116960992D01*
X151460000Y-116889564D02*
X150960000Y-116889564D01*
X150960000Y-117675278D02*
X150960000Y-116175278D01*
X150960000Y-116175278D02*
X151674286Y-116175278D01*
X152174286Y-116318135D02*
X152245714Y-116246707D01*
X152245714Y-116246707D02*
X152388572Y-116175278D01*
X152388572Y-116175278D02*
X152745714Y-116175278D01*
X152745714Y-116175278D02*
X152888572Y-116246707D01*
X152888572Y-116246707D02*
X152960000Y-116318135D01*
X152960000Y-116318135D02*
X153031429Y-116460992D01*
X153031429Y-116460992D02*
X153031429Y-116603850D01*
X153031429Y-116603850D02*
X152960000Y-116818135D01*
X152960000Y-116818135D02*
X152102857Y-117675278D01*
X152102857Y-117675278D02*
X153031429Y-117675278D01*
X110657143Y-117747828D02*
X110157143Y-117033542D01*
X109800000Y-117747828D02*
X109800000Y-116247828D01*
X109800000Y-116247828D02*
X110371429Y-116247828D01*
X110371429Y-116247828D02*
X110514286Y-116319257D01*
X110514286Y-116319257D02*
X110585715Y-116390685D01*
X110585715Y-116390685D02*
X110657143Y-116533542D01*
X110657143Y-116533542D02*
X110657143Y-116747828D01*
X110657143Y-116747828D02*
X110585715Y-116890685D01*
X110585715Y-116890685D02*
X110514286Y-116962114D01*
X110514286Y-116962114D02*
X110371429Y-117033542D01*
X110371429Y-117033542D02*
X109800000Y-117033542D01*
X111800000Y-116962114D02*
X111300000Y-116962114D01*
X111300000Y-117747828D02*
X111300000Y-116247828D01*
X111300000Y-116247828D02*
X112014286Y-116247828D01*
X113371429Y-117747828D02*
X112514286Y-117747828D01*
X112942857Y-117747828D02*
X112942857Y-116247828D01*
X112942857Y-116247828D02*
X112800000Y-116462114D01*
X112800000Y-116462114D02*
X112657143Y-116604971D01*
X112657143Y-116604971D02*
X112514286Y-116676400D01*
X140206728Y-95505900D02*
X140135300Y-95434472D01*
X140135300Y-95434472D02*
X140063871Y-95220186D01*
X140063871Y-95220186D02*
X140063871Y-95077329D01*
X140063871Y-95077329D02*
X140135300Y-94863043D01*
X140135300Y-94863043D02*
X140278157Y-94720186D01*
X140278157Y-94720186D02*
X140421014Y-94648757D01*
X140421014Y-94648757D02*
X140706728Y-94577329D01*
X140706728Y-94577329D02*
X140921014Y-94577329D01*
X140921014Y-94577329D02*
X141206728Y-94648757D01*
X141206728Y-94648757D02*
X141349585Y-94720186D01*
X141349585Y-94720186D02*
X141492442Y-94863043D01*
X141492442Y-94863043D02*
X141563871Y-95077329D01*
X141563871Y-95077329D02*
X141563871Y-95220186D01*
X141563871Y-95220186D02*
X141492442Y-95434472D01*
X141492442Y-95434472D02*
X141421014Y-95505900D01*
X141421014Y-96077329D02*
X141492442Y-96148757D01*
X141492442Y-96148757D02*
X141563871Y-96291615D01*
X141563871Y-96291615D02*
X141563871Y-96648757D01*
X141563871Y-96648757D02*
X141492442Y-96791615D01*
X141492442Y-96791615D02*
X141421014Y-96863043D01*
X141421014Y-96863043D02*
X141278157Y-96934472D01*
X141278157Y-96934472D02*
X141135300Y-96934472D01*
X141135300Y-96934472D02*
X140921014Y-96863043D01*
X140921014Y-96863043D02*
X140063871Y-96005900D01*
X140063871Y-96005900D02*
X140063871Y-96934472D01*
X99300000Y-108186128D02*
X99300000Y-109257557D01*
X99300000Y-109257557D02*
X99228571Y-109471842D01*
X99228571Y-109471842D02*
X99085714Y-109614700D01*
X99085714Y-109614700D02*
X98871428Y-109686128D01*
X98871428Y-109686128D02*
X98728571Y-109686128D01*
X99942857Y-108328985D02*
X100014285Y-108257557D01*
X100014285Y-108257557D02*
X100157143Y-108186128D01*
X100157143Y-108186128D02*
X100514285Y-108186128D01*
X100514285Y-108186128D02*
X100657143Y-108257557D01*
X100657143Y-108257557D02*
X100728571Y-108328985D01*
X100728571Y-108328985D02*
X100800000Y-108471842D01*
X100800000Y-108471842D02*
X100800000Y-108614700D01*
X100800000Y-108614700D02*
X100728571Y-108828985D01*
X100728571Y-108828985D02*
X99871428Y-109686128D01*
X99871428Y-109686128D02*
X100800000Y-109686128D01*
X128456728Y-95505900D02*
X128385300Y-95434472D01*
X128385300Y-95434472D02*
X128313871Y-95220186D01*
X128313871Y-95220186D02*
X128313871Y-95077329D01*
X128313871Y-95077329D02*
X128385300Y-94863043D01*
X128385300Y-94863043D02*
X128528157Y-94720186D01*
X128528157Y-94720186D02*
X128671014Y-94648757D01*
X128671014Y-94648757D02*
X128956728Y-94577329D01*
X128956728Y-94577329D02*
X129171014Y-94577329D01*
X129171014Y-94577329D02*
X129456728Y-94648757D01*
X129456728Y-94648757D02*
X129599585Y-94720186D01*
X129599585Y-94720186D02*
X129742442Y-94863043D01*
X129742442Y-94863043D02*
X129813871Y-95077329D01*
X129813871Y-95077329D02*
X129813871Y-95220186D01*
X129813871Y-95220186D02*
X129742442Y-95434472D01*
X129742442Y-95434472D02*
X129671014Y-95505900D01*
X128313871Y-96934472D02*
X128313871Y-96077329D01*
X128313871Y-96505900D02*
X129813871Y-96505900D01*
X129813871Y-96505900D02*
X129599585Y-96363043D01*
X129599585Y-96363043D02*
X129456728Y-96220186D01*
X129456728Y-96220186D02*
X129385300Y-96077329D01*
X122678571Y-113275278D02*
X122678571Y-111775278D01*
X122678571Y-111775278D02*
X123250000Y-111775278D01*
X123250000Y-111775278D02*
X123392857Y-111846707D01*
X123392857Y-111846707D02*
X123464286Y-111918135D01*
X123464286Y-111918135D02*
X123535714Y-112060992D01*
X123535714Y-112060992D02*
X123535714Y-112275278D01*
X123535714Y-112275278D02*
X123464286Y-112418135D01*
X123464286Y-112418135D02*
X123392857Y-112489564D01*
X123392857Y-112489564D02*
X123250000Y-112560992D01*
X123250000Y-112560992D02*
X122678571Y-112560992D01*
X124107143Y-113203850D02*
X124321429Y-113275278D01*
X124321429Y-113275278D02*
X124678571Y-113275278D01*
X124678571Y-113275278D02*
X124821429Y-113203850D01*
X124821429Y-113203850D02*
X124892857Y-113132421D01*
X124892857Y-113132421D02*
X124964286Y-112989564D01*
X124964286Y-112989564D02*
X124964286Y-112846707D01*
X124964286Y-112846707D02*
X124892857Y-112703850D01*
X124892857Y-112703850D02*
X124821429Y-112632421D01*
X124821429Y-112632421D02*
X124678571Y-112560992D01*
X124678571Y-112560992D02*
X124392857Y-112489564D01*
X124392857Y-112489564D02*
X124250000Y-112418135D01*
X124250000Y-112418135D02*
X124178571Y-112346707D01*
X124178571Y-112346707D02*
X124107143Y-112203850D01*
X124107143Y-112203850D02*
X124107143Y-112060992D01*
X124107143Y-112060992D02*
X124178571Y-111918135D01*
X124178571Y-111918135D02*
X124250000Y-111846707D01*
X124250000Y-111846707D02*
X124392857Y-111775278D01*
X124392857Y-111775278D02*
X124750000Y-111775278D01*
X124750000Y-111775278D02*
X124964286Y-111846707D01*
X126392857Y-113275278D02*
X125535714Y-113275278D01*
X125964285Y-113275278D02*
X125964285Y-111775278D01*
X125964285Y-111775278D02*
X125821428Y-111989564D01*
X125821428Y-111989564D02*
X125678571Y-112132421D01*
X125678571Y-112132421D02*
X125535714Y-112203850D01*
D13*
%TO.C,J5*%
X147600000Y-61400000D02*
G75*
G02*
X147400000Y-61400000I-100000J0D01*
G01*
X147400000Y-61400000D02*
G75*
G02*
X147600000Y-61400000I100000J0D01*
G01*
D15*
X146900000Y-60180000D02*
X146900000Y-59050000D01*
X141900000Y-59050000D02*
X141900000Y-60180000D01*
X146900000Y-59050000D02*
X141900000Y-59050000D01*
D16*
%TO.C,J4*%
X110077100Y-98745100D02*
G75*
G02*
X109315100Y-98745100I-381000J0D01*
G01*
X109315100Y-98745100D02*
G75*
G02*
X110077100Y-98745100I381000J0D01*
G01*
D17*
X121735700Y-100960501D02*
X121735700Y-91918100D01*
X121735700Y-91918100D02*
X111474100Y-91918100D01*
X111474100Y-100960501D02*
X121735700Y-100960501D01*
X111474100Y-91918100D02*
X111474100Y-100960501D01*
%TO.C,S1*%
X172702000Y-116938150D02*
X172702000Y-120494150D01*
X175750000Y-112239150D02*
X179560000Y-112239150D01*
X175750000Y-122399150D02*
X179560000Y-122399150D01*
X179560000Y-112239150D02*
X179560000Y-122399150D01*
X172702000Y-114144150D02*
G75*
G02*
X173210000Y-113636150I508000J0D01*
G01*
X173210000Y-121002150D02*
G75*
G02*
X172702000Y-120494150I1J508001D01*
G01*
X175242000Y-112747150D02*
G75*
G02*
X175750000Y-112239150I508000J0D01*
G01*
X175750000Y-122399150D02*
G75*
G02*
X175242000Y-121891150I1J508001D01*
G01*
D18*
X179817470Y-115031200D02*
X179560000Y-115031200D01*
X179560000Y-112874150D01*
X179817470Y-112874150D01*
X179817470Y-115031200D01*
G36*
X179817470Y-115031200D02*
G01*
X179560000Y-115031200D01*
X179560000Y-112874150D01*
X179817470Y-112874150D01*
X179817470Y-115031200D01*
G37*
X179814740Y-118335340D02*
X179560000Y-118335340D01*
X179560000Y-116303150D01*
X179814740Y-116303150D01*
X179814740Y-118335340D01*
G36*
X179814740Y-118335340D02*
G01*
X179560000Y-118335340D01*
X179560000Y-116303150D01*
X179814740Y-116303150D01*
X179814740Y-118335340D01*
G37*
X179816980Y-121767410D02*
X179560000Y-121767410D01*
X179560000Y-119605150D01*
X179816980Y-119605150D01*
X179816980Y-121767410D01*
G36*
X179816980Y-121767410D02*
G01*
X179560000Y-121767410D01*
X179560000Y-119605150D01*
X179816980Y-119605150D01*
X179816980Y-121767410D01*
G37*
D15*
%TO.C,U1*%
X149000000Y-55639150D02*
X176900000Y-55639150D01*
X149000000Y-110039150D02*
X149000000Y-55639150D01*
X176900000Y-55639150D02*
X176900000Y-110039150D01*
X176900000Y-110039150D02*
X149000000Y-110039150D01*
D13*
X148450000Y-63029150D02*
G75*
G02*
X148250000Y-63029150I-100000J0D01*
G01*
X148250000Y-63029150D02*
G75*
G02*
X148450000Y-63029150I100000J0D01*
G01*
D15*
%TO.C,J1*%
X89950000Y-61905000D02*
X89950000Y-86105000D01*
X90570000Y-86805000D02*
X95670000Y-86805000D01*
X95670000Y-61205000D02*
X90570000Y-61205000D01*
X95750000Y-58600000D02*
X95750000Y-89410000D01*
X95750000Y-89410000D02*
X108250000Y-89410000D01*
X108250000Y-58600000D02*
X95750000Y-58600000D01*
X108250000Y-89410000D02*
X108250000Y-58600000D01*
X89950000Y-61905000D02*
G75*
G02*
X90570000Y-61205000I660000J40000D01*
G01*
X90570000Y-86805000D02*
G75*
G02*
X89950000Y-86105000I40000J660000D01*
G01*
D13*
X109020000Y-79845000D02*
G75*
G02*
X108820000Y-79845000I-100000J0D01*
G01*
X108820000Y-79845000D02*
G75*
G02*
X109020000Y-79845000I100000J0D01*
G01*
%TO.C,RF2*%
D17*
X148710000Y-122739150D02*
X153710000Y-122739150D01*
X153710000Y-111239150D01*
X148710000Y-111239150D01*
X148710000Y-122739150D01*
%TO.C,RF1*%
X114050000Y-111311700D02*
X109050000Y-111311700D01*
X109050000Y-122811700D01*
X114050000Y-122811700D01*
X114050000Y-111311700D01*
%TO.C,C2*%
X140750000Y-89228100D02*
X140750000Y-90498100D01*
X141385000Y-89863100D02*
X140115000Y-89863100D01*
X145880800Y-95755900D02*
G75*
G02*
X135619200Y-95755900I-5130800J0D01*
G01*
X135619200Y-95755900D02*
G75*
G02*
X145880800Y-95755900I5130800J0D01*
G01*
D15*
%TO.C,J2*%
X95725000Y-105875000D02*
X107725000Y-105875000D01*
X95725000Y-123115000D02*
X95725000Y-105875000D01*
X107725000Y-123115000D02*
X95725000Y-123115000D01*
X107725000Y-123115000D02*
X107725000Y-105875000D01*
D13*
X105825000Y-105225000D02*
G75*
G02*
X105625000Y-105225000I-100000J0D01*
G01*
X105625000Y-105225000D02*
G75*
G02*
X105825000Y-105225000I100000J0D01*
G01*
D17*
%TO.C,C1*%
X129000000Y-89228100D02*
X129000000Y-90498100D01*
X129635000Y-89863100D02*
X128365000Y-89863100D01*
X134130800Y-95755900D02*
G75*
G02*
X123869200Y-95755900I-5130800J0D01*
G01*
X123869200Y-95755900D02*
G75*
G02*
X134130800Y-95755900I5130800J0D01*
G01*
D15*
%TO.C,PS1*%
X115370000Y-102439150D02*
X147170000Y-102439150D01*
X115370000Y-122739150D02*
X115370000Y-102439150D01*
X147170000Y-102439150D02*
X147170000Y-122739150D01*
X147170000Y-122739150D02*
X115370000Y-122739150D01*
D13*
X114860000Y-120209150D02*
G75*
G02*
X114660000Y-120209150I-100000J0D01*
G01*
X114660000Y-120209150D02*
G75*
G02*
X114860000Y-120209150I100000J0D01*
G01*
D16*
%TO.C,J3*%
X168283200Y-81527600D02*
G75*
G02*
X167521200Y-81527600I-381000J0D01*
G01*
X167521200Y-81527600D02*
G75*
G02*
X168283200Y-81527600I381000J0D01*
G01*
%TD*%
M02*
