%MOIN*%
%OFA0B0*%
%FSLAX36Y36*%
%IPPOS*%
%LPD*%
%ADD10C,0*%
D10*
X003431951Y001338582D02*
X003431951Y001338582D01*
X003434371Y001338508D01*
X003436781Y001338285D01*
X003439174Y001337914D01*
X003441539Y001337397D01*
X003443867Y001336736D01*
X003446151Y001335932D01*
X003448381Y001334990D01*
X003450549Y001333913D01*
X003452646Y001332704D01*
X003454666Y001331369D01*
X003456599Y001329912D01*
X003458439Y001328339D01*
X003460179Y001326656D01*
X003461813Y001324869D01*
X003463333Y001322985D01*
X003464735Y001321012D01*
X003466013Y001318956D01*
X003467162Y001316825D01*
X003468178Y001314627D01*
X003469057Y001312372D01*
X003469134Y001312153D01*
X003470221Y001308552D01*
X003470959Y001304864D01*
X003471341Y001301122D01*
X003471365Y001297360D01*
X003471029Y001293614D01*
X003470338Y001289916D01*
X003469297Y001286301D01*
X003467915Y001282803D01*
X003466206Y001279452D01*
X003464185Y001276279D01*
X003461871Y001273314D01*
X003459284Y001270583D01*
X003456448Y001268112D01*
X003453389Y001265922D01*
X003450136Y001264035D01*
X003446717Y001262466D01*
X003443164Y001261231D01*
X003439509Y001260341D01*
X003435786Y001259803D01*
X003432029Y001259624D01*
X002630962Y001259624D01*
X002627205Y001259803D01*
X002623482Y001260341D01*
X002619827Y001261231D01*
X002616274Y001262466D01*
X002612855Y001264035D01*
X002609602Y001265922D01*
X002606543Y001268112D01*
X002603707Y001270583D01*
X002601120Y001273314D01*
X002598806Y001276279D01*
X002596785Y001279452D01*
X002595076Y001282803D01*
X002593694Y001286301D01*
X002592653Y001289916D01*
X002591962Y001293614D01*
X002591626Y001297360D01*
X002591650Y001301122D01*
X002592032Y001304864D01*
X002592770Y001308552D01*
X002593857Y001312153D01*
X002593934Y001312372D01*
X002594813Y001314627D01*
X002595829Y001316825D01*
X002596978Y001318956D01*
X002598256Y001321012D01*
X002599658Y001322985D01*
X002601178Y001324869D01*
X002602812Y001326656D01*
X002604552Y001328339D01*
X002606392Y001329912D01*
X002608325Y001331369D01*
X002610345Y001332704D01*
X002612442Y001333913D01*
X002614610Y001334990D01*
X002616840Y001335932D01*
X002619124Y001336736D01*
X002621452Y001337397D01*
X002623817Y001337914D01*
X002626210Y001338285D01*
X002628620Y001338508D01*
X002631040Y001338582D01*
X003431951Y001338582D01*
X001843638Y002598425D02*
X001843638Y002598425D01*
X001837480Y002598909D01*
X001831472Y002600352D01*
X001825765Y002602716D01*
X001820497Y002605944D01*
X001815800Y002609956D01*
X001811787Y002614654D01*
X001808559Y002619921D01*
X001806195Y002625629D01*
X001804753Y002631636D01*
X001804268Y002637795D01*
X001804753Y002643954D01*
X001806195Y002649961D01*
X001808559Y002655668D01*
X001811787Y002660936D01*
X001815800Y002665634D01*
X001820497Y002669646D01*
X001825765Y002672874D01*
X001831472Y002675238D01*
X001837480Y002676680D01*
X001843638Y002677165D01*
X001843638Y002677165D01*
X002408329Y002677165D01*
X002408329Y002677165D01*
X002414488Y002676680D01*
X002420495Y002675238D01*
X002426203Y002672874D01*
X002431470Y002669646D01*
X002436168Y002665634D01*
X002440180Y002660936D01*
X002443408Y002655668D01*
X002445772Y002649961D01*
X002447215Y002643954D01*
X002447699Y002637795D01*
X002447215Y002631636D01*
X002445772Y002625629D01*
X002443408Y002619921D01*
X002440180Y002614654D01*
X002436168Y002609956D01*
X002431470Y002605944D01*
X002426203Y002602716D01*
X002420495Y002600352D01*
X002414488Y002598909D01*
X002408329Y002598425D01*
X001843638Y002598425D01*
X003431951Y002677165D02*
X003431951Y002677165D01*
X003431951Y002677165D01*
X003438110Y002676680D01*
X003444117Y002675238D01*
X003449825Y002672874D01*
X003455092Y002669646D01*
X003459790Y002665634D01*
X003463802Y002660936D01*
X003467030Y002655668D01*
X003469394Y002649961D01*
X003470837Y002643954D01*
X003471321Y002637795D01*
X003470837Y002631636D01*
X003469394Y002625629D01*
X003467030Y002619921D01*
X003463802Y002614654D01*
X003459790Y002609956D01*
X003455092Y002605944D01*
X003449825Y002602716D01*
X003444117Y002600352D01*
X003438110Y002598909D01*
X003431951Y002598425D01*
X002631040Y002598425D01*
X002624881Y002598909D01*
X002618874Y002600352D01*
X002613166Y002602716D01*
X002607899Y002605944D01*
X002603201Y002609956D01*
X002599189Y002614654D01*
X002595961Y002619921D01*
X002593597Y002625629D01*
X002592155Y002631636D01*
X002591670Y002637795D01*
X002592155Y002643954D01*
X002593597Y002649961D01*
X002595961Y002655668D01*
X002599189Y002660936D01*
X002603201Y002665634D01*
X002607899Y002669646D01*
X002613166Y002672874D01*
X002618874Y002675238D01*
X002624881Y002676680D01*
X002631040Y002677165D01*
X003431951Y002677165D01*
X000229465Y002598425D02*
X000229465Y002598425D01*
X000229465Y002598425D01*
X000223306Y002598909D01*
X000217299Y002600352D01*
X000211591Y002602716D01*
X000206324Y002605944D01*
X000201626Y002609956D01*
X000197614Y002614654D01*
X000194386Y002619921D01*
X000192022Y002625629D01*
X000190580Y002631636D01*
X000190095Y002637795D01*
X000190580Y002643954D01*
X000192022Y002649961D01*
X000194386Y002655668D01*
X000197614Y002660936D01*
X000201626Y002665634D01*
X000206324Y002669646D01*
X000211591Y002672874D01*
X000217299Y002675238D01*
X000223306Y002676680D01*
X000229465Y002677165D01*
X001620928Y002677165D01*
X001620928Y002677165D01*
X001627086Y002676680D01*
X001633094Y002675238D01*
X001638801Y002672874D01*
X001644069Y002669646D01*
X001648766Y002665634D01*
X001652779Y002660936D01*
X001656007Y002655668D01*
X001658371Y002649961D01*
X001659813Y002643954D01*
X001660298Y002637795D01*
X001659813Y002631636D01*
X001658371Y002625629D01*
X001656007Y002619921D01*
X001652779Y002614654D01*
X001648766Y002609956D01*
X001644069Y002605944D01*
X001638801Y002602716D01*
X001633094Y002600352D01*
X001627086Y002598909D01*
X001620928Y002598425D01*
X000229465Y002598425D01*
X000006754Y002677165D02*
X000006754Y002677165D01*
X000006754Y002677165D01*
X000012913Y002676680D01*
X000018920Y002675238D01*
X000024628Y002672874D01*
X000029895Y002669646D01*
X000034593Y002665634D01*
X000038605Y002660936D01*
X000041833Y002655668D01*
X000044198Y002649961D01*
X000045640Y002643954D01*
X000046124Y002637795D01*
X000045640Y002631636D01*
X000044198Y002625629D01*
X000041833Y002619921D01*
X000038605Y002614654D01*
X000034593Y002609956D01*
X000029895Y002605944D01*
X000024628Y002602716D01*
X000018920Y002600352D01*
X000012913Y002598909D01*
X000006754Y002598425D01*
X000006754Y002598425D01*
X-000001695Y002598425D01*
X-000001695Y001338582D01*
X000006754Y001338582D01*
X000006754Y001338582D01*
X000009174Y001338508D01*
X000011585Y001338285D01*
X000013977Y001337914D01*
X000016342Y001337397D01*
X000018671Y001336736D01*
X000020954Y001335932D01*
X000023184Y001334990D01*
X000025352Y001333913D01*
X000027450Y001332704D01*
X000029469Y001331369D01*
X000031402Y001329912D01*
X000033243Y001328339D01*
X000034983Y001326656D01*
X000036616Y001324869D01*
X000038136Y001322985D01*
X000039538Y001321012D01*
X000040816Y001318956D01*
X000041965Y001316825D01*
X000042981Y001314627D01*
X000043860Y001312372D01*
X000043937Y001312153D01*
X000045024Y001308552D01*
X000045762Y001304864D01*
X000046144Y001301122D01*
X000046168Y001297360D01*
X000045833Y001293614D01*
X000045141Y001289916D01*
X000044100Y001286301D01*
X000042718Y001282803D01*
X000041009Y001279452D01*
X000038988Y001276279D01*
X000036674Y001273314D01*
X000034087Y001270583D01*
X000031251Y001268112D01*
X000028192Y001265922D01*
X000024939Y001264035D01*
X000021520Y001262466D01*
X000017967Y001261231D01*
X000014312Y001260341D01*
X000010589Y001259803D01*
X000006832Y001259624D01*
X-000002387Y001259624D01*
X-000002387Y-000000218D01*
X003934619Y-000000218D01*
X003934619Y001259624D01*
X003654585Y001259624D01*
X003650827Y001259803D01*
X003647104Y001260341D01*
X003643450Y001261231D01*
X003639896Y001262466D01*
X003636478Y001264035D01*
X003633224Y001265922D01*
X003630165Y001268112D01*
X003627329Y001270583D01*
X003624742Y001273314D01*
X003622428Y001276279D01*
X003620407Y001279452D01*
X003618698Y001282803D01*
X003617316Y001286301D01*
X003616275Y001289916D01*
X003615584Y001293614D01*
X003615248Y001297360D01*
X003615272Y001301122D01*
X003615655Y001304864D01*
X003616392Y001308552D01*
X003617479Y001312153D01*
X003617556Y001312372D01*
X003618435Y001314627D01*
X003619451Y001316825D01*
X003620600Y001318956D01*
X003621878Y001321012D01*
X003623280Y001322985D01*
X003624800Y001324869D01*
X003626434Y001326656D01*
X003628174Y001328339D01*
X003630014Y001329912D01*
X003631947Y001331369D01*
X003633967Y001332704D01*
X003636064Y001333913D01*
X003638232Y001334990D01*
X003640462Y001335932D01*
X003642746Y001336736D01*
X003645074Y001337397D01*
X003647439Y001337914D01*
X003649832Y001338285D01*
X003652242Y001338508D01*
X003654662Y001338582D01*
X003935311Y001338582D01*
X003935311Y002598425D01*
X003654662Y002598425D01*
X003648503Y002598909D01*
X003642496Y002600352D01*
X003636788Y002602716D01*
X003631521Y002605944D01*
X003626823Y002609956D01*
X003622811Y002614654D01*
X003619583Y002619921D01*
X003617219Y002625629D01*
X003615777Y002631636D01*
X003615292Y002637795D01*
X003615777Y002643954D01*
X003617219Y002649961D01*
X003619583Y002655668D01*
X003622811Y002660936D01*
X003626823Y002665634D01*
X003631521Y002669646D01*
X003636788Y002672874D01*
X003642496Y002675238D01*
X003648503Y002676680D01*
X003654662Y002677165D01*
X003654662Y002677165D01*
X003933784Y002677165D01*
X003933784Y003937007D01*
X-000003223Y003937007D01*
X-000003223Y002677165D01*
X000006754Y002677165D01*
X001620928Y001338582D02*
X001620928Y001338582D01*
X001623347Y001338508D01*
X001625758Y001338285D01*
X001628150Y001337914D01*
X001630515Y001337397D01*
X001632844Y001336736D01*
X001635127Y001335932D01*
X001637357Y001334990D01*
X001639525Y001333913D01*
X001641623Y001332704D01*
X001643642Y001331369D01*
X001645576Y001329912D01*
X001647416Y001328339D01*
X001649156Y001326656D01*
X001650789Y001324869D01*
X001652310Y001322985D01*
X001653711Y001321012D01*
X001654989Y001318956D01*
X001656138Y001316825D01*
X001657154Y001314627D01*
X001658033Y001312372D01*
X001658111Y001312153D01*
X001659197Y001308552D01*
X001659935Y001304864D01*
X001660318Y001301122D01*
X001660341Y001297360D01*
X001660006Y001293614D01*
X001659314Y001289916D01*
X001658273Y001286301D01*
X001656892Y001282803D01*
X001655183Y001279452D01*
X001653162Y001276279D01*
X001650847Y001273314D01*
X001648260Y001270583D01*
X001645424Y001268112D01*
X001642366Y001265922D01*
X001639112Y001264035D01*
X001635693Y001262466D01*
X001632140Y001261231D01*
X001628485Y001260341D01*
X001624762Y001259803D01*
X001621005Y001259624D01*
X000229388Y001259624D01*
X000225630Y001259803D01*
X000221907Y001260341D01*
X000218253Y001261231D01*
X000214700Y001262466D01*
X000211281Y001264035D01*
X000208027Y001265922D01*
X000204968Y001268112D01*
X000202133Y001270583D01*
X000199546Y001273314D01*
X000197231Y001276279D01*
X000195210Y001279452D01*
X000193501Y001282803D01*
X000192120Y001286301D01*
X000191078Y001289916D01*
X000190387Y001293614D01*
X000190052Y001297360D01*
X000190075Y001301122D01*
X000190458Y001304864D01*
X000191196Y001308552D01*
X000192282Y001312153D01*
X000192360Y001312372D01*
X000193239Y001314627D01*
X000194254Y001316825D01*
X000195403Y001318956D01*
X000196681Y001321012D01*
X000198083Y001322985D01*
X000199604Y001324869D01*
X000201237Y001326656D01*
X000202977Y001328339D01*
X000204817Y001329912D01*
X000206751Y001331369D01*
X000208770Y001332704D01*
X000210867Y001333913D01*
X000213035Y001334990D01*
X000215265Y001335932D01*
X000217549Y001336736D01*
X000219878Y001337397D01*
X000222243Y001337914D01*
X000224635Y001338285D01*
X000227045Y001338508D01*
X000229465Y001338582D01*
X001620928Y001338582D01*
X002408329Y001338582D02*
X002408329Y001338582D01*
X002410749Y001338508D01*
X002413159Y001338285D01*
X002415552Y001337914D01*
X002417917Y001337397D01*
X002420245Y001336736D01*
X002422529Y001335932D01*
X002424759Y001334990D01*
X002426927Y001333913D01*
X002429024Y001332704D01*
X002431044Y001331369D01*
X002432977Y001329912D01*
X002434817Y001328339D01*
X002436557Y001326656D01*
X002438191Y001324869D01*
X002439711Y001322985D01*
X002441113Y001321012D01*
X002442391Y001318956D01*
X002443540Y001316825D01*
X002444556Y001314627D01*
X002445435Y001312372D01*
X002445512Y001312153D01*
X002446599Y001308552D01*
X002447337Y001304864D01*
X002447719Y001301122D01*
X002447743Y001297360D01*
X002447407Y001293614D01*
X002446716Y001289916D01*
X002445675Y001286301D01*
X002444293Y001282803D01*
X002442584Y001279452D01*
X002440563Y001276279D01*
X002438249Y001273314D01*
X002435662Y001270583D01*
X002432826Y001268112D01*
X002429767Y001265922D01*
X002426514Y001264035D01*
X002423095Y001262466D01*
X002419542Y001261231D01*
X002415887Y001260341D01*
X002412164Y001259803D01*
X002408407Y001259624D01*
X001843561Y001259624D01*
X001839804Y001259803D01*
X001836081Y001260341D01*
X001832426Y001261231D01*
X001828873Y001262466D01*
X001825454Y001264035D01*
X001822200Y001265922D01*
X001819142Y001268112D01*
X001816306Y001270583D01*
X001813719Y001273314D01*
X001811404Y001276279D01*
X001809383Y001279452D01*
X001807674Y001282803D01*
X001806293Y001286301D01*
X001805252Y001289916D01*
X001804560Y001293614D01*
X001804225Y001297360D01*
X001804248Y001301122D01*
X001804631Y001304864D01*
X001805369Y001308552D01*
X001806455Y001312153D01*
X001806533Y001312372D01*
X001807412Y001314627D01*
X001808428Y001316825D01*
X001809577Y001318956D01*
X001810855Y001321012D01*
X001812256Y001322985D01*
X001813777Y001324869D01*
X001815410Y001326656D01*
X001817150Y001328339D01*
X001818990Y001329912D01*
X001820924Y001331369D01*
X001822943Y001332704D01*
X001825041Y001333913D01*
X001827209Y001334990D01*
X001829438Y001335932D01*
X001831722Y001336736D01*
X001834051Y001337397D01*
X001836416Y001337914D01*
X001838808Y001338285D01*
X001841219Y001338508D01*
X001843638Y001338582D01*
X002408329Y001338582D01*
M02*